<?xml version="1.0" standalone="no"?><!DOCTYPE svg PUBLIC "-//W3C//DTD SVG 1.1//EN" "http://www.w3.org/Graphics/SVG/1.1/DTD/svg11.dtd" ><svg xmlns="http://www.w3.org/2000/svg"><metadata></metadata><defs><font id="HarmonyOS Sans Version 1.0" horiz-adv-x="1447"><font-face font-family="HarmonyOS Sans" font-weight="400" font-stretch="normal" units-per-em="1000" panose-1="0 0 5 0 0 0 0 0 0 0" ascent="928" descent="-244" x-height="0" bbox="-548 -271 1360 1056" underline-thickness="50" underline-position="-75" unicode-range="U+0000-30fb" /><missing-glyph horiz-adv-x="1000"  /><glyph glyph-name="null" unicode="" d="" /><glyph glyph-name="space" unicode=" " d="" /><glyph glyph-name="A" unicode="A" d="M363 732 l294 -732 l-99 0 l-81 210 l-303 0 l-77 -210 l-90 0 l281 732 l75 0 ZM446 290 l-124 323 l-118 -323 l242 0 Z" /><glyph glyph-name="Aacute" unicode="Á" d="M304 811 l82 117 l94 0 l-101 -117 l-75 0 ZM363 732 l294 -732 l-99 0 l-81 210 l-303 0 l-77 -210 l-90 0 l281 732 l75 0 ZM446 290 l-124 323 l-118 -323 l242 0 Z" /><glyph glyph-name="Abreve" unicode="&#x102;" d="M335 811 q-71 0 -111.5 31 q-40.5 31 -40.5 86 l78 0 q2 -32 21 -49.5 q19 -17.5 53 -17.5 q35 0 54 17.5 q19 17.5 21 49.5 l78 0 q0 -55 -40.5 -86 q-40.5 -31 -112.5 -31 ZM363 732 l294 -732 l-99 0 l-81 210 l-303 0 l-77 -210 l-90 0 l281 732 l75 0 ZM446 290 l-124 323 l-118 -323 l242 0 Z" /><glyph glyph-name="uni1EAE" unicode="&#x1eae;" d="M304 868 l82 60 l94 0 l-101 -60 l-75 0 ZM335 791 q-71 0 -111.5 16.5 q-40.5 16.5 -40.5 44.5 l78 0 q5 -25 74 -25 q70 0 75 25 l78 0 q0 -29 -40.5 -45 q-40.5 -16 -112.5 -16 ZM363 732 l294 -732 l-99 0 l-81 210 l-303 0 l-77 -210 l-90 0 l281 732 l75 0 ZM446 290 l-124 323 l-118 -323 l242 0 Z" /><glyph glyph-name="uni1EB6" unicode="&#x1eb6;" d="M335 811 q-71 0 -111.5 31 q-40.5 31 -40.5 86 l78 0 q2 -32 21 -49 q19 -17 53 -17 q70 0 75 66 l78 0 q0 -55 -40.5 -86 q-40.5 -31 -112.5 -31 ZM363 732 l294 -732 l-99 0 l-81 210 l-303 0 l-77 -210 l-90 0 l281 732 l75 0 ZM446 290 l-124 323 l-118 -323 l242 0 ZM337 -188 q-23 0 -39.5 17.5 q-16.5 17.5 -16.5 40.5 q0 23 16.5 40.5 q16.5 17.5 39.5 17.5 q24 0 40.5 -17 q16.5 -17 16.5 -41 q0 -23 -17 -40.5 q-17 -17.5 -40 -17.5 Z" /><glyph glyph-name="uni1EB0" unicode="&#x1eb0;" d="M190 928 l94 0 l82 -60 l-75 0 l-101 60 ZM335 791 q-71 0 -111.5 16.5 q-40.5 16.5 -40.5 44.5 l78 0 q5 -25 74 -25 q70 0 75 25 l78 0 q0 -29 -40.5 -45 q-40.5 -16 -112.5 -16 ZM363 732 l294 -732 l-99 0 l-81 210 l-303 0 l-77 -210 l-90 0 l281 732 l75 0 ZM446 290 l-124 323 l-118 -323 l242 0 Z" /><glyph glyph-name="uni1EB2" unicode="&#x1eb2;" d="M245 920 q34 8 77 8 q45 0 74.5 -8.5 q29.5 -8.5 29.5 -25.5 q0 -30 -96 -44 l-34 19 q62 7 62 19 q0 5 -13 8.5 q-13 3.5 -34 3.5 q-29 0 -55 -5 l-11 25 ZM335 791 q-71 0 -111.5 15.5 q-40.5 15.5 -40.5 43.5 l78 0 q5 -24 74 -24 q71 0 75 24 l78 0 q0 -28 -40.5 -43.5 q-40.5 -15.5 -112.5 -15.5 ZM363 732 l294 -732 l-99 0 l-81 210 l-303 0 l-77 -210 l-90 0 l281 732 l75 0 ZM446 290 l-124 323 l-118 -323 l242 0 Z" /><glyph glyph-name="uni1EB4" unicode="&#x1eb4;" d="M170 875 q1 24 29.5 38.5 q28.5 14.5 73.5 14.5 q28 0 46 -3.5 q18 -3.5 35 -10.5 q2 -1 14 -4.5 q12 -3.5 25 -3.5 q29 0 37 17 l70 0 q-1 -24 -29.5 -38.5 q-28.5 -14.5 -73.5 -14.5 q-28 0 -46 3.5 q-18 3.5 -35 10.5 q-2 1 -14 4.5 q-12 3.5 -25 3.5 q-30 0 -37 -17 l-70 0 ZM335 791 q-71 0 -111.5 16.5 q-40.5 16.5 -40.5 45.5 l78 0 q5 -25 74 -25 q70 0 75 25 l78 0 q0 -29 -40.5 -45.5 q-40.5 -16.5 -112.5 -16.5 ZM363 732 l294 -732 l-99 0 l-81 210 l-303 0 l-77 -210 l-90 0 l281 732 l75 0 ZM446 290 l-124 323 l-118 -323 l242 0 Z" /><glyph glyph-name="uni01CD" unicode="&#x1cd;" d="M262 928 l73 -72 l72 72 l91 0 l-122 -117 l-83 0 l-122 117 l91 0 ZM363 732 l294 -732 l-99 0 l-81 210 l-303 0 l-77 -210 l-90 0 l281 732 l75 0 ZM446 290 l-124 323 l-118 -323 l242 0 Z" /><glyph glyph-name="Acircumflex" unicode="Â" d="M293 928 l83 0 l122 -117 l-91 0 l-72 72 l-73 -72 l-91 0 l122 117 ZM363 732 l294 -732 l-99 0 l-81 210 l-303 0 l-77 -210 l-90 0 l281 732 l75 0 ZM446 290 l-124 323 l-118 -323 l242 0 Z" /><glyph glyph-name="uni1EA4" unicode="&#x1ea4;" d="M413 865 l82 63 l94 0 l-101 -63 l-75 0 ZM293 854 l83 0 l122 -63 l-102 0 l-61 29 l-62 -29 l-102 0 l122 63 ZM363 732 l294 -732 l-99 0 l-81 210 l-303 0 l-77 -210 l-90 0 l281 732 l75 0 ZM446 290 l-124 323 l-118 -323 l242 0 Z" /><glyph glyph-name="uni1EAC" unicode="&#x1eac;" d="M293 928 l83 0 l122 -117 l-91 0 l-72 72 l-73 -72 l-91 0 l122 117 ZM363 732 l294 -732 l-99 0 l-81 210 l-303 0 l-77 -210 l-90 0 l281 732 l75 0 ZM446 290 l-124 323 l-118 -323 l242 0 ZM337 -188 q-23 0 -39.5 17.5 q-16.5 17.5 -16.5 40.5 q0 23 16.5 40.5 q16.5 17.5 39.5 17.5 q24 0 40.5 -17 q16.5 -17 16.5 -41 q0 -23 -17 -40.5 q-17 -17.5 -40 -17.5 Z" /><glyph glyph-name="uni1EA6" unicode="&#x1ea6;" d="M299 928 l94 0 l82 -63 l-75 0 l-101 63 ZM293 854 l83 0 l122 -63 l-102 0 l-61 29 l-62 -29 l-102 0 l122 63 ZM363 732 l294 -732 l-99 0 l-81 210 l-303 0 l-77 -210 l-90 0 l281 732 l75 0 ZM446 290 l-124 323 l-118 -323 l242 0 Z" /><glyph glyph-name="uni1EA8" unicode="&#x1ea8;" d="M354 919 q34 8 77 8 q46 0 75 -8.5 q29 -8.5 29 -26.5 q0 -31 -96 -45 l-34 19 q62 7 62 20 q0 5 -13 9 q-13 4 -34 4 q-23 0 -55 -6 l-11 26 ZM293 852 l83 0 l122 -61 l-102 0 l-61 28 l-62 -28 l-102 0 l122 61 ZM363 732 l294 -732 l-99 0 l-81 210 l-303 0 l-77 -210 l-90 0 l281 732 l75 0 ZM446 290 l-124 323 l-118 -323 l242 0 Z" /><glyph glyph-name="uni1EAA" unicode="&#x1eaa;" d="M170 875 q1 24 29.5 38.5 q28.5 14.5 73.5 14.5 q28 0 46 -3.5 q18 -3.5 35 -10.5 q2 -1 14 -4.5 q12 -3.5 25 -3.5 q29 0 37 17 l70 0 q-1 -24 -29.5 -38.5 q-28.5 -14.5 -73.5 -14.5 q-28 0 -46 3.5 q-18 3.5 -35 10.5 q-2 1 -14 4.5 q-12 3.5 -25 3.5 q-30 0 -37 -17 l-70 0 ZM293 853 l83 0 l122 -62 l-102 0 l-61 28 l-62 -28 l-102 0 l122 62 ZM363 732 l294 -732 l-99 0 l-81 210 l-303 0 l-77 -210 l-90 0 l281 732 l75 0 ZM446 290 l-124 323 l-118 -323 l242 0 Z" /><glyph glyph-name="Adieresis" unicode="Ä" d="M232 812 q-23 0 -39.5 17 q-16.5 17 -16.5 41 q0 24 16.5 41 q16.5 17 39.5 17 q24 0 40.5 -17 q16.5 -17 16.5 -41 q0 -24 -16.5 -41 q-16.5 -17 -40.5 -17 ZM437 812 q-23 0 -39.5 17 q-16.5 17 -16.5 41 q0 24 16.5 41 q16.5 17 39.5 17 q24 0 40.5 -17 q16.5 -17 16.5 -41 q0 -24 -16.5 -41 q-16.5 -17 -40.5 -17 ZM363 732 l294 -732 l-99 0 l-81 210 l-303 0 l-77 -210 l-90 0 l281 732 l75 0 ZM446 290 l-124 323 l-118 -323 l242 0 Z" /><glyph glyph-name="uni1EA0" unicode="&#x1ea0;" d="M363 732 l294 -732 l-99 0 l-81 210 l-303 0 l-77 -210 l-90 0 l281 732 l75 0 ZM446 290 l-124 323 l-118 -323 l242 0 ZM337 -188 q-23 0 -39.5 17.5 q-16.5 17.5 -16.5 40.5 q0 23 16.5 40.5 q16.5 17.5 39.5 17.5 q24 0 40.5 -17 q16.5 -17 16.5 -41 q0 -23 -17 -40.5 q-17 -17.5 -40 -17.5 Z" /><glyph glyph-name="Agrave" unicode="À" d="M190 928 l94 0 l82 -117 l-75 0 l-101 117 ZM363 732 l294 -732 l-99 0 l-81 210 l-303 0 l-77 -210 l-90 0 l281 732 l75 0 ZM446 290 l-124 323 l-118 -323 l242 0 Z" /><glyph glyph-name="uni1EA2" unicode="&#x1ea2;" d="M245 914 q33 14 77 14 q46 0 75 -15.5 q29 -15.5 29 -47.5 q0 -55 -96 -79 l-36 34 q29 9 44 17.5 q15 8.5 15 21.5 q0 11 -12.5 18.5 q-12.5 7.5 -32.5 7.5 q-26 0 -52 -13 l-11 42 ZM363 732 l294 -732 l-99 0 l-81 210 l-303 0 l-77 -210 l-90 0 l281 732 l75 0 ZM446 290 l-124 323 l-118 -323 l242 0 Z" /><glyph glyph-name="Amacron" unicode="&#x100;" d="M175 851 l0 74 l320 0 l0 -74 l-320 0 ZM363 732 l294 -732 l-99 0 l-81 210 l-303 0 l-77 -210 l-90 0 l281 732 l75 0 ZM446 290 l-124 323 l-118 -323 l242 0 Z" /><glyph glyph-name="Aogonek" unicode="&#x104;" d="M712 -196 q-19 -22 -48 -35 q-29 -13 -64 -13 q-52 0 -89 26 q-37 26 -37 81 q0 76 85 137 l-1 0 l-81 210 l-303 0 l-77 -210 l-90 0 l281 732 l75 0 l294 -732 q-57 -34 -83.5 -63.5 q-26.5 -29.5 -26.5 -64.5 q0 -29 16 -42 q16 -13 41 -13 q39 0 75 32 l33 -45 ZM322 613 l-118 -323 l242 0 l-124 323 Z" /><glyph glyph-name="Aring" unicode="Å" d="M227 862 q0 28 31 47 q31 19 77 19 q45 0 75 -19 q30 -19 30 -47 q0 -29 -30 -48 q-30 -19 -75 -19 q-46 0 -77 19 q-31 19 -31 48 ZM284 862 q0 -15 14 -24.5 q14 -9.5 37 -9.5 q22 0 35.5 9.5 q13.5 9.5 13.5 24.5 q0 15 -13.5 24 q-13.5 9 -35.5 9 q-23 0 -37 -9 q-14 -9 -14 -24 ZM363 732 l294 -732 l-99 0 l-81 210 l-303 0 l-77 -210 l-90 0 l281 732 l75 0 ZM446 290 l-124 323 l-118 -323 l242 0 Z" /><glyph glyph-name="Aringacute" unicode="&#x1fa;" d="M291 874 l82 54 l94 0 l-101 -54 l-75 0 ZM238 811 q0 19 28 31 q28 12 69 12 q41 0 67.5 -12 q26.5 -12 26.5 -31 q0 -18 -26.5 -29.5 q-26.5 -11.5 -67.5 -11.5 q-42 0 -69.5 11.5 q-27.5 11.5 -27.5 29.5 ZM295 811 q0 -6 11 -10 q11 -4 29 -4 q17 0 27.5 4 q10.5 4 10.5 10 q0 7 -10.5 11 q-10.5 4 -27.5 4 q-18 0 -29 -4 q-11 -4 -11 -11 ZM363 732 l294 -732 l-99 0 l-81 210 l-303 0 l-77 -210 l-90 0 l281 732 l75 0 ZM446 290 l-124 323 l-118 -323 l242 0 Z" /><glyph glyph-name="uni1E00" unicode="&#x1e00;" d="M363 732 l294 -732 l-99 0 l-81 210 l-303 0 l-77 -210 l-90 0 l281 732 l75 0 ZM446 290 l-124 323 l-118 -323 l242 0 ZM229 -141 q0 45 31 74 q31 29 77 29 q45 0 75 -29 q30 -29 30 -74 q0 -45 -30 -74 q-30 -29 -75 -29 q-46 0 -77 29 q-31 29 -31 74 ZM286 -141 q0 -23 14 -37.5 q14 -14.5 37 -14.5 q22 0 35.5 14.5 q13.5 14.5 13.5 37.5 q0 23 -13.5 37.5 q-13.5 14.5 -35.5 14.5 q-23 0 -37 -14.5 q-14 -14.5 -14 -37.5 Z" /><glyph glyph-name="Atilde" unicode="Ã" d="M170 825 q2 46 30 74.5 q28 28.5 73 28.5 q28 0 45 -8.5 q17 -8.5 36 -24.5 q12 -10 20.5 -15 q8.5 -5 18.5 -5 q15 0 24.5 12 q9.5 12 12.5 30 l70 0 q-2 -46 -30 -74.5 q-28 -28.5 -73 -28.5 q-28 0 -45 8.5 q-17 8.5 -36 24.5 q-12 10 -20.5 15 q-8.5 5 -18.5 5 q-29 0 -37 -42 l-70 0 ZM363 732 l294 -732 l-99 0 l-81 210 l-303 0 l-77 -210 l-90 0 l281 732 l75 0 ZM446 290 l-124 323 l-118 -323 l242 0 Z" /><glyph glyph-name="AE" unicode="Æ" d="M911 339 l-322 0 l0 -260 l371 0 l0 -79 l-460 0 l0 216 l-264 0 l-138 -216 l-97 0 l474 733 l474 0 l0 -79 l-360 0 l0 -236 l322 0 l0 -79 ZM500 296 l0 332 l-212 -332 l212 0 Z" /><glyph glyph-name="AEacute" unicode="&#x1fc;" d="M585 811 l82 117 l94 0 l-101 -117 l-75 0 ZM911 339 l-322 0 l0 -260 l371 0 l0 -79 l-460 0 l0 216 l-264 0 l-138 -216 l-97 0 l474 733 l474 0 l0 -79 l-360 0 l0 -236 l322 0 l0 -79 ZM500 296 l0 332 l-212 -332 l212 0 Z" /><glyph glyph-name="B" unicode="B" d="M477 384 q137 -39 137 -177 q0 -98 -67 -152.5 q-67 -54.5 -198 -54.5 l-262 0 l0 732 l231 0 q77 0 134 -24 q57 -24 88 -69 q31 -45 31 -105 q0 -105 -94 -150 ZM176 653 l0 -240 l127 0 q83 0 128.5 32 q45.5 32 45.5 89 q0 55 -46 87 q-46 32 -128 32 l-127 0 ZM333 78 q94 0 140.5 34 q46.5 34 46.5 95 q0 62 -46.5 97 q-46.5 35 -140.5 35 l-157 0 l0 -261 l157 0 Z" /><glyph glyph-name="C" unicode="C" d="M381 71 q120 0 176 111 l72 -42 q-31 -71 -96 -111 q-65 -40 -150 -40 q-93 0 -169 48 q-76 48 -120 134 q-44 86 -44 196 q0 110 44 196 q44 86 120 133.5 q76 47.5 169 47.5 q85 0 150 -40 q65 -40 96 -111 l-72 -42 q-56 111 -176 111 q-70 0 -124 -37 q-54 -37 -83.5 -104 q-29.5 -67 -29.5 -154 q0 -87 29.5 -154.5 q29.5 -67.5 83.5 -104.5 q54 -37 124 -37 Z" /><glyph glyph-name="Cacute" unicode="&#x106;" d="M325 810 l82 118 l94 0 l-101 -118 l-75 0 ZM381 71 q120 0 176 111 l72 -42 q-31 -71 -96 -111 q-65 -40 -150 -40 q-93 0 -169 48 q-76 48 -120 134 q-44 86 -44 196 q0 110 44 196 q44 86 120 133.5 q76 47.5 169 47.5 q85 0 150 -40 q65 -40 96 -111 l-72 -42 q-56 111 -176 111 q-70 0 -124 -37 q-54 -37 -83.5 -104 q-29.5 -67 -29.5 -154 q0 -87 29.5 -154.5 q29.5 -67.5 83.5 -104.5 q54 -37 124 -37 Z" /><glyph glyph-name="Ccaron" unicode="&#x10c;" d="M283 928 l73 -72 l72 72 l91 0 l-122 -118 l-83 0 l-122 118 l91 0 ZM381 71 q120 0 176 111 l72 -42 q-31 -71 -96 -111 q-65 -40 -150 -40 q-93 0 -169 48 q-76 48 -120 134 q-44 86 -44 196 q0 110 44 196 q44 86 120 133.5 q76 47.5 169 47.5 q85 0 150 -40 q65 -40 96 -111 l-72 -42 q-56 111 -176 111 q-70 0 -124 -37 q-54 -37 -83.5 -104 q-29.5 -67 -29.5 -154 q0 -87 29.5 -154.5 q29.5 -67.5 83.5 -104.5 q54 -37 124 -37 Z" /><glyph glyph-name="Ccedilla" unicode="Ç" d="M381 71 q120 0 176 111 l72 -42 q-29 -66 -88 -106 q-59 -40 -136 -44 l-19 -47 q48 1 80 -22 q32 -23 32 -66 q0 -48 -41 -73.5 q-41 -25.5 -98 -25.5 q-35 0 -73 11 l0 59 q35 -11 71 -11 q32 0 50 9 q18 9 18 27 q0 36 -81 36 q-22 0 -34 -1 l-6 37 l28 70 q-81 13 -145 63 q-64 50 -100.5 130.5 q-36.5 80.5 -36.5 180.5 q0 110 44 196 q44 86 120 133.5 q76 47.5 169 47.5 q85 0 150 -40 q65 -40 96 -111 l-72 -42 q-56 111 -176 111 q-70 0 -124 -37 q-54 -37 -83.5 -104 q-29.5 -67 -29.5 -154 q0 -87 29.5 -154.5 q29.5 -67.5 83.5 -104.5 q54 -37 124 -37 Z" /><glyph glyph-name="Ccircumflex" unicode="&#x108;" d="M314 928 l83 0 l122 -118 l-91 0 l-72 72 l-73 -72 l-91 0 l122 118 ZM381 71 q120 0 176 111 l72 -42 q-31 -71 -96 -111 q-65 -40 -150 -40 q-93 0 -169 48 q-76 48 -120 134 q-44 86 -44 196 q0 110 44 196 q44 86 120 133.5 q76 47.5 169 47.5 q85 0 150 -40 q65 -40 96 -111 l-72 -42 q-56 111 -176 111 q-70 0 -124 -37 q-54 -37 -83.5 -104 q-29.5 -67 -29.5 -154 q0 -87 29.5 -154.5 q29.5 -67.5 83.5 -104.5 q54 -37 124 -37 Z" /><glyph glyph-name="Cdotaccent" unicode="&#x10a;" d="M356 829 q-23 0 -39.5 15 q-16.5 15 -16.5 35 q0 20 16.5 34.5 q16.5 14.5 39.5 14.5 q24 0 40.5 -14.5 q16.5 -14.5 16.5 -34.5 q0 -20 -17 -35 q-17 -15 -40 -15 ZM381 71 q120 0 176 111 l72 -42 q-31 -71 -96 -111 q-65 -40 -150 -40 q-93 0 -169 48 q-76 48 -120 134 q-44 86 -44 196 q0 110 44 196 q44 86 120 133.5 q76 47.5 169 47.5 q85 0 150 -40 q65 -40 96 -111 l-72 -42 q-56 111 -176 111 q-70 0 -124 -37 q-54 -37 -83.5 -104 q-29.5 -67 -29.5 -154 q0 -87 29.5 -154.5 q29.5 -67.5 83.5 -104.5 q54 -37 124 -37 Z" /><glyph glyph-name="D" unicode="D" d="M287 732 q107 0 192.5 -43 q85.5 -43 134.5 -125.5 q49 -82.5 49 -196.5 q0 -115 -48.5 -197.5 q-48.5 -82.5 -134 -126 q-85.5 -43.5 -193.5 -43.5 l-200 0 l0 732 l200 0 ZM275 79 q138 0 216 75 q78 75 78 213 q0 136 -78.5 211.5 q-78.5 75.5 -215.5 75.5 l-99 0 l0 -575 l99 0 Z" /><glyph glyph-name="Eth" unicode="Ð" d="M306 732 q107 0 192.5 -43 q85.5 -43 134.5 -125.5 q49 -82.5 49 -196.5 q0 -115 -48.5 -197.5 q-48.5 -82.5 -134 -126 q-85.5 -43.5 -193.5 -43.5 l-200 0 l0 333 l-84 0 l0 80 l84 0 l0 319 l200 0 ZM294 79 q138 0 216 75 q78 75 78 213 q0 136 -78.5 211.5 q-78.5 75.5 -215.5 75.5 l-99 0 l0 -241 l137 0 l0 -80 l-137 0 l0 -254 l99 0 Z" /><glyph glyph-name="Dcaron" unicode="&#x10e;" d="M227 928 l73 -72 l72 72 l91 0 l-122 -118 l-83 0 l-122 118 l91 0 ZM287 732 q107 0 192.5 -43 q85.5 -43 134.5 -125.5 q49 -82.5 49 -196.5 q0 -115 -48.5 -197.5 q-48.5 -82.5 -134 -126 q-85.5 -43.5 -193.5 -43.5 l-200 0 l0 732 l200 0 ZM275 79 q138 0 216 75 q78 75 78 213 q0 136 -78.5 211.5 q-78.5 75.5 -215.5 75.5 l-99 0 l0 -575 l99 0 Z" /><glyph glyph-name="Dcroat" unicode="&#x110;" d="M306 732 q107 0 192.5 -43 q85.5 -43 134.5 -125.5 q49 -82.5 49 -196.5 q0 -115 -48.5 -197.5 q-48.5 -82.5 -134 -126 q-85.5 -43.5 -193.5 -43.5 l-200 0 l0 333 l-84 0 l0 80 l84 0 l0 319 l200 0 ZM294 79 q138 0 216 75 q78 75 78 213 q0 136 -78.5 211.5 q-78.5 75.5 -215.5 75.5 l-99 0 l0 -241 l137 0 l0 -80 l-137 0 l0 -254 l99 0 Z" /><glyph glyph-name="E" unicode="E" d="M498 339 l-322 0 l0 -260 l371 0 l0 -79 l-460 0 l0 733 l449 0 l0 -79 l-360 0 l0 -236 l322 0 l0 -79 Z" /><glyph glyph-name="Eacute" unicode="É" d="M281 810 l82 118 l94 0 l-101 -118 l-75 0 ZM498 339 l-322 0 l0 -260 l371 0 l0 -79 l-460 0 l0 733 l449 0 l0 -79 l-360 0 l0 -236 l322 0 l0 -79 Z" /><glyph glyph-name="Ebreve" unicode="&#x114;" d="M312 810 q-71 0 -111.5 31.5 q-40.5 31.5 -40.5 86.5 l78 0 q2 -32 21 -49.5 q19 -17.5 53 -17.5 q35 0 54 17.5 q19 17.5 21 49.5 l78 0 q0 -56 -40.5 -87 q-40.5 -31 -112.5 -31 ZM498 339 l-322 0 l0 -260 l371 0 l0 -79 l-460 0 l0 733 l449 0 l0 -79 l-360 0 l0 -236 l322 0 l0 -79 Z" /><glyph glyph-name="Ecaron" unicode="&#x11a;" d="M239 928 l73 -72 l72 72 l91 0 l-122 -118 l-83 0 l-122 118 l91 0 ZM498 339 l-322 0 l0 -260 l371 0 l0 -79 l-460 0 l0 733 l449 0 l0 -79 l-360 0 l0 -236 l322 0 l0 -79 Z" /><glyph glyph-name="Ecircumflex" unicode="Ê" d="M270 928 l83 0 l122 -118 l-91 0 l-72 72 l-73 -72 l-91 0 l122 118 ZM498 339 l-322 0 l0 -260 l371 0 l0 -79 l-460 0 l0 733 l449 0 l0 -79 l-360 0 l0 -236 l322 0 l0 -79 Z" /><glyph glyph-name="uni1EBE" unicode="&#x1ebe;" d="M390 865 l82 63 l94 0 l-101 -63 l-75 0 ZM270 854 l83 0 l122 -63 l-102 0 l-61 29 l-62 -29 l-102 0 l122 63 ZM498 339 l-322 0 l0 -260 l371 0 l0 -79 l-460 0 l0 733 l449 0 l0 -79 l-360 0 l0 -236 l322 0 l0 -79 Z" /><glyph glyph-name="uni1EC6" unicode="&#x1ec6;" d="M270 928 l83 0 l122 -118 l-91 0 l-72 73 l-73 -73 l-91 0 l122 118 ZM498 339 l-322 0 l0 -260 l371 0 l0 -79 l-460 0 l0 733 l449 0 l0 -79 l-360 0 l0 -236 l322 0 l0 -79 ZM312 -188 q-23 0 -39.5 17.5 q-16.5 17.5 -16.5 40.5 q0 23 16.5 40.5 q16.5 17.5 39.5 17.5 q24 0 40.5 -17 q16.5 -17 16.5 -41 q0 -23 -17 -40.5 q-17 -17.5 -40 -17.5 Z" /><glyph glyph-name="uni1EC0" unicode="&#x1ec0;" d="M276 928 l94 0 l82 -63 l-75 0 l-101 63 ZM270 854 l83 0 l122 -63 l-102 0 l-61 29 l-62 -29 l-102 0 l122 63 ZM498 339 l-322 0 l0 -260 l371 0 l0 -79 l-460 0 l0 733 l449 0 l0 -79 l-360 0 l0 -236 l322 0 l0 -79 Z" /><glyph glyph-name="uni1EC2" unicode="&#x1ec2;" d="M331 919 q34 8 77 8 q46 0 75 -8.5 q29 -8.5 29 -26.5 q0 -31 -96 -45 l-34 19 q62 7 62 20 q0 5 -13 9 q-13 4 -34 4 q-24 0 -55 -6 l-11 26 ZM270 852 l83 0 l122 -61 l-102 0 l-61 28 l-62 -28 l-102 0 l122 61 ZM498 339 l-322 0 l0 -260 l371 0 l0 -79 l-460 0 l0 733 l449 0 l0 -79 l-360 0 l0 -236 l322 0 l0 -79 Z" /><glyph glyph-name="uni1EC4" unicode="&#x1ec4;" d="M148 875 q1 24 29.5 38.5 q28.5 14.5 73.5 14.5 q28 0 46 -3.5 q18 -3.5 35 -10.5 q2 -1 14 -4.5 q12 -3.5 25 -3.5 q29 0 37 17 l70 0 q-1 -24 -29.5 -38.5 q-28.5 -14.5 -73.5 -14.5 q-28 0 -46 3.5 q-18 3.5 -35 10.5 q-2 1 -14 4.5 q-12 3.5 -25 3.5 q-30 0 -37 -17 l-70 0 ZM271 853 l83 0 l122 -62 l-102 0 l-61 28 l-62 -28 l-102 0 l122 62 ZM498 339 l-322 0 l0 -260 l371 0 l0 -79 l-460 0 l0 733 l449 0 l0 -79 l-360 0 l0 -236 l322 0 l0 -79 Z" /><glyph glyph-name="Edieresis" unicode="Ë" d="M209 829 q-23 0 -39.5 14.5 q-16.5 14.5 -16.5 35.5 q0 20 16.5 34.5 q16.5 14.5 39.5 14.5 q24 0 40.5 -14.5 q16.5 -14.5 16.5 -34.5 q0 -21 -16.5 -35.5 q-16.5 -14.5 -40.5 -14.5 ZM414 829 q-23 0 -39.5 14.5 q-16.5 14.5 -16.5 35.5 q0 20 16.5 34.5 q16.5 14.5 39.5 14.5 q24 0 40.5 -14.5 q16.5 -14.5 16.5 -34.5 q0 -21 -16.5 -35.5 q-16.5 -14.5 -40.5 -14.5 ZM498 339 l-322 0 l0 -260 l371 0 l0 -79 l-460 0 l0 733 l449 0 l0 -79 l-360 0 l0 -236 l322 0 l0 -79 Z" /><glyph glyph-name="Edotaccent" unicode="&#x116;" d="M312 829 q-23 0 -39.5 15 q-16.5 15 -16.5 35 q0 20 16.5 34.5 q16.5 14.5 39.5 14.5 q24 0 40.5 -14.5 q16.5 -14.5 16.5 -34.5 q0 -20 -17 -35 q-17 -15 -40 -15 ZM498 339 l-322 0 l0 -260 l371 0 l0 -79 l-460 0 l0 733 l449 0 l0 -79 l-360 0 l0 -236 l322 0 l0 -79 Z" /><glyph glyph-name="uni1EB8" unicode="&#x1eb8;" d="M498 339 l-322 0 l0 -260 l371 0 l0 -79 l-460 0 l0 733 l449 0 l0 -79 l-360 0 l0 -236 l322 0 l0 -79 ZM312 -188 q-23 0 -39.5 17.5 q-16.5 17.5 -16.5 40.5 q0 23 16.5 40.5 q16.5 17.5 39.5 17.5 q24 0 40.5 -17 q16.5 -17 16.5 -41 q0 -23 -17 -40.5 q-17 -17.5 -40 -17.5 Z" /><glyph glyph-name="Egrave" unicode="È" d="M167 928 l94 0 l82 -118 l-75 0 l-101 118 ZM498 339 l-322 0 l0 -260 l371 0 l0 -79 l-460 0 l0 733 l449 0 l0 -79 l-360 0 l0 -236 l322 0 l0 -79 Z" /><glyph glyph-name="uni1EBA" unicode="&#x1eba;" d="M222 914 q33 14 77 14 q46 0 75 -15.5 q29 -15.5 29 -47.5 q0 -56 -96 -80 l-36 34 q29 8 44 17 q15 9 15 22 q0 11 -12.5 19 q-12.5 8 -32.5 8 q-23 0 -52 -13 l-11 42 ZM498 339 l-322 0 l0 -260 l371 0 l0 -79 l-460 0 l0 733 l449 0 l0 -79 l-360 0 l0 -236 l322 0 l0 -79 Z" /><glyph glyph-name="Emacron" unicode="&#x112;" d="M152 850 l0 74 l320 0 l0 -74 l-320 0 ZM498 339 l-322 0 l0 -260 l371 0 l0 -79 l-460 0 l0 733 l449 0 l0 -79 l-360 0 l0 -236 l322 0 l0 -79 Z" /><glyph glyph-name="Eogonek" unicode="&#x118;" d="M602 -196 q-19 -22 -48 -35 q-29 -13 -64 -13 q-52 0 -89 26 q-37 26 -37 81 q0 77 85 137 l-362 0 l0 733 l449 0 l0 -79 l-360 0 l0 -236 l322 0 l0 -79 l-322 0 l0 -260 l371 0 l0 -79 q-57 -34 -83.5 -63.5 q-26.5 -29.5 -26.5 -64.5 q0 -29 16 -42 q16 -13 41 -13 q39 0 75 32 l33 -45 Z" /><glyph glyph-name="uni1EBC" unicode="&#x1ebc;" d="M147 824 q2 47 30 75.5 q28 28.5 73 28.5 q28 0 45.5 -9 q17.5 -9 35.5 -25 q12 -10 20.5 -15 q8.5 -5 18.5 -5 q15 0 24.5 12 q9.5 12 12.5 31 l70 0 q-2 -47 -30 -75.5 q-28 -28.5 -73 -28.5 q-28 0 -45.5 9 q-17.5 9 -35.5 25 q-12 10 -20.5 15 q-8.5 5 -18.5 5 q-30 0 -37 -43 l-70 0 ZM498 339 l-322 0 l0 -260 l371 0 l0 -79 l-460 0 l0 733 l449 0 l0 -79 l-360 0 l0 -236 l322 0 l0 -79 Z" /><glyph glyph-name="F" unicode="F" d="M87 732 l449 0 l0 -79 l-360 0 l0 -247 l322 0 l0 -79 l-322 0 l0 -327 l-89 0 l0 732 Z" /><glyph glyph-name="G" unicode="G" d="M409 303 l0 80 l244 0 l0 -285 q-32 -47 -99 -78 q-67 -31 -151 -31 q-101 0 -181.5 47.5 q-80.5 47.5 -126 134 q-45.5 86.5 -45.5 197.5 q0 110 45.5 195.5 q45.5 85.5 125 133 q79.5 47.5 176.5 47.5 q86 0 153.5 -37 q67.5 -37 98.5 -103 l-72 -42 q-24 45 -72 72.5 q-48 27.5 -112 27.5 q-73 0 -129.5 -37 q-56.5 -37 -88 -103.5 q-31.5 -66.5 -31.5 -153.5 q0 -88 33 -155.5 q33 -67.5 93 -104.5 q60 -37 139 -37 q102 0 155 56 l0 176 l-155 0 Z" /><glyph glyph-name="Gbreve" unicode="&#x11e;" d="M392 811 q-71 0 -111.5 31 q-40.5 31 -40.5 86 l78 0 q2 -32 21 -49.5 q19 -17.5 53 -17.5 q35 0 54 17.5 q19 17.5 21 49.5 l78 0 q0 -55 -40.5 -86 q-40.5 -31 -112.5 -31 ZM409 303 l0 80 l244 0 l0 -285 q-32 -47 -99 -78 q-67 -31 -151 -31 q-101 0 -181.5 47.5 q-80.5 47.5 -126 134 q-45.5 86.5 -45.5 197.5 q0 110 45.5 195.5 q45.5 85.5 125 133 q79.5 47.5 176.5 47.5 q86 0 153.5 -37 q67.5 -37 98.5 -103 l-72 -42 q-24 45 -72 72.5 q-48 27.5 -112 27.5 q-73 0 -129.5 -37 q-56.5 -37 -88 -103.5 q-31.5 -66.5 -31.5 -153.5 q0 -88 33 -155.5 q33 -67.5 93 -104.5 q60 -37 139 -37 q102 0 155 56 l0 176 l-155 0 Z" /><glyph glyph-name="Gcircumflex" unicode="&#x11c;" d="M350 928 l83 0 l122 -117 l-91 0 l-72 72 l-73 -72 l-91 0 l122 117 ZM409 303 l0 80 l244 0 l0 -285 q-32 -47 -99 -78 q-67 -31 -151 -31 q-101 0 -181.5 47.5 q-80.5 47.5 -126 134 q-45.5 86.5 -45.5 197.5 q0 110 45.5 195.5 q45.5 85.5 125 133 q79.5 47.5 176.5 47.5 q86 0 153.5 -37 q67.5 -37 98.5 -103 l-72 -42 q-24 45 -72 72.5 q-48 27.5 -112 27.5 q-73 0 -129.5 -37 q-56.5 -37 -88 -103.5 q-31.5 -66.5 -31.5 -153.5 q0 -88 33 -155.5 q33 -67.5 93 -104.5 q60 -37 139 -37 q102 0 155 56 l0 176 l-155 0 Z" /><glyph glyph-name="uni0122" unicode="&#x122;" d="M564 303 l-155 0 l0 80 l244 0 l0 -285 q-32 -47 -99 -78 q-67 -31 -151 -31 q-101 0 -181.5 47.5 q-80.5 47.5 -126 134 q-45.5 86.5 -45.5 197.5 q0 110 45.5 195.5 q45.5 85.5 125 133 q79.5 47.5 176.5 47.5 q86 0 153.5 -37 q67.5 -37 98.5 -103 l-72 -42 q-24 45 -72 72.5 q-48 27.5 -112 27.5 q-73 0 -129.5 -37 q-56.5 -37 -88 -103.5 q-31.5 -66.5 -31.5 -153.5 q0 -88 33 -155.5 q33 -67.5 93 -104.5 q60 -37 139 -37 q102 0 155 56 l0 176 ZM387 -40 q26 0 43 -19 q17 -19 17 -59 q0 -51 -32.5 -84 q-32.5 -33 -86.5 -42 l0 41 q30 9 46 23.5 q16 14.5 19 37.5 l-7 0 q-23 0 -36 15 q-13 15 -13 36 q0 22 14 36.5 q14 14.5 36 14.5 Z" /><glyph glyph-name="Gdotaccent" unicode="&#x120;" d="M392 830 q-23 0 -39.5 14.5 q-16.5 14.5 -16.5 34.5 q0 20 16.5 34.5 q16.5 14.5 39.5 14.5 q24 0 40.5 -14.5 q16.5 -14.5 16.5 -34.5 q0 -20 -17 -34.5 q-17 -14.5 -40 -14.5 ZM409 303 l0 80 l244 0 l0 -285 q-32 -47 -99 -78 q-67 -31 -151 -31 q-101 0 -181.5 47.5 q-80.5 47.5 -126 134 q-45.5 86.5 -45.5 197.5 q0 110 45.5 195.5 q45.5 85.5 125 133 q79.5 47.5 176.5 47.5 q86 0 153.5 -37 q67.5 -37 98.5 -103 l-72 -42 q-24 45 -72 72.5 q-48 27.5 -112 27.5 q-73 0 -129.5 -37 q-56.5 -37 -88 -103.5 q-31.5 -66.5 -31.5 -153.5 q0 -88 33 -155.5 q33 -67.5 93 -104.5 q60 -37 139 -37 q102 0 155 56 l0 176 l-155 0 Z" /><glyph glyph-name="H" unicode="H" d="M176 420 l393 0 l0 312 l89 0 l0 -732 l-89 0 l0 340 l-393 0 l0 -340 l-89 0 l0 732 l89 0 l0 -312 Z" /><glyph glyph-name="Hbar" unicode="&#x126;" d="M670 732 l0 -121 l67 0 l0 -72 l-67 0 l0 -539 l-90 0 l0 340 l-392 0 l0 -340 l-89 0 l0 539 l-67 0 l0 72 l67 0 l0 121 l89 0 l0 -121 l392 0 l0 121 l90 0 ZM188 539 l0 -119 l392 0 l0 119 l-392 0 Z" /><glyph glyph-name="Hcircumflex" unicode="&#x124;" d="M330 928 l83 0 l122 -118 l-91 0 l-72 72 l-73 -72 l-91 0 l122 118 ZM176 420 l393 0 l0 312 l89 0 l0 -732 l-89 0 l0 340 l-393 0 l0 -340 l-89 0 l0 732 l89 0 l0 -312 Z" /><glyph glyph-name="I" unicode="I" d="M176 0 l-89 0 l0 732 l89 0 l0 -732 Z" /><glyph glyph-name="IJ" unicode="&#x132;" d="M176 0 l-89 0 l0 732 l89 0 l0 -732 ZM440 -11 q-66 0 -115 32 q-49 32 -65 98 l70 41 q25 -89 110 -89 q56 0 81.5 40 q25.5 40 25.5 117 l0 504 l90 0 l0 -513 q0 -119 -55 -174.5 q-55 -55.5 -142 -55.5 Z" /><glyph glyph-name="Iacute" unicode="Í" d="M101 810 l82 118 l94 0 l-101 -118 l-75 0 ZM176 0 l-89 0 l0 732 l89 0 l0 -732 Z" /><glyph glyph-name="Ibreve" unicode="&#x12c;" d="M132 810 q-71 0 -111.5 31.5 q-40.5 31.5 -40.5 86.5 l78 0 q2 -32 21 -49.5 q19 -17.5 53 -17.5 q35 0 54 17.5 q19 17.5 21 49.5 l78 0 q0 -56 -40.5 -87 q-40.5 -31 -112.5 -31 ZM176 0 l-89 0 l0 732 l89 0 l0 -732 Z" /><glyph glyph-name="uni01CF" unicode="&#x1cf;" d="M59 928 l73 -72 l72 72 l91 0 l-122 -118 l-83 0 l-122 118 l91 0 ZM176 0 l-89 0 l0 732 l89 0 l0 -732 Z" /><glyph glyph-name="Icircumflex" unicode="Î" d="M90 928 l83 0 l122 -118 l-91 0 l-72 72 l-73 -72 l-91 0 l122 118 ZM176 0 l-89 0 l0 732 l89 0 l0 -732 Z" /><glyph glyph-name="Idieresis" unicode="Ï" d="M29 829 q-23 0 -39.5 14.5 q-16.5 14.5 -16.5 35.5 q0 20 16.5 34.5 q16.5 14.5 39.5 14.5 q24 0 40.5 -14.5 q16.5 -14.5 16.5 -34.5 q0 -21 -16.5 -35.5 q-16.5 -14.5 -40.5 -14.5 ZM234 829 q-23 0 -39.5 14.5 q-16.5 14.5 -16.5 35.5 q0 20 16.5 34.5 q16.5 14.5 39.5 14.5 q24 0 40.5 -14.5 q16.5 -14.5 16.5 -34.5 q0 -21 -16.5 -35.5 q-16.5 -14.5 -40.5 -14.5 ZM176 0 l-89 0 l0 732 l89 0 l0 -732 Z" /><glyph glyph-name="Idotaccent" unicode="&#x130;" d="M132 829 q-23 0 -39.5 15 q-16.5 15 -16.5 35 q0 20 16.5 34.5 q16.5 14.5 39.5 14.5 q24 0 40.5 -14.5 q16.5 -14.5 16.5 -34.5 q0 -20 -17 -35 q-17 -15 -40 -15 ZM176 0 l-89 0 l0 732 l89 0 l0 -732 Z" /><glyph glyph-name="uni1ECA" unicode="&#x1eca;" d="M176 0 l-89 0 l0 732 l89 0 l0 -732 ZM132 -188 q-23 0 -39.5 17.5 q-16.5 17.5 -16.5 40.5 q0 23 16.5 40.5 q16.5 17.5 39.5 17.5 q24 0 40.5 -17 q16.5 -17 16.5 -41 q0 -23 -17 -40.5 q-17 -17.5 -40 -17.5 Z" /><glyph glyph-name="Igrave" unicode="Ì" d="M-13 928 l94 0 l82 -118 l-75 0 l-101 118 ZM176 0 l-89 0 l0 732 l89 0 l0 -732 Z" /><glyph glyph-name="uni1EC8" unicode="&#x1ec8;" d="M42 914 q33 14 77 14 q46 0 75 -15.5 q29 -15.5 29 -47.5 q0 -56 -96 -80 l-36 34 q29 8 44 17 q15 9 15 22 q0 11 -12.5 19 q-12.5 8 -32.5 8 q-23 0 -52 -13 l-11 42 ZM176 0 l-89 0 l0 732 l89 0 l0 -732 Z" /><glyph glyph-name="Imacron" unicode="&#x12a;" d="M-28 850 l0 74 l320 0 l0 -74 l-320 0 ZM176 0 l-89 0 l0 732 l89 0 l0 -732 Z" /><glyph glyph-name="Iogonek" unicode="&#x12e;" d="M231 -196 q-19 -22 -48 -35 q-29 -13 -64 -13 q-52 0 -89 26 q-37 26 -37 81 q0 45 25.5 79 q25.5 34 68.5 64 l0 726 l89 0 l0 -732 q-57 -34 -83.5 -63.5 q-26.5 -29.5 -26.5 -64.5 q0 -29 16 -42 q16 -13 41 -13 q39 0 75 32 l33 -45 Z" /><glyph glyph-name="Itilde" unicode="&#x128;" d="M-33 824 q2 47 30 75.5 q28 28.5 73 28.5 q28 0 45.5 -9 q17.5 -9 35.5 -25 q12 -10 20.5 -15 q8.5 -5 18.5 -5 q15 0 24.5 12 q9.5 12 12.5 31 l70 0 q-2 -47 -30 -75.5 q-28 -28.5 -73 -28.5 q-28 0 -45.5 9 q-17.5 9 -35.5 25 q-12 10 -20.5 15 q-8.5 5 -18.5 5 q-30 0 -37 -43 l-70 0 ZM176 0 l-89 0 l0 732 l89 0 l0 -732 Z" /><glyph glyph-name="J" unicode="J" d="M180 -11 q-66 0 -115 32 q-49 32 -65 98 l70 41 q25 -89 110 -89 q57 0 82.5 40 q25.5 40 25.5 117 l0 504 l89 0 l0 -513 q0 -119 -55 -174.5 q-55 -55.5 -142 -55.5 Z" /><glyph glyph-name="Jcircumflex" unicode="&#x134;" d="M287 928 l83 0 l122 -118 l-91 0 l-72 72 l-73 -72 l-91 0 l122 118 ZM177 -11 q-66 0 -115 32 q-49 32 -65 98 l70 41 q25 -89 110 -89 q57 0 82.5 40 q25.5 40 25.5 117 l0 504 l89 0 l0 -513 q0 -119 -55 -174.5 q-55 -55.5 -142 -55.5 Z" /><glyph glyph-name="K" unicode="K" d="M353 420 l322 -420 l-114 0 l-270 354 l-115 -121 l0 -233 l-89 0 l0 732 l89 0 l0 -389 l358 389 l116 0 l-297 -312 Z" /><glyph glyph-name="uni0136" unicode="&#x136;" d="M534 732 l116 0 l-297 -312 l322 -420 l-114 0 l-270 354 l-115 -121 l0 -233 l-89 0 l0 732 l89 0 l0 -389 l358 389 ZM363 -40 q26 0 43 -19 q17 -19 17 -59 q0 -51 -32.5 -84 q-32.5 -33 -86.5 -42 l0 41 q30 9 46 23.5 q16 14.5 19 37.5 l-7 0 q-23 0 -36 15 q-13 15 -13 36 q0 22 14 36.5 q14 14.5 36 14.5 Z" /><glyph glyph-name="L" unicode="L" d="M87 732 l89 0 l0 -652 l361 0 l0 -80 l-450 0 l0 732 Z" /><glyph glyph-name="Lacute" unicode="&#x139;" d="M101 811 l82 117 l94 0 l-101 -117 l-75 0 ZM87 732 l89 0 l0 -652 l361 0 l0 -80 l-450 0 l0 732 Z" /><glyph glyph-name="Lcaron" unicode="&#x13d;" d="M434 663 q0 -53 -32.5 -87.5 q-32.5 -34.5 -86.5 -43.5 l0 43 q30 9 46 24 q16 15 19 39 l-7 0 q-23 0 -36 15.5 q-13 15.5 -13 37.5 q0 23 14 38 q14 15 36 15 q26 0 43 -20 q17 -20 17 -61 ZM87 732 l89 0 l0 -652 l361 0 l0 -80 l-450 0 l0 732 Z" /><glyph glyph-name="uni013B" unicode="&#x13b;" d="M87 732 l89 0 l0 -652 l361 0 l0 -80 l-450 0 l0 732 ZM319 -40 q26 0 43 -19 q17 -19 17 -59 q0 -51 -32.5 -84 q-32.5 -33 -86.5 -42 l0 41 q30 9 46 23.5 q16 14.5 19 37.5 l-7 0 q-23 0 -36 15 q-13 15 -13 36 q0 22 14 36.5 q14 14.5 36 14.5 Z" /><glyph glyph-name="Ldot" unicode="&#x13f;" d="M87 732 l89 0 l0 -652 l361 0 l0 -80 l-450 0 l0 732 ZM362 330 q-23 0 -39.5 17.5 q-16.5 17.5 -16.5 40.5 q0 24 16.5 41 q16.5 17 39.5 17 q24 0 40.5 -17 q16.5 -17 16.5 -41 q0 -24 -16.5 -41 q-16.5 -17 -40.5 -17 Z" /><glyph glyph-name="Lslash" unicode="&#x141;" d="M347 422 l-151 -79 l0 -263 l361 0 l0 -80 l-450 0 l0 296 l-84 -44 l0 85 l84 44 l0 351 l89 0 l0 -304 l151 79 l0 -85 Z" /><glyph glyph-name="M" unicode="M" d="M704 732 l73 0 l0 -732 l-87 0 l0 558 l-231 -369 l-53 0 l-233 371 l0 -560 l-86 0 l0 732 l78 0 l270 -435 l269 435 Z" /><glyph glyph-name="uni1E3E" unicode="&#x1e3e;" d="M401 811 l82 117 l94 0 l-101 -117 l-75 0 ZM704 732 l73 0 l0 -732 l-87 0 l0 558 l-231 -369 l-53 0 l-233 371 l0 -560 l-86 0 l0 732 l78 0 l270 -435 l269 435 Z" /><glyph glyph-name="N" unicode="N" d="M162 732 l407 -573 l0 573 l84 0 l0 -732 l-75 0 l-407 574 l0 -574 l-84 0 l0 732 l75 0 Z" /><glyph glyph-name="Nacute" unicode="&#x143;" d="M339 811 l82 117 l94 0 l-101 -117 l-75 0 ZM162 732 l407 -573 l0 573 l84 0 l0 -732 l-75 0 l-407 574 l0 -574 l-84 0 l0 732 l75 0 Z" /><glyph glyph-name="Ncaron" unicode="&#x147;" d="M297 928 l73 -72 l72 72 l91 0 l-122 -117 l-83 0 l-122 117 l91 0 ZM162 732 l407 -573 l0 573 l84 0 l0 -732 l-75 0 l-407 574 l0 -574 l-84 0 l0 732 l75 0 Z" /><glyph glyph-name="uni0145" unicode="&#x145;" d="M162 732 l407 -573 l0 573 l84 0 l0 -732 l-75 0 l-407 574 l0 -574 l-84 0 l0 732 l75 0 ZM365 -40 q26 0 43 -19 q17 -19 17 -59 q0 -51 -32.5 -84 q-32.5 -33 -86.5 -42 l0 41 q30 9 46 23.5 q16 14.5 19 37.5 l-7 0 q-23 0 -36 15 q-13 15 -13 36 q0 22 14 36.5 q14 14.5 36 14.5 Z" /><glyph glyph-name="Eng" unicode="&#x14a;" d="M569 732 l84 0 l0 -792 q0 -94 -42.5 -139 q-42.5 -45 -106.5 -45 q-49 0 -82 24 l34 68 q20 -12 44 -12 q69 0 69 107 l0 70 l-398 561 l0 -574 l-84 0 l0 732 l75 0 l407 -573 l0 573 Z" /><glyph glyph-name="Ntilde" unicode="Ñ" d="M205 825 q2 46 30 74.5 q28 28.5 73 28.5 q28 0 45 -8.5 q17 -8.5 36 -24.5 q12 -10 20.5 -15 q8.5 -5 18.5 -5 q15 0 24.5 12 q9.5 12 12.5 30 l70 0 q-2 -46 -30 -74.5 q-28 -28.5 -73 -28.5 q-28 0 -45 8.5 q-17 8.5 -36 24.5 q-12 10 -20.5 15 q-8.5 5 -18.5 5 q-29 0 -37 -42 l-70 0 ZM162 732 l407 -573 l0 573 l84 0 l0 -732 l-75 0 l-407 574 l0 -574 l-84 0 l0 732 l75 0 Z" /><glyph glyph-name="O" unicode="O" d="M50 367 q0 113 43 199 q43 86 118.5 132 q75.5 46 169.5 46 q94 0 169.5 -46.5 q75.5 -46.5 118.5 -132 q43 -85.5 43 -198.5 q0 -114 -43.5 -199.5 q-43.5 -85.5 -118.5 -132 q-75 -46.5 -169 -46.5 q-94 0 -169.5 46 q-75.5 46 -118.5 132 q-43 86 -43 200 ZM144 367 q0 -87 28.5 -154 q28.5 -67 82.5 -104.5 q54 -37.5 126 -37.5 q72 0 125.5 37.5 q53.5 37.5 82.5 104.5 q29 67 29 154 q0 88 -29 155 q-29 67 -82.5 104 q-53.5 37 -125.5 37 q-72 0 -125.5 -37 q-53.5 -37 -82.5 -104 q-29 -67 -29 -155 Z" /><glyph glyph-name="Oacute" unicode="Ó" d="M350 810 l82 118 l94 0 l-101 -118 l-75 0 ZM50 367 q0 113 43 199 q43 86 118.5 132 q75.5 46 169.5 46 q94 0 169.5 -46.5 q75.5 -46.5 118.5 -132 q43 -85.5 43 -198.5 q0 -114 -43.5 -199.5 q-43.5 -85.5 -118.5 -132 q-75 -46.5 -169 -46.5 q-94 0 -169.5 46 q-75.5 46 -118.5 132 q-43 86 -43 200 ZM144 367 q0 -87 28.5 -154 q28.5 -67 82.5 -104.5 q54 -37.5 126 -37.5 q72 0 125.5 37.5 q53.5 37.5 82.5 104.5 q29 67 29 154 q0 88 -29 155 q-29 67 -82.5 104 q-53.5 37 -125.5 37 q-72 0 -125.5 -37 q-53.5 -37 -82.5 -104 q-29 -67 -29 -155 Z" /><glyph glyph-name="Obreve" unicode="&#x14e;" d="M381 810 q-71 0 -111.5 31.5 q-40.5 31.5 -40.5 86.5 l78 0 q2 -32 21 -49.5 q19 -17.5 53 -17.5 q35 0 54 17.5 q19 17.5 21 49.5 l78 0 q0 -56 -40.5 -87 q-40.5 -31 -112.5 -31 ZM50 367 q0 113 43 199 q43 86 118.5 132 q75.5 46 169.5 46 q94 0 169.5 -46.5 q75.5 -46.5 118.5 -132 q43 -85.5 43 -198.5 q0 -114 -43.5 -199.5 q-43.5 -85.5 -118.5 -132 q-75 -46.5 -169 -46.5 q-94 0 -169.5 46 q-75.5 46 -118.5 132 q-43 86 -43 200 ZM144 367 q0 -87 28.5 -154 q28.5 -67 82.5 -104.5 q54 -37.5 126 -37.5 q72 0 125.5 37.5 q53.5 37.5 82.5 104.5 q29 67 29 154 q0 88 -29 155 q-29 67 -82.5 104 q-53.5 37 -125.5 37 q-72 0 -125.5 -37 q-53.5 -37 -82.5 -104 q-29 -67 -29 -155 Z" /><glyph glyph-name="uni01D1" unicode="&#x1d1;" d="M308 928 l73 -72 l72 72 l91 0 l-122 -118 l-83 0 l-122 118 l91 0 ZM50 367 q0 113 43 199 q43 86 118.5 132 q75.5 46 169.5 46 q94 0 169.5 -46.5 q75.5 -46.5 118.5 -132 q43 -85.5 43 -198.5 q0 -114 -43.5 -199.5 q-43.5 -85.5 -118.5 -132 q-75 -46.5 -169 -46.5 q-94 0 -169.5 46 q-75.5 46 -118.5 132 q-43 86 -43 200 ZM144 367 q0 -87 28.5 -154 q28.5 -67 82.5 -104.5 q54 -37.5 126 -37.5 q72 0 125.5 37.5 q53.5 37.5 82.5 104.5 q29 67 29 154 q0 88 -29 155 q-29 67 -82.5 104 q-53.5 37 -125.5 37 q-72 0 -125.5 -37 q-53.5 -37 -82.5 -104 q-29 -67 -29 -155 Z" /><glyph glyph-name="Ocircumflex" unicode="Ô" d="M339 928 l83 0 l122 -118 l-91 0 l-72 72 l-73 -72 l-91 0 l122 118 ZM50 367 q0 113 43 199 q43 86 118.5 132 q75.5 46 169.5 46 q94 0 169.5 -46.5 q75.5 -46.5 118.5 -132 q43 -85.5 43 -198.5 q0 -114 -43.5 -199.5 q-43.5 -85.5 -118.5 -132 q-75 -46.5 -169 -46.5 q-94 0 -169.5 46 q-75.5 46 -118.5 132 q-43 86 -43 200 ZM144 367 q0 -87 28.5 -154 q28.5 -67 82.5 -104.5 q54 -37.5 126 -37.5 q72 0 125.5 37.5 q53.5 37.5 82.5 104.5 q29 67 29 154 q0 88 -29 155 q-29 67 -82.5 104 q-53.5 37 -125.5 37 q-72 0 -125.5 -37 q-53.5 -37 -82.5 -104 q-29 -67 -29 -155 Z" /><glyph glyph-name="uni1ED0" unicode="&#x1ed0;" d="M459 865 l82 63 l94 0 l-101 -63 l-75 0 ZM339 854 l83 0 l122 -63 l-102 0 l-61 29 l-62 -29 l-102 0 l122 63 ZM50 367 q0 113 43 199 q43 86 118.5 132 q75.5 46 169.5 46 q94 0 169.5 -46.5 q75.5 -46.5 118.5 -132 q43 -85.5 43 -198.5 q0 -114 -43.5 -199.5 q-43.5 -85.5 -118.5 -132 q-75 -46.5 -169 -46.5 q-94 0 -169.5 46 q-75.5 46 -118.5 132 q-43 86 -43 200 ZM144 367 q0 -87 28.5 -154 q28.5 -67 82.5 -104.5 q54 -37.5 126 -37.5 q72 0 125.5 37.5 q53.5 37.5 82.5 104.5 q29 67 29 154 q0 88 -29 155 q-29 67 -82.5 104 q-53.5 37 -125.5 37 q-72 0 -125.5 -37 q-53.5 -37 -82.5 -104 q-29 -67 -29 -155 Z" /><glyph glyph-name="uni1ED8" unicode="&#x1ed8;" d="M339 928 l83 0 l122 -118 l-91 0 l-72 73 l-73 -73 l-91 0 l122 118 ZM50 367 q0 113 43 199 q43 86 118.5 132 q75.5 46 169.5 46 q94 0 169.5 -46.5 q75.5 -46.5 118.5 -132 q43 -85.5 43 -198.5 q0 -114 -43.5 -199.5 q-43.5 -85.5 -118.5 -132 q-75 -46.5 -169 -46.5 q-94 0 -169.5 46 q-75.5 46 -118.5 132 q-43 86 -43 200 ZM144 367 q0 -87 28.5 -154 q28.5 -67 82.5 -104.5 q54 -37.5 126 -37.5 q72 0 125.5 37.5 q53.5 37.5 82.5 104.5 q29 67 29 154 q0 88 -29 155 q-29 67 -82.5 104 q-53.5 37 -125.5 37 q-72 0 -125.5 -37 q-53.5 -37 -82.5 -104 q-29 -67 -29 -155 ZM381 -188 q-23 0 -39.5 17.5 q-16.5 17.5 -16.5 40.5 q0 23 16.5 40.5 q16.5 17.5 39.5 17.5 q24 0 40.5 -17 q16.5 -17 16.5 -41 q0 -23 -17 -40.5 q-17 -17.5 -40 -17.5 Z" /><glyph glyph-name="uni1ED2" unicode="&#x1ed2;" d="M345 928 l94 0 l82 -63 l-75 0 l-101 63 ZM339 854 l83 0 l122 -63 l-102 0 l-61 29 l-62 -29 l-102 0 l122 63 ZM50 367 q0 113 43 199 q43 86 118.5 132 q75.5 46 169.5 46 q94 0 169.5 -46.5 q75.5 -46.5 118.5 -132 q43 -85.5 43 -198.5 q0 -114 -43.5 -199.5 q-43.5 -85.5 -118.5 -132 q-75 -46.5 -169 -46.5 q-94 0 -169.5 46 q-75.5 46 -118.5 132 q-43 86 -43 200 ZM144 367 q0 -87 28.5 -154 q28.5 -67 82.5 -104.5 q54 -37.5 126 -37.5 q72 0 125.5 37.5 q53.5 37.5 82.5 104.5 q29 67 29 154 q0 88 -29 155 q-29 67 -82.5 104 q-53.5 37 -125.5 37 q-72 0 -125.5 -37 q-53.5 -37 -82.5 -104 q-29 -67 -29 -155 Z" /><glyph glyph-name="uni1ED4" unicode="&#x1ed4;" d="M400 920 q34 8 77 8 q45 0 74.5 -9 q29.5 -9 29.5 -26 q0 -32 -96 -46 l-34 19 q62 9 62 21 q0 5 -13 8.5 q-13 3.5 -34 3.5 q-30 0 -55 -6 l-11 27 ZM339 852 l83 0 l122 -61 l-102 0 l-61 28 l-62 -28 l-102 0 l122 61 ZM50 367 q0 113 43 199 q43 86 118.5 132 q75.5 46 169.5 46 q94 0 169.5 -46.5 q75.5 -46.5 118.5 -132 q43 -85.5 43 -198.5 q0 -114 -43.5 -199.5 q-43.5 -85.5 -118.5 -132 q-75 -46.5 -169 -46.5 q-94 0 -169.5 46 q-75.5 46 -118.5 132 q-43 86 -43 200 ZM144 367 q0 -87 28.5 -154 q28.5 -67 82.5 -104.5 q54 -37.5 126 -37.5 q72 0 125.5 37.5 q53.5 37.5 82.5 104.5 q29 67 29 154 q0 88 -29 155 q-29 67 -82.5 104 q-53.5 37 -125.5 37 q-72 0 -125.5 -37 q-53.5 -37 -82.5 -104 q-29 -67 -29 -155 Z" /><glyph glyph-name="uni1ED6" unicode="&#x1ed6;" d="M217 875 q1 24 29.5 38.5 q28.5 14.5 73.5 14.5 q28 0 46 -3.5 q18 -3.5 35 -10.5 q2 -1 14 -4.5 q12 -3.5 25 -3.5 q29 0 37 17 l70 0 q-1 -24 -29.5 -38.5 q-28.5 -14.5 -73.5 -14.5 q-28 0 -46 3.5 q-18 3.5 -35 10.5 q-2 1 -14 4.5 q-12 3.5 -25 3.5 q-30 0 -37 -17 l-70 0 ZM340 853 l83 0 l122 -62 l-102 0 l-61 28 l-62 -28 l-102 0 l122 62 ZM50 367 q0 113 43 199 q43 86 118.5 132 q75.5 46 169.5 46 q94 0 169.5 -46.5 q75.5 -46.5 118.5 -132 q43 -85.5 43 -198.5 q0 -114 -43.5 -199.5 q-43.5 -85.5 -118.5 -132 q-75 -46.5 -169 -46.5 q-94 0 -169.5 46 q-75.5 46 -118.5 132 q-43 86 -43 200 ZM144 367 q0 -87 28.5 -154 q28.5 -67 82.5 -104.5 q54 -37.5 126 -37.5 q72 0 125.5 37.5 q53.5 37.5 82.5 104.5 q29 67 29 154 q0 88 -29 155 q-29 67 -82.5 104 q-53.5 37 -125.5 37 q-72 0 -125.5 -37 q-53.5 -37 -82.5 -104 q-29 -67 -29 -155 Z" /><glyph glyph-name="Odieresis" unicode="Ö" d="M278 829 q-23 0 -39.5 14.5 q-16.5 14.5 -16.5 35.5 q0 20 16.5 34.5 q16.5 14.5 39.5 14.5 q24 0 40.5 -14.5 q16.5 -14.5 16.5 -34.5 q0 -21 -16.5 -35.5 q-16.5 -14.5 -40.5 -14.5 ZM483 829 q-23 0 -39.5 14.5 q-16.5 14.5 -16.5 35.5 q0 20 16.5 34.5 q16.5 14.5 39.5 14.5 q24 0 40.5 -14.5 q16.5 -14.5 16.5 -34.5 q0 -21 -16.5 -35.5 q-16.5 -14.5 -40.5 -14.5 ZM50 367 q0 113 43 199 q43 86 118.5 132 q75.5 46 169.5 46 q94 0 169.5 -46.5 q75.5 -46.5 118.5 -132 q43 -85.5 43 -198.5 q0 -114 -43.5 -199.5 q-43.5 -85.5 -118.5 -132 q-75 -46.5 -169 -46.5 q-94 0 -169.5 46 q-75.5 46 -118.5 132 q-43 86 -43 200 ZM144 367 q0 -87 28.5 -154 q28.5 -67 82.5 -104.5 q54 -37.5 126 -37.5 q72 0 125.5 37.5 q53.5 37.5 82.5 104.5 q29 67 29 154 q0 88 -29 155 q-29 67 -82.5 104 q-53.5 37 -125.5 37 q-72 0 -125.5 -37 q-53.5 -37 -82.5 -104 q-29 -67 -29 -155 Z" /><glyph glyph-name="uni1ECC" unicode="&#x1ecc;" d="M50 367 q0 113 43 199 q43 86 118.5 132 q75.5 46 169.5 46 q94 0 169.5 -46.5 q75.5 -46.5 118.5 -132 q43 -85.5 43 -198.5 q0 -114 -43.5 -199.5 q-43.5 -85.5 -118.5 -132 q-75 -46.5 -169 -46.5 q-94 0 -169.5 46 q-75.5 46 -118.5 132 q-43 86 -43 200 ZM144 367 q0 -87 28.5 -154 q28.5 -67 82.5 -104.5 q54 -37.5 126 -37.5 q72 0 125.5 37.5 q53.5 37.5 82.5 104.5 q29 67 29 154 q0 88 -29 155 q-29 67 -82.5 104 q-53.5 37 -125.5 37 q-72 0 -125.5 -37 q-53.5 -37 -82.5 -104 q-29 -67 -29 -155 ZM381 -188 q-23 0 -39.5 17.5 q-16.5 17.5 -16.5 40.5 q0 23 16.5 40.5 q16.5 17.5 39.5 17.5 q24 0 40.5 -17 q16.5 -17 16.5 -41 q0 -23 -17 -40.5 q-17 -17.5 -40 -17.5 Z" /><glyph glyph-name="Ograve" unicode="Ò" d="M236 928 l94 0 l82 -118 l-75 0 l-101 118 ZM50 367 q0 113 43 199 q43 86 118.5 132 q75.5 46 169.5 46 q94 0 169.5 -46.5 q75.5 -46.5 118.5 -132 q43 -85.5 43 -198.5 q0 -114 -43.5 -199.5 q-43.5 -85.5 -118.5 -132 q-75 -46.5 -169 -46.5 q-94 0 -169.5 46 q-75.5 46 -118.5 132 q-43 86 -43 200 ZM144 367 q0 -87 28.5 -154 q28.5 -67 82.5 -104.5 q54 -37.5 126 -37.5 q72 0 125.5 37.5 q53.5 37.5 82.5 104.5 q29 67 29 154 q0 88 -29 155 q-29 67 -82.5 104 q-53.5 37 -125.5 37 q-72 0 -125.5 -37 q-53.5 -37 -82.5 -104 q-29 -67 -29 -155 Z" /><glyph glyph-name="uni1ECE" unicode="&#x1ece;" d="M291 914 q33 14 77 14 q46 0 75 -15.5 q29 -15.5 29 -47.5 q0 -56 -96 -80 l-36 34 q29 8 44 17 q15 9 15 22 q0 11 -12.5 19 q-12.5 8 -32.5 8 q-23 0 -52 -13 l-11 42 ZM50 367 q0 113 43 199 q43 86 118.5 132 q75.5 46 169.5 46 q94 0 169.5 -46.5 q75.5 -46.5 118.5 -132 q43 -85.5 43 -198.5 q0 -114 -43.5 -199.5 q-43.5 -85.5 -118.5 -132 q-75 -46.5 -169 -46.5 q-94 0 -169.5 46 q-75.5 46 -118.5 132 q-43 86 -43 200 ZM144 367 q0 -87 28.5 -154 q28.5 -67 82.5 -104.5 q54 -37.5 126 -37.5 q72 0 125.5 37.5 q53.5 37.5 82.5 104.5 q29 67 29 154 q0 88 -29 155 q-29 67 -82.5 104 q-53.5 37 -125.5 37 q-72 0 -125.5 -37 q-53.5 -37 -82.5 -104 q-29 -67 -29 -155 Z" /><glyph glyph-name="Ohorn" unicode="&#x1a0;" d="M577 669 q65 -46 100 -123 q35 -77 35 -179 q0 -110 -43.5 -196 q-43.5 -86 -119 -134 q-75.5 -48 -168.5 -48 q-94 0 -169.5 47.5 q-75.5 47.5 -118.5 133.5 q-43 86 -43 197 q0 110 44 196 q44 86 121.5 133.5 q77.5 47.5 175.5 47.5 q20 0 44 -2 q24 -2 34 -3 q54 -6 86 -6 q46 0 67 14 q21 14 21 55 q0 28 -7 57 l77 0 q7 -32 7 -63 q0 -75 -36 -100.5 q-36 -25.5 -107 -26.5 ZM381 71 q72 0 125.5 37.5 q53.5 37.5 82 104.5 q28.5 67 28.5 154 q0 88 -29 155 q-29 67 -82.5 104 q-53.5 37 -124.5 37 q-72 0 -125.5 -37 q-53.5 -37 -82.5 -104 q-29 -67 -29 -155 q0 -87 28.5 -154 q28.5 -67 82.5 -104.5 q54 -37.5 126 -37.5 Z" /><glyph glyph-name="uni1EDA" unicode="&#x1eda;" d="M432 928 l94 0 l-101 -118 l-75 0 l82 118 ZM577 669 q65 -46 100 -123 q35 -77 35 -179 q0 -110 -43.5 -196 q-43.5 -86 -119 -134 q-75.5 -48 -168.5 -48 q-94 0 -169.5 47.5 q-75.5 47.5 -118.5 133.5 q-43 86 -43 197 q0 110 44 196 q44 86 121.5 133.5 q77.5 47.5 175.5 47.5 q20 0 44 -2 q24 -2 34 -3 q54 -6 86 -6 q46 0 67 14 q21 14 21 55 q0 28 -7 57 l77 0 q7 -32 7 -63 q0 -75 -36 -100.5 q-36 -25.5 -107 -26.5 ZM381 71 q72 0 125.5 37.5 q53.5 37.5 82 104.5 q28.5 67 28.5 154 q0 88 -29 155 q-29 67 -82.5 104 q-53.5 37 -124.5 37 q-72 0 -125.5 -37 q-53.5 -37 -82.5 -104 q-29 -67 -29 -155 q0 -87 28.5 -154 q28.5 -67 82.5 -104.5 q54 -37.5 126 -37.5 Z" /><glyph glyph-name="uni1EE2" unicode="&#x1ee2;" d="M577 669 q65 -46 100 -123 q35 -77 35 -179 q0 -110 -43.5 -196 q-43.5 -86 -119 -134 q-75.5 -48 -168.5 -48 q-94 0 -169.5 47.5 q-75.5 47.5 -118.5 133.5 q-43 86 -43 197 q0 110 44 196 q44 86 121.5 133.5 q77.5 47.5 175.5 47.5 q20 0 44 -2 q24 -2 34 -3 q54 -6 86 -6 q46 0 67 14 q21 14 21 55 q0 28 -7 57 l77 0 q7 -32 7 -63 q0 -75 -36 -100.5 q-36 -25.5 -107 -26.5 ZM381 71 q72 0 125.5 37.5 q53.5 37.5 82 104.5 q28.5 67 28.5 154 q0 88 -29 155 q-29 67 -82.5 104 q-53.5 37 -124.5 37 q-72 0 -125.5 -37 q-53.5 -37 -82.5 -104 q-29 -67 -29 -155 q0 -87 28.5 -154 q28.5 -67 82.5 -104.5 q54 -37.5 126 -37.5 ZM381 -72 q24 0 40.5 -17 q16.5 -17 16.5 -41 q0 -23 -17 -40.5 q-17 -17.5 -40 -17.5 q-23 0 -39.5 17.5 q-16.5 17.5 -16.5 40.5 q0 23 16.5 40.5 q16.5 17.5 39.5 17.5 Z" /><glyph glyph-name="uni1EDC" unicode="&#x1edc;" d="M330 928 l82 -118 l-75 0 l-101 118 l94 0 ZM577 669 q65 -46 100 -123 q35 -77 35 -179 q0 -110 -43.5 -196 q-43.5 -86 -119 -134 q-75.5 -48 -168.5 -48 q-94 0 -169.5 47.5 q-75.5 47.5 -118.5 133.5 q-43 86 -43 197 q0 110 44 196 q44 86 121.5 133.5 q77.5 47.5 175.5 47.5 q20 0 44 -2 q24 -2 34 -3 q54 -6 86 -6 q46 0 67 14 q21 14 21 55 q0 28 -7 57 l77 0 q7 -32 7 -63 q0 -75 -36 -100.5 q-36 -25.5 -107 -26.5 ZM381 71 q72 0 125.5 37.5 q53.5 37.5 82 104.5 q28.5 67 28.5 154 q0 88 -29 155 q-29 67 -82.5 104 q-53.5 37 -124.5 37 q-72 0 -125.5 -37 q-53.5 -37 -82.5 -104 q-29 -67 -29 -155 q0 -87 28.5 -154 q28.5 -67 82.5 -104.5 q54 -37.5 126 -37.5 Z" /><glyph glyph-name="uni1EDE" unicode="&#x1ede;" d="M354 885 q-23 0 -52 -13 l-11 42 q33 14 77 14 q46 0 75 -15.5 q29 -15.5 29 -47.5 q0 -56 -96 -80 l-36 34 q29 8 44 17 q15 9 15 22 q0 11 -12.5 19 q-12.5 8 -32.5 8 ZM577 669 q65 -46 100 -123 q35 -77 35 -179 q0 -110 -43.5 -196 q-43.5 -86 -119 -134 q-75.5 -48 -168.5 -48 q-94 0 -169.5 47.5 q-75.5 47.5 -118.5 133.5 q-43 86 -43 197 q0 110 44 196 q44 86 121.5 133.5 q77.5 47.5 175.5 47.5 q20 0 44 -2 q24 -2 34 -3 q54 -6 86 -6 q46 0 67 14 q21 14 21 55 q0 28 -7 57 l77 0 q7 -32 7 -63 q0 -75 -36 -100.5 q-36 -25.5 -107 -26.5 ZM381 71 q72 0 125.5 37.5 q53.5 37.5 82 104.5 q28.5 67 28.5 154 q0 88 -29 155 q-29 67 -82.5 104 q-53.5 37 -124.5 37 q-72 0 -125.5 -37 q-53.5 -37 -82.5 -104 q-29 -67 -29 -155 q0 -87 28.5 -154 q28.5 -67 82.5 -104.5 q54 -37.5 126 -37.5 Z" /><glyph glyph-name="uni1EE0" unicode="&#x1ee0;" d="M323 867 q-30 0 -37 -43 l-70 0 q2 47 30 75.5 q28 28.5 73 28.5 q28 0 45.5 -9 q17.5 -9 35.5 -25 q12 -10 20.5 -15 q8.5 -5 18.5 -5 q15 0 24.5 12 q9.5 12 12.5 31 l70 0 q-2 -47 -30 -75.5 q-28 -28.5 -73 -28.5 q-28 0 -45.5 9 q-17.5 9 -35.5 25 q-12 10 -20.5 15 q-8.5 5 -18.5 5 ZM577 669 q65 -46 100 -123 q35 -77 35 -179 q0 -110 -43.5 -196 q-43.5 -86 -119 -134 q-75.5 -48 -168.5 -48 q-94 0 -169.5 47.5 q-75.5 47.5 -118.5 133.5 q-43 86 -43 197 q0 110 44 196 q44 86 121.5 133.5 q77.5 47.5 175.5 47.5 q20 0 44 -2 q24 -2 34 -3 q54 -6 86 -6 q46 0 67 14 q21 14 21 55 q0 28 -7 57 l77 0 q7 -32 7 -63 q0 -75 -36 -100.5 q-36 -25.5 -107 -26.5 ZM381 71 q72 0 125.5 37.5 q53.5 37.5 82 104.5 q28.5 67 28.5 154 q0 88 -29 155 q-29 67 -82.5 104 q-53.5 37 -124.5 37 q-72 0 -125.5 -37 q-53.5 -37 -82.5 -104 q-29 -67 -29 -155 q0 -87 28.5 -154 q28.5 -67 82.5 -104.5 q54 -37.5 126 -37.5 Z" /><glyph glyph-name="Ohungarumlaut" unicode="&#x150;" d="M265 810 l82 118 l92 0 l-101 -118 l-73 0 ZM416 810 l82 118 l92 0 l-101 -118 l-73 0 ZM50 367 q0 113 43 199 q43 86 118.5 132 q75.5 46 169.5 46 q94 0 169.5 -46.5 q75.5 -46.5 118.5 -132 q43 -85.5 43 -198.5 q0 -114 -43.5 -199.5 q-43.5 -85.5 -118.5 -132 q-75 -46.5 -169 -46.5 q-94 0 -169.5 46 q-75.5 46 -118.5 132 q-43 86 -43 200 ZM144 367 q0 -87 28.5 -154 q28.5 -67 82.5 -104.5 q54 -37.5 126 -37.5 q72 0 125.5 37.5 q53.5 37.5 82.5 104.5 q29 67 29 154 q0 88 -29 155 q-29 67 -82.5 104 q-53.5 37 -125.5 37 q-72 0 -125.5 -37 q-53.5 -37 -82.5 -104 q-29 -67 -29 -155 Z" /><glyph glyph-name="Omacron" unicode="&#x14c;" d="M221 850 l0 74 l320 0 l0 -74 l-320 0 ZM50 367 q0 113 43 199 q43 86 118.5 132 q75.5 46 169.5 46 q94 0 169.5 -46.5 q75.5 -46.5 118.5 -132 q43 -85.5 43 -198.5 q0 -114 -43.5 -199.5 q-43.5 -85.5 -118.5 -132 q-75 -46.5 -169 -46.5 q-94 0 -169.5 46 q-75.5 46 -118.5 132 q-43 86 -43 200 ZM144 367 q0 -87 28.5 -154 q28.5 -67 82.5 -104.5 q54 -37.5 126 -37.5 q72 0 125.5 37.5 q53.5 37.5 82.5 104.5 q29 67 29 154 q0 88 -29 155 q-29 67 -82.5 104 q-53.5 37 -125.5 37 q-72 0 -125.5 -37 q-53.5 -37 -82.5 -104 q-29 -67 -29 -155 Z" /><glyph glyph-name="Oslash" unicode="Ø" d="M624 767 l93 0 l-94 -131 q44 -51 68.5 -119.5 q24.5 -68.5 24.5 -149.5 q0 -110 -43.5 -196 q-43.5 -86 -119 -134 q-75.5 -48 -168.5 -48 q-104 0 -184 57 l-57 -80 l-93 0 l94 132 q-44 51 -67.5 119 q-23.5 68 -23.5 150 q0 110 43.5 196 q43.5 86 119 133.5 q75.5 47.5 168.5 47.5 q102 0 182 -57 l57 80 ZM148 367 q0 -117 50 -195 l321 448 q-57 43 -134 43 q-72 0 -125.5 -37 q-53.5 -37 -82.5 -104 q-29 -67 -29 -155 ZM621 367 q0 117 -50 195 l-321 -447 q58 -44 135 -44 q72 0 125.5 37.5 q53.5 37.5 82 104.5 q28.5 67 28.5 154 Z" /><glyph glyph-name="Oslashacute" unicode="&#x1fe;" d="M354 810 l82 118 l94 0 l-101 -118 l-75 0 ZM624 767 l93 0 l-94 -131 q44 -51 68.5 -119.5 q24.5 -68.5 24.5 -149.5 q0 -110 -43.5 -196 q-43.5 -86 -119 -134 q-75.5 -48 -168.5 -48 q-104 0 -184 57 l-57 -80 l-93 0 l94 132 q-44 51 -67.5 119 q-23.5 68 -23.5 150 q0 110 43.5 196 q43.5 86 119 133.5 q75.5 47.5 168.5 47.5 q102 0 182 -57 l57 80 ZM148 367 q0 -117 50 -195 l321 448 q-57 43 -134 43 q-72 0 -125.5 -37 q-53.5 -37 -82.5 -104 q-29 -67 -29 -155 ZM621 367 q0 117 -50 195 l-321 -447 q58 -44 135 -44 q72 0 125.5 37.5 q53.5 37.5 82 104.5 q28.5 67 28.5 154 Z" /><glyph glyph-name="Otilde" unicode="Õ" d="M216 824 q2 47 30 75.5 q28 28.5 73 28.5 q28 0 45.5 -9 q17.5 -9 35.5 -25 q12 -10 20.5 -15 q8.5 -5 18.5 -5 q15 0 24.5 12 q9.5 12 12.5 31 l70 0 q-2 -47 -30 -75.5 q-28 -28.5 -73 -28.5 q-28 0 -45.5 9 q-17.5 9 -35.5 25 q-12 10 -20.5 15 q-8.5 5 -18.5 5 q-30 0 -37 -43 l-70 0 ZM50 367 q0 113 43 199 q43 86 118.5 132 q75.5 46 169.5 46 q94 0 169.5 -46.5 q75.5 -46.5 118.5 -132 q43 -85.5 43 -198.5 q0 -114 -43.5 -199.5 q-43.5 -85.5 -118.5 -132 q-75 -46.5 -169 -46.5 q-94 0 -169.5 46 q-75.5 46 -118.5 132 q-43 86 -43 200 ZM144 367 q0 -87 28.5 -154 q28.5 -67 82.5 -104.5 q54 -37.5 126 -37.5 q72 0 125.5 37.5 q53.5 37.5 82.5 104.5 q29 67 29 154 q0 88 -29 155 q-29 67 -82.5 104 q-53.5 37 -125.5 37 q-72 0 -125.5 -37 q-53.5 -37 -82.5 -104 q-29 -67 -29 -155 Z" /><glyph glyph-name="OE" unicode="&#x152;" d="M706 339 l0 -260 l371 0 l0 -79 l-460 0 l0 118 q-39 -62 -99 -95.5 q-60 -33.5 -137 -33.5 q-94 0 -169.5 47.5 q-75.5 47.5 -118.5 133.5 q-43 86 -43 197 q0 110 43.5 196 q43.5 86 119 133.5 q75.5 47.5 168.5 47.5 q77 0 137 -33.5 q60 -33.5 99 -95.5 l0 118 l449 0 l0 -79 l-360 0 l0 -236 l322 0 l0 -79 l-322 0 ZM381 71 q72 0 125.5 37.5 q53.5 37.5 82 104.5 q28.5 67 28.5 154 q0 88 -29 155 q-29 67 -82.5 104 q-53.5 37 -124.5 37 q-72 0 -125.5 -37 q-53.5 -37 -82.5 -104 q-29 -67 -29 -155 q0 -87 28.5 -154 q28.5 -67 82.5 -104.5 q54 -37.5 126 -37.5 Z" /><glyph glyph-name="P" unicode="P" d="M312 732 q74 0 132.5 -29 q58.5 -29 91.5 -80.5 q33 -51.5 33 -117.5 q0 -66 -32.5 -117.5 q-32.5 -51.5 -91 -80 q-58.5 -28.5 -133.5 -28.5 l-136 0 l0 -279 l-89 0 l0 732 l225 0 ZM301 357 q84 0 129 41.5 q45 41.5 45 106.5 q0 65 -45 107 q-45 42 -129 42 l-125 0 l0 -297 l125 0 Z" /><glyph glyph-name="Thorn" unicode="Þ" d="M312 594 q74 0 132.5 -29 q58.5 -29 91.5 -80.5 q33 -51.5 33 -117.5 q0 -66 -32.5 -117.5 q-32.5 -51.5 -91 -80 q-58.5 -28.5 -133.5 -28.5 l-136 0 l0 -141 l-89 0 l0 732 l89 0 l0 -138 l136 0 ZM300 219 q84 0 128.5 41.5 q44.5 41.5 44.5 106.5 q0 65 -44.5 107 q-44.5 42 -128.5 42 l-124 0 l0 -297 l124 0 Z" /><glyph glyph-name="Q" unicode="Q" d="M770 -152 l-134 0 l-192 147 q-31 -6 -63 -6 q-94 0 -169.5 46 q-75.5 46 -118.5 132 q-43 86 -43 200 q0 113 43 199 q43 86 118.5 132 q75.5 46 169.5 46 q94 0 169.5 -46.5 q75.5 -46.5 118.5 -132 q43 -85.5 43 -198.5 q0 -118 -46.5 -205.5 q-46.5 -87.5 -126.5 -132.5 l231 -181 ZM144 367 q0 -87 28.5 -154 q28.5 -67 82.5 -104.5 q54 -37.5 126 -37.5 q72 0 125.5 37.5 q53.5 37.5 82.5 104.5 q29 67 29 154 q0 88 -29 155 q-29 67 -82.5 104 q-53.5 37 -125.5 37 q-72 0 -125.5 -37 q-53.5 -37 -82.5 -104 q-29 -67 -29 -155 Z" /><glyph glyph-name="R" unicode="R" d="M642 0 l-109 0 l-212 300 l-9 0 l-136 0 l0 -300 l-89 0 l0 732 l225 0 q75 0 133.5 -27 q58.5 -27 91 -76.5 q32.5 -49.5 32.5 -113.5 q0 -72 -41 -124.5 q-41 -52.5 -113 -75.5 l227 -315 ZM176 654 l0 -276 l125 0 q85 0 129.5 37.5 q44.5 37.5 44.5 99.5 q0 62 -44.5 100.5 q-44.5 38.5 -129.5 38.5 l-125 0 Z" /><glyph glyph-name="Racute" unicode="&#x154;" d="M255 811 l82 117 l94 0 l-101 -117 l-75 0 ZM642 0 l-109 0 l-212 300 l-9 0 l-136 0 l0 -300 l-89 0 l0 732 l225 0 q75 0 133.5 -27 q58.5 -27 91 -76.5 q32.5 -49.5 32.5 -113.5 q0 -72 -41 -124.5 q-41 -52.5 -113 -75.5 l227 -315 ZM176 654 l0 -276 l125 0 q85 0 129.5 37.5 q44.5 37.5 44.5 99.5 q0 62 -44.5 100.5 q-44.5 38.5 -129.5 38.5 l-125 0 Z" /><glyph glyph-name="Rcaron" unicode="&#x158;" d="M213 928 l73 -72 l72 72 l91 0 l-122 -117 l-83 0 l-122 117 l91 0 ZM642 0 l-109 0 l-212 300 l-9 0 l-136 0 l0 -300 l-89 0 l0 732 l225 0 q75 0 133.5 -27 q58.5 -27 91 -76.5 q32.5 -49.5 32.5 -113.5 q0 -72 -41 -124.5 q-41 -52.5 -113 -75.5 l227 -315 ZM176 654 l0 -276 l125 0 q85 0 129.5 37.5 q44.5 37.5 44.5 99.5 q0 62 -44.5 100.5 q-44.5 38.5 -129.5 38.5 l-125 0 Z" /><glyph glyph-name="uni0156" unicode="&#x156;" d="M642 0 l-109 0 l-212 300 l-9 0 l-136 0 l0 -300 l-89 0 l0 732 l225 0 q75 0 133.5 -27 q58.5 -27 91 -76.5 q32.5 -49.5 32.5 -113.5 q0 -72 -41 -124.5 q-41 -52.5 -113 -75.5 l227 -315 ZM301 378 q85 0 129.5 37.5 q44.5 37.5 44.5 99.5 q0 62 -44.5 100.5 q-44.5 38.5 -129.5 38.5 l-125 0 l0 -276 l125 0 ZM352 -40 q26 0 43 -19 q17 -19 17 -59 q0 -51 -32.5 -84 q-32.5 -33 -86.5 -42 l0 41 q30 9 46 23.5 q16 14.5 19 37.5 l-7 0 q-23 0 -36 15 q-13 15 -13 36 q0 22 14 36.5 q14 14.5 36 14.5 Z" /><glyph glyph-name="S" unicode="S" d="M547 203 q0 -63 -29 -111.5 q-29 -48.5 -85 -75.5 q-56 -27 -133 -27 q-107 0 -183 50 q-76 50 -100 133 l72 42 q27 -69 80 -106 q53 -37 132 -37 q72 0 112 32 q40 32 40 89 q0 46 -25 74.5 q-25 28.5 -61.5 44.5 q-36.5 16 -100.5 35 q-71 21 -114.5 40 q-43.5 19 -73.5 57 q-30 38 -30 100 q0 63 32 108.5 q32 45.5 88.5 69 q56.5 23.5 126.5 23.5 q98 0 158.5 -43 q60.5 -43 81.5 -109 l-72 -42 q-23 53 -63.5 83 q-40.5 30 -107.5 30 q-68 0 -109 -30.5 q-41 -30.5 -41 -81.5 q0 -38 22.5 -62 q22.5 -24 56.5 -38 q34 -14 93 -31 q75 -22 121 -43 q46 -21 79 -63 q33 -42 33 -111 Z" /><glyph glyph-name="Sacute" unicode="&#x15a;" d="M268 811 l82 117 l94 0 l-101 -117 l-75 0 ZM547 203 q0 -63 -29 -111.5 q-29 -48.5 -85 -75.5 q-56 -27 -133 -27 q-107 0 -183 50 q-76 50 -100 133 l72 42 q27 -69 80 -106 q53 -37 132 -37 q72 0 112 32 q40 32 40 89 q0 46 -25 74.5 q-25 28.5 -61.5 44.5 q-36.5 16 -100.5 35 q-71 21 -114.5 40 q-43.5 19 -73.5 57 q-30 38 -30 100 q0 63 32 108.5 q32 45.5 88.5 69 q56.5 23.5 126.5 23.5 q98 0 158.5 -43 q60.5 -43 81.5 -109 l-72 -42 q-23 53 -63.5 83 q-40.5 30 -107.5 30 q-68 0 -109 -30.5 q-41 -30.5 -41 -81.5 q0 -38 22.5 -62 q22.5 -24 56.5 -38 q34 -14 93 -31 q75 -22 121 -43 q46 -21 79 -63 q33 -42 33 -111 Z" /><glyph glyph-name="Scaron" unicode="&#x160;" d="M226 928 l73 -72 l72 72 l91 0 l-122 -117 l-83 0 l-122 117 l91 0 ZM547 203 q0 -63 -29 -111.5 q-29 -48.5 -85 -75.5 q-56 -27 -133 -27 q-107 0 -183 50 q-76 50 -100 133 l72 42 q27 -69 80 -106 q53 -37 132 -37 q72 0 112 32 q40 32 40 89 q0 46 -25 74.5 q-25 28.5 -61.5 44.5 q-36.5 16 -100.5 35 q-71 21 -114.5 40 q-43.5 19 -73.5 57 q-30 38 -30 100 q0 63 32 108.5 q32 45.5 88.5 69 q56.5 23.5 126.5 23.5 q98 0 158.5 -43 q60.5 -43 81.5 -109 l-72 -42 q-23 53 -63.5 83 q-40.5 30 -107.5 30 q-68 0 -109 -30.5 q-41 -30.5 -41 -81.5 q0 -38 22.5 -62 q22.5 -24 56.5 -38 q34 -14 93 -31 q75 -22 121 -43 q46 -21 79 -63 q33 -42 33 -111 Z" /><glyph glyph-name="Scedilla" unicode="&#x15e;" d="M547 203 q0 -62 -28.5 -110 q-28.5 -48 -83 -75.5 q-54.5 -27.5 -129.5 -28.5 l-18 -46 q48 1 80 -22 q32 -23 32 -66 q0 -48 -41 -73.5 q-41 -25.5 -98 -25.5 q-35 0 -73 11 l0 59 q31 -10 71 -10 q68 0 68 35 q0 36 -81 36 q-22 0 -34 -1 l-6 37 l28 71 q-82 14 -139.5 61.5 q-57.5 47.5 -77.5 116.5 l72 42 q27 -69 80 -106 q53 -37 132 -37 q73 0 112.5 31.5 q39.5 31.5 39.5 89.5 q0 46 -25 74.5 q-25 28.5 -61.5 44.5 q-36.5 16 -100.5 35 q-71 21 -114.5 40 q-43.5 19 -73.5 57 q-30 38 -30 100 q0 63 32 108.5 q32 45.5 88.5 69 q56.5 23.5 126.5 23.5 q98 0 158.5 -43 q60.5 -43 81.5 -109 l-72 -42 q-23 53 -63.5 83 q-40.5 30 -107.5 30 q-68 0 -109 -30.5 q-41 -30.5 -41 -81.5 q0 -38 22.5 -62 q22.5 -24 56.5 -38 q34 -14 93 -31 q75 -22 121 -43 q46 -21 79 -63 q33 -42 33 -111 Z" /><glyph glyph-name="Scircumflex" unicode="&#x15c;" d="M257 928 l83 0 l122 -117 l-91 0 l-72 72 l-73 -72 l-91 0 l122 117 ZM547 203 q0 -63 -29 -111.5 q-29 -48.5 -85 -75.5 q-56 -27 -133 -27 q-107 0 -183 50 q-76 50 -100 133 l72 42 q27 -69 80 -106 q53 -37 132 -37 q72 0 112 32 q40 32 40 89 q0 46 -25 74.5 q-25 28.5 -61.5 44.5 q-36.5 16 -100.5 35 q-71 21 -114.5 40 q-43.5 19 -73.5 57 q-30 38 -30 100 q0 63 32 108.5 q32 45.5 88.5 69 q56.5 23.5 126.5 23.5 q98 0 158.5 -43 q60.5 -43 81.5 -109 l-72 -42 q-23 53 -63.5 83 q-40.5 30 -107.5 30 q-68 0 -109 -30.5 q-41 -30.5 -41 -81.5 q0 -38 22.5 -62 q22.5 -24 56.5 -38 q34 -14 93 -31 q75 -22 121 -43 q46 -21 79 -63 q33 -42 33 -111 Z" /><glyph glyph-name="uni0218" unicode="&#x218;" d="M547 203 q0 -63 -29 -111.5 q-29 -48.5 -85 -75.5 q-56 -27 -133 -27 q-107 0 -183 50 q-76 50 -100 133 l72 42 q27 -69 80 -106 q53 -37 132 -37 q72 0 112 32 q40 32 40 89 q0 46 -25 74.5 q-25 28.5 -61.5 44.5 q-36.5 16 -100.5 35 q-71 21 -114.5 40 q-43.5 19 -73.5 57 q-30 38 -30 100 q0 63 32 108.5 q32 45.5 88.5 69 q56.5 23.5 126.5 23.5 q98 0 158.5 -43 q60.5 -43 81.5 -109 l-72 -42 q-23 53 -63.5 83 q-40.5 30 -107.5 30 q-68 0 -109 -30.5 q-41 -30.5 -41 -81.5 q0 -38 22.5 -62 q22.5 -24 56.5 -38 q34 -14 93 -31 q75 -22 121 -43 q46 -21 79 -63 q33 -42 33 -111 ZM280 -40 q26 0 43 -19 q17 -19 17 -59 q0 -51 -32.5 -84 q-32.5 -33 -86.5 -42 l0 41 q30 9 46 23.5 q16 14.5 19 37.5 l-7 0 q-23 0 -36 15 q-13 15 -13 36 q0 22 14 36.5 q14 14.5 36 14.5 Z" /><glyph glyph-name="uni018F" unicode="&#x18f;" d="M341 744 q96 0 168 -44 q72 -44 111.5 -129 q39.5 -85 39.5 -204 q0 -119 -40 -204 q-40 -85 -111 -129.5 q-71 -44.5 -163 -44.5 q-92 0 -159 43 q-67 43 -102 116.5 q-35 73.5 -35 164.5 q0 38 6 77 l509 0 q-11 272 -228 272 q-68 0 -114.5 -29 q-46.5 -29 -82.5 -91 l-66 47 q34 75 105.5 115 q71.5 40 161.5 40 ZM350 71 q91 0 147 59.5 q56 59.5 66 179.5 l-418 0 q-4 -113 51.5 -176 q55.5 -63 153.5 -63 Z" /><glyph glyph-name="T" unicode="T" d="M12 732 l544 0 l0 -79 l-228 0 l0 -653 l-89 0 l0 653 l-227 0 l0 79 Z" /><glyph glyph-name="Tbar" unicode="&#x166;" d="M12 732 l544 0 l0 -79 l-228 0 l0 -238 l156 0 l0 -79 l-156 0 l0 -336 l-89 0 l0 336 l-154 0 l0 79 l154 0 l0 238 l-227 0 l0 79 Z" /><glyph glyph-name="Tcaron" unicode="&#x164;" d="M211 928 l73 -72 l72 72 l91 0 l-122 -118 l-83 0 l-122 118 l91 0 ZM12 732 l544 0 l0 -79 l-228 0 l0 -653 l-89 0 l0 653 l-227 0 l0 79 Z" /><glyph glyph-name="uni0162" unicode="&#x162;" d="M328 653 l0 -653 l-5 0 l-23 -57 q48 1 80 -22 q32 -23 32 -65 q0 -49 -41 -74.5 q-41 -25.5 -98 -25.5 q-35 0 -73 11 l0 59 q31 -10 71 -10 q68 0 68 35 q0 36 -81 36 q-22 0 -34 -1 l-6 37 l31 77 l-10 0 l0 653 l-227 0 l0 79 l544 0 l0 -79 l-228 0 Z" /><glyph glyph-name="uni021A" unicode="&#x21a;" d="M239 653 l-227 0 l0 79 l544 0 l0 -79 l-228 0 l0 -653 l-89 0 l0 653 ZM279 -40 q26 0 43 -19 q17 -19 17 -59 q0 -51 -32.5 -84 q-32.5 -33 -86.5 -42 l0 41 q30 9 46 23.5 q16 14.5 19 37.5 l-7 0 q-23 0 -36 15 q-13 15 -13 36 q0 22 14 36.5 q14 14.5 36 14.5 Z" /><glyph glyph-name="U" unicode="U" d="M562 732 l89 0 l0 -436 q0 -94 -34 -163.5 q-34 -69.5 -98.5 -106.5 q-64.5 -37 -153.5 -37 q-134 0 -209.5 82 q-75.5 82 -75.5 225 l0 436 l89 0 l0 -422 q0 -116 50 -177.5 q50 -61.5 146 -61.5 q96 0 146.5 61.5 q50.5 61.5 50.5 177.5 l0 422 Z" /><glyph glyph-name="Uacute" unicode="Ú" d="M334 810 l82 118 l94 0 l-101 -118 l-75 0 ZM562 732 l89 0 l0 -436 q0 -94 -34 -163.5 q-34 -69.5 -98.5 -106.5 q-64.5 -37 -153.5 -37 q-134 0 -209.5 82 q-75.5 82 -75.5 225 l0 436 l89 0 l0 -422 q0 -116 50 -177.5 q50 -61.5 146 -61.5 q96 0 146.5 61.5 q50.5 61.5 50.5 177.5 l0 422 Z" /><glyph glyph-name="Ubreve" unicode="&#x16c;" d="M365 810 q-71 0 -111.5 31.5 q-40.5 31.5 -40.5 86.5 l78 0 q2 -32 21 -49.5 q19 -17.5 53 -17.5 q35 0 54 17.5 q19 17.5 21 49.5 l78 0 q0 -56 -40.5 -87 q-40.5 -31 -112.5 -31 ZM562 732 l89 0 l0 -436 q0 -94 -34 -163.5 q-34 -69.5 -98.5 -106.5 q-64.5 -37 -153.5 -37 q-134 0 -209.5 82 q-75.5 82 -75.5 225 l0 436 l89 0 l0 -422 q0 -116 50 -177.5 q50 -61.5 146 -61.5 q96 0 146.5 61.5 q50.5 61.5 50.5 177.5 l0 422 Z" /><glyph glyph-name="uni01D3" unicode="&#x1d3;" d="M292 928 l73 -72 l72 72 l91 0 l-122 -118 l-83 0 l-122 118 l91 0 ZM562 732 l89 0 l0 -436 q0 -94 -34 -163.5 q-34 -69.5 -98.5 -106.5 q-64.5 -37 -153.5 -37 q-134 0 -209.5 82 q-75.5 82 -75.5 225 l0 436 l89 0 l0 -422 q0 -116 50 -177.5 q50 -61.5 146 -61.5 q96 0 146.5 61.5 q50.5 61.5 50.5 177.5 l0 422 Z" /><glyph glyph-name="Ucircumflex" unicode="Û" d="M323 928 l83 0 l122 -118 l-91 0 l-72 72 l-73 -72 l-91 0 l122 118 ZM562 732 l89 0 l0 -436 q0 -94 -34 -163.5 q-34 -69.5 -98.5 -106.5 q-64.5 -37 -153.5 -37 q-134 0 -209.5 82 q-75.5 82 -75.5 225 l0 436 l89 0 l0 -422 q0 -116 50 -177.5 q50 -61.5 146 -61.5 q96 0 146.5 61.5 q50.5 61.5 50.5 177.5 l0 422 Z" /><glyph glyph-name="Udieresis" unicode="Ü" d="M262 829 q-23 0 -39.5 14.5 q-16.5 14.5 -16.5 35.5 q0 20 16.5 34.5 q16.5 14.5 39.5 14.5 q24 0 40.5 -14.5 q16.5 -14.5 16.5 -34.5 q0 -21 -16.5 -35.5 q-16.5 -14.5 -40.5 -14.5 ZM467 829 q-23 0 -39.5 14.5 q-16.5 14.5 -16.5 35.5 q0 20 16.5 34.5 q16.5 14.5 39.5 14.5 q24 0 40.5 -14.5 q16.5 -14.5 16.5 -34.5 q0 -21 -16.5 -35.5 q-16.5 -14.5 -40.5 -14.5 ZM562 732 l89 0 l0 -436 q0 -94 -34 -163.5 q-34 -69.5 -98.5 -106.5 q-64.5 -37 -153.5 -37 q-134 0 -209.5 82 q-75.5 82 -75.5 225 l0 436 l89 0 l0 -422 q0 -116 50 -177.5 q50 -61.5 146 -61.5 q96 0 146.5 61.5 q50.5 61.5 50.5 177.5 l0 422 Z" /><glyph glyph-name="uni01D7" unicode="&#x1d7;" d="M334 869 l82 59 l94 0 l-101 -59 l-75 0 ZM262 789 q-23 0 -39.5 9.5 q-16.5 9.5 -16.5 23.5 q0 13 16.5 22.5 q16.5 9.5 39.5 9.5 q24 0 40.5 -9.5 q16.5 -9.5 16.5 -22.5 q0 -14 -16.5 -23.5 q-16.5 -9.5 -40.5 -9.5 ZM467 789 q-23 0 -39.5 9.5 q-16.5 9.5 -16.5 23.5 q0 13 16.5 22.5 q16.5 9.5 39.5 9.5 q24 0 40.5 -9.5 q16.5 -9.5 16.5 -22.5 q0 -14 -16.5 -23.5 q-16.5 -9.5 -40.5 -9.5 ZM562 732 l89 0 l0 -436 q0 -94 -34 -163.5 q-34 -69.5 -98.5 -106.5 q-64.5 -37 -153.5 -37 q-134 0 -209.5 82 q-75.5 82 -75.5 225 l0 436 l89 0 l0 -422 q0 -116 50 -177.5 q50 -61.5 146 -61.5 q96 0 146.5 61.5 q50.5 61.5 50.5 177.5 l0 422 Z" /><glyph glyph-name="uni01D9" unicode="&#x1d9;" d="M528 928 l-122 -59 l-83 0 l-122 59 l102 0 l62 -27 l61 27 l102 0 ZM262 789 q-23 0 -39.5 9.5 q-16.5 9.5 -16.5 23.5 q0 13 16.5 22.5 q16.5 9.5 39.5 9.5 q24 0 40.5 -9.5 q16.5 -9.5 16.5 -22.5 q0 -14 -16.5 -23.5 q-16.5 -9.5 -40.5 -9.5 ZM467 789 q-23 0 -39.5 9.5 q-16.5 9.5 -16.5 23.5 q0 13 16.5 22.5 q16.5 9.5 39.5 9.5 q24 0 40.5 -9.5 q16.5 -9.5 16.5 -22.5 q0 -14 -16.5 -23.5 q-16.5 -9.5 -40.5 -9.5 ZM562 732 l89 0 l0 -436 q0 -94 -34 -163.5 q-34 -69.5 -98.5 -106.5 q-64.5 -37 -153.5 -37 q-134 0 -209.5 82 q-75.5 82 -75.5 225 l0 436 l89 0 l0 -422 q0 -116 50 -177.5 q50 -61.5 146 -61.5 q96 0 146.5 61.5 q50.5 61.5 50.5 177.5 l0 422 Z" /><glyph glyph-name="uni01DB" unicode="&#x1db;" d="M220 928 l94 0 l82 -59 l-75 0 l-101 59 ZM262 789 q-23 0 -39.5 9.5 q-16.5 9.5 -16.5 23.5 q0 13 16.5 22.5 q16.5 9.5 39.5 9.5 q24 0 40.5 -9.5 q16.5 -9.5 16.5 -22.5 q0 -14 -16.5 -23.5 q-16.5 -9.5 -40.5 -9.5 ZM467 789 q-23 0 -39.5 9.5 q-16.5 9.5 -16.5 23.5 q0 13 16.5 22.5 q16.5 9.5 39.5 9.5 q24 0 40.5 -9.5 q16.5 -9.5 16.5 -22.5 q0 -14 -16.5 -23.5 q-16.5 -9.5 -40.5 -9.5 ZM562 732 l89 0 l0 -436 q0 -94 -34 -163.5 q-34 -69.5 -98.5 -106.5 q-64.5 -37 -153.5 -37 q-134 0 -209.5 82 q-75.5 82 -75.5 225 l0 436 l89 0 l0 -422 q0 -116 50 -177.5 q50 -61.5 146 -61.5 q96 0 146.5 61.5 q50.5 61.5 50.5 177.5 l0 422 Z" /><glyph glyph-name="uni01D5" unicode="&#x1d5;" d="M205 888 l0 40 l320 0 l0 -40 l-320 0 ZM262 789 q-23 0 -39.5 10.5 q-16.5 10.5 -16.5 24.5 q0 14 16.5 24 q16.5 10 39.5 10 q24 0 40.5 -10 q16.5 -10 16.5 -24 q0 -14 -16.5 -24.5 q-16.5 -10.5 -40.5 -10.5 ZM467 789 q-23 0 -39.5 10.5 q-16.5 10.5 -16.5 24.5 q0 14 16.5 24 q16.5 10 39.5 10 q24 0 40.5 -10 q16.5 -10 16.5 -24 q0 -14 -16.5 -24.5 q-16.5 -10.5 -40.5 -10.5 ZM562 732 l89 0 l0 -436 q0 -94 -34 -163.5 q-34 -69.5 -98.5 -106.5 q-64.5 -37 -153.5 -37 q-134 0 -209.5 82 q-75.5 82 -75.5 225 l0 436 l89 0 l0 -422 q0 -116 50 -177.5 q50 -61.5 146 -61.5 q96 0 146.5 61.5 q50.5 61.5 50.5 177.5 l0 422 Z" /><glyph glyph-name="uni1EE4" unicode="&#x1ee4;" d="M562 732 l89 0 l0 -436 q0 -94 -34 -163.5 q-34 -69.5 -98.5 -106.5 q-64.5 -37 -153.5 -37 q-134 0 -209.5 82 q-75.5 82 -75.5 225 l0 436 l89 0 l0 -422 q0 -116 50 -177.5 q50 -61.5 146 -61.5 q96 0 146.5 61.5 q50.5 61.5 50.5 177.5 l0 422 ZM365 -188 q-23 0 -39.5 17.5 q-16.5 17.5 -16.5 40.5 q0 23 16.5 40.5 q16.5 17.5 39.5 17.5 q24 0 40.5 -17 q16.5 -17 16.5 -41 q0 -23 -17 -40.5 q-17 -17.5 -40 -17.5 Z" /><glyph glyph-name="Ugrave" unicode="Ù" d="M220 928 l94 0 l82 -118 l-75 0 l-101 118 ZM562 732 l89 0 l0 -436 q0 -94 -34 -163.5 q-34 -69.5 -98.5 -106.5 q-64.5 -37 -153.5 -37 q-134 0 -209.5 82 q-75.5 82 -75.5 225 l0 436 l89 0 l0 -422 q0 -116 50 -177.5 q50 -61.5 146 -61.5 q96 0 146.5 61.5 q50.5 61.5 50.5 177.5 l0 422 Z" /><glyph glyph-name="uni1EE6" unicode="&#x1ee6;" d="M275 914 q33 14 77 14 q46 0 75 -15.5 q29 -15.5 29 -47.5 q0 -56 -96 -80 l-36 34 q29 8 44 17 q15 9 15 22 q0 11 -12.5 19 q-12.5 8 -32.5 8 q-23 0 -52 -13 l-11 42 ZM562 732 l89 0 l0 -436 q0 -94 -34 -163.5 q-34 -69.5 -98.5 -106.5 q-64.5 -37 -153.5 -37 q-134 0 -209.5 82 q-75.5 82 -75.5 225 l0 436 l89 0 l0 -422 q0 -116 50 -177.5 q50 -61.5 146 -61.5 q96 0 146.5 61.5 q50.5 61.5 50.5 177.5 l0 422 Z" /><glyph glyph-name="Uhorn" unicode="&#x1af;" d="M767 795 q0 -66 -28.5 -93 q-28.5 -27 -87.5 -32 l0 -374 q0 -94 -34 -163.5 q-34 -69.5 -98.5 -106.5 q-64.5 -37 -153.5 -37 q-134 0 -209.5 82 q-75.5 82 -75.5 225 l0 436 l89 0 l0 -422 q0 -116 50 -177.5 q50 -61.5 146 -61.5 q96 0 146 61.5 q50 61.5 50 177.5 l0 422 l37 0 q49 0 70.5 13.5 q21.5 13.5 21.5 55.5 q0 28 -7 57 l77 0 q7 -32 7 -63 Z" /><glyph glyph-name="uni1EE8" unicode="&#x1ee8;" d="M334 810 l82 118 l94 0 l-101 -118 l-75 0 ZM767 795 q0 -66 -28.5 -93 q-28.5 -27 -87.5 -32 l0 -374 q0 -94 -34 -163.5 q-34 -69.5 -98.5 -106.5 q-64.5 -37 -153.5 -37 q-134 0 -209.5 82 q-75.5 82 -75.5 225 l0 436 l89 0 l0 -422 q0 -116 50 -177.5 q50 -61.5 146 -61.5 q96 0 146 61.5 q50 61.5 50 177.5 l0 422 l37 0 q49 0 70.5 13.5 q21.5 13.5 21.5 55.5 q0 28 -7 57 l77 0 q7 -32 7 -63 Z" /><glyph glyph-name="uni1EF0" unicode="&#x1ef0;" d="M767 795 q0 -66 -28.5 -93 q-28.5 -27 -87.5 -32 l0 -374 q0 -94 -34 -163.5 q-34 -69.5 -98.5 -106.5 q-64.5 -37 -153.5 -37 q-134 0 -209.5 82 q-75.5 82 -75.5 225 l0 436 l89 0 l0 -422 q0 -116 50 -177.5 q50 -61.5 146 -61.5 q96 0 146 61.5 q50 61.5 50 177.5 l0 422 l37 0 q49 0 70.5 13.5 q21.5 13.5 21.5 55.5 q0 28 -7 57 l77 0 q7 -32 7 -63 ZM365 -188 q-23 0 -39.5 17.5 q-16.5 17.5 -16.5 40.5 q0 23 16.5 40.5 q16.5 17.5 39.5 17.5 q24 0 40.5 -17 q16.5 -17 16.5 -41 q0 -23 -17 -40.5 q-17 -17.5 -40 -17.5 Z" /><glyph glyph-name="uni1EEA" unicode="&#x1eea;" d="M220 928 l94 0 l82 -118 l-75 0 l-101 118 ZM767 795 q0 -66 -28.5 -93 q-28.5 -27 -87.5 -32 l0 -374 q0 -94 -34 -163.5 q-34 -69.5 -98.5 -106.5 q-64.5 -37 -153.5 -37 q-134 0 -209.5 82 q-75.5 82 -75.5 225 l0 436 l89 0 l0 -422 q0 -116 50 -177.5 q50 -61.5 146 -61.5 q96 0 146 61.5 q50 61.5 50 177.5 l0 422 l37 0 q49 0 70.5 13.5 q21.5 13.5 21.5 55.5 q0 28 -7 57 l77 0 q7 -32 7 -63 Z" /><glyph glyph-name="uni1EEC" unicode="&#x1eec;" d="M275 914 q33 14 77 14 q46 0 75 -15.5 q29 -15.5 29 -47.5 q0 -56 -96 -80 l-36 34 q29 8 44 17 q15 9 15 22 q0 11 -12.5 19 q-12.5 8 -32.5 8 q-23 0 -52 -13 l-11 42 ZM767 795 q0 -66 -28.5 -93 q-28.5 -27 -87.5 -32 l0 -374 q0 -94 -34 -163.5 q-34 -69.5 -98.5 -106.5 q-64.5 -37 -153.5 -37 q-134 0 -209.5 82 q-75.5 82 -75.5 225 l0 436 l89 0 l0 -422 q0 -116 50 -177.5 q50 -61.5 146 -61.5 q96 0 146 61.5 q50 61.5 50 177.5 l0 422 l37 0 q49 0 70.5 13.5 q21.5 13.5 21.5 55.5 q0 28 -7 57 l77 0 q7 -32 7 -63 Z" /><glyph glyph-name="uni1EEE" unicode="&#x1eee;" d="M200 824 q2 47 30 75.5 q28 28.5 73 28.5 q28 0 45.5 -9 q17.5 -9 35.5 -25 q12 -10 20.5 -15 q8.5 -5 18.5 -5 q15 0 24.5 12 q9.5 12 12.5 31 l70 0 q-2 -47 -30 -75.5 q-28 -28.5 -73 -28.5 q-28 0 -45.5 9 q-17.5 9 -35.5 25 q-12 10 -20.5 15 q-8.5 5 -18.5 5 q-30 0 -37 -43 l-70 0 ZM767 795 q0 -66 -28.5 -93 q-28.5 -27 -87.5 -32 l0 -374 q0 -94 -34 -163.5 q-34 -69.5 -98.5 -106.5 q-64.5 -37 -153.5 -37 q-134 0 -209.5 82 q-75.5 82 -75.5 225 l0 436 l89 0 l0 -422 q0 -116 50 -177.5 q50 -61.5 146 -61.5 q96 0 146 61.5 q50 61.5 50 177.5 l0 422 l37 0 q49 0 70.5 13.5 q21.5 13.5 21.5 55.5 q0 28 -7 57 l77 0 q7 -32 7 -63 Z" /><glyph glyph-name="Uhungarumlaut" unicode="&#x170;" d="M249 810 l82 118 l92 0 l-101 -118 l-73 0 ZM400 810 l82 118 l92 0 l-101 -118 l-73 0 ZM562 732 l89 0 l0 -436 q0 -94 -34 -163.5 q-34 -69.5 -98.5 -106.5 q-64.5 -37 -153.5 -37 q-134 0 -209.5 82 q-75.5 82 -75.5 225 l0 436 l89 0 l0 -422 q0 -116 50 -177.5 q50 -61.5 146 -61.5 q96 0 146.5 61.5 q50.5 61.5 50.5 177.5 l0 422 Z" /><glyph glyph-name="Umacron" unicode="&#x16a;" d="M205 850 l0 74 l320 0 l0 -74 l-320 0 ZM562 732 l89 0 l0 -436 q0 -94 -34 -163.5 q-34 -69.5 -98.5 -106.5 q-64.5 -37 -153.5 -37 q-134 0 -209.5 82 q-75.5 82 -75.5 225 l0 436 l89 0 l0 -422 q0 -116 50 -177.5 q50 -61.5 146 -61.5 q96 0 146.5 61.5 q50.5 61.5 50.5 177.5 l0 422 Z" /><glyph glyph-name="Uogonek" unicode="&#x172;" d="M651 296 q0 -86 -28.5 -151.5 q-28.5 -65.5 -82.5 -104.5 q-73 -51 -98.5 -87 q-25.5 -36 -25.5 -74 q0 -32 16 -47 q16 -15 42 -15 q37 0 74 31 l33 -44 q-19 -23 -48 -35.5 q-29 -12.5 -64 -12.5 q-53 0 -89.5 27.5 q-36.5 27.5 -36.5 86.5 q0 34 12.5 63 q12.5 29 37.5 57 q-9 -1 -28 -1 q-134 0 -209.5 82 q-75.5 82 -75.5 225 l0 436 l89 0 l0 -422 q0 -116 50 -177.5 q50 -61.5 146 -61.5 q96 0 146 61.5 q50 61.5 50 177.5 l0 422 l90 0 l0 -436 Z" /><glyph glyph-name="Uring" unicode="&#x16e;" d="M257 861 q0 29 31 48 q31 19 77 19 q45 0 75 -19 q30 -19 30 -48 q0 -29 -30 -48 q-30 -19 -75 -19 q-46 0 -77 19 q-31 19 -31 48 ZM314 861 q0 -15 14 -24.5 q14 -9.5 37 -9.5 q22 0 35.5 9.5 q13.5 9.5 13.5 24.5 q0 15 -13.5 24.5 q-13.5 9.5 -35.5 9.5 q-23 0 -37 -9.5 q-14 -9.5 -14 -24.5 ZM562 732 l89 0 l0 -436 q0 -94 -34 -163.5 q-34 -69.5 -98.5 -106.5 q-64.5 -37 -153.5 -37 q-134 0 -209.5 82 q-75.5 82 -75.5 225 l0 436 l89 0 l0 -422 q0 -116 50 -177.5 q50 -61.5 146 -61.5 q96 0 146.5 61.5 q50.5 61.5 50.5 177.5 l0 422 Z" /><glyph glyph-name="Utilde" unicode="&#x168;" d="M200 824 q2 47 30 75.5 q28 28.5 73 28.5 q28 0 45.5 -9 q17.5 -9 35.5 -25 q12 -10 20.5 -15 q8.5 -5 18.5 -5 q15 0 24.5 12 q9.5 12 12.5 31 l70 0 q-2 -47 -30 -75.5 q-28 -28.5 -73 -28.5 q-28 0 -45.5 9 q-17.5 9 -35.5 25 q-12 10 -20.5 15 q-8.5 5 -18.5 5 q-30 0 -37 -43 l-70 0 ZM562 732 l89 0 l0 -436 q0 -94 -34 -163.5 q-34 -69.5 -98.5 -106.5 q-64.5 -37 -153.5 -37 q-134 0 -209.5 82 q-75.5 82 -75.5 225 l0 436 l89 0 l0 -422 q0 -116 50 -177.5 q50 -61.5 146 -61.5 q96 0 146.5 61.5 q50.5 61.5 50.5 177.5 l0 422 Z" /><glyph glyph-name="V" unicode="V" d="M106 732 l233 -613 l222 613 l90 0 l-278 -732 l-75 0 l-291 732 l99 0 Z" /><glyph glyph-name="W" unicode="W" d="M525 733 l180 -586 l166 585 l86 0 l-221 -732 l-71 0 l-180 567 l-172 -567 l-70 0 l-234 732 l94 0 l180 -585 l167 586 l75 0 Z" /><glyph glyph-name="Wacute" unicode="&#x1e82;" d="M457 810 l82 118 l94 0 l-101 -118 l-75 0 ZM525 733 l180 -586 l166 585 l86 0 l-221 -732 l-71 0 l-180 567 l-172 -567 l-70 0 l-234 732 l94 0 l180 -585 l167 586 l75 0 Z" /><glyph glyph-name="Wcircumflex" unicode="&#x174;" d="M446 928 l83 0 l122 -118 l-91 0 l-72 72 l-73 -72 l-91 0 l122 118 ZM525 733 l180 -586 l166 585 l86 0 l-221 -732 l-71 0 l-180 567 l-172 -567 l-70 0 l-234 732 l94 0 l180 -585 l167 586 l75 0 Z" /><glyph glyph-name="Wdieresis" unicode="&#x1e84;" d="M385 829 q-23 0 -39.5 14.5 q-16.5 14.5 -16.5 35.5 q0 20 16.5 34.5 q16.5 14.5 39.5 14.5 q24 0 40.5 -14.5 q16.5 -14.5 16.5 -34.5 q0 -21 -16.5 -35.5 q-16.5 -14.5 -40.5 -14.5 ZM590 829 q-23 0 -39.5 14.5 q-16.5 14.5 -16.5 35.5 q0 20 16.5 34.5 q16.5 14.5 39.5 14.5 q24 0 40.5 -14.5 q16.5 -14.5 16.5 -34.5 q0 -21 -16.5 -35.5 q-16.5 -14.5 -40.5 -14.5 ZM525 733 l180 -586 l166 585 l86 0 l-221 -732 l-71 0 l-180 567 l-172 -567 l-70 0 l-234 732 l94 0 l180 -585 l167 586 l75 0 Z" /><glyph glyph-name="Wgrave" unicode="&#x1e80;" d="M343 928 l94 0 l82 -118 l-75 0 l-101 118 ZM525 733 l180 -586 l166 585 l86 0 l-221 -732 l-71 0 l-180 567 l-172 -567 l-70 0 l-234 732 l94 0 l180 -585 l167 586 l75 0 Z" /><glyph glyph-name="X" unicode="X" d="M639 732 l-259 -361 l266 -371 l-109 0 l-212 299 l-210 -299 l-103 0 l266 370 l-259 362 l110 0 l204 -291 l203 291 l103 0 Z" /><glyph glyph-name="Y" unicode="Y" d="M319 400 l193 333 l97 0 l-251 -423 l0 -310 l-89 0 l0 313 l-262 420 l106 0 l206 -333 Z" /><glyph glyph-name="Yacute" unicode="Ý" d="M283 811 l82 117 l94 0 l-101 -117 l-75 0 ZM319 400 l193 333 l97 0 l-251 -423 l0 -310 l-89 0 l0 313 l-262 420 l106 0 l206 -333 Z" /><glyph glyph-name="Ycircumflex" unicode="&#x176;" d="M272 928 l83 0 l122 -117 l-91 0 l-72 72 l-73 -72 l-91 0 l122 117 ZM319 400 l193 333 l97 0 l-251 -423 l0 -310 l-89 0 l0 313 l-262 420 l106 0 l206 -333 Z" /><glyph glyph-name="Ydieresis" unicode="&#x178;" d="M211 830 q-23 0 -39.5 14.5 q-16.5 14.5 -16.5 34.5 q0 20 16.5 34.5 q16.5 14.5 39.5 14.5 q24 0 40.5 -14.5 q16.5 -14.5 16.5 -34.5 q0 -20 -16.5 -34.5 q-16.5 -14.5 -40.5 -14.5 ZM416 830 q-23 0 -39.5 14.5 q-16.5 14.5 -16.5 34.5 q0 20 16.5 34.5 q16.5 14.5 39.5 14.5 q24 0 40.5 -14.5 q16.5 -14.5 16.5 -34.5 q0 -20 -16.5 -34.5 q-16.5 -14.5 -40.5 -14.5 ZM319 400 l193 333 l97 0 l-251 -423 l0 -310 l-89 0 l0 313 l-262 420 l106 0 l206 -333 Z" /><glyph glyph-name="uni1EF4" unicode="&#x1ef4;" d="M319 400 l193 333 l97 0 l-251 -423 l0 -310 l-89 0 l0 313 l-262 420 l106 0 l206 -333 ZM314 -188 q-23 0 -39.5 17.5 q-16.5 17.5 -16.5 40.5 q0 23 16.5 40.5 q16.5 17.5 39.5 17.5 q24 0 40.5 -17 q16.5 -17 16.5 -41 q0 -23 -17 -40.5 q-17 -17.5 -40 -17.5 Z" /><glyph glyph-name="Ygrave" unicode="&#x1ef2;" d="M169 928 l94 0 l82 -117 l-75 0 l-101 117 ZM319 400 l193 333 l97 0 l-251 -423 l0 -310 l-89 0 l0 313 l-262 420 l106 0 l206 -333 Z" /><glyph glyph-name="uni1EF6" unicode="&#x1ef6;" d="M224 914 q33 14 77 14 q46 0 75 -15.5 q29 -15.5 29 -47.5 q0 -55 -96 -79 l-36 34 q29 9 44 17.5 q15 8.5 15 21.5 q0 11 -12.5 18.5 q-12.5 7.5 -32.5 7.5 q-26 0 -52 -13 l-11 42 ZM319 400 l193 333 l97 0 l-251 -423 l0 -310 l-89 0 l0 313 l-262 420 l106 0 l206 -333 Z" /><glyph glyph-name="uni1EF8" unicode="&#x1ef8;" d="M149 825 q2 46 30 74.5 q28 28.5 73 28.5 q28 0 45 -8.5 q17 -8.5 36 -24.5 q12 -10 20.5 -15 q8.5 -5 18.5 -5 q15 0 24.5 12 q9.5 12 12.5 30 l70 0 q-2 -46 -30 -74.5 q-28 -28.5 -73 -28.5 q-28 0 -45 8.5 q-17 8.5 -36 24.5 q-12 10 -20.5 15 q-8.5 5 -18.5 5 q-29 0 -37 -42 l-70 0 ZM319 400 l193 333 l97 0 l-251 -423 l0 -310 l-89 0 l0 313 l-262 420 l106 0 l206 -333 Z" /><glyph glyph-name="Z" unicode="Z" d="M540 732 l0 -43 l-392 -609 l406 0 l0 -80 l-529 0 l0 44 l392 609 l-362 0 l0 79 l485 0 Z" /><glyph glyph-name="Zacute" unicode="&#x179;" d="M267 811 l82 117 l94 0 l-101 -117 l-75 0 ZM540 732 l0 -43 l-392 -609 l406 0 l0 -80 l-529 0 l0 44 l392 609 l-362 0 l0 79 l485 0 Z" /><glyph glyph-name="Zcaron" unicode="&#x17d;" d="M225 928 l73 -66 l72 66 l91 0 l-122 -117 l-83 0 l-122 117 l91 0 ZM540 732 l0 -43 l-392 -609 l406 0 l0 -80 l-529 0 l0 44 l392 609 l-362 0 l0 79 l485 0 Z" /><glyph glyph-name="Zdotaccent" unicode="&#x17b;" d="M298 830 q-23 0 -39.5 14.5 q-16.5 14.5 -16.5 34.5 q0 20 16.5 34.5 q16.5 14.5 39.5 14.5 q24 0 40.5 -14.5 q16.5 -14.5 16.5 -34.5 q0 -20 -17 -34.5 q-17 -14.5 -40 -14.5 ZM540 732 l0 -43 l-392 -609 l406 0 l0 -80 l-529 0 l0 44 l392 609 l-362 0 l0 79 l485 0 Z" /><glyph glyph-name="a" unicode="a" d="M277 531 q88 0 144 -53.5 q56 -53.5 56 -152.5 l0 -325 l-75 0 q-3 51 -4 66 q-24 -38 -64.5 -57.5 q-40.5 -19.5 -92.5 -19.5 q-50 0 -93.5 18.5 q-43.5 18.5 -69.5 55 q-26 36.5 -26 87.5 q0 77 62.5 121.5 q62.5 44.5 161.5 44.5 q56 0 116 -15 l0 9 q0 73 -29.5 108.5 q-29.5 35.5 -89.5 35.5 q-48 0 -80 -20 q-32 -20 -54 -59 l-65 37 q24 54 78.5 86.5 q54.5 32.5 124.5 32.5 ZM392 230 q-63 16 -115 16 q-65 0 -100.5 -25 q-35.5 -25 -35.5 -70 q0 -42 30 -65.5 q30 -23.5 78 -23.5 q59 0 101 34.5 q42 34.5 42 95.5 l0 38 Z" /><glyph glyph-name="aacute" unicode="á" d="M314 746 l94 0 l-101 -154 l-75 0 l82 154 ZM277 531 q88 0 144 -53.5 q56 -53.5 56 -152.5 l0 -325 l-75 0 q-3 51 -4 66 q-24 -38 -64.5 -57.5 q-40.5 -19.5 -92.5 -19.5 q-50 0 -93.5 18.5 q-43.5 18.5 -69.5 55 q-26 36.5 -26 87.5 q0 77 62.5 121.5 q62.5 44.5 161.5 44.5 q56 0 116 -15 l0 9 q0 73 -29.5 108.5 q-29.5 35.5 -89.5 35.5 q-48 0 -80 -20 q-32 -20 -54 -59 l-65 37 q24 54 78.5 86.5 q54.5 32.5 124.5 32.5 ZM392 230 q-63 16 -115 16 q-65 0 -100.5 -25 q-35.5 -25 -35.5 -70 q0 -42 30 -65.5 q30 -23.5 78 -23.5 q59 0 101 34.5 q42 34.5 42 95.5 l0 38 Z" /><glyph glyph-name="abreve" unicode="&#x103;" d="M276 591 q-71 0 -113.5 41.5 q-42.5 41.5 -42.5 112.5 l78 0 q2 -42 21.5 -65 q19.5 -23 56.5 -23 q74 0 79 88 l78 0 q0 -71 -42.5 -112.5 q-42.5 -41.5 -114.5 -41.5 ZM277 531 q88 0 144 -53.5 q56 -53.5 56 -152.5 l0 -325 l-75 0 q-3 51 -4 66 q-24 -38 -64.5 -57.5 q-40.5 -19.5 -92.5 -19.5 q-50 0 -93.5 18.5 q-43.5 18.5 -69.5 55 q-26 36.5 -26 87.5 q0 77 62.5 121.5 q62.5 44.5 161.5 44.5 q56 0 116 -15 l0 9 q0 73 -29.5 108.5 q-29.5 35.5 -89.5 35.5 q-48 0 -80 -20 q-32 -20 -54 -59 l-65 37 q24 54 78.5 86.5 q54.5 32.5 124.5 32.5 ZM392 230 q-63 16 -115 16 q-65 0 -100.5 -25 q-35.5 -25 -35.5 -70 q0 -42 30 -65.5 q30 -23.5 78 -23.5 q59 0 101 34.5 q42 34.5 42 95.5 l0 38 Z" /><glyph glyph-name="uni1EAF" unicode="&#x1eaf;" d="M305 902 l94 0 l-92 -137 l-75 0 l73 137 ZM276 591 q-71 0 -113.5 41.5 q-42.5 41.5 -42.5 112.5 l78 0 q2 -42 21.5 -65 q19.5 -23 56.5 -23 q74 0 79 88 l78 0 q0 -71 -42.5 -112.5 q-42.5 -41.5 -114.5 -41.5 ZM277 531 q88 0 144 -53.5 q56 -53.5 56 -152.5 l0 -325 l-75 0 q-3 51 -4 66 q-24 -38 -64.5 -57.5 q-40.5 -19.5 -92.5 -19.5 q-50 0 -93.5 18.5 q-43.5 18.5 -69.5 55 q-26 36.5 -26 87.5 q0 77 62.5 121.5 q62.5 44.5 161.5 44.5 q56 0 116 -15 l0 9 q0 73 -29.5 108.5 q-29.5 35.5 -89.5 35.5 q-48 0 -80 -20 q-32 -20 -54 -59 l-65 37 q24 54 78.5 86.5 q54.5 32.5 124.5 32.5 ZM392 230 q-63 16 -115 16 q-65 0 -100.5 -25 q-35.5 -25 -35.5 -70 q0 -42 30 -65.5 q30 -23.5 78 -23.5 q59 0 101 34.5 q42 34.5 42 95.5 l0 38 Z" /><glyph glyph-name="uni1EB7" unicode="&#x1eb7;" d="M276 591 q-71 0 -113.5 41.5 q-42.5 41.5 -42.5 112.5 l78 0 q2 -42 21.5 -65 q19.5 -23 56.5 -23 q74 0 79 88 l78 0 q0 -71 -42.5 -112.5 q-42.5 -41.5 -114.5 -41.5 ZM277 531 q88 0 144 -53.5 q56 -53.5 56 -152.5 l0 -325 l-75 0 q-3 51 -4 66 q-24 -38 -64.5 -57.5 q-40.5 -19.5 -92.5 -19.5 q-50 0 -93.5 18.5 q-43.5 18.5 -69.5 55 q-26 36.5 -26 87.5 q0 77 62.5 121.5 q62.5 44.5 161.5 44.5 q56 0 116 -15 l0 9 q0 73 -29.5 108.5 q-29.5 35.5 -89.5 35.5 q-48 0 -80 -20 q-32 -20 -54 -59 l-65 37 q24 54 78.5 86.5 q54.5 32.5 124.5 32.5 ZM392 230 q-63 16 -115 16 q-65 0 -100.5 -25 q-35.5 -25 -35.5 -70 q0 -42 30 -65.5 q30 -23.5 78 -23.5 q59 0 101 34.5 q42 34.5 42 95.5 l0 38 ZM285 -72 q24 0 40.5 -17 q16.5 -17 16.5 -41 q0 -23 -17 -40.5 q-17 -17.5 -40 -17.5 q-23 0 -39.5 17.5 q-16.5 17.5 -16.5 40.5 q0 23 16.5 40.5 q16.5 17.5 39.5 17.5 Z" /><glyph glyph-name="uni1EB1" unicode="&#x1eb1;" d="M247 902 l73 -137 l-75 0 l-92 137 l94 0 ZM276 591 q-71 0 -113.5 41.5 q-42.5 41.5 -42.5 112.5 l78 0 q2 -42 21.5 -65 q19.5 -23 56.5 -23 q74 0 79 88 l78 0 q0 -71 -42.5 -112.5 q-42.5 -41.5 -114.5 -41.5 ZM277 531 q88 0 144 -53.5 q56 -53.5 56 -152.5 l0 -325 l-75 0 q-3 51 -4 66 q-24 -38 -64.5 -57.5 q-40.5 -19.5 -92.5 -19.5 q-50 0 -93.5 18.5 q-43.5 18.5 -69.5 55 q-26 36.5 -26 87.5 q0 77 62.5 121.5 q62.5 44.5 161.5 44.5 q56 0 116 -15 l0 9 q0 73 -29.5 108.5 q-29.5 35.5 -89.5 35.5 q-48 0 -80 -20 q-32 -20 -54 -59 l-65 37 q24 54 78.5 86.5 q54.5 32.5 124.5 32.5 ZM392 230 q-63 16 -115 16 q-65 0 -100.5 -25 q-35.5 -25 -35.5 -70 q0 -42 30 -65.5 q30 -23.5 78 -23.5 q59 0 101 34.5 q42 34.5 42 95.5 l0 38 Z" /><glyph glyph-name="uni1EB3" unicode="&#x1eb3;" d="M249 870 q-25 0 -52 -15 l-11 54 q33 19 77 19 q45 0 74.5 -21 q29.5 -21 29.5 -63 q0 -39 -26 -64.5 q-26 -25.5 -70 -39.5 l-36 45 q29 11 44 22 q15 11 15 28 q0 16 -12.5 25.5 q-12.5 9.5 -32.5 9.5 ZM276 591 q-71 0 -113.5 40 q-42.5 40 -42.5 109 l78 0 q2 -41 21.5 -63 q19.5 -22 56.5 -22 q74 0 79 85 l78 0 q0 -69 -42.5 -109 q-42.5 -40 -114.5 -40 ZM277 531 q88 0 144 -53.5 q56 -53.5 56 -152.5 l0 -325 l-75 0 q-3 51 -4 66 q-24 -38 -64.5 -57.5 q-40.5 -19.5 -92.5 -19.5 q-50 0 -93.5 18.5 q-43.5 18.5 -69.5 55 q-26 36.5 -26 87.5 q0 77 62.5 121.5 q62.5 44.5 161.5 44.5 q56 0 116 -15 l0 9 q0 73 -29.5 108.5 q-29.5 35.5 -89.5 35.5 q-48 0 -80 -20 q-32 -20 -54 -59 l-65 37 q24 54 78.5 86.5 q54.5 32.5 124.5 32.5 ZM392 230 q-63 16 -115 16 q-65 0 -100.5 -25 q-35.5 -25 -35.5 -70 q0 -42 30 -65.5 q30 -23.5 78 -23.5 q59 0 101 34.5 q42 34.5 42 95.5 l0 38 Z" /><glyph glyph-name="uni1EB5" unicode="&#x1eb5;" d="M218 838 q-29 0 -37 -53 l-70 0 q2 57 30 92 q28 35 73 35 q28 0 45 -10.5 q17 -10.5 36 -30.5 q13 -13 21 -19 q8 -6 18 -6 q15 0 24.5 15 q9.5 15 12.5 38 l70 0 q-2 -57 -30 -92 q-28 -35 -73 -35 q-28 0 -45 10.5 q-17 10.5 -36 30.5 q-13 13 -21 19 q-8 6 -18 6 ZM276 657 q74 0 79 88 l78 0 q0 -71 -42.5 -112.5 q-42.5 -41.5 -114.5 -41.5 q-71 0 -113.5 41.5 q-42.5 41.5 -42.5 112.5 l78 0 q2 -42 21.5 -65 q19.5 -23 56.5 -23 ZM277 531 q88 0 144 -53.5 q56 -53.5 56 -152.5 l0 -325 l-75 0 q-3 51 -4 66 q-24 -38 -64.5 -57.5 q-40.5 -19.5 -92.5 -19.5 q-50 0 -93.5 18.5 q-43.5 18.5 -69.5 55 q-26 36.5 -26 87.5 q0 77 62.5 121.5 q62.5 44.5 161.5 44.5 q56 0 116 -15 l0 9 q0 73 -29.5 108.5 q-29.5 35.5 -89.5 35.5 q-48 0 -80 -20 q-32 -20 -54 -59 l-65 37 q24 54 78.5 86.5 q54.5 32.5 124.5 32.5 ZM392 230 q-63 16 -115 16 q-65 0 -100.5 -25 q-35.5 -25 -35.5 -70 q0 -42 30 -65.5 q30 -23.5 78 -23.5 q59 0 101 34.5 q42 34.5 42 95.5 l0 38 Z" /><glyph glyph-name="uni01CE" unicode="&#x1ce;" d="M430 746 l-115 -154 l-79 0 l-115 154 l86 0 l69 -93 l68 93 l86 0 ZM277 531 q88 0 144 -53.5 q56 -53.5 56 -152.5 l0 -325 l-75 0 q-3 51 -4 66 q-24 -38 -64.5 -57.5 q-40.5 -19.5 -92.5 -19.5 q-50 0 -93.5 18.5 q-43.5 18.5 -69.5 55 q-26 36.5 -26 87.5 q0 77 62.5 121.5 q62.5 44.5 161.5 44.5 q56 0 116 -15 l0 9 q0 73 -29.5 108.5 q-29.5 35.5 -89.5 35.5 q-48 0 -80 -20 q-32 -20 -54 -59 l-65 37 q24 54 78.5 86.5 q54.5 32.5 124.5 32.5 ZM392 230 q-63 16 -115 16 q-65 0 -100.5 -25 q-35.5 -25 -35.5 -70 q0 -42 30 -65.5 q30 -23.5 78 -23.5 q59 0 101 34.5 q42 34.5 42 95.5 l0 38 Z" /><glyph glyph-name="acircumflex" unicode="â" d="M344 592 l-69 92 l-69 -92 l-86 0 l115 154 l80 0 l115 -154 l-86 0 ZM277 531 q88 0 144 -53.5 q56 -53.5 56 -152.5 l0 -325 l-75 0 q-3 51 -4 66 q-24 -38 -64.5 -57.5 q-40.5 -19.5 -92.5 -19.5 q-50 0 -93.5 18.5 q-43.5 18.5 -69.5 55 q-26 36.5 -26 87.5 q0 77 62.5 121.5 q62.5 44.5 161.5 44.5 q56 0 116 -15 l0 9 q0 73 -29.5 108.5 q-29.5 35.5 -89.5 35.5 q-48 0 -80 -20 q-32 -20 -54 -59 l-65 37 q24 54 78.5 86.5 q54.5 32.5 124.5 32.5 ZM392 230 q-63 16 -115 16 q-65 0 -100.5 -25 q-35.5 -25 -35.5 -70 q0 -42 30 -65.5 q30 -23.5 78 -23.5 q59 0 101 34.5 q42 34.5 42 95.5 l0 38 Z" /><glyph glyph-name="uni1EA5" unicode="&#x1ea5;" d="M414 902 l94 0 l-92 -137 l-75 0 l73 137 ZM342 592 l-68 93 l-69 -93 l-86 0 l115 154 l79 0 l115 -154 l-86 0 ZM277 531 q88 0 144 -53.5 q56 -53.5 56 -152.5 l0 -325 l-75 0 q-3 51 -4 66 q-24 -38 -64.5 -57.5 q-40.5 -19.5 -92.5 -19.5 q-50 0 -93.5 18.5 q-43.5 18.5 -69.5 55 q-26 36.5 -26 87.5 q0 77 62.5 121.5 q62.5 44.5 161.5 44.5 q56 0 116 -15 l0 9 q0 73 -29.5 108.5 q-29.5 35.5 -89.5 35.5 q-48 0 -80 -20 q-32 -20 -54 -59 l-65 37 q24 54 78.5 86.5 q54.5 32.5 124.5 32.5 ZM392 230 q-63 16 -115 16 q-65 0 -100.5 -25 q-35.5 -25 -35.5 -70 q0 -42 30 -65.5 q30 -23.5 78 -23.5 q59 0 101 34.5 q42 34.5 42 95.5 l0 38 Z" /><glyph glyph-name="uni1EAD" unicode="&#x1ead;" d="M344 592 l-69 92 l-69 -92 l-86 0 l115 154 l80 0 l115 -154 l-86 0 ZM277 531 q88 0 144 -53.5 q56 -53.5 56 -152.5 l0 -325 l-75 0 q-3 51 -4 66 q-24 -38 -64.5 -57.5 q-40.5 -19.5 -92.5 -19.5 q-50 0 -93.5 18.5 q-43.5 18.5 -69.5 55 q-26 36.5 -26 87.5 q0 77 62.5 121.5 q62.5 44.5 161.5 44.5 q56 0 116 -15 l0 9 q0 73 -29.5 108.5 q-29.5 35.5 -89.5 35.5 q-48 0 -80 -20 q-32 -20 -54 -59 l-65 37 q24 54 78.5 86.5 q54.5 32.5 124.5 32.5 ZM392 230 q-63 16 -115 16 q-65 0 -100.5 -25 q-35.5 -25 -35.5 -70 q0 -42 30 -65.5 q30 -23.5 78 -23.5 q59 0 101 34.5 q42 34.5 42 95.5 l0 38 ZM285 -72 q24 0 40.5 -17 q16.5 -17 16.5 -41 q0 -23 -17 -40.5 q-17 -17.5 -40 -17.5 q-23 0 -39.5 17.5 q-16.5 17.5 -16.5 40.5 q0 23 16.5 40.5 q16.5 17.5 39.5 17.5 Z" /><glyph glyph-name="uni1EA7" unicode="&#x1ea7;" d="M356 902 l73 -137 l-75 0 l-92 137 l94 0 ZM342 592 l-68 93 l-69 -93 l-86 0 l115 154 l79 0 l115 -154 l-86 0 ZM277 531 q88 0 144 -53.5 q56 -53.5 56 -152.5 l0 -325 l-75 0 q-3 51 -4 66 q-24 -38 -64.5 -57.5 q-40.5 -19.5 -92.5 -19.5 q-50 0 -93.5 18.5 q-43.5 18.5 -69.5 55 q-26 36.5 -26 87.5 q0 77 62.5 121.5 q62.5 44.5 161.5 44.5 q56 0 116 -15 l0 9 q0 73 -29.5 108.5 q-29.5 35.5 -89.5 35.5 q-48 0 -80 -20 q-32 -20 -54 -59 l-65 37 q24 54 78.5 86.5 q54.5 32.5 124.5 32.5 ZM392 230 q-63 16 -115 16 q-65 0 -100.5 -25 q-35.5 -25 -35.5 -70 q0 -42 30 -65.5 q30 -23.5 78 -23.5 q59 0 101 34.5 q42 34.5 42 95.5 l0 38 Z" /><glyph glyph-name="uni1EA9" unicode="&#x1ea9;" d="M367 860 q-25 0 -52 -16 l-11 56 q32 20 77 20 q45 0 74.5 -22 q29.5 -22 29.5 -65 q0 -75 -96 -108 l-36 47 q29 11 44 23 q15 12 15 29 q0 16 -12.5 26 q-12.5 10 -32.5 10 ZM342 592 l-68 93 l-69 -93 l-86 0 l115 154 l79 0 l115 -154 l-86 0 ZM277 531 q88 0 144 -53.5 q56 -53.5 56 -152.5 l0 -325 l-75 0 q-3 51 -4 66 q-24 -38 -64.5 -57.5 q-40.5 -19.5 -92.5 -19.5 q-50 0 -93.5 18.5 q-43.5 18.5 -69.5 55 q-26 36.5 -26 87.5 q0 77 62.5 121.5 q62.5 44.5 161.5 44.5 q56 0 116 -15 l0 9 q0 73 -29.5 108.5 q-29.5 35.5 -89.5 35.5 q-48 0 -80 -20 q-32 -20 -54 -59 l-65 37 q24 54 78.5 86.5 q54.5 32.5 124.5 32.5 ZM392 230 q-63 16 -115 16 q-65 0 -100.5 -25 q-35.5 -25 -35.5 -70 q0 -42 30 -65.5 q30 -23.5 78 -23.5 q59 0 101 34.5 q42 34.5 42 95.5 l0 38 Z" /><glyph glyph-name="uni1EAB" unicode="&#x1eab;" d="M216 838 q-29 0 -37 -53 l-70 0 q2 57 30 92 q28 35 73 35 q28 0 45 -10.5 q17 -10.5 36 -30.5 q13 -13 21 -19 q8 -6 18 -6 q15 0 24.5 15 q9.5 15 12.5 38 l70 0 q-2 -57 -30 -92 q-28 -35 -73 -35 q-28 0 -45 10.5 q-17 10.5 -36 30.5 q-13 13 -21 19 q-8 6 -18 6 ZM118 592 l115 154 l79 0 l115 -154 l-86 0 l-68 93 l-69 -93 l-86 0 ZM277 531 q88 0 144 -53.5 q56 -53.5 56 -152.5 l0 -325 l-75 0 q-3 51 -4 66 q-24 -38 -64.5 -57.5 q-40.5 -19.5 -92.5 -19.5 q-50 0 -93.5 18.5 q-43.5 18.5 -69.5 55 q-26 36.5 -26 87.5 q0 77 62.5 121.5 q62.5 44.5 161.5 44.5 q56 0 116 -15 l0 9 q0 73 -29.5 108.5 q-29.5 35.5 -89.5 35.5 q-48 0 -80 -20 q-32 -20 -54 -59 l-65 37 q24 54 78.5 86.5 q54.5 32.5 124.5 32.5 ZM392 230 q-63 16 -115 16 q-65 0 -100.5 -25 q-35.5 -25 -35.5 -70 q0 -42 30 -65.5 q30 -23.5 78 -23.5 q59 0 101 34.5 q42 34.5 42 95.5 l0 38 Z" /><glyph glyph-name="adieresis" unicode="ä" d="M173 611 q-23 0 -39.5 17 q-16.5 17 -16.5 41 q0 24 16.5 41 q16.5 17 39.5 17 q24 0 40.5 -17 q16.5 -17 16.5 -41 q0 -24 -16.5 -41 q-16.5 -17 -40.5 -17 ZM378 611 q-23 0 -39.5 17 q-16.5 17 -16.5 41 q0 24 16.5 41 q16.5 17 39.5 17 q24 0 40.5 -17 q16.5 -17 16.5 -41 q0 -24 -16.5 -41 q-16.5 -17 -40.5 -17 ZM277 531 q88 0 144 -53.5 q56 -53.5 56 -152.5 l0 -325 l-75 0 q-3 51 -4 66 q-24 -38 -64.5 -57.5 q-40.5 -19.5 -92.5 -19.5 q-50 0 -93.5 18.5 q-43.5 18.5 -69.5 55 q-26 36.5 -26 87.5 q0 77 62.5 121.5 q62.5 44.5 161.5 44.5 q56 0 116 -15 l0 9 q0 73 -29.5 108.5 q-29.5 35.5 -89.5 35.5 q-48 0 -80 -20 q-32 -20 -54 -59 l-65 37 q24 54 78.5 86.5 q54.5 32.5 124.5 32.5 ZM392 230 q-63 16 -115 16 q-65 0 -100.5 -25 q-35.5 -25 -35.5 -70 q0 -42 30 -65.5 q30 -23.5 78 -23.5 q59 0 101 34.5 q42 34.5 42 95.5 l0 38 Z" /><glyph glyph-name="uni1EA1" unicode="&#x1ea1;" d="M277 531 q88 0 144 -53.5 q56 -53.5 56 -152.5 l0 -325 l-75 0 q-3 51 -4 66 q-24 -38 -64.5 -57.5 q-40.5 -19.5 -92.5 -19.5 q-50 0 -93.5 18.5 q-43.5 18.5 -69.5 55 q-26 36.5 -26 87.5 q0 77 62.5 121.5 q62.5 44.5 161.5 44.5 q56 0 116 -15 l0 9 q0 73 -29.5 108.5 q-29.5 35.5 -89.5 35.5 q-48 0 -80 -20 q-32 -20 -54 -59 l-65 37 q24 54 78.5 86.5 q54.5 32.5 124.5 32.5 ZM392 230 q-63 16 -115 16 q-65 0 -100.5 -25 q-35.5 -25 -35.5 -70 q0 -42 30 -65.5 q30 -23.5 78 -23.5 q59 0 101 34.5 q42 34.5 42 95.5 l0 38 ZM285 -72 q24 0 40.5 -17 q16.5 -17 16.5 -41 q0 -23 -17 -40.5 q-17 -17.5 -40 -17.5 q-23 0 -39.5 17.5 q-16.5 17.5 -16.5 40.5 q0 23 16.5 40.5 q16.5 17.5 39.5 17.5 Z" /><glyph glyph-name="agrave" unicode="à" d="M238 746 l82 -154 l-75 0 l-101 154 l94 0 ZM277 531 q88 0 144 -53.5 q56 -53.5 56 -152.5 l0 -325 l-75 0 q-3 51 -4 66 q-24 -38 -64.5 -57.5 q-40.5 -19.5 -92.5 -19.5 q-50 0 -93.5 18.5 q-43.5 18.5 -69.5 55 q-26 36.5 -26 87.5 q0 77 62.5 121.5 q62.5 44.5 161.5 44.5 q56 0 116 -15 l0 9 q0 73 -29.5 108.5 q-29.5 35.5 -89.5 35.5 q-48 0 -80 -20 q-32 -20 -54 -59 l-65 37 q24 54 78.5 86.5 q54.5 32.5 124.5 32.5 ZM392 230 q-63 16 -115 16 q-65 0 -100.5 -25 q-35.5 -25 -35.5 -70 q0 -42 30 -65.5 q30 -23.5 78 -23.5 q59 0 101 34.5 q42 34.5 42 95.5 l0 38 Z" /><glyph glyph-name="uni1EA3" unicode="&#x1ea3;" d="M249 707 q-25 0 -52 -16 l-11 56 q32 20 77 20 q45 0 74.5 -22 q29.5 -22 29.5 -65 q0 -75 -96 -108 l-36 47 q29 11 44 23 q15 12 15 29 q0 16 -12.5 26 q-12.5 10 -32.5 10 ZM277 531 q88 0 144 -53.5 q56 -53.5 56 -152.5 l0 -325 l-75 0 q-3 51 -4 66 q-24 -38 -64.5 -57.5 q-40.5 -19.5 -92.5 -19.5 q-50 0 -93.5 18.5 q-43.5 18.5 -69.5 55 q-26 36.5 -26 87.5 q0 77 62.5 121.5 q62.5 44.5 161.5 44.5 q56 0 116 -15 l0 9 q0 73 -29.5 108.5 q-29.5 35.5 -89.5 35.5 q-48 0 -80 -20 q-32 -20 -54 -59 l-65 37 q24 54 78.5 86.5 q54.5 32.5 124.5 32.5 ZM392 230 q-63 16 -115 16 q-65 0 -100.5 -25 q-35.5 -25 -35.5 -70 q0 -42 30 -65.5 q30 -23.5 78 -23.5 q59 0 101 34.5 q42 34.5 42 95.5 l0 38 Z" /><glyph glyph-name="uni0251" unicode="&#x251;" d="M530 520 l0 -520 l-75 0 q-2 52 -6 88 q-28 -50 -74.5 -74.5 q-46.5 -24.5 -98.5 -24.5 q-60 0 -112.5 32 q-52.5 32 -84.5 93.5 q-32 61.5 -32 145.5 q0 83 32 144.5 q32 61.5 84.5 94 q52.5 32.5 112.5 32.5 q52 0 98.5 -25 q46.5 -25 74.5 -74 q4 36 6 88 l75 0 ZM286 69 q65 0 112 46 q47 46 47 145 q0 98 -47 144 q-47 46 -112 46 q-68 0 -109 -50 q-41 -50 -41 -140 q0 -91 41 -141 q41 -50 109 -50 Z" /><glyph glyph-name="amacron" unicode="&#x101;" d="M116 706 l320 0 l0 -74 l-320 0 l0 74 ZM277 531 q88 0 144 -53.5 q56 -53.5 56 -152.5 l0 -325 l-75 0 q-3 51 -4 66 q-24 -38 -64.5 -57.5 q-40.5 -19.5 -92.5 -19.5 q-50 0 -93.5 18.5 q-43.5 18.5 -69.5 55 q-26 36.5 -26 87.5 q0 77 62.5 121.5 q62.5 44.5 161.5 44.5 q56 0 116 -15 l0 9 q0 73 -29.5 108.5 q-29.5 35.5 -89.5 35.5 q-48 0 -80 -20 q-32 -20 -54 -59 l-65 37 q24 54 78.5 86.5 q54.5 32.5 124.5 32.5 ZM392 230 q-63 16 -115 16 q-65 0 -100.5 -25 q-35.5 -25 -35.5 -70 q0 -42 30 -65.5 q30 -23.5 78 -23.5 q59 0 101 34.5 q42 34.5 42 95.5 l0 38 Z" /><glyph glyph-name="aogonek" unicode="&#x105;" d="M532 -193 q-19 -24 -48 -37.5 q-29 -13.5 -64 -13.5 q-52 0 -89 29 q-37 29 -37 83 q0 47 29.5 83 q29.5 36 77.5 65 l-3 50 q-24 -38 -64.5 -57.5 q-40.5 -19.5 -92.5 -19.5 q-50 0 -93.5 18.5 q-43.5 18.5 -69.5 55 q-26 36.5 -26 87.5 q0 77 62.5 121.5 q62.5 44.5 161.5 44.5 q56 0 116 -15 l0 9 q0 73 -29.5 108.5 q-29.5 35.5 -89.5 35.5 q-48 0 -80 -20 q-32 -20 -54 -59 l-65 37 q24 54 78.5 86.5 q54.5 32.5 124.5 32.5 q88 0 144 -53.5 q56 -53.5 56 -152.5 l0 -325 q-57 -32 -83.5 -61 q-26.5 -29 -26.5 -63 q0 -28 15.5 -41.5 q15.5 -13.5 41.5 -13.5 q41 0 75 34 l33 -48 ZM392 230 q-63 16 -115 16 q-65 0 -100.5 -25 q-35.5 -25 -35.5 -70 q0 -42 30 -65.5 q30 -23.5 78 -23.5 q59 0 101 34.5 q42 34.5 42 95.5 l0 38 Z" /><glyph glyph-name="aring" unicode="å" d="M276 581 q-46 0 -77 30 q-31 30 -31 76 q0 46 31 76 q31 30 77 30 q45 0 75 -30 q30 -30 30 -76 q0 -46 -30 -76 q-30 -30 -75 -30 ZM276 741 q-23 0 -37 -15 q-14 -15 -14 -39 q0 -24 14 -39 q14 -15 37 -15 q22 0 35.5 15 q13.5 15 13.5 39 q0 24 -13.5 39 q-13.5 15 -35.5 15 ZM277 531 q88 0 144 -53.5 q56 -53.5 56 -152.5 l0 -325 l-75 0 q-3 51 -4 66 q-24 -38 -64.5 -57.5 q-40.5 -19.5 -92.5 -19.5 q-50 0 -93.5 18.5 q-43.5 18.5 -69.5 55 q-26 36.5 -26 87.5 q0 77 62.5 121.5 q62.5 44.5 161.5 44.5 q56 0 116 -15 l0 9 q0 73 -29.5 108.5 q-29.5 35.5 -89.5 35.5 q-48 0 -80 -20 q-32 -20 -54 -59 l-65 37 q24 54 78.5 86.5 q54.5 32.5 124.5 32.5 ZM392 230 q-63 16 -115 16 q-65 0 -100.5 -25 q-35.5 -25 -35.5 -70 q0 -42 30 -65.5 q30 -23.5 78 -23.5 q59 0 101 34.5 q42 34.5 42 95.5 l0 38 Z" /><glyph glyph-name="aringacute" unicode="&#x1fb;" d="M314 928 l94 0 l-101 -120 l-75 0 l82 120 ZM276 576 q-42 0 -69.5 26 q-27.5 26 -27.5 68 q0 40 27.5 66 q27.5 26 69.5 26 q41 0 67.5 -26 q26.5 -26 26.5 -66 q0 -42 -26.5 -68 q-26.5 -26 -67.5 -26 ZM276 717 q-21 0 -33.5 -13 q-12.5 -13 -12.5 -34 q0 -21 12.5 -35 q12.5 -14 33.5 -14 q20 0 32 14 q12 14 12 35 q0 21 -12 34 q-12 13 -32 13 ZM277 531 q88 0 144 -53.5 q56 -53.5 56 -152.5 l0 -325 l-75 0 q-3 51 -4 66 q-24 -38 -64.5 -57.5 q-40.5 -19.5 -92.5 -19.5 q-50 0 -93.5 18.5 q-43.5 18.5 -69.5 55 q-26 36.5 -26 87.5 q0 77 62.5 121.5 q62.5 44.5 161.5 44.5 q56 0 116 -15 l0 9 q0 73 -29.5 108.5 q-29.5 35.5 -89.5 35.5 q-48 0 -80 -20 q-32 -20 -54 -59 l-65 37 q24 54 78.5 86.5 q54.5 32.5 124.5 32.5 ZM392 230 q-63 16 -115 16 q-65 0 -100.5 -25 q-35.5 -25 -35.5 -70 q0 -42 30 -65.5 q30 -23.5 78 -23.5 q59 0 101 34.5 q42 34.5 42 95.5 l0 38 Z" /><glyph glyph-name="uni1E01" unicode="&#x1e01;" d="M277 531 q88 0 144 -53.5 q56 -53.5 56 -152.5 l0 -325 l-75 0 q-3 51 -4 66 q-24 -38 -64.5 -57.5 q-40.5 -19.5 -92.5 -19.5 q-50 0 -93.5 18.5 q-43.5 18.5 -69.5 55 q-26 36.5 -26 87.5 q0 77 62.5 121.5 q62.5 44.5 161.5 44.5 q56 0 116 -15 l0 9 q0 73 -29.5 108.5 q-29.5 35.5 -89.5 35.5 q-48 0 -80 -20 q-32 -20 -54 -59 l-65 37 q24 54 78.5 86.5 q54.5 32.5 124.5 32.5 ZM392 230 q-63 16 -115 16 q-65 0 -100.5 -25 q-35.5 -25 -35.5 -70 q0 -42 30 -65.5 q30 -23.5 78 -23.5 q59 0 101 34.5 q42 34.5 42 95.5 l0 38 ZM285 -38 q45 0 75 -29 q30 -29 30 -74 q0 -45 -30 -74 q-30 -29 -75 -29 q-46 0 -77 29 q-31 29 -31 74 q0 45 31 74 q31 29 77 29 ZM285 -193 q22 0 35.5 14.5 q13.5 14.5 13.5 37.5 q0 23 -13.5 37.5 q-13.5 14.5 -35.5 14.5 q-23 0 -37 -14.5 q-14 -14.5 -14 -37.5 q0 -23 14 -37.5 q14 -14.5 37 -14.5 Z" /><glyph glyph-name="atilde" unicode="ã" d="M218 665 q-29 0 -37 -53 l-70 0 q2 57 30 92 q28 35 73 35 q28 0 45 -10.5 q17 -10.5 36 -30.5 q13 -13 21 -19 q8 -6 18 -6 q15 0 24.5 15 q9.5 15 12.5 38 l70 0 q-2 -57 -30 -92 q-28 -35 -73 -35 q-28 0 -45 10.5 q-17 10.5 -36 30.5 q-13 13 -21 19 q-8 6 -18 6 ZM277 531 q88 0 144 -53.5 q56 -53.5 56 -152.5 l0 -325 l-75 0 q-3 51 -4 66 q-24 -38 -64.5 -57.5 q-40.5 -19.5 -92.5 -19.5 q-50 0 -93.5 18.5 q-43.5 18.5 -69.5 55 q-26 36.5 -26 87.5 q0 77 62.5 121.5 q62.5 44.5 161.5 44.5 q56 0 116 -15 l0 9 q0 73 -29.5 108.5 q-29.5 35.5 -89.5 35.5 q-48 0 -80 -20 q-32 -20 -54 -59 l-65 37 q24 54 78.5 86.5 q54.5 32.5 124.5 32.5 ZM392 230 q-63 16 -115 16 q-65 0 -100.5 -25 q-35.5 -25 -35.5 -70 q0 -42 30 -65.5 q30 -23.5 78 -23.5 q59 0 101 34.5 q42 34.5 42 95.5 l0 38 Z" /><glyph glyph-name="ae" unicode="æ" d="M640 531 q67 0 117.5 -31.5 q50.5 -31.5 77.5 -85.5 q27 -54 27 -120 q0 -28 -4 -51 l-374 0 q5 -89 51 -132.5 q46 -43.5 116 -43.5 q87 0 126 70 l65 -37 q-20 -53 -74.5 -82 q-54.5 -29 -121.5 -29 q-65 0 -117.5 28 q-52.5 28 -83.5 81 q-21 -53 -72.5 -81 q-51.5 -28 -121.5 -28 q-85 0 -142 42.5 q-57 42.5 -57 118.5 q0 77 62 121.5 q62 44.5 164 44.5 q57 0 120 -15 q0 75 -31 114 q-31 39 -97 39 q-46 0 -78 -20 q-32 -20 -53 -61 l-65 37 q24 56 77.5 88.5 q53.5 32.5 123.5 32.5 q62 0 107 -26 q45 -26 68 -75 q31 49 80.5 75 q49.5 26 109.5 26 ZM770 312 q-3 67 -39 104 q-36 37 -94 37 q-56 0 -97.5 -36 q-41.5 -36 -52.5 -105 l283 0 ZM398 230 q-71 17 -121 17 q-66 0 -101 -25.5 q-35 -25.5 -35 -70.5 q0 -42 31 -65.5 q31 -23.5 82 -23.5 q62 0 103 34 q41 34 41 96 l0 38 Z" /><glyph glyph-name="aeacute" unicode="&#x1fd;" d="M493 746 l94 0 l-101 -154 l-75 0 l82 154 ZM640 531 q67 0 117.5 -31.5 q50.5 -31.5 77.5 -85.5 q27 -54 27 -120 q0 -28 -4 -51 l-374 0 q5 -89 51 -132.5 q46 -43.5 116 -43.5 q87 0 126 70 l65 -37 q-20 -53 -74.5 -82 q-54.5 -29 -121.5 -29 q-65 0 -117.5 28 q-52.5 28 -83.5 81 q-21 -53 -72.5 -81 q-51.5 -28 -121.5 -28 q-85 0 -142 42.5 q-57 42.5 -57 118.5 q0 77 62 121.5 q62 44.5 164 44.5 q57 0 120 -15 q0 75 -31 114 q-31 39 -97 39 q-46 0 -78 -20 q-32 -20 -53 -61 l-65 37 q24 56 77.5 88.5 q53.5 32.5 123.5 32.5 q62 0 107 -26 q45 -26 68 -75 q31 49 80.5 75 q49.5 26 109.5 26 ZM770 312 q-3 67 -39 104 q-36 37 -94 37 q-56 0 -97.5 -36 q-41.5 -36 -52.5 -105 l283 0 ZM398 230 q-71 17 -121 17 q-66 0 -101 -25.5 q-35 -25.5 -35 -70.5 q0 -42 31 -65.5 q31 -23.5 82 -23.5 q62 0 103 34 q41 34 41 96 l0 38 Z" /><glyph glyph-name="b" unicode="b" d="M332 531 q59 0 111.5 -32.5 q52.5 -32.5 84.5 -94 q32 -61.5 32 -144.5 q0 -84 -32 -145.5 q-32 -61.5 -84.5 -93.5 q-52.5 -32 -111.5 -32 q-52 0 -99 25 q-47 25 -75 75 q-4 -43 -6 -89 l-75 0 l0 761 l85 0 l0 -323 q29 46 74 69.5 q45 23.5 96 23.5 ZM321 69 q68 0 109 50 q41 50 41 141 q0 90 -41 140 q-41 50 -109 50 q-65 0 -112 -46 q-47 -46 -47 -144 q0 -67 23 -110 q23 -43 59 -62 q36 -19 77 -19 Z" /><glyph glyph-name="c" unicode="c" d="M295 69 q76 0 119 68 l67 -39 q-28 -55 -75.5 -82 q-47.5 -27 -108.5 -27 q-70 0 -127 34 q-57 34 -90 95.5 q-33 61.5 -33 141.5 q0 80 33 141.5 q33 61.5 90 95.5 q57 34 127 34 q61 0 108.5 -27 q47.5 -27 75.5 -82 l-67 -39 q-43 68 -119 68 q-70 0 -114 -51 q-44 -51 -44 -140 q0 -89 44 -140 q44 -51 114 -51 Z" /><glyph glyph-name="cacute" unicode="&#x107;" d="M243 593 l82 154 l94 0 l-101 -154 l-75 0 ZM295 69 q76 0 119 68 l67 -39 q-28 -55 -75.5 -82 q-47.5 -27 -108.5 -27 q-70 0 -127 34 q-57 34 -90 95.5 q-33 61.5 -33 141.5 q0 80 33 141.5 q33 61.5 90 95.5 q57 34 127 34 q61 0 108.5 -27 q47.5 -27 75.5 -82 l-67 -39 q-43 68 -119 68 q-70 0 -114 -51 q-44 -51 -44 -140 q0 -89 44 -140 q44 -51 114 -51 Z" /><glyph glyph-name="ccaron" unicode="&#x10d;" d="M218 747 l69 -93 l68 93 l86 0 l-115 -154 l-79 0 l-115 154 l86 0 ZM295 69 q76 0 119 68 l67 -39 q-28 -55 -75.5 -82 q-47.5 -27 -108.5 -27 q-70 0 -127 34 q-57 34 -90 95.5 q-33 61.5 -33 141.5 q0 80 33 141.5 q33 61.5 90 95.5 q57 34 127 34 q61 0 108.5 -27 q47.5 -27 75.5 -82 l-67 -39 q-43 68 -119 68 q-70 0 -114 -51 q-44 -51 -44 -140 q0 -89 44 -140 q44 -51 114 -51 Z" /><glyph glyph-name="ccedilla" unicode="ç" d="M295 69 q76 0 119 68 l67 -39 q-25 -49 -65.5 -76 q-40.5 -27 -92.5 -32 l-19 -47 q48 1 80 -22 q32 -23 32 -66 q0 -48 -38.5 -73.5 q-38.5 -25.5 -96.5 -25.5 q-31 0 -77 11 l0 62 q38 -12 71 -12 q68 0 68 35 q0 18 -18.5 27.5 q-18.5 9.5 -49.5 9.5 q-19 0 -47 -5 l-6 39 l28 70 q-59 11 -105 47 q-46 36 -72 93 q-26 57 -26 127 q0 80 33 141.5 q33 61.5 90 95.5 q57 34 127 34 q61 0 108.5 -27 q47.5 -27 75.5 -82 l-67 -39 q-43 68 -119 68 q-70 0 -114 -51 q-44 -51 -44 -140 q0 -89 44 -140 q44 -51 114 -51 Z" /><glyph glyph-name="ccircumflex" unicode="&#x109;" d="M246 747 l80 0 l115 -154 l-86 0 l-69 92 l-69 -92 l-86 0 l115 154 ZM295 69 q76 0 119 68 l67 -39 q-28 -55 -75.5 -82 q-47.5 -27 -108.5 -27 q-70 0 -127 34 q-57 34 -90 95.5 q-33 61.5 -33 141.5 q0 80 33 141.5 q33 61.5 90 95.5 q57 34 127 34 q61 0 108.5 -27 q47.5 -27 75.5 -82 l-67 -39 q-43 68 -119 68 q-70 0 -114 -51 q-44 -51 -44 -140 q0 -89 44 -140 q44 -51 114 -51 Z" /><glyph glyph-name="cdotaccent" unicode="&#x10b;" d="M287 612 q-23 0 -39.5 17.5 q-16.5 17.5 -16.5 40.5 q0 23 16.5 40.5 q16.5 17.5 39.5 17.5 q24 0 40.5 -17 q16.5 -17 16.5 -41 q0 -23 -17 -40.5 q-17 -17.5 -40 -17.5 ZM295 69 q76 0 119 68 l67 -39 q-28 -55 -75.5 -82 q-47.5 -27 -108.5 -27 q-70 0 -127 34 q-57 34 -90 95.5 q-33 61.5 -33 141.5 q0 80 33 141.5 q33 61.5 90 95.5 q57 34 127 34 q61 0 108.5 -27 q47.5 -27 75.5 -82 l-67 -39 q-43 68 -119 68 q-70 0 -114 -51 q-44 -51 -44 -140 q0 -89 44 -140 q44 -51 114 -51 Z" /><glyph glyph-name="d" unicode="d" d="M445 761 l85 0 l0 -761 l-75 0 q-2 52 -6 88 q-28 -50 -74.5 -74.5 q-46.5 -24.5 -98.5 -24.5 q-60 0 -112.5 32 q-52.5 32 -84.5 93.5 q-32 61.5 -32 145.5 q0 83 32 144.5 q32 61.5 84.5 94 q52.5 32.5 112.5 32.5 q50 0 95 -23 q45 -23 74 -69 l0 322 ZM286 69 q65 0 112 46 q47 46 47 145 q0 98 -47 144 q-47 46 -112 46 q-68 0 -109 -50 q-41 -50 -41 -140 q0 -91 41 -141 q41 -50 109 -50 Z" /><glyph glyph-name="eth" unicode="ð" d="M376 650 q81 -75 124.5 -171.5 q43.5 -96.5 43.5 -194.5 q0 -86 -32.5 -153.5 q-32.5 -67.5 -89 -104.5 q-56.5 -37 -126.5 -37 q-71 0 -127.5 35 q-56.5 35 -89 97 q-32.5 62 -32.5 140 q0 78 34 140 q34 62 90.5 96.5 q56.5 34.5 120.5 34.5 q33 0 62 -10 q29 -10 50 -27 q-37 63 -102 115 l-137 -74 l-33 64 l103 56 q-48 30 -105 51 l44 65 q71 -26 140 -72 l132 72 l35 -65 l-105 -57 ZM296 69 q71 0 114.5 52.5 q43.5 52.5 43.5 139.5 q0 87 -43.5 139 q-43.5 52 -114.5 52 q-71 0 -115 -52.5 q-44 -52.5 -44 -138.5 q0 -87 44 -139.5 q44 -52.5 115 -52.5 Z" /><glyph glyph-name="dcaron" unicode="&#x10f;" d="M632 772 q25 0 41 -19 q16 -19 16 -57 q0 -50 -31 -82.5 q-31 -32.5 -82 -41.5 l0 41 q56 17 62 59 l-7 0 q-21 0 -33.5 14.5 q-12.5 14.5 -12.5 35.5 q0 21 13 35.5 q13 14.5 34 14.5 ZM445 761 l85 0 l0 -761 l-75 0 q-2 52 -6 88 q-28 -50 -74.5 -74.5 q-46.5 -24.5 -98.5 -24.5 q-60 0 -112.5 32 q-52.5 32 -84.5 93.5 q-32 61.5 -32 145.5 q0 83 32 144.5 q32 61.5 84.5 94 q52.5 32.5 112.5 32.5 q50 0 95 -23 q45 -23 74 -69 l0 322 ZM286 69 q65 0 112 46 q47 46 47 145 q0 98 -47 144 q-47 46 -112 46 q-68 0 -109 -50 q-41 -50 -41 -140 q0 -91 41 -141 q41 -50 109 -50 Z" /><glyph glyph-name="dcroat" unicode="&#x111;" d="M530 670 l76 0 l0 -72 l-76 0 l0 -598 l-75 0 q-2 52 -6 88 q-28 -50 -74.5 -74.5 q-46.5 -24.5 -98.5 -24.5 q-60 0 -112.5 32 q-52.5 32 -84.5 93.5 q-32 61.5 -32 145.5 q0 83 32 144.5 q32 61.5 84.5 94 q52.5 32.5 112.5 32.5 q50 0 95 -23 q45 -23 74 -69 l0 159 l-140 0 l0 72 l140 0 l0 91 l85 0 l0 -91 ZM286 69 q65 0 112 46 q47 46 47 145 q0 98 -47 144 q-47 46 -112 46 q-68 0 -109 -50 q-41 -50 -41 -140 q0 -91 41 -141 q41 -50 109 -50 Z" /><glyph glyph-name="e" unicode="e" d="M293 531 q67 0 117.5 -31.5 q50.5 -31.5 77.5 -85.5 q27 -54 27 -120 q0 -28 -4 -51 l-374 0 q5 -89 51 -132.5 q46 -43.5 116 -43.5 q87 0 126 70 l65 -37 q-20 -53 -74.5 -82 q-54.5 -29 -121.5 -29 q-70 0 -127.5 32 q-57.5 32 -91 93.5 q-33.5 61.5 -33.5 147.5 q0 83 33.5 144 q33.5 61 89.5 93 q56 32 123 32 ZM290 453 q-56 0 -97.5 -36 q-41.5 -36 -52.5 -105 l283 0 q-3 67 -39 104 q-36 37 -94 37 Z" /><glyph glyph-name="eacute" unicode="é" d="M249 592 l82 154 l94 0 l-101 -154 l-75 0 ZM293 531 q67 0 117.5 -31.5 q50.5 -31.5 77.5 -85.5 q27 -54 27 -120 q0 -28 -4 -51 l-374 0 q5 -89 51 -132.5 q46 -43.5 116 -43.5 q87 0 126 70 l65 -37 q-20 -53 -74.5 -82 q-54.5 -29 -121.5 -29 q-70 0 -127.5 32 q-57.5 32 -91 93.5 q-33.5 61.5 -33.5 147.5 q0 83 33.5 144 q33.5 61 89.5 93 q56 32 123 32 ZM290 453 q-56 0 -97.5 -36 q-41.5 -36 -52.5 -105 l283 0 q-3 67 -39 104 q-36 37 -94 37 Z" /><glyph glyph-name="ebreve" unicode="&#x115;" d="M293 591 q-71 0 -113.5 41.5 q-42.5 41.5 -42.5 112.5 l78 0 q2 -42 21.5 -65 q19.5 -23 56.5 -23 q74 0 79 88 l78 0 q0 -71 -42.5 -112.5 q-42.5 -41.5 -114.5 -41.5 ZM293 531 q67 0 117.5 -31.5 q50.5 -31.5 77.5 -85.5 q27 -54 27 -120 q0 -28 -4 -51 l-374 0 q5 -89 51 -132.5 q46 -43.5 116 -43.5 q87 0 126 70 l65 -37 q-20 -53 -74.5 -82 q-54.5 -29 -121.5 -29 q-70 0 -127.5 32 q-57.5 32 -91 93.5 q-33.5 61.5 -33.5 147.5 q0 83 33.5 144 q33.5 61 89.5 93 q56 32 123 32 ZM290 453 q-56 0 -97.5 -36 q-41.5 -36 -52.5 -105 l283 0 q-3 67 -39 104 q-36 37 -94 37 Z" /><glyph glyph-name="ecaron" unicode="&#x11b;" d="M224 746 l69 -93 l68 93 l86 0 l-115 -154 l-79 0 l-115 154 l86 0 ZM293 531 q67 0 117.5 -31.5 q50.5 -31.5 77.5 -85.5 q27 -54 27 -120 q0 -28 -4 -51 l-374 0 q5 -89 51 -132.5 q46 -43.5 116 -43.5 q87 0 126 70 l65 -37 q-20 -53 -74.5 -82 q-54.5 -29 -121.5 -29 q-70 0 -127.5 32 q-57.5 32 -91 93.5 q-33.5 61.5 -33.5 147.5 q0 83 33.5 144 q33.5 61 89.5 93 q56 32 123 32 ZM290 453 q-56 0 -97.5 -36 q-41.5 -36 -52.5 -105 l283 0 q-3 67 -39 104 q-36 37 -94 37 Z" /><glyph glyph-name="ecircumflex" unicode="ê" d="M252 746 l80 0 l115 -154 l-86 0 l-69 92 l-69 -92 l-86 0 l115 154 ZM293 531 q67 0 117.5 -31.5 q50.5 -31.5 77.5 -85.5 q27 -54 27 -120 q0 -28 -4 -51 l-374 0 q5 -89 51 -132.5 q46 -43.5 116 -43.5 q87 0 126 70 l65 -37 q-20 -53 -74.5 -82 q-54.5 -29 -121.5 -29 q-70 0 -127.5 32 q-57.5 32 -91 93.5 q-33.5 61.5 -33.5 147.5 q0 83 33.5 144 q33.5 61 89.5 93 q56 32 123 32 ZM290 453 q-56 0 -97.5 -36 q-41.5 -36 -52.5 -105 l283 0 q-3 67 -39 104 q-36 37 -94 37 Z" /><glyph glyph-name="uni1EBF" unicode="&#x1ebf;" d="M358 765 l82 154 l94 0 l-101 -154 l-75 0 ZM251 746 l79 0 l115 -154 l-86 0 l-68 93 l-69 -93 l-86 0 l115 154 ZM293 531 q67 0 117.5 -31.5 q50.5 -31.5 77.5 -85.5 q27 -54 27 -120 q0 -28 -4 -51 l-374 0 q5 -89 51 -132.5 q46 -43.5 116 -43.5 q87 0 126 70 l65 -37 q-20 -53 -74.5 -82 q-54.5 -29 -121.5 -29 q-70 0 -127.5 32 q-57.5 32 -91 93.5 q-33.5 61.5 -33.5 147.5 q0 83 33.5 144 q33.5 61 89.5 93 q56 32 123 32 ZM290 453 q-56 0 -97.5 -36 q-41.5 -36 -52.5 -105 l283 0 q-3 67 -39 104 q-36 37 -94 37 Z" /><glyph glyph-name="uni1EC7" unicode="&#x1ec7;" d="M252 746 l80 0 l115 -154 l-86 0 l-69 92 l-69 -92 l-86 0 l115 154 ZM293 531 q67 0 117.5 -31.5 q50.5 -31.5 77.5 -85.5 q27 -54 27 -120 q0 -28 -4 -51 l-374 0 q5 -89 51 -132.5 q46 -43.5 116 -43.5 q87 0 126 70 l65 -37 q-20 -53 -74.5 -82 q-54.5 -29 -121.5 -29 q-70 0 -127.5 32 q-57.5 32 -91 93.5 q-33.5 61.5 -33.5 147.5 q0 83 33.5 144 q33.5 61 89.5 93 q56 32 123 32 ZM290 453 q-56 0 -97.5 -36 q-41.5 -36 -52.5 -105 l283 0 q-3 67 -39 104 q-36 37 -94 37 ZM298 -188 q-23 0 -39.5 17.5 q-16.5 17.5 -16.5 40.5 q0 23 16.5 40.5 q16.5 17.5 39.5 17.5 q24 0 40.5 -17 q16.5 -17 16.5 -41 q0 -23 -17 -40.5 q-17 -17.5 -40 -17.5 Z" /><glyph glyph-name="uni1EC1" unicode="&#x1ec1;" d="M270 919 l94 0 l82 -154 l-75 0 l-101 154 ZM251 746 l79 0 l115 -154 l-86 0 l-68 93 l-69 -93 l-86 0 l115 154 ZM293 531 q67 0 117.5 -31.5 q50.5 -31.5 77.5 -85.5 q27 -54 27 -120 q0 -28 -4 -51 l-374 0 q5 -89 51 -132.5 q46 -43.5 116 -43.5 q87 0 126 70 l65 -37 q-20 -53 -74.5 -82 q-54.5 -29 -121.5 -29 q-70 0 -127.5 32 q-57.5 32 -91 93.5 q-33.5 61.5 -33.5 147.5 q0 83 33.5 144 q33.5 61 89.5 93 q56 32 123 32 ZM290 453 q-56 0 -97.5 -36 q-41.5 -36 -52.5 -105 l283 0 q-3 67 -39 104 q-36 37 -94 37 Z" /><glyph glyph-name="uni1EC3" unicode="&#x1ec3;" d="M321 900 q32 20 77 20 q45 0 74.5 -22 q29.5 -22 29.5 -65 q0 -75 -96 -108 l-36 47 q29 11 44 23 q15 12 15 29 q0 16 -12.5 26 q-12.5 10 -32.5 10 q-25 0 -52 -16 l-11 56 ZM251 746 l79 0 l115 -154 l-86 0 l-68 93 l-69 -93 l-86 0 l115 154 ZM293 531 q67 0 117.5 -31.5 q50.5 -31.5 77.5 -85.5 q27 -54 27 -120 q0 -28 -4 -51 l-374 0 q5 -89 51 -132.5 q46 -43.5 116 -43.5 q87 0 126 70 l65 -37 q-20 -53 -74.5 -82 q-54.5 -29 -121.5 -29 q-70 0 -127.5 32 q-57.5 32 -91 93.5 q-33.5 61.5 -33.5 147.5 q0 83 33.5 144 q33.5 61 89.5 93 q56 32 123 32 ZM290 453 q-56 0 -97.5 -36 q-41.5 -36 -52.5 -105 l283 0 q-3 67 -39 104 q-36 37 -94 37 Z" /><glyph glyph-name="uni1EC5" unicode="&#x1ec5;" d="M233 838 q-29 0 -37 -53 l-70 0 q2 57 30 92 q28 35 73 35 q28 0 45 -10.5 q17 -10.5 36 -30.5 q13 -13 21 -19 q8 -6 18 -6 q15 0 24.5 15 q9.5 15 12.5 38 l70 0 q-2 -57 -30 -92 q-28 -35 -73 -35 q-28 0 -45 10.5 q-17 10.5 -36 30.5 q-13 13 -21 19 q-8 6 -18 6 ZM250 746 l79 0 l115 -154 l-86 0 l-68 93 l-69 -93 l-86 0 l115 154 ZM293 531 q67 0 117.5 -31.5 q50.5 -31.5 77.5 -85.5 q27 -54 27 -120 q0 -28 -4 -51 l-374 0 q5 -89 51 -132.5 q46 -43.5 116 -43.5 q87 0 126 70 l65 -37 q-20 -53 -74.5 -82 q-54.5 -29 -121.5 -29 q-70 0 -127.5 32 q-57.5 32 -91 93.5 q-33.5 61.5 -33.5 147.5 q0 83 33.5 144 q33.5 61 89.5 93 q56 32 123 32 ZM290 453 q-56 0 -97.5 -36 q-41.5 -36 -52.5 -105 l283 0 q-3 67 -39 104 q-36 37 -94 37 Z" /><glyph glyph-name="edieresis" unicode="ë" d="M190 611 q-23 0 -39.5 17 q-16.5 17 -16.5 41 q0 24 16.5 41 q16.5 17 39.5 17 q24 0 40.5 -17 q16.5 -17 16.5 -41 q0 -24 -16.5 -41 q-16.5 -17 -40.5 -17 ZM395 611 q-23 0 -39.5 17 q-16.5 17 -16.5 41 q0 24 16.5 41 q16.5 17 39.5 17 q24 0 40.5 -17 q16.5 -17 16.5 -41 q0 -24 -16.5 -41 q-16.5 -17 -40.5 -17 ZM293 531 q67 0 117.5 -31.5 q50.5 -31.5 77.5 -85.5 q27 -54 27 -120 q0 -28 -4 -51 l-374 0 q5 -89 51 -132.5 q46 -43.5 116 -43.5 q87 0 126 70 l65 -37 q-20 -53 -74.5 -82 q-54.5 -29 -121.5 -29 q-70 0 -127.5 32 q-57.5 32 -91 93.5 q-33.5 61.5 -33.5 147.5 q0 83 33.5 144 q33.5 61 89.5 93 q56 32 123 32 ZM290 453 q-56 0 -97.5 -36 q-41.5 -36 -52.5 -105 l283 0 q-3 67 -39 104 q-36 37 -94 37 Z" /><glyph glyph-name="edotaccent" unicode="&#x117;" d="M293 611 q-23 0 -39.5 17.5 q-16.5 17.5 -16.5 40.5 q0 23 16.5 40.5 q16.5 17.5 39.5 17.5 q24 0 40.5 -17 q16.5 -17 16.5 -41 q0 -23 -17 -40.5 q-17 -17.5 -40 -17.5 ZM293 531 q67 0 117.5 -31.5 q50.5 -31.5 77.5 -85.5 q27 -54 27 -120 q0 -28 -4 -51 l-374 0 q5 -89 51 -132.5 q46 -43.5 116 -43.5 q87 0 126 70 l65 -37 q-20 -53 -74.5 -82 q-54.5 -29 -121.5 -29 q-70 0 -127.5 32 q-57.5 32 -91 93.5 q-33.5 61.5 -33.5 147.5 q0 83 33.5 144 q33.5 61 89.5 93 q56 32 123 32 ZM290 453 q-56 0 -97.5 -36 q-41.5 -36 -52.5 -105 l283 0 q-3 67 -39 104 q-36 37 -94 37 Z" /><glyph glyph-name="uni1EB9" unicode="&#x1eb9;" d="M293 531 q67 0 117.5 -31.5 q50.5 -31.5 77.5 -85.5 q27 -54 27 -120 q0 -28 -4 -51 l-374 0 q5 -89 51 -132.5 q46 -43.5 116 -43.5 q87 0 126 70 l65 -37 q-20 -53 -74.5 -82 q-54.5 -29 -121.5 -29 q-70 0 -127.5 32 q-57.5 32 -91 93.5 q-33.5 61.5 -33.5 147.5 q0 83 33.5 144 q33.5 61 89.5 93 q56 32 123 32 ZM290 453 q-56 0 -97.5 -36 q-41.5 -36 -52.5 -105 l283 0 q-3 67 -39 104 q-36 37 -94 37 ZM298 -188 q-23 0 -39.5 17.5 q-16.5 17.5 -16.5 40.5 q0 23 16.5 40.5 q16.5 17.5 39.5 17.5 q24 0 40.5 -17 q16.5 -17 16.5 -41 q0 -23 -17 -40.5 q-17 -17.5 -40 -17.5 Z" /><glyph glyph-name="egrave" unicode="è" d="M161 746 l94 0 l82 -154 l-75 0 l-101 154 ZM293 531 q67 0 117.5 -31.5 q50.5 -31.5 77.5 -85.5 q27 -54 27 -120 q0 -28 -4 -51 l-374 0 q5 -89 51 -132.5 q46 -43.5 116 -43.5 q87 0 126 70 l65 -37 q-20 -53 -74.5 -82 q-54.5 -29 -121.5 -29 q-70 0 -127.5 32 q-57.5 32 -91 93.5 q-33.5 61.5 -33.5 147.5 q0 83 33.5 144 q33.5 61 89.5 93 q56 32 123 32 ZM290 453 q-56 0 -97.5 -36 q-41.5 -36 -52.5 -105 l283 0 q-3 67 -39 104 q-36 37 -94 37 Z" /><glyph glyph-name="uni1EBB" unicode="&#x1ebb;" d="M203 747 q32 20 77 20 q45 0 74.5 -22 q29.5 -22 29.5 -65 q0 -75 -96 -108 l-36 47 q29 11 44 23 q15 12 15 29 q0 16 -12.5 26 q-12.5 10 -32.5 10 q-25 0 -52 -16 l-11 56 ZM293 531 q67 0 117.5 -31.5 q50.5 -31.5 77.5 -85.5 q27 -54 27 -120 q0 -28 -4 -51 l-374 0 q5 -89 51 -132.5 q46 -43.5 116 -43.5 q87 0 126 70 l65 -37 q-20 -53 -74.5 -82 q-54.5 -29 -121.5 -29 q-70 0 -127.5 32 q-57.5 32 -91 93.5 q-33.5 61.5 -33.5 147.5 q0 83 33.5 144 q33.5 61 89.5 93 q56 32 123 32 ZM290 453 q-56 0 -97.5 -36 q-41.5 -36 -52.5 -105 l283 0 q-3 67 -39 104 q-36 37 -94 37 Z" /><glyph glyph-name="emacron" unicode="&#x113;" d="M133 632 l0 74 l320 0 l0 -74 l-320 0 ZM293 531 q67 0 117.5 -31.5 q50.5 -31.5 77.5 -85.5 q27 -54 27 -120 q0 -28 -4 -51 l-374 0 q5 -89 51 -132.5 q46 -43.5 116 -43.5 q87 0 126 70 l65 -37 q-20 -53 -74.5 -82 q-54.5 -29 -121.5 -29 q-70 0 -127.5 32 q-57.5 32 -91 93.5 q-33.5 61.5 -33.5 147.5 q0 83 33.5 144 q33.5 61 89.5 93 q56 32 123 32 ZM290 453 q-56 0 -97.5 -36 q-41.5 -36 -52.5 -105 l283 0 q-3 67 -39 104 q-36 37 -94 37 Z" /><glyph glyph-name="eogonek" unicode="&#x119;" d="M293 531 q67 0 117.5 -31.5 q50.5 -31.5 77.5 -85.5 q27 -54 27 -120 q0 -28 -4 -51 l-374 0 q5 -89 51 -132.5 q46 -43.5 116 -43.5 q87 0 126 70 l65 -37 q-16 -41 -57 -70 q-72 -53 -100 -85 q-28 -32 -28 -67 q0 -30 16 -42 q16 -12 45 -12 q40 0 72 27 l33 -49 q-19 -22 -48 -34 q-29 -12 -63 -12 q-54 0 -91 26.5 q-37 26.5 -37 84.5 q0 35 15.5 64.5 q15.5 29.5 45.5 57.5 q-70 0 -127 32 q-57 32 -90.5 93.5 q-33.5 61.5 -33.5 147.5 q0 83 33.5 144 q33.5 61 89.5 93 q56 32 123 32 ZM423 312 q-3 67 -39 104 q-36 37 -94 37 q-56 0 -97.5 -36 q-41.5 -36 -52.5 -105 l283 0 Z" /><glyph glyph-name="uni1EBD" unicode="&#x1ebd;" d="M128 612 q2 57 30 92 q28 35 73 35 q28 0 45 -10.5 q17 -10.5 36 -30.5 q13 -13 21 -19 q8 -6 18 -6 q15 0 24.5 15 q9.5 15 12.5 38 l70 0 q-2 -57 -30 -92 q-28 -35 -73 -35 q-28 0 -45 10.5 q-17 10.5 -36 30.5 q-13 13 -21 19 q-8 6 -18 6 q-29 0 -37 -53 l-70 0 ZM293 531 q67 0 117.5 -31.5 q50.5 -31.5 77.5 -85.5 q27 -54 27 -120 q0 -28 -4 -51 l-374 0 q5 -89 51 -132.5 q46 -43.5 116 -43.5 q87 0 126 70 l65 -37 q-20 -53 -74.5 -82 q-54.5 -29 -121.5 -29 q-70 0 -127.5 32 q-57.5 32 -91 93.5 q-33.5 61.5 -33.5 147.5 q0 83 33.5 144 q33.5 61 89.5 93 q56 32 123 32 ZM290 453 q-56 0 -97.5 -36 q-41.5 -36 -52.5 -105 l283 0 q-3 67 -39 104 q-36 37 -94 37 Z" /><glyph glyph-name="uni0259" unicode="&#x259;" d="M248 531 q70 0 127.5 -32 q57.5 -32 91 -93.5 q33.5 -61.5 33.5 -147.5 q0 -83 -33.5 -144 q-33.5 -61 -89.5 -93 q-56 -32 -123 -32 q-67 0 -117.5 31.5 q-50.5 31.5 -77.5 85.5 q-27 54 -27 120 q0 28 4 51 l374 0 q-5 89 -51 132.5 q-46 43.5 -116 43.5 q-87 0 -126 -70 l-65 37 q20 53 75 82 q55 29 121 29 ZM257 67 q56 0 97.5 36 q41.5 36 52.5 105 l-283 0 q3 -67 39 -104 q36 -37 94 -37 Z" /><glyph glyph-name="uni0292" unicode="&#x292;" d="M230 232 q119 -4 178 -69.5 q59 -65.5 59 -162.5 q0 -74 -32.5 -129.5 q-32.5 -55.5 -88.5 -85 q-56 -29.5 -126 -29.5 q-82 0 -145 41.5 q-63 41.5 -87 123.5 l72 40 q20 -62 62.5 -93.5 q42.5 -31.5 98.5 -31.5 q70 0 113 45 q43 45 43 120 q0 69 -46 112.5 q-46 43.5 -145 43.5 q-33 0 -62 -4 l0 71 l196 223 l-294 0 l0 73 l415 0 l0 -57 l-211 -231 Z" /><glyph glyph-name="uni01EF" unicode="&#x1ef;" d="M163 747 l69 -93 l68 93 l86 0 l-115 -154 l-79 0 l-115 154 l86 0 ZM230 232 q119 -4 178 -69.5 q59 -65.5 59 -162.5 q0 -74 -32.5 -129.5 q-32.5 -55.5 -88.5 -85 q-56 -29.5 -126 -29.5 q-82 0 -145 41.5 q-63 41.5 -87 123.5 l72 40 q20 -62 62.5 -93.5 q42.5 -31.5 98.5 -31.5 q70 0 113 45 q43 45 43 120 q0 69 -46 112.5 q-46 43.5 -145 43.5 q-33 0 -62 -4 l0 71 l196 223 l-294 0 l0 73 l415 0 l0 -57 l-211 -231 Z" /><glyph glyph-name="f" unicode="f" d="M280 692 q-42 0 -63.5 -27 q-21.5 -27 -21.5 -95 l0 -50 l135 0 l0 -73 l-135 0 l0 -447 l-85 0 l0 447 l-90 0 l0 73 l90 0 l0 52 q0 104 47 152 q47 48 119 48 q32 0 58.5 -8.5 q26.5 -8.5 42.5 -21.5 l-34 -68 q-28 18 -63 18 Z" /><glyph glyph-name="g" unicode="g" d="M530 520 l0 -487 q0 -151 -72 -214 q-72 -63 -171 -63 q-77 0 -137 33 q-60 33 -82 93 l69 39 q39 -85 151 -85 q73 0 115 44 q42 44 42 155 l0 45 q-29 -46 -73.5 -68.5 q-44.5 -22.5 -95.5 -22.5 q-59 0 -111.5 32.5 q-52.5 32.5 -85 94 q-32.5 61.5 -32.5 144.5 q0 83 32 145 q32 62 85 94 q53 32 112 32 q52 0 98.5 -25 q46.5 -25 74.5 -74 q5 47 6 88 l75 0 ZM286 69 q65 0 112 46 q47 46 47 145 q0 98 -47 144 q-47 46 -112 46 q-68 0 -109 -50 q-41 -50 -41 -140 q0 -91 41 -141 q41 -50 109 -50 Z" /><glyph glyph-name="gbreve" unicode="&#x11f;" d="M286 592 q-71 0 -113.5 41.5 q-42.5 41.5 -42.5 112.5 l78 0 q2 -42 21.5 -65 q19.5 -23 56.5 -23 q74 0 79 88 l78 0 q0 -71 -42.5 -112.5 q-42.5 -41.5 -114.5 -41.5 ZM530 520 l0 -487 q0 -151 -72 -214 q-72 -63 -171 -63 q-77 0 -137 33 q-60 33 -82 93 l69 39 q39 -85 151 -85 q73 0 115 44 q42 44 42 155 l0 45 q-29 -46 -73.5 -68.5 q-44.5 -22.5 -95.5 -22.5 q-59 0 -111.5 32.5 q-52.5 32.5 -85 94 q-32.5 61.5 -32.5 144.5 q0 83 32 145 q32 62 85 94 q53 32 112 32 q52 0 98.5 -25 q46.5 -25 74.5 -74 q5 47 6 88 l75 0 ZM286 69 q65 0 112 46 q47 46 47 145 q0 98 -47 144 q-47 46 -112 46 q-68 0 -109 -50 q-41 -50 -41 -140 q0 -91 41 -141 q41 -50 109 -50 Z" /><glyph glyph-name="gcaron" unicode="&#x1e7;" d="M217 747 l69 -93 l68 93 l86 0 l-115 -154 l-79 0 l-115 154 l86 0 ZM530 520 l0 -487 q0 -151 -72 -214 q-72 -63 -171 -63 q-77 0 -137 33 q-60 33 -82 93 l69 39 q39 -85 151 -85 q73 0 115 44 q42 44 42 155 l0 45 q-29 -46 -73.5 -68.5 q-44.5 -22.5 -95.5 -22.5 q-59 0 -111.5 32.5 q-52.5 32.5 -85 94 q-32.5 61.5 -32.5 144.5 q0 83 32 145 q32 62 85 94 q53 32 112 32 q52 0 98.5 -25 q46.5 -25 74.5 -74 q5 47 6 88 l75 0 ZM286 69 q65 0 112 46 q47 46 47 145 q0 98 -47 144 q-47 46 -112 46 q-68 0 -109 -50 q-41 -50 -41 -140 q0 -91 41 -141 q41 -50 109 -50 Z" /><glyph glyph-name="gcircumflex" unicode="&#x11d;" d="M245 747 l80 0 l115 -154 l-86 0 l-69 92 l-69 -92 l-86 0 l115 154 ZM530 520 l0 -487 q0 -151 -72 -214 q-72 -63 -171 -63 q-77 0 -137 33 q-60 33 -82 93 l69 39 q39 -85 151 -85 q73 0 115 44 q42 44 42 155 l0 45 q-29 -46 -73.5 -68.5 q-44.5 -22.5 -95.5 -22.5 q-59 0 -111.5 32.5 q-52.5 32.5 -85 94 q-32.5 61.5 -32.5 144.5 q0 83 32 145 q32 62 85 94 q53 32 112 32 q52 0 98.5 -25 q46.5 -25 74.5 -74 q5 47 6 88 l75 0 ZM286 69 q65 0 112 46 q47 46 47 145 q0 98 -47 144 q-47 46 -112 46 q-68 0 -109 -50 q-41 -50 -41 -140 q0 -91 41 -141 q41 -50 109 -50 Z" /><glyph glyph-name="uni0123" unicode="&#x123;" d="M283 608 q-26 0 -43 20 q-17 20 -17 61 q0 53 32.5 87.5 q32.5 34.5 86.5 43.5 l0 -43 q-30 -9 -46 -24.5 q-16 -15.5 -19 -39.5 q3 1 9 1 q22 0 34.5 -15.5 q12.5 -15.5 12.5 -37.5 q0 -23 -14 -38 q-14 -15 -36 -15 ZM530 520 l0 -487 q0 -151 -72 -214 q-72 -63 -171 -63 q-77 0 -137 33 q-60 33 -82 93 l69 39 q39 -85 151 -85 q73 0 115 44 q42 44 42 155 l0 45 q-29 -46 -73.5 -68.5 q-44.5 -22.5 -95.5 -22.5 q-59 0 -111.5 32.5 q-52.5 32.5 -85 94 q-32.5 61.5 -32.5 144.5 q0 83 32 145 q32 62 85 94 q53 32 112 32 q52 0 98.5 -25 q46.5 -25 74.5 -74 q5 47 6 88 l75 0 ZM286 69 q65 0 112 46 q47 46 47 145 q0 98 -47 144 q-47 46 -112 46 q-68 0 -109 -50 q-41 -50 -41 -140 q0 -91 41 -141 q41 -50 109 -50 Z" /><glyph glyph-name="gdotaccent" unicode="&#x121;" d="M286 612 q-23 0 -39.5 17.5 q-16.5 17.5 -16.5 40.5 q0 23 16.5 40.5 q16.5 17.5 39.5 17.5 q24 0 40.5 -17 q16.5 -17 16.5 -41 q0 -23 -17 -40.5 q-17 -17.5 -40 -17.5 ZM530 520 l0 -487 q0 -151 -72 -214 q-72 -63 -171 -63 q-77 0 -137 33 q-60 33 -82 93 l69 39 q39 -85 151 -85 q73 0 115 44 q42 44 42 155 l0 45 q-29 -46 -73.5 -68.5 q-44.5 -22.5 -95.5 -22.5 q-59 0 -111.5 32.5 q-52.5 32.5 -85 94 q-32.5 61.5 -32.5 144.5 q0 83 32 145 q32 62 85 94 q53 32 112 32 q52 0 98.5 -25 q46.5 -25 74.5 -74 q5 47 6 88 l75 0 ZM286 69 q65 0 112 46 q47 46 47 145 q0 98 -47 144 q-47 46 -112 46 q-68 0 -109 -50 q-41 -50 -41 -140 q0 -91 41 -141 q41 -50 109 -50 Z" /><glyph glyph-name="uni0261" unicode="&#x261;" d="M530 520 l0 -487 q0 -151 -72 -214 q-72 -63 -171 -63 q-77 0 -137 33 q-60 33 -82 93 l69 39 q39 -85 151 -85 q73 0 115 44 q42 44 42 155 l0 45 q-29 -46 -73.5 -68.5 q-44.5 -22.5 -95.5 -22.5 q-59 0 -111.5 32.5 q-52.5 32.5 -85 94 q-32.5 61.5 -32.5 144.5 q0 83 32 145 q32 62 85 94 q53 32 112 32 q52 0 98.5 -25 q46.5 -25 74.5 -74 q5 47 6 88 l75 0 ZM286 69 q65 0 112 46 q47 46 47 145 q0 98 -47 144 q-47 46 -112 46 q-68 0 -109 -50 q-41 -50 -41 -140 q0 -91 41 -141 q41 -50 109 -50 Z" /><glyph glyph-name="uni01E5" unicode="&#x1e5;" d="M47 260 q0 83 32 145 q32 62 85 94 q53 32 112 32 q52 0 98.5 -25 q46.5 -25 74.5 -74 q5 47 6 88 l75 0 l0 -224 l90 0 l0 -72 l-90 0 l0 -191 q0 -151 -72 -214 q-72 -63 -171 -63 q-77 0 -137 33 q-60 33 -82 93 l69 39 q39 -85 151 -85 q73 0 115 44 q42 44 42 155 l0 45 q-29 -46 -73.5 -68.5 q-44.5 -22.5 -95.5 -22.5 q-59 0 -111.5 32.5 q-52.5 32.5 -85 94 q-32.5 61.5 -32.5 144.5 ZM286 69 q58 0 103 37.5 q45 37.5 54 117.5 l-130 0 l0 72 l130 0 q-9 79 -54 116.5 q-45 37.5 -103 37.5 q-68 0 -109 -50 q-41 -50 -41 -140 q0 -91 41 -141 q41 -50 109 -50 Z" /><glyph glyph-name="h" unicode="h" d="M328 531 q81 0 132 -55 q51 -55 51 -156 l0 -320 l-85 0 l0 296 q0 74 -29.5 114 q-29.5 40 -87.5 40 q-38 0 -71.5 -17.5 q-33.5 -17.5 -54.5 -52 q-21 -34.5 -21 -85.5 l0 -295 l-85 0 l0 761 l85 0 l0 -320 q27 44 70 67 q43 23 96 23 Z" /><glyph glyph-name="hbar" unicode="&#x127;" d="M340 531 q81 0 132 -55 q51 -55 51 -156 l0 -320 l-86 0 l0 296 q0 74 -29 114 q-29 40 -87 40 q-38 0 -71.5 -17.5 q-33.5 -17.5 -54.5 -52 q-21 -34.5 -21 -85.5 l0 -295 l-85 0 l0 598 l-76 0 l0 72 l76 0 l0 91 l85 0 l0 -91 l161 0 l0 -72 l-161 0 l0 -157 q27 44 70 67 q43 23 96 23 Z" /><glyph glyph-name="uni021F" unicode="&#x21f;" d="M53 928 l67 -61 l66 61 l88 0 l-115 -104 l-79 0 l-115 104 l88 0 ZM328 531 q81 0 132 -55 q51 -55 51 -156 l0 -320 l-85 0 l0 296 q0 74 -29.5 114 q-29.5 40 -87.5 40 q-38 0 -71.5 -17.5 q-33.5 -17.5 -54.5 -52 q-21 -34.5 -21 -85.5 l0 -295 l-85 0 l0 761 l85 0 l0 -320 q27 44 70 67 q43 23 96 23 Z" /><glyph glyph-name="hcircumflex" unicode="&#x125;" d="M80 928 l79 0 l115 -104 l-88 0 l-66 61 l-67 -61 l-88 0 l115 104 ZM328 531 q81 0 132 -55 q51 -55 51 -156 l0 -320 l-85 0 l0 296 q0 74 -29.5 114 q-29.5 40 -87.5 40 q-38 0 -71.5 -17.5 q-33.5 -17.5 -54.5 -52 q-21 -34.5 -21 -85.5 l0 -295 l-85 0 l0 761 l85 0 l0 -320 q27 44 70 67 q43 23 96 23 Z" /><glyph glyph-name="i" unicode="i" d="M120 612 q-23 0 -39.5 17.5 q-16.5 17.5 -16.5 40.5 q0 23 16.5 40.5 q16.5 17.5 39.5 17.5 q24 0 40.5 -17 q16.5 -17 16.5 -41 q0 -23 -17 -40.5 q-17 -17.5 -40 -17.5 ZM162 0 l-85 0 l0 519 l85 0 l0 -519 Z" /><glyph glyph-name="dotlessi" unicode="&#x131;" d="M77 0 l0 519 l85 0 l0 -519 l-85 0 Z" /><glyph glyph-name="iacute" unicode="í" d="M76 593 l82 154 l94 0 l-101 -154 l-75 0 ZM77 0 l0 519 l85 0 l0 -519 l-85 0 Z" /><glyph glyph-name="ibreve" unicode="&#x12d;" d="M120 592 q-71 0 -113.5 41.5 q-42.5 41.5 -42.5 112.5 l78 0 q2 -42 21.5 -65 q19.5 -23 56.5 -23 q74 0 79 88 l78 0 q0 -71 -42.5 -112.5 q-42.5 -41.5 -114.5 -41.5 ZM77 0 l0 519 l85 0 l0 -519 l-85 0 Z" /><glyph glyph-name="uni01D0" unicode="&#x1d0;" d="M51 747 l69 -93 l68 93 l86 0 l-115 -154 l-79 0 l-115 154 l86 0 ZM77 0 l0 519 l85 0 l0 -519 l-85 0 Z" /><glyph glyph-name="icircumflex" unicode="î" d="M79 747 l80 0 l115 -154 l-86 0 l-69 92 l-69 -92 l-86 0 l115 154 ZM77 0 l0 519 l85 0 l0 -519 l-85 0 Z" /><glyph glyph-name="idieresis" unicode="ï" d="M17 612 q-23 0 -39.5 17 q-16.5 17 -16.5 41 q0 24 16.5 41 q16.5 17 39.5 17 q24 0 40.5 -17 q16.5 -17 16.5 -41 q0 -24 -16.5 -41 q-16.5 -17 -40.5 -17 ZM222 612 q-23 0 -39.5 17 q-16.5 17 -16.5 41 q0 24 16.5 41 q16.5 17 39.5 17 q24 0 40.5 -17 q16.5 -17 16.5 -41 q0 -24 -16.5 -41 q-16.5 -17 -40.5 -17 ZM77 0 l0 519 l85 0 l0 -519 l-85 0 Z" /><glyph glyph-name="uni1ECB" unicode="&#x1ecb;" d="M120 612 q-23 0 -39.5 17.5 q-16.5 17.5 -16.5 40.5 q0 23 16.5 40.5 q16.5 17.5 39.5 17.5 q24 0 40.5 -17 q16.5 -17 16.5 -41 q0 -23 -17 -40.5 q-17 -17.5 -40 -17.5 ZM162 0 l-85 0 l0 519 l85 0 l0 -519 ZM120 -188 q-23 0 -39.5 17.5 q-16.5 17.5 -16.5 40.5 q0 23 16.5 40.5 q16.5 17.5 39.5 17.5 q24 0 40.5 -17 q16.5 -17 16.5 -41 q0 -23 -17 -40.5 q-17 -17.5 -40 -17.5 Z" /><glyph glyph-name="igrave" unicode="ì" d="M-12 747 l94 0 l82 -154 l-75 0 l-101 154 ZM77 0 l0 519 l85 0 l0 -519 l-85 0 Z" /><glyph glyph-name="uni1EC9" unicode="&#x1ec9;" d="M30 748 q32 20 77 20 q45 0 74.5 -22 q29.5 -22 29.5 -65 q0 -75 -96 -108 l-36 47 q29 11 44 23 q15 12 15 29 q0 16 -12.5 26 q-12.5 10 -32.5 10 q-25 0 -52 -16 l-11 56 ZM77 0 l0 519 l85 0 l0 -519 l-85 0 Z" /><glyph glyph-name="ij" unicode="&#x133;" d="M120 612 q-23 0 -39.5 17.5 q-16.5 17.5 -16.5 40.5 q0 23 16.5 40.5 q16.5 17.5 39.5 17.5 q24 0 40.5 -17 q16.5 -17 16.5 -41 q0 -23 -17 -40.5 q-17 -17.5 -40 -17.5 ZM360 612 q-22 0 -39 17.5 q-17 17.5 -17 40.5 q0 23 16.5 40.5 q16.5 17.5 39.5 17.5 q24 0 40.5 -17 q16.5 -17 16.5 -41 q0 -24 -16.5 -41 q-16.5 -17 -40.5 -17 ZM162 0 l-85 0 l0 519 l85 0 l0 -519 ZM233 -244 q-32 0 -62 11 q-30 11 -49 33 l51 62 q25 -26 58 -26 q87 0 87 123 l0 560 l85 0 l0 -563 q0 -70 -24.5 -114.5 q-24.5 -44.5 -63 -65 q-38.5 -20.5 -82.5 -20.5 Z" /><glyph glyph-name="imacron" unicode="&#x12b;" d="M-40 633 l0 74 l320 0 l0 -74 l-320 0 ZM77 0 l0 519 l85 0 l0 -519 l-85 0 Z" /><glyph glyph-name="iogonek" unicode="&#x12f;" d="M120 612 q-23 0 -39.5 17.5 q-16.5 17.5 -16.5 40.5 q0 23 16.5 40.5 q16.5 17.5 39.5 17.5 q24 0 40.5 -17 q16.5 -17 16.5 -41 q0 -23 -17 -40.5 q-17 -17.5 -40 -17.5 ZM217 -193 q-19 -24 -48 -37.5 q-29 -13.5 -64 -13.5 q-52 0 -89 29 q-37 29 -37 83 q0 81 98 142 l0 509 l85 0 l0 -519 q-57 -32 -83.5 -61 q-26.5 -29 -26.5 -63 q0 -28 15.5 -41.5 q15.5 -13.5 41.5 -13.5 q41 0 75 34 l33 -48 Z" /><glyph glyph-name="itilde" unicode="&#x129;" d="M-45 613 q2 57 30 92 q28 35 73 35 q28 0 45 -10.5 q17 -10.5 36 -30.5 q13 -13 21 -19 q8 -6 18 -6 q15 0 24.5 15 q9.5 15 12.5 38 l70 0 q-2 -57 -30 -92 q-28 -35 -73 -35 q-28 0 -45 10.5 q-17 10.5 -36 30.5 q-13 13 -21 19 q-8 6 -18 6 q-29 0 -37 -53 l-70 0 ZM77 0 l0 519 l85 0 l0 -519 l-85 0 Z" /><glyph glyph-name="j" unicode="j" d="M119 612 q-22 0 -39 17.5 q-17 17.5 -17 40.5 q0 23 16.5 40.5 q16.5 17.5 39.5 17.5 q24 0 40.5 -17 q16.5 -17 16.5 -41 q0 -24 -16.5 -41 q-16.5 -17 -40.5 -17 ZM-8 -244 q-32 0 -62 11 q-30 11 -49 33 l51 62 q25 -26 58 -26 q87 0 87 123 l0 560 l85 0 l0 -563 q0 -70 -24.5 -114.5 q-24.5 -44.5 -63 -65 q-38.5 -20.5 -82.5 -20.5 Z" /><glyph glyph-name="uni0237" unicode="&#x237;" d="M-8 -244 q-32 0 -62 11 q-30 11 -49 33 l51 62 q25 -26 58 -26 q87 0 87 123 l0 560 l85 0 l0 -563 q0 -70 -24.5 -114.5 q-24.5 -44.5 -63 -65 q-38.5 -20.5 -82.5 -20.5 Z" /><glyph glyph-name="uni01F0" unicode="&#x1f0;" d="M51 747 l69 -93 l68 93 l86 0 l-115 -154 l-79 0 l-115 154 l86 0 ZM-8 -244 q-32 0 -62 11 q-30 11 -49 33 l51 62 q25 -26 58 -26 q87 0 87 123 l0 560 l85 0 l0 -563 q0 -70 -24.5 -114.5 q-24.5 -44.5 -63 -65 q-38.5 -20.5 -82.5 -20.5 Z" /><glyph glyph-name="jcircumflex" unicode="&#x135;" d="M79 747 l80 0 l115 -154 l-86 0 l-69 92 l-69 -92 l-86 0 l115 154 ZM-8 -244 q-32 0 -62 11 q-30 11 -49 33 l51 62 q25 -26 58 -26 q87 0 87 123 l0 560 l85 0 l0 -563 q0 -70 -24.5 -114.5 q-24.5 -44.5 -63 -65 q-38.5 -20.5 -82.5 -20.5 Z" /><glyph glyph-name="k" unicode="k" d="M311 304 l215 -304 l-107 0 l-167 238 l-90 -100 l0 -138 l-85 0 l0 761 l85 0 l0 -514 l238 272 l104 0 l-193 -215 Z" /><glyph glyph-name="uni01E9" unicode="&#x1e9;" d="M53 928 l67 -61 l66 61 l88 0 l-115 -104 l-79 0 l-115 104 l88 0 ZM311 304 l215 -304 l-107 0 l-167 238 l-90 -100 l0 -138 l-85 0 l0 761 l85 0 l0 -514 l238 272 l104 0 l-193 -215 Z" /><glyph glyph-name="uni0137" unicode="&#x137;" d="M400 519 l104 0 l-193 -215 l215 -304 l-107 0 l-167 238 l-90 -100 l0 -138 l-85 0 l0 761 l85 0 l0 -514 l238 272 ZM286 -40 q26 0 43 -19 q17 -19 17 -59 q0 -51 -32.5 -84 q-32.5 -33 -86.5 -42 l0 41 q30 9 46 23.5 q16 14.5 19 37.5 l-7 0 q-23 0 -36 15 q-13 15 -13 36 q0 22 14 36.5 q14 14.5 36 14.5 Z" /><glyph glyph-name="kgreenlandic" unicode="&#x138;" d="M311 304 l215 -304 l-107 0 l-167 238 l-90 -100 l0 -138 l-85 0 l0 520 l85 0 l0 -273 l238 272 l104 0 l-193 -215 Z" /><glyph glyph-name="l" unicode="l" d="M162 0 l-85 0 l0 761 l85 0 l0 -761 Z" /><glyph glyph-name="lacute" unicode="&#x13a;" d="M89 829 l82 99 l94 0 l-101 -99 l-75 0 ZM162 0 l-85 0 l0 761 l85 0 l0 -761 Z" /><glyph glyph-name="lcaron" unicode="&#x13e;" d="M264 772 q25 0 41 -19 q16 -19 16 -57 q0 -50 -31 -82.5 q-31 -32.5 -82 -41.5 l0 41 q56 17 62 59 l-7 0 q-21 0 -33.5 14.5 q-12.5 14.5 -12.5 35.5 q0 21 13 35.5 q13 14.5 34 14.5 ZM162 0 l-85 0 l0 761 l85 0 l0 -761 Z" /><glyph glyph-name="uni013C" unicode="&#x13c;" d="M77 0 l0 761 l85 0 l0 -761 l-85 0 ZM115 -40 q26 0 43 -19 q17 -19 17 -59 q0 -51 -32.5 -84 q-32.5 -33 -86.5 -42 l0 41 q30 9 46 23.5 q16 14.5 19 37.5 l-7 0 q-23 0 -36 15 q-13 15 -13 36 q0 22 14 36.5 q14 14.5 36 14.5 Z" /><glyph glyph-name="ldot" unicode="&#x140;" d="M162 0 l-85 0 l0 761 l85 0 l0 -761 ZM242 334 q-20 0 -34 15 q-14 15 -14 35 q0 21 14 35.5 q14 14.5 34 14.5 q21 0 35 -14.5 q14 -14.5 14 -35.5 q0 -21 -14 -35.5 q-14 -14.5 -35 -14.5 Z" /><glyph glyph-name="lslash" unicode="&#x142;" d="M172 761 l0 -310 l73 42 l0 -85 l-73 -42 l0 -366 l-85 0 l0 317 l-72 -42 l0 85 l72 42 l0 359 l85 0 Z" /><glyph glyph-name="m" unicode="m" d="M619 531 q74 0 120 -53.5 q46 -53.5 46 -153.5 l0 -324 l-84 0 l0 296 q0 75 -26 114.5 q-26 39.5 -77 39.5 q-52 0 -88.5 -40 q-36.5 -40 -36.5 -115 l0 -295 l-84 0 l0 296 q0 74 -26 114 q-26 40 -76 40 q-52 0 -88.5 -40.5 q-36.5 -40.5 -36.5 -114.5 l0 -295 l-85 0 l0 519 l75 0 q1 -34 5 -79 q26 45 65.5 68 q39.5 23 86.5 23 q52 0 91.5 -27.5 q39.5 -27.5 57.5 -81.5 q25 55 67.5 82 q42.5 27 93.5 27 Z" /><glyph glyph-name="uni1E3F" unicode="&#x1e3f;" d="M385 593 l82 154 l94 0 l-101 -154 l-75 0 ZM619 531 q74 0 120 -53.5 q46 -53.5 46 -153.5 l0 -324 l-84 0 l0 296 q0 75 -26 114.5 q-26 39.5 -77 39.5 q-52 0 -88.5 -40 q-36.5 -40 -36.5 -115 l0 -295 l-84 0 l0 296 q0 74 -26 114 q-26 40 -76 40 q-52 0 -88.5 -40.5 q-36.5 -40.5 -36.5 -114.5 l0 -295 l-85 0 l0 519 l75 0 q1 -34 5 -79 q26 45 65.5 68 q39.5 23 86.5 23 q52 0 91.5 -27.5 q39.5 -27.5 57.5 -81.5 q25 55 67.5 82 q42.5 27 93.5 27 Z" /><glyph glyph-name="n" unicode="n" d="M328 531 q83 0 133 -55 q50 -55 50 -156 l0 -320 l-85 0 l0 296 q0 74 -29.5 114 q-29.5 40 -87.5 40 q-38 0 -71.5 -17.5 q-33.5 -17.5 -54.5 -52 q-21 -34.5 -21 -85.5 l0 -295 l-85 0 l0 519 l75 0 q2 -50 6 -86 q26 48 70.5 73 q44.5 25 99.5 25 Z" /><glyph glyph-name="nacute" unicode="&#x144;" d="M245 593 l82 154 l94 0 l-101 -154 l-75 0 ZM328 531 q83 0 133 -55 q50 -55 50 -156 l0 -320 l-85 0 l0 296 q0 74 -29.5 114 q-29.5 40 -87.5 40 q-38 0 -71.5 -17.5 q-33.5 -17.5 -54.5 -52 q-21 -34.5 -21 -85.5 l0 -295 l-85 0 l0 519 l75 0 q2 -50 6 -86 q26 48 70.5 73 q44.5 25 99.5 25 Z" /><glyph glyph-name="napostrophe" unicode="&#x149;" d="M42 772 q26 0 43 -20 q17 -20 17 -61 q0 -53 -32.5 -87.5 q-32.5 -34.5 -86.5 -43.5 l0 43 q59 19 65 63 l-7 0 q-23 0 -36 15.5 q-13 15.5 -13 37.5 q0 23 14 38 q14 15 36 15 ZM328 531 q83 0 133 -55 q50 -55 50 -156 l0 -320 l-85 0 l0 296 q0 74 -29.5 114 q-29.5 40 -87.5 40 q-38 0 -71.5 -17.5 q-33.5 -17.5 -54.5 -52 q-21 -34.5 -21 -85.5 l0 -295 l-85 0 l0 519 l75 0 q2 -50 6 -86 q26 48 70.5 73 q44.5 25 99.5 25 Z" /><glyph glyph-name="ncaron" unicode="&#x148;" d="M220 747 l69 -93 l68 93 l86 0 l-115 -154 l-79 0 l-115 154 l86 0 ZM328 531 q83 0 133 -55 q50 -55 50 -156 l0 -320 l-85 0 l0 296 q0 74 -29.5 114 q-29.5 40 -87.5 40 q-38 0 -71.5 -17.5 q-33.5 -17.5 -54.5 -52 q-21 -34.5 -21 -85.5 l0 -295 l-85 0 l0 519 l75 0 q2 -50 6 -86 q26 48 70.5 73 q44.5 25 99.5 25 Z" /><glyph glyph-name="uni0146" unicode="&#x146;" d="M328 531 q83 0 133 -55 q50 -55 50 -156 l0 -320 l-85 0 l0 296 q0 74 -29.5 114 q-29.5 40 -87.5 40 q-38 0 -71.5 -17.5 q-33.5 -17.5 -54.5 -52 q-21 -34.5 -21 -85.5 l0 -295 l-85 0 l0 519 l75 0 q2 -50 6 -86 q26 48 70.5 73 q44.5 25 99.5 25 ZM296 -40 q26 0 43 -19 q17 -19 17 -59 q0 -51 -32.5 -84 q-32.5 -33 -86.5 -42 l0 41 q30 9 46 23.5 q16 14.5 19 37.5 l-7 0 q-23 0 -36 15 q-13 15 -13 36 q0 22 14 36.5 q14 14.5 36 14.5 Z" /><glyph glyph-name="uni01F9" unicode="&#x1f9;" d="M157 747 l94 0 l82 -154 l-75 0 l-101 154 ZM328 531 q83 0 133 -55 q50 -55 50 -156 l0 -320 l-85 0 l0 296 q0 74 -29.5 114 q-29.5 40 -87.5 40 q-38 0 -71.5 -17.5 q-33.5 -17.5 -54.5 -52 q-21 -34.5 -21 -85.5 l0 -295 l-85 0 l0 519 l75 0 q2 -50 6 -86 q26 48 70.5 73 q44.5 25 99.5 25 Z" /><glyph glyph-name="eng" unicode="&#x14b;" d="M328 531 q83 0 133 -55 q50 -55 50 -156 l0 -380 q0 -94 -42.5 -139 q-42.5 -45 -106.5 -45 q-49 0 -82 24 l34 68 q20 -12 44 -12 q68 0 68 107 l0 353 q0 74 -29.5 114 q-29.5 40 -87.5 40 q-38 0 -71.5 -17.5 q-33.5 -17.5 -54.5 -52 q-21 -34.5 -21 -85.5 l0 -295 l-85 0 l0 519 l75 0 q2 -50 6 -86 q26 48 70.5 73 q44.5 25 99.5 25 Z" /><glyph glyph-name="ntilde" unicode="ñ" d="M124 613 q2 57 30 92 q28 35 73 35 q28 0 45 -10.5 q17 -10.5 36 -30.5 q13 -13 21 -19 q8 -6 18 -6 q15 0 24.5 15 q9.5 15 12.5 38 l70 0 q-2 -57 -30 -92 q-28 -35 -73 -35 q-28 0 -45 10.5 q-17 10.5 -36 30.5 q-13 13 -21 19 q-8 6 -18 6 q-29 0 -37 -53 l-70 0 ZM328 531 q83 0 133 -55 q50 -55 50 -156 l0 -320 l-85 0 l0 296 q0 74 -29.5 114 q-29.5 40 -87.5 40 q-38 0 -71.5 -17.5 q-33.5 -17.5 -54.5 -52 q-21 -34.5 -21 -85.5 l0 -295 l-85 0 l0 519 l75 0 q2 -50 6 -86 q26 48 70.5 73 q44.5 25 99.5 25 Z" /><glyph glyph-name="o" unicode="o" d="M47 260 q0 78 34.5 140 q34.5 62 91.5 96.5 q57 34.5 123 34.5 q66 0 123 -34 q57 -34 91 -96 q34 -62 34 -141 q0 -79 -34 -140.5 q-34 -61.5 -91 -96 q-57 -34.5 -123 -34.5 q-66 0 -123.5 34.5 q-57.5 34.5 -91.5 96 q-34 61.5 -34 140.5 ZM137 260 q0 -59 21 -102 q21 -43 57 -66 q36 -23 81 -23 q45 0 81 23 q36 23 56.5 66 q20.5 43 20.5 102 q0 59 -20.5 102 q-20.5 43 -56.5 66 q-36 23 -81 23 q-45 0 -81 -23 q-36 -23 -57 -66 q-21 -43 -21 -102 Z" /><glyph glyph-name="oacute" unicode="ó" d="M252 592 l82 154 l94 0 l-101 -154 l-75 0 ZM47 260 q0 78 34.5 140 q34.5 62 91.5 96.5 q57 34.5 123 34.5 q66 0 123 -34 q57 -34 91 -96 q34 -62 34 -141 q0 -79 -34 -140.5 q-34 -61.5 -91 -96 q-57 -34.5 -123 -34.5 q-66 0 -123.5 34.5 q-57.5 34.5 -91.5 96 q-34 61.5 -34 140.5 ZM137 260 q0 -59 21 -102 q21 -43 57 -66 q36 -23 81 -23 q45 0 81 23 q36 23 56.5 66 q20.5 43 20.5 102 q0 59 -20.5 102 q-20.5 43 -56.5 66 q-36 23 -81 23 q-45 0 -81 -23 q-36 -23 -57 -66 q-21 -43 -21 -102 Z" /><glyph glyph-name="obreve" unicode="&#x14f;" d="M296 591 q-71 0 -113.5 41.5 q-42.5 41.5 -42.5 112.5 l78 0 q2 -42 21.5 -65 q19.5 -23 56.5 -23 q74 0 79 88 l78 0 q0 -71 -42.5 -112.5 q-42.5 -41.5 -114.5 -41.5 ZM47 260 q0 78 34.5 140 q34.5 62 91.5 96.5 q57 34.5 123 34.5 q66 0 123 -34 q57 -34 91 -96 q34 -62 34 -141 q0 -79 -34 -140.5 q-34 -61.5 -91 -96 q-57 -34.5 -123 -34.5 q-66 0 -123.5 34.5 q-57.5 34.5 -91.5 96 q-34 61.5 -34 140.5 ZM137 260 q0 -59 21 -102 q21 -43 57 -66 q36 -23 81 -23 q45 0 81 23 q36 23 56.5 66 q20.5 43 20.5 102 q0 59 -20.5 102 q-20.5 43 -56.5 66 q-36 23 -81 23 q-45 0 -81 -23 q-36 -23 -57 -66 q-21 -43 -21 -102 Z" /><glyph glyph-name="uni01D2" unicode="&#x1d2;" d="M227 746 l69 -93 l68 93 l86 0 l-115 -154 l-79 0 l-115 154 l86 0 ZM47 260 q0 78 34.5 140 q34.5 62 91.5 96.5 q57 34.5 123 34.5 q66 0 123 -34 q57 -34 91 -96 q34 -62 34 -141 q0 -79 -34 -140.5 q-34 -61.5 -91 -96 q-57 -34.5 -123 -34.5 q-66 0 -123.5 34.5 q-57.5 34.5 -91.5 96 q-34 61.5 -34 140.5 ZM137 260 q0 -59 21 -102 q21 -43 57 -66 q36 -23 81 -23 q45 0 81 23 q36 23 56.5 66 q20.5 43 20.5 102 q0 59 -20.5 102 q-20.5 43 -56.5 66 q-36 23 -81 23 q-45 0 -81 -23 q-36 -23 -57 -66 q-21 -43 -21 -102 Z" /><glyph glyph-name="ocircumflex" unicode="ô" d="M255 746 l80 0 l115 -154 l-86 0 l-69 92 l-69 -92 l-86 0 l115 154 ZM47 260 q0 78 34.5 140 q34.5 62 91.5 96.5 q57 34.5 123 34.5 q66 0 123 -34 q57 -34 91 -96 q34 -62 34 -141 q0 -79 -34 -140.5 q-34 -61.5 -91 -96 q-57 -34.5 -123 -34.5 q-66 0 -123.5 34.5 q-57.5 34.5 -91.5 96 q-34 61.5 -34 140.5 ZM137 260 q0 -59 21 -102 q21 -43 57 -66 q36 -23 81 -23 q45 0 81 23 q36 23 56.5 66 q20.5 43 20.5 102 q0 59 -20.5 102 q-20.5 43 -56.5 66 q-36 23 -81 23 q-45 0 -81 -23 q-36 -23 -57 -66 q-21 -43 -21 -102 Z" /><glyph glyph-name="uni1ED1" unicode="&#x1ed1;" d="M361 765 l73 137 l94 0 l-92 -137 l-75 0 ZM254 746 l79 0 l115 -154 l-86 0 l-68 93 l-69 -93 l-86 0 l115 154 ZM47 260 q0 78 34.5 140 q34.5 62 91.5 96.5 q57 34.5 123 34.5 q66 0 123 -34 q57 -34 91 -96 q34 -62 34 -141 q0 -79 -34 -140.5 q-34 -61.5 -91 -96 q-57 -34.5 -123 -34.5 q-66 0 -123.5 34.5 q-57.5 34.5 -91.5 96 q-34 61.5 -34 140.5 ZM137 260 q0 -59 21 -102 q21 -43 57 -66 q36 -23 81 -23 q45 0 81 23 q36 23 56.5 66 q20.5 43 20.5 102 q0 59 -20.5 102 q-20.5 43 -56.5 66 q-36 23 -81 23 q-45 0 -81 -23 q-36 -23 -57 -66 q-21 -43 -21 -102 Z" /><glyph glyph-name="uni1ED9" unicode="&#x1ed9;" d="M255 746 l80 0 l115 -154 l-86 0 l-69 92 l-69 -92 l-86 0 l115 154 ZM47 260 q0 78 34.5 140 q34.5 62 91.5 96.5 q57 34.5 123 34.5 q66 0 123 -34 q57 -34 91 -96 q34 -62 34 -141 q0 -79 -34 -140.5 q-34 -61.5 -91 -96 q-57 -34.5 -123 -34.5 q-66 0 -123.5 34.5 q-57.5 34.5 -91.5 96 q-34 61.5 -34 140.5 ZM137 260 q0 -59 21 -102 q21 -43 57 -66 q36 -23 81 -23 q45 0 81 23 q36 23 56.5 66 q20.5 43 20.5 102 q0 59 -20.5 102 q-20.5 43 -56.5 66 q-36 23 -81 23 q-45 0 -81 -23 q-36 -23 -57 -66 q-21 -43 -21 -102 ZM296 -188 q-23 0 -39.5 17.5 q-16.5 17.5 -16.5 40.5 q0 23 16.5 40.5 q16.5 17.5 39.5 17.5 q24 0 40.5 -17 q16.5 -17 16.5 -41 q0 -23 -17 -40.5 q-17 -17.5 -40 -17.5 Z" /><glyph glyph-name="uni1ED3" unicode="&#x1ed3;" d="M282 902 l94 0 l73 -137 l-75 0 l-92 137 ZM254 746 l79 0 l115 -154 l-86 0 l-68 93 l-69 -93 l-86 0 l115 154 ZM47 260 q0 78 34.5 140 q34.5 62 91.5 96.5 q57 34.5 123 34.5 q66 0 123 -34 q57 -34 91 -96 q34 -62 34 -141 q0 -79 -34 -140.5 q-34 -61.5 -91 -96 q-57 -34.5 -123 -34.5 q-66 0 -123.5 34.5 q-57.5 34.5 -91.5 96 q-34 61.5 -34 140.5 ZM137 260 q0 -59 21 -102 q21 -43 57 -66 q36 -23 81 -23 q45 0 81 23 q36 23 56.5 66 q20.5 43 20.5 102 q0 59 -20.5 102 q-20.5 43 -56.5 66 q-36 23 -81 23 q-45 0 -81 -23 q-36 -23 -57 -66 q-21 -43 -21 -102 Z" /><glyph glyph-name="uni1ED5" unicode="&#x1ed5;" d="M324 900 q32 20 77 20 q45 0 74.5 -22 q29.5 -22 29.5 -65 q0 -75 -96 -108 l-36 47 q29 11 44 23 q15 12 15 29 q0 16 -12.5 26 q-12.5 10 -32.5 10 q-25 0 -52 -16 l-11 56 ZM254 746 l79 0 l115 -154 l-86 0 l-68 93 l-69 -93 l-86 0 l115 154 ZM47 260 q0 78 34.5 140 q34.5 62 91.5 96.5 q57 34.5 123 34.5 q66 0 123 -34 q57 -34 91 -96 q34 -62 34 -141 q0 -79 -34 -140.5 q-34 -61.5 -91 -96 q-57 -34.5 -123 -34.5 q-66 0 -123.5 34.5 q-57.5 34.5 -91.5 96 q-34 61.5 -34 140.5 ZM137 260 q0 -59 21 -102 q21 -43 57 -66 q36 -23 81 -23 q45 0 81 23 q36 23 56.5 66 q20.5 43 20.5 102 q0 59 -20.5 102 q-20.5 43 -56.5 66 q-36 23 -81 23 q-45 0 -81 -23 q-36 -23 -57 -66 q-21 -43 -21 -102 Z" /><glyph glyph-name="uni1ED7" unicode="&#x1ed7;" d="M236 838 q-29 0 -37 -53 l-70 0 q2 57 30 92 q28 35 73 35 q28 0 45 -10.5 q17 -10.5 36 -30.5 q13 -13 21 -19 q8 -6 18 -6 q15 0 24.5 15 q9.5 15 12.5 38 l70 0 q-2 -57 -30 -92 q-28 -35 -73 -35 q-28 0 -45 10.5 q-17 10.5 -36 30.5 q-13 13 -21 19 q-8 6 -18 6 ZM253 746 l79 0 l115 -154 l-86 0 l-68 93 l-69 -93 l-86 0 l115 154 ZM47 260 q0 78 34.5 140 q34.5 62 91.5 96.5 q57 34.5 123 34.5 q66 0 123 -34 q57 -34 91 -96 q34 -62 34 -141 q0 -79 -34 -140.5 q-34 -61.5 -91 -96 q-57 -34.5 -123 -34.5 q-66 0 -123.5 34.5 q-57.5 34.5 -91.5 96 q-34 61.5 -34 140.5 ZM137 260 q0 -59 21 -102 q21 -43 57 -66 q36 -23 81 -23 q45 0 81 23 q36 23 56.5 66 q20.5 43 20.5 102 q0 59 -20.5 102 q-20.5 43 -56.5 66 q-36 23 -81 23 q-45 0 -81 -23 q-36 -23 -57 -66 q-21 -43 -21 -102 Z" /><glyph glyph-name="odieresis" unicode="ö" d="M193 611 q-23 0 -39.5 17 q-16.5 17 -16.5 41 q0 24 16.5 41 q16.5 17 39.5 17 q24 0 40.5 -17 q16.5 -17 16.5 -41 q0 -24 -16.5 -41 q-16.5 -17 -40.5 -17 ZM398 611 q-23 0 -39.5 17 q-16.5 17 -16.5 41 q0 24 16.5 41 q16.5 17 39.5 17 q24 0 40.5 -17 q16.5 -17 16.5 -41 q0 -24 -16.5 -41 q-16.5 -17 -40.5 -17 ZM47 260 q0 78 34.5 140 q34.5 62 91.5 96.5 q57 34.5 123 34.5 q66 0 123 -34 q57 -34 91 -96 q34 -62 34 -141 q0 -79 -34 -140.5 q-34 -61.5 -91 -96 q-57 -34.5 -123 -34.5 q-66 0 -123.5 34.5 q-57.5 34.5 -91.5 96 q-34 61.5 -34 140.5 ZM137 260 q0 -59 21 -102 q21 -43 57 -66 q36 -23 81 -23 q45 0 81 23 q36 23 56.5 66 q20.5 43 20.5 102 q0 59 -20.5 102 q-20.5 43 -56.5 66 q-36 23 -81 23 q-45 0 -81 -23 q-36 -23 -57 -66 q-21 -43 -21 -102 Z" /><glyph glyph-name="uni1ECD" unicode="&#x1ecd;" d="M47 260 q0 78 34.5 140 q34.5 62 91.5 96.5 q57 34.5 123 34.5 q66 0 123 -34 q57 -34 91 -96 q34 -62 34 -141 q0 -79 -34 -140.5 q-34 -61.5 -91 -96 q-57 -34.5 -123 -34.5 q-66 0 -123.5 34.5 q-57.5 34.5 -91.5 96 q-34 61.5 -34 140.5 ZM137 260 q0 -59 21 -102 q21 -43 57 -66 q36 -23 81 -23 q45 0 81 23 q36 23 56.5 66 q20.5 43 20.5 102 q0 59 -20.5 102 q-20.5 43 -56.5 66 q-36 23 -81 23 q-45 0 -81 -23 q-36 -23 -57 -66 q-21 -43 -21 -102 ZM296 -188 q-23 0 -39.5 17.5 q-16.5 17.5 -16.5 40.5 q0 23 16.5 40.5 q16.5 17.5 39.5 17.5 q24 0 40.5 -17 q16.5 -17 16.5 -41 q0 -23 -17 -40.5 q-17 -17.5 -40 -17.5 Z" /><glyph glyph-name="ograve" unicode="ò" d="M164 746 l94 0 l82 -154 l-75 0 l-101 154 ZM47 260 q0 78 34.5 140 q34.5 62 91.5 96.5 q57 34.5 123 34.5 q66 0 123 -34 q57 -34 91 -96 q34 -62 34 -141 q0 -79 -34 -140.5 q-34 -61.5 -91 -96 q-57 -34.5 -123 -34.5 q-66 0 -123.5 34.5 q-57.5 34.5 -91.5 96 q-34 61.5 -34 140.5 ZM137 260 q0 -59 21 -102 q21 -43 57 -66 q36 -23 81 -23 q45 0 81 23 q36 23 56.5 66 q20.5 43 20.5 102 q0 59 -20.5 102 q-20.5 43 -56.5 66 q-36 23 -81 23 q-45 0 -81 -23 q-36 -23 -57 -66 q-21 -43 -21 -102 Z" /><glyph glyph-name="uni1ECF" unicode="&#x1ecf;" d="M206 747 q32 20 77 20 q45 0 74.5 -22 q29.5 -22 29.5 -65 q0 -75 -96 -108 l-36 47 q29 11 44 23 q15 12 15 29 q0 16 -12.5 26 q-12.5 10 -32.5 10 q-25 0 -52 -16 l-11 56 ZM47 260 q0 78 34.5 140 q34.5 62 91.5 96.5 q57 34.5 123 34.5 q66 0 123 -34 q57 -34 91 -96 q34 -62 34 -141 q0 -79 -34 -140.5 q-34 -61.5 -91 -96 q-57 -34.5 -123 -34.5 q-66 0 -123.5 34.5 q-57.5 34.5 -91.5 96 q-34 61.5 -34 140.5 ZM137 260 q0 -59 21 -102 q21 -43 57 -66 q36 -23 81 -23 q45 0 81 23 q36 23 56.5 66 q20.5 43 20.5 102 q0 59 -20.5 102 q-20.5 43 -56.5 66 q-36 23 -81 23 q-45 0 -81 -23 q-36 -23 -57 -66 q-21 -43 -21 -102 Z" /><glyph glyph-name="ohorn" unicode="&#x1a1;" d="M457 459 q41 -33 64 -83.5 q23 -50.5 23 -115.5 q0 -79 -34 -140.5 q-34 -61.5 -91 -96 q-57 -34.5 -123 -34.5 q-66 0 -123.5 34.5 q-57.5 34.5 -91.5 96 q-34 61.5 -34 140.5 q0 79 35 140.5 q35 61.5 94.5 96 q59.5 34.5 131.5 34.5 q23 0 65 -6 q8 -1 26.5 -3 q18.5 -2 33.5 -2 q31 0 45 13.5 q14 13.5 14 55.5 q0 28 -7 57 l77 0 q7 -32 7 -63 q0 -72 -28 -97 q-28 -25 -84 -27 ZM296 69 q45 0 81 23 q36 23 56.5 66 q20.5 43 20.5 102 q0 59 -20.5 102 q-20.5 43 -56.5 66 q-36 23 -81 23 q-45 0 -81 -23 q-36 -23 -57 -66 q-21 -43 -21 -102 q0 -59 21 -102 q21 -43 57 -66 q36 -23 81 -23 Z" /><glyph glyph-name="uni1EDB" unicode="&#x1edb;" d="M334 746 l94 0 l-101 -154 l-75 0 l82 154 ZM457 459 q41 -33 64 -83.5 q23 -50.5 23 -115.5 q0 -79 -34 -140.5 q-34 -61.5 -91 -96 q-57 -34.5 -123 -34.5 q-66 0 -123.5 34.5 q-57.5 34.5 -91.5 96 q-34 61.5 -34 140.5 q0 79 35 140.5 q35 61.5 94.5 96 q59.5 34.5 131.5 34.5 q23 0 65 -6 q8 -1 26.5 -3 q18.5 -2 33.5 -2 q31 0 45 13.5 q14 13.5 14 55.5 q0 28 -7 57 l77 0 q7 -32 7 -63 q0 -72 -28 -97 q-28 -25 -84 -27 ZM296 69 q45 0 81 23 q36 23 56.5 66 q20.5 43 20.5 102 q0 59 -20.5 102 q-20.5 43 -56.5 66 q-36 23 -81 23 q-45 0 -81 -23 q-36 -23 -57 -66 q-21 -43 -21 -102 q0 -59 21 -102 q21 -43 57 -66 q36 -23 81 -23 Z" /><glyph glyph-name="uni1EE3" unicode="&#x1ee3;" d="M457 459 q41 -33 64 -83.5 q23 -50.5 23 -115.5 q0 -79 -34 -140.5 q-34 -61.5 -91 -96 q-57 -34.5 -123 -34.5 q-66 0 -123.5 34.5 q-57.5 34.5 -91.5 96 q-34 61.5 -34 140.5 q0 79 35 140.5 q35 61.5 94.5 96 q59.5 34.5 131.5 34.5 q23 0 65 -6 q8 -1 26.5 -3 q18.5 -2 33.5 -2 q31 0 45 13.5 q14 13.5 14 55.5 q0 28 -7 57 l77 0 q7 -32 7 -63 q0 -72 -28 -97 q-28 -25 -84 -27 ZM296 69 q45 0 81 23 q36 23 56.5 66 q20.5 43 20.5 102 q0 59 -20.5 102 q-20.5 43 -56.5 66 q-36 23 -81 23 q-45 0 -81 -23 q-36 -23 -57 -66 q-21 -43 -21 -102 q0 -59 21 -102 q21 -43 57 -66 q36 -23 81 -23 ZM296 -72 q24 0 40.5 -17 q16.5 -17 16.5 -41 q0 -23 -17 -40.5 q-17 -17.5 -40 -17.5 q-23 0 -39.5 17.5 q-16.5 17.5 -16.5 40.5 q0 23 16.5 40.5 q16.5 17.5 39.5 17.5 Z" /><glyph glyph-name="uni1EDD" unicode="&#x1edd;" d="M258 746 l82 -154 l-75 0 l-101 154 l94 0 ZM457 459 q41 -33 64 -83.5 q23 -50.5 23 -115.5 q0 -79 -34 -140.5 q-34 -61.5 -91 -96 q-57 -34.5 -123 -34.5 q-66 0 -123.5 34.5 q-57.5 34.5 -91.5 96 q-34 61.5 -34 140.5 q0 79 35 140.5 q35 61.5 94.5 96 q59.5 34.5 131.5 34.5 q23 0 65 -6 q8 -1 26.5 -3 q18.5 -2 33.5 -2 q31 0 45 13.5 q14 13.5 14 55.5 q0 28 -7 57 l77 0 q7 -32 7 -63 q0 -72 -28 -97 q-28 -25 -84 -27 ZM296 69 q45 0 81 23 q36 23 56.5 66 q20.5 43 20.5 102 q0 59 -20.5 102 q-20.5 43 -56.5 66 q-36 23 -81 23 q-45 0 -81 -23 q-36 -23 -57 -66 q-21 -43 -21 -102 q0 -59 21 -102 q21 -43 57 -66 q36 -23 81 -23 Z" /><glyph glyph-name="uni1EDF" unicode="&#x1edf;" d="M269 707 q-25 0 -52 -16 l-11 56 q32 20 77 20 q45 0 74.5 -22 q29.5 -22 29.5 -65 q0 -75 -96 -108 l-36 47 q29 11 44 23 q15 12 15 29 q0 16 -12.5 26 q-12.5 10 -32.5 10 ZM457 459 q41 -33 64 -83.5 q23 -50.5 23 -115.5 q0 -79 -34 -140.5 q-34 -61.5 -91 -96 q-57 -34.5 -123 -34.5 q-66 0 -123.5 34.5 q-57.5 34.5 -91.5 96 q-34 61.5 -34 140.5 q0 79 35 140.5 q35 61.5 94.5 96 q59.5 34.5 131.5 34.5 q23 0 65 -6 q8 -1 26.5 -3 q18.5 -2 33.5 -2 q31 0 45 13.5 q14 13.5 14 55.5 q0 28 -7 57 l77 0 q7 -32 7 -63 q0 -72 -28 -97 q-28 -25 -84 -27 ZM296 69 q45 0 81 23 q36 23 56.5 66 q20.5 43 20.5 102 q0 59 -20.5 102 q-20.5 43 -56.5 66 q-36 23 -81 23 q-45 0 -81 -23 q-36 -23 -57 -66 q-21 -43 -21 -102 q0 -59 21 -102 q21 -43 57 -66 q36 -23 81 -23 Z" /><glyph glyph-name="uni1EE1" unicode="&#x1ee1;" d="M238 665 q-29 0 -37 -53 l-70 0 q2 57 30 92 q28 35 73 35 q28 0 45 -10.5 q17 -10.5 36 -30.5 q13 -13 21 -19 q8 -6 18 -6 q15 0 24.5 15 q9.5 15 12.5 38 l70 0 q-2 -57 -30 -92 q-28 -35 -73 -35 q-28 0 -45 10.5 q-17 10.5 -36 30.5 q-13 13 -21 19 q-8 6 -18 6 ZM457 459 q41 -33 64 -83.5 q23 -50.5 23 -115.5 q0 -79 -34 -140.5 q-34 -61.5 -91 -96 q-57 -34.5 -123 -34.5 q-66 0 -123.5 34.5 q-57.5 34.5 -91.5 96 q-34 61.5 -34 140.5 q0 79 35 140.5 q35 61.5 94.5 96 q59.5 34.5 131.5 34.5 q23 0 65 -6 q8 -1 26.5 -3 q18.5 -2 33.5 -2 q31 0 45 13.5 q14 13.5 14 55.5 q0 28 -7 57 l77 0 q7 -32 7 -63 q0 -72 -28 -97 q-28 -25 -84 -27 ZM296 69 q45 0 81 23 q36 23 56.5 66 q20.5 43 20.5 102 q0 59 -20.5 102 q-20.5 43 -56.5 66 q-36 23 -81 23 q-45 0 -81 -23 q-36 -23 -57 -66 q-21 -43 -21 -102 q0 -59 21 -102 q21 -43 57 -66 q36 -23 81 -23 Z" /><glyph glyph-name="ohungarumlaut" unicode="&#x151;" d="M180 592 l82 154 l92 0 l-101 -154 l-73 0 ZM331 592 l82 154 l92 0 l-101 -154 l-73 0 ZM47 260 q0 78 34.5 140 q34.5 62 91.5 96.5 q57 34.5 123 34.5 q66 0 123 -34 q57 -34 91 -96 q34 -62 34 -141 q0 -79 -34 -140.5 q-34 -61.5 -91 -96 q-57 -34.5 -123 -34.5 q-66 0 -123.5 34.5 q-57.5 34.5 -91.5 96 q-34 61.5 -34 140.5 ZM137 260 q0 -59 21 -102 q21 -43 57 -66 q36 -23 81 -23 q45 0 81 23 q36 23 56.5 66 q20.5 43 20.5 102 q0 59 -20.5 102 q-20.5 43 -56.5 66 q-36 23 -81 23 q-45 0 -81 -23 q-36 -23 -57 -66 q-21 -43 -21 -102 Z" /><glyph glyph-name="omacron" unicode="&#x14d;" d="M136 632 l0 74 l320 0 l0 -74 l-320 0 ZM47 260 q0 78 34.5 140 q34.5 62 91.5 96.5 q57 34.5 123 34.5 q66 0 123 -34 q57 -34 91 -96 q34 -62 34 -141 q0 -79 -34 -140.5 q-34 -61.5 -91 -96 q-57 -34.5 -123 -34.5 q-66 0 -123.5 34.5 q-57.5 34.5 -91.5 96 q-34 61.5 -34 140.5 ZM137 260 q0 -59 21 -102 q21 -43 57 -66 q36 -23 81 -23 q45 0 81 23 q36 23 56.5 66 q20.5 43 20.5 102 q0 59 -20.5 102 q-20.5 43 -56.5 66 q-36 23 -81 23 q-45 0 -81 -23 q-36 -23 -57 -66 q-21 -43 -21 -102 Z" /><glyph glyph-name="oslash" unicode="ø" d="M456 554 l88 0 l-71 -102 q33 -37 52 -85.5 q19 -48.5 19 -106.5 q0 -79 -34 -140.5 q-34 -61.5 -91 -96 q-57 -34.5 -123 -34.5 q-64 0 -122 33 l-39 -56 l-88 0 l71 102 q-33 37 -52 85.5 q-19 48.5 -19 106.5 q0 78 34.5 140 q34.5 62 91.5 96.5 q57 34.5 123 34.5 q64 0 121 -33 l39 56 ZM137 260 q0 -72 31 -120 l203 292 q-35 19 -75 19 q-45 0 -81 -23 q-36 -23 -57 -66 q-21 -43 -21 -102 ZM454 260 q0 73 -31 121 l-203 -292 q35 -20 76 -20 q45 0 81 23 q36 23 56.5 66 q20.5 43 20.5 102 Z" /><glyph glyph-name="oslashacute" unicode="&#x1ff;" d="M252 592 l82 154 l94 0 l-101 -154 l-75 0 ZM456 554 l88 0 l-71 -102 q33 -37 52 -85.5 q19 -48.5 19 -106.5 q0 -79 -34 -140.5 q-34 -61.5 -91 -96 q-57 -34.5 -123 -34.5 q-64 0 -122 33 l-39 -56 l-88 0 l71 102 q-33 37 -52 85.5 q-19 48.5 -19 106.5 q0 78 34.5 140 q34.5 62 91.5 96.5 q57 34.5 123 34.5 q64 0 121 -33 l39 56 ZM137 260 q0 -72 31 -120 l203 292 q-35 19 -75 19 q-45 0 -81 -23 q-36 -23 -57 -66 q-21 -43 -21 -102 ZM454 260 q0 73 -31 121 l-203 -292 q35 -20 76 -20 q45 0 81 23 q36 23 56.5 66 q20.5 43 20.5 102 Z" /><glyph glyph-name="otilde" unicode="õ" d="M131 612 q2 57 30 92 q28 35 73 35 q28 0 45 -10.5 q17 -10.5 36 -30.5 q13 -13 21 -19 q8 -6 18 -6 q15 0 24.5 15 q9.5 15 12.5 38 l70 0 q-2 -57 -30 -92 q-28 -35 -73 -35 q-28 0 -45 10.5 q-17 10.5 -36 30.5 q-13 13 -21 19 q-8 6 -18 6 q-29 0 -37 -53 l-70 0 ZM47 260 q0 78 34.5 140 q34.5 62 91.5 96.5 q57 34.5 123 34.5 q66 0 123 -34 q57 -34 91 -96 q34 -62 34 -141 q0 -79 -34 -140.5 q-34 -61.5 -91 -96 q-57 -34.5 -123 -34.5 q-66 0 -123.5 34.5 q-57.5 34.5 -91.5 96 q-34 61.5 -34 140.5 ZM137 260 q0 -59 21 -102 q21 -43 57 -66 q36 -23 81 -23 q45 0 81 23 q36 23 56.5 66 q20.5 43 20.5 102 q0 59 -20.5 102 q-20.5 43 -56.5 66 q-36 23 -81 23 q-45 0 -81 -23 q-36 -23 -57 -66 q-21 -43 -21 -102 Z" /><glyph glyph-name="oe" unicode="&#x153;" d="M698 531 q68 0 118.5 -31.5 q50.5 -31.5 78 -85.5 q27.5 -54 27.5 -120 q0 -28 -4 -51 l-374 0 q5 -89 51 -132.5 q46 -43.5 116 -43.5 q87 0 126 70 l65 -37 q-20 -53 -75 -82 q-55 -29 -123 -29 q-69 0 -123 30.5 q-54 30.5 -84 89.5 q-31 -57 -83.5 -88.5 q-52.5 -31.5 -115.5 -31.5 q-67 0 -124.5 34.5 q-57.5 34.5 -92 96 q-34.5 61.5 -34.5 140.5 q0 78 34.5 140 q34.5 62 92 96.5 q57.5 34.5 124.5 34.5 q63 0 115.5 -31.5 q52.5 -31.5 83.5 -88.5 q29 59 82 89.5 q53 30.5 119 30.5 ZM697 453 q-56 0 -97.5 -36 q-41.5 -36 -52.5 -105 l283 0 q-3 67 -39 104 q-36 37 -94 37 ZM296 69 q45 0 81 23 q36 23 56.5 66 q20.5 43 20.5 102 q0 59 -20.5 102 q-20.5 43 -56.5 66 q-36 23 -81 23 q-45 0 -81 -23 q-36 -23 -57 -66 q-21 -43 -21 -102 q0 -59 21 -102 q21 -43 57 -66 q36 -23 81 -23 Z" /><glyph glyph-name="p" unicode="p" d="M332 531 q59 0 111.5 -32.5 q52.5 -32.5 84.5 -94 q32 -61.5 32 -144.5 q0 -84 -32 -145.5 q-32 -61.5 -84.5 -93.5 q-52.5 -32 -111.5 -32 q-50 0 -95.5 23.5 q-45.5 23.5 -74.5 69.5 l0 -314 l-85 0 l0 751 l75 0 q2 -50 6 -88 q28 50 74.5 75 q46.5 25 99.5 25 ZM321 69 q68 0 109 50 q41 50 41 141 q0 91 -41 141 q-41 50 -109 50 q-41 0 -77 -19 q-36 -19 -59 -62 q-23 -43 -23 -110 q0 -67 23 -110 q23 -43 59 -62 q36 -19 77 -19 Z" /><glyph glyph-name="thorn" unicode="þ" d="M332 531 q59 0 111.5 -32.5 q52.5 -32.5 84.5 -94 q32 -61.5 32 -144.5 q0 -84 -32 -145.5 q-32 -61.5 -84.5 -93.5 q-52.5 -32 -111.5 -32 q-50 0 -95.5 23.5 q-45.5 23.5 -74.5 69.5 l0 -314 l-85 0 l0 993 l85 0 l0 -323 q29 46 74 69.5 q45 23.5 96 23.5 ZM321 69 q68 0 109 50 q41 50 41 141 q0 91 -41 141 q-41 50 -109 50 q-41 0 -77 -19 q-36 -19 -59 -62 q-23 -43 -23 -110 q0 -67 23 -110 q23 -43 59 -62 q36 -19 77 -19 Z" /><glyph glyph-name="q" unicode="q" d="M530 519 l0 -751 l-85 0 l0 313 q-29 -46 -74.5 -69 q-45.5 -23 -94.5 -23 q-60 0 -112.5 32 q-52.5 32 -84.5 93.5 q-32 61.5 -32 145.5 q0 83 32 144.5 q32 61.5 84.5 94 q52.5 32.5 112.5 32.5 q52 0 98.5 -25 q46.5 -25 74.5 -74 q5 47 6 87 l75 0 ZM286 69 q65 0 112 46 q47 46 47 145 q0 67 -23 110 q-23 43 -59 62 q-36 19 -77 19 q-68 0 -109 -50 q-41 -50 -41 -141 q0 -91 41 -141 q41 -50 109 -50 Z" /><glyph glyph-name="r" unicode="r" d="M295 531 q24 0 44.5 -6.5 q20.5 -6.5 33.5 -16.5 l-31 -69 q-20 12 -48 12 q-58 0 -95 -47.5 q-37 -47.5 -37 -138.5 l0 -265 l-85 0 l0 519 l75 0 q2 -50 6 -85 q44 97 137 97 Z" /><glyph glyph-name="racute" unicode="&#x155;" d="M175 592 l82 154 l94 0 l-101 -154 l-75 0 ZM295 531 q24 0 44.5 -6.5 q20.5 -6.5 33.5 -16.5 l-31 -69 q-20 12 -48 12 q-58 0 -95 -47.5 q-37 -47.5 -37 -138.5 l0 -265 l-85 0 l0 519 l75 0 q2 -50 6 -85 q44 97 137 97 Z" /><glyph glyph-name="rcaron" unicode="&#x159;" d="M150 746 l69 -93 l68 93 l86 0 l-115 -154 l-79 0 l-115 154 l86 0 ZM295 531 q24 0 44.5 -6.5 q20.5 -6.5 33.5 -16.5 l-31 -69 q-20 12 -48 12 q-58 0 -95 -47.5 q-37 -47.5 -37 -138.5 l0 -265 l-85 0 l0 519 l75 0 q2 -50 6 -85 q44 97 137 97 Z" /><glyph glyph-name="uni0157" unicode="&#x157;" d="M295 531 q24 0 44.5 -6.5 q20.5 -6.5 33.5 -16.5 l-31 -69 q-20 12 -48 12 q-58 0 -95 -47.5 q-37 -47.5 -37 -138.5 l0 -265 l-85 0 l0 519 l75 0 q2 -50 6 -85 q44 97 137 97 ZM115 -40 q26 0 43 -19 q17 -19 17 -59 q0 -51 -32.5 -84 q-32.5 -33 -86.5 -42 l0 41 q30 9 46 23.5 q16 14.5 19 37.5 l-7 0 q-23 0 -36 15 q-13 15 -13 36 q0 22 14 36.5 q14 14.5 36 14.5 Z" /><glyph glyph-name="s" unicode="s" d="M427 148 q0 -47 -24.5 -83 q-24.5 -36 -68.5 -56 q-44 -20 -101 -20 q-76 0 -131 34 q-55 34 -72 93 l65 37 q37 -87 138 -87 q49 0 77 20 q28 20 28 55 q0 27 -16.5 44 q-16.5 17 -41 26.5 q-24.5 9.5 -68.5 22.5 q-53 15 -86 29 q-33 14 -56 41.5 q-23 27.5 -23 72.5 q0 47 25.5 82 q25.5 35 69 53.5 q43.5 18.5 95.5 18.5 q68 0 117 -30 q49 -30 66 -82 l-65 -37 q-16 34 -47.5 52.5 q-31.5 18.5 -74.5 18.5 q-44 0 -70.5 -17.5 q-26.5 -17.5 -26.5 -50.5 q0 -24 15.5 -39 q15.5 -15 38.5 -24 q23 -9 65 -21 q55 -15 89 -29.5 q34 -14.5 58.5 -44.5 q24.5 -30 24.5 -79 Z" /><glyph glyph-name="sacute" unicode="&#x15b;" d="M196 593 l82 154 l94 0 l-101 -154 l-75 0 ZM427 148 q0 -47 -24.5 -83 q-24.5 -36 -68.5 -56 q-44 -20 -101 -20 q-76 0 -131 34 q-55 34 -72 93 l65 37 q37 -87 138 -87 q49 0 77 20 q28 20 28 55 q0 27 -16.5 44 q-16.5 17 -41 26.5 q-24.5 9.5 -68.5 22.5 q-53 15 -86 29 q-33 14 -56 41.5 q-23 27.5 -23 72.5 q0 47 25.5 82 q25.5 35 69 53.5 q43.5 18.5 95.5 18.5 q68 0 117 -30 q49 -30 66 -82 l-65 -37 q-16 34 -47.5 52.5 q-31.5 18.5 -74.5 18.5 q-44 0 -70.5 -17.5 q-26.5 -17.5 -26.5 -50.5 q0 -24 15.5 -39 q15.5 -15 38.5 -24 q23 -9 65 -21 q55 -15 89 -29.5 q34 -14.5 58.5 -44.5 q24.5 -30 24.5 -79 Z" /><glyph glyph-name="scaron" unicode="&#x161;" d="M171 747 l69 -93 l68 93 l86 0 l-115 -154 l-79 0 l-115 154 l86 0 ZM427 148 q0 -47 -24.5 -83 q-24.5 -36 -68.5 -56 q-44 -20 -101 -20 q-76 0 -131 34 q-55 34 -72 93 l65 37 q37 -87 138 -87 q49 0 77 20 q28 20 28 55 q0 27 -16.5 44 q-16.5 17 -41 26.5 q-24.5 9.5 -68.5 22.5 q-53 15 -86 29 q-33 14 -56 41.5 q-23 27.5 -23 72.5 q0 47 25.5 82 q25.5 35 69 53.5 q43.5 18.5 95.5 18.5 q68 0 117 -30 q49 -30 66 -82 l-65 -37 q-16 34 -47.5 52.5 q-31.5 18.5 -74.5 18.5 q-44 0 -70.5 -17.5 q-26.5 -17.5 -26.5 -50.5 q0 -24 15.5 -39 q15.5 -15 38.5 -24 q23 -9 65 -21 q55 -15 89 -29.5 q34 -14.5 58.5 -44.5 q24.5 -30 24.5 -79 Z" /><glyph glyph-name="scedilla" unicode="&#x15f;" d="M427 148 q0 -67 -48.5 -110.5 q-48.5 -43.5 -128.5 -47.5 l-18 -46 q48 0 80 -23 q32 -23 32 -66 q0 -48 -38.5 -73.5 q-38.5 -25.5 -96.5 -25.5 q-31 0 -77 11 l0 62 q38 -12 71 -12 q68 0 68 35 q0 18 -18.5 27.5 q-18.5 9.5 -49.5 9.5 q-19 0 -47 -5 l-6 39 l28 71 q-56 11 -95 42.5 q-39 31.5 -53 79.5 l65 37 q37 -87 138 -87 q49 0 77 20 q28 20 28 55 q0 27 -16.5 44 q-16.5 17 -41 26.5 q-24.5 9.5 -68.5 22.5 q-53 15 -86 29 q-33 14 -56 41.5 q-23 27.5 -23 72.5 q0 47 25.5 82 q25.5 35 69 53.5 q43.5 18.5 95.5 18.5 q68 0 117 -30 q49 -30 66 -82 l-65 -37 q-16 34 -47.5 52.5 q-31.5 18.5 -74.5 18.5 q-44 0 -70.5 -17.5 q-26.5 -17.5 -26.5 -50.5 q0 -24 15.5 -39 q15.5 -15 38.5 -24 q23 -9 65 -21 q55 -15 89 -29.5 q34 -14.5 58.5 -44.5 q24.5 -30 24.5 -79 Z" /><glyph glyph-name="scircumflex" unicode="&#x15d;" d="M199 747 l80 0 l115 -154 l-86 0 l-69 92 l-69 -92 l-86 0 l115 154 ZM427 148 q0 -47 -24.5 -83 q-24.5 -36 -68.5 -56 q-44 -20 -101 -20 q-76 0 -131 34 q-55 34 -72 93 l65 37 q37 -87 138 -87 q49 0 77 20 q28 20 28 55 q0 27 -16.5 44 q-16.5 17 -41 26.5 q-24.5 9.5 -68.5 22.5 q-53 15 -86 29 q-33 14 -56 41.5 q-23 27.5 -23 72.5 q0 47 25.5 82 q25.5 35 69 53.5 q43.5 18.5 95.5 18.5 q68 0 117 -30 q49 -30 66 -82 l-65 -37 q-16 34 -47.5 52.5 q-31.5 18.5 -74.5 18.5 q-44 0 -70.5 -17.5 q-26.5 -17.5 -26.5 -50.5 q0 -24 15.5 -39 q15.5 -15 38.5 -24 q23 -9 65 -21 q55 -15 89 -29.5 q34 -14.5 58.5 -44.5 q24.5 -30 24.5 -79 Z" /><glyph glyph-name="uni0219" unicode="&#x219;" d="M136 385 q0 -24 15.5 -39 q15.5 -15 38.5 -24 q23 -9 65 -21 q55 -15 89 -29.5 q34 -14.5 58.5 -44.5 q24.5 -30 24.5 -79 q0 -47 -24.5 -83 q-24.5 -36 -68.5 -56 q-44 -20 -101 -20 q-76 0 -131 34 q-55 34 -72 93 l65 37 q37 -87 138 -87 q49 0 77 20 q28 20 28 55 q0 27 -16.5 44 q-16.5 17 -41 26.5 q-24.5 9.5 -68.5 22.5 q-53 15 -86 29 q-33 14 -56 41.5 q-23 27.5 -23 72.5 q0 47 25.5 82 q25.5 35 69 53.5 q43.5 18.5 95.5 18.5 q68 0 117 -30 q49 -30 66 -82 l-65 -37 q-16 34 -47.5 52.5 q-31.5 18.5 -74.5 18.5 q-44 0 -70.5 -17.5 q-26.5 -17.5 -26.5 -50.5 ZM224 -40 q26 0 43 -19 q17 -19 17 -59 q0 -51 -32.5 -84 q-32.5 -33 -86.5 -42 l0 41 q30 9 46 23.5 q16 14.5 19 37.5 l-7 0 q-23 0 -36 15 q-13 15 -13 36 q0 22 14 36.5 q14 14.5 36 14.5 Z" /><glyph glyph-name="germandbls" unicode="ß" d="M414 399 q68 -20 104.5 -70 q36.5 -50 36.5 -121 q0 -63 -27.5 -113 q-27.5 -50 -79.5 -78 q-52 -28 -123 -28 q-38 0 -82 11 l0 82 q20 -7 35.5 -10 q15.5 -3 38.5 -3 q71 0 109 37 q38 37 38 103 q0 68 -42 108 q-42 40 -126 40 l-42 0 l0 71 l20 0 q77 0 113.5 38 q36.5 38 36.5 98 q0 57 -32 91 q-32 34 -90 34 q-67 0 -103.5 -46 q-36.5 -46 -36.5 -129 l0 -514 l-85 0 l0 516 q0 79 29 136.5 q29 57.5 80 87.5 q51 30 116 30 q61 0 109 -26 q48 -26 75.5 -73 q27.5 -47 27.5 -106 q0 -57 -25 -99.5 q-25 -42.5 -75 -66.5 Z" /><glyph glyph-name="longs" unicode="&#x17f;" d="M280 772 q30 0 55.5 -8.5 q25.5 -8.5 41.5 -21.5 l-34 -68 q-26 18 -60 18 q-88 0 -88 -122 l0 -570 l-86 0 l0 447 l-89 0 l0 73 l89 0 l0 52 q0 70 24.5 115 q24.5 45 63.5 65 q39 20 83 20 Z" /><glyph glyph-name="t" unicode="t" d="M359 17 q-41 -28 -105 -28 q-157 0 -157 179 l0 278 l-86 0 l0 74 l86 0 l0 145 l85 0 l0 -145 l151 0 l0 -74 l-151 0 l0 -268 q0 -109 82 -109 q36 0 67 18 l28 -70 Z" /><glyph glyph-name="tbar" unicode="&#x167;" d="M359 17 q-41 -28 -105 -28 q-157 0 -157 179 l0 66 l-86 0 l0 74 l86 0 l0 138 l-86 0 l0 74 l86 0 l0 145 l86 0 l0 -145 l150 0 l0 -74 l-150 0 l0 -138 l150 0 l0 -74 l-150 0 l0 -56 q0 -62 22.5 -85.5 q22.5 -23.5 58.5 -23.5 q36 0 67 18 l28 -70 Z" /><glyph glyph-name="tcaron" unicode="&#x165;" d="M338 806 q26 0 43 -20 q17 -20 17 -61 q0 -53 -32.5 -87.5 q-32.5 -34.5 -86.5 -43.5 l0 43 q30 9 46 24 q16 15 19 39 l-7 0 q-23 0 -36 15.5 q-13 15.5 -13 37.5 q0 23 14 38 q14 15 36 15 ZM264 69 q36 0 67 18 l28 -70 q-41 -28 -105 -28 q-157 0 -157 179 l0 278 l-86 0 l0 74 l86 0 l0 145 l85 0 l0 -145 l151 0 l0 -74 l-151 0 l0 -268 q0 -109 82 -109 Z" /><glyph glyph-name="uni0163" unicode="&#x163;" d="M241 -57 q48 1 80 -22.5 q32 -23.5 32 -65.5 q0 -49 -38 -74 q-38 -25 -97 -25 q-27 0 -77 10 l0 63 q33 -12 71 -12 q68 0 68 34 q0 18 -18.5 27.5 q-18.5 9.5 -49.5 9.5 q-19 0 -47 -5 l-6 39 l30 77 q-92 32 -92 169 l0 278 l-86 0 l0 74 l86 0 l0 145 l85 0 l0 -145 l151 0 l0 -74 l-151 0 l0 -268 q0 -109 82 -109 q36 0 67 18 l28 -70 q-40 -26 -100 -28 l-18 -46 Z" /><glyph glyph-name="uni021B" unicode="&#x21b;" d="M359 17 q-41 -28 -105 -28 q-157 0 -157 179 l0 278 l-86 0 l0 74 l86 0 l0 145 l85 0 l0 -145 l151 0 l0 -74 l-151 0 l0 -268 q0 -109 82 -109 q36 0 67 18 l28 -70 ZM233 -40 q26 0 43 -19 q17 -19 17 -59 q0 -51 -32.5 -84 q-32.5 -33 -86.5 -42 l0 41 q30 9 46 23.5 q16 14.5 19 37.5 l-7 0 q-23 0 -36 15 q-13 15 -13 36 q0 22 14 36.5 q14 14.5 36 14.5 Z" /><glyph glyph-name="u" unicode="u" d="M418 520 l85 0 l0 -520 l-75 0 q-2 51 -6 85 q-26 -48 -71 -72 q-45 -24 -98 -24 q-83 0 -133 55 q-50 55 -50 156 l0 320 l85 0 l0 -297 q0 -74 29.5 -114 q29.5 -40 86.5 -40 q38 0 71.5 17.5 q33.5 17.5 54.5 52.5 q21 35 21 86 l0 295 Z" /><glyph glyph-name="uacute" unicode="ú" d="M246 593 l82 154 l94 0 l-101 -154 l-75 0 ZM418 520 l85 0 l0 -520 l-75 0 q-2 51 -6 85 q-26 -48 -71 -72 q-45 -24 -98 -24 q-83 0 -133 55 q-50 55 -50 156 l0 320 l85 0 l0 -297 q0 -74 29.5 -114 q29.5 -40 86.5 -40 q38 0 71.5 17.5 q33.5 17.5 54.5 52.5 q21 35 21 86 l0 295 Z" /><glyph glyph-name="ubreve" unicode="&#x16d;" d="M290 592 q-71 0 -113.5 41.5 q-42.5 41.5 -42.5 112.5 l78 0 q2 -42 21.5 -65 q19.5 -23 56.5 -23 q74 0 79 88 l78 0 q0 -71 -42.5 -112.5 q-42.5 -41.5 -114.5 -41.5 ZM418 520 l85 0 l0 -520 l-75 0 q-2 51 -6 85 q-26 -48 -71 -72 q-45 -24 -98 -24 q-83 0 -133 55 q-50 55 -50 156 l0 320 l85 0 l0 -297 q0 -74 29.5 -114 q29.5 -40 86.5 -40 q38 0 71.5 17.5 q33.5 17.5 54.5 52.5 q21 35 21 86 l0 295 Z" /><glyph glyph-name="uni01D4" unicode="&#x1d4;" d="M221 747 l69 -93 l68 93 l86 0 l-115 -154 l-79 0 l-115 154 l86 0 ZM418 520 l85 0 l0 -520 l-75 0 q-2 51 -6 85 q-26 -48 -71 -72 q-45 -24 -98 -24 q-83 0 -133 55 q-50 55 -50 156 l0 320 l85 0 l0 -297 q0 -74 29.5 -114 q29.5 -40 86.5 -40 q38 0 71.5 17.5 q33.5 17.5 54.5 52.5 q21 35 21 86 l0 295 Z" /><glyph glyph-name="ucircumflex" unicode="û" d="M249 747 l80 0 l115 -154 l-86 0 l-69 92 l-69 -92 l-86 0 l115 154 ZM418 520 l85 0 l0 -520 l-75 0 q-2 51 -6 85 q-26 -48 -71 -72 q-45 -24 -98 -24 q-83 0 -133 55 q-50 55 -50 156 l0 320 l85 0 l0 -297 q0 -74 29.5 -114 q29.5 -40 86.5 -40 q38 0 71.5 17.5 q33.5 17.5 54.5 52.5 q21 35 21 86 l0 295 Z" /><glyph glyph-name="udieresis" unicode="ü" d="M187 612 q-23 0 -39.5 17 q-16.5 17 -16.5 41 q0 24 16.5 41 q16.5 17 39.5 17 q24 0 40.5 -17 q16.5 -17 16.5 -41 q0 -24 -16.5 -41 q-16.5 -17 -40.5 -17 ZM392 612 q-23 0 -39.5 17 q-16.5 17 -16.5 41 q0 24 16.5 41 q16.5 17 39.5 17 q24 0 40.5 -17 q16.5 -17 16.5 -41 q0 -24 -16.5 -41 q-16.5 -17 -40.5 -17 ZM418 520 l85 0 l0 -520 l-75 0 q-2 51 -6 85 q-26 -48 -71 -72 q-45 -24 -98 -24 q-83 0 -133 55 q-50 55 -50 156 l0 320 l85 0 l0 -297 q0 -74 29.5 -114 q29.5 -40 86.5 -40 q38 0 71.5 17.5 q33.5 17.5 54.5 52.5 q21 35 21 86 l0 295 Z" /><glyph glyph-name="uni01D8" unicode="&#x1d8;" d="M246 766 l73 137 l94 0 l-92 -137 l-75 0 ZM187 612 q-23 0 -39.5 17 q-16.5 17 -16.5 41 q0 24 16.5 41 q16.5 17 39.5 17 q24 0 40.5 -17 q16.5 -17 16.5 -41 q0 -24 -16.5 -41 q-16.5 -17 -40.5 -17 ZM392 612 q-23 0 -39.5 17 q-16.5 17 -16.5 41 q0 24 16.5 41 q16.5 17 39.5 17 q24 0 40.5 -17 q16.5 -17 16.5 -41 q0 -24 -16.5 -41 q-16.5 -17 -40.5 -17 ZM418 520 l85 0 l0 -520 l-75 0 q-2 51 -6 85 q-26 -48 -71 -72 q-45 -24 -98 -24 q-83 0 -133 55 q-50 55 -50 156 l0 320 l85 0 l0 -297 q0 -74 29.5 -114 q29.5 -40 86.5 -40 q38 0 71.5 17.5 q33.5 17.5 54.5 52.5 q21 35 21 86 l0 295 Z" /><glyph glyph-name="uni01DA" unicode="&#x1da;" d="M223 903 l67 -80 l66 80 l88 0 l-115 -137 l-79 0 l-115 137 l88 0 ZM187 612 q-23 0 -39.5 17 q-16.5 17 -16.5 41 q0 24 16.5 41 q16.5 17 39.5 17 q24 0 40.5 -17 q16.5 -17 16.5 -41 q0 -24 -16.5 -41 q-16.5 -17 -40.5 -17 ZM392 612 q-23 0 -39.5 17 q-16.5 17 -16.5 41 q0 24 16.5 41 q16.5 17 39.5 17 q24 0 40.5 -17 q16.5 -17 16.5 -41 q0 -24 -16.5 -41 q-16.5 -17 -40.5 -17 ZM418 520 l85 0 l0 -520 l-75 0 q-2 51 -6 85 q-26 -48 -71 -72 q-45 -24 -98 -24 q-83 0 -133 55 q-50 55 -50 156 l0 320 l85 0 l0 -297 q0 -74 29.5 -114 q29.5 -40 86.5 -40 q38 0 71.5 17.5 q33.5 17.5 54.5 52.5 q21 35 21 86 l0 295 Z" /><glyph glyph-name="uni01DC" unicode="&#x1dc;" d="M167 903 l94 0 l73 -137 l-75 0 l-92 137 ZM187 612 q-23 0 -39.5 17 q-16.5 17 -16.5 41 q0 24 16.5 41 q16.5 17 39.5 17 q24 0 40.5 -17 q16.5 -17 16.5 -41 q0 -24 -16.5 -41 q-16.5 -17 -40.5 -17 ZM392 612 q-23 0 -39.5 17 q-16.5 17 -16.5 41 q0 24 16.5 41 q16.5 17 39.5 17 q24 0 40.5 -17 q16.5 -17 16.5 -41 q0 -24 -16.5 -41 q-16.5 -17 -40.5 -17 ZM418 520 l85 0 l0 -520 l-75 0 q-2 51 -6 85 q-26 -48 -71 -72 q-45 -24 -98 -24 q-83 0 -133 55 q-50 55 -50 156 l0 320 l85 0 l0 -297 q0 -74 29.5 -114 q29.5 -40 86.5 -40 q38 0 71.5 17.5 q33.5 17.5 54.5 52.5 q21 35 21 86 l0 295 Z" /><glyph glyph-name="uni01D6" unicode="&#x1d6;" d="M130 797 l0 74 l320 0 l0 -74 l-320 0 ZM187 612 q-23 0 -39.5 17 q-16.5 17 -16.5 41 q0 24 16.5 41 q16.5 17 39.5 17 q24 0 40.5 -17 q16.5 -17 16.5 -41 q0 -24 -16.5 -41 q-16.5 -17 -40.5 -17 ZM392 612 q-23 0 -39.5 17 q-16.5 17 -16.5 41 q0 24 16.5 41 q16.5 17 39.5 17 q24 0 40.5 -17 q16.5 -17 16.5 -41 q0 -24 -16.5 -41 q-16.5 -17 -40.5 -17 ZM418 520 l85 0 l0 -520 l-75 0 q-2 51 -6 85 q-26 -48 -71 -72 q-45 -24 -98 -24 q-83 0 -133 55 q-50 55 -50 156 l0 320 l85 0 l0 -297 q0 -74 29.5 -114 q29.5 -40 86.5 -40 q38 0 71.5 17.5 q33.5 17.5 54.5 52.5 q21 35 21 86 l0 295 Z" /><glyph glyph-name="uni1EE5" unicode="&#x1ee5;" d="M418 520 l85 0 l0 -520 l-75 0 q-2 51 -6 85 q-26 -48 -71 -72 q-45 -24 -98 -24 q-83 0 -133 55 q-50 55 -50 156 l0 320 l85 0 l0 -297 q0 -74 29.5 -114 q29.5 -40 86.5 -40 q38 0 71.5 17.5 q33.5 17.5 54.5 52.5 q21 35 21 86 l0 295 ZM291 -188 q-23 0 -39.5 17.5 q-16.5 17.5 -16.5 40.5 q0 23 16.5 40.5 q16.5 17.5 39.5 17.5 q24 0 40.5 -17 q16.5 -17 16.5 -41 q0 -23 -17 -40.5 q-17 -17.5 -40 -17.5 Z" /><glyph glyph-name="ugrave" unicode="ù" d="M158 747 l94 0 l82 -154 l-75 0 l-101 154 ZM418 520 l85 0 l0 -520 l-75 0 q-2 51 -6 85 q-26 -48 -71 -72 q-45 -24 -98 -24 q-83 0 -133 55 q-50 55 -50 156 l0 320 l85 0 l0 -297 q0 -74 29.5 -114 q29.5 -40 86.5 -40 q38 0 71.5 17.5 q33.5 17.5 54.5 52.5 q21 35 21 86 l0 295 Z" /><glyph glyph-name="uni1EE7" unicode="&#x1ee7;" d="M200 748 q32 20 77 20 q45 0 74.5 -22 q29.5 -22 29.5 -65 q0 -75 -96 -108 l-36 47 q29 11 44 23 q15 12 15 29 q0 16 -12.5 26 q-12.5 10 -32.5 10 q-25 0 -52 -16 l-11 56 ZM418 520 l85 0 l0 -520 l-75 0 q-2 51 -6 85 q-26 -48 -71 -72 q-45 -24 -98 -24 q-83 0 -133 55 q-50 55 -50 156 l0 320 l85 0 l0 -297 q0 -74 29.5 -114 q29.5 -40 86.5 -40 q38 0 71.5 17.5 q33.5 17.5 54.5 52.5 q21 35 21 86 l0 295 Z" /><glyph glyph-name="uhorn" unicode="&#x1b0;" d="M619 582 q0 -66 -28.5 -93 q-28.5 -27 -87.5 -32 l0 -457 l-75 0 q-2 51 -6 85 q-26 -48 -71 -72 q-45 -24 -98 -24 q-83 0 -133 55 q-50 55 -50 156 l0 320 l85 0 l0 -297 q0 -74 29.5 -114 q29.5 -40 86.5 -40 q38 0 71.5 17.5 q33.5 17.5 54.5 52.5 q21 35 21 86 l0 295 l59 0 q34 3 49.5 18 q15.5 15 15.5 50 q0 28 -7 57 l77 0 q7 -32 7 -63 Z" /><glyph glyph-name="uni1EE9" unicode="&#x1ee9;" d="M246 593 l82 154 l94 0 l-101 -154 l-75 0 ZM619 582 q0 -66 -28.5 -93 q-28.5 -27 -87.5 -32 l0 -457 l-75 0 q-2 51 -6 85 q-26 -48 -71 -72 q-45 -24 -98 -24 q-83 0 -133 55 q-50 55 -50 156 l0 320 l85 0 l0 -297 q0 -74 29.5 -114 q29.5 -40 86.5 -40 q38 0 71.5 17.5 q33.5 17.5 54.5 52.5 q21 35 21 86 l0 295 l59 0 q34 3 49.5 18 q15.5 15 15.5 50 q0 28 -7 57 l77 0 q7 -32 7 -63 Z" /><glyph glyph-name="uni1EF1" unicode="&#x1ef1;" d="M619 582 q0 -66 -28.5 -93 q-28.5 -27 -87.5 -32 l0 -457 l-75 0 q-2 51 -6 85 q-26 -48 -71 -72 q-45 -24 -98 -24 q-83 0 -133 55 q-50 55 -50 156 l0 320 l85 0 l0 -297 q0 -74 29.5 -114 q29.5 -40 86.5 -40 q38 0 71.5 17.5 q33.5 17.5 54.5 52.5 q21 35 21 86 l0 295 l59 0 q34 3 49.5 18 q15.5 15 15.5 50 q0 28 -7 57 l77 0 q7 -32 7 -63 ZM291 -188 q-23 0 -39.5 17.5 q-16.5 17.5 -16.5 40.5 q0 23 16.5 40.5 q16.5 17.5 39.5 17.5 q24 0 40.5 -17 q16.5 -17 16.5 -41 q0 -23 -17 -40.5 q-17 -17.5 -40 -17.5 Z" /><glyph glyph-name="uni1EEB" unicode="&#x1eeb;" d="M158 747 l94 0 l82 -154 l-75 0 l-101 154 ZM619 582 q0 -66 -28.5 -93 q-28.5 -27 -87.5 -32 l0 -457 l-75 0 q-2 51 -6 85 q-26 -48 -71 -72 q-45 -24 -98 -24 q-83 0 -133 55 q-50 55 -50 156 l0 320 l85 0 l0 -297 q0 -74 29.5 -114 q29.5 -40 86.5 -40 q38 0 71.5 17.5 q33.5 17.5 54.5 52.5 q21 35 21 86 l0 295 l59 0 q34 3 49.5 18 q15.5 15 15.5 50 q0 28 -7 57 l77 0 q7 -32 7 -63 Z" /><glyph glyph-name="uni1EED" unicode="&#x1eed;" d="M200 748 q32 20 77 20 q45 0 74.5 -22 q29.5 -22 29.5 -65 q0 -75 -96 -108 l-36 47 q29 11 44 23 q15 12 15 29 q0 16 -12.5 26 q-12.5 10 -32.5 10 q-25 0 -52 -16 l-11 56 ZM619 582 q0 -66 -28.5 -93 q-28.5 -27 -87.5 -32 l0 -457 l-75 0 q-2 51 -6 85 q-26 -48 -71 -72 q-45 -24 -98 -24 q-83 0 -133 55 q-50 55 -50 156 l0 320 l85 0 l0 -297 q0 -74 29.5 -114 q29.5 -40 86.5 -40 q38 0 71.5 17.5 q33.5 17.5 54.5 52.5 q21 35 21 86 l0 295 l59 0 q34 3 49.5 18 q15.5 15 15.5 50 q0 28 -7 57 l77 0 q7 -32 7 -63 Z" /><glyph glyph-name="uni1EEF" unicode="&#x1eef;" d="M125 613 q2 57 30 92 q28 35 73 35 q28 0 45 -10.5 q17 -10.5 36 -30.5 q13 -13 21 -19 q8 -6 18 -6 q15 0 24.5 15 q9.5 15 12.5 38 l70 0 q-2 -57 -30 -92 q-28 -35 -73 -35 q-28 0 -45 10.5 q-17 10.5 -36 30.5 q-13 13 -21 19 q-8 6 -18 6 q-29 0 -37 -53 l-70 0 ZM619 582 q0 -66 -28.5 -93 q-28.5 -27 -87.5 -32 l0 -457 l-75 0 q-2 51 -6 85 q-26 -48 -71 -72 q-45 -24 -98 -24 q-83 0 -133 55 q-50 55 -50 156 l0 320 l85 0 l0 -297 q0 -74 29.5 -114 q29.5 -40 86.5 -40 q38 0 71.5 17.5 q33.5 17.5 54.5 52.5 q21 35 21 86 l0 295 l59 0 q34 3 49.5 18 q15.5 15 15.5 50 q0 28 -7 57 l77 0 q7 -32 7 -63 Z" /><glyph glyph-name="uhungarumlaut" unicode="&#x171;" d="M174 593 l82 154 l92 0 l-101 -154 l-73 0 ZM325 593 l82 154 l92 0 l-101 -154 l-73 0 ZM418 520 l85 0 l0 -520 l-75 0 q-2 51 -6 85 q-26 -48 -71 -72 q-45 -24 -98 -24 q-83 0 -133 55 q-50 55 -50 156 l0 320 l85 0 l0 -297 q0 -74 29.5 -114 q29.5 -40 86.5 -40 q38 0 71.5 17.5 q33.5 17.5 54.5 52.5 q21 35 21 86 l0 295 Z" /><glyph glyph-name="umacron" unicode="&#x16b;" d="M130 633 l0 74 l320 0 l0 -74 l-320 0 ZM418 520 l85 0 l0 -520 l-75 0 q-2 51 -6 85 q-26 -48 -71 -72 q-45 -24 -98 -24 q-83 0 -133 55 q-50 55 -50 156 l0 320 l85 0 l0 -297 q0 -74 29.5 -114 q29.5 -40 86.5 -40 q38 0 71.5 17.5 q33.5 17.5 54.5 52.5 q21 35 21 86 l0 295 Z" /><glyph glyph-name="uogonek" unicode="&#x173;" d="M558 -193 q-19 -24 -48 -37.5 q-29 -13.5 -64 -13.5 q-52 0 -89 29 q-37 29 -37 83 q0 47 29.5 83 q29.5 36 77.5 65 q-1 33 -5 69 q-26 -48 -71 -72 q-45 -24 -98 -24 q-83 0 -133 55 q-50 55 -50 156 l0 320 l85 0 l0 -297 q0 -74 29.5 -114 q29.5 -40 86.5 -40 q38 0 71.5 17.5 q33.5 17.5 54.5 52.5 q21 35 21 86 l0 295 l85 0 l0 -520 q-57 -32 -83.5 -61 q-26.5 -29 -26.5 -63 q0 -28 15.5 -41.5 q15.5 -13.5 41.5 -13.5 q41 0 75 34 l33 -48 Z" /><glyph glyph-name="uring" unicode="&#x16f;" d="M182 688 q0 46 31 76 q31 30 77 30 q45 0 75 -30 q30 -30 30 -76 q0 -46 -30 -76 q-30 -30 -75 -30 q-46 0 -77 30 q-31 30 -31 76 ZM239 688 q0 -24 14 -39 q14 -15 37 -15 q22 0 35.5 15 q13.5 15 13.5 39 q0 24 -13.5 39 q-13.5 15 -35.5 15 q-23 0 -37 -15 q-14 -15 -14 -39 ZM418 520 l85 0 l0 -520 l-75 0 q-2 51 -6 85 q-26 -48 -71 -72 q-45 -24 -98 -24 q-83 0 -133 55 q-50 55 -50 156 l0 320 l85 0 l0 -297 q0 -74 29.5 -114 q29.5 -40 86.5 -40 q38 0 71.5 17.5 q33.5 17.5 54.5 52.5 q21 35 21 86 l0 295 Z" /><glyph glyph-name="utilde" unicode="&#x169;" d="M125 613 q2 57 30 92 q28 35 73 35 q28 0 45 -10.5 q17 -10.5 36 -30.5 q13 -13 21 -19 q8 -6 18 -6 q15 0 24.5 15 q9.5 15 12.5 38 l70 0 q-2 -57 -30 -92 q-28 -35 -73 -35 q-28 0 -45 10.5 q-17 10.5 -36 30.5 q-13 13 -21 19 q-8 6 -18 6 q-29 0 -37 -53 l-70 0 ZM418 520 l85 0 l0 -520 l-75 0 q-2 51 -6 85 q-26 -48 -71 -72 q-45 -24 -98 -24 q-83 0 -133 55 q-50 55 -50 156 l0 320 l85 0 l0 -297 q0 -74 29.5 -114 q29.5 -40 86.5 -40 q38 0 71.5 17.5 q33.5 17.5 54.5 52.5 q21 35 21 86 l0 295 Z" /><glyph glyph-name="v" unicode="v" d="M107 519 l160 -406 l150 406 l88 0 l-209 -519 l-69 0 l-217 519 l97 0 Z" /><glyph glyph-name="w" unicode="w" d="M426 519 l136 -390 l127 390 l80 0 l-184 -519 l-56 0 l-138 380 l-132 -380 l-58 0 l-191 519 l89 0 l136 -390 l125 390 l66 0 Z" /><glyph glyph-name="wacute" unicode="&#x1e83;" d="M356 593 l82 154 l94 0 l-101 -154 l-75 0 ZM426 519 l136 -390 l127 390 l80 0 l-184 -519 l-56 0 l-138 380 l-132 -380 l-58 0 l-191 519 l89 0 l136 -390 l125 390 l66 0 Z" /><glyph glyph-name="wcircumflex" unicode="&#x175;" d="M359 747 l80 0 l115 -154 l-86 0 l-69 92 l-69 -92 l-86 0 l115 154 ZM426 519 l136 -390 l127 390 l80 0 l-184 -519 l-56 0 l-138 380 l-132 -380 l-58 0 l-191 519 l89 0 l136 -390 l125 390 l66 0 Z" /><glyph glyph-name="wdieresis" unicode="&#x1e85;" d="M297 612 q-23 0 -39.5 17 q-16.5 17 -16.5 41 q0 24 16.5 41 q16.5 17 39.5 17 q24 0 40.5 -17 q16.5 -17 16.5 -41 q0 -24 -16.5 -41 q-16.5 -17 -40.5 -17 ZM502 612 q-23 0 -39.5 17 q-16.5 17 -16.5 41 q0 24 16.5 41 q16.5 17 39.5 17 q24 0 40.5 -17 q16.5 -17 16.5 -41 q0 -24 -16.5 -41 q-16.5 -17 -40.5 -17 ZM426 519 l136 -390 l127 390 l80 0 l-184 -519 l-56 0 l-138 380 l-132 -380 l-58 0 l-191 519 l89 0 l136 -390 l125 390 l66 0 Z" /><glyph glyph-name="wgrave" unicode="&#x1e81;" d="M268 747 l94 0 l82 -154 l-75 0 l-101 154 ZM426 519 l136 -390 l127 390 l80 0 l-184 -519 l-56 0 l-138 380 l-132 -380 l-58 0 l-191 519 l89 0 l136 -390 l125 390 l66 0 Z" /><glyph glyph-name="x" unicode="x" d="M252 327 l137 192 l97 0 l-188 -258 l188 -261 l-104 0 l-134 192 l-138 -192 l-99 0 l190 257 l-190 262 l106 0 l135 -192 Z" /><glyph glyph-name="y" unicode="y" d="M422 519 l88 0 l-243 -613 q-32 -81 -68 -115.5 q-36 -34.5 -101 -34.5 q-61 0 -97 31 l34 69 q11 -9 28.5 -14.5 q17.5 -5.5 34.5 -5.5 q31 0 52.5 21 q21.5 21 46.5 79 l25 58 l-216 525 l98 0 l163 -417 l155 417 Z" /><glyph glyph-name="yacute" unicode="ý" d="M301 747 l94 0 l-101 -154 l-75 0 l82 154 ZM422 519 l88 0 l-243 -613 q-32 -81 -68 -115.5 q-36 -34.5 -101 -34.5 q-61 0 -97 31 l34 69 q11 -9 28.5 -14.5 q17.5 -5.5 34.5 -5.5 q31 0 52.5 21 q21.5 21 46.5 79 l25 58 l-216 525 l98 0 l163 -417 l155 417 Z" /><glyph glyph-name="ycircumflex" unicode="&#x177;" d="M331 593 l-69 92 l-69 -92 l-86 0 l115 154 l80 0 l115 -154 l-86 0 ZM422 519 l88 0 l-243 -613 q-32 -81 -68 -115.5 q-36 -34.5 -101 -34.5 q-61 0 -97 31 l34 69 q11 -9 28.5 -14.5 q17.5 -5.5 34.5 -5.5 q31 0 52.5 21 q21.5 21 46.5 79 l25 58 l-216 525 l98 0 l163 -417 l155 417 Z" /><glyph glyph-name="ydieresis" unicode="ÿ" d="M160 612 q-23 0 -39.5 17 q-16.5 17 -16.5 41 q0 24 16.5 41 q16.5 17 39.5 17 q24 0 40.5 -17 q16.5 -17 16.5 -41 q0 -24 -16.5 -41 q-16.5 -17 -40.5 -17 ZM365 612 q-23 0 -39.5 17 q-16.5 17 -16.5 41 q0 24 16.5 41 q16.5 17 39.5 17 q24 0 40.5 -17 q16.5 -17 16.5 -41 q0 -24 -16.5 -41 q-16.5 -17 -40.5 -17 ZM422 519 l88 0 l-243 -613 q-32 -81 -68 -115.5 q-36 -34.5 -101 -34.5 q-61 0 -97 31 l34 69 q11 -9 28.5 -14.5 q17.5 -5.5 34.5 -5.5 q31 0 52.5 21 q21.5 21 46.5 79 l25 58 l-216 525 l98 0 l163 -417 l155 417 Z" /><glyph glyph-name="uni1EF5" unicode="&#x1ef5;" d="M422 519 l88 0 l-243 -613 q-32 -81 -68 -115.5 q-36 -34.5 -101 -34.5 q-61 0 -97 31 l34 69 q11 -9 28.5 -14.5 q17.5 -5.5 34.5 -5.5 q31 0 52.5 21 q21.5 21 46.5 79 l25 58 l-216 525 l98 0 l163 -417 l155 417 ZM416 -72 q24 0 40.5 -17 q16.5 -17 16.5 -41 q0 -23 -17 -40.5 q-17 -17.5 -40 -17.5 q-23 0 -39.5 17.5 q-16.5 17.5 -16.5 40.5 q0 23 16.5 40.5 q16.5 17.5 39.5 17.5 Z" /><glyph glyph-name="ygrave" unicode="&#x1ef3;" d="M225 747 l82 -154 l-75 0 l-101 154 l94 0 ZM422 519 l88 0 l-243 -613 q-32 -81 -68 -115.5 q-36 -34.5 -101 -34.5 q-61 0 -97 31 l34 69 q11 -9 28.5 -14.5 q17.5 -5.5 34.5 -5.5 q31 0 52.5 21 q21.5 21 46.5 79 l25 58 l-216 525 l98 0 l163 -417 l155 417 Z" /><glyph glyph-name="uni1EF7" unicode="&#x1ef7;" d="M236 708 q-25 0 -52 -16 l-11 56 q32 20 77 20 q45 0 74.5 -22 q29.5 -22 29.5 -65 q0 -75 -96 -108 l-36 47 q29 11 44 23 q15 12 15 29 q0 16 -12.5 26 q-12.5 10 -32.5 10 ZM422 519 l88 0 l-243 -613 q-32 -81 -68 -115.5 q-36 -34.5 -101 -34.5 q-61 0 -97 31 l34 69 q11 -9 28.5 -14.5 q17.5 -5.5 34.5 -5.5 q31 0 52.5 21 q21.5 21 46.5 79 l25 58 l-216 525 l98 0 l163 -417 l155 417 Z" /><glyph glyph-name="uni1EF9" unicode="&#x1ef9;" d="M205 666 q-29 0 -37 -53 l-70 0 q2 57 30 92 q28 35 73 35 q28 0 45 -10.5 q17 -10.5 36 -30.5 q13 -13 21 -19 q8 -6 18 -6 q15 0 24.5 15 q9.5 15 12.5 38 l70 0 q-2 -57 -30 -92 q-28 -35 -73 -35 q-28 0 -45 10.5 q-17 10.5 -36 30.5 q-13 13 -21 19 q-8 6 -18 6 ZM422 519 l88 0 l-243 -613 q-32 -81 -68 -115.5 q-36 -34.5 -101 -34.5 q-61 0 -97 31 l34 69 q11 -9 28.5 -14.5 q17.5 -5.5 34.5 -5.5 q31 0 52.5 21 q21.5 21 46.5 79 l25 58 l-216 525 l98 0 l163 -417 l155 417 Z" /><glyph glyph-name="z" unicode="z" d="M429 519 l0 -45 l-278 -402 l289 0 l0 -72 l-407 0 l0 46 l280 401 l-263 0 l0 72 l379 0 Z" /><glyph glyph-name="zacute" unicode="&#x17a;" d="M196 593 l82 154 l94 0 l-101 -154 l-75 0 ZM429 519 l0 -45 l-278 -402 l289 0 l0 -72 l-407 0 l0 46 l280 401 l-256 0 l0 72 l372 0 Z" /><glyph glyph-name="zcaron" unicode="&#x17e;" d="M171 747 l69 -93 l68 93 l86 0 l-115 -154 l-79 0 l-115 154 l86 0 ZM429 519 l0 -45 l-278 -402 l289 0 l0 -72 l-407 0 l0 46 l280 401 l-256 0 l0 72 l372 0 Z" /><glyph glyph-name="zdotaccent" unicode="&#x17c;" d="M240 612 q-23 0 -39.5 17.5 q-16.5 17.5 -16.5 40.5 q0 23 16.5 40.5 q16.5 17.5 39.5 17.5 q24 0 40.5 -17 q16.5 -17 16.5 -41 q0 -23 -17 -40.5 q-17 -17.5 -40 -17.5 ZM429 519 l0 -45 l-278 -402 l289 0 l0 -72 l-407 0 l0 46 l280 401 l-256 0 l0 72 l372 0 Z" /><glyph glyph-name="ordfeminine" unicode="ª" d="M202 741 q66 0 107.5 -42 q41.5 -42 41.5 -116 l0 -233 l-61 0 q0 20 -3 41 q-18 -24 -46.5 -36.5 q-28.5 -12.5 -63.5 -12.5 q-58 0 -98.5 31.5 q-40.5 31.5 -40.5 87.5 q0 56 46 89 q46 33 118 33 q40 0 80 -10 q0 56 -19 82 q-19 26 -65 26 q-32 0 -54.5 -14.5 q-22.5 -14.5 -38.5 -43.5 l-51 29 q18 41 58 65 q40 24 90 24 ZM183 399 q40 0 69.5 24 q29.5 24 29.5 68 l0 30 q-42 9 -75 9 q-46 0 -70 -18 q-24 -18 -24 -51 q0 -30 19.5 -46 q19.5 -16 50.5 -16 Z" /><glyph glyph-name="ordmasculine" unicode="º" d="M33 541 q0 60 25 105.5 q25 45.5 67 70 q42 24.5 91 24.5 q49 0 90.5 -24.5 q41.5 -24.5 66.5 -70 q25 -45.5 25 -105.5 q0 -60 -25 -105 q-25 -45 -66.5 -69.5 q-41.5 -24.5 -90.5 -24.5 q-49 0 -91 24.5 q-42 24.5 -67 69.5 q-25 45 -25 105 ZM108 541 q0 -64 30.5 -101.5 q30.5 -37.5 77.5 -37.5 q47 0 77 37.5 q30 37.5 30 101.5 q0 65 -30.5 102.5 q-30.5 37.5 -76.5 37.5 q-47 0 -77.5 -37.5 q-30.5 -37.5 -30.5 -102.5 Z" /><glyph glyph-name="uni207F" unicode="&#x207f;" d="M240 741 q62 0 99.5 -40 q37.5 -40 37.5 -115 l0 -236 l-69 0 l0 218 q0 113 -84 113 q-42 0 -69.5 -29 q-27.5 -29 -27.5 -85 l0 -217 l-69 0 l0 382 l59 0 q0 -2 3 -59 q18 34 49.5 51 q31.5 17 70.5 17 Z" /><glyph glyph-name="uni0410" unicode="&#x410;" d="M363 732 l294 -732 l-99 0 l-81 210 l-303 0 l-77 -210 l-90 0 l281 732 l75 0 ZM446 290 l-124 323 l-118 -323 l242 0 Z" /><glyph glyph-name="uni0411" unicode="&#x411;" d="M349 423 q128 0 196.5 -57.5 q68.5 -57.5 68.5 -155.5 q0 -99 -67.5 -154.5 q-67.5 -55.5 -197.5 -55.5 l-262 0 l0 733 l454 0 l0 -80 l-365 0 l0 -230 l173 0 ZM332 78 q94 0 140.5 35 q46.5 35 46.5 97 q0 62 -47 98.5 q-47 36.5 -140 36.5 l-156 0 l0 -267 l156 0 Z" /><glyph glyph-name="uni0412" unicode="&#x412;" d="M477 384 q137 -39 137 -177 q0 -98 -67 -152.5 q-67 -54.5 -198 -54.5 l-262 0 l0 732 l231 0 q77 0 134 -24 q57 -24 88 -69 q31 -45 31 -105 q0 -105 -94 -150 ZM176 653 l0 -240 l126 0 q83 0 128.5 32 q45.5 32 45.5 89 q0 55 -46 87 q-46 32 -128 32 l-126 0 ZM332 78 q94 0 140.5 34 q46.5 34 46.5 95 q0 62 -46.5 97 q-46.5 35 -140.5 35 l-156 0 l0 -261 l156 0 Z" /><glyph glyph-name="uni0413" unicode="&#x413;" d="M87 733 l449 0 l0 -80 l-360 0 l0 -653 l-89 0 l0 733 Z" /><glyph glyph-name="uni0403" unicode="&#x403;" d="M276 806 l82 122 l94 0 l-101 -122 l-75 0 ZM87 733 l449 0 l0 -80 l-360 0 l0 -653 l-89 0 l0 733 Z" /><glyph glyph-name="uni0490" unicode="&#x490;" d="M87 733 l370 0 l18 137 l73 0 l-13 -217 l-359 0 l0 -653 l-89 0 l0 733 Z" /><glyph glyph-name="uni0414" unicode="&#x414;" d="M657 80 l81 0 l-8 -252 l-73 0 l-5 172 l-553 0 l-5 -172 l-73 0 l-8 252 l41 0 q46 0 75 28.5 q29 28.5 45 90 q16 61.5 23 165.5 l23 368 l437 0 l0 -652 ZM567 80 l0 572 l-262 0 l-19 -297 q-6 -102 -23 -169.5 q-17 -67.5 -50 -105.5 l354 0 Z" /><glyph glyph-name="uni0415" unicode="&#x415;" d="M498 339 l-322 0 l0 -260 l371 0 l0 -79 l-460 0 l0 733 l449 0 l0 -79 l-360 0 l0 -236 l322 0 l0 -79 Z" /><glyph glyph-name="uni0400" unicode="&#x400;" d="M167 928 l94 0 l82 -118 l-75 0 l-101 118 ZM498 339 l-322 0 l0 -260 l371 0 l0 -79 l-460 0 l0 733 l449 0 l0 -79 l-360 0 l0 -236 l322 0 l0 -79 Z" /><glyph glyph-name="uni0401" unicode="&#x401;" d="M209 829 q-23 0 -39.5 14.5 q-16.5 14.5 -16.5 35.5 q0 20 16.5 34.5 q16.5 14.5 39.5 14.5 q24 0 40.5 -14.5 q16.5 -14.5 16.5 -34.5 q0 -21 -16.5 -35.5 q-16.5 -14.5 -40.5 -14.5 ZM414 829 q-23 0 -39.5 14.5 q-16.5 14.5 -16.5 35.5 q0 20 16.5 34.5 q16.5 14.5 39.5 14.5 q24 0 40.5 -14.5 q16.5 -14.5 16.5 -34.5 q0 -21 -16.5 -35.5 q-16.5 -14.5 -40.5 -14.5 ZM498 339 l-322 0 l0 -260 l371 0 l0 -79 l-460 0 l0 733 l449 0 l0 -79 l-360 0 l0 -236 l322 0 l0 -79 Z" /><glyph glyph-name="uni0416" unicode="&#x416;" d="M738 376 l275 -376 l-120 0 l-236 334 l-105 0 l0 -334 l-89 0 l0 334 l-108 0 l-236 -334 l-117 0 l275 376 l-257 356 l108 0 l229 -318 l106 0 l0 318 l89 0 l0 -318 l110 0 l229 318 l104 0 l-257 -356 Z" /><glyph glyph-name="uni0417" unicode="&#x417;" d="M395 391 q73 -21 109 -69.5 q36 -48.5 36 -115.5 q0 -65 -31 -114 q-31 -49 -89 -76 q-58 -27 -136 -27 q-94 0 -161 41 q-67 41 -94 126 l72 41 q22 -65 70 -96 q48 -31 113 -31 q74 0 117.5 37.5 q43.5 37.5 43.5 99.5 q0 64 -49.5 99.5 q-49.5 35.5 -150.5 35.5 l-31 0 l1 80 l35 0 q82 0 121.5 36.5 q39.5 36.5 39.5 90.5 q0 52 -37 83.5 q-37 31.5 -96 31.5 q-116 0 -166 -129 l-72 41 q29 85 91.5 127 q62.5 42 151.5 42 q70 0 120.5 -25 q50.5 -25 76.5 -68.5 q26 -43.5 26 -97.5 q0 -53 -26.5 -96.5 q-26.5 -43.5 -84.5 -66.5 Z" /><glyph glyph-name="uni0418" unicode="&#x418;" d="M578 733 l75 0 l0 -732 l-84 0 l0 577 l-407 -577 l-75 0 l0 732 l84 0 l0 -577 l407 577 Z" /><glyph glyph-name="uni0419" unicode="&#x419;" d="M370 811 q-71 0 -111.5 31 q-40.5 31 -40.5 86 l78 0 q2 -32 21 -49.5 q19 -17.5 53 -17.5 q35 0 54 17.5 q19 17.5 21 49.5 l78 0 q0 -55 -40.5 -86 q-40.5 -31 -112.5 -31 ZM578 733 l75 0 l0 -732 l-84 0 l0 577 l-407 -577 l-75 0 l0 732 l84 0 l0 -577 l407 577 Z" /><glyph glyph-name="uni040D" unicode="&#x40d;" d="M238 928 l94 0 l82 -122 l-75 0 l-101 122 ZM578 733 l75 0 l0 -732 l-84 0 l0 577 l-407 -577 l-75 0 l0 732 l84 0 l0 -577 l407 577 Z" /><glyph glyph-name="uni041A" unicode="&#x41a;" d="M363 376 l296 -376 l-121 0 l-255 334 l-107 0 l0 -334 l-89 0 l0 732 l89 0 l0 -318 l113 0 l247 318 l105 0 l-278 -356 Z" /><glyph glyph-name="uni040C" unicode="&#x40c;" d="M312 811 l82 117 l94 0 l-101 -117 l-75 0 ZM363 376 l296 -376 l-121 0 l-255 334 l-107 0 l0 -334 l-89 0 l0 732 l89 0 l0 -318 l113 0 l247 318 l105 0 l-278 -356 Z" /><glyph glyph-name="uni041B" unicode="&#x41b;" d="M651 732 l0 -732 l-90 0 l0 652 l-315 0 l-16 -410 q-4 -98 -24 -152 q-20 -54 -64 -77.5 q-44 -23.5 -122 -23.5 l0 82 q46 0 70.5 16.5 q24.5 16.5 35.5 54.5 q11 38 14 109 l19 481 l492 0 Z" /><glyph glyph-name="uni041C" unicode="&#x41c;" d="M704 732 l73 0 l0 -732 l-87 0 l0 558 l-231 -369 l-53 0 l-233 371 l0 -560 l-86 0 l0 732 l78 0 l270 -435 l269 435 Z" /><glyph glyph-name="uni041D" unicode="&#x41d;" d="M176 420 l392 0 l0 312 l90 0 l0 -732 l-90 0 l0 340 l-392 0 l0 -340 l-89 0 l0 732 l89 0 l0 -312 Z" /><glyph glyph-name="uni041E" unicode="&#x41e;" d="M50 367 q0 113 43 199 q43 86 118.5 132 q75.5 46 169.5 46 q94 0 169.5 -46.5 q75.5 -46.5 118.5 -132 q43 -85.5 43 -198.5 q0 -114 -43.5 -199.5 q-43.5 -85.5 -118.5 -132 q-75 -46.5 -169 -46.5 q-94 0 -169.5 46 q-75.5 46 -118.5 132 q-43 86 -43 200 ZM144 367 q0 -87 28.5 -154 q28.5 -67 82.5 -104.5 q54 -37.5 126 -37.5 q72 0 125.5 37.5 q53.5 37.5 82 104.5 q28.5 67 28.5 154 q0 88 -29 155 q-29 67 -82.5 104 q-53.5 37 -124.5 37 q-72 0 -125.5 -37 q-53.5 -37 -82.5 -104 q-29 -67 -29 -155 Z" /><glyph glyph-name="uni041F" unicode="&#x41f;" d="M87 732 l568 0 l0 -732 l-90 0 l0 652 l-389 0 l0 -652 l-89 0 l0 732 Z" /><glyph glyph-name="uni0420" unicode="&#x420;" d="M312 732 q74 0 132.5 -29 q58.5 -29 91.5 -80.5 q33 -51.5 33 -117.5 q0 -66 -32.5 -117.5 q-32.5 -51.5 -91 -80 q-58.5 -28.5 -133.5 -28.5 l-136 0 l0 -279 l-89 0 l0 732 l225 0 ZM300 357 q84 0 128.5 41.5 q44.5 41.5 44.5 106.5 q0 65 -44.5 107 q-44.5 42 -128.5 42 l-124 0 l0 -297 l124 0 Z" /><glyph glyph-name="uni0421" unicode="&#x421;" d="M381 71 q120 0 176 111 l72 -42 q-31 -71 -96 -111 q-65 -40 -150 -40 q-93 0 -169 48 q-76 48 -120 134 q-44 86 -44 196 q0 110 44 196 q44 86 120 133.5 q76 47.5 169 47.5 q85 0 150 -40 q65 -40 96 -111 l-72 -42 q-56 111 -176 111 q-70 0 -124 -37 q-54 -37 -83.5 -104 q-29.5 -67 -29.5 -154 q0 -87 29.5 -154.5 q29.5 -67.5 83.5 -104.5 q54 -37 124 -37 Z" /><glyph glyph-name="uni0422" unicode="&#x422;" d="M12 732 l545 0 l0 -79 l-228 0 l0 -653 l-90 0 l0 653 l-227 0 l0 79 Z" /><glyph glyph-name="uni0423" unicode="&#x423;" d="M321 306 l193 427 l95 0 l-252 -532 q-55 -116 -108.5 -164 q-53.5 -48 -123.5 -48 q-53 0 -84 23 l0 83 q35 -24 81 -24 q31 0 54 12 q23 12 46 41 q23 29 52 84 l-267 525 l104 0 l210 -427 Z" /><glyph glyph-name="uni040E" unicode="&#x40e;" d="M313 811 q-71 0 -111.5 31 q-40.5 31 -40.5 86 l78 0 q2 -32 21 -49.5 q19 -17.5 53 -17.5 q35 0 54 17.5 q19 17.5 21 49.5 l78 0 q0 -55 -40.5 -86 q-40.5 -31 -112.5 -31 ZM321 306 l193 427 l95 0 l-252 -532 q-55 -116 -108.5 -164 q-53.5 -48 -123.5 -48 q-53 0 -84 23 l0 83 q35 -24 81 -24 q31 0 54 12 q23 12 46 41 q23 29 52 84 l-267 525 l104 0 l210 -427 Z" /><glyph glyph-name="uni0424" unicode="&#x424;" d="M762 367 q0 -83 -42.5 -145.5 q-42.5 -62.5 -114.5 -98 q-72 -35.5 -160 -43.5 l0 -80 l-89 0 l0 80 q-89 7 -161 42.5 q-72 35.5 -114.5 98 q-42.5 62.5 -42.5 146.5 q0 84 42.5 146 q42.5 62 114.5 97.5 q72 35.5 161 42.5 l0 79 l89 0 l0 -79 q88 -8 160 -43.5 q72 -35.5 114.5 -97.5 q42.5 -62 42.5 -145 ZM132 367 q0 -94 61 -145 q61 -51 163 -60 l0 410 q-102 -9 -163 -60 q-61 -51 -61 -145 ZM445 162 q101 9 161.5 60 q60.5 51 60.5 145 q0 94 -60.5 145 q-60.5 51 -161.5 60 l0 -410 Z" /><glyph glyph-name="uni0425" unicode="&#x425;" d="M639 732 l-259 -361 l266 -371 l-109 0 l-212 299 l-210 -299 l-103 0 l266 370 l-259 362 l110 0 l204 -291 l203 291 l103 0 Z" /><glyph glyph-name="uni0427" unicode="&#x427;" d="M483 732 l90 0 l0 -732 l-90 0 l0 340 q-33 -42 -84 -62.5 q-51 -20.5 -113 -20.5 q-108 0 -173.5 58.5 q-65.5 58.5 -65.5 176.5 l0 240 l89 0 l0 -220 q0 -88 39 -130.5 q39 -42.5 118 -42.5 q81 0 135.5 43 q54.5 43 54.5 131 l0 219 Z" /><glyph glyph-name="uni0426" unicode="&#x426;" d="M655 732 l0 -652 l81 0 l-8 -252 l-73 0 l-5 172 l-563 0 l0 732 l89 0 l0 -652 l389 0 l0 652 l90 0 Z" /><glyph glyph-name="uni0428" unicode="&#x428;" d="M547 80 l280 0 l0 652 l89 0 l0 -732 l-829 0 l0 732 l89 0 l0 -652 l281 0 l-1 652 l90 0 l1 -652 Z" /><glyph glyph-name="uni0429" unicode="&#x429;" d="M826 732 l90 0 l0 -652 l72 0 l-8 -252 l-73 0 l-5 172 l-815 0 l0 732 l89 0 l0 -652 l281 0 l-1 652 l90 0 l1 -652 l279 0 l0 652 Z" /><glyph glyph-name="uni040F" unicode="&#x40f;" d="M176 80 l389 0 l0 652 l90 0 l0 -732 l-242 0 l-5 -172 l-73 0 l-5 172 l-243 0 l0 732 l89 0 l0 -652 Z" /><glyph glyph-name="uni042C" unicode="&#x42c;" d="M349 423 q128 0 196.5 -57.5 q68.5 -57.5 68.5 -155.5 q0 -99 -67.5 -154.5 q-67.5 -55.5 -197.5 -55.5 l-262 0 l0 733 l89 0 l0 -310 l173 0 ZM332 78 q94 0 140.5 35 q46.5 35 46.5 97 q0 62 -47 98.5 q-47 36.5 -140 36.5 l-156 0 l0 -267 l156 0 Z" /><glyph glyph-name="uni042A" unicode="&#x42a;" d="M476 423 q128 0 196.5 -57.5 q68.5 -57.5 68.5 -155.5 q0 -99 -67.5 -154.5 q-67.5 -55.5 -197.5 -55.5 l-262 0 l0 653 l-202 0 l0 80 l291 0 l0 -310 l173 0 ZM459 78 q94 0 140.5 35 q46.5 35 46.5 97 q0 62 -47 98.5 q-47 36.5 -140 36.5 l-156 0 l0 -267 l156 0 Z" /><glyph glyph-name="uni042B" unicode="&#x42b;" d="M349 423 q128 0 196.5 -57.5 q68.5 -57.5 68.5 -155.5 q0 -99 -67.5 -154.5 q-67.5 -55.5 -197.5 -55.5 l-262 0 l0 733 l89 0 l0 -310 l173 0 ZM806 0 l-89 0 l0 733 l89 0 l0 -733 ZM332 78 q94 0 140.5 35 q46.5 35 46.5 97 q0 62 -47 98.5 q-47 36.5 -140 36.5 l-156 0 l0 -267 l156 0 Z" /><glyph glyph-name="uni0409" unicode="&#x409;" d="M825 423 q128 0 196.5 -57.5 q68.5 -57.5 68.5 -155.5 q0 -99 -67.5 -154.5 q-67.5 -55.5 -197.5 -55.5 l-262 0 l0 652 l-317 0 l-16 -416 q-4 -95 -24 -148 q-20 -53 -64 -76 q-44 -23 -122 -23 l0 82 q46 0 70.5 16.5 q24.5 16.5 35.5 53 q11 36.5 14 104.5 l19 487 l493 1 l0 -310 l173 0 ZM808 78 q94 0 140.5 35 q46.5 35 46.5 97 q0 62 -47 98.5 q-47 36.5 -140 36.5 l-156 0 l0 -267 l156 0 Z" /><glyph glyph-name="uni040A" unicode="&#x40a;" d="M831 420 q129 0 197 -56.5 q68 -56.5 68 -154.5 q0 -99 -67.5 -154 q-67.5 -55 -197.5 -55 l-263 0 l0 340 l-392 0 l0 -340 l-89 0 l0 732 l89 0 l0 -312 l392 0 l0 312 l90 0 l0 -312 l173 0 ZM814 78 q94 0 140.5 35 q46.5 35 46.5 96 q0 62 -46.5 97.5 q-46.5 35.5 -140.5 35.5 l-156 0 l0 -264 l156 0 Z" /><glyph glyph-name="uni0405" unicode="&#x405;" d="M547 199 q0 -61 -29.5 -108.5 q-29.5 -47.5 -85 -74.5 q-55.5 -27 -132.5 -27 q-107 0 -183 50 q-76 50 -100 133 l72 42 q27 -69 80 -106 q53 -37 132 -37 q72 0 111 31 q39 31 39 86 q0 44 -24.5 72 q-24.5 28 -60.5 44 q-36 16 -99 36 q-72 23 -115 43 q-43 20 -73.5 59 q-30.5 39 -30.5 101 q0 63 32 108.5 q32 45.5 88.5 69 q56.5 23.5 126.5 23.5 q98 0 158.5 -43 q60.5 -43 81.5 -109 l-72 -42 q-23 53 -63.5 83 q-40.5 30 -107.5 30 q-68 0 -108.5 -30 q-40.5 -30 -40.5 -82 q0 -38 23 -63 q23 -25 57 -40 q34 -15 94 -34 q74 -23 119.5 -44.5 q45.5 -21.5 78 -63 q32.5 -41.5 32.5 -107.5 Z" /><glyph glyph-name="uni0404" unicode="&#x404;" d="M381 71 q120 0 176 111 l72 -42 q-31 -71 -96 -111 q-65 -40 -150 -40 q-93 0 -169 48 q-76 48 -120 134 q-44 86 -44 196 q0 110 44 196 q44 86 120 133.5 q76 47.5 169 47.5 q85 0 150 -40 q65 -40 96 -111 l-72 -42 q-56 111 -176 111 q-64 0 -114.5 -31 q-50.5 -31 -82 -87 q-31.5 -56 -38.5 -131 l309 0 l0 -80 l-310 0 q6 -78 37 -137.5 q31 -59.5 82 -92 q51 -32.5 117 -32.5 Z" /><glyph glyph-name="uni042D" unicode="&#x42d;" d="M274 744 q98 0 170 -47 q72 -47 110 -132.5 q38 -85.5 38 -197.5 q0 -113 -38 -198.5 q-38 -85.5 -110 -132.5 q-72 -47 -170 -47 q-92 0 -161 40 q-69 40 -100 111 l72 42 q27 -52 74 -81.5 q47 -29.5 113 -29.5 q102 0 160 70.5 q58 70.5 65 191.5 l-310 0 l0 80 l309 0 q-9 115 -66.5 182 q-57.5 67 -157.5 67 q-66 0 -113 -29.5 q-47 -29.5 -74 -81.5 l-72 42 q31 71 100 111 q69 40 161 40 Z" /><glyph glyph-name="uni0406" unicode="&#x406;" d="M176 0 l-89 0 l0 732 l89 0 l0 -732 Z" /><glyph glyph-name="uni0407" unicode="&#x407;" d="M29 829 q-23 0 -39.5 14.5 q-16.5 14.5 -16.5 35.5 q0 20 16.5 34.5 q16.5 14.5 39.5 14.5 q24 0 40.5 -14.5 q16.5 -14.5 16.5 -34.5 q0 -21 -16.5 -35.5 q-16.5 -14.5 -40.5 -14.5 ZM234 829 q-23 0 -39.5 14.5 q-16.5 14.5 -16.5 35.5 q0 20 16.5 34.5 q16.5 14.5 39.5 14.5 q24 0 40.5 -14.5 q16.5 -14.5 16.5 -34.5 q0 -21 -16.5 -35.5 q-16.5 -14.5 -40.5 -14.5 ZM176 0 l-89 0 l0 732 l89 0 l0 -732 Z" /><glyph glyph-name="uni0408" unicode="&#x408;" d="M180 -11 q-66 0 -115 32 q-49 32 -65 98 l70 41 q25 -89 110 -89 q56 0 81.5 40 q25.5 40 25.5 117 l0 504 l90 0 l0 -513 q0 -119 -55 -174.5 q-55 -55.5 -142 -55.5 Z" /><glyph glyph-name="uni040B" unicode="&#x40b;" d="M526 463 q108 0 173.5 -58.5 q65.5 -58.5 65.5 -176.5 l0 -228 l-89 0 l0 208 q0 88 -37.5 130.5 q-37.5 42.5 -116.5 42.5 q-81 0 -137 -43 q-56 -43 -56 -131 l0 -207 l-90 0 l0 653 l-227 0 l0 79 l545 0 l0 -79 l-228 0 l0 -273 q33 42 84 62.5 q51 20.5 113 20.5 Z" /><glyph glyph-name="uni042E" unicode="&#x42e;" d="M632 744 q88 0 158.5 -45 q70.5 -45 110.5 -130 q40 -85 40 -202 q0 -117 -40.5 -202.5 q-40.5 -85.5 -110.5 -130.5 q-70 -45 -158 -45 q-85 0 -153 41.5 q-68 41.5 -109 120.5 q-41 79 -45 189 l-149 0 l0 -340 l-89 0 l0 732 l89 0 l0 -312 l150 0 q9 101 50.5 174.5 q41.5 73.5 108 111.5 q66.5 38 147.5 38 ZM632 71 q66 0 114 36 q48 36 74 102.5 q26 66.5 26 157.5 q0 91 -26 158 q-26 67 -74.5 102.5 q-48.5 35.5 -113.5 35.5 q-65 0 -113.5 -35.5 q-48.5 -35.5 -74.5 -102.5 q-26 -67 -26 -158 q0 -137 57 -216.5 q57 -79.5 157 -79.5 Z" /><glyph glyph-name="uni042F" unicode="&#x42f;" d="M227 315 q-72 23 -113 75.5 q-41 52.5 -41 124.5 q0 64 32.5 113.5 q32.5 49.5 91 76.5 q58.5 27 133.5 27 l225 0 l0 -732 l-89 0 l0 300 l-136 0 l-9 0 l-212 -300 l-109 0 l227 315 ZM342 654 q-84 0 -128.5 -38.5 q-44.5 -38.5 -44.5 -100.5 q0 -62 44 -99.5 q44 -37.5 129 -37.5 l124 0 l0 276 l-124 0 Z" /><glyph glyph-name="uni0402" unicode="&#x402;" d="M536 463 q70 0 128 -28 q58 -28 92.5 -82.5 q34.5 -54.5 34.5 -131.5 q0 -77 -35 -130.5 q-35 -53.5 -95 -79.5 q-60 -26 -135 -22 l0 82 q80 -2 125.5 33.5 q45.5 35.5 45.5 113.5 q0 75 -42 119 q-42 44 -121 44 q-51 0 -97.5 -18 q-46.5 -18 -77 -57.5 q-30.5 -39.5 -30.5 -98.5 l0 -207 l-90 0 l0 653 l-227 0 l0 79 l545 0 l0 -79 l-228 0 l0 -277 q36 44 90.5 65.5 q54.5 21.5 116.5 21.5 Z" /><glyph glyph-name="uni0462" unicode="&#x462;" d="M427 423 q128 0 196.5 -57.5 q68.5 -57.5 68.5 -155.5 q0 -99 -67.5 -154.5 q-67.5 -55.5 -197.5 -55.5 l-262 0 l0 542 l-165 0 l0 78 l165 0 l0 113 l89 0 l0 -113 l219 0 l0 -78 l-219 0 l0 -119 l173 0 ZM410 78 q94 0 140.5 35 q46.5 35 46.5 97 q0 62 -47 98.5 q-47 36.5 -140 36.5 l-156 0 l0 -267 l156 0 Z" /><glyph glyph-name="uni0472" unicode="&#x472;" d="M383 744 q93 0 168.5 -48 q75.5 -48 119 -134 q43.5 -86 43.5 -195 q0 -110 -43.5 -196 q-43.5 -86 -119 -134 q-75.5 -48 -168.5 -48 q-94 0 -169.5 47.5 q-75.5 47.5 -118.5 133.5 q-43 86 -43 197 q0 110 43.5 196 q43.5 86 119 133.5 q75.5 47.5 168.5 47.5 ZM383 663 q-98 0 -161 -68 q-63 -68 -74 -182 l469 0 q-11 114 -73.5 182 q-62.5 68 -160.5 68 ZM383 71 q101 0 164 71.5 q63 71.5 71 190.5 l-471 0 q8 -119 71.5 -190.5 q63.5 -71.5 164.5 -71.5 Z" /><glyph glyph-name="uni0474" unicode="&#x474;" d="M660 744 q30 0 54.5 -12 q24.5 -12 35.5 -28 l-31 -68 q-25 27 -54 27 q-22 0 -38 -14 q-16 -14 -32 -56 l-232 -593 l-67 0 l-289 732 l99 0 l229 -602 l178 483 q27 73 60.5 102 q33.5 29 86.5 29 Z" /><glyph glyph-name="uni0492" unicode="&#x492;" d="M90 732 l449 0 l0 -79 l-360 0 l0 -247 l132 0 l0 -79 l-132 0 l0 -327 l-89 0 l0 327 l-90 0 l0 79 l90 0 l0 326 Z" /><glyph glyph-name="uni049A" unicode="&#x49a;" d="M641 732 l-278 -356 l233 -296 l78 0 l-8 -252 l-73 0 l-5 172 l-50 0 l-255 334 l-107 0 l0 -334 l-89 0 l0 732 l89 0 l0 -318 l113 0 l247 318 l105 0 Z" /><glyph glyph-name="uni049C" unicode="&#x49c;" d="M415 377 l257 -377 l-113 0 l-222 334 l-30 0 l0 -144 l-75 0 l0 144 l-56 0 l0 -334 l-89 0 l0 732 l89 0 l0 -318 l56 0 l0 144 l75 0 l0 -144 l35 0 l212 318 l100 0 l-239 -355 Z" /><glyph glyph-name="uni04A2" unicode="&#x4a2;" d="M658 732 l0 -652 l81 0 l-8 -252 l-73 0 l-5 172 l-85 0 l0 340 l-392 0 l0 -340 l-89 0 l0 732 l89 0 l0 -312 l392 0 l0 312 l90 0 Z" /><glyph glyph-name="uni04AE" unicode="&#x4ae;" d="M319 400 l193 333 l97 0 l-251 -423 l0 -310 l-89 0 l0 313 l-262 420 l106 0 l206 -333 Z" /><glyph glyph-name="uni04B0" unicode="&#x4b0;" d="M319 400 l193 333 l97 0 l-215 -362 l143 0 l0 -80 l-179 0 l0 -291 l-89 0 l0 291 l-180 0 l0 80 l144 0 l-226 362 l106 0 l206 -333 Z" /><glyph glyph-name="uni04B2" unicode="&#x4b2;" d="M639 732 l-262 -359 l211 -293 l69 0 l-8 -252 l-73 0 l-5 172 l-30 0 l-214 303 l-215 -303 l-100 0 l269 369 l-262 363 l106 0 l206 -294 l208 294 l100 0 Z" /><glyph glyph-name="uni04B8" unicode="&#x4b8;" d="M483 732 l90 0 l0 -732 l-90 0 l0 340 q-47 -59 -132 -77 l0 -144 l-75 0 l0 138 q-105 3 -167 61.5 q-62 58.5 -62 173.5 l0 240 l89 0 l0 -220 q0 -84 34.5 -126.5 q34.5 -42.5 105.5 -46.5 l0 148 l75 0 l0 -141 q59 14 95.5 55.5 q36.5 41.5 36.5 111.5 l0 219 Z" /><glyph glyph-name="uni04BA" unicode="&#x4ba;" d="M177 0 l-90 0 l0 732 l90 0 l0 -340 q33 42 84 62.5 q51 20.5 113 20.5 q108 0 173.5 -58.5 q65.5 -58.5 65.5 -176.5 l0 -240 l-89 0 l0 220 q0 88 -39 130.5 q-39 42.5 -118 42.5 q-81 0 -135.5 -43 q-54.5 -43 -54.5 -131 l0 -219 Z" /><glyph glyph-name="uni04D8" unicode="&#x4d8;" d="M341 744 q96 0 168 -44 q72 -44 111.5 -129 q39.5 -85 39.5 -204 q0 -119 -40 -204 q-40 -85 -111 -129.5 q-71 -44.5 -163 -44.5 q-92 0 -159 43 q-67 43 -102 116.5 q-35 73.5 -35 164.5 q0 38 6 77 l509 0 q-11 272 -228 272 q-68 0 -114.5 -29 q-46.5 -29 -82.5 -91 l-66 47 q34 75 105.5 115 q71.5 40 161.5 40 ZM350 71 q91 0 147 59.5 q56 59.5 66 179.5 l-418 0 q-4 -113 51.5 -176 q55.5 -63 153.5 -63 Z" /><glyph glyph-name="uni04E8" unicode="&#x4e8;" d="M383 744 q93 0 168.5 -48 q75.5 -48 119 -134 q43.5 -86 43.5 -195 q0 -110 -43.5 -196 q-43.5 -86 -119 -134 q-75.5 -48 -168.5 -48 q-94 0 -169.5 47.5 q-75.5 47.5 -118.5 133.5 q-43 86 -43 197 q0 110 43.5 196 q43.5 86 119 133.5 q75.5 47.5 168.5 47.5 ZM383 663 q-98 0 -161 -68 q-63 -68 -74 -182 l469 0 q-11 114 -73.5 182 q-62.5 68 -160.5 68 ZM383 71 q101 0 164 71.5 q63 71.5 71 190.5 l-471 0 q8 -119 71.5 -190.5 q63.5 -71.5 164.5 -71.5 Z" /><glyph glyph-name="uni0430" unicode="&#x430;" d="M277 531 q88 0 144 -53.5 q56 -53.5 56 -152.5 l0 -325 l-75 0 q-3 51 -4 66 q-24 -38 -64.5 -57.5 q-40.5 -19.5 -92.5 -19.5 q-50 0 -93.5 18.5 q-43.5 18.5 -69.5 55 q-26 36.5 -26 87.5 q0 77 62.5 121.5 q62.5 44.5 161.5 44.5 q56 0 116 -15 l0 9 q0 73 -29.5 108.5 q-29.5 35.5 -89.5 35.5 q-48 0 -80 -20 q-32 -20 -54 -59 l-65 37 q24 54 78.5 86.5 q54.5 32.5 124.5 32.5 ZM392 230 q-63 16 -115 16 q-65 0 -100.5 -25 q-35.5 -25 -35.5 -70 q0 -42 30 -65.5 q30 -23.5 78 -23.5 q59 0 101 34.5 q42 34.5 42 95.5 l0 38 Z" /><glyph glyph-name="uni0431" unicode="&#x431;" d="M318 531 q63 0 115 -31 q52 -31 83 -91.5 q31 -60.5 31 -143.5 q0 -87 -32.5 -149.5 q-32.5 -62.5 -89 -94.5 q-56.5 -32 -126.5 -32 q-113 0 -182.5 86 q-69.5 86 -69.5 269 q0 115 27 204 q27 89 81 139 q32 30 70 44.5 q38 14.5 72.5 18.5 q34.5 4 85.5 5 q43 1 68 4 q25 3 44 13 l0 -80 q-15 -9 -38 -12 q-23 -3 -63 -4 q-63 -2 -105 -10.5 q-42 -8.5 -75 -37.5 q-61 -53 -71 -184 q28 40 73.5 63.5 q45.5 23.5 101.5 23.5 ZM299 69 q69 0 110.5 52 q41.5 52 41.5 138 q0 88 -41 139.5 q-41 51.5 -111 51.5 q-70 0 -113.5 -52.5 q-43.5 -52.5 -43.5 -138.5 q0 -87 43.5 -138.5 q43.5 -51.5 113.5 -51.5 Z" /><glyph glyph-name="uni0432" unicode="&#x432;" d="M391 269 q98 -27 98 -122 q0 -70 -49.5 -108.5 q-49.5 -38.5 -147.5 -38.5 l-215 0 l0 520 l199 0 q87 0 135.5 -38 q48.5 -38 48.5 -103 q0 -78 -69 -110 ZM159 447 l0 -148 l109 0 q54 0 79.5 21 q25.5 21 25.5 56 q0 71 -105 71 l-109 0 ZM282 73 q120 0 120 79 q0 36 -28.5 55.5 q-28.5 19.5 -91.5 19.5 l-123 0 l0 -154 l123 0 Z" /><glyph glyph-name="uni0433" unicode="&#x433;" d="M77 520 l348 0 l0 -74 l-263 0 l0 -446 l-85 0 l0 520 Z" /><glyph glyph-name="uni0453" unicode="&#x453;" d="M219 593 l82 154 l94 0 l-101 -154 l-75 0 ZM77 520 l348 0 l0 -74 l-263 0 l0 -446 l-85 0 l0 520 Z" /><glyph glyph-name="uni0491" unicode="&#x491;" d="M77 520 l291 0 l15 118 l71 0 l-9 -192 l-283 0 l0 -446 l-85 0 l0 520 Z" /><glyph glyph-name="uni0434" unicode="&#x434;" d="M513 74 l81 0 l-8 -246 l-73 0 l-6 172 l-402 0 l-6 -172 l-73 0 l-8 246 l41 0 q45 0 66 25 q21 25 29 76 q8 51 15 163 l12 182 l332 0 l0 -446 ZM428 74 l0 372 l-167 0 l-8 -117 q-8 -113 -16 -167 q-8 -54 -30 -88 l221 0 Z" /><glyph glyph-name="uni0435" unicode="&#x435;" d="M293 531 q67 0 117.5 -31.5 q50.5 -31.5 77.5 -85.5 q27 -54 27 -120 q0 -28 -4 -51 l-374 0 q5 -89 51 -132.5 q46 -43.5 116 -43.5 q87 0 126 70 l65 -37 q-20 -53 -74.5 -82 q-54.5 -29 -121.5 -29 q-70 0 -127.5 32 q-57.5 32 -91 93.5 q-33.5 61.5 -33.5 147.5 q0 83 33.5 144 q33.5 61 89.5 93 q56 32 123 32 ZM290 453 q-56 0 -97.5 -36 q-41.5 -36 -52.5 -105 l283 0 q-3 67 -39 104 q-36 37 -94 37 Z" /><glyph glyph-name="uni0450" unicode="&#x450;" d="M161 746 l94 0 l82 -154 l-75 0 l-101 154 ZM293 531 q67 0 117.5 -31.5 q50.5 -31.5 77.5 -85.5 q27 -54 27 -120 q0 -28 -4 -51 l-374 0 q5 -89 51 -132.5 q46 -43.5 116 -43.5 q87 0 126 70 l65 -37 q-20 -53 -74.5 -82 q-54.5 -29 -121.5 -29 q-70 0 -127.5 32 q-57.5 32 -91 93.5 q-33.5 61.5 -33.5 147.5 q0 83 33.5 144 q33.5 61 89.5 93 q56 32 123 32 ZM290 453 q-56 0 -97.5 -36 q-41.5 -36 -52.5 -105 l283 0 q-3 67 -39 104 q-36 37 -94 37 Z" /><glyph glyph-name="uni0451" unicode="&#x451;" d="M190 611 q-23 0 -39.5 17 q-16.5 17 -16.5 41 q0 24 16.5 41 q16.5 17 39.5 17 q24 0 40.5 -17 q16.5 -17 16.5 -41 q0 -24 -16.5 -41 q-16.5 -17 -40.5 -17 ZM395 611 q-23 0 -39.5 17 q-16.5 17 -16.5 41 q0 24 16.5 41 q16.5 17 39.5 17 q24 0 40.5 -17 q16.5 -17 16.5 -41 q0 -24 -16.5 -41 q-16.5 -17 -40.5 -17 ZM293 531 q67 0 117.5 -31.5 q50.5 -31.5 77.5 -85.5 q27 -54 27 -120 q0 -28 -4 -51 l-374 0 q5 -89 51 -132.5 q46 -43.5 116 -43.5 q87 0 126 70 l65 -37 q-20 -53 -74.5 -82 q-54.5 -29 -121.5 -29 q-70 0 -127.5 32 q-57.5 32 -91 93.5 q-33.5 61.5 -33.5 147.5 q0 83 33.5 144 q33.5 61 89.5 93 q56 32 123 32 ZM290 453 q-56 0 -97.5 -36 q-41.5 -36 -52.5 -105 l283 0 q-3 67 -39 104 q-36 37 -94 37 Z" /><glyph glyph-name="uni0436" unicode="&#x436;" d="M471 297 l158 223 l98 0 l-185 -255 l197 -265 l-107 0 l-160 223 l-60 0 l0 -223 l-85 0 l0 223 l-60 0 l-160 -223 l-107 0 l197 265 l-185 255 l98 0 l158 -223 l59 0 l0 223 l85 0 l0 -223 l59 0 Z" /><glyph glyph-name="uni0437" unicode="&#x437;" d="M299 274 q59 -12 90 -46.5 q31 -34.5 31 -85.5 q0 -69 -54 -111 q-54 -42 -148 -42 q-77 0 -135 31 q-58 31 -80 92 l67 39 q21 -43 57 -62.5 q36 -19.5 86 -19.5 q53 0 85 20 q32 20 32 60 q0 39 -34.5 63 q-34.5 24 -107.5 24 l-46 0 l0 74 l48 0 q62 0 91.5 20 q29.5 20 29.5 52 q0 33 -28 51 q-28 18 -74 18 q-85 0 -120 -66 l-67 39 q19 51 72 79 q53 28 123 28 q83 0 133.5 -38.5 q50.5 -38.5 50.5 -100.5 q0 -43 -26.5 -73.5 q-26.5 -30.5 -75.5 -44.5 Z" /><glyph glyph-name="uni0438" unicode="&#x438;" d="M161 520 l0 -381 l278 381 l72 0 l0 -520 l-84 0 l0 381 l-278 -381 l-72 0 l0 520 l84 0 Z" /><glyph glyph-name="uni0439" unicode="&#x439;" d="M294 592 q-71 0 -113.5 41.5 q-42.5 41.5 -42.5 112.5 l78 0 q2 -42 21.5 -65 q19.5 -23 56.5 -23 q74 0 79 88 l78 0 q0 -71 -42.5 -112.5 q-42.5 -41.5 -114.5 -41.5 ZM161 520 l0 -381 l278 381 l72 0 l0 -520 l-84 0 l0 381 l-278 -381 l-72 0 l0 520 l84 0 Z" /><glyph glyph-name="uni045D" unicode="&#x45d;" d="M162 747 l94 0 l82 -154 l-75 0 l-101 154 ZM161 520 l0 -381 l278 381 l72 0 l0 -520 l-84 0 l0 381 l-278 -381 l-72 0 l0 520 l84 0 Z" /><glyph glyph-name="uni043A" unicode="&#x43a;" d="M231 297 l176 222 l103 0 l-206 -254 l218 -265 l-112 0 l-178 223 l-70 0 l0 -223 l-85 0 l0 520 l85 0 l0 -223 l69 0 Z" /><glyph glyph-name="uni045C" unicode="&#x45c;" d="M241 593 l82 154 l94 0 l-101 -154 l-75 0 ZM231 297 l176 222 l103 0 l-206 -254 l218 -265 l-112 0 l-178 223 l-70 0 l0 -223 l-85 0 l0 520 l85 0 l0 -223 l69 0 Z" /><glyph glyph-name="uni043B" unicode="&#x43b;" d="M484 520 l0 -520 l-85 0 l0 446 l-198 0 l-10 -253 q-5 -109 -46 -156.5 q-41 -47.5 -134 -47.5 l0 82 q54 0 74.5 31 q20.5 31 23.5 100 l13 318 l362 0 Z" /><glyph glyph-name="uni043C" unicode="&#x43c;" d="M543 520 l81 0 l0 -520 l-83 0 l0 369 l-164 -273 l-51 0 l-166 266 l0 -362 l-83 0 l0 520 l81 0 l195 -318 l190 318 Z" /><glyph glyph-name="uni043D" unicode="&#x43d;" d="M162 300 l262 0 l0 220 l85 0 l0 -520 l-85 0 l0 226 l-262 0 l0 -226 l-85 0 l0 520 l85 0 l0 -220 Z" /><glyph glyph-name="uni043E" unicode="&#x43e;" d="M47 260 q0 78 34.5 140 q34.5 62 91.5 96.5 q57 34.5 123 34.5 q66 0 123 -34 q57 -34 91 -96 q34 -62 34 -141 q0 -79 -34 -140.5 q-34 -61.5 -91 -96 q-57 -34.5 -123 -34.5 q-66 0 -123.5 34.5 q-57.5 34.5 -91.5 96 q-34 61.5 -34 140.5 ZM137 260 q0 -59 21 -102 q21 -43 57 -66 q36 -23 81 -23 q45 0 81 23 q36 23 56.5 66 q20.5 43 20.5 102 q0 59 -20.5 102 q-20.5 43 -56.5 66 q-36 23 -81 23 q-45 0 -81 -23 q-36 -23 -57 -66 q-21 -43 -21 -102 Z" /><glyph glyph-name="uni043F" unicode="&#x43f;" d="M77 520 l432 0 l0 -520 l-85 0 l0 446 l-262 0 l0 -446 l-85 0 l0 520 Z" /><glyph glyph-name="uni0440" unicode="&#x440;" d="M332 531 q59 0 111.5 -32.5 q52.5 -32.5 84.5 -94 q32 -61.5 32 -144.5 q0 -84 -32 -145.5 q-32 -61.5 -84.5 -93.5 q-52.5 -32 -111.5 -32 q-50 0 -95.5 23.5 q-45.5 23.5 -74.5 69.5 l0 -314 l-85 0 l0 751 l75 0 q2 -50 6 -88 q28 50 74.5 75 q46.5 25 99.5 25 ZM321 69 q68 0 109 50 q41 50 41 141 q0 91 -41 141 q-41 50 -109 50 q-41 0 -77 -19 q-36 -19 -59 -62 q-23 -43 -23 -110 q0 -67 23 -110 q23 -43 59 -62 q36 -19 77 -19 Z" /><glyph glyph-name="uni0441" unicode="&#x441;" d="M295 69 q76 0 119 68 l67 -39 q-28 -55 -75.5 -82 q-47.5 -27 -108.5 -27 q-70 0 -127 34 q-57 34 -90 95.5 q-33 61.5 -33 141.5 q0 80 33 141.5 q33 61.5 90 95.5 q57 34 127 34 q61 0 108.5 -27 q47.5 -27 75.5 -82 l-67 -39 q-43 68 -119 68 q-70 0 -114 -51 q-44 -51 -44 -140 q0 -89 44 -140 q44 -51 114 -51 Z" /><glyph glyph-name="uni0442" unicode="&#x442;" d="M9 446 l0 74 l443 0 l0 -74 l-179 0 l0 -446 l-85 0 l0 446 l-179 0 Z" /><glyph glyph-name="uni0443" unicode="&#x443;" d="M422 519 l88 0 l-243 -613 q-32 -81 -68 -115.5 q-36 -34.5 -101 -34.5 q-61 0 -97 31 l34 69 q11 -9 28.5 -14.5 q17.5 -5.5 34.5 -5.5 q31 0 52.5 21 q21.5 21 46.5 79 l25 58 l-216 525 l98 0 l163 -417 l155 417 Z" /><glyph glyph-name="uni045E" unicode="&#x45e;" d="M263 592 q-71 0 -113.5 41.5 q-42.5 41.5 -42.5 112.5 l78 0 q2 -42 21.5 -65 q19.5 -23 56.5 -23 q74 0 79 88 l78 0 q0 -71 -42.5 -112.5 q-42.5 -41.5 -114.5 -41.5 ZM422 519 l88 0 l-243 -613 q-32 -81 -68 -115.5 q-36 -34.5 -101 -34.5 q-61 0 -97 31 l34 69 q11 -9 28.5 -14.5 q17.5 -5.5 34.5 -5.5 q31 0 52.5 21 q21.5 21 46.5 79 l25 58 l-216 525 l98 0 l163 -417 l155 417 Z" /><glyph glyph-name="uni0444" unicode="&#x444;" d="M686 260 q0 -78 -37.5 -136.5 q-37.5 -58.5 -100.5 -91.5 q-63 -33 -138 -41 l0 -223 l-85 0 l0 223 q-76 8 -139 41 q-63 33 -101 91 q-38 58 -38 137 q0 79 38 137 q38 58 101 91 q63 33 139 41 l0 158 l85 0 l0 -158 q76 -8 138.5 -41 q62.5 -33 100 -91 q37.5 -58 37.5 -137 ZM137 260 q0 -84 52.5 -131.5 q52.5 -47.5 135.5 -57.5 l0 378 q-83 -10 -135.5 -57.5 q-52.5 -47.5 -52.5 -131.5 ZM410 72 q83 10 134.5 57.5 q51.5 47.5 51.5 130.5 q0 84 -52 131 q-52 47 -134 57 l0 -376 Z" /><glyph glyph-name="uni0445" unicode="&#x445;" d="M252 327 l137 192 l97 0 l-188 -258 l188 -261 l-104 0 l-134 192 l-138 -192 l-99 0 l190 257 l-190 262 l106 0 l135 -192 Z" /><glyph glyph-name="uni0447" unicode="&#x447;" d="M397 520 l85 0 l0 -520 l-85 0 l0 227 q-24 -33 -62.5 -50 q-38.5 -17 -87.5 -17 q-84 0 -136 46 q-52 46 -52 132 l0 182 l86 0 l0 -158 q0 -59 29 -90 q29 -31 87 -31 q58 0 97 31.5 q39 31.5 39 90.5 l0 157 Z" /><glyph glyph-name="uni0446" unicode="&#x446;" d="M509 520 l0 -446 l77 0 l-7 -246 l-70 0 l-5 172 l-427 0 l0 520 l85 0 l0 -446 l262 0 l0 446 l85 0 Z" /><glyph glyph-name="uni0448" unicode="&#x448;" d="M438 74 l191 0 l0 446 l85 0 l0 -520 l-637 0 l0 520 l85 0 l0 -446 l191 0 l0 446 l85 0 l0 -446 Z" /><glyph glyph-name="uni0449" unicode="&#x449;" d="M714 520 l0 -446 l77 0 l-7 -246 l-70 0 l-5 172 l-632 0 l0 520 l85 0 l0 -446 l191 0 l0 446 l85 0 l0 -446 l191 0 l0 446 l85 0 Z" /><glyph glyph-name="uni045F" unicode="&#x45f;" d="M162 74 l262 0 l0 446 l85 0 l0 -520 l-176 0 l-5 -172 l-70 0 l-5 172 l-176 0 l0 520 l85 0 l0 -446 Z" /><glyph glyph-name="uni044C" unicode="&#x44c;" d="M273 329 q102 0 156 -45.5 q54 -45.5 54 -117.5 q0 -73 -54 -119.5 q-54 -46.5 -156 -46.5 l-196 0 l0 520 l85 0 l0 -191 l111 0 ZM256 74 q74 0 105.5 23.5 q31.5 23.5 31.5 68.5 q0 45 -31.5 67 q-31.5 22 -105.5 22 l-94 0 l0 -181 l94 0 Z" /><glyph glyph-name="uni044A" unicode="&#x44a;" d="M379 329 q102 0 156 -45.5 q54 -45.5 54 -117.5 q0 -73 -54 -119.5 q-54 -46.5 -156 -46.5 l-196 0 l0 446 l-168 0 l0 74 l253 0 l0 -191 l111 0 ZM362 74 q74 0 105.5 23.5 q31.5 23.5 31.5 68.5 q0 45 -31.5 67 q-31.5 22 -105.5 22 l-94 0 l0 -181 l94 0 Z" /><glyph glyph-name="uni044B" unicode="&#x44b;" d="M273 329 q102 0 156 -45.5 q54 -45.5 54 -117.5 q0 -73 -54 -119.5 q-54 -46.5 -156 -46.5 l-196 0 l0 520 l85 0 l0 -191 l111 0 ZM658 0 l-85 0 l0 520 l85 0 l0 -520 ZM256 74 q74 0 105.5 23.5 q31.5 23.5 31.5 68.5 q0 45 -31.5 67 q-31.5 22 -105.5 22 l-94 0 l0 -181 l94 0 Z" /><glyph glyph-name="uni0459" unicode="&#x459;" d="M595 329 q102 0 156 -45.5 q54 -45.5 54 -117.5 q0 -73 -54 -119.5 q-54 -46.5 -156 -46.5 l-196 0 l0 446 l-198 0 l-10 -253 q-5 -109 -46 -156.5 q-41 -47.5 -134 -47.5 l0 82 q54 0 74.5 31 q20.5 31 23.5 100 l13 318 l362 0 l0 -191 l111 0 ZM578 74 q74 0 105.5 23.5 q31.5 23.5 31.5 68.5 q0 45 -31.5 67 q-31.5 22 -105.5 22 l-94 0 l0 -181 l94 0 Z" /><glyph glyph-name="uni045A" unicode="&#x45a;" d="M620 312 q102 0 156 -43.5 q54 -43.5 54 -111.5 q0 -69 -54 -113 q-54 -44 -156 -44 l-196 0 l0 238 l-262 0 l0 -238 l-85 0 l0 520 l85 0 l0 -208 l262 0 l0 208 l85 0 l0 -208 l111 0 ZM603 74 q74 0 105.5 21 q31.5 21 31.5 62 q0 41 -31.5 61 q-31.5 20 -105.5 20 l-94 0 l0 -164 l94 0 Z" /></font>
</defs>
</svg>
