<?xml version="1.0" standalone="no"?><!DOCTYPE svg PUBLIC "-//W3C//DTD SVG 1.1//EN" "http://www.w3.org/Graphics/SVG/1.1/DTD/svg11.dtd" ><svg xmlns="http://www.w3.org/2000/svg"><metadata></metadata><defs><font id="HarmonyOS Sans Thin Version 1.0" horiz-adv-x="1312"><font-face font-family="HarmonyOS Sans Thin" font-weight="250" font-stretch="normal" units-per-em="1000" panose-1="0 0 2 0 0 0 0 0 0 0" ascent="928" descent="-244" x-height="0" bbox="-547 -271 1213 1056" underline-thickness="50" underline-position="-75" unicode-range="U+0000-30fb" /><missing-glyph horiz-adv-x="1000"  /><glyph glyph-name="null" unicode="" d="" /><glyph glyph-name="space" unicode=" " d="" /><glyph glyph-name="A" unicode="A" d="M327 732 l288 -732 l-34 0 l-97 250 l-337 0 l-96 -250 l-32 0 l282 732 l26 0 ZM473 278 l-159 409 l-157 -409 l316 0 Z" /><glyph glyph-name="Aacute" unicode="Á" d="M307 806 l84 122 l33 0 l-90 -122 l-27 0 ZM327 732 l288 -732 l-34 0 l-97 250 l-337 0 l-96 -250 l-32 0 l282 732 l26 0 ZM473 278 l-159 409 l-157 -409 l316 0 Z" /><glyph glyph-name="Abreve" unicode="&#x102;" d="M316 806 q-57 0 -92.5 33.5 q-35.5 33.5 -35.5 88.5 l27 0 q1 -47 29 -73.5 q28 -26.5 72 -26.5 q45 0 72.5 26.5 q27.5 26.5 29.5 73.5 l27 0 q0 -55 -35 -88.5 q-35 -33.5 -94 -33.5 ZM327 732 l288 -732 l-34 0 l-97 250 l-337 0 l-96 -250 l-32 0 l282 732 l26 0 ZM473 278 l-159 409 l-157 -409 l316 0 Z" /><glyph glyph-name="uni1EAE" unicode="&#x1eae;" d="M307 866 l82 62 l35 0 l-87 -62 l-30 0 ZM316 786 q-57 0 -92.5 17 q-35.5 17 -35.5 45 l27 0 q1 -21 29 -33 q28 -12 72 -12 q45 0 72.5 12 q27.5 12 29.5 33 l27 0 q0 -28 -35 -45 q-35 -17 -94 -17 ZM327 732 l288 -732 l-34 0 l-97 250 l-337 0 l-96 -250 l-32 0 l282 732 l26 0 ZM473 278 l-159 409 l-157 -409 l316 0 Z" /><glyph glyph-name="uni1EB6" unicode="&#x1eb6;" d="M316 806 q-57 0 -92.5 33.5 q-35.5 33.5 -35.5 88.5 l27 0 q1 -47 29 -74 q28 -27 72 -27 q45 0 72.5 27 q27.5 27 29.5 74 l27 0 q0 -55 -35 -88.5 q-35 -33.5 -94 -33.5 ZM327 732 l288 -732 l-34 0 l-97 250 l-337 0 l-96 -250 l-32 0 l282 732 l26 0 ZM473 278 l-159 409 l-157 -409 l316 0 ZM325 -155 q-12 0 -20 8.5 q-8 8.5 -8 19.5 q0 11 8 19 q8 8 20 8 q11 0 19 -8 q8 -8 8 -19 q0 -11 -8 -19.5 q-8 -8.5 -19 -8.5 Z" /><glyph glyph-name="uni1EB0" unicode="&#x1eb0;" d="M208 928 l35 0 l81 -62 l-29 0 l-87 62 ZM316 786 q-57 0 -92.5 17 q-35.5 17 -35.5 45 l27 0 q1 -21 29 -33 q28 -12 72 -12 q45 0 72.5 12 q27.5 12 29.5 33 l27 0 q0 -28 -35 -45 q-35 -17 -94 -17 ZM327 732 l288 -732 l-34 0 l-97 250 l-337 0 l-96 -250 l-32 0 l282 732 l26 0 ZM473 278 l-159 409 l-157 -409 l316 0 Z" /><glyph glyph-name="uni1EB2" unicode="&#x1eb2;" d="M241 920 q29 8 67 8 q39 0 65.5 -9 q26.5 -9 26.5 -25 q0 -26 -86 -41 l-11 13 q72 8 72 27 q0 10 -19 15 q-19 5 -50 5 q-36 0 -60 -6 l-5 13 ZM316 786 q-57 0 -92.5 17 q-35.5 17 -35.5 45 l27 0 q1 -21 29 -33 q28 -12 72 -12 q45 0 72.5 12 q27.5 12 29.5 33 l27 0 q0 -28 -35.5 -45 q-35.5 -17 -93.5 -17 ZM327 732 l288 -732 l-34 0 l-97 250 l-337 0 l-96 -250 l-32 0 l282 732 l26 0 ZM473 278 l-159 409 l-157 -409 l316 0 Z" /><glyph glyph-name="uni1EB4" unicode="&#x1eb4;" d="M177 879 q2 21 22 35 q20 14 55 14 q23 0 38 -5 q15 -5 32 -15 q15 -8 26.5 -12 q11.5 -4 27.5 -4 q43 0 51 32 l26 0 q-2 -20 -22 -34 q-20 -14 -55 -14 q-23 0 -38 5 q-15 5 -32 15 q-15 8 -26.5 12 q-11.5 4 -27.5 4 q-44 0 -51 -33 l-26 0 ZM316 786 q-57 0 -92.5 18 q-35.5 18 -35.5 47 l27 0 q1 -22 29 -35 q28 -13 72 -13 q45 0 72.5 13 q27.5 13 29.5 35 l27 0 q0 -29 -35.5 -47 q-35.5 -18 -93.5 -18 ZM327 732 l288 -732 l-34 0 l-97 250 l-337 0 l-96 -250 l-32 0 l282 732 l26 0 ZM473 278 l-159 409 l-157 -409 l316 0 Z" /><glyph glyph-name="uni01CD" unicode="&#x1cd;" d="M224 928 l92 -102 l91 102 l32 0 l-111 -122 l-25 0 l-111 122 l32 0 ZM327 732 l288 -732 l-34 0 l-97 250 l-337 0 l-96 -250 l-32 0 l282 732 l26 0 ZM473 278 l-159 409 l-157 -409 l316 0 Z" /><glyph glyph-name="Acircumflex" unicode="Â" d="M303 928 l25 0 l111 -122 l-32 0 l-91 102 l-92 -102 l-32 0 l111 122 ZM327 732 l288 -732 l-34 0 l-97 250 l-337 0 l-96 -250 l-32 0 l282 732 l26 0 ZM473 278 l-159 409 l-157 -409 l316 0 Z" /><glyph glyph-name="uni1EA4" unicode="&#x1ea4;" d="M406 864 l82 64 l35 0 l-87 -64 l-30 0 ZM303 850 l25 0 l111 -64 l-40 0 l-83 48 l-84 -48 l-40 0 l111 64 ZM327 732 l288 -732 l-34 0 l-97 250 l-337 0 l-96 -250 l-32 0 l282 732 l26 0 ZM473 278 l-159 409 l-157 -409 l316 0 Z" /><glyph glyph-name="uni1EAC" unicode="&#x1eac;" d="M303 928 l25 0 l111 -122 l-32 0 l-91 103 l-92 -103 l-32 0 l111 122 ZM327 732 l288 -732 l-34 0 l-97 250 l-337 0 l-96 -250 l-32 0 l282 732 l26 0 ZM473 278 l-159 409 l-157 -409 l316 0 ZM325 -155 q-12 0 -20 8.5 q-8 8.5 -8 19.5 q0 11 8 19 q8 8 20 8 q11 0 19 -8 q8 -8 8 -19 q0 -11 -8 -19.5 q-8 -8.5 -19 -8.5 Z" /><glyph glyph-name="uni1EA6" unicode="&#x1ea6;" d="M307 928 l35 0 l81 -64 l-29 0 l-87 64 ZM303 850 l25 0 l111 -64 l-40 0 l-83 48 l-84 -48 l-40 0 l111 64 ZM327 732 l288 -732 l-34 0 l-97 250 l-337 0 l-96 -250 l-32 0 l282 732 l26 0 ZM473 278 l-159 409 l-157 -409 l316 0 Z" /><glyph glyph-name="uni1EA8" unicode="&#x1ea8;" d="M340 921 q29 8 67 8 q39 0 65.5 -9.5 q26.5 -9.5 26.5 -26.5 q0 -16 -24 -26.5 q-24 -10.5 -62 -16.5 l-11 13 q72 8 72 29 q0 10 -19 15.5 q-19 5.5 -50 5.5 q-37 0 -60 -7 l-5 15 ZM303 852 l25 0 l111 -66 l-40 0 l-83 50 l-84 -50 l-40 0 l111 66 ZM327 732 l288 -732 l-34 0 l-97 250 l-337 0 l-96 -250 l-32 0 l282 732 l26 0 ZM473 278 l-159 409 l-157 -409 l316 0 Z" /><glyph glyph-name="uni1EAA" unicode="&#x1eaa;" d="M183 877 q2 22 22 36.5 q20 14.5 56 14.5 q23 0 37.5 -5.5 q14.5 -5.5 32.5 -15.5 q14 -8 26 -12.5 q12 -4.5 28 -4.5 q43 0 51 34 l26 0 q-2 -21 -22 -36 q-20 -15 -55 -15 q-24 0 -38.5 5.5 q-14.5 5.5 -32.5 15.5 q-14 8 -26 12.5 q-12 4.5 -28 4.5 q-43 0 -51 -34 l-26 0 ZM303 855 l25 0 l111 -69 l-40 0 l-83 51 l-84 -51 l-40 0 l111 69 ZM327 732 l288 -732 l-34 0 l-97 250 l-337 0 l-96 -250 l-32 0 l282 732 l26 0 ZM473 278 l-159 409 l-157 -409 l316 0 Z" /><glyph glyph-name="Adieresis" unicode="Ä" d="M222 851 q-11 0 -19.5 8 q-8.5 8 -8.5 20 q0 12 8 19.5 q8 7.5 19 7.5 q12 0 20 -7.5 q8 -7.5 8 -19.5 q0 -12 -8 -20 q-8 -8 -19 -8 ZM410 851 q-11 0 -19 8 q-8 8 -8 20 q0 12 8 19.5 q8 7.5 19 7.5 q11 0 19 -7.5 q8 -7.5 8 -19.5 q0 -12 -7.5 -20 q-7.5 -8 -19.5 -8 ZM327 732 l288 -732 l-34 0 l-97 250 l-337 0 l-96 -250 l-32 0 l282 732 l26 0 ZM473 278 l-159 409 l-157 -409 l316 0 Z" /><glyph glyph-name="uni1EA0" unicode="&#x1ea0;" d="M327 732 l288 -732 l-34 0 l-97 250 l-337 0 l-96 -250 l-32 0 l282 732 l26 0 ZM473 278 l-159 409 l-157 -409 l316 0 ZM325 -155 q-12 0 -20 8.5 q-8 8.5 -8 19.5 q0 11 8 19 q8 8 20 8 q11 0 19 -8 q8 -8 8 -19 q0 -11 -8 -19.5 q-8 -8.5 -19 -8.5 Z" /><glyph glyph-name="Agrave" unicode="À" d="M208 928 l33 0 l83 -122 l-26 0 l-90 122 ZM327 732 l288 -732 l-34 0 l-97 250 l-337 0 l-96 -250 l-32 0 l282 732 l26 0 ZM473 278 l-159 409 l-157 -409 l316 0 Z" /><glyph glyph-name="uni1EA2" unicode="&#x1ea2;" d="M234 914 q30 14 67 14 q40 0 66.5 -16.5 q26.5 -16.5 26.5 -45.5 q0 -51 -86 -73 l-12 15 q71 18 71 57 q0 21 -19 33 q-19 12 -49 12 q-34 0 -60 -13 l-5 17 ZM327 732 l288 -732 l-34 0 l-97 250 l-337 0 l-96 -250 l-32 0 l282 732 l26 0 ZM473 278 l-159 409 l-157 -409 l316 0 Z" /><glyph glyph-name="Amacron" unicode="&#x100;" d="M183 869 l0 28 l266 0 l0 -28 l-266 0 ZM327 732 l288 -732 l-34 0 l-97 250 l-337 0 l-96 -250 l-32 0 l282 732 l26 0 ZM473 278 l-159 409 l-157 -409 l316 0 Z" /><glyph glyph-name="Aogonek" unicode="&#x104;" d="M683 -194 q-41 -50 -103 -50 q-43 0 -73 24 q-30 24 -30 73 q0 46 28.5 84 q28.5 38 74.5 66 l-96 247 l-337 0 l-96 -250 l-32 0 l282 732 l26 0 l288 -732 q-55 -33 -82.5 -67 q-27.5 -34 -27.5 -78 q0 -39 21.5 -56.5 q21.5 -17.5 54.5 -17.5 q27 0 47.5 11 q20.5 11 38.5 31 l16 -17 ZM314 687 l-157 -409 l316 0 l-159 409 Z" /><glyph glyph-name="Aring" unicode="Å" d="M235 871 q0 24 23.5 40.5 q23.5 16.5 57.5 16.5 q32 0 54.5 -16.5 q22.5 -16.5 22.5 -40.5 q0 -24 -22.5 -40.5 q-22.5 -16.5 -54.5 -16.5 q-34 0 -57.5 16.5 q-23.5 16.5 -23.5 40.5 ZM259 871 q0 -17 16 -29 q16 -12 41 -12 q24 0 39.5 12 q15.5 12 15.5 29 q0 19 -15.5 30.5 q-15.5 11.5 -39.5 11.5 q-25 0 -41 -11.5 q-16 -11.5 -16 -30.5 ZM327 732 l288 -732 l-34 0 l-97 250 l-337 0 l-96 -250 l-32 0 l282 732 l26 0 ZM473 278 l-159 409 l-157 -409 l316 0 Z" /><glyph glyph-name="Aringacute" unicode="&#x1fa;" d="M299 877 l73 51 l34 0 l-80 -51 l-27 0 ZM239 820 q0 14 21.5 24 q21.5 10 54.5 10 q32 0 53 -10 q21 -10 21 -24 q0 -15 -21 -25 q-21 -10 -53 -10 q-33 0 -54.5 10 q-21.5 10 -21.5 25 ZM263 820 q0 -10 14 -16.5 q14 -6.5 38 -6.5 q23 0 37.5 6.5 q14.5 6.5 14.5 16.5 q0 10 -14.5 15.5 q-14.5 5.5 -37.5 5.5 q-24 0 -38 -5.5 q-14 -5.5 -14 -15.5 ZM327 732 l288 -732 l-34 0 l-97 250 l-337 0 l-96 -250 l-32 0 l282 732 l26 0 ZM473 278 l-159 409 l-157 -409 l316 0 Z" /><glyph glyph-name="uni1E00" unicode="&#x1e00;" d="M327 732 l288 -732 l-34 0 l-97 250 l-337 0 l-96 -250 l-32 0 l282 732 l26 0 ZM473 278 l-159 409 l-157 -409 l316 0 ZM244 -128 q0 35 23.5 57.5 q23.5 22.5 57.5 22.5 q32 0 54.5 -22.5 q22.5 -22.5 22.5 -57.5 q0 -35 -22.5 -57.5 q-22.5 -22.5 -54.5 -22.5 q-34 0 -57.5 22.5 q-23.5 22.5 -23.5 57.5 ZM268 -128 q0 -25 16 -41.5 q16 -16.5 41 -16.5 q23 0 38.5 16.5 q15.5 16.5 15.5 41.5 q0 26 -15 42 q-15 16 -39 16 q-25 0 -41 -16 q-16 -16 -16 -42 Z" /><glyph glyph-name="Atilde" unicode="Ã" d="M177 826 q2 39 22 66 q20 27 55 27 q23 0 37.5 -10.5 q14.5 -10.5 32.5 -31.5 q14 -17 26 -26 q12 -9 28 -9 q43 0 51 69 l26 0 q-2 -39 -22 -66 q-20 -27 -55 -27 q-23 0 -37.5 10.5 q-14.5 10.5 -32.5 31.5 q-14 17 -26 26 q-12 9 -28 9 q-44 0 -51 -69 l-26 0 ZM327 732 l288 -732 l-34 0 l-97 250 l-337 0 l-96 -250 l-32 0 l282 732 l26 0 ZM473 278 l-159 409 l-157 -409 l316 0 Z" /><glyph glyph-name="AE" unicode="Æ" d="M855 366 l-330 0 l0 -338 l376 0 l0 -28 l-407 0 l0 254 l-284 0 l-166 -254 l-35 0 l480 732 l401 0 l0 -28 l-365 0 l0 -310 l330 0 l0 -28 ZM494 282 l0 406 l-266 -406 l266 0 Z" /><glyph glyph-name="AEacute" unicode="&#x1fc;" d="M590 807 l84 121 l33 0 l-90 -121 l-27 0 ZM855 366 l-330 0 l0 -338 l376 0 l0 -28 l-407 0 l0 254 l-284 0 l-166 -254 l-35 0 l480 732 l401 0 l0 -28 l-365 0 l0 -310 l330 0 l0 -28 ZM494 282 l0 406 l-266 -406 l266 0 Z" /><glyph glyph-name="B" unicode="B" d="M391 382 q80 -15 125.5 -62.5 q45.5 -47.5 45.5 -124.5 q0 -89 -63.5 -142 q-63.5 -53 -189.5 -53 l-209 0 l0 732 l191 0 q72 0 124 -24.5 q52 -24.5 79 -67 q27 -42.5 27 -96.5 q0 -60 -33.5 -102 q-33.5 -42 -96.5 -60 ZM130 704 l0 -313 l158 0 q97 0 149 42.5 q52 42.5 52 110.5 q0 70 -54 115 q-54 45 -151 45 l-154 0 ZM302 28 q115 0 171 46 q56 46 56 121 q0 79 -58 124 q-58 45 -160 45 l-181 0 l0 -336 l172 0 Z" /><glyph glyph-name="C" unicode="C" d="M373 20 q73 0 123.5 35 q50.5 35 73.5 94 l24 -15 q-24 -64 -81.5 -103.5 q-57.5 -39.5 -139.5 -39.5 q-89 0 -160 47.5 q-71 47.5 -111 133 q-40 85.5 -40 195.5 q0 110 40 195.5 q40 85.5 111 132.5 q71 47 160 47 q82 0 139.5 -39.5 q57.5 -39.5 81.5 -103.5 l-24 -15 q-23 59 -73.5 94 q-50.5 35 -123.5 35 q-81 0 -144.5 -44 q-63.5 -44 -99 -122.5 q-35.5 -78.5 -35.5 -179.5 q0 -100 35.5 -179 q35.5 -79 99 -123.5 q63.5 -44.5 144.5 -44.5 Z" /><glyph glyph-name="Cacute" unicode="&#x106;" d="M338 806 l83 122 l33 0 l-90 -122 l-26 0 ZM373 20 q73 0 123.5 35 q50.5 35 73.5 94 l24 -15 q-24 -64 -81.5 -103.5 q-57.5 -39.5 -139.5 -39.5 q-89 0 -160 47.5 q-71 47.5 -111 133 q-40 85.5 -40 195.5 q0 110 40 195.5 q40 85.5 111 132.5 q71 47 160 47 q82 0 139.5 -39.5 q57.5 -39.5 81.5 -103.5 l-24 -15 q-23 59 -73.5 94 q-50.5 35 -123.5 35 q-81 0 -144.5 -44 q-63.5 -44 -99 -122.5 q-35.5 -78.5 -35.5 -179.5 q0 -100 35.5 -179 q35.5 -79 99 -123.5 q63.5 -44.5 144.5 -44.5 Z" /><glyph glyph-name="Ccaron" unicode="&#x10c;" d="M254 928 l92 -102 l91 102 l32 0 l-111 -122 l-25 0 l-111 122 l32 0 ZM373 20 q73 0 123.5 35 q50.5 35 73.5 94 l24 -15 q-24 -64 -81.5 -103.5 q-57.5 -39.5 -139.5 -39.5 q-89 0 -160 47.5 q-71 47.5 -111 133 q-40 85.5 -40 195.5 q0 110 40 195.5 q40 85.5 111 132.5 q71 47 160 47 q82 0 139.5 -39.5 q57.5 -39.5 81.5 -103.5 l-24 -15 q-23 59 -73.5 94 q-50.5 35 -123.5 35 q-81 0 -144.5 -44 q-63.5 -44 -99 -122.5 q-35.5 -78.5 -35.5 -179.5 q0 -100 35.5 -179 q35.5 -79 99 -123.5 q63.5 -44.5 144.5 -44.5 Z" /><glyph glyph-name="Ccedilla" unicode="Ç" d="M373 20 q73 0 123.5 35 q50.5 35 73.5 94 l24 -15 q-24 -63 -80.5 -102 q-56.5 -39 -137.5 -40 l-31 -79 q6 1 19 1 q44 0 71 -19.5 q27 -19.5 27 -55.5 q0 -40 -30.5 -61.5 q-30.5 -21.5 -76.5 -21.5 q-27 0 -56 9 l0 25 q27 -9 56 -9 q34 0 56.5 14.5 q22.5 14.5 22.5 42.5 q0 52 -79 52 q-11 0 -35 -2 l-4 18 l33 87 q-83 6 -148.5 55 q-65.5 49 -102 131.5 q-36.5 82.5 -36.5 187.5 q0 110 40 195.5 q40 85.5 111 132.5 q71 47 160 47 q82 0 139.5 -39.5 q57.5 -39.5 81.5 -103.5 l-24 -15 q-23 59 -73.5 94 q-50.5 35 -123.5 35 q-81 0 -144.5 -44 q-63.5 -44 -99 -122.5 q-35.5 -78.5 -35.5 -179.5 q0 -100 35.5 -179 q35.5 -79 99 -123.5 q63.5 -44.5 144.5 -44.5 Z" /><glyph glyph-name="Ccircumflex" unicode="&#x108;" d="M333 928 l25 0 l111 -122 l-32 0 l-91 102 l-92 -102 l-32 0 l111 122 ZM373 20 q73 0 123.5 35 q50.5 35 73.5 94 l24 -15 q-24 -64 -81.5 -103.5 q-57.5 -39.5 -139.5 -39.5 q-89 0 -160 47.5 q-71 47.5 -111 133 q-40 85.5 -40 195.5 q0 110 40 195.5 q40 85.5 111 132.5 q71 47 160 47 q82 0 139.5 -39.5 q57.5 -39.5 81.5 -103.5 l-24 -15 q-23 59 -73.5 94 q-50.5 35 -123.5 35 q-81 0 -144.5 -44 q-63.5 -44 -99 -122.5 q-35.5 -78.5 -35.5 -179.5 q0 -100 35.5 -179 q35.5 -79 99 -123.5 q63.5 -44.5 144.5 -44.5 Z" /><glyph glyph-name="Cdotaccent" unicode="&#x10a;" d="M346 854 q-11 0 -19.5 7.5 q-8.5 7.5 -8.5 19.5 q0 10 8 17.5 q8 7.5 19 7.5 q12 0 20 -7 q8 -7 8 -18 q0 -12 -8 -19.5 q-8 -7.5 -19 -7.5 ZM373 20 q73 0 123.5 35 q50.5 35 73.5 94 l24 -15 q-24 -64 -81.5 -103.5 q-57.5 -39.5 -139.5 -39.5 q-89 0 -160 47.5 q-71 47.5 -111 133 q-40 85.5 -40 195.5 q0 110 40 195.5 q40 85.5 111 132.5 q71 47 160 47 q82 0 139.5 -39.5 q57.5 -39.5 81.5 -103.5 l-24 -15 q-23 59 -73.5 94 q-50.5 35 -123.5 35 q-81 0 -144.5 -44 q-63.5 -44 -99 -122.5 q-35.5 -78.5 -35.5 -179.5 q0 -100 35.5 -179 q35.5 -79 99 -123.5 q63.5 -44.5 144.5 -44.5 Z" /><glyph glyph-name="D" unicode="D" d="M275 732 q107 0 189 -43 q82 -43 128 -125.5 q46 -82.5 46 -196.5 q0 -115 -45.5 -198 q-45.5 -83 -127.5 -126 q-82 -43 -190 -43 l-175 0 l0 732 l175 0 ZM272 28 q99 0 174.5 40 q75.5 40 117.5 116.5 q42 76.5 42 182.5 q0 105 -42 181.5 q-42 76.5 -117.5 116 q-75.5 39.5 -174.5 39.5 l-142 0 l0 -676 l142 0 Z" /><glyph glyph-name="Eth" unicode="Ð" d="M281 732 q107 0 189 -43 q82 -43 128 -125.5 q46 -82.5 46 -196.5 q0 -115 -46 -198 q-46 -83 -128 -126 q-82 -43 -189 -43 l-176 0 l0 366 l-85 0 l0 28 l85 0 l0 338 l176 0 ZM277 28 q99 0 174.5 40 q75.5 40 117.5 116.5 q42 76.5 42 182.5 q0 106 -42 182 q-42 76 -117.5 115.5 q-75.5 39.5 -174.5 39.5 l-141 0 l0 -310 l161 0 l0 -28 l-161 0 l0 -338 l141 0 Z" /><glyph glyph-name="Dcaron" unicode="&#x10e;" d="M200 928 l92 -102 l91 102 l32 0 l-111 -122 l-25 0 l-111 122 l32 0 ZM275 732 q107 0 189 -43 q82 -43 128 -125.5 q46 -82.5 46 -196.5 q0 -115 -45.5 -198 q-45.5 -83 -127.5 -126 q-82 -43 -190 -43 l-175 0 l0 732 l175 0 ZM272 28 q99 0 174.5 40 q75.5 40 117.5 116.5 q42 76.5 42 182.5 q0 105 -42 181.5 q-42 76.5 -117.5 116 q-75.5 39.5 -174.5 39.5 l-142 0 l0 -676 l142 0 Z" /><glyph glyph-name="Dcroat" unicode="&#x110;" d="M281 732 q107 0 189 -43 q82 -43 128 -125.5 q46 -82.5 46 -196.5 q0 -115 -46 -198 q-46 -83 -128 -126 q-82 -43 -189 -43 l-176 0 l0 366 l-85 0 l0 28 l85 0 l0 338 l176 0 ZM277 28 q99 0 174.5 40 q75.5 40 117.5 116.5 q42 76.5 42 182.5 q0 106 -42 182 q-42 76 -117.5 115.5 q-75.5 39.5 -174.5 39.5 l-141 0 l0 -310 l161 0 l0 -28 l-161 0 l0 -338 l141 0 Z" /><glyph glyph-name="E" unicode="E" d="M461 366 l-331 0 l0 -338 l376 0 l0 -28 l-406 0 l0 732 l395 0 l0 -28 l-365 0 l0 -310 l331 0 l0 -28 Z" /><glyph glyph-name="Eacute" unicode="É" d="M287 806 l84 122 l33 0 l-90 -122 l-27 0 ZM461 366 l-331 0 l0 -338 l376 0 l0 -28 l-406 0 l0 732 l395 0 l0 -28 l-365 0 l0 -310 l331 0 l0 -28 Z" /><glyph glyph-name="Ebreve" unicode="&#x114;" d="M295 806 q-57 0 -92 33.5 q-35 33.5 -35 88.5 l27 0 q1 -47 29 -73.5 q28 -26.5 71 -26.5 q45 0 73 26.5 q28 26.5 29 73.5 l27 0 q0 -55 -35 -88.5 q-35 -33.5 -94 -33.5 ZM461 366 l-331 0 l0 -338 l376 0 l0 -28 l-406 0 l0 732 l395 0 l0 -28 l-365 0 l0 -310 l331 0 l0 -28 Z" /><glyph glyph-name="Ecaron" unicode="&#x11a;" d="M203 928 l92 -102 l92 102 l31 0 l-111 -122 l-24 0 l-112 122 l32 0 ZM461 366 l-331 0 l0 -338 l376 0 l0 -28 l-406 0 l0 732 l395 0 l0 -28 l-365 0 l0 -310 l331 0 l0 -28 Z" /><glyph glyph-name="Ecircumflex" unicode="Ê" d="M283 928 l24 0 l111 -122 l-31 0 l-92 102 l-92 -102 l-32 0 l112 122 ZM461 366 l-331 0 l0 -338 l376 0 l0 -28 l-406 0 l0 732 l395 0 l0 -28 l-365 0 l0 -310 l331 0 l0 -28 Z" /><glyph glyph-name="uni1EBE" unicode="&#x1ebe;" d="M386 864 l81 64 l36 0 l-88 -64 l-29 0 ZM283 850 l24 0 l111 -64 l-40 0 l-83 48 l-83 -48 l-41 0 l112 64 ZM461 366 l-331 0 l0 -338 l376 0 l0 -28 l-406 0 l0 732 l395 0 l0 -28 l-365 0 l0 -310 l331 0 l0 -28 Z" /><glyph glyph-name="uni1EC6" unicode="&#x1ec6;" d="M283 928 l24 0 l111 -122 l-31 0 l-92 103 l-92 -103 l-32 0 l112 122 ZM461 366 l-331 0 l0 -338 l376 0 l0 -28 l-406 0 l0 732 l395 0 l0 -28 l-365 0 l0 -310 l331 0 l0 -28 ZM295 -155 q-11 0 -19 8.5 q-8 8.5 -8 19.5 q0 11 8 19 q8 8 19 8 q11 0 19 -8 q8 -8 8 -19 q0 -11 -8 -19.5 q-8 -8.5 -19 -8.5 Z" /><glyph glyph-name="uni1EC0" unicode="&#x1ec0;" d="M286 928 l36 0 l81 -64 l-29 0 l-88 64 ZM283 850 l24 0 l111 -64 l-40 0 l-83 48 l-83 -48 l-41 0 l112 64 ZM461 366 l-331 0 l0 -338 l376 0 l0 -28 l-406 0 l0 732 l395 0 l0 -28 l-365 0 l0 -310 l331 0 l0 -28 Z" /><glyph glyph-name="uni1EC2" unicode="&#x1ec2;" d="M319 920 q30 8 67 8 q39 0 66 -9.5 q27 -9.5 27 -26.5 q0 -29 -86 -42 l-12 12 q72 10 72 29 q0 10 -19 15.5 q-19 5.5 -49 5.5 q-40 0 -60 -6 l-6 14 ZM283 852 l24 0 l111 -66 l-40 0 l-83 50 l-83 -50 l-41 0 l112 66 ZM461 366 l-331 0 l0 -338 l376 0 l0 -28 l-406 0 l0 732 l395 0 l0 -28 l-365 0 l0 -310 l331 0 l0 -28 Z" /><glyph glyph-name="uni1EC4" unicode="&#x1ec4;" d="M163 877 q2 22 22 36.5 q20 14.5 55 14.5 q23 0 37.5 -5.5 q14.5 -5.5 32.5 -15.5 q14 -8 26 -12.5 q12 -4.5 28 -4.5 q44 0 52 34 l25 0 q-2 -21 -22 -36 q-20 -15 -55 -15 q-23 0 -37.5 5.5 q-14.5 5.5 -32.5 15.5 q-14 8 -26 12.5 q-12 4.5 -28 4.5 q-43 0 -51 -34 l-26 0 ZM283 855 l24 0 l112 -69 l-41 0 l-82 51 l-84 -51 l-40 0 l111 69 ZM461 366 l-331 0 l0 -338 l376 0 l0 -28 l-406 0 l0 732 l395 0 l0 -28 l-365 0 l0 -310 l331 0 l0 -28 Z" /><glyph glyph-name="Edieresis" unicode="Ë" d="M202 854 q-12 0 -20 7.5 q-8 7.5 -8 19.5 q0 10 8 17.5 q8 7.5 19 7.5 q11 0 19.5 -7.5 q8.5 -7.5 8.5 -17.5 q0 -12 -8 -19.5 q-8 -7.5 -19 -7.5 ZM390 854 q-11 0 -19.5 7.5 q-8.5 7.5 -8.5 19.5 q0 10 8 17.5 q8 7.5 19 7.5 q11 0 19.5 -7.5 q8.5 -7.5 8.5 -17.5 q0 -12 -8 -19.5 q-8 -7.5 -19 -7.5 ZM461 366 l-331 0 l0 -338 l376 0 l0 -28 l-406 0 l0 732 l395 0 l0 -28 l-365 0 l0 -310 l331 0 l0 -28 Z" /><glyph glyph-name="Edotaccent" unicode="&#x116;" d="M295 854 q-11 0 -19 7.5 q-8 7.5 -8 19.5 q0 10 8 17.5 q8 7.5 19 7.5 q11 0 19 -7.5 q8 -7.5 8 -17.5 q0 -12 -7.5 -19.5 q-7.5 -7.5 -19.5 -7.5 ZM461 366 l-331 0 l0 -338 l376 0 l0 -28 l-406 0 l0 732 l395 0 l0 -28 l-365 0 l0 -310 l331 0 l0 -28 Z" /><glyph glyph-name="uni1EB8" unicode="&#x1eb8;" d="M461 366 l-331 0 l0 -338 l376 0 l0 -28 l-406 0 l0 732 l395 0 l0 -28 l-365 0 l0 -310 l331 0 l0 -28 ZM295 -155 q-11 0 -19 8.5 q-8 8.5 -8 19.5 q0 11 8 19 q8 8 19 8 q11 0 19 -8 q8 -8 8 -19 q0 -11 -8 -19.5 q-8 -8.5 -19 -8.5 Z" /><glyph glyph-name="Egrave" unicode="È" d="M187 928 l33 0 l84 -122 l-27 0 l-90 122 ZM461 366 l-331 0 l0 -338 l376 0 l0 -28 l-406 0 l0 732 l395 0 l0 -28 l-365 0 l0 -310 l331 0 l0 -28 Z" /><glyph glyph-name="uni1EBA" unicode="&#x1eba;" d="M214 914 q28 14 67 14 q39 0 65.5 -16.5 q26.5 -16.5 26.5 -45.5 q0 -51 -86 -73 l-12 14 q35 10 53.5 23.5 q18.5 13.5 18.5 34.5 q0 21 -19 33 q-19 12 -50 12 q-33 0 -59 -13 l-5 17 ZM461 366 l-331 0 l0 -338 l376 0 l0 -28 l-406 0 l0 732 l395 0 l0 -28 l-365 0 l0 -310 l331 0 l0 -28 Z" /><glyph glyph-name="Emacron" unicode="&#x112;" d="M162 868 l0 29 l267 0 l0 -29 l-267 0 ZM461 366 l-331 0 l0 -338 l376 0 l0 -28 l-406 0 l0 732 l395 0 l0 -28 l-365 0 l0 -310 l331 0 l0 -28 Z" /><glyph glyph-name="Eogonek" unicode="&#x118;" d="M574 -194 q-41 -50 -103 -50 q-43 0 -73.5 24 q-30.5 24 -30.5 73 q0 83 99 147 l-366 0 l0 732 l395 0 l0 -28 l-365 0 l0 -310 l331 0 l0 -28 l-331 0 l0 -338 l376 0 l0 -28 q-55 -34 -83 -67.5 q-28 -33.5 -28 -77.5 q0 -39 21.5 -56.5 q21.5 -17.5 55.5 -17.5 q27 0 47.5 11 q20.5 11 38.5 31 l16 -17 Z" /><glyph glyph-name="uni1EBC" unicode="&#x1ebc;" d="M156 826 q2 39 22 66 q20 27 55 27 q24 0 38.5 -10.5 q14.5 -10.5 32.5 -31.5 q14 -17 26 -26 q12 -9 28 -9 q43 0 51 69 l26 0 q-2 -39 -22.5 -66 q-20.5 -27 -55.5 -27 q-23 0 -37.5 10.5 q-14.5 10.5 -32.5 31.5 q-14 17 -26 26 q-12 9 -28 9 q-43 0 -51 -69 l-26 0 ZM461 366 l-331 0 l0 -338 l376 0 l0 -28 l-406 0 l0 732 l395 0 l0 -28 l-365 0 l0 -310 l331 0 l0 -28 Z" /><glyph glyph-name="F" unicode="F" d="M100 732 l395 0 l0 -28 l-365 0 l0 -328 l331 0 l0 -28 l-331 0 l0 -348 l-30 0 l0 732 Z" /><glyph glyph-name="G" unicode="G" d="M409 334 l0 27 l212 0 l0 -252 q-30 -55 -90.5 -86.5 q-60.5 -31.5 -137.5 -31.5 q-95 0 -170 47 q-75 47 -118 132.5 q-43 85.5 -43 196.5 q0 110 43 195 q43 85 117.5 132.5 q74.5 47.5 166.5 47.5 q82 0 142.5 -37 q60.5 -37 85.5 -97 l-24 -14 q-23 54 -77 86.5 q-54 32.5 -128 32.5 q-83 0 -150 -44 q-67 -44 -105.5 -123 q-38.5 -79 -38.5 -179 q0 -101 38.5 -180 q38.5 -79 107 -123.5 q68.5 -44.5 155.5 -44.5 q64 0 115.5 25 q51.5 25 80.5 71 l0 219 l-182 0 Z" /><glyph glyph-name="Gbreve" unicode="&#x11e;" d="M385 807 q-57 0 -92 33.5 q-35 33.5 -35 87.5 l27 0 q1 -46 29 -72.5 q28 -26.5 71 -26.5 q45 0 73 26.5 q28 26.5 29 72.5 l27 0 q0 -55 -35.5 -88 q-35.5 -33 -93.5 -33 ZM409 334 l0 27 l212 0 l0 -252 q-30 -55 -90.5 -86.5 q-60.5 -31.5 -137.5 -31.5 q-95 0 -170 47 q-75 47 -118 132.5 q-43 85.5 -43 196.5 q0 110 43 195 q43 85 117.5 132.5 q74.5 47.5 166.5 47.5 q82 0 142.5 -37 q60.5 -37 85.5 -97 l-24 -14 q-23 54 -77 86.5 q-54 32.5 -128 32.5 q-83 0 -150 -44 q-67 -44 -105.5 -123 q-38.5 -79 -38.5 -179 q0 -101 38.5 -180 q38.5 -79 107 -123.5 q68.5 -44.5 155.5 -44.5 q64 0 115.5 25 q51.5 25 80.5 71 l0 219 l-182 0 Z" /><glyph glyph-name="Gcircumflex" unicode="&#x11c;" d="M373 928 l24 0 l111 -121 l-31 0 l-92 101 l-92 -101 l-32 0 l112 121 ZM409 334 l0 27 l212 0 l0 -252 q-30 -55 -90.5 -86.5 q-60.5 -31.5 -137.5 -31.5 q-95 0 -170 47 q-75 47 -118 132.5 q-43 85.5 -43 196.5 q0 110 43 195 q43 85 117.5 132.5 q74.5 47.5 166.5 47.5 q82 0 142.5 -37 q60.5 -37 85.5 -97 l-24 -14 q-23 54 -77 86.5 q-54 32.5 -128 32.5 q-83 0 -150 -44 q-67 -44 -105.5 -123 q-38.5 -79 -38.5 -179 q0 -101 38.5 -180 q38.5 -79 107 -123.5 q68.5 -44.5 155.5 -44.5 q64 0 115.5 25 q51.5 25 80.5 71 l0 219 l-182 0 Z" /><glyph glyph-name="uni0122" unicode="&#x122;" d="M591 334 l-182 0 l0 27 l212 0 l0 -252 q-30 -55 -90.5 -86.5 q-60.5 -31.5 -137.5 -31.5 q-95 0 -170 47 q-75 47 -118 132.5 q-43 85.5 -43 196.5 q0 110 43 195 q43 85 117.5 132.5 q74.5 47.5 166.5 47.5 q82 0 142.5 -37 q60.5 -37 85.5 -97 l-24 -14 q-23 54 -77 86.5 q-54 32.5 -128 32.5 q-83 0 -150 -44 q-67 -44 -105.5 -123 q-38.5 -79 -38.5 -179 q0 -101 38.5 -180 q38.5 -79 107 -123.5 q68.5 -44.5 155.5 -44.5 q64 0 115.5 25 q51.5 25 80.5 71 l0 219 ZM384 -78 q12 0 20.5 -10.5 q8.5 -10.5 8.5 -33.5 q0 -33 -18 -59 q-18 -26 -57 -34 l0 18 q53 15 55 69 q-3 -2 -9 -2 q-11 0 -17.5 7.5 q-6.5 7.5 -6.5 18.5 q0 11 7 18.5 q7 7.5 17 7.5 Z" /><glyph glyph-name="Gdotaccent" unicode="&#x120;" d="M385 855 q-11 0 -19 7.5 q-8 7.5 -8 19.5 q0 10 8 17.5 q8 7.5 19 7.5 q11 0 19 -7.5 q8 -7.5 8 -17.5 q0 -12 -7.5 -19.5 q-7.5 -7.5 -19.5 -7.5 ZM409 334 l0 27 l212 0 l0 -252 q-30 -55 -90.5 -86.5 q-60.5 -31.5 -137.5 -31.5 q-95 0 -170 47 q-75 47 -118 132.5 q-43 85.5 -43 196.5 q0 110 43 195 q43 85 117.5 132.5 q74.5 47.5 166.5 47.5 q82 0 142.5 -37 q60.5 -37 85.5 -97 l-24 -14 q-23 54 -77 86.5 q-54 32.5 -128 32.5 q-83 0 -150 -44 q-67 -44 -105.5 -123 q-38.5 -79 -38.5 -179 q0 -101 38.5 -180 q38.5 -79 107 -123.5 q68.5 -44.5 155.5 -44.5 q64 0 115.5 25 q51.5 25 80.5 71 l0 219 l-182 0 Z" /><glyph glyph-name="H" unicode="H" d="M130 395 l452 0 l0 337 l31 0 l0 -732 l-31 0 l0 367 l-452 0 l0 -367 l-30 0 l0 732 l30 0 l0 -337 Z" /><glyph glyph-name="Hbar" unicode="&#x126;" d="M620 732 l0 -153 l71 0 l0 -27 l-71 0 l0 -552 l-31 0 l0 367 l-452 0 l0 -367 l-30 0 l0 552 l-72 0 l0 27 l72 0 l0 153 l30 0 l0 -153 l452 0 l0 153 l31 0 ZM137 552 l0 -157 l452 0 l0 157 l-452 0 Z" /><glyph glyph-name="Hcircumflex" unicode="&#x124;" d="M343 928 l25 0 l111 -122 l-32 0 l-91 102 l-92 -102 l-32 0 l111 122 ZM130 395 l452 0 l0 337 l31 0 l0 -732 l-31 0 l0 367 l-452 0 l0 -367 l-30 0 l0 732 l30 0 l0 -337 Z" /><glyph glyph-name="I" unicode="I" d="M130 0 l-30 0 l0 732 l30 0 l0 -732 Z" /><glyph glyph-name="IJ" unicode="&#x132;" d="M130 0 l-30 0 l0 732 l30 0 l0 -732 ZM397 -9 q-55 0 -93.5 27 q-38.5 27 -54.5 80 l24 15 q15 -47 47 -70.5 q32 -23.5 78 -23.5 q123 0 123 176 l0 537 l31 0 l0 -540 q0 -99 -40.5 -150 q-40.5 -51 -114.5 -51 Z" /><glyph glyph-name="Iacute" unicode="Í" d="M107 806 l84 122 l33 0 l-90 -122 l-27 0 ZM130 0 l-30 0 l0 732 l30 0 l0 -732 Z" /><glyph glyph-name="Ibreve" unicode="&#x12c;" d="M115 806 q-57 0 -92.5 33.5 q-35.5 33.5 -35.5 88.5 l28 0 q1 -47 29 -73.5 q28 -26.5 71 -26.5 q45 0 73 26.5 q28 26.5 29 73.5 l27 0 q0 -55 -35 -88.5 q-35 -33.5 -94 -33.5 ZM130 0 l-30 0 l0 732 l30 0 l0 -732 Z" /><glyph glyph-name="uni01CF" unicode="&#x1cf;" d="M23 928 l92 -102 l92 102 l31 0 l-111 -122 l-24 0 l-112 122 l32 0 ZM130 0 l-30 0 l0 732 l30 0 l0 -732 Z" /><glyph glyph-name="Icircumflex" unicode="Î" d="M103 928 l24 0 l111 -122 l-31 0 l-92 102 l-92 -102 l-32 0 l112 122 ZM130 0 l-30 0 l0 732 l30 0 l0 -732 Z" /><glyph glyph-name="Idieresis" unicode="Ï" d="M22 854 q-12 0 -20 7.5 q-8 7.5 -8 19.5 q0 10 8 17.5 q8 7.5 19 7.5 q11 0 19.5 -7.5 q8.5 -7.5 8.5 -17.5 q0 -12 -8 -19.5 q-8 -7.5 -19 -7.5 ZM210 854 q-11 0 -19.5 7.5 q-8.5 7.5 -8.5 19.5 q0 10 8 17.5 q8 7.5 19 7.5 q11 0 19.5 -7.5 q8.5 -7.5 8.5 -17.5 q0 -12 -8 -19.5 q-8 -7.5 -19 -7.5 ZM130 0 l-30 0 l0 732 l30 0 l0 -732 Z" /><glyph glyph-name="Idotaccent" unicode="&#x130;" d="M115 854 q-11 0 -19 7.5 q-8 7.5 -8 19.5 q0 10 8 17.5 q8 7.5 19 7.5 q11 0 19 -7.5 q8 -7.5 8 -17.5 q0 -12 -7.5 -19.5 q-7.5 -7.5 -19.5 -7.5 ZM130 0 l-30 0 l0 732 l30 0 l0 -732 Z" /><glyph glyph-name="uni1ECA" unicode="&#x1eca;" d="M130 0 l-30 0 l0 732 l30 0 l0 -732 ZM115 -155 q-11 0 -19 8.5 q-8 8.5 -8 19.5 q0 11 8 19 q8 8 19 8 q11 0 19 -8 q8 -8 8 -19 q0 -11 -8 -19.5 q-8 -8.5 -19 -8.5 Z" /><glyph glyph-name="Igrave" unicode="Ì" d="M7 928 l33 0 l84 -122 l-27 0 l-90 122 ZM130 0 l-30 0 l0 732 l30 0 l0 -732 Z" /><glyph glyph-name="uni1EC8" unicode="&#x1ec8;" d="M34 914 q28 14 67 14 q39 0 65.5 -16.5 q26.5 -16.5 26.5 -45.5 q0 -51 -86 -73 l-12 14 q35 10 53.5 23.5 q18.5 13.5 18.5 34.5 q0 21 -19 33 q-19 12 -50 12 q-33 0 -59 -13 l-5 17 ZM130 0 l-30 0 l0 732 l30 0 l0 -732 Z" /><glyph glyph-name="Imacron" unicode="&#x12a;" d="M-18 868 l0 29 l267 0 l0 -29 l-267 0 ZM130 0 l-30 0 l0 732 l30 0 l0 -732 Z" /><glyph glyph-name="Iogonek" unicode="&#x12e;" d="M198 -194 q-41 -50 -103 -50 q-43 0 -73.5 24 q-30.5 24 -30.5 73 q0 47 30 86 q30 39 79 68 l0 725 l30 0 l0 -732 q-55 -34 -83 -67.5 q-28 -33.5 -28 -77.5 q0 -39 21.5 -56.5 q21.5 -17.5 55.5 -17.5 q27 0 47.5 11 q20.5 11 38.5 31 l16 -17 Z" /><glyph glyph-name="Itilde" unicode="&#x128;" d="M-24 826 q2 39 22 66 q20 27 55 27 q24 0 38.5 -10.5 q14.5 -10.5 32.5 -31.5 q14 -17 26 -26 q12 -9 28 -9 q43 0 51 69 l26 0 q-2 -39 -22.5 -66 q-20.5 -27 -55.5 -27 q-23 0 -37.5 10.5 q-14.5 10.5 -32.5 31.5 q-14 17 -26 26 q-12 9 -28 9 q-43 0 -51 -69 l-26 0 ZM130 0 l-30 0 l0 732 l30 0 l0 -732 Z" /><glyph glyph-name="J" unicode="J" d="M165 -9 q-53 0 -91 27 q-38 27 -54 80 l24 15 q15 -47 46.5 -70.5 q31.5 -23.5 75.5 -23.5 q61 0 93.5 44 q32.5 44 32.5 132 l0 537 l31 0 l0 -540 q0 -99 -42.5 -150 q-42.5 -51 -115.5 -51 Z" /><glyph glyph-name="Jcircumflex" unicode="&#x134;" d="M295 928 l24 0 l111 -122 l-31 0 l-92 102 l-92 -102 l-32 0 l112 122 ZM167 -9 q-54 0 -92.5 27 q-38.5 27 -54.5 80 l24 15 q14 -47 46 -70.5 q32 -23.5 78 -23.5 q124 0 124 176 l0 537 l30 0 l0 -540 q0 -100 -40.5 -150.5 q-40.5 -50.5 -114.5 -50.5 Z" /><glyph glyph-name="K" unicode="K" d="M290 427 l316 -427 l-39 0 l-298 403 l-139 -142 l0 -261 l-30 0 l0 732 l30 0 l0 -431 l417 431 l40 0 l-297 -305 Z" /><glyph glyph-name="uni0136" unicode="&#x136;" d="M547 732 l40 0 l-297 -305 l316 -427 l-39 0 l-298 403 l-139 -142 l0 -261 l-30 0 l0 732 l30 0 l0 -431 l417 431 ZM324 -78 q12 0 20.5 -10.5 q8.5 -10.5 8.5 -33.5 q0 -33 -18 -59 q-18 -26 -57 -34 l0 18 q29 8 42 26.5 q13 18.5 13 42.5 q-3 -2 -9 -2 q-11 0 -17.5 7.5 q-6.5 7.5 -6.5 18.5 q0 11 7 18.5 q7 7.5 17 7.5 Z" /><glyph glyph-name="L" unicode="L" d="M100 732 l30 0 l0 -704 l366 0 l0 -28 l-396 0 l0 732 Z" /><glyph glyph-name="Lacute" unicode="&#x139;" d="M107 807 l84 121 l33 0 l-90 -121 l-27 0 ZM100 732 l30 0 l0 -704 l366 0 l0 -28 l-396 0 l0 732 Z" /><glyph glyph-name="Lcaron" unicode="&#x13d;" d="M366 697 q0 -33 -18 -59 q-18 -26 -57 -34 l0 18 q53 16 55 69 q-6 -2 -10 -2 q-10 0 -17 7.5 q-7 7.5 -7 18.5 q0 11 7 19 q7 8 18 8 q12 0 20.5 -11 q8.5 -11 8.5 -34 ZM100 732 l30 0 l0 -704 l366 0 l0 -28 l-396 0 l0 732 Z" /><glyph glyph-name="uni013B" unicode="&#x13b;" d="M100 732 l30 0 l0 -704 l366 0 l0 -28 l-396 0 l0 732 ZM307 -78 q12 0 20.5 -10.5 q8.5 -10.5 8.5 -33.5 q0 -33 -18 -59 q-18 -26 -57 -34 l0 18 q53 16 55 69 q-3 -2 -10 -2 q-10 0 -17 7.5 q-7 7.5 -7 18.5 q0 11 7 18.5 q7 7.5 18 7.5 Z" /><glyph glyph-name="Ldot" unicode="&#x13f;" d="M100 732 l30 0 l0 -704 l366 0 l0 -28 l-396 0 l0 732 ZM333 349 q-11 0 -19.5 8 q-8.5 8 -8.5 20 q0 12 8 19.5 q8 7.5 19 7.5 q12 0 20 -7.5 q8 -7.5 8 -19.5 q0 -12 -8 -20 q-8 -8 -19 -8 Z" /><glyph glyph-name="Lslash" unicode="&#x141;" d="M303 425 l-156 -79 l0 -318 l366 0 l0 -28 l-397 0 l0 330 l-94 -48 l0 30 l94 48 l0 372 l31 0 l0 -356 l156 80 l0 -31 Z" /><glyph glyph-name="M" unicode="M" d="M714 732 l26 0 l0 -732 l-29 0 l0 672 l-281 -440 l-19 0 l-282 441 l0 -673 l-29 0 l0 732 l27 0 l294 -461 l293 461 Z" /><glyph glyph-name="uni1E3E" unicode="&#x1e3e;" d="M412 806 l84 122 l33 0 l-90 -122 l-27 0 ZM714 732 l26 0 l0 -732 l-29 0 l0 672 l-281 -440 l-19 0 l-282 441 l0 -673 l-29 0 l0 732 l27 0 l294 -461 l293 461 Z" /><glyph glyph-name="N" unicode="N" d="M126 732 l456 -675 l0 675 l29 0 l0 -732 l-26 0 l-456 676 l0 -676 l-29 0 l0 732 l26 0 Z" /><glyph glyph-name="Nacute" unicode="&#x143;" d="M347 806 l83 122 l33 0 l-90 -122 l-26 0 ZM126 732 l456 -675 l0 675 l29 0 l0 -732 l-26 0 l-456 676 l0 -676 l-29 0 l0 732 l26 0 Z" /><glyph glyph-name="Ncaron" unicode="&#x147;" d="M263 928 l92 -102 l91 102 l32 0 l-111 -122 l-25 0 l-111 122 l32 0 ZM126 732 l456 -675 l0 675 l29 0 l0 -732 l-26 0 l-456 676 l0 -676 l-29 0 l0 732 l26 0 Z" /><glyph glyph-name="uni0145" unicode="&#x145;" d="M126 732 l456 -675 l0 675 l29 0 l0 -732 l-26 0 l-456 676 l0 -676 l-29 0 l0 732 l26 0 ZM353 -78 q13 0 21.5 -10.5 q8.5 -10.5 8.5 -33.5 q0 -33 -18 -59 q-18 -26 -57 -34 l0 18 q53 16 55 69 q-3 -2 -10 -2 q-10 0 -17 7.5 q-7 7.5 -7 18.5 q0 11 7 18.5 q7 7.5 17 7.5 Z" /><glyph glyph-name="Eng" unicode="&#x14a;" d="M582 732 l29 0 l0 -810 q0 -88 -29 -127 q-29 -39 -84 -39 q-40 0 -63 19 l12 25 q20 -17 51 -17 q41 0 62.5 32 q21.5 32 21.5 109 l0 81 l-453 671 l0 -676 l-29 0 l0 732 l26 0 l456 -675 l0 675 Z" /><glyph glyph-name="Ntilde" unicode="Ñ" d="M216 826 q2 39 22 66 q20 27 55 27 q23 0 37.5 -10.5 q14.5 -10.5 32.5 -31.5 q14 -17 26 -26 q12 -9 28 -9 q45 0 51 69 l26 0 q-2 -39 -22 -66 q-20 -27 -55 -27 q-23 0 -37.5 10.5 q-14.5 10.5 -32.5 31.5 q-14 17 -26 26 q-12 9 -28 9 q-43 0 -51 -69 l-26 0 ZM126 732 l456 -675 l0 675 l29 0 l0 -732 l-26 0 l-456 676 l0 -676 l-29 0 l0 732 l26 0 Z" /><glyph glyph-name="O" unicode="O" d="M62 367 q0 112 39.5 197 q39.5 85 110 131.5 q70.5 46.5 160.5 46.5 q90 0 160.5 -46.5 q70.5 -46.5 110 -131.5 q39.5 -85 39.5 -197 q0 -112 -40 -197.5 q-40 -85.5 -110.5 -132 q-70.5 -46.5 -159.5 -46.5 q-90 0 -160.5 46.5 q-70.5 46.5 -110 131.5 q-39.5 85 -39.5 198 ZM94 367 q0 -102 35 -181 q35 -79 98 -123 q63 -44 145 -44 q81 0 144.5 44 q63.5 44 99 123 q35.5 79 35.5 181 q0 101 -35.5 180 q-35.5 79 -99 122.5 q-63.5 43.5 -144.5 43.5 q-81 0 -144.5 -43.5 q-63.5 -43.5 -98.5 -122 q-35 -78.5 -35 -180.5 Z" /><glyph glyph-name="Oacute" unicode="Ó" d="M363 806 l84 122 l33 0 l-90 -122 l-27 0 ZM62 367 q0 112 39.5 197 q39.5 85 110 131.5 q70.5 46.5 160.5 46.5 q90 0 160.5 -46.5 q70.5 -46.5 110 -131.5 q39.5 -85 39.5 -197 q0 -112 -40 -197.5 q-40 -85.5 -110.5 -132 q-70.5 -46.5 -159.5 -46.5 q-90 0 -160.5 46.5 q-70.5 46.5 -110 131.5 q-39.5 85 -39.5 198 ZM94 367 q0 -102 35 -181 q35 -79 98 -123 q63 -44 145 -44 q81 0 144.5 44 q63.5 44 99 123 q35.5 79 35.5 181 q0 101 -35.5 180 q-35.5 79 -99 122.5 q-63.5 43.5 -144.5 43.5 q-81 0 -144.5 -43.5 q-63.5 -43.5 -98.5 -122 q-35 -78.5 -35 -180.5 Z" /><glyph glyph-name="Obreve" unicode="&#x14e;" d="M372 806 q-57 0 -92.5 33.5 q-35.5 33.5 -35.5 88.5 l27 0 q1 -47 29 -73.5 q28 -26.5 72 -26.5 q45 0 72.5 26.5 q27.5 26.5 29.5 73.5 l27 0 q0 -55 -35 -88.5 q-35 -33.5 -94 -33.5 ZM62 367 q0 112 39.5 197 q39.5 85 110 131.5 q70.5 46.5 160.5 46.5 q90 0 160.5 -46.5 q70.5 -46.5 110 -131.5 q39.5 -85 39.5 -197 q0 -112 -40 -197.5 q-40 -85.5 -110.5 -132 q-70.5 -46.5 -159.5 -46.5 q-90 0 -160.5 46.5 q-70.5 46.5 -110 131.5 q-39.5 85 -39.5 198 ZM94 367 q0 -102 35 -181 q35 -79 98 -123 q63 -44 145 -44 q81 0 144.5 44 q63.5 44 99 123 q35.5 79 35.5 181 q0 101 -35.5 180 q-35.5 79 -99 122.5 q-63.5 43.5 -144.5 43.5 q-81 0 -144.5 -43.5 q-63.5 -43.5 -98.5 -122 q-35 -78.5 -35 -180.5 Z" /><glyph glyph-name="uni01D1" unicode="&#x1d1;" d="M280 928 l92 -102 l91 102 l32 0 l-111 -122 l-25 0 l-111 122 l32 0 ZM62 367 q0 112 39.5 197 q39.5 85 110 131.5 q70.5 46.5 160.5 46.5 q90 0 160.5 -46.5 q70.5 -46.5 110 -131.5 q39.5 -85 39.5 -197 q0 -112 -40 -197.5 q-40 -85.5 -110.5 -132 q-70.5 -46.5 -159.5 -46.5 q-90 0 -160.5 46.5 q-70.5 46.5 -110 131.5 q-39.5 85 -39.5 198 ZM94 367 q0 -102 35 -181 q35 -79 98 -123 q63 -44 145 -44 q81 0 144.5 44 q63.5 44 99 123 q35.5 79 35.5 181 q0 101 -35.5 180 q-35.5 79 -99 122.5 q-63.5 43.5 -144.5 43.5 q-81 0 -144.5 -43.5 q-63.5 -43.5 -98.5 -122 q-35 -78.5 -35 -180.5 Z" /><glyph glyph-name="Ocircumflex" unicode="Ô" d="M359 924 l25 0 l111 -118 l-32 0 l-91 99 l-92 -99 l-32 0 l111 118 ZM62 367 q0 112 39.5 197 q39.5 85 110 131.5 q70.5 46.5 160.5 46.5 q90 0 160.5 -46.5 q70.5 -46.5 110 -131.5 q39.5 -85 39.5 -197 q0 -112 -40 -197.5 q-40 -85.5 -110.5 -132 q-70.5 -46.5 -159.5 -46.5 q-90 0 -160.5 46.5 q-70.5 46.5 -110 131.5 q-39.5 85 -39.5 198 ZM94 367 q0 -102 35 -181 q35 -79 98 -123 q63 -44 145 -44 q81 0 144.5 44 q63.5 44 99 123 q35.5 79 35.5 181 q0 101 -35.5 180 q-35.5 79 -99 122.5 q-63.5 43.5 -144.5 43.5 q-81 0 -144.5 -43.5 q-63.5 -43.5 -98.5 -122 q-35 -78.5 -35 -180.5 Z" /><glyph glyph-name="uni1ED0" unicode="&#x1ed0;" d="M462 864 l82 64 l35 0 l-87 -64 l-30 0 ZM359 850 l25 0 l111 -64 l-40 0 l-83 48 l-84 -48 l-40 0 l111 64 ZM62 367 q0 112 39.5 197 q39.5 85 110 131.5 q70.5 46.5 160.5 46.5 q90 0 160.5 -46.5 q70.5 -46.5 110 -131.5 q39.5 -85 39.5 -197 q0 -112 -40 -197.5 q-40 -85.5 -110.5 -132 q-70.5 -46.5 -159.5 -46.5 q-90 0 -160.5 46.5 q-70.5 46.5 -110 131.5 q-39.5 85 -39.5 198 ZM94 367 q0 -102 35 -181 q35 -79 98 -123 q63 -44 145 -44 q81 0 144.5 44 q63.5 44 99 123 q35.5 79 35.5 181 q0 101 -35.5 180 q-35.5 79 -99 122.5 q-63.5 43.5 -144.5 43.5 q-81 0 -144.5 -43.5 q-63.5 -43.5 -98.5 -122 q-35 -78.5 -35 -180.5 Z" /><glyph glyph-name="uni1ED8" unicode="&#x1ed8;" d="M359 928 l25 0 l111 -122 l-32 0 l-91 103 l-92 -103 l-32 0 l111 122 ZM62 367 q0 112 39.5 197 q39.5 85 110 131.5 q70.5 46.5 160.5 46.5 q90 0 160.5 -46.5 q70.5 -46.5 110 -131.5 q39.5 -85 39.5 -197 q0 -112 -40 -197.5 q-40 -85.5 -110.5 -132 q-70.5 -46.5 -159.5 -46.5 q-90 0 -160.5 46.5 q-70.5 46.5 -110 131.5 q-39.5 85 -39.5 198 ZM94 367 q0 -102 35 -181 q35 -79 98 -123 q63 -44 145 -44 q81 0 144.5 44 q63.5 44 99 123 q35.5 79 35.5 181 q0 101 -35.5 180 q-35.5 79 -99 122.5 q-63.5 43.5 -144.5 43.5 q-81 0 -144.5 -43.5 q-63.5 -43.5 -98.5 -122 q-35 -78.5 -35 -180.5 ZM372 -155 q-11 0 -19.5 8.5 q-8.5 8.5 -8.5 19.5 q0 11 8.5 19 q8.5 8 19.5 8 q11 0 19 -8 q8 -8 8 -19 q0 -11 -8 -19.5 q-8 -8.5 -19 -8.5 Z" /><glyph glyph-name="uni1ED2" unicode="&#x1ed2;" d="M363 928 l35 0 l81 -64 l-29 0 l-87 64 ZM359 850 l25 0 l111 -64 l-40 0 l-83 48 l-84 -48 l-40 0 l111 64 ZM62 367 q0 112 39.5 197 q39.5 85 110 131.5 q70.5 46.5 160.5 46.5 q90 0 160.5 -46.5 q70.5 -46.5 110 -131.5 q39.5 -85 39.5 -197 q0 -112 -40 -197.5 q-40 -85.5 -110.5 -132 q-70.5 -46.5 -159.5 -46.5 q-90 0 -160.5 46.5 q-70.5 46.5 -110 131.5 q-39.5 85 -39.5 198 ZM94 367 q0 -102 35 -181 q35 -79 98 -123 q63 -44 145 -44 q81 0 144.5 44 q63.5 44 99 123 q35.5 79 35.5 181 q0 101 -35.5 180 q-35.5 79 -99 122.5 q-63.5 43.5 -144.5 43.5 q-81 0 -144.5 -43.5 q-63.5 -43.5 -98.5 -122 q-35 -78.5 -35 -180.5 Z" /><glyph glyph-name="uni1ED4" unicode="&#x1ed4;" d="M396 920 q29 8 67 8 q39 0 65.5 -9.5 q26.5 -9.5 26.5 -26.5 q0 -29 -86 -42 l-11 12 q72 10 72 29 q0 10 -19 15.5 q-19 5.5 -50 5.5 q-40 0 -60 -6 l-5 14 ZM359 852 l25 0 l111 -66 l-40 0 l-83 50 l-84 -50 l-40 0 l111 66 ZM62 367 q0 112 39.5 197 q39.5 85 110 131.5 q70.5 46.5 160.5 46.5 q90 0 160.5 -46.5 q70.5 -46.5 110 -131.5 q39.5 -85 39.5 -197 q0 -112 -40 -197.5 q-40 -85.5 -110.5 -132 q-70.5 -46.5 -159.5 -46.5 q-90 0 -160.5 46.5 q-70.5 46.5 -110 131.5 q-39.5 85 -39.5 198 ZM94 367 q0 -102 35 -181 q35 -79 98 -123 q63 -44 145 -44 q81 0 144.5 44 q63.5 44 99 123 q35.5 79 35.5 181 q0 101 -35.5 180 q-35.5 79 -99 122.5 q-63.5 43.5 -144.5 43.5 q-81 0 -144.5 -43.5 q-63.5 -43.5 -98.5 -122 q-35 -78.5 -35 -180.5 Z" /><glyph glyph-name="uni1ED6" unicode="&#x1ed6;" d="M239 877 q2 22 22 36.5 q20 14.5 55 14.5 q23 0 37.5 -5.5 q14.5 -5.5 32.5 -15.5 q14 -8 26 -12.5 q12 -4.5 28 -4.5 q43 0 51 34 l26 0 q-2 -21 -22 -36 q-20 -15 -55 -15 q-23 0 -37.5 5.5 q-14.5 5.5 -32.5 15.5 q-14 8 -26 12.5 q-12 4.5 -28 4.5 q-45 0 -51 -34 l-26 0 ZM358 855 l25 0 l111 -69 l-40 0 l-83 51 l-83 -51 l-41 0 l111 69 ZM62 367 q0 112 39.5 197 q39.5 85 110 131.5 q70.5 46.5 160.5 46.5 q90 0 160.5 -46.5 q70.5 -46.5 110 -131.5 q39.5 -85 39.5 -197 q0 -112 -40 -197.5 q-40 -85.5 -110.5 -132 q-70.5 -46.5 -159.5 -46.5 q-90 0 -160.5 46.5 q-70.5 46.5 -110 131.5 q-39.5 85 -39.5 198 ZM94 367 q0 -102 35 -181 q35 -79 98 -123 q63 -44 145 -44 q81 0 144.5 44 q63.5 44 99 123 q35.5 79 35.5 181 q0 101 -35.5 180 q-35.5 79 -99 122.5 q-63.5 43.5 -144.5 43.5 q-81 0 -144.5 -43.5 q-63.5 -43.5 -98.5 -122 q-35 -78.5 -35 -180.5 Z" /><glyph glyph-name="Odieresis" unicode="Ö" d="M278 854 q-11 0 -19.5 7.5 q-8.5 7.5 -8.5 19.5 q0 10 8 17.5 q8 7.5 19 7.5 q12 0 20 -7 q8 -7 8 -18 q0 -12 -8 -19.5 q-8 -7.5 -19 -7.5 ZM466 854 q-11 0 -19 7.5 q-8 7.5 -8 19.5 q0 10 8 17.5 q8 7.5 19 7.5 q11 0 19 -7.5 q8 -7.5 8 -17.5 q0 -12 -7.5 -19.5 q-7.5 -7.5 -19.5 -7.5 ZM62 367 q0 112 39.5 197 q39.5 85 110 131.5 q70.5 46.5 160.5 46.5 q90 0 160.5 -46.5 q70.5 -46.5 110 -131.5 q39.5 -85 39.5 -197 q0 -112 -40 -197.5 q-40 -85.5 -110.5 -132 q-70.5 -46.5 -159.5 -46.5 q-90 0 -160.5 46.5 q-70.5 46.5 -110 131.5 q-39.5 85 -39.5 198 ZM94 367 q0 -102 35 -181 q35 -79 98 -123 q63 -44 145 -44 q81 0 144.5 44 q63.5 44 99 123 q35.5 79 35.5 181 q0 101 -35.5 180 q-35.5 79 -99 122.5 q-63.5 43.5 -144.5 43.5 q-81 0 -144.5 -43.5 q-63.5 -43.5 -98.5 -122 q-35 -78.5 -35 -180.5 Z" /><glyph glyph-name="uni1ECC" unicode="&#x1ecc;" d="M62 367 q0 112 39.5 197 q39.5 85 110 131.5 q70.5 46.5 160.5 46.5 q90 0 160.5 -46.5 q70.5 -46.5 110 -131.5 q39.5 -85 39.5 -197 q0 -112 -40 -197.5 q-40 -85.5 -110.5 -132 q-70.5 -46.5 -159.5 -46.5 q-90 0 -160.5 46.5 q-70.5 46.5 -110 131.5 q-39.5 85 -39.5 198 ZM94 367 q0 -102 35 -181 q35 -79 98 -123 q63 -44 145 -44 q81 0 144.5 44 q63.5 44 99 123 q35.5 79 35.5 181 q0 101 -35.5 180 q-35.5 79 -99 122.5 q-63.5 43.5 -144.5 43.5 q-81 0 -144.5 -43.5 q-63.5 -43.5 -98.5 -122 q-35 -78.5 -35 -180.5 ZM372 -155 q-11 0 -19.5 8.5 q-8.5 8.5 -8.5 19.5 q0 11 8.5 19 q8.5 8 19.5 8 q11 0 19 -8 q8 -8 8 -19 q0 -11 -8 -19.5 q-8 -8.5 -19 -8.5 Z" /><glyph glyph-name="Ograve" unicode="Ò" d="M264 928 l33 0 l83 -122 l-26 0 l-90 122 ZM62 367 q0 112 39.5 197 q39.5 85 110 131.5 q70.5 46.5 160.5 46.5 q90 0 160.5 -46.5 q70.5 -46.5 110 -131.5 q39.5 -85 39.5 -197 q0 -112 -40 -197.5 q-40 -85.5 -110.5 -132 q-70.5 -46.5 -159.5 -46.5 q-90 0 -160.5 46.5 q-70.5 46.5 -110 131.5 q-39.5 85 -39.5 198 ZM94 367 q0 -102 35 -181 q35 -79 98 -123 q63 -44 145 -44 q81 0 144.5 44 q63.5 44 99 123 q35.5 79 35.5 181 q0 101 -35.5 180 q-35.5 79 -99 122.5 q-63.5 43.5 -144.5 43.5 q-81 0 -144.5 -43.5 q-63.5 -43.5 -98.5 -122 q-35 -78.5 -35 -180.5 Z" /><glyph glyph-name="uni1ECE" unicode="&#x1ece;" d="M290 914 q30 14 67 14 q40 0 66.5 -16.5 q26.5 -16.5 26.5 -45.5 q0 -51 -86 -73 l-12 14 q35 10 53 23.5 q18 13.5 18 34.5 q0 21 -19 33 q-19 12 -49 12 q-34 0 -60 -13 l-5 17 ZM62 367 q0 112 39.5 197 q39.5 85 110 131.5 q70.5 46.5 160.5 46.5 q90 0 160.5 -46.5 q70.5 -46.5 110 -131.5 q39.5 -85 39.5 -197 q0 -112 -40 -197.5 q-40 -85.5 -110.5 -132 q-70.5 -46.5 -159.5 -46.5 q-90 0 -160.5 46.5 q-70.5 46.5 -110 131.5 q-39.5 85 -39.5 198 ZM94 367 q0 -102 35 -181 q35 -79 98 -123 q63 -44 145 -44 q81 0 144.5 44 q63.5 44 99 123 q35.5 79 35.5 181 q0 101 -35.5 180 q-35.5 79 -99 122.5 q-63.5 43.5 -144.5 43.5 q-81 0 -144.5 -43.5 q-63.5 -43.5 -98.5 -122 q-35 -78.5 -35 -180.5 Z" /><glyph glyph-name="Ohorn" unicode="&#x1a0;" d="M495 710 q87 -39 137 -129 q50 -90 50 -214 q0 -110 -40 -195.5 q-40 -85.5 -110.5 -133 q-70.5 -47.5 -159.5 -47.5 q-89 0 -159.5 47 q-70.5 47 -110.5 132.5 q-40 85.5 -40 196.5 q0 110 40 195.5 q40 85.5 111.5 132.5 q71.5 47 163.5 47 q37 0 80 -5 q10 -1 35 -3 q25 -2 47 -2 q34 0 52 6 q18 6 26.5 22.5 q8.5 16.5 8.5 49.5 q0 26 -5 48 l27 0 q5 -24 5 -49 q0 -42 -11 -64 q-11 -22 -33.5 -29.5 q-22.5 -7.5 -62.5 -7.5 q-19 0 -51 2 ZM372 19 q81 0 144 44.5 q63 44.5 98.5 124 q35.5 79.5 35.5 179.5 q0 100 -35.5 179 q-35.5 79 -98.5 123 q-63 44 -144 44 q-81 0 -144 -44 q-63 -44 -98.5 -122.5 q-35.5 -78.5 -35.5 -179.5 q0 -101 35 -180 q35 -79 98.5 -123.5 q63.5 -44.5 144.5 -44.5 Z" /><glyph glyph-name="uni1EDA" unicode="&#x1eda;" d="M447 928 l33 0 l-90 -122 l-27 0 l84 122 ZM495 710 q87 -39 137 -129 q50 -90 50 -214 q0 -110 -40 -195.5 q-40 -85.5 -110.5 -133 q-70.5 -47.5 -159.5 -47.5 q-89 0 -159.5 47 q-70.5 47 -110.5 132.5 q-40 85.5 -40 196.5 q0 110 40 195.5 q40 85.5 111.5 132.5 q71.5 47 163.5 47 q37 0 80 -5 q10 -1 35 -3 q25 -2 47 -2 q34 0 52 6 q18 6 26.5 22.5 q8.5 16.5 8.5 49.5 q0 26 -5 48 l27 0 q5 -24 5 -49 q0 -42 -11 -64 q-11 -22 -33.5 -29.5 q-22.5 -7.5 -62.5 -7.5 q-19 0 -51 2 ZM372 19 q81 0 144 44.5 q63 44.5 98.5 124 q35.5 79.5 35.5 179.5 q0 100 -35.5 179 q-35.5 79 -98.5 123 q-63 44 -144 44 q-81 0 -144 -44 q-63 -44 -98.5 -122.5 q-35.5 -78.5 -35.5 -179.5 q0 -101 35 -180 q35 -79 98.5 -123.5 q63.5 -44.5 144.5 -44.5 Z" /><glyph glyph-name="uni1EE2" unicode="&#x1ee2;" d="M495 710 q87 -39 137 -129 q50 -90 50 -214 q0 -110 -40 -195.5 q-40 -85.5 -110.5 -133 q-70.5 -47.5 -159.5 -47.5 q-89 0 -159.5 47 q-70.5 47 -110.5 132.5 q-40 85.5 -40 196.5 q0 110 40 195.5 q40 85.5 111.5 132.5 q71.5 47 163.5 47 q37 0 80 -5 q10 -1 35 -3 q25 -2 47 -2 q34 0 52 6 q18 6 26.5 22.5 q8.5 16.5 8.5 49.5 q0 26 -5 48 l27 0 q5 -24 5 -49 q0 -42 -11 -64 q-11 -22 -33.5 -29.5 q-22.5 -7.5 -62.5 -7.5 q-19 0 -51 2 ZM372 19 q81 0 144 44.5 q63 44.5 98.5 124 q35.5 79.5 35.5 179.5 q0 100 -35.5 179 q-35.5 79 -98.5 123 q-63 44 -144 44 q-81 0 -144 -44 q-63 -44 -98.5 -122.5 q-35.5 -78.5 -35.5 -179.5 q0 -101 35 -180 q35 -79 98.5 -123.5 q63.5 -44.5 144.5 -44.5 ZM372 -100 q11 0 19 -8 q8 -8 8 -19 q0 -11 -8 -19.5 q-8 -8.5 -19 -8.5 q-11 0 -19.5 8.5 q-8.5 8.5 -8.5 19.5 q0 11 8.5 19 q8.5 8 19.5 8 Z" /><glyph glyph-name="uni1EDC" unicode="&#x1edc;" d="M297 928 l83 -122 l-26 0 l-90 122 l33 0 ZM495 710 q87 -39 137 -129 q50 -90 50 -214 q0 -110 -40 -195.5 q-40 -85.5 -110.5 -133 q-70.5 -47.5 -159.5 -47.5 q-89 0 -159.5 47 q-70.5 47 -110.5 132.5 q-40 85.5 -40 196.5 q0 110 40 195.5 q40 85.5 111.5 132.5 q71.5 47 163.5 47 q37 0 80 -5 q10 -1 35 -3 q25 -2 47 -2 q34 0 52 6 q18 6 26.5 22.5 q8.5 16.5 8.5 49.5 q0 26 -5 48 l27 0 q5 -24 5 -49 q0 -42 -11 -64 q-11 -22 -33.5 -29.5 q-22.5 -7.5 -62.5 -7.5 q-19 0 -51 2 ZM372 19 q81 0 144 44.5 q63 44.5 98.5 124 q35.5 79.5 35.5 179.5 q0 100 -35.5 179 q-35.5 79 -98.5 123 q-63 44 -144 44 q-81 0 -144 -44 q-63 -44 -98.5 -122.5 q-35.5 -78.5 -35.5 -179.5 q0 -101 35 -180 q35 -79 98.5 -123.5 q63.5 -44.5 144.5 -44.5 Z" /><glyph glyph-name="uni1EDE" unicode="&#x1ede;" d="M355 910 q-34 0 -60 -13 l-5 17 q30 14 67 14 q40 0 66.5 -16.5 q26.5 -16.5 26.5 -45.5 q0 -51 -86 -73 l-12 14 q35 10 53 23.5 q18 13.5 18 34.5 q0 21 -19 33 q-19 12 -49 12 ZM495 710 q87 -39 137 -129 q50 -90 50 -214 q0 -110 -40 -195.5 q-40 -85.5 -110.5 -133 q-70.5 -47.5 -159.5 -47.5 q-89 0 -159.5 47 q-70.5 47 -110.5 132.5 q-40 85.5 -40 196.5 q0 110 40 195.5 q40 85.5 111.5 132.5 q71.5 47 163.5 47 q37 0 80 -5 q10 -1 35 -3 q25 -2 47 -2 q34 0 52 6 q18 6 26.5 22.5 q8.5 16.5 8.5 49.5 q0 26 -5 48 l27 0 q5 -24 5 -49 q0 -42 -11 -64 q-11 -22 -33.5 -29.5 q-22.5 -7.5 -62.5 -7.5 q-19 0 -51 2 ZM372 19 q81 0 144 44.5 q63 44.5 98.5 124 q35.5 79.5 35.5 179.5 q0 100 -35.5 179 q-35.5 79 -98.5 123 q-63 44 -144 44 q-81 0 -144 -44 q-63 -44 -98.5 -122.5 q-35.5 -78.5 -35.5 -179.5 q0 -101 35 -180 q35 -79 98.5 -123.5 q63.5 -44.5 144.5 -44.5 Z" /><glyph glyph-name="uni1EE0" unicode="&#x1ee0;" d="M310 895 q-44 0 -51 -69 l-26 0 q2 39 22 66 q20 27 55 27 q23 0 37.5 -10.5 q14.5 -10.5 32.5 -31.5 q14 -17 26 -26 q12 -9 28 -9 q43 0 51 69 l26 0 q-2 -39 -22 -66 q-20 -27 -55 -27 q-23 0 -37.5 10.5 q-14.5 10.5 -32.5 31.5 q-14 17 -26 26 q-12 9 -28 9 ZM495 710 q87 -39 137 -129 q50 -90 50 -214 q0 -110 -40 -195.5 q-40 -85.5 -110.5 -133 q-70.5 -47.5 -159.5 -47.5 q-89 0 -159.5 47 q-70.5 47 -110.5 132.5 q-40 85.5 -40 196.5 q0 110 40 195.5 q40 85.5 111.5 132.5 q71.5 47 163.5 47 q37 0 80 -5 q10 -1 35 -3 q25 -2 47 -2 q34 0 52 6 q18 6 26.5 22.5 q8.5 16.5 8.5 49.5 q0 26 -5 48 l27 0 q5 -24 5 -49 q0 -42 -11 -64 q-11 -22 -33.5 -29.5 q-22.5 -7.5 -62.5 -7.5 q-19 0 -51 2 ZM372 19 q81 0 144 44.5 q63 44.5 98.5 124 q35.5 79.5 35.5 179.5 q0 100 -35.5 179 q-35.5 79 -98.5 123 q-63 44 -144 44 q-81 0 -144 -44 q-63 -44 -98.5 -122.5 q-35.5 -78.5 -35.5 -179.5 q0 -101 35 -180 q35 -79 98.5 -123.5 q63.5 -44.5 144.5 -44.5 Z" /><glyph glyph-name="Ohungarumlaut" unicode="&#x150;" d="M298 806 l80 122 l34 0 l-86 -122 l-28 0 ZM409 806 l80 122 l34 0 l-86 -122 l-28 0 ZM62 367 q0 112 39.5 197 q39.5 85 110 131.5 q70.5 46.5 160.5 46.5 q90 0 160.5 -46.5 q70.5 -46.5 110 -131.5 q39.5 -85 39.5 -197 q0 -112 -40 -197.5 q-40 -85.5 -110.5 -132 q-70.5 -46.5 -159.5 -46.5 q-90 0 -160.5 46.5 q-70.5 46.5 -110 131.5 q-39.5 85 -39.5 198 ZM94 367 q0 -102 35 -181 q35 -79 98 -123 q63 -44 145 -44 q81 0 144.5 44 q63.5 44 99 123 q35.5 79 35.5 181 q0 101 -35.5 180 q-35.5 79 -99 122.5 q-63.5 43.5 -144.5 43.5 q-81 0 -144.5 -43.5 q-63.5 -43.5 -98.5 -122 q-35 -78.5 -35 -180.5 Z" /><glyph glyph-name="Omacron" unicode="&#x14c;" d="M239 868 l0 29 l266 0 l0 -29 l-266 0 ZM62 367 q0 112 39.5 197 q39.5 85 110 131.5 q70.5 46.5 160.5 46.5 q90 0 160.5 -46.5 q70.5 -46.5 110 -131.5 q39.5 -85 39.5 -197 q0 -112 -40 -197.5 q-40 -85.5 -110.5 -132 q-70.5 -46.5 -159.5 -46.5 q-90 0 -160.5 46.5 q-70.5 46.5 -110 131.5 q-39.5 85 -39.5 198 ZM94 367 q0 -102 35 -181 q35 -79 98 -123 q63 -44 145 -44 q81 0 144.5 44 q63.5 44 99 123 q35.5 79 35.5 181 q0 101 -35.5 180 q-35.5 79 -99 122.5 q-63.5 43.5 -144.5 43.5 q-81 0 -144.5 -43.5 q-63.5 -43.5 -98.5 -122 q-35 -78.5 -35 -180.5 Z" /><glyph glyph-name="Oslash" unicode="Ø" d="M648 765 l35 0 l-91 -124 q43 -50 67 -120.5 q24 -70.5 24 -153.5 q0 -110 -40 -195.5 q-40 -85.5 -110.5 -133 q-70.5 -47.5 -159.5 -47.5 q-117 0 -200 80 l-76 -103 l-34 0 l90 123 q-43 50 -67 121 q-24 71 -24 155 q0 110 40 195 q40 85 111 132.5 q71 47.5 160 47.5 q57 0 107.5 -21 q50.5 -21 91.5 -60 l76 104 ZM95 367 q0 -75 19.5 -139 q19.5 -64 56.5 -111 l383 520 q-73 76 -181 76 q-81 0 -144.5 -44 q-63.5 -44 -98.5 -122.5 q-35 -78.5 -35 -179.5 ZM651 367 q0 75 -20 138.5 q-20 63.5 -57 109.5 l-383 -519 q74 -77 182 -77 q81 0 144 44.5 q63 44.5 98.5 124 q35.5 79.5 35.5 179.5 Z" /><glyph glyph-name="Oslashacute" unicode="&#x1fe;" d="M364 806 l84 122 l33 0 l-90 -122 l-27 0 ZM648 765 l35 0 l-91 -124 q43 -50 67 -120.5 q24 -70.5 24 -153.5 q0 -110 -40 -195.5 q-40 -85.5 -110.5 -133 q-70.5 -47.5 -159.5 -47.5 q-117 0 -200 80 l-76 -103 l-34 0 l90 123 q-43 50 -67 121 q-24 71 -24 155 q0 110 40 195 q40 85 111 132.5 q71 47.5 160 47.5 q57 0 107.5 -21 q50.5 -21 91.5 -60 l76 104 ZM95 367 q0 -75 19.5 -139 q19.5 -64 56.5 -111 l383 520 q-73 76 -181 76 q-81 0 -144.5 -44 q-63.5 -44 -98.5 -122.5 q-35 -78.5 -35 -179.5 ZM651 367 q0 75 -20 138.5 q-20 63.5 -57 109.5 l-383 -519 q74 -77 182 -77 q81 0 144 44.5 q63 44.5 98.5 124 q35.5 79.5 35.5 179.5 Z" /><glyph glyph-name="Otilde" unicode="Õ" d="M233 826 q2 39 22 66 q20 27 55 27 q23 0 37.5 -10.5 q14.5 -10.5 32.5 -31.5 q14 -17 26 -26 q12 -9 28 -9 q43 0 51 69 l26 0 q-2 -39 -22 -66 q-20 -27 -55 -27 q-23 0 -37.5 10.5 q-14.5 10.5 -32.5 31.5 q-14 17 -26 26 q-12 9 -28 9 q-44 0 -51 -69 l-26 0 ZM62 367 q0 112 39.5 197 q39.5 85 110 131.5 q70.5 46.5 160.5 46.5 q90 0 160.5 -46.5 q70.5 -46.5 110 -131.5 q39.5 -85 39.5 -197 q0 -112 -40 -197.5 q-40 -85.5 -110.5 -132 q-70.5 -46.5 -159.5 -46.5 q-90 0 -160.5 46.5 q-70.5 46.5 -110 131.5 q-39.5 85 -39.5 198 ZM94 367 q0 -102 35 -181 q35 -79 98 -123 q63 -44 145 -44 q81 0 144.5 44 q63.5 44 99 123 q35.5 79 35.5 181 q0 101 -35.5 180 q-35.5 79 -99 122.5 q-63.5 43.5 -144.5 43.5 q-81 0 -144.5 -43.5 q-63.5 -43.5 -98.5 -122 q-35 -78.5 -35 -180.5 Z" /><glyph glyph-name="OE" unicode="&#x152;" d="M681 366 l0 -338 l376 0 l0 -28 l-407 0 l0 213 q-31 -103 -105 -162.5 q-74 -59.5 -173 -59.5 q-89 0 -159.5 47 q-70.5 47 -110.5 132.5 q-40 85.5 -40 196.5 q0 110 40 195 q40 85 110.5 132.5 q70.5 47.5 159.5 47.5 q99 0 173 -59.5 q74 -59.5 105 -162.5 l0 212 l396 0 l0 -28 l-365 0 l0 -310 l330 0 l0 -28 l-330 0 ZM372 19 q81 0 144 44.5 q63 44.5 98.5 124 q35.5 79.5 35.5 179.5 q0 100 -35.5 179 q-35.5 79 -98.5 123 q-63 44 -144 44 q-81 0 -144 -44 q-63 -44 -98.5 -122.5 q-35.5 -78.5 -35.5 -179.5 q0 -101 35 -180 q35 -79 98.5 -123.5 q63.5 -44.5 144.5 -44.5 Z" /><glyph glyph-name="P" unicode="P" d="M267 732 q73 0 130 -25.5 q57 -25.5 88.5 -73 q31.5 -47.5 31.5 -110.5 q0 -63 -31.5 -111 q-31.5 -48 -88.5 -73.5 q-57 -25.5 -130 -25.5 l-137 0 l0 -313 l-30 0 l0 732 l167 0 ZM264 341 q99 0 160 48.5 q61 48.5 61 133.5 q0 85 -60.5 133 q-60.5 48 -160.5 48 l-134 0 l0 -363 l134 0 Z" /><glyph glyph-name="Thorn" unicode="Þ" d="M267 577 q73 0 130 -25 q57 -25 88.5 -72.5 q31.5 -47.5 31.5 -110.5 q0 -64 -31.5 -111.5 q-31.5 -47.5 -88.5 -73 q-57 -25.5 -130 -25.5 l-137 0 l0 -159 l-30 0 l0 732 l30 0 l0 -155 l137 0 ZM263 187 q100 0 161 48 q61 48 61 134 q0 85 -61 132.5 q-61 47.5 -161 47.5 l-133 0 l0 -362 l133 0 Z" /><glyph glyph-name="Q" unicode="Q" d="M709 -143 l-46 0 l-196 151 q-45 -17 -95 -17 q-90 0 -160.5 46.5 q-70.5 46.5 -110 131.5 q-39.5 85 -39.5 198 q0 112 39.5 197 q39.5 85 110 131.5 q70.5 46.5 160.5 46.5 q90 0 160.5 -46.5 q70.5 -46.5 110 -131.5 q39.5 -85 39.5 -197 q0 -125 -49 -215.5 q-49 -90.5 -133 -131.5 l209 -163 ZM94 367 q0 -102 35 -181 q35 -79 98 -123 q63 -44 145 -44 q81 0 144.5 44 q63.5 44 99 123 q35.5 79 35.5 181 q0 101 -35.5 180 q-35.5 79 -99 122.5 q-63.5 43.5 -144.5 43.5 q-81 0 -144.5 -43.5 q-63.5 -43.5 -98.5 -122 q-35 -78.5 -35 -180.5 Z" /><glyph glyph-name="R" unicode="R" d="M575 0 l-38 0 l-231 331 q-22 -3 -45 -3 l-131 0 l0 -328 l-30 0 l0 732 l161 0 q73 0 130 -24 q57 -24 89 -70 q32 -46 32 -108 q0 -75 -47 -125.5 q-47 -50.5 -127 -67.5 l237 -337 ZM130 704 l0 -348 l128 0 q100 0 160.5 46 q60.5 46 60.5 128 q0 82 -60.5 128 q-60.5 46 -160.5 46 l-128 0 Z" /><glyph glyph-name="Racute" unicode="&#x154;" d="M259 807 l84 121 l33 0 l-90 -121 l-27 0 ZM575 0 l-38 0 l-231 331 q-22 -3 -45 -3 l-131 0 l0 -328 l-30 0 l0 732 l161 0 q73 0 130 -24 q57 -24 89 -70 q32 -46 32 -108 q0 -75 -47 -125.5 q-47 -50.5 -127 -67.5 l237 -337 ZM130 704 l0 -348 l128 0 q100 0 160.5 46 q60.5 46 60.5 128 q0 82 -60.5 128 q-60.5 46 -160.5 46 l-128 0 Z" /><glyph glyph-name="Rcaron" unicode="&#x158;" d="M176 928 l92 -101 l91 101 l32 0 l-111 -121 l-25 0 l-111 121 l32 0 ZM575 0 l-38 0 l-231 331 q-22 -3 -45 -3 l-131 0 l0 -328 l-30 0 l0 732 l161 0 q73 0 130 -24 q57 -24 89 -70 q32 -46 32 -108 q0 -75 -47 -125.5 q-47 -50.5 -127 -67.5 l237 -337 ZM130 704 l0 -348 l128 0 q100 0 160.5 46 q60.5 46 60.5 128 q0 82 -60.5 128 q-60.5 46 -160.5 46 l-128 0 Z" /><glyph glyph-name="uni0156" unicode="&#x156;" d="M575 0 l-38 0 l-231 331 q-22 -3 -45 -3 l-131 0 l0 -328 l-30 0 l0 732 l161 0 q73 0 130 -24 q57 -24 89 -70 q32 -46 32 -108 q0 -75 -47 -125.5 q-47 -50.5 -127 -67.5 l237 -337 ZM258 356 q100 0 160.5 46 q60.5 46 60.5 128 q0 82 -60.5 128 q-60.5 46 -160.5 46 l-128 0 l0 -348 l128 0 ZM332 -78 q13 0 21 -10.5 q8 -10.5 8 -33.5 q0 -33 -18 -59 q-18 -26 -57 -34 l0 18 q29 8 42 26.5 q13 18.5 13 42.5 q-2 -2 -9 -2 q-11 0 -17.5 7.5 q-6.5 7.5 -6.5 18.5 q0 11 7 18.5 q7 7.5 17 7.5 Z" /><glyph glyph-name="S" unicode="S" d="M490 187 q0 -91 -57.5 -143.5 q-57.5 -52.5 -154.5 -52.5 q-88 0 -156.5 43 q-68.5 43 -90.5 118 l25 15 q21 -68 82.5 -108 q61.5 -40 139.5 -40 q81 0 130.5 45 q49.5 45 49.5 121 q0 56 -27 91.5 q-27 35.5 -66.5 55 q-39.5 19.5 -105.5 42.5 q-66 23 -105 42 q-39 19 -66 54 q-27 35 -27 91 q0 59 29 99.5 q29 40.5 77 61 q48 20.5 105 20.5 q82 0 138 -39.5 q56 -39.5 67 -98.5 l-25 -15 q-11 56 -59.5 90 q-48.5 34 -121.5 34 q-76 0 -127 -39 q-51 -39 -51 -111 q0 -47 24 -77.5 q24 -30.5 60.5 -47.5 q36.5 -17 97.5 -37 q70 -24 112.5 -45 q42.5 -21 72.5 -62 q30 -41 30 -107 Z" /><glyph glyph-name="Sacute" unicode="&#x15a;" d="M267 807 l84 121 l33 0 l-90 -121 l-27 0 ZM490 187 q0 -91 -57.5 -143.5 q-57.5 -52.5 -154.5 -52.5 q-88 0 -156.5 43 q-68.5 43 -90.5 118 l25 15 q21 -68 82.5 -108 q61.5 -40 139.5 -40 q81 0 130.5 45 q49.5 45 49.5 121 q0 56 -27 91.5 q-27 35.5 -66.5 55 q-39.5 19.5 -105.5 42.5 q-66 23 -105 42 q-39 19 -66 54 q-27 35 -27 91 q0 59 29 99.5 q29 40.5 77 61 q48 20.5 105 20.5 q82 0 138 -39.5 q56 -39.5 67 -98.5 l-25 -15 q-11 56 -59.5 90 q-48.5 34 -121.5 34 q-76 0 -127 -39 q-51 -39 -51 -111 q0 -47 24 -77.5 q24 -30.5 60.5 -47.5 q36.5 -17 97.5 -37 q70 -24 112.5 -45 q42.5 -21 72.5 -62 q30 -41 30 -107 Z" /><glyph glyph-name="Scaron" unicode="&#x160;" d="M184 928 l92 -101 l91 101 l32 0 l-111 -121 l-25 0 l-111 121 l32 0 ZM490 187 q0 -91 -57.5 -143.5 q-57.5 -52.5 -154.5 -52.5 q-88 0 -156.5 43 q-68.5 43 -90.5 118 l25 15 q21 -68 82.5 -108 q61.5 -40 139.5 -40 q81 0 130.5 45 q49.5 45 49.5 121 q0 56 -27 91.5 q-27 35.5 -66.5 55 q-39.5 19.5 -105.5 42.5 q-66 23 -105 42 q-39 19 -66 54 q-27 35 -27 91 q0 59 29 99.5 q29 40.5 77 61 q48 20.5 105 20.5 q82 0 138 -39.5 q56 -39.5 67 -98.5 l-25 -15 q-11 56 -59.5 90 q-48.5 34 -121.5 34 q-76 0 -127 -39 q-51 -39 -51 -111 q0 -47 24 -77.5 q24 -30.5 60.5 -47.5 q36.5 -17 97.5 -37 q70 -24 112.5 -45 q42.5 -21 72.5 -62 q30 -41 30 -107 Z" /><glyph glyph-name="Scedilla" unicode="&#x15e;" d="M278 -9 q-10 0 -15 1 l-31 -79 q6 1 19 1 q44 0 71 -19.5 q27 -19.5 27 -55.5 q0 -40 -30.5 -61.5 q-30.5 -21.5 -76.5 -21.5 q-27 0 -56 9 l0 25 q27 -9 56 -9 q34 0 56.5 14.5 q22.5 14.5 22.5 42.5 q0 52 -79 52 q-11 0 -35 -2 l-4 18 l34 88 q-75 9 -130.5 50.5 q-55.5 41.5 -75.5 107.5 l25 15 q21 -68 82.5 -108 q61.5 -40 139.5 -40 q81 0 130.5 45 q49.5 45 49.5 121 q0 56 -27 91.5 q-27 35.5 -66.5 55 q-39.5 19.5 -105.5 42.5 q-66 23 -105 42 q-39 19 -66 54 q-27 35 -27 91 q0 59 29 99.5 q29 40.5 77 61 q48 20.5 105 20.5 q82 0 138 -39.5 q56 -39.5 67 -98.5 l-25 -15 q-11 56 -59.5 90 q-48.5 34 -121.5 34 q-76 0 -127 -39 q-51 -39 -51 -111 q0 -47 24 -77.5 q24 -30.5 60.5 -47.5 q36.5 -17 97.5 -37 q70 -24 112.5 -45 q42.5 -21 72.5 -62 q30 -41 30 -107 q0 -91 -57.5 -143.5 q-57.5 -52.5 -154.5 -52.5 Z" /><glyph glyph-name="Scircumflex" unicode="&#x15c;" d="M263 928 l25 0 l111 -121 l-32 0 l-91 101 l-92 -101 l-32 0 l111 121 ZM490 187 q0 -91 -57.5 -143.5 q-57.5 -52.5 -154.5 -52.5 q-88 0 -156.5 43 q-68.5 43 -90.5 118 l25 15 q21 -68 82.5 -108 q61.5 -40 139.5 -40 q81 0 130.5 45 q49.5 45 49.5 121 q0 56 -27 91.5 q-27 35.5 -66.5 55 q-39.5 19.5 -105.5 42.5 q-66 23 -105 42 q-39 19 -66 54 q-27 35 -27 91 q0 59 29 99.5 q29 40.5 77 61 q48 20.5 105 20.5 q82 0 138 -39.5 q56 -39.5 67 -98.5 l-25 -15 q-11 56 -59.5 90 q-48.5 34 -121.5 34 q-76 0 -127 -39 q-51 -39 -51 -111 q0 -47 24 -77.5 q24 -30.5 60.5 -47.5 q36.5 -17 97.5 -37 q70 -24 112.5 -45 q42.5 -21 72.5 -62 q30 -41 30 -107 Z" /><glyph glyph-name="uni0218" unicode="&#x218;" d="M490 187 q0 -91 -57.5 -143.5 q-57.5 -52.5 -154.5 -52.5 q-88 0 -156.5 43 q-68.5 43 -90.5 118 l25 15 q21 -68 82.5 -108 q61.5 -40 139.5 -40 q81 0 130.5 45 q49.5 45 49.5 121 q0 56 -27 91.5 q-27 35.5 -66.5 55 q-39.5 19.5 -105.5 42.5 q-66 23 -105 42 q-39 19 -66 54 q-27 35 -27 91 q0 59 29 99.5 q29 40.5 77 61 q48 20.5 105 20.5 q82 0 138 -39.5 q56 -39.5 67 -98.5 l-25 -15 q-11 56 -59.5 90 q-48.5 34 -121.5 34 q-76 0 -127 -39 q-51 -39 -51 -111 q0 -47 24 -77.5 q24 -30.5 60.5 -47.5 q36.5 -17 97.5 -37 q70 -24 112.5 -45 q42.5 -21 72.5 -62 q30 -41 30 -107 ZM258 -78 q13 0 21.5 -10.5 q8.5 -10.5 8.5 -33.5 q0 -33 -18 -59 q-18 -26 -57 -34 l0 18 q53 16 55 69 q-3 -2 -10 -2 q-10 0 -17 7.5 q-7 7.5 -7 18.5 q0 11 7 18.5 q7 7.5 17 7.5 Z" /><glyph glyph-name="uni018F" unicode="&#x18f;" d="M326 742 q89 0 155.5 -45.5 q66.5 -45.5 102.5 -130.5 q36 -85 36 -203 q0 -116 -35 -200 q-35 -84 -99 -128 q-64 -44 -149 -44 q-85 0 -147.5 42.5 q-62.5 42.5 -95.5 114.5 q-33 72 -33 158 q0 27 3 52 l524 0 q-1 173 -69.5 264 q-68.5 91 -193.5 91 q-74 0 -130 -33 q-56 -33 -88 -99 l-23 15 q33 72 97.5 109 q64.5 37 144.5 37 ZM337 19 q110 0 176.5 80.5 q66.5 80.5 73.5 229.5 l-494 0 q-1 -9 -1 -27 q0 -79 29.5 -143.5 q29.5 -64.5 85 -102 q55.5 -37.5 130.5 -37.5 Z" /><glyph glyph-name="T" unicode="T" d="M18 732 l493 0 l0 -28 l-231 0 l0 -704 l-31 0 l0 704 l-231 0 l0 28 Z" /><glyph glyph-name="Tbar" unicode="&#x166;" d="M18 732 l493 0 l0 -28 l-231 0 l0 -304 l152 0 l0 -28 l-152 0 l0 -372 l-31 0 l0 372 l-152 0 l0 28 l152 0 l0 304 l-231 0 l0 28 Z" /><glyph glyph-name="Tcaron" unicode="&#x164;" d="M173 928 l92 -102 l91 102 l32 0 l-111 -122 l-25 0 l-111 122 l32 0 ZM18 732 l493 0 l0 -28 l-231 0 l0 -704 l-31 0 l0 704 l-231 0 l0 28 Z" /><glyph glyph-name="uni0162" unicode="&#x162;" d="M280 704 l0 -704 l-2 0 l-33 -87 q6 1 19 1 q44 0 71 -19.5 q27 -19.5 27 -55.5 q0 -40 -30.5 -61.5 q-30.5 -21.5 -76.5 -21.5 q-29 0 -56 9 l0 25 q27 -9 55 -9 q35 0 57.5 14.5 q22.5 14.5 22.5 42.5 q0 52 -80 52 q-10 0 -34 -2 l-4 18 l36 94 l-3 0 l0 704 l-231 0 l0 28 l493 0 l0 -28 l-231 0 Z" /><glyph glyph-name="uni021A" unicode="&#x21a;" d="M249 704 l-231 0 l0 28 l493 0 l0 -28 l-231 0 l0 -704 l-31 0 l0 704 ZM263 -78 q13 0 21 -10.5 q8 -10.5 8 -33.5 q0 -33 -18 -59 q-18 -26 -56 -34 l0 18 q53 16 55 69 q-3 -2 -10 -2 q-10 0 -17 7.5 q-7 7.5 -7 18.5 q0 11 7 18.5 q7 7.5 17 7.5 Z" /><glyph glyph-name="U" unicode="U" d="M569 732 l30 0 l0 -455 q0 -86 -30.5 -150.5 q-30.5 -64.5 -88 -100 q-57.5 -35.5 -137.5 -35.5 q-80 0 -138 35.5 q-58 35.5 -88.5 100 q-30.5 64.5 -30.5 150.5 l0 455 l31 0 l0 -449 q0 -123 59 -193.5 q59 -70.5 167 -70.5 q107 0 166.5 70.5 q59.5 70.5 59.5 193.5 l0 449 Z" /><glyph glyph-name="Uacute" unicode="Ú" d="M335 806 l84 122 l33 0 l-90 -122 l-27 0 ZM569 732 l30 0 l0 -455 q0 -86 -30.5 -150.5 q-30.5 -64.5 -88 -100 q-57.5 -35.5 -137.5 -35.5 q-80 0 -138 35.5 q-58 35.5 -88.5 100 q-30.5 64.5 -30.5 150.5 l0 455 l31 0 l0 -449 q0 -123 59 -193.5 q59 -70.5 167 -70.5 q107 0 166.5 70.5 q59.5 70.5 59.5 193.5 l0 449 Z" /><glyph glyph-name="Ubreve" unicode="&#x16c;" d="M343 806 q-57 0 -92 33.5 q-35 33.5 -35 88.5 l27 0 q1 -47 29 -73.5 q28 -26.5 71 -26.5 q45 0 73 26.5 q28 26.5 29 73.5 l27 0 q0 -55 -35 -88.5 q-35 -33.5 -94 -33.5 ZM569 732 l30 0 l0 -455 q0 -86 -30.5 -150.5 q-30.5 -64.5 -88 -100 q-57.5 -35.5 -137.5 -35.5 q-80 0 -138 35.5 q-58 35.5 -88.5 100 q-30.5 64.5 -30.5 150.5 l0 455 l31 0 l0 -449 q0 -123 59 -193.5 q59 -70.5 167 -70.5 q107 0 166.5 70.5 q59.5 70.5 59.5 193.5 l0 449 Z" /><glyph glyph-name="uni01D3" unicode="&#x1d3;" d="M251 928 l92 -102 l92 102 l31 0 l-111 -122 l-24 0 l-112 122 l32 0 ZM569 732 l30 0 l0 -455 q0 -86 -30.5 -150.5 q-30.5 -64.5 -88 -100 q-57.5 -35.5 -137.5 -35.5 q-80 0 -138 35.5 q-58 35.5 -88.5 100 q-30.5 64.5 -30.5 150.5 l0 455 l31 0 l0 -449 q0 -123 59 -193.5 q59 -70.5 167 -70.5 q107 0 166.5 70.5 q59.5 70.5 59.5 193.5 l0 449 Z" /><glyph glyph-name="Ucircumflex" unicode="Û" d="M331 928 l24 0 l111 -122 l-31 0 l-92 102 l-92 -102 l-32 0 l112 122 ZM569 732 l30 0 l0 -455 q0 -86 -30.5 -150.5 q-30.5 -64.5 -88 -100 q-57.5 -35.5 -137.5 -35.5 q-80 0 -138 35.5 q-58 35.5 -88.5 100 q-30.5 64.5 -30.5 150.5 l0 455 l31 0 l0 -449 q0 -123 59 -193.5 q59 -70.5 167 -70.5 q107 0 166.5 70.5 q59.5 70.5 59.5 193.5 l0 449 Z" /><glyph glyph-name="Udieresis" unicode="Ü" d="M250 854 q-12 0 -20 7.5 q-8 7.5 -8 19.5 q0 10 8 17.5 q8 7.5 19 7.5 q11 0 19.5 -7.5 q8.5 -7.5 8.5 -17.5 q0 -12 -8 -19.5 q-8 -7.5 -19 -7.5 ZM438 854 q-11 0 -19.5 7.5 q-8.5 7.5 -8.5 19.5 q0 10 8 17.5 q8 7.5 19 7.5 q11 0 19.5 -7.5 q8.5 -7.5 8.5 -17.5 q0 -12 -8 -19.5 q-8 -7.5 -19 -7.5 ZM569 732 l30 0 l0 -455 q0 -86 -30.5 -150.5 q-30.5 -64.5 -88 -100 q-57.5 -35.5 -137.5 -35.5 q-80 0 -138 35.5 q-58 35.5 -88.5 100 q-30.5 64.5 -30.5 150.5 l0 455 l31 0 l0 -449 q0 -123 59 -193.5 q59 -70.5 167 -70.5 q107 0 166.5 70.5 q59.5 70.5 59.5 193.5 l0 449 Z" /><glyph glyph-name="uni01D7" unicode="&#x1d7;" d="M334 862 l81 66 l36 0 l-88 -66 l-29 0 ZM250 802 q-12 0 -20 6 q-8 6 -8 16 q0 9 8 15.5 q8 6.5 19 6.5 q11 0 19.5 -6.5 q8.5 -6.5 8.5 -15.5 q0 -10 -8 -16 q-8 -6 -19 -6 ZM438 802 q-11 0 -19.5 6.5 q-8.5 6.5 -8.5 15.5 q0 9 8 15.5 q8 6.5 19 6.5 q11 0 19.5 -6.5 q8.5 -6.5 8.5 -15.5 q0 -10 -8 -16 q-8 -6 -19 -6 ZM569 732 l30 0 l0 -455 q0 -86 -30.5 -150.5 q-30.5 -64.5 -88 -100 q-57.5 -35.5 -137.5 -35.5 q-80 0 -138 35.5 q-58 35.5 -88.5 100 q-30.5 64.5 -30.5 150.5 l0 455 l31 0 l0 -449 q0 -123 59 -193.5 q59 -70.5 167 -70.5 q107 0 166.5 70.5 q59.5 70.5 59.5 193.5 l0 449 Z" /><glyph glyph-name="uni01D9" unicode="&#x1d9;" d="M466 928 l-111 -66 l-24 0 l-112 66 l41 0 l83 -51 l83 51 l40 0 ZM250 802 q-12 0 -20 6 q-8 6 -8 16 q0 9 8 15.5 q8 6.5 19 6.5 q11 0 19.5 -6.5 q8.5 -6.5 8.5 -15.5 q0 -10 -8 -16 q-8 -6 -19 -6 ZM438 802 q-11 0 -19.5 6.5 q-8.5 6.5 -8.5 15.5 q0 9 8 15.5 q8 6.5 19 6.5 q11 0 19.5 -6.5 q8.5 -6.5 8.5 -15.5 q0 -10 -8 -16 q-8 -6 -19 -6 ZM569 732 l30 0 l0 -455 q0 -86 -30.5 -150.5 q-30.5 -64.5 -88 -100 q-57.5 -35.5 -137.5 -35.5 q-80 0 -138 35.5 q-58 35.5 -88.5 100 q-30.5 64.5 -30.5 150.5 l0 455 l31 0 l0 -449 q0 -123 59 -193.5 q59 -70.5 167 -70.5 q107 0 166.5 70.5 q59.5 70.5 59.5 193.5 l0 449 Z" /><glyph glyph-name="uni01DB" unicode="&#x1db;" d="M235 928 l36 0 l81 -66 l-29 0 l-88 66 ZM250 802 q-12 0 -20 6 q-8 6 -8 16 q0 9 8 15.5 q8 6.5 19 6.5 q11 0 19.5 -6.5 q8.5 -6.5 8.5 -15.5 q0 -10 -8 -16 q-8 -6 -19 -6 ZM438 802 q-11 0 -19.5 6.5 q-8.5 6.5 -8.5 15.5 q0 9 8 15.5 q8 6.5 19 6.5 q11 0 19.5 -6.5 q8.5 -6.5 8.5 -15.5 q0 -10 -8 -16 q-8 -6 -19 -6 ZM569 732 l30 0 l0 -455 q0 -86 -30.5 -150.5 q-30.5 -64.5 -88 -100 q-57.5 -35.5 -137.5 -35.5 q-80 0 -138 35.5 q-58 35.5 -88.5 100 q-30.5 64.5 -30.5 150.5 l0 455 l31 0 l0 -449 q0 -123 59 -193.5 q59 -70.5 167 -70.5 q107 0 166.5 70.5 q59.5 70.5 59.5 193.5 l0 449 Z" /><glyph glyph-name="uni01D5" unicode="&#x1d5;" d="M210 891 l0 20 l267 0 l0 -20 l-267 0 ZM250 802 q-11 0 -19.5 7 q-8.5 7 -8.5 17 q0 10 8 16.5 q8 6.5 19 6.5 q11 0 19.5 -6.5 q8.5 -6.5 8.5 -16.5 q0 -10 -8 -17 q-8 -7 -19 -7 ZM438 802 q-11 0 -19.5 7 q-8.5 7 -8.5 17 q0 10 8 16.5 q8 6.5 19 6.5 q11 0 19.5 -6.5 q8.5 -6.5 8.5 -16.5 q0 -10 -8 -17 q-8 -7 -19 -7 ZM569 732 l30 0 l0 -455 q0 -86 -30.5 -150.5 q-30.5 -64.5 -88 -100 q-57.5 -35.5 -137.5 -35.5 q-80 0 -138 35.5 q-58 35.5 -88.5 100 q-30.5 64.5 -30.5 150.5 l0 455 l31 0 l0 -449 q0 -123 59 -193.5 q59 -70.5 167 -70.5 q107 0 166.5 70.5 q59.5 70.5 59.5 193.5 l0 449 Z" /><glyph glyph-name="uni1EE4" unicode="&#x1ee4;" d="M569 732 l30 0 l0 -455 q0 -86 -30.5 -150.5 q-30.5 -64.5 -88 -100 q-57.5 -35.5 -137.5 -35.5 q-80 0 -138 35.5 q-58 35.5 -88.5 100 q-30.5 64.5 -30.5 150.5 l0 455 l31 0 l0 -449 q0 -123 59 -193.5 q59 -70.5 167 -70.5 q107 0 166.5 70.5 q59.5 70.5 59.5 193.5 l0 449 ZM343 -155 q-11 0 -19 8.5 q-8 8.5 -8 19.5 q0 11 8 19 q8 8 19 8 q11 0 19 -8 q8 -8 8 -19 q0 -11 -8 -19.5 q-8 -8.5 -19 -8.5 Z" /><glyph glyph-name="Ugrave" unicode="Ù" d="M235 928 l33 0 l84 -122 l-27 0 l-90 122 ZM569 732 l30 0 l0 -455 q0 -86 -30.5 -150.5 q-30.5 -64.5 -88 -100 q-57.5 -35.5 -137.5 -35.5 q-80 0 -138 35.5 q-58 35.5 -88.5 100 q-30.5 64.5 -30.5 150.5 l0 455 l31 0 l0 -449 q0 -123 59 -193.5 q59 -70.5 167 -70.5 q107 0 166.5 70.5 q59.5 70.5 59.5 193.5 l0 449 Z" /><glyph glyph-name="uni1EE6" unicode="&#x1ee6;" d="M262 914 q28 14 67 14 q39 0 65.5 -16.5 q26.5 -16.5 26.5 -45.5 q0 -51 -86 -73 l-12 14 q35 10 53.5 23.5 q18.5 13.5 18.5 34.5 q0 21 -19 33 q-19 12 -50 12 q-33 0 -59 -13 l-5 17 ZM569 732 l30 0 l0 -455 q0 -86 -30.5 -150.5 q-30.5 -64.5 -88 -100 q-57.5 -35.5 -137.5 -35.5 q-80 0 -138 35.5 q-58 35.5 -88.5 100 q-30.5 64.5 -30.5 150.5 l0 455 l31 0 l0 -449 q0 -123 59 -193.5 q59 -70.5 167 -70.5 q107 0 166.5 70.5 q59.5 70.5 59.5 193.5 l0 449 Z" /><glyph glyph-name="Uhorn" unicode="&#x1af;" d="M692 809 q0 -57 -20.5 -78 q-20.5 -21 -72.5 -23 l0 -431 q0 -86 -30.5 -150.5 q-30.5 -64.5 -88 -100 q-57.5 -35.5 -137.5 -35.5 q-80 0 -138 35.5 q-58 35.5 -88.5 100 q-30.5 64.5 -30.5 150.5 l0 455 l31 0 l0 -449 q0 -123 59 -193.5 q59 -70.5 167 -70.5 q107 0 166.5 70.5 q59.5 70.5 59.5 193.5 l0 449 l8 0 q34 0 52.5 6 q18.5 6 27 22.5 q8.5 16.5 8.5 48.5 q0 27 -5 49 l27 0 q5 -24 5 -49 Z" /><glyph glyph-name="uni1EE8" unicode="&#x1ee8;" d="M335 806 l84 122 l33 0 l-90 -122 l-27 0 ZM692 809 q0 -57 -20.5 -78 q-20.5 -21 -72.5 -23 l0 -431 q0 -86 -30.5 -150.5 q-30.5 -64.5 -88 -100 q-57.5 -35.5 -137.5 -35.5 q-80 0 -138 35.5 q-58 35.5 -88.5 100 q-30.5 64.5 -30.5 150.5 l0 455 l31 0 l0 -449 q0 -123 59 -193.5 q59 -70.5 167 -70.5 q107 0 166.5 70.5 q59.5 70.5 59.5 193.5 l0 449 l8 0 q34 0 52.5 6 q18.5 6 27 22.5 q8.5 16.5 8.5 48.5 q0 27 -5 49 l27 0 q5 -24 5 -49 Z" /><glyph glyph-name="uni1EF0" unicode="&#x1ef0;" d="M692 809 q0 -57 -20.5 -78 q-20.5 -21 -72.5 -23 l0 -431 q0 -86 -30.5 -150.5 q-30.5 -64.5 -88 -100 q-57.5 -35.5 -137.5 -35.5 q-80 0 -138 35.5 q-58 35.5 -88.5 100 q-30.5 64.5 -30.5 150.5 l0 455 l31 0 l0 -449 q0 -123 59 -193.5 q59 -70.5 167 -70.5 q107 0 166.5 70.5 q59.5 70.5 59.5 193.5 l0 449 l8 0 q34 0 52.5 6 q18.5 6 27 22.5 q8.5 16.5 8.5 48.5 q0 27 -5 49 l27 0 q5 -24 5 -49 ZM343 -155 q-11 0 -19 8.5 q-8 8.5 -8 19.5 q0 11 8 19 q8 8 19 8 q11 0 19 -8 q8 -8 8 -19 q0 -11 -8 -19.5 q-8 -8.5 -19 -8.5 Z" /><glyph glyph-name="uni1EEA" unicode="&#x1eea;" d="M235 928 l33 0 l84 -122 l-27 0 l-90 122 ZM692 809 q0 -57 -20.5 -78 q-20.5 -21 -72.5 -23 l0 -431 q0 -86 -30.5 -150.5 q-30.5 -64.5 -88 -100 q-57.5 -35.5 -137.5 -35.5 q-80 0 -138 35.5 q-58 35.5 -88.5 100 q-30.5 64.5 -30.5 150.5 l0 455 l31 0 l0 -449 q0 -123 59 -193.5 q59 -70.5 167 -70.5 q107 0 166.5 70.5 q59.5 70.5 59.5 193.5 l0 449 l8 0 q34 0 52.5 6 q18.5 6 27 22.5 q8.5 16.5 8.5 48.5 q0 27 -5 49 l27 0 q5 -24 5 -49 Z" /><glyph glyph-name="uni1EEC" unicode="&#x1eec;" d="M262 914 q28 14 67 14 q39 0 65.5 -16.5 q26.5 -16.5 26.5 -45.5 q0 -51 -86 -73 l-12 14 q35 10 53.5 23.5 q18.5 13.5 18.5 34.5 q0 21 -19 33 q-19 12 -50 12 q-33 0 -59 -13 l-5 17 ZM692 809 q0 -57 -20.5 -78 q-20.5 -21 -72.5 -23 l0 -431 q0 -86 -30.5 -150.5 q-30.5 -64.5 -88 -100 q-57.5 -35.5 -137.5 -35.5 q-80 0 -138 35.5 q-58 35.5 -88.5 100 q-30.5 64.5 -30.5 150.5 l0 455 l31 0 l0 -449 q0 -123 59 -193.5 q59 -70.5 167 -70.5 q107 0 166.5 70.5 q59.5 70.5 59.5 193.5 l0 449 l8 0 q34 0 52.5 6 q18.5 6 27 22.5 q8.5 16.5 8.5 48.5 q0 27 -5 49 l27 0 q5 -24 5 -49 Z" /><glyph glyph-name="uni1EEE" unicode="&#x1eee;" d="M204 826 q2 39 22 66 q20 27 55 27 q24 0 38.5 -10.5 q14.5 -10.5 32.5 -31.5 q14 -17 26 -26 q12 -9 28 -9 q43 0 51 69 l26 0 q-2 -39 -22.5 -66 q-20.5 -27 -55.5 -27 q-23 0 -37.5 10.5 q-14.5 10.5 -32.5 31.5 q-14 17 -26 26 q-12 9 -28 9 q-43 0 -51 -69 l-26 0 ZM692 809 q0 -57 -20.5 -78 q-20.5 -21 -72.5 -23 l0 -431 q0 -86 -30.5 -150.5 q-30.5 -64.5 -88 -100 q-57.5 -35.5 -137.5 -35.5 q-80 0 -138 35.5 q-58 35.5 -88.5 100 q-30.5 64.5 -30.5 150.5 l0 455 l31 0 l0 -449 q0 -123 59 -193.5 q59 -70.5 167 -70.5 q107 0 166.5 70.5 q59.5 70.5 59.5 193.5 l0 449 l8 0 q34 0 52.5 6 q18.5 6 27 22.5 q8.5 16.5 8.5 48.5 q0 27 -5 49 l27 0 q5 -24 5 -49 Z" /><glyph glyph-name="Uhungarumlaut" unicode="&#x170;" d="M270 806 l79 121 l34 0 l-86 -121 l-27 0 ZM381 806 l79 121 l34 0 l-86 -121 l-27 0 ZM569 732 l30 0 l0 -455 q0 -86 -30.5 -150.5 q-30.5 -64.5 -88 -100 q-57.5 -35.5 -137.5 -35.5 q-80 0 -138 35.5 q-58 35.5 -88.5 100 q-30.5 64.5 -30.5 150.5 l0 455 l31 0 l0 -449 q0 -123 59 -193.5 q59 -70.5 167 -70.5 q107 0 166.5 70.5 q59.5 70.5 59.5 193.5 l0 449 Z" /><glyph glyph-name="Umacron" unicode="&#x16a;" d="M210 868 l0 29 l267 0 l0 -29 l-267 0 ZM569 732 l30 0 l0 -455 q0 -86 -30.5 -150.5 q-30.5 -64.5 -88 -100 q-57.5 -35.5 -137.5 -35.5 q-80 0 -138 35.5 q-58 35.5 -88.5 100 q-30.5 64.5 -30.5 150.5 l0 455 l31 0 l0 -449 q0 -123 59 -193.5 q59 -70.5 167 -70.5 q107 0 166.5 70.5 q59.5 70.5 59.5 193.5 l0 449 Z" /><glyph glyph-name="Uogonek" unicode="&#x172;" d="M599 277 q0 -85 -29 -148.5 q-29 -63.5 -84 -98.5 q-72 -48 -102 -85 q-30 -37 -30 -85 q0 -42 21.5 -60.5 q21.5 -18.5 55.5 -18.5 q27 0 47.5 11 q20.5 11 38.5 31 l16 -17 q-41 -50 -103 -50 q-44 0 -74 24 q-30 24 -30 77 q0 42 20 76 q20 34 59 65 q-33 -7 -62 -7 q-80 0 -138 35.5 q-58 35.5 -88.5 100 q-30.5 64.5 -30.5 150.5 l0 455 l31 0 l0 -449 q0 -123 59 -193.5 q59 -70.5 167 -70.5 q107 0 166.5 70.5 q59.5 70.5 59.5 193.5 l0 449 l30 0 l0 -455 Z" /><glyph glyph-name="Uring" unicode="&#x16e;" d="M263 871 q0 24 23.5 40.5 q23.5 16.5 56.5 16.5 q33 0 55.5 -16.5 q22.5 -16.5 22.5 -40.5 q0 -24 -22.5 -40.5 q-22.5 -16.5 -55.5 -16.5 q-33 0 -56.5 16.5 q-23.5 16.5 -23.5 40.5 ZM287 871 q0 -17 16 -29 q16 -12 40 -12 q24 0 39.5 12 q15.5 12 15.5 29 q0 19 -15.5 30.5 q-15.5 11.5 -39.5 11.5 q-24 0 -40 -11.5 q-16 -11.5 -16 -30.5 ZM569 732 l30 0 l0 -455 q0 -86 -30.5 -150.5 q-30.5 -64.5 -88 -100 q-57.5 -35.5 -137.5 -35.5 q-80 0 -138 35.5 q-58 35.5 -88.5 100 q-30.5 64.5 -30.5 150.5 l0 455 l31 0 l0 -449 q0 -123 59 -193.5 q59 -70.5 167 -70.5 q107 0 166.5 70.5 q59.5 70.5 59.5 193.5 l0 449 Z" /><glyph glyph-name="Utilde" unicode="&#x168;" d="M204 826 q2 39 22 66 q20 27 55 27 q24 0 38.5 -10.5 q14.5 -10.5 32.5 -31.5 q14 -17 26 -26 q12 -9 28 -9 q43 0 51 69 l26 0 q-2 -39 -22.5 -66 q-20.5 -27 -55.5 -27 q-23 0 -37.5 10.5 q-14.5 10.5 -32.5 31.5 q-14 17 -26 26 q-12 9 -28 9 q-43 0 -51 -69 l-26 0 ZM569 732 l30 0 l0 -455 q0 -86 -30.5 -150.5 q-30.5 -64.5 -88 -100 q-57.5 -35.5 -137.5 -35.5 q-80 0 -138 35.5 q-58 35.5 -88.5 100 q-30.5 64.5 -30.5 150.5 l0 455 l31 0 l0 -449 q0 -123 59 -193.5 q59 -70.5 167 -70.5 q107 0 166.5 70.5 q59.5 70.5 59.5 193.5 l0 449 Z" /><glyph glyph-name="V" unicode="V" d="M54 732 l261 -687 l257 687 l32 0 l-277 -732 l-26 0 l-282 732 l35 0 Z" /><glyph glyph-name="W" unicode="W" d="M486 732 l207 -679 l199 679 l31 0 l-219 -732 l-26 0 l-206 673 l-202 -673 l-26 0 l-225 732 l34 0 l205 -680 l200 680 l28 0 Z" /><glyph glyph-name="Wacute" unicode="&#x1e82;" d="M464 806 l83 122 l34 0 l-91 -122 l-26 0 ZM486 732 l207 -687 l199 687 l31 0 l-219 -740 l-26 0 l-206 681 l-202 -681 l-26 0 l-225 740 l34 0 l205 -687 l200 687 l28 0 Z" /><glyph glyph-name="Wcircumflex" unicode="&#x174;" d="M459 928 l25 0 l111 -122 l-32 0 l-91 102 l-92 -102 l-32 0 l111 122 ZM486 732 l207 -687 l199 687 l31 0 l-219 -740 l-26 0 l-206 681 l-202 -681 l-26 0 l-225 740 l34 0 l205 -687 l200 687 l28 0 Z" /><glyph glyph-name="Wdieresis" unicode="&#x1e84;" d="M378 854 q-11 0 -19 7.5 q-8 7.5 -8 19.5 q0 10 8 17.5 q8 7.5 19 7.5 q11 0 19 -7.5 q8 -7.5 8 -17.5 q0 -12 -7.5 -19.5 q-7.5 -7.5 -19.5 -7.5 ZM567 854 q-12 0 -20 7.5 q-8 7.5 -8 19.5 q0 10 8 17.5 q8 7.5 19 7.5 q11 0 19.5 -7.5 q8.5 -7.5 8.5 -17.5 q0 -12 -8 -19.5 q-8 -7.5 -19 -7.5 ZM486 732 l207 -687 l199 687 l31 0 l-219 -740 l-26 0 l-206 681 l-202 -681 l-26 0 l-225 740 l34 0 l205 -687 l200 687 l28 0 Z" /><glyph glyph-name="Wgrave" unicode="&#x1e80;" d="M364 928 l33 0 l84 -122 l-27 0 l-90 122 ZM486 732 l207 -687 l199 687 l31 0 l-219 -740 l-26 0 l-206 681 l-202 -681 l-26 0 l-225 740 l34 0 l205 -687 l200 687 l28 0 Z" /><glyph glyph-name="X" unicode="X" d="M593 732 l-265 -361 l274 -371 l-40 0 l-254 347 l-253 -347 l-37 0 l273 372 l-265 360 l39 0 l246 -336 l245 336 l37 0 Z" /><glyph glyph-name="Y" unicode="Y" d="M298 353 l227 379 l33 0 l-246 -411 l0 -321 l-30 0 l0 322 l-263 410 l37 0 l242 -379 Z" /><glyph glyph-name="Yacute" unicode="Ý" d="M282 806 l84 122 l33 0 l-90 -122 l-27 0 ZM298 353 l227 379 l33 0 l-246 -411 l0 -321 l-30 0 l0 322 l-263 410 l37 0 l242 -379 Z" /><glyph glyph-name="Ycircumflex" unicode="&#x176;" d="M278 928 l25 0 l111 -122 l-32 0 l-91 102 l-92 -102 l-32 0 l111 122 ZM298 353 l227 379 l33 0 l-246 -411 l0 -321 l-30 0 l0 322 l-263 410 l37 0 l242 -379 Z" /><glyph glyph-name="Ydieresis" unicode="&#x178;" d="M197 854 q-11 0 -19.5 7.5 q-8.5 7.5 -8.5 19.5 q0 10 8 17.5 q8 7.5 19 7.5 q11 0 19.5 -7.5 q8.5 -7.5 8.5 -17.5 q0 -12 -8 -19.5 q-8 -7.5 -19 -7.5 ZM385 854 q-11 0 -19 7.5 q-8 7.5 -8 19.5 q0 10 7.5 17.5 q7.5 7.5 18.5 7.5 q12 0 20 -7 q8 -7 8 -18 q0 -12 -7.5 -19.5 q-7.5 -7.5 -19.5 -7.5 ZM298 353 l227 379 l33 0 l-246 -411 l0 -321 l-30 0 l0 322 l-263 410 l37 0 l242 -379 Z" /><glyph glyph-name="uni1EF4" unicode="&#x1ef4;" d="M298 353 l227 379 l33 0 l-246 -411 l0 -321 l-30 0 l0 322 l-263 410 l37 0 l242 -379 ZM297 -155 q-11 0 -19 8.5 q-8 8.5 -8 19.5 q0 11 8 19 q8 8 19 8 q11 0 19 -8 q8 -8 8 -19 q0 -11 -8 -19.5 q-8 -8.5 -19 -8.5 Z" /><glyph glyph-name="Ygrave" unicode="&#x1ef2;" d="M182 928 l34 0 l83 -122 l-26 0 l-91 122 ZM298 353 l227 379 l33 0 l-246 -411 l0 -321 l-30 0 l0 322 l-263 410 l37 0 l242 -379 Z" /><glyph glyph-name="uni1EF6" unicode="&#x1ef6;" d="M209 914 q30 14 67 14 q39 0 65.5 -16.5 q26.5 -16.5 26.5 -45.5 q0 -51 -86 -73 l-11 15 q71 18 71 57 q0 21 -19 33 q-19 12 -49 12 q-34 0 -60 -13 l-5 17 ZM298 353 l227 379 l33 0 l-246 -411 l0 -321 l-30 0 l0 322 l-263 410 l37 0 l242 -379 Z" /><glyph glyph-name="uni1EF8" unicode="&#x1ef8;" d="M152 826 q2 39 22 66 q20 27 55 27 q23 0 37.5 -10.5 q14.5 -10.5 32.5 -31.5 q14 -17 26 -26 q12 -9 28 -9 q43 0 51 69 l26 0 q-2 -39 -22 -66 q-20 -27 -55 -27 q-23 0 -37.5 10.5 q-14.5 10.5 -32.5 31.5 q-14 17 -26 26 q-12 9 -28 9 q-44 0 -52 -69 l-25 0 ZM298 353 l227 379 l33 0 l-246 -411 l0 -321 l-30 0 l0 322 l-263 410 l37 0 l242 -379 Z" /><glyph glyph-name="Z" unicode="Z" d="M523 732 l0 -16 l-446 -688 l460 0 l0 -28 l-504 0 l0 17 l446 687 l-416 0 l0 28 l460 0 Z" /><glyph glyph-name="Zacute" unicode="&#x179;" d="M285 807 l83 121 l33 0 l-90 -121 l-26 0 ZM523 732 l0 -16 l-446 -688 l460 0 l0 -28 l-504 0 l0 17 l446 687 l-416 0 l0 28 l460 0 Z" /><glyph glyph-name="Zcaron" unicode="&#x17d;" d="M201 928 l92 -100 l91 100 l32 0 l-111 -121 l-25 0 l-111 121 l32 0 ZM523 732 l0 -16 l-446 -688 l460 0 l0 -28 l-504 0 l0 17 l446 687 l-416 0 l0 28 l460 0 Z" /><glyph glyph-name="Zdotaccent" unicode="&#x17b;" d="M293 855 q-11 0 -19.5 7.5 q-8.5 7.5 -8.5 19.5 q0 10 8 17.5 q8 7.5 19 7.5 q12 0 20 -7 q8 -7 8 -18 q0 -12 -8 -19.5 q-8 -7.5 -19 -7.5 ZM523 732 l0 -16 l-446 -688 l460 0 l0 -28 l-504 0 l0 17 l446 687 l-416 0 l0 28 l460 0 Z" /><glyph glyph-name="a" unicode="a" d="M275 531 q76 0 126 -48 q50 -48 50 -145 l0 -338 l-25 0 q0 67 -1 96 q-21 -48 -67 -76.5 q-46 -28.5 -109 -28.5 q-76 0 -128.5 41 q-52.5 41 -52.5 115 q0 75 61.5 116.5 q61.5 41.5 160.5 41.5 q63 0 132 -18 l0 47 q0 87 -41 128 q-41 41 -107 41 q-53 0 -93 -24 q-40 -24 -59 -66 l-24 13 q19 48 67.5 76.5 q48.5 28.5 109.5 28.5 ZM422 262 q-73 19 -132 19 q-85 0 -138 -35 q-53 -35 -53 -99 q0 -61 43.5 -95 q43.5 -34 107.5 -34 q73 0 122.5 43 q49.5 43 49.5 117 l0 84 Z" /><glyph glyph-name="aacute" unicode="á" d="M334 740 l34 0 l-86 -141 l-27 0 l79 141 ZM275 531 q76 0 126 -48 q50 -48 50 -145 l0 -338 l-25 0 q0 67 -1 96 q-21 -48 -67 -76.5 q-46 -28.5 -109 -28.5 q-76 0 -128.5 41 q-52.5 41 -52.5 115 q0 75 61.5 116.5 q61.5 41.5 160.5 41.5 q63 0 132 -18 l0 47 q0 87 -41 128 q-41 41 -107 41 q-53 0 -93 -24 q-40 -24 -59 -66 l-24 13 q19 48 67.5 76.5 q48.5 28.5 109.5 28.5 ZM422 262 q-73 19 -132 19 q-85 0 -138 -35 q-53 -35 -53 -99 q0 -61 43.5 -95 q43.5 -34 107.5 -34 q73 0 122.5 43 q49.5 43 49.5 117 l0 84 Z" /><glyph glyph-name="abreve" unicode="&#x103;" d="M272 604 q-57 0 -93 36 q-36 36 -36 94 l28 0 q1 -49 29 -77 q28 -28 72 -28 q45 0 73 28 q28 28 29 77 l27 0 q0 -58 -35.5 -94 q-35.5 -36 -93.5 -36 ZM275 531 q76 0 126 -48 q50 -48 50 -145 l0 -338 l-25 0 q0 67 -1 96 q-21 -48 -67 -76.5 q-46 -28.5 -109 -28.5 q-76 0 -128.5 41 q-52.5 41 -52.5 115 q0 75 61.5 116.5 q61.5 41.5 160.5 41.5 q63 0 132 -18 l0 47 q0 87 -41 128 q-41 41 -107 41 q-53 0 -93 -24 q-40 -24 -59 -66 l-24 13 q19 48 67.5 76.5 q48.5 28.5 109.5 28.5 ZM422 262 q-73 19 -132 19 q-85 0 -138 -35 q-53 -35 -53 -99 q0 -61 43.5 -95 q43.5 -34 107.5 -34 q73 0 122.5 43 q49.5 43 49.5 117 l0 84 Z" /><glyph glyph-name="uni1EAF" unicode="&#x1eaf;" d="M333 891 l34 0 l-85 -128 l-27 0 l78 128 ZM272 604 q-57 0 -93 36 q-36 36 -36 94 l28 0 q1 -49 29 -77 q28 -28 72 -28 q45 0 73 28 q28 28 29 77 l27 0 q0 -58 -35.5 -94 q-35.5 -36 -93.5 -36 ZM275 531 q76 0 126 -48 q50 -48 50 -145 l0 -338 l-25 0 q0 67 -1 96 q-21 -48 -67 -76.5 q-46 -28.5 -109 -28.5 q-76 0 -128.5 41 q-52.5 41 -52.5 115 q0 75 61.5 116.5 q61.5 41.5 160.5 41.5 q63 0 132 -18 l0 47 q0 87 -41 128 q-41 41 -107 41 q-53 0 -93 -24 q-40 -24 -59 -66 l-24 13 q19 48 67.5 76.5 q48.5 28.5 109.5 28.5 ZM422 262 q-73 19 -132 19 q-85 0 -138 -35 q-53 -35 -53 -99 q0 -61 43.5 -95 q43.5 -34 107.5 -34 q73 0 122.5 43 q49.5 43 49.5 117 l0 84 Z" /><glyph glyph-name="uni1EB7" unicode="&#x1eb7;" d="M272 604 q-57 0 -93 36 q-36 36 -36 94 l28 0 q1 -49 29 -77 q28 -28 72 -28 q45 0 73 28 q28 28 29 77 l27 0 q0 -58 -35.5 -94 q-35.5 -36 -93.5 -36 ZM275 531 q76 0 126 -48 q50 -48 50 -145 l0 -338 l-25 0 q0 67 -1 96 q-21 -48 -67 -76.5 q-46 -28.5 -109 -28.5 q-76 0 -128.5 41 q-52.5 41 -52.5 115 q0 75 61.5 116.5 q61.5 41.5 160.5 41.5 q63 0 132 -18 l0 47 q0 87 -41 128 q-41 41 -107 41 q-53 0 -93 -24 q-40 -24 -59 -66 l-24 13 q19 48 67.5 76.5 q48.5 28.5 109.5 28.5 ZM422 262 q-73 19 -132 19 q-85 0 -138 -35 q-53 -35 -53 -99 q0 -61 43.5 -95 q43.5 -34 107.5 -34 q73 0 122.5 43 q49.5 43 49.5 117 l0 84 ZM283 -100 q11 0 19 -8 q8 -8 8 -19 q0 -11 -8 -19.5 q-8 -8.5 -19 -8.5 q-12 0 -20 8.5 q-8 8.5 -8 19.5 q0 11 8 19 q8 8 20 8 Z" /><glyph glyph-name="uni1EB1" unicode="&#x1eb1;" d="M211 891 l78 -128 l-27 0 l-85 128 l34 0 ZM272 604 q-57 0 -93 36 q-36 36 -36 94 l28 0 q1 -49 29 -77 q28 -28 72 -28 q45 0 73 28 q28 28 29 77 l27 0 q0 -58 -35.5 -94 q-35.5 -36 -93.5 -36 ZM275 531 q76 0 126 -48 q50 -48 50 -145 l0 -338 l-25 0 q0 67 -1 96 q-21 -48 -67 -76.5 q-46 -28.5 -109 -28.5 q-76 0 -128.5 41 q-52.5 41 -52.5 115 q0 75 61.5 116.5 q61.5 41.5 160.5 41.5 q63 0 132 -18 l0 47 q0 87 -41 128 q-41 41 -107 41 q-53 0 -93 -24 q-40 -24 -59 -66 l-24 13 q19 48 67.5 76.5 q48.5 28.5 109.5 28.5 ZM422 262 q-73 19 -132 19 q-85 0 -138 -35 q-53 -35 -53 -99 q0 -61 43.5 -95 q43.5 -34 107.5 -34 q73 0 122.5 43 q49.5 43 49.5 117 l0 84 Z" /><glyph glyph-name="uni1EB3" unicode="&#x1eb3;" d="M255 898 q-33 0 -60 -16 l-5 21 q31 18 67 18 q40 0 66.5 -21 q26.5 -21 26.5 -58 q0 -64 -86 -93 l-12 19 q35 12 53 29 q18 17 18 43 q0 27 -18.5 42.5 q-18.5 15.5 -49.5 15.5 ZM272 604 q-57 0 -93 35.5 q-36 35.5 -36 93.5 l28 0 q1 -48 29 -76.5 q28 -28.5 72 -28.5 q45 0 73 28 q28 28 29 77 l27 0 q0 -58 -35.5 -93.5 q-35.5 -35.5 -93.5 -35.5 ZM275 531 q76 0 126 -48 q50 -48 50 -145 l0 -338 l-25 0 q0 67 -1 96 q-21 -48 -67 -76.5 q-46 -28.5 -109 -28.5 q-76 0 -128.5 41 q-52.5 41 -52.5 115 q0 75 61.5 116.5 q61.5 41.5 160.5 41.5 q63 0 132 -18 l0 47 q0 87 -41 128 q-41 41 -107 41 q-53 0 -93 -24 q-40 -24 -59 -66 l-24 13 q19 48 67.5 76.5 q48.5 28.5 109.5 28.5 ZM422 262 q-73 19 -132 19 q-85 0 -138 -35 q-53 -35 -53 -99 q0 -61 43.5 -95 q43.5 -34 107.5 -34 q73 0 122.5 43 q49.5 43 49.5 117 l0 84 Z" /><glyph glyph-name="uni1EB5" unicode="&#x1eb5;" d="M210 861 q-22 0 -35 -19.5 q-13 -19.5 -16 -54.5 l-26 0 q2 42 22 70.5 q20 28.5 55 28.5 q23 0 37.5 -11.5 q14.5 -11.5 32.5 -34.5 q15 -19 26.5 -28.5 q11.5 -9.5 27.5 -9.5 q43 0 51 74 l26 0 q-2 -43 -22 -71.5 q-20 -28.5 -55 -28.5 q-23 0 -37.5 11.5 q-14.5 11.5 -32.5 34.5 q-14 19 -26 29 q-12 10 -28 10 ZM272 629 q45 0 73 28 q28 28 29 77 l27 0 q0 -58 -35.5 -94 q-35.5 -36 -93.5 -36 q-57 0 -93 36 q-36 36 -36 94 l28 0 q1 -49 29 -77 q28 -28 72 -28 ZM275 531 q76 0 126 -48 q50 -48 50 -145 l0 -338 l-25 0 q0 67 -1 96 q-21 -48 -67 -76.5 q-46 -28.5 -109 -28.5 q-76 0 -128.5 41 q-52.5 41 -52.5 115 q0 75 61.5 116.5 q61.5 41.5 160.5 41.5 q63 0 132 -18 l0 47 q0 87 -41 128 q-41 41 -107 41 q-53 0 -93 -24 q-40 -24 -59 -66 l-24 13 q19 48 67.5 76.5 q48.5 28.5 109.5 28.5 ZM422 262 q-73 19 -132 19 q-85 0 -138 -35 q-53 -35 -53 -99 q0 -61 43.5 -95 q43.5 -34 107.5 -34 q73 0 122.5 43 q49.5 43 49.5 117 l0 84 Z" /><glyph glyph-name="uni01CE" unicode="&#x1ce;" d="M389 740 l-106 -141 l-24 0 l-105 141 l31 0 l87 -117 l86 117 l31 0 ZM275 531 q76 0 126 -48 q50 -48 50 -145 l0 -338 l-25 0 q0 67 -1 96 q-21 -48 -67 -76.5 q-46 -28.5 -109 -28.5 q-76 0 -128.5 41 q-52.5 41 -52.5 115 q0 75 61.5 116.5 q61.5 41.5 160.5 41.5 q63 0 132 -18 l0 47 q0 87 -41 128 q-41 41 -107 41 q-53 0 -93 -24 q-40 -24 -59 -66 l-24 13 q19 48 67.5 76.5 q48.5 28.5 109.5 28.5 ZM422 262 q-73 19 -132 19 q-85 0 -138 -35 q-53 -35 -53 -99 q0 -61 43.5 -95 q43.5 -34 107.5 -34 q73 0 122.5 43 q49.5 43 49.5 117 l0 84 Z" /><glyph glyph-name="acircumflex" unicode="â" d="M358 599 l-86 117 l-88 -117 l-31 0 l106 141 l24 0 l106 -141 l-31 0 ZM275 531 q76 0 126 -48 q50 -48 50 -145 l0 -338 l-25 0 q0 67 -1 96 q-21 -48 -67 -76.5 q-46 -28.5 -109 -28.5 q-76 0 -128.5 41 q-52.5 41 -52.5 115 q0 75 61.5 116.5 q61.5 41.5 160.5 41.5 q63 0 132 -18 l0 47 q0 87 -41 128 q-41 41 -107 41 q-53 0 -93 -24 q-40 -24 -59 -66 l-24 13 q19 48 67.5 76.5 q48.5 28.5 109.5 28.5 ZM422 262 q-73 19 -132 19 q-85 0 -138 -35 q-53 -35 -53 -99 q0 -61 43.5 -95 q43.5 -34 107.5 -34 q73 0 122.5 43 q49.5 43 49.5 117 l0 84 Z" /><glyph glyph-name="uni1EA5" unicode="&#x1ea5;" d="M430 891 l34 0 l-85 -128 l-27 0 l78 128 ZM355 599 l-86 117 l-87 -117 l-31 0 l106 141 l24 0 l105 -141 l-31 0 ZM275 531 q76 0 126 -48 q50 -48 50 -145 l0 -338 l-25 0 q0 67 -1 96 q-21 -48 -67 -76.5 q-46 -28.5 -109 -28.5 q-76 0 -128.5 41 q-52.5 41 -52.5 115 q0 75 61.5 116.5 q61.5 41.5 160.5 41.5 q63 0 132 -18 l0 47 q0 87 -41 128 q-41 41 -107 41 q-53 0 -93 -24 q-40 -24 -59 -66 l-24 13 q19 48 67.5 76.5 q48.5 28.5 109.5 28.5 ZM422 262 q-73 19 -132 19 q-85 0 -138 -35 q-53 -35 -53 -99 q0 -61 43.5 -95 q43.5 -34 107.5 -34 q73 0 122.5 43 q49.5 43 49.5 117 l0 84 Z" /><glyph glyph-name="uni1EAD" unicode="&#x1ead;" d="M358 599 l-86 117 l-88 -117 l-31 0 l106 141 l24 0 l106 -141 l-31 0 ZM275 531 q76 0 126 -48 q50 -48 50 -145 l0 -338 l-25 0 q0 67 -1 96 q-21 -48 -67 -76.5 q-46 -28.5 -109 -28.5 q-76 0 -128.5 41 q-52.5 41 -52.5 115 q0 75 61.5 116.5 q61.5 41.5 160.5 41.5 q63 0 132 -18 l0 47 q0 87 -41 128 q-41 41 -107 41 q-53 0 -93 -24 q-40 -24 -59 -66 l-24 13 q19 48 67.5 76.5 q48.5 28.5 109.5 28.5 ZM422 262 q-73 19 -132 19 q-85 0 -138 -35 q-53 -35 -53 -99 q0 -61 43.5 -95 q43.5 -34 107.5 -34 q73 0 122.5 43 q49.5 43 49.5 117 l0 84 ZM283 -100 q11 0 19 -8 q8 -8 8 -19 q0 -11 -8 -19.5 q-8 -8.5 -19 -8.5 q-12 0 -20 8.5 q-8 8.5 -8 19.5 q0 11 8 19 q8 8 20 8 Z" /><glyph glyph-name="uni1EA7" unicode="&#x1ea7;" d="M309 891 l78 -128 l-28 0 l-84 128 l34 0 ZM355 599 l-86 117 l-87 -117 l-31 0 l106 141 l24 0 l105 -141 l-31 0 ZM275 531 q76 0 126 -48 q50 -48 50 -145 l0 -338 l-25 0 q0 67 -1 96 q-21 -48 -67 -76.5 q-46 -28.5 -109 -28.5 q-76 0 -128.5 41 q-52.5 41 -52.5 115 q0 75 61.5 116.5 q61.5 41.5 160.5 41.5 q63 0 132 -18 l0 47 q0 87 -41 128 q-41 41 -107 41 q-53 0 -93 -24 q-40 -24 -59 -66 l-24 13 q19 48 67.5 76.5 q48.5 28.5 109.5 28.5 ZM422 262 q-73 19 -132 19 q-85 0 -138 -35 q-53 -35 -53 -99 q0 -61 43.5 -95 q43.5 -34 107.5 -34 q73 0 122.5 43 q49.5 43 49.5 117 l0 84 Z" /><glyph glyph-name="uni1EA9" unicode="&#x1ea9;" d="M355 880 q-32 0 -61 -20 l-5 23 q29 20 68 20 q38 0 64.5 -21 q26.5 -21 26.5 -58 q0 -65 -86 -94 l-11 20 q35 11 53 28 q18 17 18 44 q0 27 -18.5 42.5 q-18.5 15.5 -48.5 15.5 ZM355 599 l-86 117 l-87 -117 l-31 0 l106 141 l24 0 l105 -141 l-31 0 ZM275 531 q76 0 126 -48 q50 -48 50 -145 l0 -338 l-25 0 q0 67 -1 96 q-21 -48 -67 -76.5 q-46 -28.5 -109 -28.5 q-76 0 -128.5 41 q-52.5 41 -52.5 115 q0 75 61.5 116.5 q61.5 41.5 160.5 41.5 q63 0 132 -18 l0 47 q0 87 -41 128 q-41 41 -107 41 q-53 0 -93 -24 q-40 -24 -59 -66 l-24 13 q19 48 67.5 76.5 q48.5 28.5 109.5 28.5 ZM422 262 q-73 19 -132 19 q-85 0 -138 -35 q-53 -35 -53 -99 q0 -61 43.5 -95 q43.5 -34 107.5 -34 q73 0 122.5 43 q49.5 43 49.5 117 l0 84 Z" /><glyph glyph-name="uni1EAB" unicode="&#x1eab;" d="M209 861 q-22 0 -34.5 -19.5 q-12.5 -19.5 -16.5 -54.5 l-26 0 q2 42 22.5 70.5 q20.5 28.5 55.5 28.5 q23 0 37.5 -11.5 q14.5 -11.5 32.5 -34.5 q15 -19 26.5 -28.5 q11.5 -9.5 27.5 -9.5 q43 0 51 74 l26 0 q-2 -43 -22 -71.5 q-20 -28.5 -55 -28.5 q-24 0 -39 12 q-15 12 -32 35 q-15 19 -26.5 28.5 q-11.5 9.5 -27.5 9.5 ZM153 599 l106 141 l24 0 l106 -141 l-31 0 l-87 117 l-87 -117 l-31 0 ZM275 531 q76 0 126 -48 q50 -48 50 -145 l0 -338 l-25 0 q0 67 -1 96 q-21 -48 -67 -76.5 q-46 -28.5 -109 -28.5 q-76 0 -128.5 41 q-52.5 41 -52.5 115 q0 75 61.5 116.5 q61.5 41.5 160.5 41.5 q63 0 132 -18 l0 47 q0 87 -41 128 q-41 41 -107 41 q-53 0 -93 -24 q-40 -24 -59 -66 l-24 13 q19 48 67.5 76.5 q48.5 28.5 109.5 28.5 ZM422 262 q-73 19 -132 19 q-85 0 -138 -35 q-53 -35 -53 -99 q0 -61 43.5 -95 q43.5 -34 107.5 -34 q73 0 122.5 43 q49.5 43 49.5 117 l0 84 Z" /><glyph glyph-name="adieresis" unicode="ä" d="M178 649 q-11 0 -19.5 8 q-8.5 8 -8.5 20 q0 11 8 19 q8 8 19 8 q12 0 20 -8 q8 -8 8 -19 q0 -12 -7.5 -20 q-7.5 -8 -19.5 -8 ZM366 649 q-11 0 -19 8 q-8 8 -8 20 q0 11 8 19 q8 8 19 8 q11 0 19 -8 q8 -8 8 -19 q0 -13 -7.5 -20.5 q-7.5 -7.5 -19.5 -7.5 ZM275 531 q76 0 126 -48 q50 -48 50 -145 l0 -338 l-25 0 q0 67 -1 96 q-21 -48 -67 -76.5 q-46 -28.5 -109 -28.5 q-76 0 -128.5 41 q-52.5 41 -52.5 115 q0 75 61.5 116.5 q61.5 41.5 160.5 41.5 q63 0 132 -18 l0 47 q0 87 -41 128 q-41 41 -107 41 q-53 0 -93 -24 q-40 -24 -59 -66 l-24 13 q19 48 67.5 76.5 q48.5 28.5 109.5 28.5 ZM422 262 q-73 19 -132 19 q-85 0 -138 -35 q-53 -35 -53 -99 q0 -61 43.5 -95 q43.5 -34 107.5 -34 q73 0 122.5 43 q49.5 43 49.5 117 l0 84 Z" /><glyph glyph-name="uni1EA1" unicode="&#x1ea1;" d="M275 531 q76 0 126 -48 q50 -48 50 -145 l0 -338 l-25 0 q0 67 -1 96 q-21 -48 -67 -76.5 q-46 -28.5 -109 -28.5 q-76 0 -128.5 41 q-52.5 41 -52.5 115 q0 75 61.5 116.5 q61.5 41.5 160.5 41.5 q63 0 132 -18 l0 47 q0 87 -41 128 q-41 41 -107 41 q-53 0 -93 -24 q-40 -24 -59 -66 l-24 13 q19 48 67.5 76.5 q48.5 28.5 109.5 28.5 ZM422 262 q-73 19 -132 19 q-85 0 -138 -35 q-53 -35 -53 -99 q0 -61 43.5 -95 q43.5 -34 107.5 -34 q73 0 122.5 43 q49.5 43 49.5 117 l0 84 ZM283 -100 q11 0 19 -8 q8 -8 8 -19 q0 -11 -8 -19.5 q-8 -8.5 -19 -8.5 q-12 0 -20 8.5 q-8 8.5 -8 19.5 q0 11 8 19 q8 8 20 8 Z" /><glyph glyph-name="agrave" unicode="à" d="M210 740 l79 -141 l-27 0 l-86 141 l34 0 ZM275 531 q76 0 126 -48 q50 -48 50 -145 l0 -338 l-25 0 q0 67 -1 96 q-21 -48 -67 -76.5 q-46 -28.5 -109 -28.5 q-76 0 -128.5 41 q-52.5 41 -52.5 115 q0 75 61.5 116.5 q61.5 41.5 160.5 41.5 q63 0 132 -18 l0 47 q0 87 -41 128 q-41 41 -107 41 q-53 0 -93 -24 q-40 -24 -59 -66 l-24 13 q19 48 67.5 76.5 q48.5 28.5 109.5 28.5 ZM422 262 q-73 19 -132 19 q-85 0 -138 -35 q-53 -35 -53 -99 q0 -61 43.5 -95 q43.5 -34 107.5 -34 q73 0 122.5 43 q49.5 43 49.5 117 l0 84 Z" /><glyph glyph-name="uni1EA3" unicode="&#x1ea3;" d="M255 735 q-33 0 -60 -16 l-5 21 q30 19 67 19 q39 0 66 -21.5 q27 -21.5 27 -58.5 q0 -65 -86 -94 l-12 20 q35 12 53 29 q18 17 18 43 q0 27 -18.5 42.5 q-18.5 15.5 -49.5 15.5 ZM275 531 q76 0 126 -48 q50 -48 50 -145 l0 -338 l-25 0 q0 67 -1 96 q-21 -48 -67 -76.5 q-46 -28.5 -109 -28.5 q-76 0 -128.5 41 q-52.5 41 -52.5 115 q0 75 61.5 116.5 q61.5 41.5 160.5 41.5 q63 0 132 -18 l0 47 q0 87 -41 128 q-41 41 -107 41 q-53 0 -93 -24 q-40 -24 -59 -66 l-24 13 q19 48 67.5 76.5 q48.5 28.5 109.5 28.5 ZM422 262 q-73 19 -132 19 q-85 0 -138 -35 q-53 -35 -53 -99 q0 -61 43.5 -95 q43.5 -34 107.5 -34 q73 0 122.5 43 q49.5 43 49.5 117 l0 84 Z" /><glyph glyph-name="uni0251" unicode="&#x251;" d="M502 522 l0 -522 l-25 0 q0 90 -3 142 q-20 -73 -72 -112 q-52 -39 -118 -39 q-60 0 -111 32.5 q-51 32.5 -81 93.5 q-30 61 -30 145 q0 83 30 144 q30 61 81 93 q51 32 111 32 q67 0 118.5 -39 q51.5 -39 71.5 -112 q3 54 3 142 l25 0 ZM286 19 q48 0 90.5 24 q42.5 24 69.5 78.5 q27 54.5 27 140.5 q0 85 -27 139 q-27 54 -69.5 78 q-42.5 24 -90.5 24 q-53 0 -97 -28 q-44 -28 -70 -82.5 q-26 -54.5 -26 -130.5 q0 -76 26 -131 q26 -55 70 -83.5 q44 -28.5 97 -28.5 Z" /><glyph glyph-name="amacron" unicode="&#x101;" d="M139 689 l266 0 l0 -28 l-266 0 l0 28 ZM275 531 q76 0 126 -48 q50 -48 50 -145 l0 -338 l-25 0 q0 67 -1 96 q-21 -48 -67 -76.5 q-46 -28.5 -109 -28.5 q-76 0 -128.5 41 q-52.5 41 -52.5 115 q0 75 61.5 116.5 q61.5 41.5 160.5 41.5 q63 0 132 -18 l0 47 q0 87 -41 128 q-41 41 -107 41 q-53 0 -93 -24 q-40 -24 -59 -66 l-24 13 q19 48 67.5 76.5 q48.5 28.5 109.5 28.5 ZM422 262 q-73 19 -132 19 q-85 0 -138 -35 q-53 -35 -53 -99 q0 -61 43.5 -95 q43.5 -34 107.5 -34 q73 0 122.5 43 q49.5 43 49.5 117 l0 84 Z" /><glyph glyph-name="aogonek" unicode="&#x105;" d="M519 -193 q-40 -51 -103 -51 q-43 0 -73.5 25 q-30.5 25 -30.5 74 q0 49 32 88 q32 39 82 67 q0 60 -1 86 q-21 -48 -67 -76.5 q-46 -28.5 -109 -28.5 q-76 0 -128.5 41 q-52.5 41 -52.5 115 q0 75 61.5 116.5 q61.5 41.5 160.5 41.5 q63 0 132 -18 l0 47 q0 87 -41 128 q-41 41 -107 41 q-53 0 -93 -24 q-40 -24 -59 -66 l-24 13 q19 48 67.5 76.5 q48.5 28.5 109.5 28.5 q76 0 126 -48 q50 -48 50 -145 l0 -338 q-55 -34 -83 -66.5 q-28 -32.5 -28 -75.5 q0 -38 22 -56.5 q22 -18.5 55 -18.5 q50 0 86 43 l16 -19 ZM422 262 q-73 19 -132 19 q-85 0 -138 -35 q-53 -35 -53 -99 q0 -61 43.5 -95 q43.5 -34 107.5 -34 q73 0 122.5 43 q49.5 43 49.5 117 l0 84 Z" /><glyph glyph-name="aring" unicode="å" d="M272 604 q-34 0 -57.5 23 q-23.5 23 -23.5 58 q0 35 23.5 57.5 q23.5 22.5 57.5 22.5 q32 0 54.5 -22.5 q22.5 -22.5 22.5 -57.5 q0 -35 -22.5 -58 q-22.5 -23 -54.5 -23 ZM272 743 q-25 0 -41 -16.5 q-16 -16.5 -16 -41.5 q0 -26 16 -42.5 q16 -16.5 41 -16.5 q24 0 39.5 16.5 q15.5 16.5 15.5 42.5 q0 25 -15.5 41.5 q-15.5 16.5 -39.5 16.5 ZM275 531 q76 0 126 -48 q50 -48 50 -145 l0 -338 l-25 0 q0 67 -1 96 q-21 -48 -67 -76.5 q-46 -28.5 -109 -28.5 q-76 0 -128.5 41 q-52.5 41 -52.5 115 q0 75 61.5 116.5 q61.5 41.5 160.5 41.5 q63 0 132 -18 l0 47 q0 87 -41 128 q-41 41 -107 41 q-53 0 -93 -24 q-40 -24 -59 -66 l-24 13 q19 48 67.5 76.5 q48.5 28.5 109.5 28.5 ZM422 262 q-73 19 -132 19 q-85 0 -138 -35 q-53 -35 -53 -99 q0 -61 43.5 -95 q43.5 -34 107.5 -34 q73 0 122.5 43 q49.5 43 49.5 117 l0 84 Z" /><glyph glyph-name="aringacute" unicode="&#x1fb;" d="M328 911 l34 0 l-80 -112 l-27 0 l73 112 ZM272 594 q-33 0 -55 22 q-22 22 -22 56 q0 33 22 54 q22 21 55 21 q31 0 52 -21 q21 -21 21 -54 q0 -34 -21 -56 q-21 -22 -52 -22 ZM272 726 q-24 0 -39 -15 q-15 -15 -15 -39 q0 -24 15.5 -40.5 q15.5 -16.5 38.5 -16.5 q22 0 37 16.5 q15 16.5 15 40.5 q0 24 -14.5 39 q-14.5 15 -37.5 15 ZM275 531 q76 0 126 -48 q50 -48 50 -145 l0 -338 l-25 0 q0 67 -1 96 q-21 -48 -67 -76.5 q-46 -28.5 -109 -28.5 q-76 0 -128.5 41 q-52.5 41 -52.5 115 q0 75 61.5 116.5 q61.5 41.5 160.5 41.5 q63 0 132 -18 l0 47 q0 87 -41 128 q-41 41 -107 41 q-53 0 -93 -24 q-40 -24 -59 -66 l-24 13 q19 48 67.5 76.5 q48.5 28.5 109.5 28.5 ZM422 262 q-73 19 -132 19 q-85 0 -138 -35 q-53 -35 -53 -99 q0 -61 43.5 -95 q43.5 -34 107.5 -34 q73 0 122.5 43 q49.5 43 49.5 117 l0 84 Z" /><glyph glyph-name="uni1E01" unicode="&#x1e01;" d="M275 531 q76 0 126 -48 q50 -48 50 -145 l0 -338 l-25 0 q0 67 -1 96 q-21 -48 -67 -76.5 q-46 -28.5 -109 -28.5 q-76 0 -128.5 41 q-52.5 41 -52.5 115 q0 75 61.5 116.5 q61.5 41.5 160.5 41.5 q63 0 132 -18 l0 47 q0 87 -41 128 q-41 41 -107 41 q-53 0 -93 -24 q-40 -24 -59 -66 l-24 13 q19 48 67.5 76.5 q48.5 28.5 109.5 28.5 ZM422 262 q-73 19 -132 19 q-85 0 -138 -35 q-53 -35 -53 -99 q0 -61 43.5 -95 q43.5 -34 107.5 -34 q73 0 122.5 43 q49.5 43 49.5 117 l0 84 ZM283 -48 q32 0 54.5 -22.5 q22.5 -22.5 22.5 -57.5 q0 -35 -22.5 -57.5 q-22.5 -22.5 -54.5 -22.5 q-34 0 -57.5 22.5 q-23.5 22.5 -23.5 57.5 q0 35 23.5 57.5 q23.5 22.5 57.5 22.5 ZM283 -186 q23 0 38.5 16.5 q15.5 16.5 15.5 41.5 q0 26 -15 42 q-15 16 -39 16 q-25 0 -41 -16 q-16 -16 -16 -42 q0 -25 16 -41.5 q16 -16.5 41 -16.5 Z" /><glyph glyph-name="atilde" unicode="ã" d="M210 696 q-44 0 -51 -74 l-26 0 q2 43 22 71.5 q20 28.5 55 28.5 q23 0 37.5 -11.5 q14.5 -11.5 32.5 -34.5 q14 -19 26 -29 q12 -10 28 -10 q43 0 51 74 l26 0 q-2 -42 -22 -70.5 q-20 -28.5 -55 -28.5 q-23 0 -37.5 11.5 q-14.5 11.5 -32.5 34.5 q-15 19 -26.5 28.5 q-11.5 9.5 -27.5 9.5 ZM275 531 q76 0 126 -48 q50 -48 50 -145 l0 -338 l-25 0 q0 67 -1 96 q-21 -48 -67 -76.5 q-46 -28.5 -109 -28.5 q-76 0 -128.5 41 q-52.5 41 -52.5 115 q0 75 61.5 116.5 q61.5 41.5 160.5 41.5 q63 0 132 -18 l0 47 q0 87 -41 128 q-41 41 -107 41 q-53 0 -93 -24 q-40 -24 -59 -66 l-24 13 q19 48 67.5 76.5 q48.5 28.5 109.5 28.5 ZM422 262 q-73 19 -132 19 q-85 0 -138 -35 q-53 -35 -53 -99 q0 -61 43.5 -95 q43.5 -34 107.5 -34 q73 0 122.5 43 q49.5 43 49.5 117 l0 84 Z" /><glyph glyph-name="ae" unicode="æ" d="M648 531 q61 0 106.5 -30.5 q45.5 -30.5 69 -82 q23.5 -51.5 23.5 -113.5 q0 -13 -2 -37 l-389 0 q0 -77 26 -133 q26 -56 72 -85.5 q46 -29.5 105 -29.5 q48 0 87 20.5 q39 20.5 59 60.5 l23 -13 q-21 -47 -68 -72 q-47 -25 -102 -25 q-73 0 -130 43.5 q-57 43.5 -82 121.5 q-10 -80 -63.5 -122.5 q-53.5 -42.5 -132.5 -42.5 q-76 0 -129 38.5 q-53 38.5 -53 114.5 q0 77 55.5 120.5 q55.5 43.5 156.5 43.5 q69 0 146 -20 l0 44 q0 84 -41.5 127.5 q-41.5 43.5 -111.5 43.5 q-52 0 -92 -24 q-40 -24 -59 -67 l-24 14 q19 48 67 76.5 q48 28.5 109 28.5 q70 0 117 -39.5 q47 -39.5 56 -115.5 q24 73 78 114 q54 41 123 41 ZM816 294 q3 59 -16.5 106.5 q-19.5 47.5 -58.5 75 q-39 27.5 -94 27.5 q-78 0 -130.5 -55 q-52.5 -55 -59.5 -154 l359 0 ZM426 262 q-77 20 -144 20 q-88 0 -135.5 -36 q-47.5 -36 -47.5 -100 q0 -64 44.5 -96 q44.5 -32 108.5 -32 q75 0 124.5 45.5 q49.5 45.5 49.5 130.5 l0 68 Z" /><glyph glyph-name="aeacute" unicode="&#x1fd;" d="M521 740 l34 0 l-86 -141 l-27 0 l79 141 ZM648 531 q61 0 106.5 -30.5 q45.5 -30.5 69 -82 q23.5 -51.5 23.5 -113.5 q0 -13 -2 -37 l-389 0 q0 -77 26 -133 q26 -56 72 -85.5 q46 -29.5 105 -29.5 q48 0 87 20.5 q39 20.5 59 60.5 l23 -13 q-21 -47 -68 -72 q-47 -25 -102 -25 q-73 0 -130 43.5 q-57 43.5 -82 121.5 q-10 -80 -63.5 -122.5 q-53.5 -42.5 -132.5 -42.5 q-76 0 -129 38.5 q-53 38.5 -53 114.5 q0 77 55.5 120.5 q55.5 43.5 156.5 43.5 q69 0 146 -20 l0 44 q0 84 -41.5 127.5 q-41.5 43.5 -111.5 43.5 q-52 0 -92 -24 q-40 -24 -59 -67 l-24 14 q19 48 67 76.5 q48 28.5 109 28.5 q70 0 117 -39.5 q47 -39.5 56 -115.5 q24 73 78 114 q54 41 123 41 ZM816 294 q3 59 -16.5 106.5 q-19.5 47.5 -58.5 75 q-39 27.5 -94 27.5 q-78 0 -130.5 -55 q-52.5 -55 -59.5 -154 l359 0 ZM426 262 q-77 20 -144 20 q-88 0 -135.5 -36 q-47.5 -36 -47.5 -100 q0 -64 44.5 -96 q44.5 -32 108.5 -32 q75 0 124.5 45.5 q49.5 45.5 49.5 130.5 l0 68 Z" /><glyph glyph-name="b" unicode="b" d="M315 531 q60 0 109.5 -32 q49.5 -32 79 -92.5 q29.5 -60.5 29.5 -144.5 q0 -84 -29.5 -145.5 q-29.5 -61.5 -79.5 -93.5 q-50 -32 -109 -32 q-69 0 -121.5 39.5 q-52.5 39.5 -72.5 111.5 q-2 -35 -2 -142 l-25 0 l0 759 l29 0 l0 -374 q21 71 73 108.5 q52 37.5 119 37.5 ZM312 19 q53 0 96.5 28.5 q43.5 28.5 69 83.5 q25.5 55 25.5 131 q0 76 -25.5 130.5 q-25.5 54.5 -69 82.5 q-43.5 28 -96.5 28 q-48 0 -91 -24 q-43 -24 -70.5 -78 q-27.5 -54 -27.5 -139 q0 -85 27.5 -139.5 q27.5 -54.5 70.5 -79 q43 -24.5 91 -24.5 Z" /><glyph glyph-name="c" unicode="c" d="M292 20 q48 0 86 22 q38 22 57 66 l24 -14 q-21 -51 -66.5 -77 q-45.5 -26 -100.5 -26 q-64 0 -116.5 34 q-52.5 34 -83 95.5 q-30.5 61.5 -30.5 141.5 q0 80 30.5 141 q30.5 61 83 94.5 q52.5 33.5 116.5 33.5 q55 0 100.5 -25.5 q45.5 -25.5 66.5 -76.5 l-24 -14 q-19 44 -57 66 q-38 22 -86 22 q-57 0 -102.5 -29.5 q-45.5 -29.5 -71 -84 q-25.5 -54.5 -25.5 -127.5 q0 -73 25.5 -128 q25.5 -55 71 -84.5 q45.5 -29.5 102.5 -29.5 Z" /><glyph glyph-name="cacute" unicode="&#x107;" d="M266 599 l80 141 l34 0 l-86 -141 l-28 0 ZM292 20 q48 0 86 22 q38 22 57 66 l24 -14 q-21 -51 -66.5 -77 q-45.5 -26 -100.5 -26 q-64 0 -116.5 34 q-52.5 34 -83 95.5 q-30.5 61.5 -30.5 141.5 q0 80 30.5 141 q30.5 61 83 94.5 q52.5 33.5 116.5 33.5 q55 0 100.5 -25.5 q45.5 -25.5 66.5 -76.5 l-24 -14 q-19 44 -57 66 q-38 22 -86 22 q-57 0 -102.5 -29.5 q-45.5 -29.5 -71 -84 q-25.5 -54.5 -25.5 -127.5 q0 -73 25.5 -128 q25.5 -55 71 -84.5 q45.5 -29.5 102.5 -29.5 Z" /><glyph glyph-name="ccaron" unicode="&#x10d;" d="M196 740 l88 -117 l86 117 l31 0 l-106 -141 l-24 0 l-106 141 l31 0 ZM292 20 q48 0 86 22 q38 22 57 66 l24 -14 q-21 -51 -66.5 -77 q-45.5 -26 -100.5 -26 q-64 0 -116.5 34 q-52.5 34 -83 95.5 q-30.5 61.5 -30.5 141.5 q0 80 30.5 141 q30.5 61 83 94.5 q52.5 33.5 116.5 33.5 q55 0 100.5 -25.5 q45.5 -25.5 66.5 -76.5 l-24 -14 q-19 44 -57 66 q-38 22 -86 22 q-57 0 -102.5 -29.5 q-45.5 -29.5 -71 -84 q-25.5 -54.5 -25.5 -127.5 q0 -73 25.5 -128 q25.5 -55 71 -84.5 q45.5 -29.5 102.5 -29.5 Z" /><glyph glyph-name="ccedilla" unicode="ç" d="M292 20 q48 0 86 22 q38 22 57 66 l24 -14 q-21 -50 -64 -75 q-43 -25 -96 -27 l-31 -79 q6 1 19 1 q44 0 71 -19.5 q27 -19.5 27 -55.5 q0 -39 -30 -61 q-30 -22 -76 -22 q-28 0 -57 9 l0 26 q26 -10 56 -10 q34 0 56.5 14.5 q22.5 14.5 22.5 43.5 q0 26 -20.5 39 q-20.5 13 -57.5 13 q-16 0 -36 -3 l-4 18 l33 86 q-60 6 -108 40.5 q-48 34.5 -75 94 q-27 59.5 -27 135.5 q0 80 30.5 141 q30.5 61 83 94.5 q52.5 33.5 116.5 33.5 q55 0 100.5 -25.5 q45.5 -25.5 66.5 -76.5 l-24 -14 q-19 44 -57 66 q-38 22 -86 22 q-57 0 -102.5 -29.5 q-45.5 -29.5 -71 -84 q-25.5 -54.5 -25.5 -127.5 q0 -73 25.5 -128 q25.5 -55 71 -84.5 q45.5 -29.5 102.5 -29.5 Z" /><glyph glyph-name="ccircumflex" unicode="&#x109;" d="M271 740 l24 0 l106 -141 l-31 0 l-86 117 l-88 -117 l-31 0 l106 141 ZM292 20 q48 0 86 22 q38 22 57 66 l24 -14 q-21 -51 -66.5 -77 q-45.5 -26 -100.5 -26 q-64 0 -116.5 34 q-52.5 34 -83 95.5 q-30.5 61.5 -30.5 141.5 q0 80 30.5 141 q30.5 61 83 94.5 q52.5 33.5 116.5 33.5 q55 0 100.5 -25.5 q45.5 -25.5 66.5 -76.5 l-24 -14 q-19 44 -57 66 q-38 22 -86 22 q-57 0 -102.5 -29.5 q-45.5 -29.5 -71 -84 q-25.5 -54.5 -25.5 -127.5 q0 -73 25.5 -128 q25.5 -55 71 -84.5 q45.5 -29.5 102.5 -29.5 Z" /><glyph glyph-name="cdotaccent" unicode="&#x10b;" d="M284 656 q-11 0 -19.5 8.5 q-8.5 8.5 -8.5 19.5 q0 11 8.5 19 q8.5 8 19.5 8 q11 0 19 -8 q8 -8 8 -19 q0 -11 -8 -19.5 q-8 -8.5 -19 -8.5 ZM292 20 q48 0 86 22 q38 22 57 66 l24 -14 q-21 -51 -66.5 -77 q-45.5 -26 -100.5 -26 q-64 0 -116.5 34 q-52.5 34 -83 95.5 q-30.5 61.5 -30.5 141.5 q0 80 30.5 141 q30.5 61 83 94.5 q52.5 33.5 116.5 33.5 q55 0 100.5 -25.5 q45.5 -25.5 66.5 -76.5 l-24 -14 q-19 44 -57 66 q-38 22 -86 22 q-57 0 -102.5 -29.5 q-45.5 -29.5 -71 -84 q-25.5 -54.5 -25.5 -127.5 q0 -73 25.5 -128 q25.5 -55 71 -84.5 q45.5 -29.5 102.5 -29.5 Z" /><glyph glyph-name="d" unicode="d" d="M473 759 l29 0 l0 -759 l-25 0 q0 90 -3 142 q-20 -73 -73 -112 q-53 -39 -120 -39 q-60 0 -110 32 q-50 32 -79.5 93.5 q-29.5 61.5 -29.5 145.5 q0 83 29.5 144 q29.5 61 79.5 93 q50 32 110 32 q67 0 118.5 -37.5 q51.5 -37.5 73.5 -108.5 l0 374 ZM284 19 q48 0 90.5 24 q42.5 24 70.5 78.5 q28 54.5 28 140.5 q0 85 -28 139 q-28 54 -70.5 78 q-42.5 24 -90.5 24 q-53 0 -96.5 -28 q-43.5 -28 -69 -82.5 q-25.5 -54.5 -25.5 -130.5 q0 -76 25.5 -131 q25.5 -55 69 -83.5 q43.5 -28.5 96.5 -28.5 Z" /><glyph glyph-name="eth" unicode="ð" d="M343 679 q94 -83 136.5 -193 q42.5 -110 42.5 -209 q0 -86 -31 -151 q-31 -65 -83.5 -100 q-52.5 -35 -115.5 -35 q-63 0 -115.5 34.5 q-52.5 34.5 -83.5 96.5 q-31 62 -31 139 q0 78 30.5 139.5 q30.5 61.5 83 96 q52.5 34.5 115.5 34.5 q56 0 103 -28 q47 -28 77 -85 q-44 153 -155 245 l-138 -84 l-13 24 l128 78 q-54 41 -113 65 l16 24 q67 -27 124 -72 l119 72 l14 -24 l-110 -67 ZM292 20 q55 0 100.5 30 q45.5 30 72.5 85 q27 55 27 126 q0 70 -27 125.5 q-27 55.5 -72.5 86 q-45.5 30.5 -100.5 30.5 q-54 0 -99.5 -30.5 q-45.5 -30.5 -72.5 -85.5 q-27 -55 -27 -126 q0 -71 27 -126 q27 -55 72.5 -85 q45.5 -30 99.5 -30 Z" /><glyph glyph-name="dcaron" unicode="&#x10f;" d="M609 770 q12 0 20 -10 q8 -10 8 -33 q0 -33 -17.5 -58.5 q-17.5 -25.5 -55.5 -33.5 l0 17 q52 15 54 69 l-9 -2 q-11 0 -17.5 7.5 q-6.5 7.5 -6.5 18.5 q0 10 7 17.5 q7 7.5 17 7.5 ZM473 759 l29 0 l0 -759 l-25 0 q0 90 -3 142 q-20 -73 -73 -112 q-53 -39 -120 -39 q-60 0 -110 32 q-50 32 -79.5 93.5 q-29.5 61.5 -29.5 145.5 q0 83 29.5 144 q29.5 61 79.5 93 q50 32 110 32 q67 0 118.5 -37.5 q51.5 -37.5 73.5 -108.5 l0 374 ZM284 19 q48 0 90.5 24 q42.5 24 70.5 78.5 q28 54.5 28 140.5 q0 85 -28 139 q-28 54 -70.5 78 q-42.5 24 -90.5 24 q-53 0 -96.5 -28 q-43.5 -28 -69 -82.5 q-25.5 -54.5 -25.5 -130.5 q0 -76 25.5 -131 q25.5 -55 69 -83.5 q43.5 -28.5 96.5 -28.5 Z" /><glyph glyph-name="dcroat" unicode="&#x111;" d="M502 650 l82 0 l0 -25 l-82 0 l0 -625 l-25 0 q0 90 -3 142 q-20 -73 -73 -112 q-53 -39 -120 -39 q-60 0 -110 32 q-50 32 -79.5 93.5 q-29.5 61.5 -29.5 145.5 q0 83 29.5 144 q29.5 61 79.5 93 q50 32 110 32 q67 0 118.5 -37.5 q51.5 -37.5 73.5 -108.5 l0 240 l-145 0 l0 25 l145 0 l0 109 l29 0 l0 -109 ZM284 19 q48 0 90.5 24 q42.5 24 70.5 78.5 q28 54.5 28 140.5 q0 85 -28 139 q-28 54 -70.5 78 q-42.5 24 -90.5 24 q-53 0 -96.5 -28 q-43.5 -28 -69 -82.5 q-25.5 -54.5 -25.5 -130.5 q0 -76 25.5 -131 q25.5 -55 69 -83.5 q43.5 -28.5 96.5 -28.5 Z" /><glyph glyph-name="e" unicode="e" d="M286 531 q61 0 106 -30.5 q45 -30.5 68.5 -82 q23.5 -51.5 23.5 -113.5 q0 -13 -2 -37 l-389 0 q0 -77 26 -133 q26 -56 72 -85.5 q46 -29.5 105 -29.5 q48 0 87.5 20.5 q39.5 20.5 58.5 60.5 l23 -13 q-21 -47 -68 -72 q-47 -25 -102 -25 q-64 0 -117 33 q-53 33 -84.5 95.5 q-31.5 62.5 -31.5 146.5 q0 81 30 141 q30 60 81 92 q51 32 113 32 ZM284 503 q-78 0 -130.5 -55 q-52.5 -55 -59.5 -154 l359 0 q2 59 -17 106.5 q-19 47.5 -58 75 q-39 27.5 -94 27.5 Z" /><glyph glyph-name="eacute" unicode="é" d="M263 599 l80 141 l34 0 l-86 -141 l-28 0 ZM286 531 q61 0 106 -30.5 q45 -30.5 68.5 -82 q23.5 -51.5 23.5 -113.5 q0 -13 -2 -37 l-389 0 q0 -77 26 -133 q26 -56 72 -85.5 q46 -29.5 105 -29.5 q48 0 87.5 20.5 q39.5 20.5 58.5 60.5 l23 -13 q-21 -47 -68 -72 q-47 -25 -102 -25 q-64 0 -117 33 q-53 33 -84.5 95.5 q-31.5 62.5 -31.5 146.5 q0 81 30 141 q30 60 81 92 q51 32 113 32 ZM284 503 q-78 0 -130.5 -55 q-52.5 -55 -59.5 -154 l359 0 q2 59 -17 106.5 q-19 47.5 -58 75 q-39 27.5 -94 27.5 Z" /><glyph glyph-name="ebreve" unicode="&#x115;" d="M281 604 q-57 0 -93 36 q-36 36 -36 94 l27 0 q1 -49 29 -77 q28 -28 73 -28 q45 0 73 28 q28 28 29 77 l27 0 q0 -58 -35.5 -94 q-35.5 -36 -93.5 -36 ZM286 531 q61 0 106 -30.5 q45 -30.5 68.5 -82 q23.5 -51.5 23.5 -113.5 q0 -13 -2 -37 l-389 0 q0 -77 26 -133 q26 -56 72 -85.5 q46 -29.5 105 -29.5 q48 0 87.5 20.5 q39.5 20.5 58.5 60.5 l23 -13 q-21 -47 -68 -72 q-47 -25 -102 -25 q-64 0 -117 33 q-53 33 -84.5 95.5 q-31.5 62.5 -31.5 146.5 q0 81 30 141 q30 60 81 92 q51 32 113 32 ZM284 503 q-78 0 -130.5 -55 q-52.5 -55 -59.5 -154 l359 0 q2 59 -17 106.5 q-19 47.5 -58 75 q-39 27.5 -94 27.5 Z" /><glyph glyph-name="ecaron" unicode="&#x11b;" d="M193 740 l88 -117 l86 117 l31 0 l-106 -141 l-24 0 l-106 141 l31 0 ZM286 531 q61 0 106 -30.5 q45 -30.5 68.5 -82 q23.5 -51.5 23.5 -113.5 q0 -13 -2 -37 l-389 0 q0 -77 26 -133 q26 -56 72 -85.5 q46 -29.5 105 -29.5 q48 0 87.5 20.5 q39.5 20.5 58.5 60.5 l23 -13 q-21 -47 -68 -72 q-47 -25 -102 -25 q-64 0 -117 33 q-53 33 -84.5 95.5 q-31.5 62.5 -31.5 146.5 q0 81 30 141 q30 60 81 92 q51 32 113 32 ZM284 503 q-78 0 -130.5 -55 q-52.5 -55 -59.5 -154 l359 0 q2 59 -17 106.5 q-19 47.5 -58 75 q-39 27.5 -94 27.5 Z" /><glyph glyph-name="ecircumflex" unicode="ê" d="M268 740 l24 0 l106 -141 l-31 0 l-87 117 l-87 -117 l-31 0 l106 141 ZM286 531 q61 0 106 -30.5 q45 -30.5 68.5 -82 q23.5 -51.5 23.5 -113.5 q0 -13 -2 -37 l-389 0 q0 -77 26 -133 q26 -56 72 -85.5 q46 -29.5 105 -29.5 q48 0 87.5 20.5 q39.5 20.5 58.5 60.5 l23 -13 q-21 -47 -68 -72 q-47 -25 -102 -25 q-64 0 -117 33 q-53 33 -84.5 95.5 q-31.5 62.5 -31.5 146.5 q0 81 30 141 q30 60 81 92 q51 32 113 32 ZM284 503 q-78 0 -130.5 -55 q-52.5 -55 -59.5 -154 l359 0 q2 59 -17 106.5 q-19 47.5 -58 75 q-39 27.5 -94 27.5 Z" /><glyph glyph-name="uni1EBF" unicode="&#x1ebf;" d="M361 763 l79 142 l34 0 l-86 -142 l-27 0 ZM265 740 l24 0 l106 -141 l-31 0 l-86 117 l-88 -117 l-31 0 l106 141 ZM286 531 q61 0 106 -30.5 q45 -30.5 68.5 -82 q23.5 -51.5 23.5 -113.5 q0 -13 -2 -37 l-389 0 q0 -77 26 -133 q26 -56 72 -85.5 q46 -29.5 105 -29.5 q48 0 87.5 20.5 q39.5 20.5 58.5 60.5 l23 -13 q-21 -47 -68 -72 q-47 -25 -102 -25 q-64 0 -117 33 q-53 33 -84.5 95.5 q-31.5 62.5 -31.5 146.5 q0 81 30 141 q30 60 81 92 q51 32 113 32 ZM284 503 q-78 0 -130.5 -55 q-52.5 -55 -59.5 -154 l359 0 q2 59 -17 106.5 q-19 47.5 -58 75 q-39 27.5 -94 27.5 Z" /><glyph glyph-name="uni1EC7" unicode="&#x1ec7;" d="M268 740 l24 0 l106 -141 l-31 0 l-87 117 l-87 -117 l-31 0 l106 141 ZM286 531 q61 0 106 -30.5 q45 -30.5 68.5 -82 q23.5 -51.5 23.5 -113.5 q0 -13 -2 -37 l-389 0 q0 -77 26 -133 q26 -56 72 -85.5 q46 -29.5 105 -29.5 q48 0 87.5 20.5 q39.5 20.5 58.5 60.5 l23 -13 q-21 -47 -68 -72 q-47 -25 -102 -25 q-64 0 -117 33 q-53 33 -84.5 95.5 q-31.5 62.5 -31.5 146.5 q0 81 30 141 q30 60 81 92 q51 32 113 32 ZM284 503 q-78 0 -130.5 -55 q-52.5 -55 -59.5 -154 l359 0 q2 59 -17 106.5 q-19 47.5 -58 75 q-39 27.5 -94 27.5 ZM295 -155 q-11 0 -19.5 8.5 q-8.5 8.5 -8.5 19.5 q0 11 8.5 19 q8.5 8 19.5 8 q11 0 19 -8 q8 -8 8 -19 q0 -11 -8 -19.5 q-8 -8.5 -19 -8.5 Z" /><glyph glyph-name="uni1EC1" unicode="&#x1ec1;" d="M282 905 l34 0 l79 -142 l-27 0 l-86 142 ZM265 740 l24 0 l106 -141 l-31 0 l-86 117 l-88 -117 l-31 0 l106 141 ZM286 531 q61 0 106 -30.5 q45 -30.5 68.5 -82 q23.5 -51.5 23.5 -113.5 q0 -13 -2 -37 l-389 0 q0 -77 26 -133 q26 -56 72 -85.5 q46 -29.5 105 -29.5 q48 0 87.5 20.5 q39.5 20.5 58.5 60.5 l23 -13 q-21 -47 -68 -72 q-47 -25 -102 -25 q-64 0 -117 33 q-53 33 -84.5 95.5 q-31.5 62.5 -31.5 146.5 q0 81 30 141 q30 60 81 92 q51 32 113 32 ZM284 503 q-78 0 -130.5 -55 q-52.5 -55 -59.5 -154 l359 0 q2 59 -17 106.5 q-19 47.5 -58 75 q-39 27.5 -94 27.5 Z" /><glyph glyph-name="uni1EC3" unicode="&#x1ec3;" d="M298 883 q28 20 68 20 q38 0 64.5 -21 q26.5 -21 26.5 -58 q0 -65 -86 -94 l-12 20 q35 11 53.5 28.5 q18.5 17.5 18.5 43.5 q0 27 -18.5 42.5 q-18.5 15.5 -49.5 15.5 q-31 0 -60 -20 l-5 23 ZM265 740 l24 0 l106 -141 l-31 0 l-86 117 l-88 -117 l-31 0 l106 141 ZM286 531 q61 0 106 -30.5 q45 -30.5 68.5 -82 q23.5 -51.5 23.5 -113.5 q0 -13 -2 -37 l-389 0 q0 -77 26 -133 q26 -56 72 -85.5 q46 -29.5 105 -29.5 q48 0 87.5 20.5 q39.5 20.5 58.5 60.5 l23 -13 q-21 -47 -68 -72 q-47 -25 -102 -25 q-64 0 -117 33 q-53 33 -84.5 95.5 q-31.5 62.5 -31.5 146.5 q0 81 30 141 q30 60 81 92 q51 32 113 32 ZM284 503 q-78 0 -130.5 -55 q-52.5 -55 -59.5 -154 l359 0 q2 59 -17 106.5 q-19 47.5 -58 75 q-39 27.5 -94 27.5 Z" /><glyph glyph-name="uni1EC5" unicode="&#x1ec5;" d="M218 861 q-22 0 -34.5 -19.5 q-12.5 -19.5 -16.5 -54.5 l-26 0 q2 42 22 70.5 q20 28.5 55 28.5 q23 0 37.5 -11.5 q14.5 -11.5 32.5 -34.5 q15 -19 26.5 -28.5 q11.5 -9.5 27.5 -9.5 q44 0 52 74 l25 0 q-2 -42 -22 -71 q-20 -29 -55 -29 q-23 0 -37.5 11.5 q-14.5 11.5 -32.5 34.5 q-14 19 -26 29 q-12 10 -28 10 ZM268 740 l24 0 l105 -141 l-31 0 l-86 117 l-87 -117 l-31 0 l106 141 ZM286 531 q61 0 106 -30.5 q45 -30.5 68.5 -82 q23.5 -51.5 23.5 -113.5 q0 -13 -2 -37 l-389 0 q0 -77 26 -133 q26 -56 72 -85.5 q46 -29.5 105 -29.5 q48 0 87.5 20.5 q39.5 20.5 58.5 60.5 l23 -13 q-21 -47 -68 -72 q-47 -25 -102 -25 q-64 0 -117 33 q-53 33 -84.5 95.5 q-31.5 62.5 -31.5 146.5 q0 81 30 141 q30 60 81 92 q51 32 113 32 ZM284 503 q-78 0 -130.5 -55 q-52.5 -55 -59.5 -154 l359 0 q2 59 -17 106.5 q-19 47.5 -58 75 q-39 27.5 -94 27.5 Z" /><glyph glyph-name="edieresis" unicode="ë" d="M187 649 q-12 0 -20 8 q-8 8 -8 20 q0 11 8 19 q8 8 19 8 q11 0 19.5 -8 q8.5 -8 8.5 -19 q0 -12 -7.5 -20 q-7.5 -8 -19.5 -8 ZM375 649 q-11 0 -19.5 8 q-8.5 8 -8.5 20 q0 11 8 19 q8 8 19 8 q12 0 20 -8 q8 -8 8 -19 q0 -12 -7.5 -20 q-7.5 -8 -19.5 -8 ZM286 531 q61 0 106 -30.5 q45 -30.5 68.5 -82 q23.5 -51.5 23.5 -113.5 q0 -13 -2 -37 l-389 0 q0 -77 26 -133 q26 -56 72 -85.5 q46 -29.5 105 -29.5 q48 0 87.5 20.5 q39.5 20.5 58.5 60.5 l23 -13 q-21 -47 -68 -72 q-47 -25 -102 -25 q-64 0 -117 33 q-53 33 -84.5 95.5 q-31.5 62.5 -31.5 146.5 q0 81 30 141 q30 60 81 92 q51 32 113 32 ZM284 503 q-78 0 -130.5 -55 q-52.5 -55 -59.5 -154 l359 0 q2 59 -17 106.5 q-19 47.5 -58 75 q-39 27.5 -94 27.5 Z" /><glyph glyph-name="edotaccent" unicode="&#x117;" d="M281 656 q-12 0 -20 8.5 q-8 8.5 -8 19.5 q0 11 8 19 q8 8 20 8 q11 0 19 -8 q8 -8 8 -19 q0 -11 -8 -19.5 q-8 -8.5 -19 -8.5 ZM286 531 q61 0 106 -30.5 q45 -30.5 68.5 -82 q23.5 -51.5 23.5 -113.5 q0 -13 -2 -37 l-389 0 q0 -77 26 -133 q26 -56 72 -85.5 q46 -29.5 105 -29.5 q48 0 87.5 20.5 q39.5 20.5 58.5 60.5 l23 -13 q-21 -47 -68 -72 q-47 -25 -102 -25 q-64 0 -117 33 q-53 33 -84.5 95.5 q-31.5 62.5 -31.5 146.5 q0 81 30 141 q30 60 81 92 q51 32 113 32 ZM284 503 q-78 0 -130.5 -55 q-52.5 -55 -59.5 -154 l359 0 q2 59 -17 106.5 q-19 47.5 -58 75 q-39 27.5 -94 27.5 Z" /><glyph glyph-name="uni1EB9" unicode="&#x1eb9;" d="M286 531 q61 0 106 -30.5 q45 -30.5 68.5 -82 q23.5 -51.5 23.5 -113.5 q0 -13 -2 -37 l-389 0 q0 -77 26 -133 q26 -56 72 -85.5 q46 -29.5 105 -29.5 q48 0 87.5 20.5 q39.5 20.5 58.5 60.5 l23 -13 q-21 -47 -68 -72 q-47 -25 -102 -25 q-64 0 -117 33 q-53 33 -84.5 95.5 q-31.5 62.5 -31.5 146.5 q0 81 30 141 q30 60 81 92 q51 32 113 32 ZM284 503 q-78 0 -130.5 -55 q-52.5 -55 -59.5 -154 l359 0 q2 59 -17 106.5 q-19 47.5 -58 75 q-39 27.5 -94 27.5 ZM295 -155 q-11 0 -19.5 8.5 q-8.5 8.5 -8.5 19.5 q0 11 8.5 19 q8.5 8 19.5 8 q11 0 19 -8 q8 -8 8 -19 q0 -11 -8 -19.5 q-8 -8.5 -19 -8.5 Z" /><glyph glyph-name="egrave" unicode="è" d="M184 740 l34 0 l80 -141 l-28 0 l-86 141 ZM286 531 q61 0 106 -30.5 q45 -30.5 68.5 -82 q23.5 -51.5 23.5 -113.5 q0 -13 -2 -37 l-389 0 q0 -77 26 -133 q26 -56 72 -85.5 q46 -29.5 105 -29.5 q48 0 87.5 20.5 q39.5 20.5 58.5 60.5 l23 -13 q-21 -47 -68 -72 q-47 -25 -102 -25 q-64 0 -117 33 q-53 33 -84.5 95.5 q-31.5 62.5 -31.5 146.5 q0 81 30 141 q30 60 81 92 q51 32 113 32 ZM284 503 q-78 0 -130.5 -55 q-52.5 -55 -59.5 -154 l359 0 q2 59 -17 106.5 q-19 47.5 -58 75 q-39 27.5 -94 27.5 Z" /><glyph glyph-name="uni1EBB" unicode="&#x1ebb;" d="M199 740 q28 19 67 19 q39 0 65.5 -21.5 q26.5 -21.5 26.5 -58.5 q0 -65 -86 -94 l-12 20 q35 12 53.5 29 q18.5 17 18.5 43 q0 27 -18.5 42.5 q-18.5 15.5 -49.5 15.5 q-33 0 -60 -16 l-5 21 ZM286 531 q61 0 106 -30.5 q45 -30.5 68.5 -82 q23.5 -51.5 23.5 -113.5 q0 -13 -2 -37 l-389 0 q0 -77 26 -133 q26 -56 72 -85.5 q46 -29.5 105 -29.5 q48 0 87.5 20.5 q39.5 20.5 58.5 60.5 l23 -13 q-21 -47 -68 -72 q-47 -25 -102 -25 q-64 0 -117 33 q-53 33 -84.5 95.5 q-31.5 62.5 -31.5 146.5 q0 81 30 141 q30 60 81 92 q51 32 113 32 ZM284 503 q-78 0 -130.5 -55 q-52.5 -55 -59.5 -154 l359 0 q2 59 -17 106.5 q-19 47.5 -58 75 q-39 27.5 -94 27.5 Z" /><glyph glyph-name="emacron" unicode="&#x113;" d="M147 661 l0 28 l267 0 l0 -28 l-267 0 ZM286 531 q61 0 106 -30.5 q45 -30.5 68.5 -82 q23.5 -51.5 23.5 -113.5 q0 -13 -2 -37 l-389 0 q0 -77 26 -133 q26 -56 72 -85.5 q46 -29.5 105 -29.5 q48 0 87.5 20.5 q39.5 20.5 58.5 60.5 l23 -13 q-21 -47 -68 -72 q-47 -25 -102 -25 q-64 0 -117 33 q-53 33 -84.5 95.5 q-31.5 62.5 -31.5 146.5 q0 81 30 141 q30 60 81 92 q51 32 113 32 ZM284 503 q-78 0 -130.5 -55 q-52.5 -55 -59.5 -154 l359 0 q2 59 -17 106.5 q-19 47.5 -58 75 q-39 27.5 -94 27.5 Z" /><glyph glyph-name="eogonek" unicode="&#x119;" d="M286 531 q61 0 106 -30.5 q45 -30.5 68.5 -82 q23.5 -51.5 23.5 -113.5 q0 -13 -2 -37 l-389 0 q0 -77 26 -133 q26 -56 72 -85.5 q46 -29.5 105 -29.5 q48 0 87.5 20.5 q39.5 20.5 58.5 60.5 l23 -13 q-19 -42 -62 -69 q-72 -42 -103.5 -78 q-31.5 -36 -31.5 -83 q0 -40 21.5 -57.5 q21.5 -17.5 54.5 -17.5 q27 0 47.5 11 q20.5 11 39.5 33 l15 -19 q-41 -52 -103 -52 q-44 0 -73.5 24.5 q-29.5 24.5 -29.5 75.5 q0 41 21 74 q21 33 62 63 q-18 -2 -28 -2 q-64 0 -117 33 q-53 33 -84.5 95.5 q-31.5 62.5 -31.5 146.5 q0 81 30 141 q30 60 81 92 q51 32 113 32 ZM453 294 q2 59 -17 106.5 q-19 47.5 -58 75 q-39 27.5 -94 27.5 q-78 0 -130.5 -55 q-52.5 -55 -59.5 -154 l359 0 Z" /><glyph glyph-name="uni1EBD" unicode="&#x1ebd;" d="M141 622 q2 43 22 71.5 q20 28.5 56 28.5 q23 0 37.5 -11.5 q14.5 -11.5 32.5 -34.5 q14 -19 26 -29 q12 -10 28 -10 q43 0 51 74 l26 0 q-2 -42 -22 -70.5 q-20 -28.5 -55 -28.5 q-24 0 -38.5 11.5 q-14.5 11.5 -32.5 34.5 q-14 19 -26 28.5 q-12 9.5 -28 9.5 q-43 0 -51 -74 l-26 0 ZM286 531 q61 0 106 -30.5 q45 -30.5 68.5 -82 q23.5 -51.5 23.5 -113.5 q0 -13 -2 -37 l-389 0 q0 -77 26 -133 q26 -56 72 -85.5 q46 -29.5 105 -29.5 q48 0 87.5 20.5 q39.5 20.5 58.5 60.5 l23 -13 q-21 -47 -68 -72 q-47 -25 -102 -25 q-64 0 -117 33 q-53 33 -84.5 95.5 q-31.5 62.5 -31.5 146.5 q0 81 30 141 q30 60 81 92 q51 32 113 32 ZM284 503 q-78 0 -130.5 -55 q-52.5 -55 -59.5 -154 l359 0 q2 59 -17 106.5 q-19 47.5 -58 75 q-39 27.5 -94 27.5 Z" /><glyph glyph-name="uni0259" unicode="&#x259;" d="M229 531 q64 0 117 -33 q53 -33 84.5 -95.5 q31.5 -62.5 31.5 -146.5 q0 -81 -30 -141 q-30 -60 -81 -92 q-51 -32 -113 -32 q-61 0 -106 30.5 q-45 30.5 -68.5 82.5 q-23.5 52 -23.5 114 q0 11 2 37 l389 0 q0 77 -26 133 q-26 56 -72 85.5 q-46 29.5 -105 29.5 q-49 0 -87.5 -20.5 q-38.5 -20.5 -58.5 -61.5 l-23 14 q21 47 67.5 71.5 q46.5 24.5 102.5 24.5 ZM240 20 q78 0 130.5 55 q52.5 55 59.5 154 l-359 0 q-3 -59 16.5 -106.5 q19.5 -47.5 58.5 -75 q39 -27.5 94 -27.5 Z" /><glyph glyph-name="uni0292" unicode="&#x292;" d="M172 215 q28 2 39 2 q76 0 129 -30 q53 -30 79 -81 q26 -51 26 -115 q0 -68 -27.5 -121.5 q-27.5 -53.5 -78.5 -83.5 q-51 -30 -118 -30 q-76 0 -135 39.5 q-59 39.5 -79 112.5 l25 14 q20 -66 72 -102.5 q52 -36.5 116 -36.5 q56 0 100 27 q44 27 69 74.5 q25 47.5 25 106.5 q0 87 -53.5 144 q-53.5 57 -160.5 57 q-32 0 -68 -6 l0 23 l247 287 l-345 0 l0 26 l390 0 l0 -16 l-252 -291 Z" /><glyph glyph-name="uni01EF" unicode="&#x1ef;" d="M137 740 l88 -117 l86 117 l31 0 l-106 -141 l-24 0 l-106 141 l31 0 ZM172 215 q28 2 39 2 q76 0 129 -30 q53 -30 79 -81 q26 -51 26 -115 q0 -68 -27.5 -121.5 q-27.5 -53.5 -78.5 -83.5 q-51 -30 -118 -30 q-76 0 -135 39.5 q-59 39.5 -79 112.5 l25 14 q20 -66 72 -102.5 q52 -36.5 116 -36.5 q56 0 100 27 q44 27 69 74.5 q25 47.5 25 106.5 q0 87 -53.5 144 q-53.5 57 -160.5 57 q-32 0 -68 -6 l0 23 l247 287 l-345 0 l0 26 l390 0 l0 -16 l-252 -291 Z" /><glyph glyph-name="f" unicode="f" d="M257 743 q-104 0 -104 -155 l0 -66 l144 0 l0 -26 l-144 0 l0 -496 l-29 0 l0 496 l-89 0 l0 26 l89 0 l0 68 q0 93 36 136.5 q36 43.5 96 43.5 q47 0 76 -22 l-11 -25 q-28 20 -64 20 Z" /><glyph glyph-name="g" unicode="g" d="M501 522 l0 -512 q0 -131 -62 -192.5 q-62 -61.5 -158 -61.5 q-67 0 -120 28 q-53 28 -79 83 l24 14 q25 -49 70.5 -73.5 q45.5 -24.5 104.5 -24.5 q87 0 139.5 54 q52.5 54 52.5 174 l0 127 q-22 -71 -73 -109 q-51 -38 -116 -38 q-60 0 -111 32.5 q-51 32.5 -81 93.5 q-30 61 -30 145 q0 83 30 144 q30 61 81 93 q51 32 111 32 q67 0 118.5 -39 q51.5 -39 71.5 -112 q2 72 2 142 l25 0 ZM286 19 q48 0 90.5 24 q42.5 24 69.5 78.5 q27 54.5 27 140.5 q0 85 -27 139 q-27 54 -69.5 78 q-42.5 24 -90.5 24 q-53 0 -97 -28 q-44 -28 -70 -82.5 q-26 -54.5 -26 -130.5 q0 -76 26 -131 q26 -55 70 -83.5 q44 -28.5 97 -28.5 Z" /><glyph glyph-name="gbreve" unicode="&#x11f;" d="M285 605 q-57 0 -92.5 35.5 q-35.5 35.5 -35.5 93.5 l27 0 q1 -48 29 -76.5 q28 -28.5 72 -28.5 q46 0 73.5 28 q27.5 28 29.5 77 l27 0 q0 -58 -35.5 -93.5 q-35.5 -35.5 -94.5 -35.5 ZM501 522 l0 -512 q0 -131 -62 -192.5 q-62 -61.5 -158 -61.5 q-67 0 -120 28 q-53 28 -79 83 l24 14 q25 -49 70.5 -73.5 q45.5 -24.5 104.5 -24.5 q87 0 139.5 54 q52.5 54 52.5 174 l0 127 q-22 -71 -73 -109 q-51 -38 -116 -38 q-60 0 -111 32.5 q-51 32.5 -81 93.5 q-30 61 -30 145 q0 83 30 144 q30 61 81 93 q51 32 111 32 q67 0 118.5 -39 q51.5 -39 71.5 -112 q2 72 2 142 l25 0 ZM286 19 q48 0 90.5 24 q42.5 24 69.5 78.5 q27 54.5 27 140.5 q0 85 -27 139 q-27 54 -69.5 78 q-42.5 24 -90.5 24 q-53 0 -97 -28 q-44 -28 -70 -82.5 q-26 -54.5 -26 -130.5 q0 -76 26 -131 q26 -55 70 -83.5 q44 -28.5 97 -28.5 Z" /><glyph glyph-name="gcaron" unicode="&#x1e7;" d="M198 740 l87 -117 l87 117 l31 0 l-106 -141 l-24 0 l-106 141 l31 0 ZM501 522 l0 -512 q0 -131 -62 -192.5 q-62 -61.5 -158 -61.5 q-67 0 -120 28 q-53 28 -79 83 l24 14 q25 -49 70.5 -73.5 q45.5 -24.5 104.5 -24.5 q87 0 139.5 54 q52.5 54 52.5 174 l0 127 q-22 -71 -73 -109 q-51 -38 -116 -38 q-60 0 -111 32.5 q-51 32.5 -81 93.5 q-30 61 -30 145 q0 83 30 144 q30 61 81 93 q51 32 111 32 q67 0 118.5 -39 q51.5 -39 71.5 -112 q2 72 2 142 l25 0 ZM286 19 q48 0 90.5 24 q42.5 24 69.5 78.5 q27 54.5 27 140.5 q0 85 -27 139 q-27 54 -69.5 78 q-42.5 24 -90.5 24 q-53 0 -97 -28 q-44 -28 -70 -82.5 q-26 -54.5 -26 -130.5 q0 -76 26 -131 q26 -55 70 -83.5 q44 -28.5 97 -28.5 Z" /><glyph glyph-name="gcircumflex" unicode="&#x11d;" d="M273 740 l24 0 l106 -141 l-31 0 l-87 117 l-87 -117 l-31 0 l106 141 ZM501 522 l0 -512 q0 -131 -62 -192.5 q-62 -61.5 -158 -61.5 q-67 0 -120 28 q-53 28 -79 83 l24 14 q25 -49 70.5 -73.5 q45.5 -24.5 104.5 -24.5 q87 0 139.5 54 q52.5 54 52.5 174 l0 127 q-22 -71 -73 -109 q-51 -38 -116 -38 q-60 0 -111 32.5 q-51 32.5 -81 93.5 q-30 61 -30 145 q0 83 30 144 q30 61 81 93 q51 32 111 32 q67 0 118.5 -39 q51.5 -39 71.5 -112 q2 72 2 142 l25 0 ZM286 19 q48 0 90.5 24 q42.5 24 69.5 78.5 q27 54.5 27 140.5 q0 85 -27 139 q-27 54 -69.5 78 q-42.5 24 -90.5 24 q-53 0 -97 -28 q-44 -28 -70 -82.5 q-26 -54.5 -26 -130.5 q0 -76 26 -131 q26 -55 70 -83.5 q44 -28.5 97 -28.5 Z" /><glyph glyph-name="uni0123" unicode="&#x123;" d="M286 641 q-13 0 -21.5 10.5 q-8.5 10.5 -8.5 34.5 q0 33 18 59 q18 26 57 34 l0 -18 q-52 -15 -54 -68 q3 1 9 1 q10 0 17 -7.5 q7 -7.5 7 -18.5 q0 -11 -7 -19 q-7 -8 -17 -8 ZM501 522 l0 -512 q0 -131 -62 -192.5 q-62 -61.5 -158 -61.5 q-67 0 -120 28 q-53 28 -79 83 l24 14 q25 -49 70.5 -73.5 q45.5 -24.5 104.5 -24.5 q87 0 139.5 54 q52.5 54 52.5 174 l0 127 q-22 -71 -73 -109 q-51 -38 -116 -38 q-60 0 -111 32.5 q-51 32.5 -81 93.5 q-30 61 -30 145 q0 83 30 144 q30 61 81 93 q51 32 111 32 q67 0 118.5 -39 q51.5 -39 71.5 -112 q2 72 2 142 l25 0 ZM286 19 q48 0 90.5 24 q42.5 24 69.5 78.5 q27 54.5 27 140.5 q0 85 -27 139 q-27 54 -69.5 78 q-42.5 24 -90.5 24 q-53 0 -97 -28 q-44 -28 -70 -82.5 q-26 -54.5 -26 -130.5 q0 -76 26 -131 q26 -55 70 -83.5 q44 -28.5 97 -28.5 Z" /><glyph glyph-name="gdotaccent" unicode="&#x121;" d="M285 656 q-11 0 -19 8.5 q-8 8.5 -8 19.5 q0 11 8 19 q8 8 19 8 q11 0 19 -8 q8 -8 8 -19 q0 -11 -8 -19.5 q-8 -8.5 -19 -8.5 ZM501 522 l0 -512 q0 -131 -62 -192.5 q-62 -61.5 -158 -61.5 q-67 0 -120 28 q-53 28 -79 83 l24 14 q25 -49 70.5 -73.5 q45.5 -24.5 104.5 -24.5 q87 0 139.5 54 q52.5 54 52.5 174 l0 127 q-22 -71 -73 -109 q-51 -38 -116 -38 q-60 0 -111 32.5 q-51 32.5 -81 93.5 q-30 61 -30 145 q0 83 30 144 q30 61 81 93 q51 32 111 32 q67 0 118.5 -39 q51.5 -39 71.5 -112 q2 72 2 142 l25 0 ZM286 19 q48 0 90.5 24 q42.5 24 69.5 78.5 q27 54.5 27 140.5 q0 85 -27 139 q-27 54 -69.5 78 q-42.5 24 -90.5 24 q-53 0 -97 -28 q-44 -28 -70 -82.5 q-26 -54.5 -26 -130.5 q0 -76 26 -131 q26 -55 70 -83.5 q44 -28.5 97 -28.5 Z" /><glyph glyph-name="uni0261" unicode="&#x261;" d="M501 522 l0 -512 q0 -131 -62 -192.5 q-62 -61.5 -158 -61.5 q-67 0 -120 28 q-53 28 -79 83 l24 14 q25 -49 70.5 -73.5 q45.5 -24.5 104.5 -24.5 q87 0 139.5 54 q52.5 54 52.5 174 l0 127 q-22 -71 -73 -109 q-51 -38 -116 -38 q-60 0 -111 32.5 q-51 32.5 -81 93.5 q-30 61 -30 145 q0 83 30 144 q30 61 81 93 q51 32 111 32 q67 0 118.5 -39 q51.5 -39 71.5 -112 q2 72 2 142 l25 0 ZM286 19 q48 0 90.5 24 q42.5 24 69.5 78.5 q27 54.5 27 140.5 q0 85 -27 139 q-27 54 -69.5 78 q-42.5 24 -90.5 24 q-53 0 -97 -28 q-44 -28 -70 -82.5 q-26 -54.5 -26 -130.5 q0 -76 26 -131 q26 -55 70 -83.5 q44 -28.5 97 -28.5 Z" /><glyph glyph-name="uni01E5" unicode="&#x1e5;" d="M62 262 q0 83 30 144 q30 61 81 93 q51 32 111 32 q67 0 118.5 -39 q51.5 -39 71.5 -112 q2 72 2 142 l25 0 l0 -248 l82 0 l0 -26 l-82 0 l0 -238 q0 -131 -62 -192.5 q-62 -61.5 -158 -61.5 q-67 0 -120 28 q-53 28 -79 83 l24 14 q25 -49 70.5 -73.5 q45.5 -24.5 104.5 -24.5 q87 0 139.5 54 q52.5 54 52.5 174 l0 127 q-22 -71 -73 -109 q-51 -38 -116 -38 q-60 0 -111 32.5 q-51 32.5 -81 93.5 q-30 61 -30 145 ZM286 19 q47 0 88.5 23 q41.5 23 68.5 74 q27 51 29 132 l-150 0 l0 26 l150 0 q-2 81 -29 132 q-27 51 -68.5 74 q-41.5 23 -88.5 23 q-53 0 -97 -28 q-44 -28 -70 -82.5 q-26 -54.5 -26 -130.5 q0 -76 26 -131 q26 -55 70 -83.5 q44 -28.5 97 -28.5 Z" /><glyph glyph-name="h" unicode="h" d="M301 531 q77 0 125.5 -51.5 q48.5 -51.5 48.5 -146.5 l0 -333 l-29 0 l0 326 q0 87 -41.5 132 q-41.5 45 -108.5 45 q-47 0 -86.5 -21.5 q-39.5 -21.5 -63 -64.5 q-23.5 -43 -23.5 -103 l0 -314 l-29 0 l0 761 l29 0 l0 -349 q22 56 69.5 87.5 q47.5 31.5 108.5 31.5 Z" /><glyph glyph-name="hbar" unicode="&#x127;" d="M305 531 q77 0 126 -51.5 q49 -51.5 49 -146.5 l0 -333 l-30 0 l0 326 q0 87 -41.5 132 q-41.5 45 -108.5 45 q-46 0 -85.5 -21.5 q-39.5 -21.5 -63.5 -64.5 q-24 -43 -24 -103 l0 -314 l-29 0 l0 625 l-82 0 l0 25 l82 0 l0 111 l29 0 l0 -111 l161 0 l0 -25 l-161 0 l0 -213 q22 56 69.5 87.5 q47.5 31.5 108.5 31.5 Z" /><glyph glyph-name="uni021F" unicode="&#x21f;" d="M21 928 l87 -83 l86 83 l32 0 l-106 -100 l-24 0 l-106 100 l31 0 ZM301 531 q77 0 125.5 -51.5 q48.5 -51.5 48.5 -146.5 l0 -333 l-29 0 l0 326 q0 87 -41.5 132 q-41.5 45 -108.5 45 q-47 0 -86.5 -21.5 q-39.5 -21.5 -63 -64.5 q-23.5 -43 -23.5 -103 l0 -314 l-29 0 l0 761 l29 0 l0 -349 q22 56 69.5 87.5 q47.5 31.5 108.5 31.5 Z" /><glyph glyph-name="hcircumflex" unicode="&#x125;" d="M96 928 l24 0 l106 -100 l-32 0 l-86 83 l-87 -83 l-31 0 l106 100 ZM301 531 q77 0 125.5 -51.5 q48.5 -51.5 48.5 -146.5 l0 -333 l-29 0 l0 326 q0 87 -41.5 132 q-41.5 45 -108.5 45 q-47 0 -86.5 -21.5 q-39.5 -21.5 -63 -64.5 q-23.5 -43 -23.5 -103 l0 -314 l-29 0 l0 761 l29 0 l0 -349 q22 56 69.5 87.5 q47.5 31.5 108.5 31.5 Z" /><glyph glyph-name="i" unicode="i" d="M109 656 q-11 0 -19 8 q-8 8 -8 20 q0 11 7.5 19 q7.5 8 18.5 8 q12 0 20 -8 q8 -8 8 -19 q0 -12 -8 -20 q-8 -8 -19 -8 ZM124 0 l-29 0 l0 522 l29 0 l0 -522 Z" /><glyph glyph-name="dotlessi" unicode="&#x131;" d="M94 0 l0 522 l28 0 l0 -522 l-28 0 Z" /><glyph glyph-name="iacute" unicode="í" d="M91 599 l80 141 l34 0 l-86 -141 l-28 0 ZM94 0 l0 522 l28 0 l0 -522 l-28 0 Z" /><glyph glyph-name="ibreve" unicode="&#x12d;" d="M108 605 q-57 0 -92.5 35.5 q-35.5 35.5 -35.5 93.5 l27 0 q1 -48 29 -76.5 q28 -28.5 72 -28.5 q46 0 74 28 q28 28 29 77 l27 0 q0 -58 -35.5 -93.5 q-35.5 -35.5 -94.5 -35.5 ZM94 0 l0 522 l28 0 l0 -522 l-28 0 Z" /><glyph glyph-name="uni01D0" unicode="&#x1d0;" d="M21 740 l87 -117 l87 117 l31 0 l-106 -141 l-24 0 l-106 141 l31 0 ZM94 0 l0 522 l28 0 l0 -522 l-28 0 Z" /><glyph glyph-name="icircumflex" unicode="î" d="M96 740 l24 0 l106 -141 l-31 0 l-87 117 l-87 -117 l-31 0 l106 141 ZM94 0 l0 522 l28 0 l0 -522 l-28 0 Z" /><glyph glyph-name="idieresis" unicode="ï" d="M15 649 q-11 0 -19.5 8 q-8.5 8 -8.5 20 q0 11 8 19 q8 8 19 8 q11 0 19.5 -8 q8.5 -8 8.5 -19 q0 -12 -8 -20 q-8 -8 -19 -8 ZM203 649 q-11 0 -19.5 8 q-8.5 8 -8.5 20 q0 11 8 19 q8 8 19 8 q11 0 19.5 -8 q8.5 -8 8.5 -19 q0 -12 -8 -20 q-8 -8 -19 -8 ZM94 0 l0 522 l28 0 l0 -522 l-28 0 Z" /><glyph glyph-name="uni1ECB" unicode="&#x1ecb;" d="M109 656 q-11 0 -19 8 q-8 8 -8 20 q0 11 7.5 19 q7.5 8 18.5 8 q12 0 20 -8 q8 -8 8 -19 q0 -12 -8 -20 q-8 -8 -19 -8 ZM124 0 l-29 0 l0 522 l29 0 l0 -522 ZM108 -155 q-11 0 -19 8.5 q-8 8.5 -8 19.5 q0 11 8 19 q8 8 19 8 q11 0 19 -8 q8 -8 8 -19 q0 -11 -8 -19.5 q-8 -8.5 -19 -8.5 Z" /><glyph glyph-name="igrave" unicode="ì" d="M12 740 l34 0 l80 -141 l-28 0 l-86 141 ZM94 0 l0 522 l28 0 l0 -522 l-28 0 Z" /><glyph glyph-name="uni1EC9" unicode="&#x1ec9;" d="M27 741 q29 18 67 18 q39 0 65.5 -21.5 q26.5 -21.5 26.5 -58.5 q0 -34 -23.5 -57.5 q-23.5 -23.5 -62.5 -35.5 l-12 19 q35 12 53.5 29 q18.5 17 18.5 43 q0 27 -19 43 q-19 16 -50 16 q-31 0 -59 -17 l-5 22 ZM94 0 l0 522 l28 0 l0 -522 l-28 0 Z" /><glyph glyph-name="ij" unicode="&#x133;" d="M109 656 q-11 0 -19 8 q-8 8 -8 20 q0 11 7.5 19 q7.5 8 18.5 8 q12 0 20 -8 q8 -8 8 -19 q0 -12 -8 -20 q-8 -8 -19 -8 ZM328 656 q-11 0 -19.5 8 q-8.5 8 -8.5 20 q0 11 8 19 q8 8 19 8 q11 0 19.5 -8 q8.5 -8 8.5 -19 q0 -12 -8 -20 q-8 -8 -19 -8 ZM124 0 l-29 0 l0 522 l29 0 l0 -522 ZM211 -244 q-27 0 -48.5 9 q-21.5 9 -33.5 25 l17 22 q24 -29 66 -29 q46 0 73.5 37 q27.5 37 27.5 119 l0 583 l29 0 l0 -585 q0 -93 -35.5 -137 q-35.5 -44 -95.5 -44 Z" /><glyph glyph-name="imacron" unicode="&#x12b;" d="M-25 661 l0 29 l267 0 l0 -29 l-267 0 ZM94 0 l0 522 l28 0 l0 -522 l-28 0 Z" /><glyph glyph-name="iogonek" unicode="&#x12f;" d="M108 656 q-11 0 -19 8.5 q-8 8.5 -8 19.5 q0 11 8 19 q8 8 19 8 q11 0 19 -8 q8 -8 8 -19 q0 -11 -8 -19.5 q-8 -8.5 -19 -8.5 ZM190 -193 q-40 -51 -105 -51 q-43 0 -72.5 23 q-29.5 23 -29.5 74 q0 89 111 155 l0 514 l28 0 l0 -522 q-56 -35 -83.5 -67.5 q-27.5 -32.5 -27.5 -77.5 q0 -39 21 -55.5 q21 -16.5 54 -16.5 q28 0 49 11 q21 11 39 32 l16 -19 Z" /><glyph glyph-name="itilde" unicode="&#x129;" d="M-31 622 q2 43 22 71.5 q20 28.5 55 28.5 q24 0 39 -12 q15 -12 32 -35 q15 -19 26.5 -28.5 q11.5 -9.5 27.5 -9.5 q22 0 34.5 19.5 q12.5 19.5 16.5 54.5 l26 0 q-2 -42 -22.5 -70.5 q-20.5 -28.5 -55.5 -28.5 q-23 0 -37.5 11.5 q-14.5 11.5 -32.5 34.5 q-15 19 -26.5 28.5 q-11.5 9.5 -27.5 9.5 q-43 0 -51 -74 l-26 0 ZM94 0 l0 522 l28 0 l0 -522 l-28 0 Z" /><glyph glyph-name="j" unicode="j" d="M110 656 q-11 0 -19.5 8 q-8.5 8 -8.5 20 q0 11 8 19 q8 8 19 8 q11 0 19.5 -8 q8.5 -8 8.5 -19 q0 -12 -8 -20 q-8 -8 -19 -8 ZM-6 -244 q-28 0 -49.5 9 q-21.5 9 -33.5 25 l18 22 q24 -29 65 -29 q46 0 73.5 37 q27.5 37 27.5 119 l0 583 l30 0 l0 -585 q0 -93 -36 -137 q-36 -44 -95 -44 Z" /><glyph glyph-name="uni0237" unicode="&#x237;" d="M-6 -244 q-28 0 -49.5 9 q-21.5 9 -33.5 25 l18 22 q24 -29 65 -29 q46 0 73.5 37 q27.5 37 27.5 119 l0 583 l30 0 l0 -585 q0 -93 -36 -137 q-36 -44 -95 -44 Z" /><glyph glyph-name="uni01F0" unicode="&#x1f0;" d="M23 740 l87 -117 l86 117 l31 0 l-105 -141 l-24 0 l-106 141 l31 0 ZM-6 -244 q-28 0 -49.5 9 q-21.5 9 -33.5 25 l18 22 q24 -29 65 -29 q46 0 73.5 37 q27.5 37 27.5 119 l0 583 l30 0 l0 -585 q0 -93 -36 -137 q-36 -44 -95 -44 Z" /><glyph glyph-name="jcircumflex" unicode="&#x135;" d="M97 740 l25 0 l105 -141 l-31 0 l-86 117 l-87 -117 l-32 0 l106 141 ZM-6 -244 q-28 0 -49.5 9 q-21.5 9 -33.5 25 l18 22 q24 -29 65 -29 q46 0 73.5 37 q27.5 37 27.5 119 l0 583 l30 0 l0 -585 q0 -93 -36 -137 q-36 -44 -95 -44 Z" /><glyph glyph-name="k" unicode="k" d="M240 298 l231 -298 l-39 0 l-212 276 l-97 -103 l0 -173 l-29 0 l0 761 l29 0 l0 -548 l289 309 l38 0 l-210 -224 Z" /><glyph glyph-name="uni01E9" unicode="&#x1e9;" d="M21 928 l87 -83 l86 83 l32 0 l-106 -100 l-24 0 l-106 100 l31 0 ZM240 298 l231 -298 l-39 0 l-212 276 l-97 -103 l0 -173 l-29 0 l0 761 l29 0 l0 -548 l289 309 l38 0 l-210 -224 Z" /><glyph glyph-name="uni0137" unicode="&#x137;" d="M412 522 l38 0 l-210 -224 l231 -298 l-39 0 l-212 276 l-97 -103 l0 -173 l-29 0 l0 761 l29 0 l0 -548 l289 309 ZM276 -78 q13 0 21 -10.5 q8 -10.5 8 -33.5 q0 -33 -18 -59 q-18 -26 -57 -34 l0 18 q29 8 42 26.5 q13 18.5 13 42.5 q-2 -2 -9 -2 q-11 0 -17.5 7.5 q-6.5 7.5 -6.5 18.5 q0 11 7 18.5 q7 7.5 17 7.5 Z" /><glyph glyph-name="kgreenlandic" unicode="&#x138;" d="M240 298 l231 -298 l-39 0 l-212 276 l-97 -103 l0 -173 l-29 0 l0 522 l29 0 l0 -309 l289 309 l38 0 l-210 -224 Z" /><glyph glyph-name="l" unicode="l" d="M123 0 l-29 0 l0 761 l29 0 l0 -761 Z" /><glyph glyph-name="lacute" unicode="&#x13a;" d="M100 825 l84 103 l33 0 l-90 -103 l-27 0 ZM123 0 l-29 0 l0 761 l29 0 l0 -761 Z" /><glyph glyph-name="lcaron" unicode="&#x13e;" d="M230 770 q12 0 20.5 -10 q8.5 -10 8.5 -33 q0 -32 -18 -58 q-18 -26 -56 -34 l0 17 q29 8 41.5 27 q12.5 19 12.5 42 q-6 -2 -9 -2 q-10 0 -17 7.5 q-7 7.5 -7 18.5 q0 10 7 17.5 q7 7.5 17 7.5 ZM123 0 l-29 0 l0 761 l29 0 l0 -761 Z" /><glyph glyph-name="uni013C" unicode="&#x13c;" d="M94 0 l0 761 l29 0 l0 -761 l-29 0 ZM107 -78 q12 0 20.5 -10.5 q8.5 -10.5 8.5 -33.5 q0 -33 -18 -59 q-18 -26 -57 -34 l0 18 q53 15 55 69 q-3 -2 -9 -2 q-11 0 -17.5 7.5 q-6.5 7.5 -6.5 18.5 q0 11 7 18.5 q7 7.5 17 7.5 Z" /><glyph glyph-name="ldot" unicode="&#x140;" d="M123 0 l-29 0 l0 761 l29 0 l0 -761 ZM215 360 q-10 0 -18 7.5 q-8 7.5 -8 19.5 q0 10 7.5 17.5 q7.5 7.5 18.5 7.5 q11 0 18.5 -7.5 q7.5 -7.5 7.5 -17.5 q0 -12 -7.5 -19.5 q-7.5 -7.5 -18.5 -7.5 Z" /><glyph glyph-name="lslash" unicode="&#x142;" d="M129 761 l0 -350 l78 51 l0 -31 l-78 -52 l0 -379 l-29 0 l0 362 l-78 -51 l0 31 l78 51 l0 368 l29 0 Z" /><glyph glyph-name="m" unicode="m" d="M592 531 q68 0 111.5 -51 q43.5 -51 43.5 -147 l0 -333 l-29 0 l0 326 q0 87 -36.5 132 q-36.5 45 -95.5 45 q-41 0 -75 -21.5 q-34 -21.5 -54.5 -64.5 q-20.5 -43 -20.5 -103 l0 -314 l-29 0 l0 326 q0 87 -37 132 q-37 45 -95 45 q-41 0 -75.5 -21.5 q-34.5 -21.5 -55.5 -64.5 q-21 -43 -21 -103 l0 -314 l-29 0 l0 522 l25 0 q0 -83 2 -113 q19 57 61.5 89.5 q42.5 32.5 97.5 32.5 q55 0 95.5 -34.5 q40.5 -34.5 53.5 -100.5 q17 63 61 99 q44 36 102 36 Z" /><glyph glyph-name="uni1E3F" unicode="&#x1e3f;" d="M403 599 l80 141 l34 0 l-86 -141 l-28 0 ZM592 531 q68 0 111.5 -51 q43.5 -51 43.5 -147 l0 -333 l-29 0 l0 326 q0 87 -36.5 132 q-36.5 45 -95.5 45 q-41 0 -75 -21.5 q-34 -21.5 -54.5 -64.5 q-20.5 -43 -20.5 -103 l0 -314 l-29 0 l0 326 q0 87 -37 132 q-37 45 -95 45 q-41 0 -75.5 -21.5 q-34.5 -21.5 -55.5 -64.5 q-21 -43 -21 -103 l0 -314 l-29 0 l0 522 l25 0 q0 -83 2 -113 q19 57 61.5 89.5 q42.5 32.5 97.5 32.5 q55 0 95.5 -34.5 q40.5 -34.5 53.5 -100.5 q17 63 61 99 q44 36 102 36 Z" /><glyph glyph-name="n" unicode="n" d="M301 531 q77 0 125.5 -51.5 q48.5 -51.5 48.5 -146.5 l0 -333 l-29 0 l0 326 q0 87 -41.5 132 q-41.5 45 -108.5 45 q-47 0 -86.5 -21.5 q-39.5 -21.5 -63 -64.5 q-23.5 -43 -23.5 -103 l0 -314 l-29 0 l0 522 l25 0 q0 -85 2 -115 q21 58 69.5 91 q48.5 33 110.5 33 Z" /><glyph glyph-name="nacute" unicode="&#x144;" d="M260 599 l80 141 l34 0 l-86 -141 l-28 0 ZM301 531 q77 0 125.5 -51.5 q48.5 -51.5 48.5 -146.5 l0 -333 l-29 0 l0 326 q0 87 -41.5 132 q-41.5 45 -108.5 45 q-47 0 -86.5 -21.5 q-39.5 -21.5 -63 -64.5 q-23.5 -43 -23.5 -103 l0 -314 l-29 0 l0 522 l25 0 q0 -85 2 -115 q21 58 69.5 91 q48.5 33 110.5 33 Z" /><glyph glyph-name="napostrophe" unicode="&#x149;" d="M49 770 q12 0 20.5 -10.5 q8.5 -10.5 8.5 -33.5 q0 -33 -18 -59 q-18 -26 -57 -34 l0 18 q53 16 55 69 q-6 -2 -9 -2 q-11 0 -17.5 7.5 q-6.5 7.5 -6.5 18.5 q0 11 7 18.5 q7 7.5 17 7.5 ZM301 531 q77 0 125.5 -51.5 q48.5 -51.5 48.5 -146.5 l0 -333 l-29 0 l0 326 q0 87 -41.5 132 q-41.5 45 -108.5 45 q-47 0 -86.5 -21.5 q-39.5 -21.5 -63 -64.5 q-23.5 -43 -23.5 -103 l0 -314 l-29 0 l0 522 l25 0 q0 -85 2 -115 q21 58 69.5 91 q48.5 33 110.5 33 Z" /><glyph glyph-name="ncaron" unicode="&#x148;" d="M190 740 l87 -117 l87 117 l31 0 l-106 -141 l-24 0 l-106 141 l31 0 ZM301 531 q77 0 125.5 -51.5 q48.5 -51.5 48.5 -146.5 l0 -333 l-29 0 l0 326 q0 87 -41.5 132 q-41.5 45 -108.5 45 q-47 0 -86.5 -21.5 q-39.5 -21.5 -63 -64.5 q-23.5 -43 -23.5 -103 l0 -314 l-29 0 l0 522 l25 0 q0 -85 2 -115 q21 58 69.5 91 q48.5 33 110.5 33 Z" /><glyph glyph-name="uni0146" unicode="&#x146;" d="M301 531 q77 0 125.5 -51.5 q48.5 -51.5 48.5 -146.5 l0 -333 l-29 0 l0 326 q0 87 -41.5 132 q-41.5 45 -108.5 45 q-47 0 -86.5 -21.5 q-39.5 -21.5 -63 -64.5 q-23.5 -43 -23.5 -103 l0 -314 l-29 0 l0 522 l25 0 q0 -85 2 -115 q21 58 69.5 91 q48.5 33 110.5 33 ZM294 -78 q12 0 20.5 -10.5 q8.5 -10.5 8.5 -33.5 q0 -33 -18 -59 q-18 -26 -57 -34 l0 18 q53 16 55 69 q-3 -2 -10 -2 q-10 0 -17 7.5 q-7 7.5 -7 18.5 q0 11 7 18.5 q7 7.5 18 7.5 Z" /><glyph glyph-name="uni01F9" unicode="&#x1f9;" d="M181 740 l34 0 l80 -141 l-28 0 l-86 141 ZM301 531 q77 0 125.5 -51.5 q48.5 -51.5 48.5 -146.5 l0 -333 l-29 0 l0 326 q0 87 -41.5 132 q-41.5 45 -108.5 45 q-47 0 -86.5 -21.5 q-39.5 -21.5 -63 -64.5 q-23.5 -43 -23.5 -103 l0 -314 l-29 0 l0 522 l25 0 q0 -85 2 -115 q21 58 69.5 91 q48.5 33 110.5 33 Z" /><glyph glyph-name="eng" unicode="&#x14b;" d="M301 531 q77 0 125.5 -51.5 q48.5 -51.5 48.5 -146.5 l1 -411 q0 -88 -29 -127 q-29 -39 -83 -39 q-41 0 -64 19 l12 25 q20 -17 52 -17 q40 0 61.5 32 q21.5 32 21.5 109 l-1 402 q0 87 -41.5 132 q-41.5 45 -108.5 45 q-47 0 -86.5 -21.5 q-39.5 -21.5 -63 -64.5 q-23.5 -43 -23.5 -103 l0 -314 l-29 0 l0 522 l25 0 q0 -85 2 -115 q21 58 69.5 91 q48.5 33 110.5 33 Z" /><glyph glyph-name="ntilde" unicode="ñ" d="M138 622 q2 43 22 71.5 q20 28.5 55 28.5 q24 0 39 -12 q15 -12 32 -35 q15 -19 26.5 -28.5 q11.5 -9.5 27.5 -9.5 q22 0 34.5 19.5 q12.5 19.5 16.5 54.5 l26 0 q-2 -42 -22.5 -70.5 q-20.5 -28.5 -55.5 -28.5 q-23 0 -37.5 11.5 q-14.5 11.5 -32.5 34.5 q-15 19 -26.5 28.5 q-11.5 9.5 -27.5 9.5 q-43 0 -51 -74 l-26 0 ZM301 531 q77 0 125.5 -51.5 q48.5 -51.5 48.5 -146.5 l0 -333 l-29 0 l0 326 q0 87 -41.5 132 q-41.5 45 -108.5 45 q-47 0 -86.5 -21.5 q-39.5 -21.5 -63 -64.5 q-23.5 -43 -23.5 -103 l0 -314 l-29 0 l0 522 l25 0 q0 -85 2 -115 q21 58 69.5 91 q48.5 33 110.5 33 Z" /><glyph glyph-name="o" unicode="o" d="M62 261 q0 78 31.5 140 q31.5 62 84 96 q52.5 34 114.5 34 q62 0 114.5 -34 q52.5 -34 84 -96 q31.5 -62 31.5 -140 q0 -78 -31.5 -140 q-31.5 -62 -84 -96 q-52.5 -34 -114.5 -34 q-62 0 -114.5 34 q-52.5 34 -84 96 q-31.5 62 -31.5 140 ZM93 261 q0 -71 27 -126 q27 -55 72.5 -85 q45.5 -30 99.5 -30 q54 0 100 30 q46 30 73 85 q27 55 27 126 q0 71 -27 126 q-27 55 -73 85.5 q-46 30.5 -100 30.5 q-54 0 -99.5 -30.5 q-45.5 -30.5 -72.5 -85.5 q-27 -55 -27 -126 Z" /><glyph glyph-name="oacute" unicode="ó" d="M275 599 l79 141 l34 0 l-86 -141 l-27 0 ZM62 261 q0 78 31.5 140 q31.5 62 84 96 q52.5 34 114.5 34 q62 0 114.5 -34 q52.5 -34 84 -96 q31.5 -62 31.5 -140 q0 -78 -31.5 -140 q-31.5 -62 -84 -96 q-52.5 -34 -114.5 -34 q-62 0 -114.5 34 q-52.5 34 -84 96 q-31.5 62 -31.5 140 ZM93 261 q0 -71 27 -126 q27 -55 72.5 -85 q45.5 -30 99.5 -30 q54 0 100 30 q46 30 73 85 q27 55 27 126 q0 71 -27 126 q-27 55 -73 85.5 q-46 30.5 -100 30.5 q-54 0 -99.5 -30.5 q-45.5 -30.5 -72.5 -85.5 q-27 -55 -27 -126 Z" /><glyph glyph-name="obreve" unicode="&#x14f;" d="M292 604 q-57 0 -93 36 q-36 36 -36 94 l28 0 q1 -49 29 -77 q28 -28 72 -28 q45 0 73 28 q28 28 29 77 l27 0 q0 -58 -35.5 -94 q-35.5 -36 -93.5 -36 ZM62 261 q0 78 31.5 140 q31.5 62 84 96 q52.5 34 114.5 34 q62 0 114.5 -34 q52.5 -34 84 -96 q31.5 -62 31.5 -140 q0 -78 -31.5 -140 q-31.5 -62 -84 -96 q-52.5 -34 -114.5 -34 q-62 0 -114.5 34 q-52.5 34 -84 96 q-31.5 62 -31.5 140 ZM93 261 q0 -71 27 -126 q27 -55 72.5 -85 q45.5 -30 99.5 -30 q54 0 100 30 q46 30 73 85 q27 55 27 126 q0 71 -27 126 q-27 55 -73 85.5 q-46 30.5 -100 30.5 q-54 0 -99.5 -30.5 q-45.5 -30.5 -72.5 -85.5 q-27 -55 -27 -126 Z" /><glyph glyph-name="uni01D2" unicode="&#x1d2;" d="M205 740 l87 -117 l86 117 l31 0 l-106 -141 l-24 0 l-105 141 l31 0 ZM62 261 q0 78 31.5 140 q31.5 62 84 96 q52.5 34 114.5 34 q62 0 114.5 -34 q52.5 -34 84 -96 q31.5 -62 31.5 -140 q0 -78 -31.5 -140 q-31.5 -62 -84 -96 q-52.5 -34 -114.5 -34 q-62 0 -114.5 34 q-52.5 34 -84 96 q-31.5 62 -31.5 140 ZM93 261 q0 -71 27 -126 q27 -55 72.5 -85 q45.5 -30 99.5 -30 q54 0 100 30 q46 30 73 85 q27 55 27 126 q0 71 -27 126 q-27 55 -73 85.5 q-46 30.5 -100 30.5 q-54 0 -99.5 -30.5 q-45.5 -30.5 -72.5 -85.5 q-27 -55 -27 -126 Z" /><glyph glyph-name="ocircumflex" unicode="ô" d="M279 740 l24 0 l106 -141 l-31 0 l-86 117 l-88 -117 l-31 0 l106 141 ZM62 261 q0 78 31.5 140 q31.5 62 84 96 q52.5 34 114.5 34 q62 0 114.5 -34 q52.5 -34 84 -96 q31.5 -62 31.5 -140 q0 -78 -31.5 -140 q-31.5 -62 -84 -96 q-52.5 -34 -114.5 -34 q-62 0 -114.5 34 q-52.5 34 -84 96 q-31.5 62 -31.5 140 ZM93 261 q0 -71 27 -126 q27 -55 72.5 -85 q45.5 -30 99.5 -30 q54 0 100 30 q46 30 73 85 q27 55 27 126 q0 71 -27 126 q-27 55 -73 85.5 q-46 30.5 -100 30.5 q-54 0 -99.5 -30.5 q-45.5 -30.5 -72.5 -85.5 q-27 -55 -27 -126 Z" /><glyph glyph-name="uni1ED1" unicode="&#x1ed1;" d="M372 763 l78 128 l34 0 l-85 -128 l-27 0 ZM277 740 l24 0 l105 -141 l-31 0 l-86 117 l-87 -117 l-31 0 l106 141 ZM62 261 q0 78 31.5 140 q31.5 62 84 96 q52.5 34 114.5 34 q62 0 114.5 -34 q52.5 -34 84 -96 q31.5 -62 31.5 -140 q0 -78 -31.5 -140 q-31.5 -62 -84 -96 q-52.5 -34 -114.5 -34 q-62 0 -114.5 34 q-52.5 34 -84 96 q-31.5 62 -31.5 140 ZM93 261 q0 -71 27 -126 q27 -55 72.5 -85 q45.5 -30 99.5 -30 q54 0 100 30 q46 30 73 85 q27 55 27 126 q0 71 -27 126 q-27 55 -73 85.5 q-46 30.5 -100 30.5 q-54 0 -99.5 -30.5 q-45.5 -30.5 -72.5 -85.5 q-27 -55 -27 -126 Z" /><glyph glyph-name="uni1ED9" unicode="&#x1ed9;" d="M279 740 l24 0 l106 -141 l-31 0 l-86 117 l-88 -117 l-31 0 l106 141 ZM62 261 q0 78 31.5 140 q31.5 62 84 96 q52.5 34 114.5 34 q62 0 114.5 -34 q52.5 -34 84 -96 q31.5 -62 31.5 -140 q0 -78 -31.5 -140 q-31.5 -62 -84 -96 q-52.5 -34 -114.5 -34 q-62 0 -114.5 34 q-52.5 34 -84 96 q-31.5 62 -31.5 140 ZM93 261 q0 -71 27 -126 q27 -55 72.5 -85 q45.5 -30 99.5 -30 q54 0 100 30 q46 30 73 85 q27 55 27 126 q0 71 -27 126 q-27 55 -73 85.5 q-46 30.5 -100 30.5 q-54 0 -99.5 -30.5 q-45.5 -30.5 -72.5 -85.5 q-27 -55 -27 -126 ZM292 -155 q-11 0 -19.5 8.5 q-8.5 8.5 -8.5 19.5 q0 11 8.5 19 q8.5 8 19.5 8 q11 0 19 -8 q8 -8 8 -19 q0 -11 -8 -19.5 q-8 -8.5 -19 -8.5 Z" /><glyph glyph-name="uni1ED3" unicode="&#x1ed3;" d="M295 891 l34 0 l78 -128 l-28 0 l-84 128 ZM277 740 l24 0 l105 -141 l-31 0 l-86 117 l-87 -117 l-31 0 l106 141 ZM62 261 q0 78 31.5 140 q31.5 62 84 96 q52.5 34 114.5 34 q62 0 114.5 -34 q52.5 -34 84 -96 q31.5 -62 31.5 -140 q0 -78 -31.5 -140 q-31.5 -62 -84 -96 q-52.5 -34 -114.5 -34 q-62 0 -114.5 34 q-52.5 34 -84 96 q-31.5 62 -31.5 140 ZM93 261 q0 -71 27 -126 q27 -55 72.5 -85 q45.5 -30 99.5 -30 q54 0 100 30 q46 30 73 85 q27 55 27 126 q0 71 -27 126 q-27 55 -73 85.5 q-46 30.5 -100 30.5 q-54 0 -99.5 -30.5 q-45.5 -30.5 -72.5 -85.5 q-27 -55 -27 -126 Z" /><glyph glyph-name="uni1ED5" unicode="&#x1ed5;" d="M309 883 q29 20 68 20 q38 0 64.5 -21 q26.5 -21 26.5 -58 q0 -65 -86 -94 l-11 20 q35 11 53 28 q18 17 18 44 q0 27 -18.5 42.5 q-18.5 15.5 -48.5 15.5 q-32 0 -61 -20 l-5 23 ZM277 740 l24 0 l105 -141 l-31 0 l-86 117 l-87 -117 l-31 0 l106 141 ZM62 261 q0 78 31.5 140 q31.5 62 84 96 q52.5 34 114.5 34 q62 0 114.5 -34 q52.5 -34 84 -96 q31.5 -62 31.5 -140 q0 -78 -31.5 -140 q-31.5 -62 -84 -96 q-52.5 -34 -114.5 -34 q-62 0 -114.5 34 q-52.5 34 -84 96 q-31.5 62 -31.5 140 ZM93 261 q0 -71 27 -126 q27 -55 72.5 -85 q45.5 -30 99.5 -30 q54 0 100 30 q46 30 73 85 q27 55 27 126 q0 71 -27 126 q-27 55 -73 85.5 q-46 30.5 -100 30.5 q-54 0 -99.5 -30.5 q-45.5 -30.5 -72.5 -85.5 q-27 -55 -27 -126 Z" /><glyph glyph-name="uni1ED7" unicode="&#x1ed7;" d="M229 861 q-22 0 -34.5 -19.5 q-12.5 -19.5 -16.5 -54.5 l-26 0 q2 42 22.5 70.5 q20.5 28.5 55.5 28.5 q23 0 37.5 -11.5 q14.5 -11.5 32.5 -34.5 q15 -19 26.5 -28.5 q11.5 -9.5 27.5 -9.5 q43 0 51 74 l26 0 q-2 -43 -22 -71.5 q-20 -28.5 -55 -28.5 q-24 0 -39 12 q-15 12 -32 35 q-15 19 -26.5 28.5 q-11.5 9.5 -27.5 9.5 ZM279 740 l24 0 l106 -141 l-31 0 l-87 117 l-87 -117 l-31 0 l106 141 ZM62 261 q0 78 31.5 140 q31.5 62 84 96 q52.5 34 114.5 34 q62 0 114.5 -34 q52.5 -34 84 -96 q31.5 -62 31.5 -140 q0 -78 -31.5 -140 q-31.5 -62 -84 -96 q-52.5 -34 -114.5 -34 q-62 0 -114.5 34 q-52.5 34 -84 96 q-31.5 62 -31.5 140 ZM93 261 q0 -71 27 -126 q27 -55 72.5 -85 q45.5 -30 99.5 -30 q54 0 100 30 q46 30 73 85 q27 55 27 126 q0 71 -27 126 q-27 55 -73 85.5 q-46 30.5 -100 30.5 q-54 0 -99.5 -30.5 q-45.5 -30.5 -72.5 -85.5 q-27 -55 -27 -126 Z" /><glyph glyph-name="odieresis" unicode="ö" d="M198 649 q-11 0 -19.5 8 q-8.5 8 -8.5 20 q0 11 8 19 q8 8 19 8 q12 0 20 -8 q8 -8 8 -19 q0 -12 -7.5 -20 q-7.5 -8 -19.5 -8 ZM386 649 q-11 0 -19 8 q-8 8 -8 20 q0 11 8 19 q8 8 19 8 q11 0 19 -8 q8 -8 8 -19 q0 -13 -7.5 -20.5 q-7.5 -7.5 -19.5 -7.5 ZM62 261 q0 78 31.5 140 q31.5 62 84 96 q52.5 34 114.5 34 q62 0 114.5 -34 q52.5 -34 84 -96 q31.5 -62 31.5 -140 q0 -78 -31.5 -140 q-31.5 -62 -84 -96 q-52.5 -34 -114.5 -34 q-62 0 -114.5 34 q-52.5 34 -84 96 q-31.5 62 -31.5 140 ZM93 261 q0 -71 27 -126 q27 -55 72.5 -85 q45.5 -30 99.5 -30 q54 0 100 30 q46 30 73 85 q27 55 27 126 q0 71 -27 126 q-27 55 -73 85.5 q-46 30.5 -100 30.5 q-54 0 -99.5 -30.5 q-45.5 -30.5 -72.5 -85.5 q-27 -55 -27 -126 Z" /><glyph glyph-name="uni1ECD" unicode="&#x1ecd;" d="M62 261 q0 78 31.5 140 q31.5 62 84 96 q52.5 34 114.5 34 q62 0 114.5 -34 q52.5 -34 84 -96 q31.5 -62 31.5 -140 q0 -78 -31.5 -140 q-31.5 -62 -84 -96 q-52.5 -34 -114.5 -34 q-62 0 -114.5 34 q-52.5 34 -84 96 q-31.5 62 -31.5 140 ZM93 261 q0 -71 27 -126 q27 -55 72.5 -85 q45.5 -30 99.5 -30 q54 0 100 30 q46 30 73 85 q27 55 27 126 q0 71 -27 126 q-27 55 -73 85.5 q-46 30.5 -100 30.5 q-54 0 -99.5 -30.5 q-45.5 -30.5 -72.5 -85.5 q-27 -55 -27 -126 ZM292 -155 q-11 0 -19.5 8.5 q-8.5 8.5 -8.5 19.5 q0 11 8.5 19 q8.5 8 19.5 8 q11 0 19 -8 q8 -8 8 -19 q0 -11 -8 -19.5 q-8 -8.5 -19 -8.5 Z" /><glyph glyph-name="ograve" unicode="ò" d="M196 740 l34 0 l79 -141 l-27 0 l-86 141 ZM62 261 q0 78 31.5 140 q31.5 62 84 96 q52.5 34 114.5 34 q62 0 114.5 -34 q52.5 -34 84 -96 q31.5 -62 31.5 -140 q0 -78 -31.5 -140 q-31.5 -62 -84 -96 q-52.5 -34 -114.5 -34 q-62 0 -114.5 34 q-52.5 34 -84 96 q-31.5 62 -31.5 140 ZM93 261 q0 -71 27 -126 q27 -55 72.5 -85 q45.5 -30 99.5 -30 q54 0 100 30 q46 30 73 85 q27 55 27 126 q0 71 -27 126 q-27 55 -73 85.5 q-46 30.5 -100 30.5 q-54 0 -99.5 -30.5 q-45.5 -30.5 -72.5 -85.5 q-27 -55 -27 -126 Z" /><glyph glyph-name="uni1ECF" unicode="&#x1ecf;" d="M210 740 q30 19 67 19 q39 0 66 -21.5 q27 -21.5 27 -58.5 q0 -65 -86 -94 l-12 20 q35 12 53 29 q18 17 18 43 q0 27 -18.5 42.5 q-18.5 15.5 -49.5 15.5 q-33 0 -60 -16 l-5 21 ZM62 261 q0 78 31.5 140 q31.5 62 84 96 q52.5 34 114.5 34 q62 0 114.5 -34 q52.5 -34 84 -96 q31.5 -62 31.5 -140 q0 -78 -31.5 -140 q-31.5 -62 -84 -96 q-52.5 -34 -114.5 -34 q-62 0 -114.5 34 q-52.5 34 -84 96 q-31.5 62 -31.5 140 ZM93 261 q0 -71 27 -126 q27 -55 72.5 -85 q45.5 -30 99.5 -30 q54 0 100 30 q46 30 73 85 q27 55 27 126 q0 71 -27 126 q-27 55 -73 85.5 q-46 30.5 -100 30.5 q-54 0 -99.5 -30.5 q-45.5 -30.5 -72.5 -85.5 q-27 -55 -27 -126 Z" /><glyph glyph-name="ohorn" unicode="&#x1a1;" d="M400 498 q55 -32 88.5 -94 q33.5 -62 33.5 -143 q0 -78 -31.5 -140 q-31.5 -62 -84 -96 q-52.5 -34 -114.5 -34 q-62 0 -114.5 34 q-52.5 34 -84 96 q-31.5 62 -31.5 140 q0 79 31.5 140.5 q31.5 61.5 85.5 95.5 q54 34 119 34 q33 0 75 -7 q44 -6 66 -6 q38 0 53.5 16.5 q15.5 16.5 15.5 64.5 q0 25 -5 49 l27 0 q5 -24 5 -49 q0 -61 -22.5 -82.5 q-22.5 -21.5 -71.5 -21.5 q-23 0 -41 3 ZM292 19 q54 0 100 30 q46 30 73 85.5 q27 55.5 27 126.5 q0 71 -27 126 q-27 55 -73 85.5 q-46 30.5 -100 30.5 q-54 0 -99.5 -30.5 q-45.5 -30.5 -72.5 -85.5 q-27 -55 -27 -126 q0 -71 27 -126.5 q27 -55.5 72.5 -85.5 q45.5 -30 99.5 -30 Z" /><glyph glyph-name="uni1EDB" unicode="&#x1edb;" d="M354 740 l34 0 l-86 -141 l-27 0 l79 141 ZM400 498 q55 -32 88.5 -94 q33.5 -62 33.5 -143 q0 -78 -31.5 -140 q-31.5 -62 -84 -96 q-52.5 -34 -114.5 -34 q-62 0 -114.5 34 q-52.5 34 -84 96 q-31.5 62 -31.5 140 q0 79 31.5 140.5 q31.5 61.5 85.5 95.5 q54 34 119 34 q33 0 75 -7 q44 -6 66 -6 q38 0 53.5 16.5 q15.5 16.5 15.5 64.5 q0 25 -5 49 l27 0 q5 -24 5 -49 q0 -61 -22.5 -82.5 q-22.5 -21.5 -71.5 -21.5 q-23 0 -41 3 ZM292 19 q54 0 100 30 q46 30 73 85.5 q27 55.5 27 126.5 q0 71 -27 126 q-27 55 -73 85.5 q-46 30.5 -100 30.5 q-54 0 -99.5 -30.5 q-45.5 -30.5 -72.5 -85.5 q-27 -55 -27 -126 q0 -71 27 -126.5 q27 -55.5 72.5 -85.5 q45.5 -30 99.5 -30 Z" /><glyph glyph-name="uni1EE3" unicode="&#x1ee3;" d="M400 498 q55 -32 88.5 -94 q33.5 -62 33.5 -143 q0 -78 -31.5 -140 q-31.5 -62 -84 -96 q-52.5 -34 -114.5 -34 q-62 0 -114.5 34 q-52.5 34 -84 96 q-31.5 62 -31.5 140 q0 79 31.5 140.5 q31.5 61.5 85.5 95.5 q54 34 119 34 q33 0 75 -7 q44 -6 66 -6 q38 0 53.5 16.5 q15.5 16.5 15.5 64.5 q0 25 -5 49 l27 0 q5 -24 5 -49 q0 -61 -22.5 -82.5 q-22.5 -21.5 -71.5 -21.5 q-23 0 -41 3 ZM292 19 q54 0 100 30 q46 30 73 85.5 q27 55.5 27 126.5 q0 71 -27 126 q-27 55 -73 85.5 q-46 30.5 -100 30.5 q-54 0 -99.5 -30.5 q-45.5 -30.5 -72.5 -85.5 q-27 -55 -27 -126 q0 -71 27 -126.5 q27 -55.5 72.5 -85.5 q45.5 -30 99.5 -30 ZM292 -100 q11 0 19 -8 q8 -8 8 -19 q0 -11 -8 -19.5 q-8 -8.5 -19 -8.5 q-11 0 -19.5 8.5 q-8.5 8.5 -8.5 19.5 q0 11 8.5 19 q8.5 8 19.5 8 Z" /><glyph glyph-name="uni1EDD" unicode="&#x1edd;" d="M230 740 l79 -141 l-27 0 l-86 141 l34 0 ZM400 498 q55 -32 88.5 -94 q33.5 -62 33.5 -143 q0 -78 -31.5 -140 q-31.5 -62 -84 -96 q-52.5 -34 -114.5 -34 q-62 0 -114.5 34 q-52.5 34 -84 96 q-31.5 62 -31.5 140 q0 79 31.5 140.5 q31.5 61.5 85.5 95.5 q54 34 119 34 q33 0 75 -7 q44 -6 66 -6 q38 0 53.5 16.5 q15.5 16.5 15.5 64.5 q0 25 -5 49 l27 0 q5 -24 5 -49 q0 -61 -22.5 -82.5 q-22.5 -21.5 -71.5 -21.5 q-23 0 -41 3 ZM292 19 q54 0 100 30 q46 30 73 85.5 q27 55.5 27 126.5 q0 71 -27 126 q-27 55 -73 85.5 q-46 30.5 -100 30.5 q-54 0 -99.5 -30.5 q-45.5 -30.5 -72.5 -85.5 q-27 -55 -27 -126 q0 -71 27 -126.5 q27 -55.5 72.5 -85.5 q45.5 -30 99.5 -30 Z" /><glyph glyph-name="uni1EDF" unicode="&#x1edf;" d="M275 735 q-33 0 -60 -16 l-5 21 q30 19 67 19 q39 0 66 -21.5 q27 -21.5 27 -58.5 q0 -65 -86 -94 l-12 20 q35 12 53 29 q18 17 18 43 q0 27 -18.5 42.5 q-18.5 15.5 -49.5 15.5 ZM400 498 q55 -32 88.5 -94 q33.5 -62 33.5 -143 q0 -78 -31.5 -140 q-31.5 -62 -84 -96 q-52.5 -34 -114.5 -34 q-62 0 -114.5 34 q-52.5 34 -84 96 q-31.5 62 -31.5 140 q0 79 31.5 140.5 q31.5 61.5 85.5 95.5 q54 34 119 34 q33 0 75 -7 q44 -6 66 -6 q38 0 53.5 16.5 q15.5 16.5 15.5 64.5 q0 25 -5 49 l27 0 q5 -24 5 -49 q0 -61 -22.5 -82.5 q-22.5 -21.5 -71.5 -21.5 q-23 0 -41 3 ZM292 19 q54 0 100 30 q46 30 73 85.5 q27 55.5 27 126.5 q0 71 -27 126 q-27 55 -73 85.5 q-46 30.5 -100 30.5 q-54 0 -99.5 -30.5 q-45.5 -30.5 -72.5 -85.5 q-27 -55 -27 -126 q0 -71 27 -126.5 q27 -55.5 72.5 -85.5 q45.5 -30 99.5 -30 Z" /><glyph glyph-name="uni1EE1" unicode="&#x1ee1;" d="M230 696 q-44 0 -51 -74 l-26 0 q2 43 22 71.5 q20 28.5 55 28.5 q23 0 37.5 -11.5 q14.5 -11.5 32.5 -34.5 q14 -19 26 -29 q12 -10 28 -10 q43 0 51 74 l26 0 q-2 -42 -22 -70.5 q-20 -28.5 -55 -28.5 q-23 0 -37.5 11.5 q-14.5 11.5 -32.5 34.5 q-15 19 -26.5 28.5 q-11.5 9.5 -27.5 9.5 ZM400 498 q55 -32 88.5 -94 q33.5 -62 33.5 -143 q0 -78 -31.5 -140 q-31.5 -62 -84 -96 q-52.5 -34 -114.5 -34 q-62 0 -114.5 34 q-52.5 34 -84 96 q-31.5 62 -31.5 140 q0 79 31.5 140.5 q31.5 61.5 85.5 95.5 q54 34 119 34 q33 0 75 -7 q44 -6 66 -6 q38 0 53.5 16.5 q15.5 16.5 15.5 64.5 q0 25 -5 49 l27 0 q5 -24 5 -49 q0 -61 -22.5 -82.5 q-22.5 -21.5 -71.5 -21.5 q-23 0 -41 3 ZM292 19 q54 0 100 30 q46 30 73 85.5 q27 55.5 27 126.5 q0 71 -27 126 q-27 55 -73 85.5 q-46 30.5 -100 30.5 q-54 0 -99.5 -30.5 q-45.5 -30.5 -72.5 -85.5 q-27 -55 -27 -126 q0 -71 27 -126.5 q27 -55.5 72.5 -85.5 q45.5 -30 99.5 -30 Z" /><glyph glyph-name="ohungarumlaut" unicode="&#x151;" d="M218 599 l80 141 l34 0 l-86 -141 l-28 0 ZM329 599 l80 141 l34 0 l-86 -141 l-28 0 ZM62 261 q0 78 31.5 140 q31.5 62 84 96 q52.5 34 114.5 34 q62 0 114.5 -34 q52.5 -34 84 -96 q31.5 -62 31.5 -140 q0 -78 -31.5 -140 q-31.5 -62 -84 -96 q-52.5 -34 -114.5 -34 q-62 0 -114.5 34 q-52.5 34 -84 96 q-31.5 62 -31.5 140 ZM93 261 q0 -71 27 -126 q27 -55 72.5 -85 q45.5 -30 99.5 -30 q54 0 100 30 q46 30 73 85 q27 55 27 126 q0 71 -27 126 q-27 55 -73 85.5 q-46 30.5 -100 30.5 q-54 0 -99.5 -30.5 q-45.5 -30.5 -72.5 -85.5 q-27 -55 -27 -126 Z" /><glyph glyph-name="omacron" unicode="&#x14d;" d="M159 661 l0 28 l266 0 l0 -28 l-266 0 ZM62 261 q0 78 31.5 140 q31.5 62 84 96 q52.5 34 114.5 34 q62 0 114.5 -34 q52.5 -34 84 -96 q31.5 -62 31.5 -140 q0 -78 -31.5 -140 q-31.5 -62 -84 -96 q-52.5 -34 -114.5 -34 q-62 0 -114.5 34 q-52.5 34 -84 96 q-31.5 62 -31.5 140 ZM93 261 q0 -71 27 -126 q27 -55 72.5 -85 q45.5 -30 99.5 -30 q54 0 100 30 q46 30 73 85 q27 55 27 126 q0 71 -27 126 q-27 55 -73 85.5 q-46 30.5 -100 30.5 q-54 0 -99.5 -30.5 q-45.5 -30.5 -72.5 -85.5 q-27 -55 -27 -126 Z" /><glyph glyph-name="oslash" unicode="ø" d="M489 554 l33 0 l-70 -96 q33 -36 51.5 -87 q18.5 -51 18.5 -110 q0 -78 -31.5 -140 q-31.5 -62 -84 -96 q-52.5 -34 -114.5 -34 q-39 0 -74.5 14.5 q-35.5 14.5 -65.5 40.5 l-57 -78 l-33 0 l70 96 q-33 37 -51.5 87 q-18.5 50 -18.5 110 q0 78 31.5 140 q31.5 62 84 96 q52.5 34 114.5 34 q39 0 75.5 -14 q36.5 -14 65.5 -41 l56 78 ZM93 261 q0 -53 15 -97 q15 -44 42 -76 l266 365 q-26 24 -58 37 q-32 13 -66 13 q-54 0 -99.5 -30.5 q-45.5 -30.5 -72.5 -85.5 q-27 -55 -27 -126 ZM492 261 q0 52 -15 96.5 q-15 44.5 -42 76.5 l-267 -365 q26 -24 58 -37 q32 -13 66 -13 q54 0 100 30 q46 30 73 85.5 q27 55.5 27 126.5 Z" /><glyph glyph-name="oslashacute" unicode="&#x1ff;" d="M275 599 l79 141 l34 0 l-86 -141 l-27 0 ZM489 554 l33 0 l-70 -96 q33 -36 51.5 -87 q18.5 -51 18.5 -110 q0 -78 -31.5 -140 q-31.5 -62 -84 -96 q-52.5 -34 -114.5 -34 q-39 0 -74.5 14.5 q-35.5 14.5 -65.5 40.5 l-57 -78 l-33 0 l70 96 q-33 37 -51.5 87 q-18.5 50 -18.5 110 q0 78 31.5 140 q31.5 62 84 96 q52.5 34 114.5 34 q39 0 75.5 -14 q36.5 -14 65.5 -41 l56 78 ZM93 261 q0 -53 15 -97 q15 -44 42 -76 l266 365 q-26 24 -58 37 q-32 13 -66 13 q-54 0 -99.5 -30.5 q-45.5 -30.5 -72.5 -85.5 q-27 -55 -27 -126 ZM492 261 q0 52 -15 96.5 q-15 44.5 -42 76.5 l-267 -365 q26 -24 58 -37 q32 -13 66 -13 q54 0 100 30 q46 30 73 85.5 q27 55.5 27 126.5 Z" /><glyph glyph-name="otilde" unicode="õ" d="M153 622 q2 43 22 71.5 q20 28.5 55 28.5 q23 0 37.5 -11.5 q14.5 -11.5 32.5 -34.5 q14 -19 26 -29 q12 -10 28 -10 q43 0 51 74 l26 0 q-2 -42 -22 -70.5 q-20 -28.5 -55 -28.5 q-23 0 -37.5 11.5 q-14.5 11.5 -32.5 34.5 q-15 19 -26.5 28.5 q-11.5 9.5 -27.5 9.5 q-44 0 -51 -74 l-26 0 ZM62 261 q0 78 31.5 140 q31.5 62 84 96 q52.5 34 114.5 34 q62 0 114.5 -34 q52.5 -34 84 -96 q31.5 -62 31.5 -140 q0 -78 -31.5 -140 q-31.5 -62 -84 -96 q-52.5 -34 -114.5 -34 q-62 0 -114.5 34 q-52.5 34 -84 96 q-31.5 62 -31.5 140 ZM93 261 q0 -71 27 -126 q27 -55 72.5 -85 q45.5 -30 99.5 -30 q54 0 100 30 q46 30 73 85 q27 55 27 126 q0 71 -27 126 q-27 55 -73 85.5 q-46 30.5 -100 30.5 q-54 0 -99.5 -30.5 q-45.5 -30.5 -72.5 -85.5 q-27 -55 -27 -126 Z" /><glyph glyph-name="oe" unicode="&#x153;" d="M715 531 q61 0 106 -30.5 q45 -30.5 68.5 -82 q23.5 -51.5 23.5 -113.5 q0 -13 -2 -37 l-389 0 q1 -77 27 -133 q26 -56 71.5 -85.5 q45.5 -29.5 104.5 -29.5 q49 0 88 20.5 q39 20.5 58 60.5 l24 -13 q-21 -47 -68.5 -72 q-47.5 -25 -102.5 -25 q-76 0 -135.5 48 q-59.5 48 -81.5 132 q-21 -83 -78 -131.5 q-57 -48.5 -133 -48.5 q-64 0 -117.5 34 q-53.5 34 -85 95.5 q-31.5 61.5 -31.5 140.5 q0 79 31.5 140.5 q31.5 61.5 85 95.5 q53.5 34 117.5 34 q75 0 131.5 -47.5 q56.5 -47.5 78.5 -128.5 q21 83 77.5 129.5 q56.5 46.5 131.5 46.5 ZM295 19 q55 0 100 30 q45 30 71 85 q26 55 26 127 q0 71 -25.5 126 q-25.5 55 -70.5 85.5 q-45 30.5 -101 30.5 q-55 0 -101.5 -30.5 q-46.5 -30.5 -73.5 -85.5 q-27 -55 -27 -126 q0 -72 27 -127 q27 -55 73.5 -85 q46.5 -30 101.5 -30 ZM714 503 q-78 0 -130.5 -55 q-52.5 -55 -59.5 -154 l359 0 q3 58 -16.5 106 q-19.5 48 -59 75.5 q-39.5 27.5 -93.5 27.5 Z" /><glyph glyph-name="p" unicode="p" d="M315 531 q60 0 109.5 -32 q49.5 -32 79 -93 q29.5 -61 29.5 -145 q0 -84 -29.5 -145 q-29.5 -61 -79.5 -93 q-50 -32 -109 -32 q-67 0 -119.5 38.5 q-52.5 38.5 -72.5 108.5 l0 -370 l-29 0 l0 754 l25 0 q0 -106 2 -142 q21 74 73.5 112.5 q52.5 38.5 120.5 38.5 ZM312 19 q53 0 96.5 28.5 q43.5 28.5 69 83 q25.5 54.5 25.5 130.5 q0 76 -25.5 131 q-25.5 55 -69 83 q-43.5 28 -96.5 28 q-48 0 -91 -24 q-43 -24 -70.5 -78.5 q-27.5 -54.5 -27.5 -139.5 q0 -85 27.5 -139 q27.5 -54 70.5 -78.5 q43 -24.5 91 -24.5 Z" /><glyph glyph-name="thorn" unicode="þ" d="M312 531 q60 0 110.5 -32 q50.5 -32 80.5 -93 q30 -61 30 -145 q0 -84 -30 -145 q-30 -61 -80.5 -93 q-50.5 -32 -110.5 -32 q-66 0 -117 38 q-51 38 -72 108 l0 -369 l-29 0 l0 993 l29 0 l0 -376 q21 72 72 109 q51 37 117 37 ZM309 19 q53 0 97 28.5 q44 28.5 70.5 83 q26.5 54.5 26.5 130.5 q0 76 -26 131 q-26 55 -70.5 83 q-44.5 28 -97.5 28 q-47 0 -89.5 -24 q-42.5 -24 -69.5 -78.5 q-27 -54.5 -27 -139.5 q0 -85 27 -139 q27 -54 69 -78.5 q42 -24.5 90 -24.5 Z" /><glyph glyph-name="q" unicode="q" d="M502 522 l0 -754 l-29 0 l0 370 q-22 -71 -74 -109 q-52 -38 -118 -38 q-60 0 -110 32 q-50 32 -79.5 93.5 q-29.5 61.5 -29.5 144.5 q0 84 29.5 145 q29.5 61 79.5 93 q50 32 110 32 q68 0 120.5 -39 q52.5 -39 72.5 -112 q2 72 2 142 l26 0 ZM284 19 q48 0 90.5 24 q42.5 24 70.5 78.5 q28 54.5 28 139.5 q0 85 -28 139.5 q-28 54.5 -70.5 78.5 q-42.5 24 -90.5 24 q-53 0 -96.5 -28 q-43.5 -28 -69 -83 q-25.5 -55 -25.5 -131 q0 -76 25.5 -130.5 q25.5 -54.5 69 -83 q43.5 -28.5 96.5 -28.5 Z" /><glyph glyph-name="r" unicode="r" d="M267 531 q33 0 56 -15 l-12 -24 q-18 11 -45 11 q-39 0 -71.5 -22.5 q-32.5 -22.5 -52 -66.5 q-19.5 -44 -19.5 -106 l0 -308 l-29 0 l0 522 l25 0 q0 -80 2 -110 q18 56 56.5 87.5 q38.5 31.5 89.5 31.5 Z" /><glyph glyph-name="racute" unicode="&#x155;" d="M178 599 l79 141 l34 0 l-86 -141 l-27 0 ZM267 531 q33 0 56 -15 l-12 -24 q-18 11 -45 11 q-39 0 -71.5 -22.5 q-32.5 -22.5 -52 -66.5 q-19.5 -44 -19.5 -106 l0 -308 l-29 0 l0 522 l25 0 q0 -80 2 -110 q18 56 56.5 87.5 q38.5 31.5 89.5 31.5 Z" /><glyph glyph-name="rcaron" unicode="&#x159;" d="M108 740 l87 -117 l86 117 l31 0 l-106 -141 l-24 0 l-105 141 l31 0 ZM267 531 q33 0 56 -15 l-12 -24 q-18 11 -45 11 q-39 0 -71.5 -22.5 q-32.5 -22.5 -52 -66.5 q-19.5 -44 -19.5 -106 l0 -308 l-29 0 l0 522 l25 0 q0 -80 2 -110 q18 56 56.5 87.5 q38.5 31.5 89.5 31.5 Z" /><glyph glyph-name="uni0157" unicode="&#x157;" d="M267 531 q33 0 56 -15 l-12 -24 q-18 11 -45 11 q-39 0 -71.5 -22.5 q-32.5 -22.5 -52 -66.5 q-19.5 -44 -19.5 -106 l0 -308 l-29 0 l0 522 l25 0 q0 -80 2 -110 q18 56 56.5 87.5 q38.5 31.5 89.5 31.5 ZM107 -78 q12 0 20.5 -10.5 q8.5 -10.5 8.5 -33.5 q0 -33 -18 -59 q-18 -26 -57 -34 l0 18 q53 15 55 69 q-3 -2 -9 -2 q-11 0 -17.5 7.5 q-6.5 7.5 -6.5 18.5 q0 11 7 18.5 q7 7.5 17 7.5 Z" /><glyph glyph-name="s" unicode="s" d="M394 134 q0 -65 -46.5 -104 q-46.5 -39 -117.5 -39 q-64 0 -116 32 q-52 32 -68 89 l23 14 q16 -52 60.5 -79.5 q44.5 -27.5 100.5 -27.5 q58 0 95.5 30.5 q37.5 30.5 37.5 82.5 q0 38 -20 62.5 q-20 24.5 -49 38 q-29 13.5 -78 30.5 q-50 17 -80 31 q-30 14 -50.5 39 q-20.5 25 -20.5 65 q0 61 45.5 97 q45.5 36 113.5 36 q58 0 102 -27.5 q44 -27.5 59 -73.5 l-23 -14 q-14 41 -52 64 q-38 23 -87 23 q-55 0 -91 -27.5 q-36 -27.5 -36 -74.5 q0 -32 18 -53 q18 -21 44.5 -33.5 q26.5 -12.5 72.5 -27.5 q54 -18 86 -33 q32 -15 54.5 -44 q22.5 -29 22.5 -76 Z" /><glyph glyph-name="sacute" unicode="&#x15b;" d="M209 599 l80 141 l34 0 l-86 -141 l-28 0 ZM394 134 q0 -65 -46.5 -104 q-46.5 -39 -117.5 -39 q-64 0 -116 32 q-52 32 -68 89 l23 14 q16 -52 60.5 -79.5 q44.5 -27.5 100.5 -27.5 q58 0 95.5 30.5 q37.5 30.5 37.5 82.5 q0 38 -20 62.5 q-20 24.5 -49 38 q-29 13.5 -78 30.5 q-50 17 -80 31 q-30 14 -50.5 39 q-20.5 25 -20.5 65 q0 61 45.5 97 q45.5 36 113.5 36 q58 0 102 -27.5 q44 -27.5 59 -73.5 l-23 -14 q-14 41 -52 64 q-38 23 -87 23 q-55 0 -91 -27.5 q-36 -27.5 -36 -74.5 q0 -32 18 -53 q18 -21 44.5 -33.5 q26.5 -12.5 72.5 -27.5 q54 -18 86 -33 q32 -15 54.5 -44 q22.5 -29 22.5 -76 Z" /><glyph glyph-name="scaron" unicode="&#x161;" d="M139 740 l88 -117 l86 117 l31 0 l-106 -141 l-24 0 l-106 141 l31 0 ZM394 134 q0 -65 -46.5 -104 q-46.5 -39 -117.5 -39 q-64 0 -116 32 q-52 32 -68 89 l23 14 q16 -52 60.5 -79.5 q44.5 -27.5 100.5 -27.5 q58 0 95.5 30.5 q37.5 30.5 37.5 82.5 q0 38 -20 62.5 q-20 24.5 -49 38 q-29 13.5 -78 30.5 q-50 17 -80 31 q-30 14 -50.5 39 q-20.5 25 -20.5 65 q0 61 45.5 97 q45.5 36 113.5 36 q58 0 102 -27.5 q44 -27.5 59 -73.5 l-23 -14 q-14 41 -52 64 q-38 23 -87 23 q-55 0 -91 -27.5 q-36 -27.5 -36 -74.5 q0 -32 18 -53 q18 -21 44.5 -33.5 q26.5 -12.5 72.5 -27.5 q54 -18 86 -33 q32 -15 54.5 -44 q22.5 -29 22.5 -76 Z" /><glyph glyph-name="scedilla" unicode="&#x15f;" d="M394 134 q0 -64 -45 -102.5 q-45 -38.5 -119 -39.5 l-30 -79 q7 1 21 1 q44 0 70 -19.5 q26 -19.5 26 -54.5 q0 -40 -30 -62 q-30 -22 -76 -22 q-25 0 -57 9 l0 26 q27 -9 56 -9 q34 0 56.5 14 q22.5 14 22.5 42 q0 52 -77 52 q-17 0 -38 -3 l-4 19 l33 87 q-56 6 -99.5 37 q-43.5 31 -57.5 82 l23 14 q16 -52 60.5 -79.5 q44.5 -27.5 100.5 -27.5 q58 0 95.5 30.5 q37.5 30.5 37.5 82.5 q0 38 -20 62.5 q-20 24.5 -49 38 q-29 13.5 -78 30.5 q-50 17 -80 31 q-30 14 -50.5 39 q-20.5 25 -20.5 65 q0 61 45.5 97 q45.5 36 113.5 36 q58 0 102 -27.5 q44 -27.5 59 -73.5 l-23 -14 q-14 41 -52 64 q-38 23 -87 23 q-55 0 -91 -27.5 q-36 -27.5 -36 -74.5 q0 -32 18 -53 q18 -21 44.5 -33.5 q26.5 -12.5 72.5 -27.5 q54 -18 86 -33 q32 -15 54.5 -44 q22.5 -29 22.5 -76 Z" /><glyph glyph-name="scircumflex" unicode="&#x15d;" d="M214 740 l24 0 l106 -141 l-31 0 l-86 117 l-88 -117 l-31 0 l106 141 ZM394 134 q0 -65 -46.5 -104 q-46.5 -39 -117.5 -39 q-64 0 -116 32 q-52 32 -68 89 l23 14 q16 -52 60.5 -79.5 q44.5 -27.5 100.5 -27.5 q58 0 95.5 30.5 q37.5 30.5 37.5 82.5 q0 38 -20 62.5 q-20 24.5 -49 38 q-29 13.5 -78 30.5 q-50 17 -80 31 q-30 14 -50.5 39 q-20.5 25 -20.5 65 q0 61 45.5 97 q45.5 36 113.5 36 q58 0 102 -27.5 q44 -27.5 59 -73.5 l-23 -14 q-14 41 -52 64 q-38 23 -87 23 q-55 0 -91 -27.5 q-36 -27.5 -36 -74.5 q0 -32 18 -53 q18 -21 44.5 -33.5 q26.5 -12.5 72.5 -27.5 q54 -18 86 -33 q32 -15 54.5 -44 q22.5 -29 22.5 -76 Z" /><glyph glyph-name="uni0219" unicode="&#x219;" d="M96 401 q0 -32 18 -53 q18 -21 44.5 -33.5 q26.5 -12.5 72.5 -27.5 q54 -18 86 -33 q32 -15 54.5 -44 q22.5 -29 22.5 -76 q0 -65 -46.5 -104 q-46.5 -39 -117.5 -39 q-64 0 -116 32 q-52 32 -68 89 l23 14 q16 -52 60.5 -79.5 q44.5 -27.5 100.5 -27.5 q58 0 95.5 30.5 q37.5 30.5 37.5 82.5 q0 38 -20 62.5 q-20 24.5 -49 38 q-29 13.5 -78 30.5 q-50 17 -80 31 q-30 14 -50.5 39 q-20.5 25 -20.5 65 q0 61 45.5 97 q45.5 36 113.5 36 q58 0 102 -27.5 q44 -27.5 59 -73.5 l-23 -14 q-14 41 -52 64 q-38 23 -87 23 q-55 0 -91 -27.5 q-36 -27.5 -36 -74.5 ZM226 -78 q12 0 20.5 -10.5 q8.5 -10.5 8.5 -33.5 q0 -33 -18 -59 q-18 -26 -57 -34 l0 18 q53 15 55 69 q-3 -2 -9 -2 q-11 0 -17.5 7.5 q-6.5 7.5 -6.5 18.5 q0 11 7 18.5 q7 7.5 17 7.5 Z" /><glyph glyph-name="germandbls" unicode="ß" d="M348 407 q77 -12 122.5 -65.5 q45.5 -53.5 45.5 -135.5 q0 -63 -25 -111.5 q-25 -48.5 -71.5 -76 q-46.5 -27.5 -109.5 -27.5 q-48 0 -80 16 l0 30 q33 -19 77 -19 q81 0 129.5 52 q48.5 52 48.5 136 q0 85 -52.5 134.5 q-52.5 49.5 -144.5 49.5 l-36 0 l0 26 l15 0 q86 0 131.5 45.5 q45.5 45.5 45.5 119.5 q0 68 -37.5 114.5 q-37.5 46.5 -111.5 46.5 q-80 0 -126 -57.5 q-46 -57.5 -46 -157.5 l0 -527 l-29 0 l0 529 q0 73 25.5 127.5 q25.5 54.5 71 84 q45.5 29.5 105.5 29.5 q56 0 96.5 -26 q40.5 -26 61.5 -69 q21 -43 21 -94 q0 -65 -33 -111 q-33 -46 -94 -63 Z" /><glyph glyph-name="longs" unicode="&#x17f;" d="M259 770 q44 0 73 -22 l-11 -25 q-28 20 -61 20 q-49 0 -78 -37 q-29 -37 -29 -118 l0 -588 l-29 0 l0 496 l-89 0 l0 26 l89 0 l0 68 q0 92 37.5 136 q37.5 44 97.5 44 Z" /><glyph glyph-name="t" unicode="t" d="M306 15 q-34 -24 -80 -24 q-56 0 -85.5 32 q-29.5 32 -29.5 108 l0 365 l-86 0 l0 26 l86 0 l0 142 l29 0 l0 -142 l143 0 l0 -26 l-143 0 l0 -361 q0 -61 20.5 -88.5 q20.5 -27.5 66.5 -27.5 q36 0 68 19 l11 -23 Z" /><glyph glyph-name="tbar" unicode="&#x167;" d="M306 18 q-34 -27 -81 -27 q-114 0 -114 140 l0 141 l-86 0 l0 25 l86 0 l0 199 l-86 0 l0 26 l86 0 l0 142 l30 0 l0 -142 l142 0 l0 -26 l-142 0 l0 -199 l142 0 l0 -25 l-142 0 l0 -137 q0 -60 21 -88 q21 -28 65 -28 q20 0 36 5 q16 5 32 16 l11 -22 Z" /><glyph glyph-name="tcaron" unicode="&#x165;" d="M303 776 q30 0 30 -48 q0 -40 -19 -72 q-19 -32 -59 -43 l0 19 q30 10 43.5 33 q13.5 23 13.5 59 q-4 -2 -10 -2 q-10 0 -17.5 8 q-7.5 8 -7.5 19 q0 11 7.5 19 q7.5 8 18.5 8 ZM227 19 q36 0 68 19 l11 -23 q-34 -24 -80 -24 q-56 0 -85.5 32 q-29.5 32 -29.5 108 l0 365 l-86 0 l0 26 l86 0 l0 142 l29 0 l0 -142 l143 0 l0 -26 l-143 0 l0 -361 q0 -61 20.5 -88.5 q20.5 -27.5 66.5 -27.5 Z" /><glyph glyph-name="uni0163" unicode="&#x163;" d="M181 -87 q7 1 20 1 q45 0 71 -19 q26 -19 26 -56 q0 -40 -30 -61.5 q-30 -21.5 -76 -21.5 q-29 0 -57 9 l0 26 q27 -9 56 -9 q34 0 56.5 14 q22.5 14 22.5 42 q0 26 -20 38.5 q-20 12.5 -55 12.5 q-18 0 -39 -3 l-4 19 l33 91 q-74 19 -74 135 l0 365 l-86 0 l0 26 l86 0 l0 142 l29 0 l0 -142 l143 0 l0 -26 l-143 0 l0 -361 q0 -61 20.5 -88.5 q20.5 -27.5 66.5 -27.5 q36 0 68 19 l11 -23 q-34 -24 -80 -24 q-10 0 -14 1 l-31 -79 Z" /><glyph glyph-name="uni021B" unicode="&#x21b;" d="M306 15 q-34 -24 -80 -24 q-56 0 -85.5 32 q-29.5 32 -29.5 108 l0 365 l-86 0 l0 26 l86 0 l0 142 l29 0 l0 -142 l143 0 l0 -26 l-143 0 l0 -361 q0 -61 20.5 -88.5 q20.5 -27.5 66.5 -27.5 q36 0 68 19 l11 -23 ZM207 -78 q13 0 21 -10.5 q8 -10.5 8 -33.5 q0 -33 -18 -59 q-18 -26 -56 -34 l0 18 q53 16 55 69 q-3 -2 -10 -2 q-10 0 -17 7.5 q-7 7.5 -7 18.5 q0 11 7 18.5 q7 7.5 17 7.5 Z" /><glyph glyph-name="u" unicode="u" d="M437 522 l29 0 l0 -522 l-25 0 q0 85 -2 115 q-21 -58 -69.5 -91 q-48.5 -33 -109.5 -33 q-78 0 -126.5 51 q-48.5 51 -48.5 147 l0 333 l29 0 l0 -326 q0 -87 41.5 -132 q41.5 -45 108.5 -45 q46 0 85.5 22 q39.5 22 63.5 64.5 q24 42.5 24 102.5 l0 314 Z" /><glyph glyph-name="uacute" unicode="ú" d="M258 599 l79 141 l34 0 l-86 -141 l-27 0 ZM437 522 l29 0 l0 -522 l-25 0 q0 85 -2 115 q-21 -58 -69.5 -91 q-48.5 -33 -109.5 -33 q-78 0 -126.5 51 q-48.5 51 -48.5 147 l0 333 l29 0 l0 -326 q0 -87 41.5 -132 q41.5 -45 108.5 -45 q46 0 85.5 22 q39.5 22 63.5 64.5 q24 42.5 24 102.5 l0 314 Z" /><glyph glyph-name="ubreve" unicode="&#x16d;" d="M275 605 q-57 0 -92.5 35.5 q-35.5 35.5 -35.5 93.5 l27 0 q1 -48 29 -76.5 q28 -28.5 72 -28.5 q45 0 73 28 q28 28 29 77 l28 0 q0 -58 -35.5 -93.5 q-35.5 -35.5 -94.5 -35.5 ZM437 522 l29 0 l0 -522 l-25 0 q0 85 -2 115 q-21 -58 -69.5 -91 q-48.5 -33 -109.5 -33 q-78 0 -126.5 51 q-48.5 51 -48.5 147 l0 333 l29 0 l0 -326 q0 -87 41.5 -132 q41.5 -45 108.5 -45 q46 0 85.5 22 q39.5 22 63.5 64.5 q24 42.5 24 102.5 l0 314 Z" /><glyph glyph-name="uni01D4" unicode="&#x1d4;" d="M188 740 l87 -117 l86 117 l31 0 l-105 -141 l-24 0 l-106 141 l31 0 ZM437 522 l29 0 l0 -522 l-25 0 q0 85 -2 115 q-21 -58 -69.5 -91 q-48.5 -33 -109.5 -33 q-78 0 -126.5 51 q-48.5 51 -48.5 147 l0 333 l29 0 l0 -326 q0 -87 41.5 -132 q41.5 -45 108.5 -45 q46 0 85.5 22 q39.5 22 63.5 64.5 q24 42.5 24 102.5 l0 314 Z" /><glyph glyph-name="ucircumflex" unicode="û" d="M262 740 l25 0 l105 -141 l-31 0 l-86 117 l-87 -117 l-31 0 l105 141 ZM437 522 l29 0 l0 -522 l-25 0 q0 85 -2 115 q-21 -58 -69.5 -91 q-48.5 -33 -109.5 -33 q-78 0 -126.5 51 q-48.5 51 -48.5 147 l0 333 l29 0 l0 -326 q0 -87 41.5 -132 q41.5 -45 108.5 -45 q46 0 85.5 22 q39.5 22 63.5 64.5 q24 42.5 24 102.5 l0 314 Z" /><glyph glyph-name="udieresis" unicode="ü" d="M181 649 q-11 0 -19 8 q-8 8 -8 20 q0 11 7.5 19 q7.5 8 18.5 8 q12 0 20 -8 q8 -8 8 -19 q0 -12 -7.5 -20 q-7.5 -8 -19.5 -8 ZM370 649 q-11 0 -19.5 8 q-8.5 8 -8.5 20 q0 11 8 19 q8 8 19 8 q11 0 19.5 -8 q8.5 -8 8.5 -19 q0 -12 -8 -20 q-8 -8 -19 -8 ZM437 522 l29 0 l0 -522 l-25 0 q0 85 -2 115 q-21 -58 -69.5 -91 q-48.5 -33 -109.5 -33 q-78 0 -126.5 51 q-48.5 51 -48.5 147 l0 333 l29 0 l0 -326 q0 -87 41.5 -132 q41.5 -45 108.5 -45 q46 0 85.5 22 q39.5 22 63.5 64.5 q24 42.5 24 102.5 l0 314 Z" /><glyph glyph-name="uni01D8" unicode="&#x1d8;" d="M258 758 l78 128 l34 0 l-85 -128 l-27 0 ZM181 649 q-11 0 -19 8 q-8 8 -8 20 q0 11 7.5 19 q7.5 8 18.5 8 q12 0 20 -8 q8 -8 8 -19 q0 -12 -7.5 -20 q-7.5 -8 -19.5 -8 ZM370 649 q-11 0 -19.5 8 q-8.5 8 -8.5 20 q0 11 8 19 q8 8 19 8 q11 0 19.5 -8 q8.5 -8 8.5 -19 q0 -12 -8 -20 q-8 -8 -19 -8 ZM437 522 l29 0 l0 -522 l-25 0 q0 85 -2 115 q-21 -58 -69.5 -91 q-48.5 -33 -109.5 -33 q-78 0 -126.5 51 q-48.5 51 -48.5 147 l0 333 l29 0 l0 -326 q0 -87 41.5 -132 q41.5 -45 108.5 -45 q46 0 85.5 22 q39.5 22 63.5 64.5 q24 42.5 24 102.5 l0 314 Z" /><glyph glyph-name="uni01DA" unicode="&#x1da;" d="M188 886 l87 -106 l86 106 l31 0 l-105 -128 l-24 0 l-106 128 l31 0 ZM181 649 q-11 0 -19 8 q-8 8 -8 20 q0 11 7.5 19 q7.5 8 18.5 8 q12 0 20 -8 q8 -8 8 -19 q0 -12 -7.5 -20 q-7.5 -8 -19.5 -8 ZM370 649 q-11 0 -19.5 8 q-8.5 8 -8.5 20 q0 11 8 19 q8 8 19 8 q11 0 19.5 -8 q8.5 -8 8.5 -19 q0 -12 -8 -20 q-8 -8 -19 -8 ZM437 522 l29 0 l0 -522 l-25 0 q0 85 -2 115 q-21 -58 -69.5 -91 q-48.5 -33 -109.5 -33 q-78 0 -126.5 51 q-48.5 51 -48.5 147 l0 333 l29 0 l0 -326 q0 -87 41.5 -132 q41.5 -45 108.5 -45 q46 0 85.5 22 q39.5 22 63.5 64.5 q24 42.5 24 102.5 l0 314 Z" /><glyph glyph-name="uni01DC" unicode="&#x1dc;" d="M180 886 l34 0 l78 -128 l-27 0 l-85 128 ZM181 649 q-11 0 -19 8 q-8 8 -8 20 q0 11 7.5 19 q7.5 8 18.5 8 q12 0 20 -8 q8 -8 8 -19 q0 -12 -7.5 -20 q-7.5 -8 -19.5 -8 ZM370 649 q-11 0 -19.5 8 q-8.5 8 -8.5 20 q0 11 8 19 q8 8 19 8 q11 0 19.5 -8 q8.5 -8 8.5 -19 q0 -12 -8 -20 q-8 -8 -19 -8 ZM437 522 l29 0 l0 -522 l-25 0 q0 85 -2 115 q-21 -58 -69.5 -91 q-48.5 -33 -109.5 -33 q-78 0 -126.5 51 q-48.5 51 -48.5 147 l0 333 l29 0 l0 -326 q0 -87 41.5 -132 q41.5 -45 108.5 -45 q46 0 85.5 22 q39.5 22 63.5 64.5 q24 42.5 24 102.5 l0 314 Z" /><glyph glyph-name="uni01D6" unicode="&#x1d6;" d="M142 808 l0 28 l266 0 l0 -28 l-266 0 ZM181 649 q-11 0 -19 8 q-8 8 -8 20 q0 11 7.5 19 q7.5 8 18.5 8 q12 0 20 -8 q8 -8 8 -19 q0 -12 -7.5 -20 q-7.5 -8 -19.5 -8 ZM370 649 q-11 0 -19.5 8 q-8.5 8 -8.5 20 q0 11 8 19 q8 8 19 8 q11 0 19.5 -8 q8.5 -8 8.5 -19 q0 -12 -8 -20 q-8 -8 -19 -8 ZM437 522 l29 0 l0 -522 l-25 0 q0 85 -2 115 q-21 -58 -69.5 -91 q-48.5 -33 -109.5 -33 q-78 0 -126.5 51 q-48.5 51 -48.5 147 l0 333 l29 0 l0 -326 q0 -87 41.5 -132 q41.5 -45 108.5 -45 q46 0 85.5 22 q39.5 22 63.5 64.5 q24 42.5 24 102.5 l0 314 Z" /><glyph glyph-name="uni1EE5" unicode="&#x1ee5;" d="M437 522 l29 0 l0 -522 l-25 0 q0 85 -2 115 q-21 -58 -69.5 -91 q-48.5 -33 -109.5 -33 q-78 0 -126.5 51 q-48.5 51 -48.5 147 l0 333 l29 0 l0 -326 q0 -87 41.5 -132 q41.5 -45 108.5 -45 q46 0 85.5 22 q39.5 22 63.5 64.5 q24 42.5 24 102.5 l0 314 ZM289 -155 q-12 0 -20 8.5 q-8 8.5 -8 19.5 q0 11 8 19 q8 8 20 8 q11 0 19 -8 q8 -8 8 -19 q0 -11 -8 -19.5 q-8 -8.5 -19 -8.5 Z" /><glyph glyph-name="ugrave" unicode="ù" d="M179 740 l34 0 l79 -141 l-27 0 l-86 141 ZM437 522 l29 0 l0 -522 l-25 0 q0 85 -2 115 q-21 -58 -69.5 -91 q-48.5 -33 -109.5 -33 q-78 0 -126.5 51 q-48.5 51 -48.5 147 l0 333 l29 0 l0 -326 q0 -87 41.5 -132 q41.5 -45 108.5 -45 q46 0 85.5 22 q39.5 22 63.5 64.5 q24 42.5 24 102.5 l0 314 Z" /><glyph glyph-name="uni1EE7" unicode="&#x1ee7;" d="M193 741 q31 18 67 18 q39 0 66 -21.5 q27 -21.5 27 -58.5 q0 -34 -23.5 -57.5 q-23.5 -23.5 -62.5 -35.5 l-12 19 q35 12 53 29 q18 17 18 43 q0 27 -19 43 q-19 16 -49 16 q-31 0 -59 -17 l-6 22 ZM437 522 l29 0 l0 -522 l-25 0 q0 85 -2 115 q-21 -58 -69.5 -91 q-48.5 -33 -109.5 -33 q-78 0 -126.5 51 q-48.5 51 -48.5 147 l0 333 l29 0 l0 -326 q0 -87 41.5 -132 q41.5 -45 108.5 -45 q46 0 85.5 22 q39.5 22 63.5 64.5 q24 42.5 24 102.5 l0 314 Z" /><glyph glyph-name="uhorn" unicode="&#x1b0;" d="M559 599 q0 -57 -20.5 -78 q-20.5 -21 -72.5 -23 l0 -498 l-25 0 q0 85 -2 115 q-21 -58 -69.5 -91 q-48.5 -33 -109.5 -33 q-78 0 -126.5 51 q-48.5 51 -48.5 147 l0 333 l29 0 l0 -326 q0 -87 41.5 -132 q41.5 -45 108.5 -45 q46 0 85.5 22 q39.5 22 63.5 64.5 q24 42.5 24 102.5 l0 314 l12 0 q47 0 65 15 q18 15 18 62 q0 25 -5 49 l27 0 q5 -24 5 -49 Z" /><glyph glyph-name="uni1EE9" unicode="&#x1ee9;" d="M258 599 l79 141 l34 0 l-86 -141 l-27 0 ZM559 599 q0 -57 -20.5 -78 q-20.5 -21 -72.5 -23 l0 -498 l-25 0 q0 85 -2 115 q-21 -58 -69.5 -91 q-48.5 -33 -109.5 -33 q-78 0 -126.5 51 q-48.5 51 -48.5 147 l0 333 l29 0 l0 -326 q0 -87 41.5 -132 q41.5 -45 108.5 -45 q46 0 85.5 22 q39.5 22 63.5 64.5 q24 42.5 24 102.5 l0 314 l12 0 q47 0 65 15 q18 15 18 62 q0 25 -5 49 l27 0 q5 -24 5 -49 Z" /><glyph glyph-name="uni1EF1" unicode="&#x1ef1;" d="M559 599 q0 -57 -20.5 -78 q-20.5 -21 -72.5 -23 l0 -498 l-25 0 q0 85 -2 115 q-21 -58 -69.5 -91 q-48.5 -33 -109.5 -33 q-78 0 -126.5 51 q-48.5 51 -48.5 147 l0 333 l29 0 l0 -326 q0 -87 41.5 -132 q41.5 -45 108.5 -45 q46 0 85.5 22 q39.5 22 63.5 64.5 q24 42.5 24 102.5 l0 314 l12 0 q47 0 65 15 q18 15 18 62 q0 25 -5 49 l27 0 q5 -24 5 -49 ZM289 -155 q-12 0 -20 8.5 q-8 8.5 -8 19.5 q0 11 8 19 q8 8 20 8 q11 0 19 -8 q8 -8 8 -19 q0 -11 -8 -19.5 q-8 -8.5 -19 -8.5 Z" /><glyph glyph-name="uni1EEB" unicode="&#x1eeb;" d="M179 740 l34 0 l79 -141 l-27 0 l-86 141 ZM559 599 q0 -57 -20.5 -78 q-20.5 -21 -72.5 -23 l0 -498 l-25 0 q0 85 -2 115 q-21 -58 -69.5 -91 q-48.5 -33 -109.5 -33 q-78 0 -126.5 51 q-48.5 51 -48.5 147 l0 333 l29 0 l0 -326 q0 -87 41.5 -132 q41.5 -45 108.5 -45 q46 0 85.5 22 q39.5 22 63.5 64.5 q24 42.5 24 102.5 l0 314 l12 0 q47 0 65 15 q18 15 18 62 q0 25 -5 49 l27 0 q5 -24 5 -49 Z" /><glyph glyph-name="uni1EED" unicode="&#x1eed;" d="M193 741 q31 18 67 18 q39 0 66 -21.5 q27 -21.5 27 -58.5 q0 -34 -23.5 -57.5 q-23.5 -23.5 -62.5 -35.5 l-12 19 q35 12 53 29 q18 17 18 43 q0 27 -19 43 q-19 16 -49 16 q-31 0 -59 -17 l-6 22 ZM559 599 q0 -57 -20.5 -78 q-20.5 -21 -72.5 -23 l0 -498 l-25 0 q0 85 -2 115 q-21 -58 -69.5 -91 q-48.5 -33 -109.5 -33 q-78 0 -126.5 51 q-48.5 51 -48.5 147 l0 333 l29 0 l0 -326 q0 -87 41.5 -132 q41.5 -45 108.5 -45 q46 0 85.5 22 q39.5 22 63.5 64.5 q24 42.5 24 102.5 l0 314 l12 0 q47 0 65 15 q18 15 18 62 q0 25 -5 49 l27 0 q5 -24 5 -49 Z" /><glyph glyph-name="uni1EEF" unicode="&#x1eef;" d="M136 622 q2 43 22 71.5 q20 28.5 55 28.5 q23 0 37.5 -11.5 q14.5 -11.5 32.5 -34.5 q14 -19 26 -29 q12 -10 28 -10 q22 0 35 19.5 q13 19.5 16 54.5 l26 0 q-2 -42 -22 -70.5 q-20 -28.5 -55 -28.5 q-23 0 -37.5 11.5 q-14.5 11.5 -32.5 34.5 q-15 19 -26.5 28.5 q-11.5 9.5 -27.5 9.5 q-43 0 -51 -74 l-26 0 ZM559 599 q0 -57 -20.5 -78 q-20.5 -21 -72.5 -23 l0 -498 l-25 0 q0 85 -2 115 q-21 -58 -69.5 -91 q-48.5 -33 -109.5 -33 q-78 0 -126.5 51 q-48.5 51 -48.5 147 l0 333 l29 0 l0 -326 q0 -87 41.5 -132 q41.5 -45 108.5 -45 q46 0 85.5 22 q39.5 22 63.5 64.5 q24 42.5 24 102.5 l0 314 l12 0 q47 0 65 15 q18 15 18 62 q0 25 -5 49 l27 0 q5 -24 5 -49 Z" /><glyph glyph-name="uhungarumlaut" unicode="&#x171;" d="M202 599 l79 141 l34 0 l-86 -141 l-27 0 ZM313 599 l79 141 l34 0 l-86 -141 l-27 0 ZM437 522 l29 0 l0 -522 l-25 0 q0 85 -2 115 q-21 -58 -69.5 -91 q-48.5 -33 -109.5 -33 q-78 0 -126.5 51 q-48.5 51 -48.5 147 l0 333 l29 0 l0 -326 q0 -87 41.5 -132 q41.5 -45 108.5 -45 q46 0 85.5 22 q39.5 22 63.5 64.5 q24 42.5 24 102.5 l0 314 Z" /><glyph glyph-name="umacron" unicode="&#x16b;" d="M142 661 l0 29 l266 0 l0 -29 l-266 0 ZM437 522 l29 0 l0 -522 l-25 0 q0 85 -2 115 q-21 -58 -69.5 -91 q-48.5 -33 -109.5 -33 q-78 0 -126.5 51 q-48.5 51 -48.5 147 l0 333 l29 0 l0 -326 q0 -87 41.5 -132 q41.5 -45 108.5 -45 q46 0 85.5 22 q39.5 22 63.5 64.5 q24 42.5 24 102.5 l0 314 Z" /><glyph glyph-name="uogonek" unicode="&#x173;" d="M534 -192 q-40 -52 -105 -52 q-42 0 -71.5 23.5 q-29.5 23.5 -29.5 73.5 q0 92 113 156 l0 39 q0 49 -2 67 q-21 -58 -69.5 -91 q-48.5 -33 -109.5 -33 q-78 0 -126.5 51 q-48.5 51 -48.5 147 l0 333 l29 0 l0 -326 q0 -87 41.5 -132 q41.5 -45 108.5 -45 q46 0 85.5 22 q39.5 22 63.5 64.5 q24 42.5 24 102.5 l0 314 l29 0 l0 -522 q-56 -36 -83 -68.5 q-27 -32.5 -27 -76.5 q0 -72 74 -72 q28 0 49 11 q21 11 39 32 l16 -18 Z" /><glyph glyph-name="uring" unicode="&#x16f;" d="M195 685 q0 35 23 57.5 q23 22.5 57 22.5 q33 0 55.5 -22.5 q22.5 -22.5 22.5 -57.5 q0 -35 -22.5 -58 q-22.5 -23 -55.5 -23 q-34 0 -57 23 q-23 23 -23 58 ZM218 685 q0 -26 16 -42.5 q16 -16.5 41 -16.5 q24 0 39.5 16.5 q15.5 16.5 15.5 42.5 q0 25 -15.5 41.5 q-15.5 16.5 -39.5 16.5 q-25 0 -41 -16.5 q-16 -16.5 -16 -41.5 ZM437 522 l29 0 l0 -522 l-25 0 q0 85 -2 115 q-21 -58 -69.5 -91 q-48.5 -33 -109.5 -33 q-78 0 -126.5 51 q-48.5 51 -48.5 147 l0 333 l29 0 l0 -326 q0 -87 41.5 -132 q41.5 -45 108.5 -45 q46 0 85.5 22 q39.5 22 63.5 64.5 q24 42.5 24 102.5 l0 314 Z" /><glyph glyph-name="utilde" unicode="&#x169;" d="M136 622 q2 43 22 71.5 q20 28.5 55 28.5 q23 0 37.5 -11.5 q14.5 -11.5 32.5 -34.5 q14 -19 26 -29 q12 -10 28 -10 q22 0 35 19.5 q13 19.5 16 54.5 l26 0 q-2 -42 -22 -70.5 q-20 -28.5 -55 -28.5 q-23 0 -37.5 11.5 q-14.5 11.5 -32.5 34.5 q-15 19 -26.5 28.5 q-11.5 9.5 -27.5 9.5 q-43 0 -51 -74 l-26 0 ZM437 522 l29 0 l0 -522 l-25 0 q0 85 -2 115 q-21 -58 -69.5 -91 q-48.5 -33 -109.5 -33 q-78 0 -126.5 51 q-48.5 51 -48.5 147 l0 333 l29 0 l0 -326 q0 -87 41.5 -132 q41.5 -45 108.5 -45 q46 0 85.5 22 q39.5 22 63.5 64.5 q24 42.5 24 102.5 l0 314 Z" /><glyph glyph-name="v" unicode="v" d="M46 522 l199 -480 l185 480 l33 0 l-209 -522 l-23 0 l-219 522 l34 0 Z" /><glyph glyph-name="w" unicode="w" d="M384 522 l164 -470 l154 470 l27 0 l-171 -522 l-21 0 l-165 468 l-154 -468 l-20 0 l-185 522 l32 0 l163 -470 l153 470 l23 0 Z" /><glyph glyph-name="wacute" unicode="&#x1e83;" d="M364 599 l79 141 l34 0 l-86 -141 l-27 0 ZM384 522 l164 -470 l154 470 l27 0 l-171 -522 l-21 0 l-165 468 l-154 -468 l-20 0 l-185 522 l32 0 l163 -470 l153 470 l23 0 Z" /><glyph glyph-name="wcircumflex" unicode="&#x175;" d="M368 740 l24 0 l106 -141 l-31 0 l-86 117 l-88 -117 l-31 0 l106 141 ZM384 522 l164 -470 l154 470 l27 0 l-171 -522 l-21 0 l-165 468 l-154 -468 l-20 0 l-185 522 l32 0 l163 -470 l153 470 l23 0 Z" /><glyph glyph-name="wdieresis" unicode="&#x1e85;" d="M287 649 q-11 0 -19.5 8 q-8.5 8 -8.5 20 q0 11 8 19 q8 8 19 8 q12 0 20 -8 q8 -8 8 -19 q0 -12 -8 -20 q-8 -8 -19 -8 ZM475 649 q-11 0 -19 8 q-8 8 -8 20 q0 11 8 19 q8 8 19 8 q11 0 19 -8 q8 -8 8 -19 q0 -12 -7.5 -20 q-7.5 -8 -19.5 -8 ZM384 522 l164 -470 l154 470 l27 0 l-171 -522 l-21 0 l-165 468 l-154 -468 l-20 0 l-185 522 l32 0 l163 -470 l153 470 l23 0 Z" /><glyph glyph-name="wgrave" unicode="&#x1e81;" d="M285 740 l34 0 l79 -141 l-27 0 l-86 141 ZM384 522 l164 -470 l154 470 l27 0 l-171 -522 l-21 0 l-165 468 l-154 -468 l-20 0 l-185 522 l32 0 l163 -470 l153 470 l23 0 Z" /><glyph glyph-name="x" unicode="x" d="M230 286 l171 236 l36 0 l-191 -259 l191 -263 l-38 0 l-172 236 l-171 -236 l-37 0 l191 260 l-191 262 l39 0 l172 -236 Z" /><glyph glyph-name="y" unicode="y" d="M427 522 l33 0 l-257 -644 q-25 -64 -52.5 -93 q-27.5 -29 -77.5 -29 q-43 0 -68 20 l13 25 q10 -7 25 -12.5 q15 -5.5 30 -5.5 q36 0 60 25.5 q24 25.5 47 81.5 l40 102 l-210 530 l35 0 l190 -490 l192 490 Z" /><glyph glyph-name="yacute" unicode="ý" d="M301 739 l34 0 l-86 -142 l-27 0 l79 142 ZM427 522 l33 0 l-257 -644 q-25 -64 -52.5 -93 q-27.5 -29 -77.5 -29 q-43 0 -68 20 l13 25 q10 -7 25 -12.5 q15 -5.5 30 -5.5 q36 0 60 25.5 q24 25.5 47 81.5 l40 102 l-210 530 l35 0 l190 -490 l192 490 Z" /><glyph glyph-name="ycircumflex" unicode="&#x177;" d="M325 597 l-86 117 l-88 -117 l-31 0 l106 142 l24 0 l106 -142 l-31 0 ZM427 522 l33 0 l-257 -644 q-25 -64 -52.5 -93 q-27.5 -29 -77.5 -29 q-43 0 -68 20 l13 25 q10 -7 25 -12.5 q15 -5.5 30 -5.5 q36 0 60 25.5 q24 25.5 47 81.5 l40 102 l-210 530 l35 0 l190 -490 l192 490 Z" /><glyph glyph-name="ydieresis" unicode="ÿ" d="M145 647 q-11 0 -19.5 8 q-8.5 8 -8.5 20 q0 11 8 19 q8 8 19 8 q12 0 20 -8 q8 -8 8 -19 q0 -12 -8 -20 q-8 -8 -19 -8 ZM333 647 q-11 0 -19 8 q-8 8 -8 20 q0 11 8 19 q8 8 19 8 q11 0 19 -8 q8 -8 8 -19 q0 -12 -7.5 -20 q-7.5 -8 -19.5 -8 ZM427 522 l33 0 l-257 -644 q-25 -64 -52.5 -93 q-27.5 -29 -77.5 -29 q-43 0 -68 20 l13 25 q10 -7 25 -12.5 q15 -5.5 30 -5.5 q36 0 60 25.5 q24 25.5 47 81.5 l40 102 l-210 530 l35 0 l190 -490 l192 490 Z" /><glyph glyph-name="uni1EF5" unicode="&#x1ef5;" d="M427 522 l33 0 l-257 -644 q-25 -64 -52.5 -93 q-27.5 -29 -77.5 -29 q-43 0 -68 20 l13 25 q10 -7 25 -12.5 q15 -5.5 30 -5.5 q36 0 60 25.5 q24 25.5 47 81.5 l40 102 l-210 530 l35 0 l190 -490 l192 490 ZM389 -100 q11 0 19 -8 q8 -8 8 -19 q0 -11 -8 -19.5 q-8 -8.5 -19 -8.5 q-12 0 -20 8.5 q-8 8.5 -8 19.5 q0 11 8 19 q8 8 20 8 Z" /><glyph glyph-name="ygrave" unicode="&#x1ef3;" d="M177 739 l79 -142 l-27 0 l-86 142 l34 0 ZM427 522 l33 0 l-257 -644 q-25 -64 -52.5 -93 q-27.5 -29 -77.5 -29 q-43 0 -68 20 l13 25 q10 -7 25 -12.5 q15 -5.5 30 -5.5 q36 0 60 25.5 q24 25.5 47 81.5 l40 102 l-210 530 l35 0 l190 -490 l192 490 Z" /><glyph glyph-name="uni1EF7" unicode="&#x1ef7;" d="M222 734 q-32 0 -60 -17 l-5 22 q31 18 67 18 q40 0 66.5 -21 q26.5 -21 26.5 -58 q0 -35 -23.5 -58.5 q-23.5 -23.5 -62.5 -35.5 l-12 19 q35 12 53 29 q18 17 18 43 q0 27 -19 43 q-19 16 -49 16 ZM427 522 l33 0 l-257 -644 q-25 -64 -52.5 -93 q-27.5 -29 -77.5 -29 q-43 0 -68 20 l13 25 q10 -7 25 -12.5 q15 -5.5 30 -5.5 q36 0 60 25.5 q24 25.5 47 81.5 l40 102 l-210 530 l35 0 l190 -490 l192 490 Z" /><glyph glyph-name="uni1EF9" unicode="&#x1ef9;" d="M177 694 q-22 0 -35 -19.5 q-13 -19.5 -16 -53.5 l-26 0 q2 42 22 70.5 q20 28.5 55 28.5 q23 0 37.5 -11.5 q14.5 -11.5 32.5 -34.5 q15 -19 26.5 -28.5 q11.5 -9.5 27.5 -9.5 q43 0 51 74 l26 0 q-2 -43 -22 -71.5 q-20 -28.5 -55 -28.5 q-23 0 -37.5 11.5 q-14.5 11.5 -32.5 34.5 q-15 19 -26.5 28.5 q-11.5 9.5 -27.5 9.5 ZM427 522 l33 0 l-257 -644 q-25 -64 -52.5 -93 q-27.5 -29 -77.5 -29 q-43 0 -68 20 l13 25 q10 -7 25 -12.5 q15 -5.5 30 -5.5 q36 0 60 25.5 q24 25.5 47 81.5 l40 102 l-210 530 l35 0 l190 -490 l192 490 Z" /><glyph glyph-name="z" unicode="z" d="M403 522 l0 -17 l-321 -479 l332 0 l0 -26 l-373 0 l0 18 l321 478 l-299 0 l0 26 l340 0 Z" /><glyph glyph-name="zacute" unicode="&#x17a;" d="M213 597 l79 142 l34 0 l-86 -142 l-27 0 ZM403 522 l0 -17 l-321 -479 l332 0 l0 -26 l-373 0 l0 18 l321 478 l-297 0 l0 26 l338 0 Z" /><glyph glyph-name="zcaron" unicode="&#x17e;" d="M143 739 l87 -117 l86 117 l31 0 l-105 -142 l-24 0 l-106 142 l31 0 ZM403 522 l0 -17 l-321 -479 l332 0 l0 -26 l-373 0 l0 18 l321 478 l-297 0 l0 26 l338 0 Z" /><glyph glyph-name="zdotaccent" unicode="&#x17c;" d="M230 655 q-11 0 -19.5 8 q-8.5 8 -8.5 20 q0 11 8.5 19 q8.5 8 19.5 8 q11 0 19 -8 q8 -8 8 -19 q0 -12 -8 -20 q-8 -8 -19 -8 ZM403 522 l0 -17 l-321 -479 l332 0 l0 -26 l-373 0 l0 18 l321 478 l-297 0 l0 26 l338 0 Z" /><glyph glyph-name="ordfeminine" unicode="ª" d="M181 737 q52 0 86.5 -34 q34.5 -34 34.5 -98 l0 -227 l-23 0 l0 61 q-13 -30 -43 -48 q-30 -18 -71 -18 q-50 0 -85 27 q-35 27 -35 76 q0 52 40.5 80.5 q40.5 28.5 105.5 28.5 q40 0 85 -12 l0 29 q0 57 -26 84.5 q-26 27.5 -70 27.5 q-66 0 -94 -60 l-21 11 q13 33 45 52.5 q32 19.5 71 19.5 ZM166 395 q47 0 78.5 27 q31.5 27 31.5 77 l0 53 q-49 11 -85 11 q-55 0 -87 -22 q-32 -22 -32 -65 q0 -40 26.5 -60.5 q26.5 -20.5 67.5 -20.5 Z" /><glyph glyph-name="ordmasculine" unicode="º" d="M39 554 q0 53 21 95 q21 42 56.5 65 q35.5 23 77.5 23 q42 0 78 -23 q36 -23 57 -65 q21 -42 21 -95 q0 -53 -21 -94.5 q-21 -41.5 -57 -64 q-36 -22.5 -78 -22.5 q-42 0 -77.5 23 q-35.5 23 -56.5 64 q-21 41 -21 94 ZM66 554 q0 -47 17.5 -83.5 q17.5 -36.5 46.5 -56 q29 -19.5 64 -19.5 q36 0 65 19.5 q29 19.5 46 56 q17 36.5 17 83.5 q0 47 -17 83.5 q-17 36.5 -46.5 56.5 q-29.5 20 -64.5 20 q-35 0 -64 -20 q-29 -20 -46.5 -56.5 q-17.5 -36.5 -17.5 -83.5 Z" /><glyph glyph-name="uni207F" unicode="&#x207f;" d="M209 737 q53 0 86 -34.5 q33 -34.5 33 -99.5 l0 -225 l-26 0 l0 218 q0 59 -25.5 88.5 q-25.5 29.5 -69.5 29.5 q-49 0 -80.5 -33 q-31.5 -33 -31.5 -94 l0 -209 l-25 0 l0 352 l22 0 q0 -50 1 -70 q15 36 46 56.5 q31 20.5 70 20.5 Z" /><glyph glyph-name="uni0410" unicode="&#x410;" d="M327 732 l288 -732 l-34 0 l-97 250 l-337 0 l-96 -250 l-32 0 l282 732 l26 0 ZM473 278 l-159 409 l-157 -409 l316 0 Z" /><glyph glyph-name="uni0411" unicode="&#x411;" d="M309 403 q126 0 189.5 -54 q63.5 -54 63.5 -147 q0 -93 -63.5 -147.5 q-63.5 -54.5 -189.5 -54.5 l-209 0 l0 732 l396 0 l0 -28 l-366 0 l0 -301 l179 0 ZM302 28 q115 0 171 48 q56 48 56 126 q0 79 -56 126 q-56 47 -171 47 l-172 0 l0 -347 l172 0 Z" /><glyph glyph-name="uni0412" unicode="&#x412;" d="M391 382 q80 -15 125.5 -62.5 q45.5 -47.5 45.5 -124.5 q0 -89 -63.5 -142 q-63.5 -53 -189.5 -53 l-209 0 l0 732 l191 0 q72 0 124 -24.5 q52 -24.5 79 -67 q27 -42.5 27 -96.5 q0 -60 -33.5 -102 q-33.5 -42 -96.5 -60 ZM130 704 l0 -313 l158 0 q97 0 149 42.5 q52 42.5 52 110.5 q0 70 -54 115 q-54 45 -151 45 l-154 0 ZM302 28 q115 0 171 46 q56 46 56 121 q0 79 -58 124 q-58 45 -161 45 l-180 0 l0 -336 l172 0 Z" /><glyph glyph-name="uni0413" unicode="&#x413;" d="M100 732 l395 0 l0 -28 l-365 0 l0 -704 l-30 0 l0 732 Z" /><glyph glyph-name="uni0403" unicode="&#x403;" d="M294 810 l79 118 l34 0 l-86 -118 l-27 0 ZM100 732 l395 0 l0 -28 l-365 0 l0 -704 l-30 0 l0 732 Z" /><glyph glyph-name="uni0490" unicode="&#x490;" d="M100 732 l365 0 l18 151 l25 0 l-14 -179 l-364 0 l0 -704 l-30 0 l0 732 Z" /><glyph glyph-name="uni0414" unicode="&#x414;" d="M601 28 l75 0 l-4 -200 l-25 0 l-3 172 l-597 0 l-4 -172 l-24 0 l-4 200 l27 0 q53 0 83.5 33.5 q30.5 33.5 44 95 q13.5 61.5 20.5 160.5 l26 415 l385 0 l0 -704 ZM570 28 l0 676 l-325 0 l-24 -391 q-8 -119 -28 -188.5 q-20 -69.5 -67 -96.5 l444 0 Z" /><glyph glyph-name="uni0415" unicode="&#x415;" d="M461 366 l-331 0 l0 -338 l376 0 l0 -28 l-406 0 l0 732 l395 0 l0 -28 l-365 0 l0 -310 l331 0 l0 -28 Z" /><glyph glyph-name="uni0400" unicode="&#x400;" d="M187 928 l33 0 l84 -122 l-27 0 l-90 122 ZM461 366 l-331 0 l0 -338 l376 0 l0 -28 l-406 0 l0 732 l395 0 l0 -28 l-365 0 l0 -310 l331 0 l0 -28 Z" /><glyph glyph-name="uni0401" unicode="&#x401;" d="M202 854 q-12 0 -20 7.5 q-8 7.5 -8 19.5 q0 10 8 17.5 q8 7.5 19 7.5 q11 0 19.5 -7.5 q8.5 -7.5 8.5 -17.5 q0 -12 -8 -19.5 q-8 -7.5 -19 -7.5 ZM390 854 q-11 0 -19.5 7.5 q-8.5 7.5 -8.5 19.5 q0 10 8 17.5 q8 7.5 19 7.5 q11 0 19.5 -7.5 q8.5 -7.5 8.5 -17.5 q0 -12 -8 -19.5 q-8 -7.5 -19 -7.5 ZM461 366 l-331 0 l0 -338 l376 0 l0 -28 l-406 0 l0 732 l395 0 l0 -28 l-365 0 l0 -310 l331 0 l0 -28 Z" /><glyph glyph-name="uni0416" unicode="&#x416;" d="M614 370 l275 -370 l-42 0 l-260 355 l-119 0 l0 -355 l-31 0 l0 355 l-119 0 l-261 -355 l-41 0 l275 370 l-265 362 l37 0 l255 -349 l119 0 l0 349 l31 0 l0 -349 l120 0 l255 349 l36 0 l-265 -362 Z" /><glyph glyph-name="uni0417" unicode="&#x417;" d="M338 391 q74 -14 117.5 -64.5 q43.5 -50.5 43.5 -127.5 q0 -93 -58.5 -150.5 q-58.5 -57.5 -167.5 -57.5 q-86 0 -149 39.5 q-63 39.5 -85 113.5 l25 14 q21 -67 77 -103 q56 -36 132 -36 q93 0 143.5 51 q50.5 51 50.5 130 q0 81 -54.5 128 q-54.5 47 -147.5 47 l-61 0 l0 28 l63 0 q48 0 85 21 q37 21 57 56.5 q20 35.5 20 78.5 q0 43 -20 78 q-20 35 -58 55.5 q-38 20.5 -90 20.5 q-63 0 -113.5 -33.5 q-50.5 -33.5 -72.5 -97.5 l-24 14 q25 72 80.5 109 q55.5 37 130.5 37 q94 0 146.5 -51 q52.5 -51 52.5 -130 q0 -61 -33.5 -107 q-33.5 -46 -89.5 -63 Z" /><glyph glyph-name="uni0418" unicode="&#x418;" d="M585 732 l26 0 l0 -732 l-29 0 l0 676 l-456 -676 l-26 0 l0 732 l29 0 l0 -677 l456 677 Z" /><glyph glyph-name="uni0419" unicode="&#x419;" d="M355 806 q-57 0 -92.5 33.5 q-35.5 33.5 -35.5 88.5 l27 0 q2 -47 29.5 -73.5 q27.5 -26.5 71.5 -26.5 q45 0 73 26.5 q28 26.5 29 73.5 l27 0 q0 -55 -35 -88.5 q-35 -33.5 -94 -33.5 ZM585 732 l26 0 l0 -732 l-29 0 l0 676 l-456 -676 l-26 0 l0 732 l29 0 l0 -677 l456 677 Z" /><glyph glyph-name="uni040D" unicode="&#x40d;" d="M259 928 l34 0 l79 -119 l-27 0 l-86 119 ZM585 732 l26 0 l0 -732 l-29 0 l0 676 l-456 -676 l-26 0 l0 732 l29 0 l0 -677 l456 677 Z" /><glyph glyph-name="uni041A" unicode="&#x41a;" d="M291 370 l300 -370 l-42 0 l-284 355 l-135 0 l0 -355 l-30 0 l0 732 l30 0 l0 -349 l137 0 l277 349 l37 0 l-290 -362 Z" /><glyph glyph-name="uni040C" unicode="&#x40c;" d="M317 806 l84 122 l33 0 l-90 -122 l-27 0 ZM291 370 l300 -370 l-42 0 l-284 355 l-135 0 l0 -355 l-30 0 l0 732 l30 0 l0 -349 l137 0 l277 349 l37 0 l-290 -362 Z" /><glyph glyph-name="uni041B" unicode="&#x41b;" d="M610 732 l0 -732 l-31 0 l0 704 l-380 0 l-20 -500 q-3 -79 -16 -124 q-13 -45 -46 -67 q-33 -22 -95 -22 l0 28 q51 0 77 18.5 q26 18.5 36 57.5 q10 39 13 112 l21 525 l441 0 Z" /><glyph glyph-name="uni041C" unicode="&#x41c;" d="M714 732 l26 0 l0 -732 l-29 0 l0 672 l-281 -440 l-19 0 l-282 441 l0 -673 l-29 0 l0 732 l27 0 l294 -461 l293 461 Z" /><glyph glyph-name="uni041D" unicode="&#x41d;" d="M130 395 l452 0 l0 337 l31 0 l0 -732 l-31 0 l0 367 l-452 0 l0 -367 l-30 0 l0 732 l30 0 l0 -337 Z" /><glyph glyph-name="uni041E" unicode="&#x41e;" d="M62 367 q0 112 39.5 197 q39.5 85 110 131.5 q70.5 46.5 160.5 46.5 q90 0 160.5 -46.5 q70.5 -46.5 110 -131.5 q39.5 -85 39.5 -197 q0 -112 -40 -197.5 q-40 -85.5 -110.5 -132 q-70.5 -46.5 -159.5 -46.5 q-90 0 -160.5 46.5 q-70.5 46.5 -110 131.5 q-39.5 85 -39.5 198 ZM94 367 q0 -102 35 -181 q35 -79 98 -123 q63 -44 145 -44 q81 0 144.5 44 q63.5 44 98.5 123 q35 79 35 181 q0 101 -35 180 q-35 79 -98.5 122.5 q-63.5 43.5 -144.5 43.5 q-81 0 -144.5 -43.5 q-63.5 -43.5 -98.5 -122 q-35 -78.5 -35 -180.5 Z" /><glyph glyph-name="uni041F" unicode="&#x41f;" d="M100 732 l510 0 l0 -732 l-31 0 l0 704 l-449 0 l0 -704 l-30 0 l0 732 Z" /><glyph glyph-name="uni0420" unicode="&#x420;" d="M267 732 q73 0 130 -25.5 q57 -25.5 88.5 -73 q31.5 -47.5 31.5 -110.5 q0 -63 -31.5 -111 q-31.5 -48 -88.5 -73.5 q-57 -25.5 -130 -25.5 l-137 0 l0 -313 l-30 0 l0 732 l167 0 ZM263 341 q100 0 161 48.5 q61 48.5 61 133.5 q0 85 -61 133 q-61 48 -161 48 l-133 0 l0 -363 l133 0 Z" /><glyph glyph-name="uni0421" unicode="&#x421;" d="M373 20 q73 0 123.5 35 q50.5 35 73.5 94 l24 -15 q-24 -64 -81.5 -103.5 q-57.5 -39.5 -139.5 -39.5 q-89 0 -160 47.5 q-71 47.5 -111 133 q-40 85.5 -40 195.5 q0 110 40 195.5 q40 85.5 111 132.5 q71 47 160 47 q82 0 139.5 -39.5 q57.5 -39.5 81.5 -103.5 l-24 -15 q-23 59 -73.5 94 q-50.5 35 -123.5 35 q-81 0 -144.5 -44 q-63.5 -44 -99 -122.5 q-35.5 -78.5 -35.5 -179.5 q0 -100 35.5 -179 q35.5 -79 99 -123.5 q63.5 -44.5 144.5 -44.5 Z" /><glyph glyph-name="uni0422" unicode="&#x422;" d="M18 732 l493 0 l0 -28 l-231 0 l0 -704 l-31 0 l0 704 l-231 0 l0 28 Z" /><glyph glyph-name="uni0423" unicode="&#x423;" d="M299 244 l226 488 l33 0 l-247 -525 q-41 -87 -69 -132 q-28 -45 -58 -64.5 q-30 -19.5 -71 -19.5 q-47 0 -72 19 l0 33 q31 -23 72 -23 q33 0 57 16.5 q24 16.5 49 56 q25 39.5 63 118.5 l-263 521 l36 0 l244 -488 Z" /><glyph glyph-name="uni040E" unicode="&#x40e;" d="M291 806 q-57 0 -92.5 33.5 q-35.5 33.5 -35.5 88.5 l27 0 q1 -47 29 -73.5 q28 -26.5 72 -26.5 q45 0 72.5 26.5 q27.5 26.5 28.5 73.5 l27 0 q0 -55 -35 -88.5 q-35 -33.5 -93 -33.5 ZM299 244 l226 488 l33 0 l-247 -525 q-41 -87 -69 -132 q-28 -45 -58 -64.5 q-30 -19.5 -71 -19.5 q-47 0 -72 19 l0 33 q31 -23 72 -23 q33 0 57 16.5 q24 16.5 49 56 q25 39.5 63 118.5 l-263 521 l36 0 l244 -488 Z" /><glyph glyph-name="uni0424" unicode="&#x424;" d="M715 367 q0 -83 -42 -147.5 q-42 -64.5 -114.5 -101 q-72.5 -36.5 -160.5 -39.5 l0 -79 l-30 0 l0 79 q-89 3 -161 39.5 q-72 36.5 -114 101 q-42 64.5 -42 147.5 q0 82 42 146.5 q42 64.5 114 101 q72 36.5 161 39.5 l0 78 l30 0 l0 -78 q89 -3 161.5 -39.5 q72.5 -36.5 114 -101 q41.5 -64.5 41.5 -146.5 ZM84 367 q0 -75 36.5 -132.5 q36.5 -57.5 101 -90.5 q64.5 -33 146.5 -35 l0 516 q-81 -3 -145.5 -35 q-64.5 -32 -101.5 -89.5 q-37 -57.5 -37 -133.5 ZM398 109 q81 2 146 35 q65 33 101.5 90.5 q36.5 57.5 36.5 132.5 q0 76 -37 133.5 q-37 57.5 -101.5 89.5 q-64.5 32 -145.5 35 l0 -516 Z" /><glyph glyph-name="uni0425" unicode="&#x425;" d="M593 732 l-265 -361 l274 -371 l-40 0 l-254 347 l-253 -347 l-37 0 l273 372 l-265 360 l39 0 l246 -336 l245 336 l37 0 Z" /><glyph glyph-name="uni0427" unicode="&#x427;" d="M491 732 l30 0 l0 -732 l-30 0 l0 395 q-23 -65 -79.5 -101.5 q-56.5 -36.5 -134.5 -36.5 q-100 0 -161 58.5 q-61 58.5 -61 176.5 l0 240 l30 0 l0 -234 q0 -106 52 -159.5 q52 -53.5 141 -53.5 q90 0 151.5 55 q61.5 55 61.5 173 l0 219 Z" /><glyph glyph-name="uni0426" unicode="&#x426;" d="M610 732 l0 -704 l74 0 l-3 -200 l-25 0 l-3 172 l-553 0 l0 732 l30 0 l0 -704 l449 0 l0 704 l31 0 Z" /><glyph glyph-name="uni0428" unicode="&#x428;" d="M512 28 l350 0 l0 704 l31 0 l0 -732 l-793 0 l0 732 l30 0 l0 -704 l351 0 l0 704 l31 0 l0 -704 Z" /><glyph glyph-name="uni0429" unicode="&#x429;" d="M862 732 l31 0 l0 -704 l73 0 l-4 -200 l-25 0 l-3 172 l-834 0 l0 732 l30 0 l0 -704 l351 0 l0 704 l31 0 l0 -704 l350 0 l0 704 Z" /><glyph glyph-name="uni040F" unicode="&#x40f;" d="M130 28 l449 0 l0 704 l31 0 l0 -732 l-239 0 l-4 -172 l-24 0 l-4 172 l-239 0 l0 732 l30 0 l0 -704 Z" /><glyph glyph-name="uni042C" unicode="&#x42c;" d="M309 403 q126 0 189.5 -54 q63.5 -54 63.5 -147 q0 -93 -63.5 -147.5 q-63.5 -54.5 -189.5 -54.5 l-209 0 l0 732 l30 0 l0 -329 l179 0 ZM302 28 q115 0 171 48 q56 48 56 126 q0 79 -56 126 q-56 47 -171 47 l-172 0 l0 -347 l172 0 Z" /><glyph glyph-name="uni042A" unicode="&#x42a;" d="M443 403 q126 0 189 -54 q63 -54 63 -147 q0 -93 -63 -147.5 q-63 -54.5 -189 -54.5 l-210 0 l0 704 l-215 0 l0 28 l246 0 l0 -329 l179 0 ZM436 28 q114 0 170.5 48 q56.5 48 56.5 126 q0 79 -56 126 q-56 47 -171 47 l-172 0 l0 -347 l172 0 Z" /><glyph glyph-name="uni042B" unicode="&#x42b;" d="M309 403 q126 0 189.5 -54 q63.5 -54 63.5 -147 q0 -93 -63.5 -147.5 q-63.5 -54.5 -189.5 -54.5 l-209 0 l0 732 l30 0 l0 -329 l179 0 ZM726 0 l-31 0 l0 732 l31 0 l0 -732 ZM302 28 q115 0 171 48 q56 48 56 126 q0 79 -56 126 q-56 47 -171 47 l-172 0 l0 -347 l172 0 Z" /><glyph glyph-name="uni0409" unicode="&#x409;" d="M792 403 q126 0 189 -54 q63 -54 63 -147 q0 -93 -63 -147.5 q-63 -54.5 -189 -54.5 l-210 0 l0 704 l-383 0 l-20 -501 q-3 -78 -16 -123 q-13 -45 -46 -67 q-33 -22 -95 -22 l0 28 q51 0 77 18.5 q26 18.5 36 57.5 q10 39 13 111 l21 526 l444 0 l0 -329 l179 0 ZM785 28 q114 0 170.5 48 q56.5 48 56.5 126 q0 79 -56 126 q-56 47 -171 47 l-172 0 l0 -347 l172 0 Z" /><glyph glyph-name="uni040A" unicode="&#x40a;" d="M792 395 q127 0 189.5 -52 q62.5 -52 62.5 -145 q0 -92 -63 -145 q-63 -53 -189 -53 l-210 0 l0 367 l-452 0 l0 -367 l-30 0 l0 732 l30 0 l0 -337 l452 0 l0 337 l31 0 l0 -337 l179 0 ZM785 28 q115 0 171 46 q56 46 56 124 q0 78 -55.5 123.5 q-55.5 45.5 -171.5 45.5 l-172 0 l0 -339 l172 0 Z" /><glyph glyph-name="uni0405" unicode="&#x405;" d="M490 184 q0 -89 -58 -141 q-58 -52 -154 -52 q-88 0 -156.5 43 q-68.5 43 -90.5 118 l25 15 q21 -68 82.5 -108 q61.5 -40 139.5 -40 q81 0 130.5 44.5 q49.5 44.5 49.5 118.5 q0 55 -26.5 90 q-26.5 35 -65.5 54.5 q-39 19.5 -105 43.5 q-66 23 -106 43 q-40 20 -67 56 q-27 36 -27 92 q0 59 29 99.5 q29 40.5 77 61 q48 20.5 105 20.5 q82 0 138 -39.5 q56 -39.5 67 -98.5 l-25 -15 q-11 56 -59.5 90 q-48.5 34 -121.5 34 q-76 0 -127 -39 q-51 -39 -51 -111 q0 -48 24.5 -78.5 q24.5 -30.5 60 -48 q35.5 -17.5 99.5 -40.5 q69 -24 111.5 -46 q42.5 -22 72 -62 q29.5 -40 29.5 -104 Z" /><glyph glyph-name="uni0404" unicode="&#x404;" d="M373 20 q73 0 123.5 35 q50.5 35 73.5 94 l24 -15 q-24 -64 -81.5 -103.5 q-57.5 -39.5 -139.5 -39.5 q-89 0 -160 47.5 q-71 47.5 -111 133 q-40 85.5 -40 195.5 q0 110 40 195.5 q40 85.5 111 132.5 q71 47 160 47 q82 0 139.5 -39.5 q57.5 -39.5 81.5 -103.5 l-24 -15 q-23 59 -73.5 94 q-50.5 35 -123.5 35 q-78 0 -140 -41 q-62 -41 -98.5 -115 q-36.5 -74 -40.5 -170 l346 0 l0 -28 l-346 0 q1 -98 37 -175.5 q36 -77.5 99 -120.5 q63 -43 143 -43 Z" /><glyph glyph-name="uni042D" unicode="&#x42d;" d="M259 742 q94 0 161.5 -46.5 q67.5 -46.5 102.5 -131.5 q35 -85 35 -197 q0 -112 -35 -197 q-35 -85 -102.5 -132 q-67.5 -47 -161.5 -47 q-88 0 -148.5 39.5 q-60.5 39.5 -84.5 103.5 l24 15 q22 -58 76 -93.5 q54 -35.5 133 -35.5 q84 0 143.5 42.5 q59.5 42.5 90.5 119.5 q31 77 32 177 l-345 0 l0 28 l345 0 q-5 149 -74 237.5 q-69 88.5 -192 88.5 q-79 0 -133 -35.5 q-54 -35.5 -76 -93.5 l-24 15 q24 64 84.5 103.5 q60.5 39.5 148.5 39.5 Z" /><glyph glyph-name="uni0406" unicode="&#x406;" d="M130 0 l-30 0 l0 732 l30 0 l0 -732 Z" /><glyph glyph-name="uni0407" unicode="&#x407;" d="M22 854 q-12 0 -20 7.5 q-8 7.5 -8 19.5 q0 10 8 17.5 q8 7.5 19 7.5 q11 0 19.5 -7.5 q8.5 -7.5 8.5 -17.5 q0 -12 -8 -19.5 q-8 -7.5 -19 -7.5 ZM210 854 q-11 0 -19.5 7.5 q-8.5 7.5 -8.5 19.5 q0 10 8 17.5 q8 7.5 19 7.5 q11 0 19.5 -7.5 q8.5 -7.5 8.5 -17.5 q0 -12 -8 -19.5 q-8 -7.5 -19 -7.5 ZM130 0 l-30 0 l0 732 l30 0 l0 -732 Z" /><glyph glyph-name="uni0408" unicode="&#x408;" d="M168 -9 q-55 0 -93.5 27 q-38.5 27 -54.5 80 l24 15 q15 -47 47 -70.5 q32 -23.5 77 -23.5 q62 0 93 43.5 q31 43.5 31 132.5 l0 537 l31 0 l0 -540 q0 -99 -40.5 -150 q-40.5 -51 -114.5 -51 Z" /><glyph glyph-name="uni040B" unicode="&#x40b;" d="M494 463 q100 0 161 -58.5 q61 -58.5 61 -176.5 l0 -228 l-31 0 l0 222 q0 106 -51.5 159.5 q-51.5 53.5 -140.5 53.5 q-90 0 -151.5 -55 q-61.5 -55 -61.5 -173 l0 -207 l-31 0 l0 704 l-231 0 l0 28 l493 0 l0 -28 l-231 0 l0 -379 q22 65 78.5 101.5 q56.5 36.5 135.5 36.5 Z" /><glyph glyph-name="uni042E" unicode="&#x42e;" d="M595 742 q86 0 152.5 -44.5 q66.5 -44.5 104 -129 q37.5 -84.5 37.5 -201.5 q0 -117 -38 -202 q-38 -85 -104.5 -129.5 q-66.5 -44.5 -151.5 -44.5 q-89 0 -155 45.5 q-66 45.5 -102.5 130.5 q-36.5 85 -36.5 200 l-171 0 l0 -367 l-30 0 l0 732 l30 0 l0 -337 l171 0 q5 109 43.5 187 q38.5 78 103.5 119 q65 41 147 41 ZM595 19 q77 0 136.5 42 q59.5 42 92.5 120.5 q33 78.5 33 185.5 q0 107 -33 185 q-33 78 -92 119.5 q-59 41.5 -137 41.5 q-78 0 -137 -41.5 q-59 -41.5 -92 -119.5 q-33 -78 -33 -185 q0 -107 33 -186 q33 -79 92 -120.5 q59 -41.5 137 -41.5 Z" /><glyph glyph-name="uni042F" unicode="&#x42f;" d="M243 337 q-80 17 -126.5 67.5 q-46.5 50.5 -46.5 125.5 q0 62 32 108 q32 46 88.5 70 q56.5 24 129.5 24 l162 0 l0 -732 l-31 0 l0 328 l-131 0 q-22 0 -45 3 l-231 -331 l-38 0 l237 337 ZM324 704 q-100 0 -161 -46 q-61 -46 -61 -128 q0 -82 61 -128 q61 -46 161 -46 l127 0 l0 348 l-127 0 Z" /><glyph glyph-name="uni0402" unicode="&#x402;" d="M506 463 q66 0 119.5 -26 q53.5 -26 85 -79.5 q31.5 -53.5 31.5 -130.5 q0 -78 -32 -132.5 q-32 -54.5 -89.5 -81 q-57.5 -26.5 -131.5 -22.5 l0 28 q100 -5 160.5 49 q60.5 54 60.5 158 q0 100 -57 154.5 q-57 54.5 -147 54.5 q-58 0 -109.5 -23 q-51.5 -23 -84 -74 q-32.5 -51 -32.5 -131 l0 -207 l-31 0 l0 704 l-231 0 l0 28 l493 0 l0 -28 l-231 0 l0 -384 q24 67 84.5 105 q60.5 38 141.5 38 Z" /><glyph glyph-name="uni0462" unicode="&#x462;" d="M392 403 q126 0 189.5 -54 q63.5 -54 63.5 -147 q0 -93 -63.5 -147.5 q-63.5 -54.5 -189.5 -54.5 l-209 0 l0 580 l-169 0 l0 28 l169 0 l0 124 l30 0 l0 -124 l220 0 l0 -28 l-220 0 l0 -177 l179 0 ZM385 28 q115 0 171 48 q56 48 56 126 q0 79 -56 126 q-56 47 -171 47 l-172 0 l0 -347 l172 0 Z" /><glyph glyph-name="uni0472" unicode="&#x472;" d="M372 742 q89 0 159.5 -47.5 q70.5 -47.5 110.5 -132.5 q40 -85 40 -195 q0 -110 -40 -195.5 q-40 -85.5 -110.5 -133 q-70.5 -47.5 -159.5 -47.5 q-89 0 -159.5 47 q-70.5 47 -110.5 132.5 q-40 85.5 -40 196.5 q0 110 40 195 q40 85 110.5 132.5 q70.5 47.5 159.5 47.5 ZM372 713 q-78 0 -140 -41 q-62 -41 -98 -114.5 q-36 -73.5 -39 -168.5 l555 0 q-4 95 -40 168.5 q-36 73.5 -98 114.5 q-62 41 -140 41 ZM372 19 q80 0 143.5 43.5 q63.5 43.5 99 121.5 q35.5 78 36.5 177 l-556 0 q0 -99 35.5 -177 q35.5 -78 98.5 -121.5 q63 -43.5 143 -43.5 Z" /><glyph glyph-name="uni0474" unicode="&#x474;" d="M648 742 q37 0 65 -28 l-14 -24 q-22 23 -50 23 q-21 0 -35 -15 q-14 -15 -30 -56 l-254 -642 l-25 0 l-286 732 l35 0 l265 -686 l235 605 q20 52 41 71.5 q21 19.5 53 19.5 Z" /><glyph glyph-name="uni0492" unicode="&#x492;" d="M100 732 l396 0 l0 -28 l-365 0 l0 -320 l150 0 l0 -28 l-150 0 l0 -356 l-31 0 l0 356 l-97 0 l0 28 l97 0 l0 348 Z" /><glyph glyph-name="uni049A" unicode="&#x49a;" d="M556 732 l-280 -362 l268 -342 l28 0 l-4 -200 l-25 0 l-3 172 l-16 0 l-274 355 l-120 0 l0 -355 l-30 0 l0 732 l30 0 l0 -349 l122 0 l267 349 l37 0 Z" /><glyph glyph-name="uni049C" unicode="&#x49c;" d="M338 370 l240 -370 l-39 0 l-228 355 l-62 0 l0 -152 l-29 0 l0 152 l-90 0 l0 -355 l-30 0 l0 732 l30 0 l0 -349 l90 0 l0 153 l29 0 l0 -153 l63 0 l221 349 l35 0 l-230 -362 Z" /><glyph glyph-name="uni04A2" unicode="&#x4a2;" d="M613 732 l0 -704 l30 0 l-4 -200 l-24 0 l-4 172 l-29 0 l0 367 l-452 0 l0 -367 l-30 0 l0 732 l30 0 l0 -337 l452 0 l0 337 l31 0 Z" /><glyph glyph-name="uni04AE" unicode="&#x4ae;" d="M298 353 l227 379 l33 0 l-246 -411 l0 -321 l-30 0 l0 322 l-263 410 l37 0 l242 -379 Z" /><glyph glyph-name="uni04B0" unicode="&#x4b0;" d="M298 353 l227 379 l33 0 l-231 -386 l174 0 l0 -28 l-189 0 l0 -318 l-30 0 l0 318 l-190 0 l0 28 l174 0 l-247 386 l37 0 l242 -379 Z" /><glyph glyph-name="uni04B2" unicode="&#x4b2;" d="M593 732 l-267 -360 l255 -344 l27 0 l-4 -200 l-25 0 l-3 172 l-12 0 l-255 349 l-256 -349 l-35 0 l275 371 l-266 361 l36 0 l247 -337 l248 337 l35 0 Z" /><glyph glyph-name="uni04B8" unicode="&#x4b8;" d="M491 732 l30 0 l0 -732 l-30 0 l0 394 q-19 -59 -64.5 -94 q-45.5 -35 -114.5 -41 l0 -151 l-28 0 l0 149 q-111 1 -170 61.5 q-59 60.5 -59 173.5 l0 240 l30 0 l0 -234 q0 -104 51 -158 q51 -54 148 -55 l0 161 l28 0 l0 -159 q80 7 129.5 62 q49.5 55 49.5 164 l0 219 Z" /><glyph glyph-name="uni04BA" unicode="&#x4ba;" d="M130 0 l-30 0 l0 732 l30 0 l0 -395 q23 65 79.5 101.5 q56.5 36.5 134.5 36.5 q100 0 161 -58.5 q61 -58.5 61 -176.5 l0 -240 l-30 0 l0 234 q0 106 -52 159.5 q-52 53.5 -141 53.5 q-90 0 -151.5 -55 q-61.5 -55 -61.5 -173 l0 -219 Z" /><glyph glyph-name="uni04D8" unicode="&#x4d8;" d="M326 742 q89 0 155.5 -45.5 q66.5 -45.5 102.5 -130.5 q36 -85 36 -203 q0 -116 -35 -200 q-35 -84 -99 -128 q-64 -44 -149 -44 q-85 0 -147.5 42.5 q-62.5 42.5 -95.5 114.5 q-33 72 -33 158 q0 27 3 52 l524 0 q-1 173 -69.5 264 q-68.5 91 -193.5 91 q-74 0 -130 -33 q-56 -33 -88 -99 l-23 15 q33 72 97.5 109 q64.5 37 144.5 37 ZM337 19 q110 0 176.5 80.5 q66.5 80.5 73.5 229.5 l-494 0 q-1 -9 -1 -27 q0 -79 29.5 -143.5 q29.5 -64.5 85 -102 q55.5 -37.5 130.5 -37.5 Z" /><glyph glyph-name="uni04E8" unicode="&#x4e8;" d="M372 742 q89 0 159.5 -47.5 q70.5 -47.5 110.5 -132.5 q40 -85 40 -195 q0 -110 -40 -195.5 q-40 -85.5 -110.5 -133 q-70.5 -47.5 -159.5 -47.5 q-89 0 -159.5 47 q-70.5 47 -110.5 132.5 q-40 85.5 -40 196.5 q0 110 40 195 q40 85 110.5 132.5 q70.5 47.5 159.5 47.5 ZM372 713 q-78 0 -140 -41 q-62 -41 -98 -114.5 q-36 -73.5 -39 -168.5 l555 0 q-4 95 -40 168.5 q-36 73.5 -98 114.5 q-62 41 -140 41 ZM372 19 q80 0 143.5 43.5 q63.5 43.5 99 121.5 q35.5 78 36.5 177 l-556 0 q0 -99 35.5 -177 q35.5 -78 98.5 -121.5 q63 -43.5 143 -43.5 Z" /><glyph glyph-name="uni0430" unicode="&#x430;" d="M275 531 q76 0 126 -48 q50 -48 50 -145 l0 -338 l-25 0 q0 67 -1 96 q-21 -48 -67 -76.5 q-46 -28.5 -109 -28.5 q-76 0 -128.5 41 q-52.5 41 -52.5 115 q0 75 61.5 116.5 q61.5 41.5 160.5 41.5 q63 0 132 -18 l0 47 q0 87 -41 128 q-41 41 -107 41 q-53 0 -93 -24 q-40 -24 -59 -66 l-24 13 q19 48 67.5 76.5 q48.5 28.5 109.5 28.5 ZM422 262 q-73 19 -132 19 q-85 0 -138 -35 q-53 -35 -53 -99 q0 -61 43.5 -95 q43.5 -34 107.5 -34 q73 0 122.5 43 q49.5 43 49.5 117 l0 84 Z" /><glyph glyph-name="uni0431" unicode="&#x431;" d="M300 531 q62 0 111 -32.5 q49 -32.5 77 -93 q28 -60.5 28 -143.5 q0 -83 -27.5 -144.5 q-27.5 -61.5 -77.5 -94 q-50 -32.5 -115 -32.5 q-103 0 -168.5 83.5 q-65.5 83.5 -65.5 260.5 q0 102 20.5 198 q20.5 96 75.5 152 q40 40 89.5 52 q49.5 12 120.5 15 q39 1 64 4.5 q25 3.5 43 13.5 l0 -28 q-16 -10 -39.5 -13 q-23.5 -3 -60.5 -4 q-68 -3 -115 -14 q-47 -11 -83 -47 q-82 -82 -86 -316 q19 83 75 133 q56 50 134 50 ZM297 18 q87 0 137 66.5 q50 66.5 50 176.5 q0 72 -23 127 q-23 55 -65.5 85 q-42.5 30 -99.5 30 q-59 0 -104 -32.5 q-45 -32.5 -69 -87.5 q-24 -55 -24 -121 q0 -66 23.5 -121.5 q23.5 -55.5 68.5 -89 q45 -33.5 106 -33.5 Z" /><glyph glyph-name="uni0432" unicode="&#x432;" d="M336 272 q56 -10 88 -44 q32 -34 32 -88 q0 -65 -44.5 -102.5 q-44.5 -37.5 -135.5 -37.5 l-182 0 l0 522 l170 0 q78 0 120.5 -38 q42.5 -38 42.5 -97 q0 -43 -23.5 -73 q-23.5 -30 -67.5 -42 ZM122 496 l0 -215 l141 0 q68 0 100.5 29.5 q32.5 29.5 32.5 76.5 q0 49 -34 79 q-34 30 -102 30 l-138 0 ZM271 26 q81 0 117.5 31 q36.5 31 36.5 83 q0 54 -38 84.5 q-38 30.5 -110 30.5 l-155 0 l0 -229 l149 0 Z" /><glyph glyph-name="uni0433" unicode="&#x433;" d="M94 522 l311 0 l0 -26 l-282 0 l0 -496 l-29 0 l0 522 Z" /><glyph glyph-name="uni0453" unicode="&#x453;" d="M238 597 l80 142 l34 0 l-86 -142 l-28 0 ZM94 522 l311 0 l0 -26 l-282 0 l0 -496 l-29 0 l0 522 Z" /><glyph glyph-name="uni0491" unicode="&#x491;" d="M94 522 l293 0 l13 125 l24 0 l-7 -151 l-294 0 l0 -496 l-29 0 l0 522 Z" /><glyph glyph-name="uni0434" unicode="&#x434;" d="M459 26 l74 0 l-4 -198 l-24 0 l-4 172 l-448 0 l-3 -172 l-25 0 l-4 198 l30 0 q40 0 63 29.5 q23 29.5 33.5 86.5 q10.5 57 16.5 155 l14 225 l281 0 l0 -496 ZM430 26 l0 470 l-225 0 l-12 -202 q-7 -115 -22.5 -179 q-15.5 -64 -49.5 -89 l309 0 Z" /><glyph glyph-name="uni0435" unicode="&#x435;" d="M286 531 q61 0 106 -30.5 q45 -30.5 68.5 -82 q23.5 -51.5 23.5 -113.5 q0 -13 -2 -37 l-389 0 q0 -77 26 -133 q26 -56 72 -85.5 q46 -29.5 105 -29.5 q48 0 87.5 20.5 q39.5 20.5 58.5 60.5 l23 -13 q-21 -47 -68 -72 q-47 -25 -102 -25 q-64 0 -117 33 q-53 33 -84.5 95.5 q-31.5 62.5 -31.5 146.5 q0 81 30 141 q30 60 81 92 q51 32 113 32 ZM284 503 q-78 0 -130.5 -55 q-52.5 -55 -59.5 -154 l359 0 q2 59 -17 106.5 q-19 47.5 -58 75 q-39 27.5 -94 27.5 Z" /><glyph glyph-name="uni0450" unicode="&#x450;" d="M184 740 l34 0 l80 -141 l-28 0 l-86 141 ZM286 531 q61 0 106 -30.5 q45 -30.5 68.5 -82 q23.5 -51.5 23.5 -113.5 q0 -13 -2 -37 l-389 0 q0 -77 26 -133 q26 -56 72 -85.5 q46 -29.5 105 -29.5 q48 0 87.5 20.5 q39.5 20.5 58.5 60.5 l23 -13 q-21 -47 -68 -72 q-47 -25 -102 -25 q-64 0 -117 33 q-53 33 -84.5 95.5 q-31.5 62.5 -31.5 146.5 q0 81 30 141 q30 60 81 92 q51 32 113 32 ZM284 503 q-78 0 -130.5 -55 q-52.5 -55 -59.5 -154 l359 0 q2 59 -17 106.5 q-19 47.5 -58 75 q-39 27.5 -94 27.5 Z" /><glyph glyph-name="uni0451" unicode="&#x451;" d="M187 649 q-12 0 -20 8 q-8 8 -8 20 q0 11 8 19 q8 8 19 8 q11 0 19.5 -8 q8.5 -8 8.5 -19 q0 -12 -7.5 -20 q-7.5 -8 -19.5 -8 ZM375 649 q-11 0 -19.5 8 q-8.5 8 -8.5 20 q0 11 8 19 q8 8 19 8 q12 0 20 -8 q8 -8 8 -19 q0 -12 -7.5 -20 q-7.5 -8 -19.5 -8 ZM286 531 q61 0 106 -30.5 q45 -30.5 68.5 -82 q23.5 -51.5 23.5 -113.5 q0 -13 -2 -37 l-389 0 q0 -77 26 -133 q26 -56 72 -85.5 q46 -29.5 105 -29.5 q48 0 87.5 20.5 q39.5 20.5 58.5 60.5 l23 -13 q-21 -47 -68 -72 q-47 -25 -102 -25 q-64 0 -117 33 q-53 33 -84.5 95.5 q-31.5 62.5 -31.5 146.5 q0 81 30 141 q30 60 81 92 q51 32 113 32 ZM284 503 q-78 0 -130.5 -55 q-52.5 -55 -59.5 -154 l359 0 q2 59 -17 106.5 q-19 47.5 -58 75 q-39 27.5 -94 27.5 Z" /><glyph glyph-name="uni0436" unicode="&#x436;" d="M418 275 l186 247 l34 0 l-195 -259 l197 -263 l-37 0 l-187 249 l-74 0 l0 -249 l-29 0 l0 249 l-75 0 l-187 -249 l-36 0 l197 263 l-195 259 l36 0 l186 -247 l74 0 l0 247 l29 0 l0 -247 l76 0 Z" /><glyph glyph-name="uni0437" unicode="&#x437;" d="M272 273 q57 -10 95 -45 q38 -35 38 -91 q0 -65 -51 -105.5 q-51 -40.5 -140 -40.5 q-68 0 -118.5 26 q-50.5 26 -75.5 80 l23 14 q47 -92 170 -92 q77 0 119 32.5 q42 32.5 42 86.5 q0 57 -47 89 q-47 32 -125 32 l-46 0 l0 26 l48 0 q67 0 109 29 q42 29 42 80 q0 49 -40 79 q-40 30 -103 30 q-56 0 -95.5 -24 q-39.5 -24 -56.5 -69 l-24 14 q17 48 64 77.5 q47 29.5 113 29.5 q76 0 124.5 -38 q48.5 -38 48.5 -98 q0 -48 -31.5 -80 q-31.5 -32 -82.5 -42 Z" /><glyph glyph-name="uni0438" unicode="&#x438;" d="M123 522 l0 -467 l332 467 l22 0 l0 -522 l-29 0 l0 467 l-332 -467 l-22 0 l0 522 l29 0 Z" /><glyph glyph-name="uni0439" unicode="&#x439;" d="M286 605 q-57 0 -93 35.5 q-36 35.5 -36 93.5 l27 0 q2 -49 30 -77 q28 -28 72 -28 q45 0 73 28 q28 28 29 77 l27 0 q0 -58 -35.5 -93.5 q-35.5 -35.5 -93.5 -35.5 ZM123 522 l0 -467 l332 467 l22 0 l0 -522 l-29 0 l0 467 l-332 -467 l-22 0 l0 522 l29 0 Z" /><glyph glyph-name="uni045D" unicode="&#x45d;" d="M190 740 l34 0 l79 -141 l-27 0 l-86 141 ZM123 522 l0 -467 l332 467 l22 0 l0 -522 l-29 0 l0 467 l-332 -467 l-22 0 l0 522 l29 0 Z" /><glyph glyph-name="uni043A" unicode="&#x43a;" d="M216 275 l208 247 l37 0 l-218 -259 l220 -263 l-39 0 l-208 249 l-93 0 l0 -249 l-29 0 l0 522 l29 0 l0 -247 l93 0 Z" /><glyph glyph-name="uni045C" unicode="&#x45c;" d="M256 599 l80 141 l34 0 l-86 -141 l-28 0 ZM216 275 l208 247 l37 0 l-218 -259 l220 -263 l-39 0 l-208 249 l-93 0 l0 -249 l-29 0 l0 522 l29 0 l0 -247 l93 0 Z" /><glyph glyph-name="uni043B" unicode="&#x43b;" d="M448 522 l0 -522 l-29 0 l0 496 l-261 0 l-14 -325 q-3 -64 -13 -101.5 q-10 -37.5 -37.5 -58 q-27.5 -20.5 -79.5 -20.5 l0 28 q42 0 63.5 17 q21.5 17 29.5 49.5 q8 32.5 10 89.5 l13 347 l318 0 Z" /><glyph glyph-name="uni043C" unicode="&#x43c;" d="M562 522 l26 0 l0 -522 l-29 0 l0 463 l-205 -352 l-18 0 l-213 354 l0 -465 l-29 0 l0 522 l27 0 l225 -372 l216 372 Z" /><glyph glyph-name="uni043D" unicode="&#x43d;" d="M123 277 l320 0 l0 245 l29 0 l0 -522 l-29 0 l0 251 l-320 0 l0 -251 l-29 0 l0 522 l29 0 l0 -245 Z" /><glyph glyph-name="uni043E" unicode="&#x43e;" d="M62 261 q0 78 31.5 140 q31.5 62 84 96 q52.5 34 114.5 34 q62 0 114.5 -34 q52.5 -34 84 -96 q31.5 -62 31.5 -140 q0 -78 -31.5 -140 q-31.5 -62 -84 -96 q-52.5 -34 -114.5 -34 q-62 0 -114.5 34 q-52.5 34 -84 96 q-31.5 62 -31.5 140 ZM93 261 q0 -71 27 -126 q27 -55 72.5 -85 q45.5 -30 99.5 -30 q54 0 100 30 q46 30 73 85 q27 55 27 126 q0 71 -27 126 q-27 55 -73 85.5 q-46 30.5 -100 30.5 q-54 0 -99.5 -30.5 q-45.5 -30.5 -72.5 -85.5 q-27 -55 -27 -126 Z" /><glyph glyph-name="uni043F" unicode="&#x43f;" d="M94 522 l378 0 l0 -522 l-29 0 l0 496 l-320 0 l0 -496 l-29 0 l0 522 Z" /></font>
</defs>
</svg>
