<?xml version="1.0" standalone="no"?><!DOCTYPE svg PUBLIC "-//W3C//DTD SVG 1.1//EN" "http://www.w3.org/Graphics/SVG/1.1/DTD/svg11.dtd" ><svg xmlns="http://www.w3.org/2000/svg"><metadata></metadata><defs><font id="HarmonyOS Sans Black Version 1.0" horiz-adv-x="1687"><font-face font-family="HarmonyOS Sans Black" font-weight="900" font-stretch="normal" units-per-em="1000" panose-1="0 0 10 0 0 0 0 0 0 0" ascent="928" descent="-244" x-height="0" bbox="-584 -271 1615 1056" underline-thickness="50" underline-position="-75" unicode-range="U+0000-30fb" /><missing-glyph horiz-adv-x="1000"  /><glyph glyph-name="null" unicode="" d="" /><glyph glyph-name="space" unicode=" " d="" /><glyph glyph-name="A" unicode="A" d="M446 732 l297 -732 l-180 0 l-56 148 l-277 0 l-54 -148 l-170 0 l289 732 l151 0 ZM453 291 l-87 228 l-83 -228 l170 0 Z" /><glyph glyph-name="Aacute" unicode="Á" d="M321 795 l98 133 l167 0 l-134 -133 l-131 0 ZM446 732 l297 -732 l-180 0 l-56 148 l-277 0 l-54 -148 l-170 0 l289 732 l151 0 ZM453 291 l-87 228 l-83 -228 l170 0 Z" /><glyph glyph-name="Abreve" unicode="&#x102;" d="M382 793 q-85 0 -136 36.5 q-51 36.5 -51 98.5 l123 0 q8 -58 64 -58 q59 0 65 58 l123 0 q0 -63 -51 -99 q-51 -36 -137 -36 ZM446 732 l297 -732 l-180 0 l-56 148 l-277 0 l-54 -148 l-170 0 l289 732 l151 0 ZM453 291 l-87 228 l-83 -228 l170 0 Z" /><glyph glyph-name="uni1EAE" unicode="&#x1eae;" d="M321 862 l98 66 l167 0 l-134 -66 l-131 0 ZM382 773 q-84 0 -135.5 18 q-51.5 18 -51.5 49 l123 0 q8 -20 64 -20 q58 0 65 20 l123 0 q0 -31 -51 -49 q-51 -18 -137 -18 ZM446 732 l297 -732 l-180 0 l-56 148 l-277 0 l-54 -148 l-170 0 l289 732 l151 0 ZM453 291 l-87 228 l-83 -228 l170 0 Z" /><glyph glyph-name="uni1EB6" unicode="&#x1eb6;" d="M382 793 q-85 0 -136 36.5 q-51 36.5 -51 98.5 l123 0 q8 -59 64 -59 q58 0 65 59 l123 0 q0 -63 -51 -99 q-51 -36 -137 -36 ZM446 732 l297 -732 l-180 0 l-56 148 l-277 0 l-54 -148 l-170 0 l289 732 l151 0 ZM453 291 l-87 228 l-83 -228 l170 0 ZM381 -238 q-39 0 -67 27.5 q-28 27.5 -28 65.5 q0 38 28 65.5 q28 27.5 67 27.5 q38 0 66.5 -28 q28.5 -28 28.5 -65 q0 -38 -28 -65.5 q-28 -27.5 -67 -27.5 Z" /><glyph glyph-name="uni1EB0" unicode="&#x1eb0;" d="M178 928 l167 0 l98 -66 l-131 0 l-134 66 ZM382 773 q-84 0 -135.5 18 q-51.5 18 -51.5 49 l123 0 q8 -20 64 -20 q58 0 65 20 l123 0 q0 -31 -51 -49 q-51 -18 -137 -18 ZM446 732 l297 -732 l-180 0 l-56 148 l-277 0 l-54 -148 l-170 0 l289 732 l151 0 ZM453 291 l-87 228 l-83 -228 l170 0 Z" /><glyph glyph-name="uni1EB2" unicode="&#x1eb2;" d="M249 915 q50 12 115 12 q59 0 98 -9.5 q39 -9.5 39 -27.5 q0 -33 -127 -48 l-50 28 q70 5 70 11 q0 3 -11 5 q-11 2 -29 2 q-39 0 -84 -8 l-21 35 ZM382 773 q-85 0 -136 17 q-51 17 -51 46 l123 0 q8 -19 64 -19 q59 0 65 19 l123 0 q0 -29 -51 -46 q-51 -17 -137 -17 ZM446 732 l297 -732 l-180 0 l-56 148 l-277 0 l-54 -148 l-170 0 l289 732 l151 0 ZM453 291 l-87 228 l-83 -228 l170 0 Z" /><glyph glyph-name="uni1EB4" unicode="&#x1eb4;" d="M178 866 q2 27 38 44.5 q36 17.5 93 17.5 q35 0 56 -4.5 q21 -4.5 44 -12.5 q3 -1 14 -4.5 q11 -3.5 22 -3.5 q26 0 35 19 l106 0 q-2 -28 -38 -45.5 q-36 -17.5 -93 -17.5 q-35 0 -56 4.5 q-21 4.5 -44 12.5 q-23 9 -36 9 q-24 0 -35 -19 l-106 0 ZM382 773 q-84 0 -135.5 18 q-51.5 18 -51.5 49 l123 0 q8 -21 64 -21 q59 0 65 21 l123 0 q0 -31 -51 -49 q-51 -18 -137 -18 ZM446 732 l297 -732 l-180 0 l-56 148 l-277 0 l-54 -148 l-170 0 l289 732 l151 0 ZM453 291 l-87 228 l-83 -228 l170 0 Z" /><glyph glyph-name="uni01CD" unicode="&#x1cd;" d="M320 928 l62 -62 l61 62 l136 0 l-137 -134 l-121 0 l-137 134 l136 0 ZM446 732 l297 -732 l-180 0 l-56 148 l-277 0 l-54 -148 l-170 0 l289 732 l151 0 ZM453 291 l-87 228 l-83 -228 l170 0 Z" /><glyph glyph-name="Acircumflex" unicode="Â" d="M321 928 l121 0 l137 -134 l-136 0 l-61 62 l-62 -62 l-136 0 l137 134 ZM446 732 l297 -732 l-180 0 l-56 148 l-277 0 l-54 -148 l-170 0 l289 732 l151 0 ZM453 291 l-87 228 l-83 -228 l170 0 Z" /><glyph glyph-name="uni1EA4" unicode="&#x1ea4;" d="M470 857 l98 71 l167 0 l-134 -71 l-131 0 ZM321 846 l121 0 l137 -72 l-143 0 l-54 29 l-55 -29 l-143 0 l137 72 ZM446 732 l297 -732 l-180 0 l-56 148 l-277 0 l-54 -148 l-170 0 l289 732 l151 0 ZM453 291 l-87 228 l-83 -228 l170 0 Z" /><glyph glyph-name="uni1EAC" unicode="&#x1eac;" d="M321 928 l121 0 l137 -134 l-136 0 l-61 62 l-62 -62 l-136 0 l137 134 ZM446 732 l297 -732 l-180 0 l-56 148 l-277 0 l-54 -148 l-170 0 l289 732 l151 0 ZM453 291 l-87 228 l-83 -228 l170 0 ZM381 -238 q-39 0 -67 27.5 q-28 27.5 -28 65.5 q0 38 28 65.5 q28 27.5 67 27.5 q38 0 66.5 -28 q28.5 -28 28.5 -65 q0 -38 -28 -65.5 q-28 -27.5 -67 -27.5 Z" /><glyph glyph-name="uni1EA6" unicode="&#x1ea6;" d="M327 928 l167 0 l98 -71 l-131 0 l-134 71 ZM321 846 l121 0 l137 -72 l-137 0 l-60 32 l-61 -32 l-137 0 l137 72 ZM446 732 l297 -732 l-180 0 l-56 148 l-277 0 l-54 -148 l-170 0 l289 732 l151 0 ZM453 291 l-87 228 l-83 -228 l170 0 Z" /><glyph glyph-name="uni1EA8" unicode="&#x1ea8;" d="M398 915 q47 13 115 13 q59 0 98 -10.5 q39 -10.5 39 -30.5 q0 -37 -128 -52 l-50 30 q38 3 54.5 6 q16.5 3 16.5 7 q0 2 -11.5 4.5 q-11.5 2.5 -28.5 2.5 q-39 0 -84 -8 l-21 38 ZM321 843 l121 0 l137 -69 l-143 0 l-54 27 l-55 -27 l-143 0 l137 69 ZM446 732 l297 -732 l-180 0 l-56 148 l-277 0 l-54 -148 l-170 0 l289 732 l151 0 ZM453 291 l-87 228 l-83 -228 l170 0 Z" /><glyph glyph-name="uni1EAA" unicode="&#x1eaa;" d="M178 863 q2 29 38 47 q36 18 93 18 q35 0 56 -4.5 q21 -4.5 44 -12.5 q23 -9 36 -9 q26 0 35 19 l106 0 q-2 -29 -37.5 -47 q-35.5 -18 -93.5 -18 q-35 0 -56 4.5 q-21 4.5 -44 12.5 q-23 9 -36 9 q-25 0 -35 -19 l-106 0 ZM321 845 l121 0 l137 -71 l-143 0 l-54 28 l-55 -28 l-143 0 l137 71 ZM446 732 l297 -732 l-180 0 l-56 148 l-277 0 l-54 -148 l-170 0 l289 732 l151 0 ZM453 291 l-87 228 l-83 -228 l170 0 Z" /><glyph glyph-name="Adieresis" unicode="Ä" d="M264 757 q-34 0 -58 25 q-24 25 -24 60 q0 35 24 60.5 q24 25.5 58 25.5 q36 0 60 -25 q24 -25 24 -61 q0 -35 -24 -60 q-24 -25 -60 -25 ZM497 757 q-35 0 -58.5 25.5 q-23.5 25.5 -23.5 59.5 q0 36 23.5 61 q23.5 25 58.5 25 q35 0 59.5 -25.5 q24.5 -25.5 24.5 -60.5 q0 -35 -24.5 -60 q-24.5 -25 -59.5 -25 ZM446 732 l297 -732 l-180 0 l-56 148 l-277 0 l-54 -148 l-170 0 l289 732 l151 0 ZM453 291 l-87 228 l-83 -228 l170 0 Z" /><glyph glyph-name="uni1EA0" unicode="&#x1ea0;" d="M446 732 l297 -732 l-180 0 l-56 148 l-277 0 l-54 -148 l-170 0 l289 732 l151 0 ZM453 291 l-87 228 l-83 -228 l170 0 ZM381 -238 q-39 0 -67 27.5 q-28 27.5 -28 65.5 q0 38 28 65.5 q28 27.5 67 27.5 q38 0 66.5 -28 q28.5 -28 28.5 -65 q0 -38 -28 -65.5 q-28 -27.5 -67 -27.5 Z" /><glyph glyph-name="Agrave" unicode="À" d="M178 928 l167 0 l98 -133 l-131 0 l-134 133 ZM446 732 l297 -732 l-180 0 l-56 148 l-277 0 l-54 -148 l-170 0 l289 732 l151 0 ZM453 291 l-87 228 l-83 -228 l170 0 Z" /><glyph glyph-name="uni1EA2" unicode="&#x1ea2;" d="M249 906 q22 10 52.5 16 q30.5 6 62.5 6 q59 0 98 -18 q39 -18 39 -54 q0 -62 -127 -90 l-53 52 q33 7 50 14 q17 7 17 16 q0 8 -10.5 12.5 q-10.5 4.5 -28.5 4.5 q-38 0 -79 -19 l-21 60 ZM446 732 l297 -732 l-180 0 l-56 148 l-277 0 l-54 -148 l-170 0 l289 732 l151 0 ZM453 291 l-87 228 l-83 -228 l170 0 Z" /><glyph glyph-name="Amacron" unicode="&#x100;" d="M206 823 l0 104 l352 0 l0 -104 l-352 0 ZM446 732 l297 -732 l-180 0 l-56 148 l-277 0 l-54 -148 l-170 0 l289 732 l151 0 ZM453 291 l-87 228 l-83 -228 l170 0 Z" /><glyph glyph-name="Aogonek" unicode="&#x104;" d="M809 -192 q-28 -27 -60.5 -39.5 q-32.5 -12.5 -78.5 -12.5 q-64 0 -104 27.5 q-40 27.5 -40 83.5 q0 73 75 133 l-38 0 l-56 148 l-277 0 l-54 -148 l-170 0 l289 732 l151 0 l297 -732 q-55 -31 -81 -57 q-26 -26 -26 -54 q0 -22 13 -32.5 q13 -10.5 35 -10.5 q39 0 73 35 l52 -73 ZM366 519 l-83 -228 l170 0 l-87 228 Z" /><glyph glyph-name="Aring" unicode="Å" d="M255 855 q0 31 36.5 52 q36.5 21 90.5 21 q54 0 89 -20.5 q35 -20.5 35 -52.5 q0 -33 -35 -53.5 q-35 -20.5 -89 -20.5 q-54 0 -90.5 20.5 q-36.5 20.5 -36.5 53.5 ZM338 855 q0 -13 12 -20.5 q12 -7.5 32 -7.5 q19 0 30.5 7.5 q11.5 7.5 11.5 20.5 q0 12 -11.5 19.5 q-11.5 7.5 -30.5 7.5 q-19 0 -31.5 -8 q-12.5 -8 -12.5 -19 ZM446 732 l297 -732 l-180 0 l-56 148 l-277 0 l-54 -148 l-170 0 l289 732 l151 0 ZM453 291 l-87 228 l-83 -228 l170 0 Z" /><glyph glyph-name="Aringacute" unicode="&#x1fa;" d="M315 871 l86 57 l156 0 l-117 -57 l-125 0 ZM266 807 q0 21 32 34.5 q32 13.5 84 13.5 q52 0 83 -13.5 q31 -13.5 31 -34.5 q0 -21 -31 -34 q-31 -13 -83 -13 q-51 0 -83.5 13.5 q-32.5 13.5 -32.5 33.5 ZM342 807 q0 -6 10 -9.5 q10 -3.5 29 -3.5 q18 0 28.5 4 q10.5 4 10.5 9 q0 6 -10.5 10 q-10.5 4 -28.5 4 q-19 0 -29 -4 q-10 -4 -10 -10 ZM446 732 l297 -732 l-180 0 l-56 148 l-277 0 l-54 -148 l-170 0 l289 732 l151 0 ZM453 291 l-87 228 l-83 -228 l170 0 Z" /><glyph glyph-name="uni1E00" unicode="&#x1e00;" d="M446 732 l297 -732 l-180 0 l-56 148 l-277 0 l-54 -148 l-170 0 l289 732 l151 0 ZM453 291 l-87 228 l-83 -228 l170 0 ZM254 -132 q0 50 36 81 q36 31 90 31 q54 0 89 -31 q35 -31 35 -81 q0 -51 -35 -81.5 q-35 -30.5 -89 -30.5 q-54 0 -90 30.5 q-36 30.5 -36 81.5 ZM337 -132 q0 -17 11.5 -27.5 q11.5 -10.5 31.5 -10.5 q19 0 30.5 10.5 q11.5 10.5 11.5 27.5 q0 17 -11.5 27.5 q-11.5 10.5 -30.5 10.5 q-20 0 -31.5 -10.5 q-11.5 -10.5 -11.5 -27.5 Z" /><glyph glyph-name="Atilde" unicode="Ã" d="M178 805 q2 54 38 88.5 q36 34.5 93 34.5 q35 0 57 -10 q22 -10 43 -27 q13 -10 20 -14 q7 -4 16 -4 q25 0 35 42 l106 0 q-2 -54 -38 -88.5 q-36 -34.5 -93 -34.5 q-35 0 -57 10 q-22 10 -43 27 q-13 10 -20 14 q-7 4 -16 4 q-25 0 -35 -42 l-106 0 ZM446 732 l297 -732 l-180 0 l-56 148 l-277 0 l-54 -148 l-170 0 l289 732 l151 0 ZM453 291 l-87 228 l-83 -228 l170 0 Z" /><glyph glyph-name="AE" unicode="Æ" d="M988 295 l-286 0 l0 -147 l331 0 l0 -148 l-502 0 l0 149 l-248 0 l-90 -149 l-192 0 l471 732 l549 0 l0 -147 l-319 0 l0 -144 l286 0 l0 -146 ZM531 292 l0 268 l-162 -268 l162 0 Z" /><glyph glyph-name="AEacute" unicode="&#x1fc;" d="M601 796 l98 132 l167 0 l-134 -132 l-131 0 ZM988 295 l-286 0 l0 -147 l331 0 l0 -148 l-502 0 l0 149 l-248 0 l-90 -149 l-192 0 l471 732 l549 0 l0 -147 l-319 0 l0 -144 l286 0 l0 -146 ZM531 292 l0 268 l-162 -268 l162 0 Z" /><glyph glyph-name="B" unicode="B" d="M545 379 q114 -46 114 -166 q0 -100 -75 -156.5 q-75 -56.5 -206 -56.5 l-306 0 l0 732 l281 0 q118 0 194 -53 q76 -53 76 -154 q0 -98 -78 -146 ZM239 585 l0 -144 l100 0 q49 0 78 21 q29 21 29 56 q0 33 -28 50 q-28 17 -79 17 l-100 0 ZM368 148 q54 0 84 19.5 q30 19.5 30 55.5 q0 36 -30.5 56.5 q-30.5 20.5 -84.5 20.5 l-128 0 l0 -152 l129 0 Z" /><glyph glyph-name="C" unicode="C" d="M393 144 q99 0 144 104 l143 -84 q-16 -48 -55 -88.5 q-39 -40.5 -97.5 -64.5 q-58.5 -24 -130.5 -24 q-99 0 -181 47 q-82 47 -130 133.5 q-48 86.5 -48 199.5 q0 113 48 199 q48 86 130 133 q82 47 181 47 q72 0 130.5 -24 q58.5 -24 97.5 -64.5 q39 -40.5 55 -88.5 l-143 -84 q-45 104 -144 104 q-49 0 -88.5 -26.5 q-39.5 -26.5 -63 -77 q-23.5 -50.5 -23.5 -118.5 q0 -68 23.5 -119 q23.5 -51 63 -77.5 q39.5 -26.5 88.5 -26.5 Z" /><glyph glyph-name="Cacute" unicode="&#x106;" d="M308 795 l98 133 l167 0 l-134 -133 l-131 0 ZM393 144 q99 0 144 104 l143 -84 q-16 -48 -55 -88.5 q-39 -40.5 -97.5 -64.5 q-58.5 -24 -130.5 -24 q-99 0 -181 47 q-82 47 -130 133.5 q-48 86.5 -48 199.5 q0 113 48 199 q48 86 130 133 q82 47 181 47 q72 0 130.5 -24 q58.5 -24 97.5 -64.5 q39 -40.5 55 -88.5 l-143 -84 q-45 104 -144 104 q-49 0 -88.5 -26.5 q-39.5 -26.5 -63 -77 q-23.5 -50.5 -23.5 -118.5 q0 -68 23.5 -119 q23.5 -51 63 -77.5 q39.5 -26.5 88.5 -26.5 Z" /><glyph glyph-name="Ccaron" unicode="&#x10c;" d="M307 928 l62 -62 l62 62 l135 0 l-137 -134 l-120 0 l-137 134 l135 0 ZM393 144 q99 0 144 104 l143 -84 q-16 -48 -55 -88.5 q-39 -40.5 -97.5 -64.5 q-58.5 -24 -130.5 -24 q-99 0 -181 47 q-82 47 -130 133.5 q-48 86.5 -48 199.5 q0 113 48 199 q48 86 130 133 q82 47 181 47 q72 0 130.5 -24 q58.5 -24 97.5 -64.5 q39 -40.5 55 -88.5 l-143 -84 q-45 104 -144 104 q-49 0 -88.5 -26.5 q-39.5 -26.5 -63 -77 q-23.5 -50.5 -23.5 -118.5 q0 -68 23.5 -119 q23.5 -51 63 -77.5 q39.5 -26.5 88.5 -26.5 Z" /><glyph glyph-name="Ccedilla" unicode="Ç" d="M393 144 q99 0 144 104 l143 -84 q-23 -68 -89 -117.5 q-66 -49.5 -160 -57.5 l-21 -46 q48 -1 79 -24 q31 -23 31 -65 q0 -50 -44 -74 q-44 -24 -106 -24 q-41 0 -84 12 l0 75 q41 -12 79 -12 q22 0 35 5 q13 5 13 16 q0 11 -13 17 q-13 6 -35 6 q-26 0 -58 -9 l-10 51 l35 76 q-84 15 -150.5 64.5 q-66.5 49.5 -105 129.5 q-38.5 80 -38.5 180 q0 113 48 199 q48 86 130 133 q82 47 181 47 q72 0 130.5 -24 q58.5 -24 97.5 -64.5 q39 -40.5 55 -88.5 l-143 -84 q-45 104 -144 104 q-49 0 -88.5 -26.5 q-39.5 -26.5 -63 -77 q-23.5 -50.5 -23.5 -118.5 q0 -68 23.5 -119 q23.5 -51 63 -77.5 q39.5 -26.5 88.5 -26.5 Z" /><glyph glyph-name="Ccircumflex" unicode="&#x108;" d="M309 928 l120 0 l137 -134 l-135 0 l-62 62 l-62 -62 l-135 0 l137 134 ZM393 144 q99 0 144 104 l143 -84 q-16 -48 -55 -88.5 q-39 -40.5 -97.5 -64.5 q-58.5 -24 -130.5 -24 q-99 0 -181 47 q-82 47 -130 133.5 q-48 86.5 -48 199.5 q0 113 48 199 q48 86 130 133 q82 47 181 47 q72 0 130.5 -24 q58.5 -24 97.5 -64.5 q39 -40.5 55 -88.5 l-143 -84 q-45 104 -144 104 q-49 0 -88.5 -26.5 q-39.5 -26.5 -63 -77 q-23.5 -50.5 -23.5 -118.5 q0 -68 23.5 -119 q23.5 -51 63 -77.5 q39.5 -26.5 88.5 -26.5 Z" /><glyph glyph-name="Cdotaccent" unicode="&#x10a;" d="M368 789 q-34 0 -57.5 20.5 q-23.5 20.5 -23.5 49.5 q0 28 24 48.5 q24 20.5 57 20.5 q36 0 60.5 -20.5 q24.5 -20.5 24.5 -48.5 q0 -29 -24.5 -49.5 q-24.5 -20.5 -60.5 -20.5 ZM393 144 q99 0 144 104 l143 -84 q-16 -48 -55 -88.5 q-39 -40.5 -97.5 -64.5 q-58.5 -24 -130.5 -24 q-99 0 -181 47 q-82 47 -130 133.5 q-48 86.5 -48 199.5 q0 113 48 199 q48 86 130 133 q82 47 181 47 q72 0 130.5 -24 q58.5 -24 97.5 -64.5 q39 -40.5 55 -88.5 l-143 -84 q-45 104 -144 104 q-49 0 -88.5 -26.5 q-39.5 -26.5 -63 -77 q-23.5 -50.5 -23.5 -118.5 q0 -68 23.5 -119 q23.5 -51 63 -77.5 q39.5 -26.5 88.5 -26.5 Z" /><glyph glyph-name="D" unicode="D" d="M336 732 q107 0 194 -43 q87 -43 137.5 -125.5 q50.5 -82.5 50.5 -196.5 q0 -114 -50.5 -197 q-50.5 -83 -137 -126.5 q-86.5 -43.5 -194.5 -43.5 l-264 0 l0 732 l264 0 ZM317 144 q109 0 165 58 q56 58 56 165 q0 106 -56.5 163.5 q-56.5 57.5 -164.5 57.5 l-74 0 l0 -444 l74 0 Z" /><glyph glyph-name="Eth" unicode="Ð" d="M368 732 q107 0 194 -43 q87 -43 137.5 -125.5 q50.5 -82.5 50.5 -196.5 q0 -114 -50.5 -197 q-50.5 -83 -137 -126.5 q-86.5 -43.5 -194.5 -43.5 l-264 0 l0 297 l-83 0 l0 152 l83 0 l0 283 l264 0 ZM349 144 q109 0 165 57.5 q56 57.5 56 165.5 q0 106 -56.5 163.5 q-56.5 57.5 -164.5 57.5 l-74 0 l0 -139 l123 0 l0 -152 l-123 0 l0 -153 l74 0 Z" /><glyph glyph-name="Dcaron" unicode="&#x10e;" d="M258 928 l62 -62 l62 62 l135 0 l-137 -134 l-120 0 l-137 134 l135 0 ZM336 732 q107 0 194 -43 q87 -43 137.5 -125.5 q50.5 -82.5 50.5 -196.5 q0 -114 -50.5 -197 q-50.5 -83 -137 -126.5 q-86.5 -43.5 -194.5 -43.5 l-264 0 l0 732 l264 0 ZM317 144 q109 0 165 58 q56 58 56 165 q0 106 -56.5 163.5 q-56.5 57.5 -164.5 57.5 l-74 0 l0 -444 l74 0 Z" /><glyph glyph-name="Dcroat" unicode="&#x110;" d="M368 732 q107 0 194 -43 q87 -43 137.5 -125.5 q50.5 -82.5 50.5 -196.5 q0 -114 -50.5 -197 q-50.5 -83 -137 -126.5 q-86.5 -43.5 -194.5 -43.5 l-264 0 l0 297 l-83 0 l0 152 l83 0 l0 283 l264 0 ZM349 144 q109 0 165 57.5 q56 57.5 56 165.5 q0 106 -56.5 163.5 q-56.5 57.5 -164.5 57.5 l-74 0 l0 -139 l123 0 l0 -152 l-123 0 l0 -153 l74 0 Z" /><glyph glyph-name="E" unicode="E" d="M529 295 l-286 0 l0 -147 l331 0 l0 -148 l-502 0 l0 732 l490 0 l0 -147 l-319 0 l0 -144 l286 0 l0 -146 Z" /><glyph glyph-name="Eacute" unicode="É" d="M253 795 l98 133 l166 0 l-133 -133 l-131 0 ZM529 295 l-286 0 l0 -147 l331 0 l0 -148 l-502 0 l0 732 l490 0 l0 -147 l-319 0 l0 -144 l286 0 l0 -146 Z" /><glyph glyph-name="Ebreve" unicode="&#x114;" d="M314 793 q-85 0 -136 36.5 q-51 36.5 -51 98.5 l123 0 q6 -58 64 -58 q57 0 65 58 l122 0 q0 -63 -50.5 -99 q-50.5 -36 -136.5 -36 ZM529 295 l-286 0 l0 -147 l331 0 l0 -148 l-502 0 l0 732 l490 0 l0 -147 l-319 0 l0 -144 l286 0 l0 -146 Z" /><glyph glyph-name="Ecaron" unicode="&#x11a;" d="M251 928 l63 -62 l61 62 l136 0 l-138 -134 l-120 0 l-137 134 l135 0 ZM529 295 l-286 0 l0 -147 l331 0 l0 -148 l-502 0 l0 732 l490 0 l0 -147 l-319 0 l0 -144 l286 0 l0 -146 Z" /><glyph glyph-name="Ecircumflex" unicode="Ê" d="M253 928 l120 0 l138 -134 l-136 0 l-61 62 l-63 -62 l-135 0 l137 134 ZM529 295 l-286 0 l0 -147 l331 0 l0 -148 l-502 0 l0 732 l490 0 l0 -147 l-319 0 l0 -144 l286 0 l0 -146 Z" /><glyph glyph-name="uni1EBE" unicode="&#x1ebe;" d="M402 857 l98 71 l166 0 l-134 -71 l-130 0 ZM253 846 l120 0 l138 -72 l-143 0 l-54 29 l-55 -29 l-143 0 l137 72 ZM529 295 l-286 0 l0 -147 l331 0 l0 -148 l-502 0 l0 732 l490 0 l0 -147 l-319 0 l0 -144 l286 0 l0 -146 Z" /><glyph glyph-name="uni1EC6" unicode="&#x1ec6;" d="M253 928 l120 0 l138 -134 l-136 0 l-61 62 l-63 -62 l-135 0 l137 134 ZM529 295 l-286 0 l0 -147 l331 0 l0 -148 l-502 0 l0 732 l490 0 l0 -147 l-319 0 l0 -144 l286 0 l0 -146 ZM314 -238 q-39 0 -66.5 27.5 q-27.5 27.5 -27.5 65.5 q0 38 27.5 65.5 q27.5 27.5 66.5 27.5 q38 0 66.5 -28 q28.5 -28 28.5 -65 q0 -38 -28 -65.5 q-28 -27.5 -67 -27.5 Z" /><glyph glyph-name="uni1EC0" unicode="&#x1ec0;" d="M259 928 l167 0 l98 -71 l-131 0 l-134 71 ZM253 846 l120 0 l138 -72 l-137 0 l-60 32 l-61 -32 l-137 0 l137 72 ZM529 295 l-286 0 l0 -147 l331 0 l0 -148 l-502 0 l0 732 l490 0 l0 -147 l-319 0 l0 -144 l286 0 l0 -146 Z" /><glyph glyph-name="uni1EC2" unicode="&#x1ec2;" d="M330 915 q47 13 114 13 q59 0 98 -10.5 q39 -10.5 39 -30.5 q0 -37 -127 -52 l-50 30 q38 4 54.5 6.5 q16.5 2.5 16.5 6.5 q0 2 -11.5 4.5 q-11.5 2.5 -29.5 2.5 q-38 0 -83 -8 l-21 38 ZM253 843 l120 0 l138 -69 l-143 0 l-54 27 l-55 -27 l-143 0 l137 69 ZM529 295 l-286 0 l0 -147 l331 0 l0 -148 l-502 0 l0 732 l490 0 l0 -147 l-319 0 l0 -144 l286 0 l0 -146 Z" /><glyph glyph-name="uni1EC4" unicode="&#x1ec4;" d="M116 863 q2 29 38 47 q36 18 93 18 q35 0 56 -4.5 q21 -4.5 44 -12.5 q23 -9 36 -9 q26 0 35 19 l106 0 q-2 -29 -37.5 -47 q-35.5 -18 -93.5 -18 q-35 0 -56 4.5 q-21 4.5 -44 12.5 q-23 9 -36 9 q-25 0 -35 -19 l-106 0 ZM259 845 l121 0 l137 -71 l-143 0 l-54 28 l-55 -28 l-143 0 l137 71 ZM529 295 l-286 0 l0 -147 l331 0 l0 -148 l-502 0 l0 732 l490 0 l0 -147 l-319 0 l0 -144 l286 0 l0 -146 Z" /><glyph glyph-name="Edieresis" unicode="Ë" d="M196 789 q-34 0 -58 20.5 q-24 20.5 -24 49.5 q0 28 24 48.5 q24 20.5 58 20.5 q35 0 59.5 -20.5 q24.5 -20.5 24.5 -48.5 q0 -29 -24 -49.5 q-24 -20.5 -60 -20.5 ZM429 789 q-35 0 -59 21 q-24 21 -24 49 q0 28 24 48.5 q24 20.5 59 20.5 q34 0 59 -20.5 q25 -20.5 25 -48.5 q0 -29 -25 -49.5 q-25 -20.5 -59 -20.5 ZM529 295 l-286 0 l0 -147 l331 0 l0 -148 l-502 0 l0 732 l490 0 l0 -147 l-319 0 l0 -144 l286 0 l0 -146 Z" /><glyph glyph-name="Edotaccent" unicode="&#x116;" d="M313 789 q-34 0 -58 20.5 q-24 20.5 -24 49.5 q0 28 24 48.5 q24 20.5 58 20.5 q35 0 59.5 -20.5 q24.5 -20.5 24.5 -48.5 q0 -29 -24 -49.5 q-24 -20.5 -60 -20.5 ZM529 295 l-286 0 l0 -147 l331 0 l0 -148 l-502 0 l0 732 l490 0 l0 -147 l-319 0 l0 -144 l286 0 l0 -146 Z" /><glyph glyph-name="uni1EB8" unicode="&#x1eb8;" d="M529 295 l-286 0 l0 -147 l331 0 l0 -148 l-502 0 l0 732 l490 0 l0 -147 l-319 0 l0 -144 l286 0 l0 -146 ZM314 -238 q-39 0 -66.5 27.5 q-27.5 27.5 -27.5 65.5 q0 38 27.5 65.5 q27.5 27.5 66.5 27.5 q38 0 66.5 -28 q28.5 -28 28.5 -65 q0 -38 -28 -65.5 q-28 -27.5 -67 -27.5 Z" /><glyph glyph-name="Egrave" unicode="È" d="M110 928 l167 0 l98 -133 l-131 0 l-134 133 ZM529 295 l-286 0 l0 -147 l331 0 l0 -148 l-502 0 l0 732 l490 0 l0 -147 l-319 0 l0 -144 l286 0 l0 -146 Z" /><glyph glyph-name="uni1EBA" unicode="&#x1eba;" d="M181 906 q46 22 114 22 q60 0 98.5 -18 q38.5 -18 38.5 -54 q0 -63 -127 -90 l-53 52 q33 7 50 14 q17 7 17 16 q0 8 -10 12.5 q-10 4.5 -28 4.5 q-38 0 -79 -19 l-21 60 ZM529 295 l-286 0 l0 -147 l331 0 l0 -148 l-502 0 l0 732 l490 0 l0 -147 l-319 0 l0 -144 l286 0 l0 -146 Z" /><glyph glyph-name="Emacron" unicode="&#x112;" d="M138 822 l0 105 l352 0 l0 -105 l-352 0 ZM529 295 l-286 0 l0 -147 l331 0 l0 -148 l-502 0 l0 732 l490 0 l0 -147 l-319 0 l0 -144 l286 0 l0 -146 Z" /><glyph glyph-name="Eogonek" unicode="&#x118;" d="M639 -192 q-27 -26 -59.5 -39 q-32.5 -13 -78.5 -13 q-65 0 -105 27.5 q-40 27.5 -40 83.5 q0 72 76 133 l-360 0 l0 732 l490 0 l0 -147 l-319 0 l0 -144 l286 0 l0 -146 l-286 0 l0 -147 l331 0 l0 -148 q-55 -30 -81.5 -56.5 q-26.5 -26.5 -26.5 -55.5 q0 -21 13 -32 q13 -11 35 -11 q38 0 74 36 l51 -73 Z" /><glyph glyph-name="uni1EBC" unicode="&#x1ebc;" d="M110 804 q2 55 37.5 89.5 q35.5 34.5 93.5 34.5 q34 0 55.5 -10 q21.5 -10 44.5 -27 q13 -10 20 -14 q7 -4 16 -4 q26 0 34 42 l107 0 q-2 -54 -38 -88.5 q-36 -34.5 -94 -34.5 q-34 0 -56 10 q-22 10 -43 27 q-12 9 -20 13.5 q-8 4.5 -17 4.5 q-25 0 -34 -43 l-106 0 ZM529 295 l-286 0 l0 -147 l331 0 l0 -148 l-502 0 l0 732 l490 0 l0 -147 l-319 0 l0 -144 l286 0 l0 -146 Z" /><glyph glyph-name="F" unicode="F" d="M72 732 l490 0 l0 -149 l-319 0 l0 -160 l286 0 l0 -148 l-286 0 l0 -275 l-171 0 l0 732 Z" /><glyph glyph-name="G" unicode="G" d="M396 271 l0 146 l296 0 l0 -304 q-35 -59 -112.5 -92.5 q-77.5 -33.5 -170.5 -33.5 q-109 0 -193.5 48 q-84.5 48 -131 134.5 q-46.5 86.5 -46.5 197.5 q0 113 48.5 199.5 q48.5 86.5 132.5 133 q84 46.5 188 46.5 q73 0 132.5 -23 q59.5 -23 99 -62 q39.5 -39 55.5 -87 l-142 -82 q-21 47 -58.5 73 q-37.5 26 -89.5 26 q-53 0 -96 -27 q-43 -27 -68 -77.5 q-25 -50.5 -25 -119.5 q0 -105 55.5 -165.5 q55.5 -60.5 148.5 -60.5 q70 0 107 37 l0 93 l-130 0 Z" /><glyph glyph-name="Gbreve" unicode="&#x11e;" d="M399 794 q-85 0 -136 35.5 q-51 35.5 -51 97.5 l123 0 q8 -58 64 -58 q59 0 65 58 l123 0 q0 -62 -51 -97.5 q-51 -35.5 -137 -35.5 ZM396 271 l0 146 l296 0 l0 -304 q-35 -59 -112.5 -92.5 q-77.5 -33.5 -170.5 -33.5 q-109 0 -193.5 48 q-84.5 48 -131 134.5 q-46.5 86.5 -46.5 197.5 q0 113 48.5 199.5 q48.5 86.5 132.5 133 q84 46.5 188 46.5 q73 0 132.5 -23 q59.5 -23 99 -62 q39.5 -39 55.5 -87 l-142 -82 q-21 47 -58.5 73 q-37.5 26 -89.5 26 q-53 0 -96 -27 q-43 -27 -68 -77.5 q-25 -50.5 -25 -119.5 q0 -105 55.5 -165.5 q55.5 -60.5 148.5 -60.5 q70 0 107 37 l0 93 l-130 0 Z" /><glyph glyph-name="Gcircumflex" unicode="&#x11c;" d="M338 928 l121 0 l137 -133 l-136 0 l-61 61 l-62 -61 l-136 0 l137 133 ZM396 271 l0 146 l296 0 l0 -304 q-35 -59 -112.5 -92.5 q-77.5 -33.5 -170.5 -33.5 q-109 0 -193.5 48 q-84.5 48 -131 134.5 q-46.5 86.5 -46.5 197.5 q0 113 48.5 199.5 q48.5 86.5 132.5 133 q84 46.5 188 46.5 q73 0 132.5 -23 q59.5 -23 99 -62 q39.5 -39 55.5 -87 l-142 -82 q-21 47 -58.5 73 q-37.5 26 -89.5 26 q-53 0 -96 -27 q-43 -27 -68 -77.5 q-25 -50.5 -25 -119.5 q0 -105 55.5 -165.5 q55.5 -60.5 148.5 -60.5 q70 0 107 37 l0 93 l-130 0 Z" /><glyph glyph-name="uni0122" unicode="&#x122;" d="M526 271 l-130 0 l0 146 l296 0 l0 -304 q-35 -59 -112.5 -92.5 q-77.5 -33.5 -170.5 -33.5 q-109 0 -193.5 48 q-84.5 48 -131 134.5 q-46.5 86.5 -46.5 197.5 q0 113 48.5 199.5 q48.5 86.5 132.5 133 q84 46.5 188 46.5 q73 0 132.5 -23 q59.5 -23 99 -62 q39.5 -39 55.5 -87 l-142 -82 q-21 47 -58.5 73 q-37.5 26 -89.5 26 q-53 0 -96 -27 q-43 -27 -68 -77.5 q-25 -50.5 -25 -119.5 q0 -105 55.5 -165.5 q55.5 -60.5 148.5 -60.5 q70 0 107 37 l0 93 ZM396 -30 q44 0 70.5 -23 q26.5 -23 26.5 -69 q0 -56 -44.5 -88.5 q-44.5 -32.5 -127.5 -33.5 l0 61 q64 3 78 30 l-4 0 q-38 1 -60.5 16 q-22.5 15 -22.5 43 q0 29 23.5 46.5 q23.5 17.5 60.5 17.5 Z" /><glyph glyph-name="Gdotaccent" unicode="&#x120;" d="M398 790 q-34 0 -58 20.5 q-24 20.5 -24 48.5 q0 28 24 48.5 q24 20.5 58 20.5 q36 0 60.5 -20.5 q24.5 -20.5 24.5 -48.5 q0 -28 -24.5 -48.5 q-24.5 -20.5 -60.5 -20.5 ZM396 271 l0 146 l296 0 l0 -304 q-35 -59 -112.5 -92.5 q-77.5 -33.5 -170.5 -33.5 q-109 0 -193.5 48 q-84.5 48 -131 134.5 q-46.5 86.5 -46.5 197.5 q0 113 48.5 199.5 q48.5 86.5 132.5 133 q84 46.5 188 46.5 q73 0 132.5 -23 q59.5 -23 99 -62 q39.5 -39 55.5 -87 l-142 -82 q-21 47 -58.5 73 q-37.5 26 -89.5 26 q-53 0 -96 -27 q-43 -27 -68 -77.5 q-25 -50.5 -25 -119.5 q0 -105 55.5 -165.5 q55.5 -60.5 148.5 -60.5 q70 0 107 37 l0 93 l-130 0 Z" /><glyph glyph-name="H" unicode="H" d="M243 455 l302 0 l0 277 l171 0 l0 -732 l-171 0 l0 304 l-302 0 l0 -304 l-171 0 l0 732 l171 0 l0 -277 Z" /><glyph glyph-name="Hbar" unicode="&#x126;" d="M737 732 l0 -93 l70 0 l0 -117 l-70 0 l0 -522 l-170 0 l0 298 l-303 0 l0 -298 l-170 0 l0 522 l-70 0 l0 117 l70 0 l0 93 l170 0 l0 -93 l303 0 l0 93 l170 0 ZM264 522 l0 -73 l303 0 l0 73 l-303 0 Z" /><glyph glyph-name="Hcircumflex" unicode="&#x124;" d="M334 928 l120 0 l137 -134 l-135 0 l-62 62 l-62 -62 l-136 0 l138 134 ZM243 455 l302 0 l0 277 l171 0 l0 -732 l-171 0 l0 304 l-302 0 l0 -304 l-171 0 l0 732 l171 0 l0 -277 Z" /><glyph glyph-name="I" unicode="I" d="M243 0 l-171 0 l0 732 l171 0 l0 -732 Z" /><glyph glyph-name="IJ" unicode="&#x132;" d="M243 0 l-171 0 l0 732 l171 0 l0 -732 ZM544 -13 q-87 0 -150 42 q-63 42 -82 129 l142 75 q12 -45 33.5 -67.5 q21.5 -22.5 58.5 -22.5 q46 0 64.5 35.5 q18.5 35.5 18.5 112.5 l0 441 l171 0 l0 -458 q0 -153 -72.5 -220 q-72.5 -67 -183.5 -67 Z" /><glyph glyph-name="Iacute" unicode="Í" d="M97 795 l98 133 l166 0 l-133 -133 l-131 0 ZM243 0 l-171 0 l0 732 l171 0 l0 -732 Z" /><glyph glyph-name="Ibreve" unicode="&#x12c;" d="M158 793 q-85 0 -136 36.5 q-51 36.5 -51 98.5 l123 0 q6 -58 64 -58 q57 0 65 58 l122 0 q0 -63 -50.5 -99 q-50.5 -36 -136.5 -36 ZM243 0 l-171 0 l0 732 l171 0 l0 -732 Z" /><glyph glyph-name="uni01CF" unicode="&#x1cf;" d="M95 928 l63 -62 l61 62 l135 0 l-137 -134 l-120 0 l-137 134 l135 0 ZM243 0 l-171 0 l0 732 l171 0 l0 -732 Z" /><glyph glyph-name="Icircumflex" unicode="Î" d="M97 928 l120 0 l137 -134 l-135 0 l-61 62 l-63 -62 l-135 0 l137 134 ZM243 0 l-171 0 l0 732 l171 0 l0 -732 Z" /><glyph glyph-name="Idieresis" unicode="Ï" d="M40 789 q-34 0 -58 20.5 q-24 20.5 -24 49.5 q0 28 24 48.5 q24 20.5 58 20.5 q35 0 59.5 -20.5 q24.5 -20.5 24.5 -48.5 q0 -29 -24 -49.5 q-24 -20.5 -60 -20.5 ZM273 789 q-35 0 -59 21 q-24 21 -24 49 q0 28 24 48.5 q24 20.5 59 20.5 q34 0 59 -20.5 q25 -20.5 25 -48.5 q0 -29 -25 -49.5 q-25 -20.5 -59 -20.5 ZM243 0 l-171 0 l0 732 l171 0 l0 -732 Z" /><glyph glyph-name="Idotaccent" unicode="&#x130;" d="M157 789 q-34 0 -58 20.5 q-24 20.5 -24 49.5 q0 28 24 48.5 q24 20.5 58 20.5 q35 0 59.5 -20.5 q24.5 -20.5 24.5 -48.5 q0 -29 -24 -49.5 q-24 -20.5 -60 -20.5 ZM243 0 l-171 0 l0 732 l171 0 l0 -732 Z" /><glyph glyph-name="uni1ECA" unicode="&#x1eca;" d="M243 0 l-171 0 l0 732 l171 0 l0 -732 ZM158 -238 q-39 0 -66.5 27.5 q-27.5 27.5 -27.5 65.5 q0 38 27.5 65.5 q27.5 27.5 66.5 27.5 q38 0 66.5 -28 q28.5 -28 28.5 -65 q0 -38 -28 -65.5 q-28 -27.5 -67 -27.5 Z" /><glyph glyph-name="Igrave" unicode="Ì" d="M-46 928 l167 0 l98 -133 l-131 0 l-134 133 ZM243 0 l-171 0 l0 732 l171 0 l0 -732 Z" /><glyph glyph-name="uni1EC8" unicode="&#x1ec8;" d="M25 906 q46 22 114 22 q60 0 98.5 -18 q38.5 -18 38.5 -54 q0 -63 -127 -90 l-53 52 q33 7 50 14 q17 7 17 16 q0 8 -10 12.5 q-10 4.5 -28 4.5 q-38 0 -79 -19 l-21 60 ZM243 0 l-171 0 l0 732 l171 0 l0 -732 Z" /><glyph glyph-name="Imacron" unicode="&#x12a;" d="M-18 822 l0 105 l352 0 l0 -105 l-352 0 ZM243 0 l-171 0 l0 732 l171 0 l0 -732 Z" /><glyph glyph-name="Iogonek" unicode="&#x12e;" d="M308 -192 q-27 -26 -59.5 -39 q-32.5 -13 -78.5 -13 q-65 0 -105 27.5 q-40 27.5 -40 83.5 q0 73 75 133 l-28 0 l0 732 l171 0 l0 -732 q-55 -30 -81.5 -56.5 q-26.5 -26.5 -26.5 -55.5 q0 -21 13 -32 q13 -11 35 -11 q38 0 74 36 l51 -73 Z" /><glyph glyph-name="Itilde" unicode="&#x128;" d="M-46 804 q2 55 37.5 89.5 q35.5 34.5 93.5 34.5 q34 0 55.5 -10 q21.5 -10 44.5 -27 q13 -10 20 -14 q7 -4 16 -4 q26 0 34 42 l107 0 q-2 -54 -38 -88.5 q-36 -34.5 -94 -34.5 q-34 0 -56 10 q-22 10 -43 27 q-12 9 -20 13.5 q-8 4.5 -17 4.5 q-25 0 -34 -43 l-106 0 ZM243 0 l-171 0 l0 732 l171 0 l0 -732 Z" /><glyph glyph-name="J" unicode="J" d="M232 -13 q-87 0 -150 42 q-63 42 -82 129 l143 75 q11 -45 32.5 -67.5 q21.5 -22.5 58.5 -22.5 q46 0 65 35.5 q19 35.5 19 112.5 l0 441 l171 0 l0 -458 q0 -153 -72.5 -220 q-72.5 -67 -184.5 -67 Z" /><glyph glyph-name="Jcircumflex" unicode="&#x134;" d="M339 928 l121 0 l137 -134 l-136 0 l-61 62 l-62 -62 l-136 0 l137 134 ZM229 -13 q-87 0 -150 42 q-63 42 -82 129 l143 75 q11 -45 32.5 -67.5 q21.5 -22.5 58.5 -22.5 q46 0 65 35.5 q19 35.5 19 112.5 l0 441 l171 0 l0 -458 q0 -153 -72.5 -220 q-72.5 -67 -184.5 -67 Z" /><glyph glyph-name="K" unicode="K" d="M460 440 l305 -440 l-220 0 l-210 307 l-92 -100 l0 -207 l-171 0 l0 732 l171 0 l0 -320 l279 320 l211 0 l-273 -292 Z" /><glyph glyph-name="uni0136" unicode="&#x136;" d="M522 732 l211 0 l-273 -292 l305 -440 l-220 0 l-210 307 l-92 -100 l0 -207 l-171 0 l0 732 l171 0 l0 -320 l279 320 ZM397 -30 q44 0 70.5 -23 q26.5 -23 26.5 -69 q0 -56 -44.5 -88.5 q-44.5 -32.5 -127.5 -33.5 l0 61 q64 3 78 30 l-4 0 q-38 1 -60.5 16 q-22.5 15 -22.5 43 q0 29 23.5 46.5 q23.5 17.5 60.5 17.5 Z" /><glyph glyph-name="L" unicode="L" d="M72 732 l171 0 l0 -580 l321 0 l0 -152 l-492 0 l0 732 Z" /><glyph glyph-name="Lacute" unicode="&#x139;" d="M97 796 l98 132 l166 0 l-133 -132 l-131 0 ZM72 732 l171 0 l0 -580 l321 0 l0 -152 l-492 0 l0 732 Z" /><glyph glyph-name="Lcaron" unicode="&#x13d;" d="M512 624 q0 -78 -48 -129.5 q-48 -51.5 -124 -61.5 l0 80 q32 5 51.5 17 q19.5 12 26.5 36 l-1 0 q-37 1 -61.5 26.5 q-24.5 25.5 -24.5 62.5 q0 38 24 64.5 q24 26.5 60 26.5 q41 0 69 -31.5 q28 -31.5 28 -90.5 ZM72 732 l171 0 l0 -580 l321 0 l0 -152 l-492 0 l0 732 Z" /><glyph glyph-name="uni013B" unicode="&#x13b;" d="M72 732 l171 0 l0 -580 l321 0 l0 -152 l-492 0 l0 732 ZM328 -30 q44 0 70.5 -23 q26.5 -23 26.5 -69 q0 -56 -44.5 -88.5 q-44.5 -32.5 -127.5 -33.5 l0 61 q64 3 78 30 l-4 0 q-38 1 -60.5 16 q-22.5 15 -22.5 43 q0 29 23.5 46.5 q23.5 17.5 60.5 17.5 Z" /><glyph glyph-name="Ldot" unicode="&#x13f;" d="M72 732 l171 0 l0 -580 l321 0 l0 -152 l-492 0 l0 732 ZM412 313 q-39 0 -66.5 29 q-27.5 29 -27.5 68 q0 41 27 69 q27 28 67 28 q39 0 67.5 -28.5 q28.5 -28.5 28.5 -68.5 q0 -39 -28.5 -68 q-28.5 -29 -67.5 -29 Z" /><glyph glyph-name="Lslash" unicode="&#x141;" d="M404 397 l-140 -67 l0 -178 l321 0 l0 -152 l-491 0 l0 246 l-84 -40 l0 165 l84 40 l0 321 l170 0 l0 -237 l140 67 l0 -165 Z" /><glyph glyph-name="M" unicode="M" d="M684 732 l129 0 l0 -732 l-162 0 l0 434 l-165 -236 l-87 0 l-167 238 l0 -436 l-160 0 l0 732 l132 0 l241 -353 l239 353 Z" /><glyph glyph-name="uni1E3E" unicode="&#x1e3e;" d="M381 795 l98 133 l167 0 l-134 -133 l-131 0 ZM684 732 l129 0 l0 -732 l-162 0 l0 434 l-165 -236 l-87 0 l-167 238 l0 -436 l-160 0 l0 732 l132 0 l241 -353 l239 353 Z" /><glyph glyph-name="N" unicode="N" d="M209 732 l332 -444 l0 444 l156 0 l0 -732 l-137 0 l-332 445 l0 -445 l-156 0 l0 732 l137 0 Z" /><glyph glyph-name="Nacute" unicode="&#x143;" d="M324 795 l98 132 l167 0 l-134 -132 l-131 0 ZM209 732 l332 -444 l0 444 l156 0 l0 -732 l-137 0 l-332 445 l0 -445 l-156 0 l0 732 l137 0 Z" /><glyph glyph-name="Ncaron" unicode="&#x147;" d="M323 928 l62 -62 l61 62 l136 0 l-137 -134 l-121 0 l-137 134 l136 0 ZM209 732 l332 -444 l0 444 l156 0 l0 -732 l-137 0 l-332 445 l0 -445 l-156 0 l0 732 l137 0 Z" /><glyph glyph-name="uni0145" unicode="&#x145;" d="M209 732 l332 -444 l0 444 l156 0 l0 -732 l-137 0 l-332 445 l0 -445 l-156 0 l0 732 l137 0 ZM382 -30 q44 0 70.5 -23 q26.5 -23 26.5 -69 q0 -56 -44.5 -88.5 q-44.5 -32.5 -127.5 -33.5 l0 61 q64 3 78 30 l-4 0 q-38 1 -60.5 16 q-22.5 15 -22.5 43 q0 29 23.5 46.5 q23.5 17.5 60.5 17.5 Z" /><glyph glyph-name="Eng" unicode="&#x14a;" d="M541 732 l156 0 l0 -733 q0 -81 -28.5 -135.5 q-28.5 -54.5 -76.5 -81 q-48 -26.5 -108 -26.5 q-81 0 -138 47 l61 114 q30 -22 62 -22 q41 0 56.5 31.5 q15.5 31.5 15.5 87.5 l0 12 l-313 419 l0 -445 l-156 0 l0 732 l137 0 l332 -444 l0 444 Z" /><glyph glyph-name="Ntilde" unicode="Ñ" d="M181 805 q2 54 38 88.5 q36 34.5 93 34.5 q35 0 57 -10 q22 -10 43 -27 q13 -10 20 -14 q7 -4 16 -4 q25 0 35 42 l106 0 q-2 -55 -37.5 -89 q-35.5 -34 -93.5 -34 q-35 0 -57 10 q-22 10 -43 27 q-13 10 -20 14 q-7 4 -16 4 q-25 0 -35 -42 l-106 0 ZM209 732 l332 -444 l0 444 l156 0 l0 -732 l-137 0 l-332 445 l0 -445 l-156 0 l0 732 l137 0 Z" /><glyph glyph-name="O" unicode="O" d="M38 367 q0 116 47.5 202 q47.5 86 129.5 131.5 q82 45.5 181 45.5 q99 0 180.5 -45.5 q81.5 -45.5 129.5 -131.5 q48 -86 48 -202 q0 -117 -48 -203 q-48 -86 -129.5 -131.5 q-81.5 -45.5 -180.5 -45.5 q-100 0 -181.5 45.5 q-81.5 45.5 -129 131.5 q-47.5 86 -47.5 203 ZM219 367 q0 -67 22.5 -118 q22.5 -51 62.5 -78.5 q40 -27.5 92 -27.5 q52 0 92.5 27.5 q40.5 27.5 63 78.5 q22.5 51 22.5 118 q0 66 -22.5 116.5 q-22.5 50.5 -63 78 q-40.5 27.5 -92.5 27.5 q-52 0 -92 -27.5 q-40 -27.5 -62.5 -78 q-22.5 -50.5 -22.5 -116.5 Z" /><glyph glyph-name="Oacute" unicode="Ó" d="M335 795 l98 133 l167 0 l-134 -133 l-131 0 ZM38 367 q0 116 47.5 202 q47.5 86 129.5 131.5 q82 45.5 181 45.5 q99 0 180.5 -45.5 q81.5 -45.5 129.5 -131.5 q48 -86 48 -202 q0 -117 -48 -203 q-48 -86 -129.5 -131.5 q-81.5 -45.5 -180.5 -45.5 q-100 0 -181.5 45.5 q-81.5 45.5 -129 131.5 q-47.5 86 -47.5 203 ZM219 367 q0 -67 22.5 -118 q22.5 -51 62.5 -78.5 q40 -27.5 92 -27.5 q52 0 92.5 27.5 q40.5 27.5 63 78.5 q22.5 51 22.5 118 q0 66 -22.5 116.5 q-22.5 50.5 -63 78 q-40.5 27.5 -92.5 27.5 q-52 0 -92 -27.5 q-40 -27.5 -62.5 -78 q-22.5 -50.5 -22.5 -116.5 Z" /><glyph glyph-name="Obreve" unicode="&#x14e;" d="M396 793 q-85 0 -136 36.5 q-51 36.5 -51 98.5 l123 0 q8 -58 64 -58 q59 0 65 58 l123 0 q0 -63 -51 -99 q-51 -36 -137 -36 ZM38 367 q0 116 47.5 202 q47.5 86 129.5 131.5 q82 45.5 181 45.5 q99 0 180.5 -45.5 q81.5 -45.5 129.5 -131.5 q48 -86 48 -202 q0 -117 -48 -203 q-48 -86 -129.5 -131.5 q-81.5 -45.5 -180.5 -45.5 q-100 0 -181.5 45.5 q-81.5 45.5 -129 131.5 q-47.5 86 -47.5 203 ZM219 367 q0 -67 22.5 -118 q22.5 -51 62.5 -78.5 q40 -27.5 92 -27.5 q52 0 92.5 27.5 q40.5 27.5 63 78.5 q22.5 51 22.5 118 q0 66 -22.5 116.5 q-22.5 50.5 -63 78 q-40.5 27.5 -92.5 27.5 q-52 0 -92 -27.5 q-40 -27.5 -62.5 -78 q-22.5 -50.5 -22.5 -116.5 Z" /><glyph glyph-name="uni01D1" unicode="&#x1d1;" d="M334 928 l62 -62 l61 62 l136 0 l-137 -134 l-121 0 l-137 134 l136 0 ZM38 367 q0 116 47.5 202 q47.5 86 129.5 131.5 q82 45.5 181 45.5 q99 0 180.5 -45.5 q81.5 -45.5 129.5 -131.5 q48 -86 48 -202 q0 -117 -48 -203 q-48 -86 -129.5 -131.5 q-81.5 -45.5 -180.5 -45.5 q-100 0 -181.5 45.5 q-81.5 45.5 -129 131.5 q-47.5 86 -47.5 203 ZM219 367 q0 -67 22.5 -118 q22.5 -51 62.5 -78.5 q40 -27.5 92 -27.5 q52 0 92.5 27.5 q40.5 27.5 63 78.5 q22.5 51 22.5 118 q0 66 -22.5 116.5 q-22.5 50.5 -63 78 q-40.5 27.5 -92.5 27.5 q-52 0 -92 -27.5 q-40 -27.5 -62.5 -78 q-22.5 -50.5 -22.5 -116.5 Z" /><glyph glyph-name="Ocircumflex" unicode="Ô" d="M335 928 l121 0 l137 -134 l-136 0 l-61 62 l-62 -62 l-136 0 l137 134 ZM38 367 q0 116 47.5 202 q47.5 86 129.5 131.5 q82 45.5 181 45.5 q99 0 180.5 -45.5 q81.5 -45.5 129.5 -131.5 q48 -86 48 -202 q0 -117 -48 -203 q-48 -86 -129.5 -131.5 q-81.5 -45.5 -180.5 -45.5 q-100 0 -181.5 45.5 q-81.5 45.5 -129 131.5 q-47.5 86 -47.5 203 ZM219 367 q0 -67 22.5 -118 q22.5 -51 62.5 -78.5 q40 -27.5 92 -27.5 q52 0 92.5 27.5 q40.5 27.5 63 78.5 q22.5 51 22.5 118 q0 66 -22.5 116.5 q-22.5 50.5 -63 78 q-40.5 27.5 -92.5 27.5 q-52 0 -92 -27.5 q-40 -27.5 -62.5 -78 q-22.5 -50.5 -22.5 -116.5 Z" /><glyph glyph-name="uni1ED0" unicode="&#x1ed0;" d="M484 857 l98 71 l167 0 l-134 -71 l-131 0 ZM335 846 l121 0 l137 -72 l-143 0 l-54 29 l-55 -29 l-143 0 l137 72 ZM38 367 q0 116 47.5 202 q47.5 86 129.5 131.5 q82 45.5 181 45.5 q99 0 180.5 -45.5 q81.5 -45.5 129.5 -131.5 q48 -86 48 -202 q0 -117 -48 -203 q-48 -86 -129.5 -131.5 q-81.5 -45.5 -180.5 -45.5 q-100 0 -181.5 45.5 q-81.5 45.5 -129 131.5 q-47.5 86 -47.5 203 ZM219 367 q0 -67 22.5 -118 q22.5 -51 62.5 -78.5 q40 -27.5 92 -27.5 q52 0 92.5 27.5 q40.5 27.5 63 78.5 q22.5 51 22.5 118 q0 66 -22.5 116.5 q-22.5 50.5 -63 78 q-40.5 27.5 -92.5 27.5 q-52 0 -92 -27.5 q-40 -27.5 -62.5 -78 q-22.5 -50.5 -22.5 -116.5 Z" /><glyph glyph-name="uni1ED8" unicode="&#x1ed8;" d="M335 928 l121 0 l137 -134 l-136 0 l-61 62 l-62 -62 l-136 0 l137 134 ZM38 367 q0 116 47.5 202 q47.5 86 129.5 131.5 q82 45.5 181 45.5 q99 0 180.5 -45.5 q81.5 -45.5 129.5 -131.5 q48 -86 48 -202 q0 -117 -48 -203 q-48 -86 -129.5 -131.5 q-81.5 -45.5 -180.5 -45.5 q-100 0 -181.5 45.5 q-81.5 45.5 -129 131.5 q-47.5 86 -47.5 203 ZM219 367 q0 -67 22.5 -118 q22.5 -51 62.5 -78.5 q40 -27.5 92 -27.5 q52 0 92.5 27.5 q40.5 27.5 63 78.5 q22.5 51 22.5 118 q0 66 -22.5 116.5 q-22.5 50.5 -63 78 q-40.5 27.5 -92.5 27.5 q-52 0 -92 -27.5 q-40 -27.5 -62.5 -78 q-22.5 -50.5 -22.5 -116.5 ZM396 -238 q-39 0 -66.5 27.5 q-27.5 27.5 -27.5 65.5 q0 38 27.5 65.5 q27.5 27.5 66.5 27.5 q38 0 66.5 -28 q28.5 -28 28.5 -65 q0 -38 -28 -65.5 q-28 -27.5 -67 -27.5 Z" /><glyph glyph-name="uni1ED2" unicode="&#x1ed2;" d="M341 928 l167 0 l98 -71 l-131 0 l-134 71 ZM335 846 l121 0 l137 -72 l-137 0 l-60 32 l-61 -32 l-137 0 l137 72 ZM38 367 q0 116 47.5 202 q47.5 86 129.5 131.5 q82 45.5 181 45.5 q99 0 180.5 -45.5 q81.5 -45.5 129.5 -131.5 q48 -86 48 -202 q0 -117 -48 -203 q-48 -86 -129.5 -131.5 q-81.5 -45.5 -180.5 -45.5 q-100 0 -181.5 45.5 q-81.5 45.5 -129 131.5 q-47.5 86 -47.5 203 ZM219 367 q0 -67 22.5 -118 q22.5 -51 62.5 -78.5 q40 -27.5 92 -27.5 q52 0 92.5 27.5 q40.5 27.5 63 78.5 q22.5 51 22.5 118 q0 66 -22.5 116.5 q-22.5 50.5 -63 78 q-40.5 27.5 -92.5 27.5 q-52 0 -92 -27.5 q-40 -27.5 -62.5 -78 q-22.5 -50.5 -22.5 -116.5 Z" /><glyph glyph-name="uni1ED4" unicode="&#x1ed4;" d="M412 914 q47 13 115 13 q59 0 98 -10.5 q39 -10.5 39 -30.5 q0 -35 -127 -52 l-50 30 q70 7 70 13 q0 7 -40 7 q-39 0 -84 -8 l-21 38 ZM335 842 l121 0 l137 -68 l-143 0 l-54 27 l-55 -27 l-143 0 l137 68 ZM38 367 q0 116 47.5 202 q47.5 86 129.5 131.5 q82 45.5 181 45.5 q99 0 180.5 -45.5 q81.5 -45.5 129.5 -131.5 q48 -86 48 -202 q0 -117 -48 -203 q-48 -86 -129.5 -131.5 q-81.5 -45.5 -180.5 -45.5 q-100 0 -181.5 45.5 q-81.5 45.5 -129 131.5 q-47.5 86 -47.5 203 ZM219 367 q0 -67 22.5 -118 q22.5 -51 62.5 -78.5 q40 -27.5 92 -27.5 q52 0 92.5 27.5 q40.5 27.5 63 78.5 q22.5 51 22.5 118 q0 66 -22.5 116.5 q-22.5 50.5 -63 78 q-40.5 27.5 -92.5 27.5 q-52 0 -92 -27.5 q-40 -27.5 -62.5 -78 q-22.5 -50.5 -22.5 -116.5 Z" /><glyph glyph-name="uni1ED6" unicode="&#x1ed6;" d="M193 863 q2 29 38 47 q36 18 93 18 q35 0 56 -4.5 q21 -4.5 44 -12.5 q23 -9 36 -9 q26 0 35 19 l106 0 q-2 -29 -37.5 -47 q-35.5 -18 -93.5 -18 q-35 0 -56 4.5 q-21 4.5 -44 12.5 q-23 9 -36 9 q-25 0 -35 -19 l-106 0 ZM336 845 l121 0 l137 -71 l-143 0 l-54 28 l-55 -28 l-143 0 l137 71 ZM38 367 q0 116 47.5 202 q47.5 86 129.5 131.5 q82 45.5 181 45.5 q99 0 180.5 -45.5 q81.5 -45.5 129.5 -131.5 q48 -86 48 -202 q0 -117 -48 -203 q-48 -86 -129.5 -131.5 q-81.5 -45.5 -180.5 -45.5 q-100 0 -181.5 45.5 q-81.5 45.5 -129 131.5 q-47.5 86 -47.5 203 ZM219 367 q0 -67 22.5 -118 q22.5 -51 62.5 -78.5 q40 -27.5 92 -27.5 q52 0 92.5 27.5 q40.5 27.5 63 78.5 q22.5 51 22.5 118 q0 66 -22.5 116.5 q-22.5 50.5 -63 78 q-40.5 27.5 -92.5 27.5 q-52 0 -92 -27.5 q-40 -27.5 -62.5 -78 q-22.5 -50.5 -22.5 -116.5 Z" /><glyph glyph-name="Odieresis" unicode="Ö" d="M278 789 q-34 0 -58 20.5 q-24 20.5 -24 49.5 q0 28 24 48.5 q24 20.5 58 20.5 q36 0 60.5 -20.5 q24.5 -20.5 24.5 -48.5 q0 -29 -24.5 -49.5 q-24.5 -20.5 -60.5 -20.5 ZM511 789 q-35 0 -58.5 21 q-23.5 21 -23.5 49 q0 28 23.5 48.5 q23.5 20.5 58.5 20.5 q35 0 59.5 -20.5 q24.5 -20.5 24.5 -48.5 q0 -29 -24.5 -49.5 q-24.5 -20.5 -59.5 -20.5 ZM38 367 q0 116 47.5 202 q47.5 86 129.5 131.5 q82 45.5 181 45.5 q99 0 180.5 -45.5 q81.5 -45.5 129.5 -131.5 q48 -86 48 -202 q0 -117 -48 -203 q-48 -86 -129.5 -131.5 q-81.5 -45.5 -180.5 -45.5 q-100 0 -181.5 45.5 q-81.5 45.5 -129 131.5 q-47.5 86 -47.5 203 ZM219 367 q0 -67 22.5 -118 q22.5 -51 62.5 -78.5 q40 -27.5 92 -27.5 q52 0 92.5 27.5 q40.5 27.5 63 78.5 q22.5 51 22.5 118 q0 66 -22.5 116.5 q-22.5 50.5 -63 78 q-40.5 27.5 -92.5 27.5 q-52 0 -92 -27.5 q-40 -27.5 -62.5 -78 q-22.5 -50.5 -22.5 -116.5 Z" /><glyph glyph-name="uni1ECC" unicode="&#x1ecc;" d="M38 367 q0 116 47.5 202 q47.5 86 129.5 131.5 q82 45.5 181 45.5 q99 0 180.5 -45.5 q81.5 -45.5 129.5 -131.5 q48 -86 48 -202 q0 -117 -48 -203 q-48 -86 -129.5 -131.5 q-81.5 -45.5 -180.5 -45.5 q-100 0 -181.5 45.5 q-81.5 45.5 -129 131.5 q-47.5 86 -47.5 203 ZM219 367 q0 -67 22.5 -118 q22.5 -51 62.5 -78.5 q40 -27.5 92 -27.5 q52 0 92.5 27.5 q40.5 27.5 63 78.5 q22.5 51 22.5 118 q0 66 -22.5 116.5 q-22.5 50.5 -63 78 q-40.5 27.5 -92.5 27.5 q-52 0 -92 -27.5 q-40 -27.5 -62.5 -78 q-22.5 -50.5 -22.5 -116.5 ZM396 -238 q-39 0 -66.5 27.5 q-27.5 27.5 -27.5 65.5 q0 38 27.5 65.5 q27.5 27.5 66.5 27.5 q38 0 66.5 -28 q28.5 -28 28.5 -65 q0 -38 -28 -65.5 q-28 -27.5 -67 -27.5 Z" /><glyph glyph-name="Ograve" unicode="Ò" d="M192 928 l167 0 l98 -133 l-131 0 l-134 133 ZM38 367 q0 116 47.5 202 q47.5 86 129.5 131.5 q82 45.5 181 45.5 q99 0 180.5 -45.5 q81.5 -45.5 129.5 -131.5 q48 -86 48 -202 q0 -117 -48 -203 q-48 -86 -129.5 -131.5 q-81.5 -45.5 -180.5 -45.5 q-100 0 -181.5 45.5 q-81.5 45.5 -129 131.5 q-47.5 86 -47.5 203 ZM219 367 q0 -67 22.5 -118 q22.5 -51 62.5 -78.5 q40 -27.5 92 -27.5 q52 0 92.5 27.5 q40.5 27.5 63 78.5 q22.5 51 22.5 118 q0 66 -22.5 116.5 q-22.5 50.5 -63 78 q-40.5 27.5 -92.5 27.5 q-52 0 -92 -27.5 q-40 -27.5 -62.5 -78 q-22.5 -50.5 -22.5 -116.5 Z" /><glyph glyph-name="uni1ECE" unicode="&#x1ece;" d="M263 906 q22 10 52.5 16 q30.5 6 62.5 6 q60 0 98.5 -18 q38.5 -18 38.5 -54 q0 -62 -127 -90 l-53 52 q33 7 50 14 q17 7 17 16 q0 8 -10.5 12.5 q-10.5 4.5 -28.5 4.5 q-38 0 -79 -19 l-21 60 ZM38 367 q0 116 47.5 202 q47.5 86 129.5 131.5 q82 45.5 181 45.5 q99 0 180.5 -45.5 q81.5 -45.5 129.5 -131.5 q48 -86 48 -202 q0 -117 -48 -203 q-48 -86 -129.5 -131.5 q-81.5 -45.5 -180.5 -45.5 q-100 0 -181.5 45.5 q-81.5 45.5 -129 131.5 q-47.5 86 -47.5 203 ZM219 367 q0 -67 22.5 -118 q22.5 -51 62.5 -78.5 q40 -27.5 92 -27.5 q52 0 92.5 27.5 q40.5 27.5 63 78.5 q22.5 51 22.5 118 q0 66 -22.5 116.5 q-22.5 50.5 -63 78 q-40.5 27.5 -92.5 27.5 q-52 0 -92 -27.5 q-40 -27.5 -62.5 -78 q-22.5 -50.5 -22.5 -116.5 Z" /><glyph glyph-name="Ohorn" unicode="&#x1a0;" d="M651 629 q103 -97 103 -262 q0 -114 -48 -200.5 q-48 -86.5 -130 -133 q-82 -46.5 -180 -46.5 q-99 0 -180.5 46.5 q-81.5 46.5 -129.5 133 q-48 86.5 -48 200.5 q0 114 48.5 200 q48.5 86 133.5 132.5 q85 46.5 191 46.5 q27 0 52 -3 q25 -3 31 -4 q46 -7 81 -7 q42 0 59 13 q17 13 17 53 q0 34 -7 63 l134 0 q8 -32 8 -72 q0 -79 -30 -115.5 q-30 -36.5 -105 -44.5 ZM396 143 q52 0 92 27.5 q40 27.5 62.5 78.5 q22.5 51 22.5 118 q0 66 -22.5 116.5 q-22.5 50.5 -62.5 78 q-40 27.5 -92 27.5 q-52 0 -92.5 -27.5 q-40.5 -27.5 -63 -78 q-22.5 -50.5 -22.5 -116.5 q0 -67 22.5 -118 q22.5 -51 63 -78.5 q40.5 -27.5 92.5 -27.5 Z" /><glyph glyph-name="uni1EDA" unicode="&#x1eda;" d="M433 928 l167 0 l-134 -133 l-131 0 l98 133 ZM651 629 q103 -97 103 -262 q0 -114 -48 -200.5 q-48 -86.5 -130 -133 q-82 -46.5 -180 -46.5 q-99 0 -180.5 46.5 q-81.5 46.5 -129.5 133 q-48 86.5 -48 200.5 q0 114 48.5 200 q48.5 86 133.5 132.5 q85 46.5 191 46.5 q27 0 52 -3 q25 -3 31 -4 q46 -7 81 -7 q42 0 59 13 q17 13 17 53 q0 34 -7 63 l134 0 q8 -32 8 -72 q0 -79 -30 -115.5 q-30 -36.5 -105 -44.5 ZM396 143 q52 0 92 27.5 q40 27.5 62.5 78.5 q22.5 51 22.5 118 q0 66 -22.5 116.5 q-22.5 50.5 -62.5 78 q-40 27.5 -92 27.5 q-52 0 -92.5 -27.5 q-40.5 -27.5 -63 -78 q-22.5 -50.5 -22.5 -116.5 q0 -67 22.5 -118 q22.5 -51 63 -78.5 q40.5 -27.5 92.5 -27.5 Z" /><glyph glyph-name="uni1EE2" unicode="&#x1ee2;" d="M651 629 q103 -97 103 -262 q0 -114 -48 -200.5 q-48 -86.5 -130 -133 q-82 -46.5 -180 -46.5 q-99 0 -180.5 46.5 q-81.5 46.5 -129.5 133 q-48 86.5 -48 200.5 q0 114 48.5 200 q48.5 86 133.5 132.5 q85 46.5 191 46.5 q27 0 52 -3 q25 -3 31 -4 q46 -7 81 -7 q42 0 59 13 q17 13 17 53 q0 34 -7 63 l134 0 q8 -32 8 -72 q0 -79 -30 -115.5 q-30 -36.5 -105 -44.5 ZM396 143 q52 0 92 27.5 q40 27.5 62.5 78.5 q22.5 51 22.5 118 q0 66 -22.5 116.5 q-22.5 50.5 -62.5 78 q-40 27.5 -92 27.5 q-52 0 -92.5 -27.5 q-40.5 -27.5 -63 -78 q-22.5 -50.5 -22.5 -116.5 q0 -67 22.5 -118 q22.5 -51 63 -78.5 q40.5 -27.5 92.5 -27.5 ZM396 -52 q38 0 66.5 -28 q28.5 -28 28.5 -65 q0 -38 -28 -65.5 q-28 -27.5 -67 -27.5 q-39 0 -66.5 27.5 q-27.5 27.5 -27.5 65.5 q0 38 27.5 65.5 q27.5 27.5 66.5 27.5 Z" /><glyph glyph-name="uni1EDC" unicode="&#x1edc;" d="M359 928 l98 -133 l-131 0 l-134 133 l167 0 ZM651 629 q103 -97 103 -262 q0 -114 -48 -200.5 q-48 -86.5 -130 -133 q-82 -46.5 -180 -46.5 q-99 0 -180.5 46.5 q-81.5 46.5 -129.5 133 q-48 86.5 -48 200.5 q0 114 48.5 200 q48.5 86 133.5 132.5 q85 46.5 191 46.5 q27 0 52 -3 q25 -3 31 -4 q46 -7 81 -7 q42 0 59 13 q17 13 17 53 q0 34 -7 63 l134 0 q8 -32 8 -72 q0 -79 -30 -115.5 q-30 -36.5 -105 -44.5 ZM396 143 q52 0 92 27.5 q40 27.5 62.5 78.5 q22.5 51 22.5 118 q0 66 -22.5 116.5 q-22.5 50.5 -62.5 78 q-40 27.5 -92 27.5 q-52 0 -92.5 -27.5 q-40.5 -27.5 -63 -78 q-22.5 -50.5 -22.5 -116.5 q0 -67 22.5 -118 q22.5 -51 63 -78.5 q40.5 -27.5 92.5 -27.5 Z" /><glyph glyph-name="uni1EDE" unicode="&#x1ede;" d="M363 865 q-38 0 -79 -19 l-21 60 q22 10 52.5 16 q30.5 6 62.5 6 q60 0 98.5 -18 q38.5 -18 38.5 -54 q0 -62 -127 -90 l-53 52 q33 7 50 14 q17 7 17 16 q0 8 -10.5 12.5 q-10.5 4.5 -28.5 4.5 ZM651 629 q103 -97 103 -262 q0 -114 -48 -200.5 q-48 -86.5 -130 -133 q-82 -46.5 -180 -46.5 q-99 0 -180.5 46.5 q-81.5 46.5 -129.5 133 q-48 86.5 -48 200.5 q0 114 48.5 200 q48.5 86 133.5 132.5 q85 46.5 191 46.5 q27 0 52 -3 q25 -3 31 -4 q46 -7 81 -7 q42 0 59 13 q17 13 17 53 q0 34 -7 63 l134 0 q8 -32 8 -72 q0 -79 -30 -115.5 q-30 -36.5 -105 -44.5 ZM396 143 q52 0 92 27.5 q40 27.5 62.5 78.5 q22.5 51 22.5 118 q0 66 -22.5 116.5 q-22.5 50.5 -62.5 78 q-40 27.5 -92 27.5 q-52 0 -92.5 -27.5 q-40.5 -27.5 -63 -78 q-22.5 -50.5 -22.5 -116.5 q0 -67 22.5 -118 q22.5 -51 63 -78.5 q40.5 -27.5 92.5 -27.5 Z" /><glyph glyph-name="uni1EE0" unicode="&#x1ee0;" d="M333 847 q-25 0 -35 -43 l-106 0 q2 55 38 89.5 q36 34.5 93 34.5 q35 0 57 -10 q22 -10 43 -27 q13 -10 20 -14 q7 -4 16 -4 q25 0 35 42 l106 0 q-2 -55 -37.5 -89 q-35.5 -34 -93.5 -34 q-35 0 -57 10 q-22 10 -43 27 q-13 10 -20 14 q-7 4 -16 4 ZM651 629 q103 -97 103 -262 q0 -114 -48 -200.5 q-48 -86.5 -130 -133 q-82 -46.5 -180 -46.5 q-99 0 -180.5 46.5 q-81.5 46.5 -129.5 133 q-48 86.5 -48 200.5 q0 114 48.5 200 q48.5 86 133.5 132.5 q85 46.5 191 46.5 q27 0 52 -3 q25 -3 31 -4 q46 -7 81 -7 q42 0 59 13 q17 13 17 53 q0 34 -7 63 l134 0 q8 -32 8 -72 q0 -79 -30 -115.5 q-30 -36.5 -105 -44.5 ZM396 143 q52 0 92 27.5 q40 27.5 62.5 78.5 q22.5 51 22.5 118 q0 66 -22.5 116.5 q-22.5 50.5 -62.5 78 q-40 27.5 -92 27.5 q-52 0 -92.5 -27.5 q-40.5 -27.5 -63 -78 q-22.5 -50.5 -22.5 -116.5 q0 -67 22.5 -118 q22.5 -51 63 -78.5 q40.5 -27.5 92.5 -27.5 Z" /><glyph glyph-name="Ohungarumlaut" unicode="&#x150;" d="M245 794 l93 134 l148 0 l-129 -134 l-112 0 ZM435 794 l93 134 l148 0 l-129 -134 l-112 0 ZM38 367 q0 116 47.5 202 q47.5 86 129.5 131.5 q82 45.5 181 45.5 q99 0 180.5 -45.5 q81.5 -45.5 129.5 -131.5 q48 -86 48 -202 q0 -117 -48 -203 q-48 -86 -129.5 -131.5 q-81.5 -45.5 -180.5 -45.5 q-100 0 -181.5 45.5 q-81.5 45.5 -129 131.5 q-47.5 86 -47.5 203 ZM219 367 q0 -67 22.5 -118 q22.5 -51 62.5 -78.5 q40 -27.5 92 -27.5 q52 0 92.5 27.5 q40.5 27.5 63 78.5 q22.5 51 22.5 118 q0 66 -22.5 116.5 q-22.5 50.5 -63 78 q-40.5 27.5 -92.5 27.5 q-52 0 -92 -27.5 q-40 -27.5 -62.5 -78 q-22.5 -50.5 -22.5 -116.5 Z" /><glyph glyph-name="Omacron" unicode="&#x14c;" d="M220 822 l0 105 l352 0 l0 -105 l-352 0 ZM38 367 q0 116 47.5 202 q47.5 86 129.5 131.5 q82 45.5 181 45.5 q99 0 180.5 -45.5 q81.5 -45.5 129.5 -131.5 q48 -86 48 -202 q0 -117 -48 -203 q-48 -86 -129.5 -131.5 q-81.5 -45.5 -180.5 -45.5 q-100 0 -181.5 45.5 q-81.5 45.5 -129 131.5 q-47.5 86 -47.5 203 ZM219 367 q0 -67 22.5 -118 q22.5 -51 62.5 -78.5 q40 -27.5 92 -27.5 q52 0 92.5 27.5 q40.5 27.5 63 78.5 q22.5 51 22.5 118 q0 66 -22.5 116.5 q-22.5 50.5 -63 78 q-40.5 27.5 -92.5 27.5 q-52 0 -92 -27.5 q-40 -27.5 -62.5 -78 q-22.5 -50.5 -22.5 -116.5 Z" /><glyph glyph-name="Oslash" unicode="Ø" d="M584 768 l170 0 l-93 -137 q44 -50 68.5 -117.5 q24.5 -67.5 24.5 -146.5 q0 -114 -48 -200.5 q-48 -86.5 -129.5 -133 q-81.5 -46.5 -179.5 -46.5 q-82 0 -152 32 l-36 -54 l-170 0 l93 137 q-45 51 -69 118 q-24 67 -24 147 q0 113 48 199 q48 86 129.5 133 q81.5 47 180.5 47 q80 0 150 -32 l37 54 ZM211 367 q0 -65 23 -114 l221 325 q-23 11 -58 11 q-54 0 -96.5 -27.5 q-42.5 -27.5 -66 -78 q-23.5 -50.5 -23.5 -116.5 ZM580 367 q0 64 -21 112 l-222 -325 q25 -11 60 -11 q54 0 95.5 27.5 q41.5 27.5 64.5 78.5 q23 51 23 118 Z" /><glyph glyph-name="Oslashacute" unicode="&#x1fe;" d="M335 795 l98 133 l167 0 l-134 -133 l-131 0 ZM584 768 l170 0 l-93 -137 q44 -50 68.5 -117.5 q24.5 -67.5 24.5 -146.5 q0 -114 -48 -200.5 q-48 -86.5 -129.5 -133 q-81.5 -46.5 -179.5 -46.5 q-82 0 -152 32 l-36 -54 l-170 0 l93 137 q-45 51 -69 118 q-24 67 -24 147 q0 113 48 199 q48 86 129.5 133 q81.5 47 180.5 47 q80 0 150 -32 l37 54 ZM211 367 q0 -65 23 -114 l221 325 q-23 11 -58 11 q-54 0 -96.5 -27.5 q-42.5 -27.5 -66 -78 q-23.5 -50.5 -23.5 -116.5 ZM580 367 q0 64 -21 112 l-222 -325 q25 -11 60 -11 q54 0 95.5 27.5 q41.5 27.5 64.5 78.5 q23 51 23 118 Z" /><glyph glyph-name="Otilde" unicode="Õ" d="M192 804 q2 55 38 89.5 q36 34.5 93 34.5 q35 0 57 -10 q22 -10 43 -27 q13 -10 20 -14 q7 -4 16 -4 q25 0 35 42 l106 0 q-2 -55 -37.5 -89 q-35.5 -34 -93.5 -34 q-35 0 -57 10 q-22 10 -43 27 q-13 10 -20 14 q-7 4 -16 4 q-26 0 -35 -43 l-106 0 ZM38 367 q0 116 47.5 202 q47.5 86 129.5 131.5 q82 45.5 181 45.5 q99 0 180.5 -45.5 q81.5 -45.5 129.5 -131.5 q48 -86 48 -202 q0 -117 -48 -203 q-48 -86 -129.5 -131.5 q-81.5 -45.5 -180.5 -45.5 q-100 0 -181.5 45.5 q-81.5 45.5 -129 131.5 q-47.5 86 -47.5 203 ZM219 367 q0 -67 22.5 -118 q22.5 -51 62.5 -78.5 q40 -27.5 92 -27.5 q52 0 92.5 27.5 q40.5 27.5 63 78.5 q22.5 51 22.5 118 q0 66 -22.5 116.5 q-22.5 50.5 -63 78 q-40.5 27.5 -92.5 27.5 q-52 0 -92 -27.5 q-40 -27.5 -62.5 -78 q-22.5 -50.5 -22.5 -116.5 Z" /><glyph glyph-name="OE" unicode="&#x152;" d="M743 295 l0 -147 l331 0 l0 -148 l-501 0 l0 62 q-40 -36 -90.5 -55.5 q-50.5 -19.5 -105.5 -19.5 q-90 0 -167.5 47 q-77.5 47 -124.5 133.5 q-47 86.5 -47 199.5 q0 112 47 198.5 q47 86.5 124.5 133.5 q77.5 47 167.5 47 q55 0 105.5 -19.5 q50.5 -19.5 90.5 -55.5 l0 61 l489 0 l0 -147 l-319 0 l0 -144 l287 0 l0 -146 l-287 0 ZM396 143 q52 0 92 27.5 q40 27.5 62.5 78.5 q22.5 51 22.5 118 q0 66 -22.5 116.5 q-22.5 50.5 -62.5 78 q-40 27.5 -92 27.5 q-52 0 -92.5 -27.5 q-40.5 -27.5 -63 -78 q-22.5 -50.5 -22.5 -116.5 q0 -67 22.5 -118 q22.5 -51 63 -78.5 q40.5 -27.5 92.5 -27.5 Z" /><glyph glyph-name="P" unicode="P" d="M337 732 q92 0 160 -30.5 q68 -30.5 104.5 -86.5 q36.5 -56 36.5 -131 q0 -75 -36.5 -131 q-36.5 -56 -104.5 -86.5 q-68 -30.5 -160 -30.5 l-94 0 l0 -236 l-171 0 l0 732 l265 0 ZM318 380 q62 0 101 24 q39 24 39 80 q0 55 -39.5 79.5 q-39.5 24.5 -100.5 24.5 l-75 0 l0 -208 l75 0 Z" /><glyph glyph-name="Thorn" unicode="Þ" d="M337 614 q92 0 160 -30.5 q68 -30.5 104.5 -86.5 q36.5 -56 36.5 -131 q0 -75 -36.5 -131 q-36.5 -56 -104.5 -86 q-68 -30 -160 -30 l-94 0 l0 -119 l-171 0 l0 732 l171 0 l0 -118 l94 0 ZM318 263 q54 0 97 20 q43 20 43 83 q0 59 -40 82 q-40 23 -100 23 l-75 0 l0 -208 l75 0 Z" /><glyph glyph-name="Q" unicode="Q" d="M833 -173 l-232 0 l-180 161 q-9 -1 -25 -1 q-100 0 -181.5 45.5 q-81.5 45.5 -129 131.5 q-47.5 86 -47.5 203 q0 116 47.5 202 q47.5 86 129.5 131.5 q82 45.5 181 45.5 q99 0 180.5 -45.5 q81.5 -45.5 129.5 -131.5 q48 -86 48 -202 q0 -110 -42.5 -193 q-42.5 -83 -116.5 -131 l238 -216 ZM219 367 q0 -67 22.5 -118 q22.5 -51 62.5 -78.5 q40 -27.5 92 -27.5 q52 0 92.5 27.5 q40.5 27.5 63 78.5 q22.5 51 22.5 118 q0 66 -22.5 116.5 q-22.5 50.5 -63 78 q-40.5 27.5 -92.5 27.5 q-52 0 -92 -27.5 q-40 -27.5 -62.5 -78 q-22.5 -50.5 -22.5 -116.5 Z" /><glyph glyph-name="R" unicode="R" d="M705 0 l-203 1 l-162 247 l-5 0 l-92 0 l0 -248 l-171 0 l0 732 l266 0 q91 0 158.5 -30 q67.5 -30 103.5 -85 q36 -55 36 -127 q0 -69 -33 -122 q-33 -53 -95 -84 l197 -284 ZM243 588 l0 -197 l75 0 q57 0 97.5 22.5 q40.5 22.5 40.5 76.5 q0 98 -138 98 l-75 0 Z" /><glyph glyph-name="Racute" unicode="&#x154;" d="M249 796 l98 132 l167 0 l-134 -132 l-131 0 ZM705 0 l-203 1 l-162 247 l-5 0 l-92 0 l0 -248 l-171 0 l0 732 l266 0 q91 0 158.5 -30 q67.5 -30 103.5 -85 q36 -55 36 -127 q0 -69 -33 -122 q-33 -53 -95 -84 l197 -284 ZM243 588 l0 -197 l75 0 q57 0 97.5 22.5 q40.5 22.5 40.5 76.5 q0 98 -138 98 l-75 0 Z" /><glyph glyph-name="Rcaron" unicode="&#x158;" d="M248 928 l62 -61 l61 61 l136 0 l-137 -133 l-121 0 l-137 133 l136 0 ZM705 0 l-203 1 l-162 247 l-5 0 l-92 0 l0 -248 l-171 0 l0 732 l266 0 q91 0 158.5 -30 q67.5 -30 103.5 -85 q36 -55 36 -127 q0 -69 -33 -122 q-33 -53 -95 -84 l197 -284 ZM243 588 l0 -197 l75 0 q57 0 97.5 22.5 q40.5 22.5 40.5 76.5 q0 98 -138 98 l-75 0 Z" /><glyph glyph-name="uni0156" unicode="&#x156;" d="M705 0 l-203 1 l-162 247 l-5 0 l-92 0 l0 -248 l-171 0 l0 732 l266 0 q91 0 158.5 -30 q67.5 -30 103.5 -85 q36 -55 36 -127 q0 -69 -33 -122 q-33 -53 -95 -84 l197 -284 ZM318 391 q57 0 97.5 22.5 q40.5 22.5 40.5 76.5 q0 98 -138 98 l-75 0 l0 -197 l75 0 ZM375 -30 q44 0 70.5 -23 q26.5 -23 26.5 -69 q0 -57 -44 -89 q-44 -32 -128 -33 l0 61 q64 3 78 30 l-4 0 q-38 1 -60.5 16 q-22.5 15 -22.5 43 q0 29 23.5 46.5 q23.5 17.5 60.5 17.5 Z" /><glyph glyph-name="S" unicode="S" d="M582 215 q0 -81 -42.5 -132 q-42.5 -51 -106.5 -73.5 q-64 -22.5 -131 -22.5 q-101 0 -185 46.5 q-84 46.5 -112 134.5 l138 79 q22 -51 64.5 -79 q42.5 -28 100.5 -28 q43 0 69.5 16.5 q26.5 16.5 26.5 48.5 q0 26 -18 43 q-18 17 -45 28 q-27 11 -76 25 q-72 21 -117.5 42 q-45.5 21 -78.5 63.5 q-33 42.5 -33 111.5 q0 76 39.5 127 q39.5 51 103 76 q63.5 25 136.5 25 q96 0 168 -44 q72 -44 93 -125 l-140 -79 q-16 45 -49.5 70 q-33.5 25 -81.5 25 q-41 0 -66.5 -19 q-25.5 -19 -25.5 -49 q0 -23 17.5 -39 q17.5 -16 43.5 -26 q26 -10 74 -25 q74 -22 120 -43.5 q46 -21.5 80 -64.5 q34 -43 34 -112 Z" /><glyph glyph-name="Sacute" unicode="&#x15a;" d="M248 795 l98 133 l167 0 l-134 -133 l-131 0 ZM582 215 q0 -81 -42.5 -132 q-42.5 -51 -106.5 -73.5 q-64 -22.5 -131 -22.5 q-101 0 -185 46.5 q-84 46.5 -112 134.5 l138 79 q22 -51 64.5 -79 q42.5 -28 100.5 -28 q43 0 69.5 16.5 q26.5 16.5 26.5 48.5 q0 26 -18 43 q-18 17 -45 28 q-27 11 -76 25 q-72 21 -117.5 42 q-45.5 21 -78.5 63.5 q-33 42.5 -33 111.5 q0 76 39.5 127 q39.5 51 103 76 q63.5 25 136.5 25 q96 0 168 -44 q72 -44 93 -125 l-140 -79 q-16 45 -49.5 70 q-33.5 25 -81.5 25 q-41 0 -66.5 -19 q-25.5 -19 -25.5 -49 q0 -23 17.5 -39 q17.5 -16 43.5 -26 q26 -10 74 -25 q74 -22 120 -43.5 q46 -21.5 80 -64.5 q34 -43 34 -112 Z" /><glyph glyph-name="Scaron" unicode="&#x160;" d="M247 928 l63 -62 l61 62 l135 0 l-137 -134 l-120 0 l-137 134 l135 0 ZM582 215 q0 -81 -42.5 -132 q-42.5 -51 -106.5 -73.5 q-64 -22.5 -131 -22.5 q-101 0 -185 46.5 q-84 46.5 -112 134.5 l138 79 q22 -51 64.5 -79 q42.5 -28 100.5 -28 q43 0 69.5 16.5 q26.5 16.5 26.5 48.5 q0 26 -18 43 q-18 17 -45 28 q-27 11 -76 25 q-72 21 -117.5 42 q-45.5 21 -78.5 63.5 q-33 42.5 -33 111.5 q0 76 39.5 127 q39.5 51 103 76 q63.5 25 136.5 25 q96 0 168 -44 q72 -44 93 -125 l-140 -79 q-16 45 -49.5 70 q-33.5 25 -81.5 25 q-41 0 -66.5 -19 q-25.5 -19 -25.5 -49 q0 -23 17.5 -39 q17.5 -16 43.5 -26 q26 -10 74 -25 q74 -22 120 -43.5 q46 -21.5 80 -64.5 q34 -43 34 -112 Z" /><glyph glyph-name="Scedilla" unicode="&#x15e;" d="M582 215 q0 -77 -38.5 -127 q-38.5 -50 -98 -73.5 q-59.5 -23.5 -125.5 -26.5 l-20 -44 q48 -1 79 -24.5 q31 -23.5 31 -65.5 q0 -51 -44 -74.5 q-44 -23.5 -107 -23.5 q-42 0 -83 12 l0 76 q37 -13 79 -13 q21 0 34.5 5 q13.5 5 13.5 16 q0 11 -13 17 q-13 6 -35 6 q-27 0 -58 -9 l-11 51 l36 78 q-77 16 -135.5 60 q-58.5 44 -81.5 113 l138 79 q22 -51 64.5 -79 q42.5 -28 100.5 -28 q43 0 69.5 16.5 q26.5 16.5 26.5 48.5 q0 26 -18 43 q-18 17 -45 28 q-27 11 -76 25 q-72 21 -117.5 42 q-45.5 21 -78.5 63.5 q-33 42.5 -33 111.5 q0 76 39.5 127 q39.5 51 103 76 q63.5 25 136.5 25 q96 0 168 -44 q72 -44 93 -125 l-140 -79 q-16 45 -49.5 70 q-33.5 25 -81.5 25 q-41 0 -66.5 -19 q-25.5 -19 -25.5 -49 q0 -23 17.5 -39 q17.5 -16 43.5 -26 q26 -10 74 -25 q74 -22 120 -43.5 q46 -21.5 80 -64.5 q34 -43 34 -112 Z" /><glyph glyph-name="Scircumflex" unicode="&#x15c;" d="M249 928 l120 0 l137 -134 l-135 0 l-61 62 l-63 -62 l-135 0 l137 134 ZM582 215 q0 -81 -42.5 -132 q-42.5 -51 -106.5 -73.5 q-64 -22.5 -131 -22.5 q-101 0 -185 46.5 q-84 46.5 -112 134.5 l138 79 q22 -51 64.5 -79 q42.5 -28 100.5 -28 q43 0 69.5 16.5 q26.5 16.5 26.5 48.5 q0 26 -18 43 q-18 17 -45 28 q-27 11 -76 25 q-72 21 -117.5 42 q-45.5 21 -78.5 63.5 q-33 42.5 -33 111.5 q0 76 39.5 127 q39.5 51 103 76 q63.5 25 136.5 25 q96 0 168 -44 q72 -44 93 -125 l-140 -79 q-16 45 -49.5 70 q-33.5 25 -81.5 25 q-41 0 -66.5 -19 q-25.5 -19 -25.5 -49 q0 -23 17.5 -39 q17.5 -16 43.5 -26 q26 -10 74 -25 q74 -22 120 -43.5 q46 -21.5 80 -64.5 q34 -43 34 -112 Z" /><glyph glyph-name="uni0218" unicode="&#x218;" d="M582 215 q0 -81 -42.5 -132 q-42.5 -51 -106.5 -73.5 q-64 -22.5 -131 -22.5 q-101 0 -185 46.5 q-84 46.5 -112 134.5 l138 79 q22 -51 64.5 -79 q42.5 -28 100.5 -28 q43 0 69.5 16.5 q26.5 16.5 26.5 48.5 q0 26 -18 43 q-18 17 -45 28 q-27 11 -76 25 q-72 21 -117.5 42 q-45.5 21 -78.5 63.5 q-33 42.5 -33 111.5 q0 76 39.5 127 q39.5 51 103 76 q63.5 25 136.5 25 q96 0 168 -44 q72 -44 93 -125 l-140 -79 q-16 45 -49.5 70 q-33.5 25 -81.5 25 q-41 0 -66.5 -19 q-25.5 -19 -25.5 -49 q0 -23 17.5 -39 q17.5 -16 43.5 -26 q26 -10 74 -25 q74 -22 120 -43.5 q46 -21.5 80 -64.5 q34 -43 34 -112 ZM284 -30 q44 0 70.5 -23 q26.5 -23 26.5 -69 q0 -56 -44.5 -88.5 q-44.5 -32.5 -127.5 -33.5 l0 61 q64 3 78 30 l-4 0 q-38 1 -60.5 16 q-22.5 15 -22.5 43 q0 29 23.5 46.5 q23.5 17.5 60.5 17.5 Z" /><glyph glyph-name="uni018F" unicode="&#x18f;" d="M366 746 q98 0 176.5 -42.5 q78.5 -42.5 124 -128.5 q45.5 -86 45.5 -211 q0 -122 -46.5 -207 q-46.5 -85 -126 -127.5 q-79.5 -42.5 -177.5 -42.5 q-96 0 -167.5 40.5 q-71.5 40.5 -110.5 116 q-39 75.5 -39 177.5 q0 50 9 104 l475 0 q-12 81 -54 125 q-42 44 -116 44 q-57 0 -97 -28.5 q-40 -28.5 -71 -82.5 l-127 86 q39 86 120 131.5 q81 45.5 182 45.5 ZM365 138 q136 0 162 141 l-302 0 q2 -73 38.5 -107 q36.5 -34 101.5 -34 Z" /><glyph glyph-name="T" unicode="T" d="M7 732 l610 0 l0 -151 l-220 0 l0 -581 l-170 0 l0 581 l-220 0 l0 151 Z" /><glyph glyph-name="Tbar" unicode="&#x166;" d="M7 732 l610 0 l0 -151 l-220 0 l0 -170 l138 0 l0 -150 l-138 0 l0 -261 l-170 0 l0 261 l-136 0 l0 150 l136 0 l0 170 l-220 0 l0 151 Z" /><glyph glyph-name="Tcaron" unicode="&#x164;" d="M250 928 l62 -62 l62 62 l135 0 l-137 -134 l-120 0 l-137 134 l135 0 ZM7 732 l610 0 l0 -151 l-220 0 l0 -581 l-170 0 l0 581 l-220 0 l0 151 Z" /><glyph glyph-name="uni0162" unicode="&#x162;" d="M397 581 l0 -581 l-30 0 l-26 -56 q48 -1 79 -24.5 q31 -23.5 31 -65.5 q0 -50 -44 -74 q-44 -24 -106 -24 q-41 0 -84 12 l0 76 q39 -13 79 -13 q22 0 35 5 q13 5 13 16 q0 11 -13 17 q-13 6 -35 6 q-26 0 -58 -9 l-10 51 l38 83 l-39 0 l0 581 l-220 0 l0 151 l610 0 l0 -151 l-220 0 Z" /><glyph glyph-name="uni021A" unicode="&#x21a;" d="M227 581 l-220 0 l0 151 l610 0 l0 -151 l-220 0 l0 -581 l-170 0 l0 581 ZM309 -30 q44 0 70.5 -23 q26.5 -23 26.5 -69 q0 -57 -44 -89 q-44 -32 -128 -33 l0 61 q63 3 79 30 l-5 0 q-38 1 -60.5 16 q-22.5 15 -22.5 43 q0 29 23.5 46.5 q23.5 17.5 60.5 17.5 Z" /><glyph glyph-name="U" unicode="U" d="M537 732 l171 0 l0 -436 q0 -94 -38.5 -164 q-38.5 -70 -111 -107.5 q-72.5 -37.5 -172.5 -37.5 q-100 0 -172.5 37.5 q-72.5 37.5 -111 107.5 q-38.5 70 -38.5 164 l0 436 l171 0 l0 -391 q0 -102 40 -150 q40 -48 111 -48 q71 0 111 48 q40 48 40 150 l0 391 Z" /><glyph glyph-name="Uacute" unicode="Ú" d="M325 795 l98 133 l167 0 l-134 -133 l-131 0 ZM537 732 l171 0 l0 -436 q0 -94 -38.5 -164 q-38.5 -70 -111 -107.5 q-72.5 -37.5 -172.5 -37.5 q-100 0 -172.5 37.5 q-72.5 37.5 -111 107.5 q-38.5 70 -38.5 164 l0 436 l171 0 l0 -391 q0 -102 40 -150 q40 -48 111 -48 q71 0 111 48 q40 48 40 150 l0 391 Z" /><glyph glyph-name="Ubreve" unicode="&#x16c;" d="M386 793 q-84 0 -135 36.5 q-51 36.5 -51 98.5 l122 0 q8 -58 64 -58 q58 0 66 58 l122 0 q0 -63 -51 -99 q-51 -36 -137 -36 ZM537 732 l171 0 l0 -436 q0 -94 -38.5 -164 q-38.5 -70 -111 -107.5 q-72.5 -37.5 -172.5 -37.5 q-100 0 -172.5 37.5 q-72.5 37.5 -111 107.5 q-38.5 70 -38.5 164 l0 436 l171 0 l0 -391 q0 -102 40 -150 q40 -48 111 -48 q71 0 111 48 q40 48 40 150 l0 391 Z" /><glyph glyph-name="uni01D3" unicode="&#x1d3;" d="M324 928 l62 -62 l62 62 l135 0 l-137 -134 l-120 0 l-137 134 l135 0 ZM537 732 l171 0 l0 -436 q0 -94 -38.5 -164 q-38.5 -70 -111 -107.5 q-72.5 -37.5 -172.5 -37.5 q-100 0 -172.5 37.5 q-72.5 37.5 -111 107.5 q-38.5 70 -38.5 164 l0 436 l171 0 l0 -391 q0 -102 40 -150 q40 -48 111 -48 q71 0 111 48 q40 48 40 150 l0 391 Z" /><glyph glyph-name="Ucircumflex" unicode="Û" d="M326 928 l120 0 l137 -134 l-135 0 l-62 62 l-62 -62 l-135 0 l137 134 ZM537 732 l171 0 l0 -436 q0 -94 -38.5 -164 q-38.5 -70 -111 -107.5 q-72.5 -37.5 -172.5 -37.5 q-100 0 -172.5 37.5 q-72.5 37.5 -111 107.5 q-38.5 70 -38.5 164 l0 436 l171 0 l0 -391 q0 -102 40 -150 q40 -48 111 -48 q71 0 111 48 q40 48 40 150 l0 391 Z" /><glyph glyph-name="Udieresis" unicode="Ü" d="M268 789 q-34 0 -58 20.5 q-24 20.5 -24 49.5 q0 28 24 48.5 q24 20.5 58 20.5 q36 0 60.5 -20.5 q24.5 -20.5 24.5 -48.5 q0 -29 -24.5 -49.5 q-24.5 -20.5 -60.5 -20.5 ZM502 789 q-35 0 -59 21 q-24 21 -24 49 q0 28 24 48.5 q24 20.5 59 20.5 q34 0 58.5 -20.5 q24.5 -20.5 24.5 -48.5 q0 -29 -24.5 -49.5 q-24.5 -20.5 -58.5 -20.5 ZM537 732 l171 0 l0 -436 q0 -94 -38.5 -164 q-38.5 -70 -111 -107.5 q-72.5 -37.5 -172.5 -37.5 q-100 0 -172.5 37.5 q-72.5 37.5 -111 107.5 q-38.5 70 -38.5 164 l0 436 l171 0 l0 -391 q0 -102 40 -150 q40 -48 111 -48 q71 0 111 48 q40 48 40 150 l0 391 Z" /><glyph glyph-name="uni01D7" unicode="&#x1d7;" d="M324 866 l98 62 l167 0 l-134 -62 l-131 0 ZM268 767 q-34 0 -58 13 q-24 13 -24 30 q0 19 24 32 q24 13 58 13 q36 0 60.5 -13 q24.5 -13 24.5 -32 q0 -17 -24.5 -30 q-24.5 -13 -60.5 -13 ZM502 767 q-35 0 -59 13 q-24 13 -24 30 q0 19 24 32 q24 13 59 13 q35 0 59 -13 q24 -13 24 -32 q0 -17 -24.5 -30 q-24.5 -13 -58.5 -13 ZM537 732 l171 0 l0 -436 q0 -94 -38.5 -164 q-38.5 -70 -111 -107.5 q-72.5 -37.5 -172.5 -37.5 q-100 0 -172.5 37.5 q-72.5 37.5 -111 107.5 q-38.5 70 -38.5 164 l0 436 l171 0 l0 -391 q0 -102 40 -150 q40 -48 111 -48 q71 0 111 48 q40 48 40 150 l0 391 Z" /><glyph glyph-name="uni01D9" unicode="&#x1d9;" d="M582 928 l-137 -63 l-120 0 l-137 63 l143 0 l54 -25 l54 25 l143 0 ZM268 767 q-34 0 -58 13 q-24 13 -24 30 q0 19 24 32 q24 13 58 13 q36 0 60.5 -13 q24.5 -13 24.5 -32 q0 -17 -24.5 -30 q-24.5 -13 -60.5 -13 ZM502 767 q-35 0 -59 13 q-24 13 -24 30 q0 19 24 32 q24 13 59 13 q35 0 59 -13 q24 -13 24 -32 q0 -17 -24.5 -30 q-24.5 -13 -58.5 -13 ZM537 732 l171 0 l0 -436 q0 -94 -38.5 -164 q-38.5 -70 -111 -107.5 q-72.5 -37.5 -172.5 -37.5 q-100 0 -172.5 37.5 q-72.5 37.5 -111 107.5 q-38.5 70 -38.5 164 l0 436 l171 0 l0 -391 q0 -102 40 -150 q40 -48 111 -48 q71 0 111 48 q40 48 40 150 l0 391 Z" /><glyph glyph-name="uni01DB" unicode="&#x1db;" d="M182 928 l167 0 l98 -62 l-131 0 l-134 62 ZM268 767 q-34 0 -58 13 q-24 13 -24 30 q0 19 24 32 q24 13 58 13 q36 0 60.5 -13 q24.5 -13 24.5 -32 q0 -17 -24.5 -30 q-24.5 -13 -60.5 -13 ZM502 767 q-35 0 -59 13 q-24 13 -24 30 q0 19 24 32 q24 13 59 13 q35 0 59 -13 q24 -13 24 -32 q0 -17 -24.5 -30 q-24.5 -13 -58.5 -13 ZM537 732 l171 0 l0 -436 q0 -94 -38.5 -164 q-38.5 -70 -111 -107.5 q-72.5 -37.5 -172.5 -37.5 q-100 0 -172.5 37.5 q-72.5 37.5 -111 107.5 q-38.5 70 -38.5 164 l0 436 l171 0 l0 -391 q0 -102 40 -150 q40 -48 111 -48 q71 0 111 48 q40 48 40 150 l0 391 Z" /><glyph glyph-name="uni01D5" unicode="&#x1d5;" d="M209 877 l0 51 l352 0 l0 -51 l-352 0 ZM268 767 q-34 0 -58 13.5 q-24 13.5 -24 32.5 q0 19 24 33 q24 14 58 14 q36 0 60.5 -13.5 q24.5 -13.5 24.5 -33.5 q0 -19 -24.5 -32.5 q-24.5 -13.5 -60.5 -13.5 ZM502 767 q-35 0 -59 13.5 q-24 13.5 -24 32.5 q0 20 24 33.5 q24 13.5 59 13.5 q34 0 58.5 -13.5 q24.5 -13.5 24.5 -33.5 q0 -19 -24.5 -32.5 q-24.5 -13.5 -58.5 -13.5 ZM537 732 l171 0 l0 -436 q0 -94 -38.5 -164 q-38.5 -70 -111 -107.5 q-72.5 -37.5 -172.5 -37.5 q-100 0 -172.5 37.5 q-72.5 37.5 -111 107.5 q-38.5 70 -38.5 164 l0 436 l171 0 l0 -391 q0 -102 40 -150 q40 -48 111 -48 q71 0 111 48 q40 48 40 150 l0 391 Z" /><glyph glyph-name="uni1EE4" unicode="&#x1ee4;" d="M537 732 l171 0 l0 -436 q0 -94 -38.5 -164 q-38.5 -70 -111 -107.5 q-72.5 -37.5 -172.5 -37.5 q-100 0 -172.5 37.5 q-72.5 37.5 -111 107.5 q-38.5 70 -38.5 164 l0 436 l171 0 l0 -391 q0 -102 40 -150 q40 -48 111 -48 q71 0 111 48 q40 48 40 150 l0 391 ZM386 -238 q-39 0 -66.5 27.5 q-27.5 27.5 -27.5 65.5 q0 38 27.5 65.5 q27.5 27.5 66.5 27.5 q38 0 66.5 -28 q28.5 -28 28.5 -65 q0 -38 -28 -65.5 q-28 -27.5 -67 -27.5 Z" /><glyph glyph-name="Ugrave" unicode="Ù" d="M183 928 l167 0 l98 -133 l-131 0 l-134 133 ZM537 732 l171 0 l0 -436 q0 -94 -38.5 -164 q-38.5 -70 -111 -107.5 q-72.5 -37.5 -172.5 -37.5 q-100 0 -172.5 37.5 q-72.5 37.5 -111 107.5 q-38.5 70 -38.5 164 l0 436 l171 0 l0 -391 q0 -102 40 -150 q40 -48 111 -48 q71 0 111 48 q40 48 40 150 l0 391 Z" /><glyph glyph-name="uni1EE6" unicode="&#x1ee6;" d="M254 906 q46 22 114 22 q60 0 98.5 -18 q38.5 -18 38.5 -54 q0 -63 -127 -90 l-53 52 q33 7 50 14 q17 7 17 16 q0 8 -10.5 12.5 q-10.5 4.5 -28.5 4.5 q-36 0 -79 -19 l-20 60 ZM537 732 l171 0 l0 -436 q0 -94 -38.5 -164 q-38.5 -70 -111 -107.5 q-72.5 -37.5 -172.5 -37.5 q-100 0 -172.5 37.5 q-72.5 37.5 -111 107.5 q-38.5 70 -38.5 164 l0 436 l171 0 l0 -391 q0 -102 40 -150 q40 -48 111 -48 q71 0 111 48 q40 48 40 150 l0 391 Z" /><glyph glyph-name="Uhorn" unicode="&#x1af;" d="M860 789 q0 -55 -14 -88 q-14 -33 -47 -50.5 q-33 -17.5 -91 -22.5 l0 -332 q0 -94 -38.5 -164 q-38.5 -70 -111 -107.5 q-72.5 -37.5 -172.5 -37.5 q-100 0 -172.5 37.5 q-72.5 37.5 -111 107.5 q-38.5 70 -38.5 164 l0 436 l171 0 l0 -391 q0 -102 40 -150 q40 -48 111 -48 q71 0 111 48 q40 48 40 150 l0 391 l77 0 q50 0 72 4 q22 4 31 17.5 q9 13.5 9 43.5 q0 33 -7 64 l133 0 q8 -32 8 -72 Z" /><glyph glyph-name="uni1EE8" unicode="&#x1ee8;" d="M325 795 l98 133 l167 0 l-134 -133 l-131 0 ZM860 789 q0 -55 -14 -88 q-14 -33 -47 -50.5 q-33 -17.5 -91 -22.5 l0 -332 q0 -94 -38.5 -164 q-38.5 -70 -111 -107.5 q-72.5 -37.5 -172.5 -37.5 q-100 0 -172.5 37.5 q-72.5 37.5 -111 107.5 q-38.5 70 -38.5 164 l0 436 l171 0 l0 -391 q0 -102 40 -150 q40 -48 111 -48 q71 0 111 48 q40 48 40 150 l0 391 l77 0 q50 0 72 4 q22 4 31 17.5 q9 13.5 9 43.5 q0 33 -7 64 l133 0 q8 -32 8 -72 Z" /><glyph glyph-name="uni1EF0" unicode="&#x1ef0;" d="M860 789 q0 -55 -14 -88 q-14 -33 -47 -50.5 q-33 -17.5 -91 -22.5 l0 -332 q0 -94 -38.5 -164 q-38.5 -70 -111 -107.5 q-72.5 -37.5 -172.5 -37.5 q-100 0 -172.5 37.5 q-72.5 37.5 -111 107.5 q-38.5 70 -38.5 164 l0 436 l171 0 l0 -391 q0 -102 40 -150 q40 -48 111 -48 q71 0 111 48 q40 48 40 150 l0 391 l77 0 q50 0 72 4 q22 4 31 17.5 q9 13.5 9 43.5 q0 33 -7 64 l133 0 q8 -32 8 -72 ZM386 -238 q-39 0 -66.5 27.5 q-27.5 27.5 -27.5 65.5 q0 38 27.5 65.5 q27.5 27.5 66.5 27.5 q38 0 66.5 -28 q28.5 -28 28.5 -65 q0 -38 -28 -65.5 q-28 -27.5 -67 -27.5 Z" /><glyph glyph-name="uni1EEA" unicode="&#x1eea;" d="M183 928 l167 0 l98 -133 l-131 0 l-134 133 ZM860 789 q0 -55 -14 -88 q-14 -33 -47 -50.5 q-33 -17.5 -91 -22.5 l0 -332 q0 -94 -38.5 -164 q-38.5 -70 -111 -107.5 q-72.5 -37.5 -172.5 -37.5 q-100 0 -172.5 37.5 q-72.5 37.5 -111 107.5 q-38.5 70 -38.5 164 l0 436 l171 0 l0 -391 q0 -102 40 -150 q40 -48 111 -48 q71 0 111 48 q40 48 40 150 l0 391 l77 0 q50 0 72 4 q22 4 31 17.5 q9 13.5 9 43.5 q0 33 -7 64 l133 0 q8 -32 8 -72 Z" /><glyph glyph-name="uni1EEC" unicode="&#x1eec;" d="M254 906 q46 22 114 22 q60 0 98.5 -18 q38.5 -18 38.5 -54 q0 -63 -127 -90 l-53 52 q33 7 50 14 q17 7 17 16 q0 8 -10.5 12.5 q-10.5 4.5 -28.5 4.5 q-36 0 -79 -19 l-20 60 ZM860 789 q0 -55 -14 -88 q-14 -33 -47 -50.5 q-33 -17.5 -91 -22.5 l0 -332 q0 -94 -38.5 -164 q-38.5 -70 -111 -107.5 q-72.5 -37.5 -172.5 -37.5 q-100 0 -172.5 37.5 q-72.5 37.5 -111 107.5 q-38.5 70 -38.5 164 l0 436 l171 0 l0 -391 q0 -102 40 -150 q40 -48 111 -48 q71 0 111 48 q40 48 40 150 l0 391 l77 0 q50 0 72 4 q22 4 31 17.5 q9 13.5 9 43.5 q0 33 -7 64 l133 0 q8 -32 8 -72 Z" /><glyph glyph-name="uni1EEE" unicode="&#x1eee;" d="M182 804 q2 55 38 89.5 q36 34.5 94 34.5 q34 0 56 -10 q22 -10 43 -27 q12 -9 20 -13.5 q8 -4.5 17 -4.5 q24 0 34 42 l106 0 q-2 -55 -37.5 -89 q-35.5 -34 -93.5 -34 q-34 0 -55.5 10 q-21.5 10 -44.5 27 q-13 10 -20 14 q-7 4 -16 4 q-25 0 -34 -43 l-107 0 ZM860 789 q0 -55 -14 -88 q-14 -33 -47 -50.5 q-33 -17.5 -91 -22.5 l0 -332 q0 -94 -38.5 -164 q-38.5 -70 -111 -107.5 q-72.5 -37.5 -172.5 -37.5 q-100 0 -172.5 37.5 q-72.5 37.5 -111 107.5 q-38.5 70 -38.5 164 l0 436 l171 0 l0 -391 q0 -102 40 -150 q40 -48 111 -48 q71 0 111 48 q40 48 40 150 l0 391 l77 0 q50 0 72 4 q22 4 31 17.5 q9 13.5 9 43.5 q0 33 -7 64 l133 0 q8 -32 8 -72 Z" /><glyph glyph-name="Uhungarumlaut" unicode="&#x170;" d="M235 794 l93 134 l148 0 l-129 -134 l-112 0 ZM425 794 l93 134 l148 0 l-129 -134 l-112 0 ZM537 732 l171 0 l0 -436 q0 -94 -38.5 -164 q-38.5 -70 -111 -107.5 q-72.5 -37.5 -172.5 -37.5 q-100 0 -172.5 37.5 q-72.5 37.5 -111 107.5 q-38.5 70 -38.5 164 l0 436 l171 0 l0 -391 q0 -102 40 -150 q40 -48 111 -48 q71 0 111 48 q40 48 40 150 l0 391 Z" /><glyph glyph-name="Umacron" unicode="&#x16a;" d="M210 822 l0 105 l352 0 l0 -105 l-352 0 ZM537 732 l171 0 l0 -436 q0 -94 -38.5 -164 q-38.5 -70 -111 -107.5 q-72.5 -37.5 -172.5 -37.5 q-100 0 -172.5 37.5 q-72.5 37.5 -111 107.5 q-38.5 70 -38.5 164 l0 436 l171 0 l0 -391 q0 -102 40 -150 q40 -48 111 -48 q71 0 111 48 q40 48 40 150 l0 391 Z" /><glyph glyph-name="Uogonek" unicode="&#x172;" d="M708 296 q0 -90 -35 -157.5 q-35 -67.5 -101 -106.5 q-103 -64 -103 -132 q0 -27 14.5 -40.5 q14.5 -13.5 37.5 -13.5 q34 0 70 35 l51 -73 q-27 -26 -59 -39 q-32 -13 -76 -13 q-68 0 -108 29.5 q-40 29.5 -40 93.5 q0 62 38 108 l-11 0 q-100 0 -172.5 37.5 q-72.5 37.5 -111 107.5 q-38.5 70 -38.5 164 l0 436 l171 0 l0 -391 q0 -102 40 -150 q40 -48 111 -48 q71 0 111 48 q40 48 40 150 l0 391 l171 0 l0 -436 Z" /><glyph glyph-name="Uring" unicode="&#x16e;" d="M260 855 q0 31 36.5 52 q36.5 21 89.5 21 q54 0 89 -20.5 q35 -20.5 35 -52.5 q0 -33 -35 -53.5 q-35 -20.5 -89 -20.5 q-53 0 -89.5 21 q-36.5 21 -36.5 53 ZM342 855 q0 -13 12 -20.5 q12 -7.5 32 -7.5 q19 0 30.5 7.5 q11.5 7.5 11.5 20.5 q0 12 -11.5 19.5 q-11.5 7.5 -30.5 7.5 q-19 0 -31.5 -8 q-12.5 -8 -12.5 -19 ZM537 732 l171 0 l0 -436 q0 -94 -38.5 -164 q-38.5 -70 -111 -107.5 q-72.5 -37.5 -172.5 -37.5 q-100 0 -172.5 37.5 q-72.5 37.5 -111 107.5 q-38.5 70 -38.5 164 l0 436 l171 0 l0 -391 q0 -102 40 -150 q40 -48 111 -48 q71 0 111 48 q40 48 40 150 l0 391 Z" /><glyph glyph-name="Utilde" unicode="&#x168;" d="M182 804 q2 55 38 89.5 q36 34.5 94 34.5 q34 0 56 -10 q22 -10 43 -27 q12 -9 20 -13.5 q8 -4.5 17 -4.5 q24 0 34 42 l106 0 q-2 -55 -37.5 -89 q-35.5 -34 -93.5 -34 q-34 0 -55.5 10 q-21.5 10 -44.5 27 q-13 10 -20 14 q-7 4 -16 4 q-25 0 -34 -43 l-107 0 ZM537 732 l171 0 l0 -436 q0 -94 -38.5 -164 q-38.5 -70 -111 -107.5 q-72.5 -37.5 -172.5 -37.5 q-100 0 -172.5 37.5 q-72.5 37.5 -111 107.5 q-38.5 70 -38.5 164 l0 436 l171 0 l0 -391 q0 -102 40 -150 q40 -48 111 -48 q71 0 111 48 q40 48 40 150 l0 391 Z" /><glyph glyph-name="V" unicode="V" d="M201 732 l179 -490 l172 490 l185 0 l-289 -732 l-145 0 l-297 732 l195 0 Z" /><glyph glyph-name="W" unicode="W" d="M585 732 l140 -450 l129 450 l164 0 l-231 -732 l-131 0 l-142 437 l-138 -437 l-130 0 l-240 732 l176 0 l137 -450 l132 450 l134 0 Z" /><glyph glyph-name="Wacute" unicode="&#x1e82;" d="M457 795 l98 133 l167 0 l-134 -133 l-131 0 ZM585 732 l140 -450 l129 450 l164 0 l-231 -732 l-131 0 l-142 437 l-138 -437 l-130 0 l-240 732 l176 0 l137 -450 l132 450 l134 0 Z" /><glyph glyph-name="Wcircumflex" unicode="&#x174;" d="M458 928 l120 0 l137 -134 l-135 0 l-62 62 l-62 -62 l-136 0 l138 134 ZM585 732 l140 -450 l129 450 l164 0 l-231 -732 l-131 0 l-142 437 l-138 -437 l-130 0 l-240 732 l176 0 l137 -450 l132 450 l134 0 Z" /><glyph glyph-name="Wdieresis" unicode="&#x1e84;" d="M400 789 q-34 0 -58 20.5 q-24 20.5 -24 49.5 q0 28 24 48.5 q24 20.5 58 20.5 q36 0 60.5 -20.5 q24.5 -20.5 24.5 -48.5 q0 -29 -24.5 -49.5 q-24.5 -20.5 -60.5 -20.5 ZM634 789 q-35 0 -59 21 q-24 21 -24 49 q0 28 24 48.5 q24 20.5 59 20.5 q34 0 58.5 -20.5 q24.5 -20.5 24.5 -48.5 q0 -29 -24.5 -49.5 q-24.5 -20.5 -58.5 -20.5 ZM585 732 l140 -450 l129 450 l164 0 l-231 -732 l-131 0 l-142 437 l-138 -437 l-130 0 l-240 732 l176 0 l137 -450 l132 450 l134 0 Z" /><glyph glyph-name="Wgrave" unicode="&#x1e80;" d="M315 928 l166 0 l98 -133 l-131 0 l-133 133 ZM585 732 l140 -450 l129 450 l164 0 l-231 -732 l-131 0 l-142 437 l-138 -437 l-130 0 l-240 732 l176 0 l137 -450 l132 450 l134 0 Z" /><glyph glyph-name="X" unicode="X" d="M725 732 l-256 -355 l269 -377 l-211 0 l-163 238 l-166 -238 l-196 0 l269 373 l-256 359 l209 0 l151 -220 l153 220 l197 0 Z" /><glyph glyph-name="Y" unicode="Y" d="M363 446 l153 286 l184 0 l-256 -454 l0 -278 l-171 0 l0 277 l-267 455 l199 0 l158 -286 Z" /><glyph glyph-name="Yacute" unicode="Ý" d="M300 795 l98 133 l167 0 l-134 -133 l-131 0 ZM363 446 l153 286 l184 0 l-256 -454 l0 -278 l-171 0 l0 277 l-267 455 l199 0 l158 -286 Z" /><glyph glyph-name="Ycircumflex" unicode="&#x176;" d="M300 928 l121 0 l137 -134 l-136 0 l-61 62 l-62 -62 l-136 0 l137 134 ZM363 446 l153 286 l184 0 l-256 -454 l0 -278 l-171 0 l0 277 l-267 455 l199 0 l158 -286 Z" /><glyph glyph-name="Ydieresis" unicode="&#x178;" d="M243 789 q-34 0 -58 20.5 q-24 20.5 -24 49.5 q0 28 24 48.5 q24 20.5 58 20.5 q35 0 59.5 -20.5 q24.5 -20.5 24.5 -48.5 q0 -29 -24 -49.5 q-24 -20.5 -60 -20.5 ZM476 789 q-35 0 -58.5 21 q-23.5 21 -23.5 49 q0 28 23.5 48.5 q23.5 20.5 58.5 20.5 q35 0 59.5 -20.5 q24.5 -20.5 24.5 -48.5 q0 -29 -24.5 -49.5 q-24.5 -20.5 -59.5 -20.5 ZM363 446 l153 286 l184 0 l-256 -454 l0 -278 l-171 0 l0 277 l-267 455 l199 0 l158 -286 Z" /><glyph glyph-name="uni1EF4" unicode="&#x1ef4;" d="M363 446 l153 286 l184 0 l-256 -454 l0 -278 l-171 0 l0 277 l-267 455 l199 0 l158 -286 ZM359 -238 q-39 0 -66.5 27.5 q-27.5 27.5 -27.5 65.5 q0 38 27.5 65.5 q27.5 27.5 66.5 27.5 q38 0 66.5 -28 q28.5 -28 28.5 -65 q0 -38 -28 -65.5 q-28 -27.5 -67 -27.5 Z" /><glyph glyph-name="Ygrave" unicode="&#x1ef2;" d="M157 928 l167 0 l98 -133 l-131 0 l-134 133 ZM363 446 l153 286 l184 0 l-256 -454 l0 -278 l-171 0 l0 277 l-267 455 l199 0 l158 -286 Z" /><glyph glyph-name="uni1EF6" unicode="&#x1ef6;" d="M228 906 q22 10 52.5 16 q30.5 6 62.5 6 q59 0 98 -18 q39 -18 39 -54 q0 -62 -127 -90 l-53 52 q33 7 50 14 q17 7 17 16 q0 8 -10.5 12.5 q-10.5 4.5 -28.5 4.5 q-38 0 -79 -19 l-21 60 ZM363 446 l153 286 l184 0 l-256 -454 l0 -278 l-171 0 l0 277 l-267 455 l199 0 l158 -286 Z" /><glyph glyph-name="uni1EF8" unicode="&#x1ef8;" d="M157 805 q2 54 38 88.5 q36 34.5 93 34.5 q35 0 57 -10 q22 -10 43 -27 q13 -10 20 -14 q7 -4 16 -4 q25 0 35 42 l106 0 q-2 -54 -38 -88.5 q-36 -34.5 -93 -34.5 q-35 0 -57 10 q-22 10 -43 27 q-13 10 -20 14 q-7 4 -16 4 q-25 0 -35 -42 l-106 0 ZM363 446 l153 286 l184 0 l-256 -454 l0 -278 l-171 0 l0 277 l-267 455 l199 0 l158 -286 Z" /><glyph glyph-name="Z" unicode="Z" d="M568 732 l0 -97 l-317 -483 l331 0 l0 -152 l-569 0 l0 97 l319 484 l-288 0 l0 151 l524 0 Z" /><glyph glyph-name="Zacute" unicode="&#x179;" d="M245 796 l98 132 l167 0 l-134 -132 l-131 0 ZM568 732 l0 -97 l-317 -483 l331 0 l0 -152 l-569 0 l0 97 l319 484 l-288 0 l0 151 l524 0 Z" /><glyph glyph-name="Zcaron" unicode="&#x17d;" d="M244 928 l62 -61 l61 61 l136 0 l-137 -133 l-121 0 l-137 133 l136 0 ZM568 732 l0 -97 l-317 -483 l331 0 l0 -152 l-569 0 l0 97 l319 484 l-288 0 l0 151 l524 0 Z" /><glyph glyph-name="Zdotaccent" unicode="&#x17b;" d="M305 790 q-34 0 -58 20.5 q-24 20.5 -24 48.5 q0 28 24 48.5 q24 20.5 58 20.5 q36 0 60.5 -20.5 q24.5 -20.5 24.5 -48.5 q0 -28 -24.5 -48.5 q-24.5 -20.5 -60.5 -20.5 ZM568 732 l0 -97 l-317 -483 l331 0 l0 -152 l-569 0 l0 97 l319 484 l-288 0 l0 151 l524 0 Z" /><glyph glyph-name="a" unicode="a" d="M287 531 q112 0 173 -62.5 q61 -62.5 61 -176.5 l0 -292 l-137 0 q-5 42 -7 56 q-24 -35 -58 -52 q-34 -17 -86 -17 q-55 0 -100.5 19.5 q-45.5 19.5 -72 56 q-26.5 36.5 -26.5 86.5 q0 52 29.5 91.5 q29.5 39.5 79.5 60.5 q50 21 109 21 q55 0 108 -19 q-7 98 -89 98 q-69 0 -100 -64 l-115 67 q29 59 89.5 93 q60.5 34 141.5 34 ZM360 202 q-39 10 -74 10 q-41 0 -65 -15 q-24 -15 -24 -40 q0 -23 18 -36 q18 -13 46 -13 q38 0 68.5 22 q30.5 22 30.5 59 l0 13 Z" /><glyph glyph-name="aacute" unicode="á" d="M304 749 l161 0 l-130 -170 l-124 0 l93 170 ZM287 531 q112 0 173 -62.5 q61 -62.5 61 -176.5 l0 -292 l-137 0 q-5 42 -7 56 q-24 -35 -58 -52 q-34 -17 -86 -17 q-55 0 -100.5 19.5 q-45.5 19.5 -72 56 q-26.5 36.5 -26.5 86.5 q0 52 29.5 91.5 q29.5 39.5 79.5 60.5 q50 21 109 21 q55 0 108 -19 q-7 98 -89 98 q-69 0 -100 -64 l-115 67 q29 59 89.5 93 q60.5 34 141.5 34 ZM360 202 q-39 10 -74 10 q-41 0 -65 -15 q-24 -15 -24 -40 q0 -23 18 -36 q18 -13 46 -13 q38 0 68.5 22 q30.5 22 30.5 59 l0 13 Z" /><glyph glyph-name="abreve" unicode="&#x103;" d="M281 579 q-84 0 -135.5 46 q-51.5 46 -51.5 124 l123 0 q6 -74 64 -74 q58 0 66 74 l122 0 q0 -78 -51 -124 q-51 -46 -137 -46 ZM287 531 q112 0 173 -62.5 q61 -62.5 61 -176.5 l0 -292 l-137 0 q-5 42 -7 56 q-24 -35 -58 -52 q-34 -17 -86 -17 q-55 0 -100.5 19.5 q-45.5 19.5 -72 56 q-26.5 36.5 -26.5 86.5 q0 52 29.5 91.5 q29.5 39.5 79.5 60.5 q50 21 109 21 q55 0 108 -19 q-7 98 -89 98 q-69 0 -100 -64 l-115 67 q29 59 89.5 93 q60.5 34 141.5 34 ZM360 202 q-39 10 -74 10 q-41 0 -65 -15 q-24 -15 -24 -40 q0 -23 18 -36 q18 -13 46 -13 q38 0 68.5 22 q30.5 22 30.5 59 l0 13 Z" /><glyph glyph-name="uni1EAF" unicode="&#x1eaf;" d="M295 925 l156 0 l-116 -143 l-124 0 l84 143 ZM281 579 q-84 0 -135.5 45.5 q-51.5 45.5 -51.5 123.5 l123 0 q6 -74 64 -74 q58 0 66 74 l122 0 q0 -78 -51 -123.5 q-51 -45.5 -137 -45.5 ZM287 531 q112 0 173 -62.5 q61 -62.5 61 -176.5 l0 -292 l-137 0 q-5 42 -7 56 q-24 -35 -58 -52 q-34 -17 -86 -17 q-55 0 -100.5 19.5 q-45.5 19.5 -72 56 q-26.5 36.5 -26.5 86.5 q0 52 29.5 91.5 q29.5 39.5 79.5 60.5 q50 21 109 21 q55 0 108 -19 q-7 98 -89 98 q-69 0 -100 -64 l-115 67 q29 59 89.5 93 q60.5 34 141.5 34 ZM360 202 q-39 10 -74 10 q-41 0 -65 -15 q-24 -15 -24 -40 q0 -23 18 -36 q18 -13 46 -13 q38 0 68.5 22 q30.5 22 30.5 59 l0 13 Z" /><glyph glyph-name="uni1EB7" unicode="&#x1eb7;" d="M281 579 q-84 0 -135.5 46 q-51.5 46 -51.5 124 l123 0 q6 -74 64 -74 q58 0 66 74 l122 0 q0 -78 -51 -124 q-51 -46 -137 -46 ZM287 531 q112 0 173 -62.5 q61 -62.5 61 -176.5 l0 -292 l-137 0 q-5 42 -7 56 q-24 -35 -58 -52 q-34 -17 -86 -17 q-55 0 -100.5 19.5 q-45.5 19.5 -72 56 q-26.5 36.5 -26.5 86.5 q0 52 29.5 91.5 q29.5 39.5 79 60.5 q49.5 21 108.5 21 q55 0 108 -19 q-7 98 -88 98 q-69 0 -100 -64 l-115 67 q29 59 89.5 93 q60.5 34 141.5 34 ZM360 202 q-39 10 -74 10 q-41 0 -65 -15 q-24 -15 -24 -40 q0 -23 18 -36 q18 -13 46 -13 q38 0 68.5 22 q30.5 22 30.5 59 l0 13 ZM285 -52 q38 0 66.5 -28 q28.5 -28 28.5 -65 q0 -38 -28 -65.5 q-28 -27.5 -67 -27.5 q-39 0 -66.5 27.5 q-27.5 27.5 -27.5 65.5 q0 38 27.5 65.5 q27.5 27.5 66.5 27.5 Z" /><glyph glyph-name="uni1EB1" unicode="&#x1eb1;" d="M267 925 l85 -143 l-125 0 l-116 143 l156 0 ZM281 579 q-84 0 -135.5 45.5 q-51.5 45.5 -51.5 123.5 l123 0 q6 -74 64 -74 q58 0 66 74 l122 0 q0 -78 -51 -123.5 q-51 -45.5 -137 -45.5 ZM287 531 q112 0 173 -62.5 q61 -62.5 61 -176.5 l0 -292 l-137 0 q-5 42 -7 56 q-24 -35 -58 -52 q-34 -17 -86 -17 q-55 0 -100.5 19.5 q-45.5 19.5 -72 56 q-26.5 36.5 -26.5 86.5 q0 52 29.5 91.5 q29.5 39.5 79.5 60.5 q50 21 109 21 q55 0 108 -19 q-7 98 -89 98 q-69 0 -100 -64 l-115 67 q29 59 89.5 93 q60.5 34 141.5 34 ZM360 202 q-39 10 -74 10 q-41 0 -65 -15 q-24 -15 -24 -40 q0 -23 18 -36 q18 -13 46 -13 q38 0 68.5 22 q30.5 22 30.5 59 l0 13 Z" /><glyph glyph-name="uni1EB3" unicode="&#x1eb3;" d="M247 854 q-34 0 -78 -23 l-20 70 q22 13 52 20 q30 7 62 7 q60 0 98.5 -22.5 q38.5 -22.5 38.5 -65.5 q0 -77 -127 -111 l-53 60 q67 18 67 42 q0 11 -10.5 17 q-10.5 6 -29.5 6 ZM281 579 q-84 0 -135.5 39 q-51.5 39 -51.5 104 l123 0 q3 -30 19 -46.5 q16 -16.5 45 -16.5 q58 0 66 63 l122 0 q0 -66 -51 -104.5 q-51 -38.5 -137 -38.5 ZM287 531 q112 0 173 -62.5 q61 -62.5 61 -176.5 l0 -292 l-137 0 q-5 42 -7 56 q-24 -35 -58 -52 q-34 -17 -86 -17 q-55 0 -100.5 19.5 q-45.5 19.5 -72 56 q-26.5 36.5 -26.5 86.5 q0 52 29.5 91.5 q29.5 39.5 79.5 60.5 q50 21 109 21 q55 0 108 -19 q-7 98 -89 98 q-69 0 -100 -64 l-115 67 q29 59 89.5 93 q60.5 34 141.5 34 ZM360 202 q-39 10 -74 10 q-41 0 -65 -15 q-24 -15 -24 -40 q0 -23 18 -36 q18 -13 46 -13 q38 0 68.5 22 q30.5 22 30.5 59 l0 13 Z" /><glyph glyph-name="uni1EB5" unicode="&#x1eb5;" d="M218 830 q-25 0 -34 -50 l-107 0 q2 65 38 105.5 q36 40.5 94 40.5 q34 0 56 -11.5 q22 -11.5 43 -31.5 q13 -11 20.5 -16 q7.5 -5 16.5 -5 q25 0 34 49 l106 0 q-2 -64 -37.5 -104.5 q-35.5 -40.5 -93.5 -40.5 q-34 0 -56 11.5 q-22 11.5 -44 31.5 q-12 11 -19.5 16 q-7.5 5 -16.5 5 ZM281 667 q58 0 66 68 l122 0 q0 -72 -51 -114 q-51 -42 -137 -42 q-84 0 -135.5 42 q-51.5 42 -51.5 114 l123 0 q3 -32 19 -50 q16 -18 45 -18 ZM287 531 q112 0 173 -62.5 q61 -62.5 61 -176.5 l0 -292 l-137 0 q-5 42 -7 56 q-24 -35 -58 -52 q-34 -17 -86 -17 q-55 0 -100.5 19.5 q-45.5 19.5 -72 56 q-26.5 36.5 -26.5 86.5 q0 52 29.5 91.5 q29.5 39.5 79.5 60.5 q50 21 109 21 q55 0 108 -19 q-7 98 -89 98 q-69 0 -100 -64 l-115 67 q29 59 89.5 93 q60.5 34 141.5 34 ZM360 202 q-39 10 -74 10 q-41 0 -65 -15 q-24 -15 -24 -40 q0 -23 18 -36 q18 -13 46 -13 q38 0 68.5 22 q30.5 22 30.5 59 l0 13 Z" /><glyph glyph-name="uni01CE" unicode="&#x1ce;" d="M473 749 l-135 -170 l-114 0 l-135 170 l135 0 l57 -74 l57 74 l135 0 ZM287 531 q112 0 173 -62.5 q61 -62.5 61 -176.5 l0 -292 l-137 0 q-5 42 -7 56 q-24 -35 -58 -52 q-34 -17 -86 -17 q-55 0 -100.5 19.5 q-45.5 19.5 -72 56 q-26.5 36.5 -26.5 86.5 q0 52 29.5 91.5 q29.5 39.5 79.5 60.5 q50 21 109 21 q55 0 108 -19 q-7 98 -89 98 q-69 0 -100 -64 l-115 67 q29 59 89.5 93 q60.5 34 141.5 34 ZM360 202 q-39 10 -74 10 q-41 0 -65 -15 q-24 -15 -24 -40 q0 -23 18 -36 q18 -13 46 -13 q38 0 68.5 22 q30.5 22 30.5 59 l0 13 Z" /><glyph glyph-name="acircumflex" unicode="â" d="M338 579 l-57 73 l-57 -73 l-135 0 l134 170 l115 0 l135 -170 l-135 0 ZM287 531 q112 0 173 -62.5 q61 -62.5 61 -176.5 l0 -292 l-137 0 q-5 42 -7 56 q-24 -35 -58 -52 q-34 -17 -86 -17 q-55 0 -100.5 19.5 q-45.5 19.5 -72 56 q-26.5 36.5 -26.5 86.5 q0 52 29.5 91.5 q29.5 39.5 79.5 60.5 q50 21 109 21 q55 0 108 -19 q-7 98 -89 98 q-69 0 -100 -64 l-115 67 q29 59 89.5 93 q60.5 34 141.5 34 ZM360 202 q-39 10 -74 10 q-41 0 -65 -15 q-24 -15 -24 -40 q0 -23 18 -36 q18 -13 46 -13 q38 0 68.5 22 q30.5 22 30.5 59 l0 13 Z" /><glyph glyph-name="uni1EA5" unicode="&#x1ea5;" d="M426 919 l157 0 l-116 -144 l-125 0 l84 144 ZM334 579 l-56 73 l-58 -73 l-135 0 l135 170 l114 0 l135 -170 l-135 0 ZM287 531 q112 0 173 -62.5 q61 -62.5 61 -176.5 l0 -292 l-137 0 q-5 42 -7 56 q-24 -35 -58 -52 q-34 -17 -86 -17 q-55 0 -100.5 19.5 q-45.5 19.5 -72 56 q-26.5 36.5 -26.5 86.5 q0 52 29.5 91.5 q29.5 39.5 79.5 60.5 q50 21 109 21 q55 0 108 -19 q-7 98 -89 98 q-69 0 -100 -64 l-115 67 q29 59 89.5 93 q60.5 34 141.5 34 ZM360 202 q-39 10 -74 10 q-41 0 -65 -15 q-24 -15 -24 -40 q0 -23 18 -36 q18 -13 46 -13 q38 0 68.5 22 q30.5 22 30.5 59 l0 13 Z" /><glyph glyph-name="uni1EAD" unicode="&#x1ead;" d="M338 579 l-57 73 l-57 -73 l-135 0 l134 170 l115 0 l135 -170 l-135 0 ZM287 531 q112 0 173 -62.5 q61 -62.5 61 -176.5 l0 -292 l-137 0 q-5 42 -7 56 q-24 -35 -58 -52 q-34 -17 -86 -17 q-55 0 -100.5 19.5 q-45.5 19.5 -72 56 q-26.5 36.5 -26.5 86.5 q0 52 29.5 91.5 q29.5 39.5 79 60.5 q49.5 21 108.5 21 q55 0 108 -19 q-7 98 -88 98 q-69 0 -100 -64 l-115 67 q29 59 89.5 93 q60.5 34 141.5 34 ZM360 202 q-39 10 -74 10 q-41 0 -65 -15 q-24 -15 -24 -40 q0 -23 18 -36 q18 -13 46 -13 q38 0 68.5 22 q30.5 22 30.5 59 l0 13 ZM285 -52 q38 0 66.5 -28 q28.5 -28 28.5 -65 q0 -38 -28 -65.5 q-28 -27.5 -67 -27.5 q-39 0 -66.5 27.5 q-27.5 27.5 -27.5 65.5 q0 38 27.5 65.5 q27.5 27.5 66.5 27.5 Z" /><glyph glyph-name="uni1EA7" unicode="&#x1ea7;" d="M399 919 l84 -144 l-125 0 l-116 144 l157 0 ZM334 579 l-56 73 l-58 -73 l-135 0 l135 170 l114 0 l135 -170 l-135 0 ZM287 531 q112 0 173 -62.5 q61 -62.5 61 -176.5 l0 -292 l-137 0 q-5 42 -7 56 q-24 -35 -58 -52 q-34 -17 -86 -17 q-55 0 -100.5 19.5 q-45.5 19.5 -72 56 q-26.5 36.5 -26.5 86.5 q0 52 29.5 91.5 q29.5 39.5 79.5 60.5 q50 21 109 21 q55 0 108 -19 q-7 98 -89 98 q-69 0 -100 -64 l-115 67 q29 59 89.5 93 q60.5 34 141.5 34 ZM360 202 q-39 10 -74 10 q-41 0 -65 -15 q-24 -15 -24 -40 q0 -23 18 -36 q18 -13 46 -13 q38 0 68.5 22 q30.5 22 30.5 59 l0 13 Z" /><glyph glyph-name="uni1EA9" unicode="&#x1ea9;" d="M391 846 q-33 0 -78 -26 l-21 76 q21 15 51.5 23 q30.5 8 63.5 8 q60 0 98.5 -24.5 q38.5 -24.5 38.5 -73.5 q0 -45 -34.5 -74 q-34.5 -29 -92.5 -48 l-53 66 q67 21 67 47 q0 11 -11 18.5 q-11 7.5 -29 7.5 ZM334 579 l-56 69 l-58 -69 l-135 0 l135 159 l114 0 l135 -159 l-135 0 ZM287 531 q112 0 173 -62.5 q61 -62.5 61 -176.5 l0 -292 l-137 0 q-5 42 -7 56 q-24 -35 -58 -52 q-34 -17 -86 -17 q-55 0 -100.5 19.5 q-45.5 19.5 -72 56 q-26.5 36.5 -26.5 86.5 q0 52 29.5 91.5 q29.5 39.5 79.5 60.5 q50 21 109 21 q55 0 108 -19 q-7 98 -89 98 q-69 0 -100 -64 l-115 67 q29 59 89.5 93 q60.5 34 141.5 34 ZM360 202 q-39 10 -74 10 q-41 0 -65 -15 q-24 -15 -24 -40 q0 -23 18 -36 q18 -13 46 -13 q38 0 68.5 22 q30.5 22 30.5 59 l0 13 Z" /><glyph glyph-name="uni1EAB" unicode="&#x1eab;" d="M217 827 q-27 0 -34 -51 l-107 0 q2 67 38 108.5 q36 41.5 94 41.5 q34 0 56 -12 q22 -12 43 -32 q12 -11 20 -16.5 q8 -5.5 17 -5.5 q25 0 34 51 l106 0 q-2 -67 -37.5 -108.5 q-35.5 -41.5 -93.5 -41.5 q-34 0 -55.5 11.5 q-21.5 11.5 -44.5 32.5 q-13 12 -20 17 q-7 5 -16 5 ZM89 579 l134 160 l115 0 l134 -160 l-135 0 l-56 69 l-57 -69 l-135 0 ZM287 531 q112 0 173 -62.5 q61 -62.5 61 -176.5 l0 -292 l-137 0 q-5 42 -7 56 q-24 -35 -58 -52 q-34 -17 -86 -17 q-55 0 -100.5 19.5 q-45.5 19.5 -72 56 q-26.5 36.5 -26.5 86.5 q0 52 29.5 91.5 q29.5 39.5 79.5 60.5 q50 21 109 21 q55 0 108 -19 q-7 98 -89 98 q-69 0 -100 -64 l-115 67 q29 59 89.5 93 q60.5 34 141.5 34 ZM360 202 q-39 10 -74 10 q-41 0 -65 -15 q-24 -15 -24 -40 q0 -23 18 -36 q18 -13 46 -13 q38 0 68.5 22 q30.5 22 30.5 59 l0 13 Z" /><glyph glyph-name="adieresis" unicode="ä" d="M164 578 q-34 0 -58 25.5 q-24 25.5 -24 60.5 q0 35 24 60 q24 25 58 25 q36 0 60.5 -25 q24.5 -25 24.5 -60 q0 -36 -24.5 -61 q-24.5 -25 -60.5 -25 ZM398 578 q-35 0 -59 25.5 q-24 25.5 -24 60.5 q0 35 24 60 q24 25 59 25 q34 0 58.5 -25 q24.5 -25 24.5 -60 q0 -35 -24.5 -60.5 q-24.5 -25.5 -58.5 -25.5 ZM287 531 q112 0 173 -62.5 q61 -62.5 61 -176.5 l0 -292 l-137 0 q-5 42 -7 56 q-24 -35 -58 -52 q-34 -17 -86 -17 q-55 0 -100.5 19.5 q-45.5 19.5 -72 56 q-26.5 36.5 -26.5 86.5 q0 52 29.5 91.5 q29.5 39.5 79.5 60.5 q50 21 109 21 q55 0 108 -19 q-7 98 -89 98 q-69 0 -100 -64 l-115 67 q29 59 89.5 93 q60.5 34 141.5 34 ZM360 202 q-39 10 -74 10 q-41 0 -65 -15 q-24 -15 -24 -40 q0 -23 18 -36 q18 -13 46 -13 q38 0 68.5 22 q30.5 22 30.5 59 l0 13 Z" /><glyph glyph-name="uni1EA1" unicode="&#x1ea1;" d="M287 531 q112 0 173 -62.5 q61 -62.5 61 -176.5 l0 -292 l-137 0 q-5 42 -7 56 q-24 -35 -58 -52 q-34 -17 -86 -17 q-55 0 -100.5 19.5 q-45.5 19.5 -72 56 q-26.5 36.5 -26.5 86.5 q0 52 29.5 91.5 q29.5 39.5 79 60.5 q49.5 21 108.5 21 q55 0 108 -19 q-7 98 -88 98 q-69 0 -100 -64 l-115 67 q29 59 89.5 93 q60.5 34 141.5 34 ZM360 202 q-39 10 -74 10 q-41 0 -65 -15 q-24 -15 -24 -40 q0 -23 18 -36 q18 -13 46 -13 q38 0 68.5 22 q30.5 22 30.5 59 l0 13 ZM285 -52 q38 0 66.5 -28 q28.5 -28 28.5 -65 q0 -38 -28 -65.5 q-28 -27.5 -67 -27.5 q-39 0 -66.5 27.5 q-27.5 27.5 -27.5 65.5 q0 38 27.5 65.5 q27.5 27.5 66.5 27.5 Z" /><glyph glyph-name="agrave" unicode="à" d="M258 749 l94 -170 l-125 0 l-129 170 l160 0 ZM287 531 q112 0 173 -62.5 q61 -62.5 61 -176.5 l0 -292 l-137 0 q-5 42 -7 56 q-24 -35 -58 -52 q-34 -17 -86 -17 q-55 0 -100.5 19.5 q-45.5 19.5 -72 56 q-26.5 36.5 -26.5 86.5 q0 52 29.5 91.5 q29.5 39.5 79.5 60.5 q50 21 109 21 q55 0 108 -19 q-7 98 -89 98 q-69 0 -100 -64 l-115 67 q29 59 89.5 93 q60.5 34 141.5 34 ZM360 202 q-39 10 -74 10 q-41 0 -65 -15 q-24 -15 -24 -40 q0 -23 18 -36 q18 -13 46 -13 q38 0 68.5 22 q30.5 22 30.5 59 l0 13 Z" /><glyph glyph-name="uni1EA3" unicode="&#x1ea3;" d="M247 699 q-34 0 -78 -28 l-20 83 q22 16 52 24.5 q30 8.5 62 8.5 q60 0 98.5 -26.5 q38.5 -26.5 38.5 -78.5 q0 -90 -127 -130 l-53 70 q33 11 50 23 q17 12 17 27 q0 13 -10.5 20 q-10.5 7 -29.5 7 ZM287 531 q112 0 173 -62.5 q61 -62.5 61 -176.5 l0 -292 l-137 0 q-5 42 -7 56 q-24 -35 -58 -52 q-34 -17 -86 -17 q-55 0 -100.5 19.5 q-45.5 19.5 -72 56 q-26.5 36.5 -26.5 86.5 q0 52 29.5 91.5 q29.5 39.5 79.5 60.5 q50 21 109 21 q55 0 108 -19 q-7 98 -89 98 q-69 0 -100 -64 l-115 67 q29 59 89.5 93 q60.5 34 141.5 34 ZM360 202 q-39 10 -74 10 q-41 0 -65 -15 q-24 -15 -24 -40 q0 -23 18 -36 q18 -13 46 -13 q38 0 68.5 22 q30.5 22 30.5 59 l0 13 Z" /><glyph glyph-name="uni0251" unicode="&#x251;" d="M580 517 l0 -517 l-145 0 q-2 43 -7 73 q-29 -43 -70.5 -64.5 q-41.5 -21.5 -92.5 -21.5 q-65 0 -118.5 32.5 q-53.5 32.5 -85 94 q-31.5 61.5 -31.5 145.5 q0 85 31.5 146.5 q31.5 61.5 85 93.5 q53.5 32 118.5 32 q52 0 93.5 -21.5 q41.5 -21.5 69.5 -65.5 q5 33 7 73 l145 0 ZM307 124 q46 0 78 35 q32 35 32 100 q0 64 -31.5 96.5 q-31.5 32.5 -78.5 32.5 q-49 0 -79 -34.5 q-30 -34.5 -30 -94.5 q0 -61 30 -98 q30 -37 79 -37 Z" /><glyph glyph-name="amacron" unicode="&#x101;" d="M105 713 l352 0 l0 -104 l-352 0 l0 104 ZM287 531 q112 0 173 -62.5 q61 -62.5 61 -176.5 l0 -292 l-137 0 q-5 42 -7 56 q-24 -35 -58 -52 q-34 -17 -86 -17 q-55 0 -100.5 19.5 q-45.5 19.5 -72 56 q-26.5 36.5 -26.5 86.5 q0 52 29.5 91.5 q29.5 39.5 79.5 60.5 q50 21 109 21 q55 0 108 -19 q-7 98 -89 98 q-69 0 -100 -64 l-115 67 q29 59 89.5 93 q60.5 34 141.5 34 ZM360 202 q-39 10 -74 10 q-41 0 -65 -15 q-24 -15 -24 -40 q0 -23 18 -36 q18 -13 46 -13 q38 0 68.5 22 q30.5 22 30.5 59 l0 13 Z" /><glyph glyph-name="aogonek" unicode="&#x105;" d="M586 -188 q-27 -28 -59.5 -42 q-32.5 -14 -78.5 -14 q-64 0 -104.5 29.5 q-40.5 29.5 -40.5 86.5 q0 75 80 135 q-1 8 -2.5 23.5 q-1.5 15.5 -3.5 25.5 q-24 -35 -58 -51.5 q-34 -16.5 -86 -17.5 q-55 0 -100.5 19.5 q-45.5 19.5 -72 56 q-26.5 36.5 -26.5 86.5 q0 52 29.5 91.5 q29.5 39.5 79 60.5 q49.5 21 108.5 21 q55 0 108 -19 q-7 98 -88 98 q-69 0 -100 -64 l-115 67 q29 59 89.5 93 q60.5 34 141.5 34 q112 0 173 -62.5 q61 -62.5 61 -176.5 l0 -292 q-55 -27 -81.5 -53 q-26.5 -26 -26.5 -55 q0 -39 47 -39 q41 0 77 35 l49 -76 ZM360 202 q-39 10 -74 10 q-41 0 -65 -15 q-24 -15 -24 -40 q0 -23 18 -36 q18 -13 46 -13 q38 0 68.5 22 q30.5 22 30.5 59 l0 13 Z" /><glyph glyph-name="aring" unicode="å" d="M281 566 q-53 0 -89.5 35 q-36.5 35 -36.5 90 q0 53 36.5 88.5 q36.5 35.5 89.5 35.5 q54 0 89 -35 q35 -35 35 -89 q0 -55 -35 -90 q-35 -35 -89 -35 ZM281 737 q-19 0 -31.5 -13 q-12.5 -13 -12.5 -33 q0 -20 12.5 -33 q12.5 -13 31.5 -13 q19 0 30.5 12.5 q11.5 12.5 11.5 33.5 q0 21 -11.5 33.5 q-11.5 12.5 -30.5 12.5 ZM287 531 q112 0 173 -62.5 q61 -62.5 61 -176.5 l0 -292 l-137 0 q-5 42 -7 56 q-24 -35 -58 -52 q-34 -17 -86 -17 q-55 0 -100.5 19.5 q-45.5 19.5 -72 56 q-26.5 36.5 -26.5 86.5 q0 52 29.5 91.5 q29.5 39.5 79.5 60.5 q50 21 109 21 q55 0 108 -19 q-7 98 -89 98 q-69 0 -100 -64 l-115 67 q29 59 89.5 93 q60.5 34 141.5 34 ZM360 202 q-39 10 -74 10 q-41 0 -65 -15 q-24 -15 -24 -40 q0 -23 18 -36 q18 -13 46 -13 q38 0 68.5 22 q30.5 22 30.5 59 l0 13 Z" /><glyph glyph-name="aringacute" unicode="&#x1fb;" d="M300 928 l156 0 l-117 -123 l-125 0 l86 123 ZM281 565 q-49 0 -82.5 29.5 q-33.5 29.5 -33.5 73.5 q0 44 33.5 73 q33.5 29 82.5 29 q50 0 82 -28.5 q32 -28.5 32 -73.5 q0 -45 -32 -74 q-32 -29 -82 -29 ZM281 705 q-18 0 -29 -10 q-11 -10 -11 -27 q0 -17 11 -28 q11 -11 29 -11 q18 0 28.5 11 q10.5 11 10.5 28 q0 17 -10.5 27 q-10.5 10 -28.5 10 ZM287 531 q112 0 173 -62.5 q61 -62.5 61 -176.5 l0 -292 l-137 0 q-5 42 -7 56 q-24 -35 -58 -52 q-34 -17 -86 -17 q-55 0 -100.5 19.5 q-45.5 19.5 -72 56 q-26.5 36.5 -26.5 86.5 q0 52 29.5 91.5 q29.5 39.5 79.5 60.5 q50 21 109 21 q55 0 108 -19 q-7 98 -89 98 q-69 0 -100 -64 l-115 67 q29 59 89.5 93 q60.5 34 141.5 34 ZM360 202 q-39 10 -74 10 q-41 0 -65 -15 q-24 -15 -24 -40 q0 -23 18 -36 q18 -13 46 -13 q38 0 68.5 22 q30.5 22 30.5 59 l0 13 Z" /><glyph glyph-name="uni1E01" unicode="&#x1e01;" d="M287 531 q112 0 173 -62.5 q61 -62.5 61 -176.5 l0 -292 l-137 0 q-5 42 -7 56 q-24 -35 -58 -52 q-34 -17 -86 -17 q-55 0 -100.5 19.5 q-45.5 19.5 -72 56 q-26.5 36.5 -26.5 86.5 q0 52 29.5 91.5 q29.5 39.5 79 60.5 q49.5 21 108.5 21 q55 0 108 -19 q-7 98 -88 98 q-69 0 -100 -64 l-115 67 q29 59 89.5 93 q60.5 34 141.5 34 ZM360 202 q-39 10 -74 10 q-41 0 -65 -15 q-24 -15 -24 -40 q0 -23 18 -36 q18 -13 46 -13 q38 0 68.5 22 q30.5 22 30.5 59 l0 13 ZM284 -31 q55 0 90 -29.5 q35 -29.5 35 -76.5 q0 -49 -35 -78 q-35 -29 -90 -29 q-54 0 -90 29 q-36 29 -36 78 q0 47 36 76.5 q36 29.5 90 29.5 ZM284 -173 q20 0 31.5 10 q11.5 10 11.5 26 q0 16 -11.5 26 q-11.5 10 -31.5 10 q-20 0 -31.5 -10 q-11.5 -10 -11.5 -26 q0 -16 11.5 -26 q11.5 -10 31.5 -10 Z" /><glyph glyph-name="atilde" unicode="ã" d="M218 646 q-25 0 -34 -54 l-107 0 q2 71 38 115 q36 44 94 44 q34 0 56 -12.5 q22 -12.5 43 -33.5 q12 -12 20 -17.5 q8 -5.5 17 -5.5 q25 0 34 54 l106 0 q-2 -71 -37.5 -115 q-35.5 -44 -93.5 -44 q-34 0 -55.5 12 q-21.5 12 -44.5 34 q-12 12 -19.5 17.5 q-7.5 5.5 -16.5 5.5 ZM287 531 q112 0 173 -62.5 q61 -62.5 61 -176.5 l0 -292 l-137 0 q-5 42 -7 56 q-24 -35 -58 -52 q-34 -17 -86 -17 q-55 0 -100.5 19.5 q-45.5 19.5 -72 56 q-26.5 36.5 -26.5 86.5 q0 52 29.5 91.5 q29.5 39.5 79.5 60.5 q50 21 109 21 q55 0 108 -19 q-7 98 -89 98 q-69 0 -100 -64 l-115 67 q29 59 89.5 93 q60.5 34 141.5 34 ZM360 202 q-39 10 -74 10 q-41 0 -65 -15 q-24 -15 -24 -40 q0 -23 18 -36 q18 -13 46 -13 q38 0 68.5 22 q30.5 22 30.5 59 l0 13 Z" /><glyph glyph-name="ae" unicode="æ" d="M633 531 q69 0 121.5 -30.5 q52.5 -30.5 82 -86.5 q29.5 -56 29.5 -131 q0 -33 -6 -71 l-331 0 q10 -43 37.5 -66.5 q27.5 -23.5 66.5 -23.5 q32 0 57.5 15 q25.5 15 37.5 44 l119 -71 q-21 -58 -82.5 -90.5 q-61.5 -32.5 -137.5 -32.5 q-59 0 -107 22 q-48 22 -79 66 q-28 -45 -72 -66.5 q-44 -21.5 -112 -21.5 q-98 0 -160.5 43.5 q-62.5 43.5 -62.5 118.5 q0 52 29 91.5 q29 39.5 78.5 60.5 q49.5 21 108.5 21 q57 0 111 -19 q-5 50 -29 74 q-24 24 -64 24 q-34 0 -58.5 -17.5 q-24.5 -17.5 -38.5 -46.5 l-115 67 q22 59 80.5 93 q58.5 34 136.5 34 q120 0 176 -81 q34 40 81.5 60.5 q47.5 20.5 102.5 20.5 ZM702 323 q-5 38 -27 58 q-22 20 -54 20 q-34 0 -57.5 -20.5 q-23.5 -20.5 -33.5 -57.5 l172 0 ZM362 202 q-43 10 -79 10 q-41 0 -63.5 -14 q-22.5 -14 -22.5 -39 q0 -24 19.5 -37.5 q19.5 -13.5 49.5 -13.5 q38 0 67 22 q29 22 29 59 l0 13 Z" /><glyph glyph-name="aeacute" unicode="&#x1fd;" d="M476 749 l161 0 l-130 -170 l-124 0 l93 170 ZM633 531 q69 0 121.5 -30.5 q52.5 -30.5 82 -86.5 q29.5 -56 29.5 -131 q0 -33 -6 -71 l-331 0 q10 -43 37.5 -66.5 q27.5 -23.5 66.5 -23.5 q32 0 57.5 15 q25.5 15 37.5 44 l119 -71 q-21 -58 -82.5 -90.5 q-61.5 -32.5 -137.5 -32.5 q-59 0 -107 22 q-48 22 -79 66 q-28 -45 -72 -66.5 q-44 -21.5 -112 -21.5 q-98 0 -160.5 43.5 q-62.5 43.5 -62.5 118.5 q0 52 29 91.5 q29 39.5 78.5 60.5 q49.5 21 108.5 21 q57 0 111 -19 q-5 50 -29 74 q-24 24 -64 24 q-34 0 -58.5 -17.5 q-24.5 -17.5 -38.5 -46.5 l-115 67 q22 59 80.5 93 q58.5 34 136.5 34 q120 0 176 -81 q34 40 81.5 60.5 q47.5 20.5 102.5 20.5 ZM702 323 q-5 38 -27 58 q-22 20 -54 20 q-34 0 -57.5 -20.5 q-23.5 -20.5 -33.5 -57.5 l172 0 ZM362 202 q-43 10 -79 10 q-41 0 -63.5 -14 q-22.5 -14 -22.5 -39 q0 -24 19.5 -37.5 q19.5 -13.5 49.5 -13.5 q38 0 67 22 q29 22 29 59 l0 13 Z" /><glyph glyph-name="b" unicode="b" d="M375 531 q64 0 117.5 -32 q53.5 -32 85 -93.5 q31.5 -61.5 31.5 -146.5 q0 -84 -31.5 -145.5 q-31.5 -61.5 -85 -94 q-53.5 -32.5 -117.5 -32.5 q-52 0 -94 21.5 q-42 21.5 -70 64.5 q-5 -38 -7 -73 l-145 0 l0 761 l163 0 l0 -301 q55 71 153 71 ZM333 124 q48 0 78 37 q30 37 30 98 q0 60 -29.5 94.5 q-29.5 34.5 -78.5 34.5 q-47 0 -79 -32.5 q-32 -32.5 -32 -96.5 q0 -65 32 -100 q32 -35 79 -35 Z" /><glyph glyph-name="c" unicode="c" d="M299 128 q30 0 50.5 13.5 q20.5 13.5 36.5 39.5 l123 -71 q-24 -60 -81 -91.5 q-57 -31.5 -129 -31.5 q-69 0 -130.5 30.5 q-61.5 30.5 -100 92 q-38.5 61.5 -38.5 149.5 q0 88 38.5 149.5 q38.5 61.5 100 92 q61.5 30.5 130.5 30.5 q72 0 129 -31.5 q57 -31.5 81 -90.5 l-123 -72 q-17 26 -37.5 40 q-20.5 14 -49.5 14 q-46 0 -73.5 -36.5 q-27.5 -36.5 -27.5 -95.5 q0 -59 27.5 -95 q27.5 -36 73.5 -36 Z" /><glyph glyph-name="cacute" unicode="&#x107;" d="M213 579 l93 170 l161 0 l-129 -170 l-125 0 ZM299 128 q30 0 50.5 13.5 q20.5 13.5 36.5 39.5 l123 -71 q-24 -60 -81 -91.5 q-57 -31.5 -129 -31.5 q-69 0 -130.5 30.5 q-61.5 30.5 -100 92 q-38.5 61.5 -38.5 149.5 q0 88 38.5 149.5 q38.5 61.5 100 92 q61.5 30.5 130.5 30.5 q72 0 129 -31.5 q57 -31.5 81 -90.5 l-123 -72 q-17 26 -37.5 40 q-20.5 14 -49.5 14 q-46 0 -73.5 -36.5 q-27.5 -36.5 -27.5 -95.5 q0 -59 27.5 -95 q27.5 -36 73.5 -36 Z" /><glyph glyph-name="ccaron" unicode="&#x10d;" d="M226 749 l57 -74 l57 74 l135 0 l-135 -170 l-114 0 l-135 170 l135 0 ZM299 128 q30 0 50.5 13.5 q20.5 13.5 36.5 39.5 l123 -71 q-24 -60 -81 -91.5 q-57 -31.5 -129 -31.5 q-69 0 -130.5 30.5 q-61.5 30.5 -100 92 q-38.5 61.5 -38.5 149.5 q0 88 38.5 149.5 q38.5 61.5 100 92 q61.5 30.5 130.5 30.5 q72 0 129 -31.5 q57 -31.5 81 -90.5 l-123 -72 q-17 26 -37.5 40 q-20.5 14 -49.5 14 q-46 0 -73.5 -36.5 q-27.5 -36.5 -27.5 -95.5 q0 -59 27.5 -95 q27.5 -36 73.5 -36 Z" /><glyph glyph-name="ccedilla" unicode="ç" d="M299 128 q30 0 50.5 13.5 q20.5 13.5 36.5 39.5 l123 -71 q-20 -51 -66 -81.5 q-46 -30.5 -107 -38.5 l-20 -47 q48 -1 79 -23.5 q31 -22.5 31 -65.5 q0 -51 -43.5 -74.5 q-43.5 -23.5 -106.5 -23.5 q-43 0 -84 13 l0 75 q37 -13 79 -13 q48 0 48 21 q0 10 -13 16.5 q-13 6.5 -33 6.5 q-25 0 -60 -11 l-11 52 l36 78 q-89 18 -148.5 86 q-59.5 68 -59.5 179 q0 88 38.5 149.5 q38.5 61.5 100 92 q61.5 30.5 130.5 30.5 q72 0 129 -31.5 q57 -31.5 81 -90.5 l-123 -72 q-17 26 -37.5 40 q-20.5 14 -49.5 14 q-46 0 -73.5 -36.5 q-27.5 -36.5 -27.5 -95.5 q0 -59 27.5 -95 q27.5 -36 73.5 -36 Z" /><glyph glyph-name="ccircumflex" unicode="&#x109;" d="M226 749 l114 0 l135 -170 l-135 0 l-57 73 l-57 -73 l-135 0 l135 170 ZM299 128 q30 0 50.5 13.5 q20.5 13.5 36.5 39.5 l123 -71 q-24 -60 -81 -91.5 q-57 -31.5 -129 -31.5 q-69 0 -130.5 30.5 q-61.5 30.5 -100 92 q-38.5 61.5 -38.5 149.5 q0 88 38.5 149.5 q38.5 61.5 100 92 q61.5 30.5 130.5 30.5 q72 0 129 -31.5 q57 -31.5 81 -90.5 l-123 -72 q-17 26 -37.5 40 q-20.5 14 -49.5 14 q-46 0 -73.5 -36.5 q-27.5 -36.5 -27.5 -95.5 q0 -59 27.5 -95 q27.5 -36 73.5 -36 Z" /><glyph glyph-name="cdotaccent" unicode="&#x10b;" d="M283 572 q-39 0 -66.5 28.5 q-27.5 28.5 -27.5 67.5 q0 40 27.5 68.5 q27.5 28.5 66.5 28.5 q39 0 67.5 -28.5 q28.5 -28.5 28.5 -68.5 q0 -39 -28.5 -67.5 q-28.5 -28.5 -67.5 -28.5 ZM299 128 q30 0 50.5 13.5 q20.5 13.5 36.5 39.5 l123 -71 q-24 -60 -81 -91.5 q-57 -31.5 -129 -31.5 q-69 0 -130.5 30.5 q-61.5 30.5 -100 92 q-38.5 61.5 -38.5 149.5 q0 88 38.5 149.5 q38.5 61.5 100 92 q61.5 30.5 130.5 30.5 q72 0 129 -31.5 q57 -31.5 81 -90.5 l-123 -72 q-17 26 -37.5 40 q-20.5 14 -49.5 14 q-46 0 -73.5 -36.5 q-27.5 -36.5 -27.5 -95.5 q0 -59 27.5 -95 q27.5 -36 73.5 -36 Z" /><glyph glyph-name="d" unicode="d" d="M417 761 l163 0 l0 -761 l-145 0 q-2 43 -7 73 q-29 -43 -70.5 -64.5 q-41.5 -21.5 -92.5 -21.5 q-65 0 -118.5 32.5 q-53.5 32.5 -85 94 q-31.5 61.5 -31.5 145.5 q0 85 31.5 146.5 q31.5 61.5 85 93.5 q53.5 32 118.5 32 q97 0 152 -71 l0 301 ZM307 124 q46 0 78 35 q32 35 32 100 q0 64 -31.5 96.5 q-31.5 32.5 -78.5 32.5 q-49 0 -79 -34.5 q-30 -34.5 -30 -94.5 q0 -61 30 -98 q30 -37 79 -37 Z" /><glyph glyph-name="eth" unicode="ð" d="M412 639 q80 -72 121 -164 q41 -92 41 -195 q0 -95 -37.5 -161.5 q-37.5 -66.5 -99 -99 q-61.5 -32.5 -134.5 -32.5 q-73 0 -135.5 31 q-62.5 31 -100 90.5 q-37.5 59.5 -37.5 139.5 q0 78 37.5 137 q37.5 59 98.5 90.5 q61 31.5 128 31.5 q31 0 58 -9 q-30 38 -70 68 l-142 -78 l-44 85 l92 52 q-35 18 -88 38 l76 112 q89 -32 152 -72 l130 72 l46 -85 l-92 -51 ZM303 119 q44 0 73 34.5 q29 34.5 29 92.5 q0 58 -29 92.5 q-29 34.5 -73 34.5 q-45 0 -75 -34.5 q-30 -34.5 -30 -92.5 q0 -58 30 -92.5 q30 -34.5 75 -34.5 Z" /><glyph glyph-name="dcaron" unicode="&#x10f;" d="M677 762 q32 0 52.5 -23 q20.5 -23 20.5 -74 q0 -68 -37 -107.5 q-37 -39.5 -98 -47.5 l0 64 q25 4 40 14 q15 10 21 29 l-2 0 q-28 0 -47 20.5 q-19 20.5 -19 53.5 q0 33 19.5 52 q19.5 19 49.5 19 ZM417 761 l163 0 l0 -761 l-145 0 q-2 43 -7 73 q-29 -43 -70.5 -64.5 q-41.5 -21.5 -92.5 -21.5 q-65 0 -118.5 32.5 q-53.5 32.5 -85 94 q-31.5 61.5 -31.5 145.5 q0 85 31.5 146.5 q31.5 61.5 85 93.5 q53.5 32 118.5 32 q97 0 152 -71 l0 301 ZM307 124 q46 0 78 35 q32 35 32 100 q0 64 -31.5 96.5 q-31.5 32.5 -78.5 32.5 q-49 0 -79 -34.5 q-30 -34.5 -30 -94.5 q0 -61 30 -98 q30 -37 79 -37 Z" /><glyph glyph-name="dcroat" unicode="&#x111;" d="M580 677 l72 0 l0 -111 l-72 0 l0 -566 l-145 0 q-2 43 -7 73 q-29 -43 -70.5 -64.5 q-41.5 -21.5 -92.5 -21.5 q-65 0 -118.5 32.5 q-53.5 32.5 -85 94 q-31.5 61.5 -31.5 145.5 q0 85 31.5 146.5 q31.5 61.5 85 93.5 q53.5 32 118.5 32 q97 0 152 -71 l0 106 l-111 0 l0 111 l111 0 l0 84 l163 0 l0 -84 ZM307 124 q46 0 78 35 q32 35 32 100 q0 64 -31.5 96.5 q-31.5 32.5 -78.5 32.5 q-49 0 -79 -34.5 q-30 -34.5 -30 -94.5 q0 -61 30 -98 q30 -37 79 -37 Z" /><glyph glyph-name="e" unicode="e" d="M297 531 q71 0 125.5 -30.5 q54.5 -30.5 84.5 -87.5 q30 -57 30 -133 q0 -32 -6 -68 l-331 0 q11 -43 38 -66.5 q27 -23.5 66 -23.5 q32 0 57.5 15 q25.5 15 37.5 44 l119 -71 q-22 -59 -83 -91 q-61 -32 -137 -32 q-70 0 -131.5 31 q-61.5 31 -99 93 q-37.5 62 -37.5 150 q0 87 37.5 148 q37.5 61 98.5 91.5 q61 30.5 131 30.5 ZM292 401 q-34 0 -57.5 -20.5 q-23.5 -20.5 -34.5 -57.5 l172 0 q-4 38 -26 58 q-22 20 -54 20 Z" /><glyph glyph-name="eacute" unicode="é" d="M221 579 l93 170 l161 0 l-130 -170 l-124 0 ZM297 531 q71 0 125.5 -30.5 q54.5 -30.5 84.5 -87.5 q30 -57 30 -133 q0 -32 -6 -68 l-331 0 q11 -43 38 -66.5 q27 -23.5 66 -23.5 q32 0 57.5 15 q25.5 15 37.5 44 l119 -71 q-22 -59 -83 -91 q-61 -32 -137 -32 q-70 0 -131.5 31 q-61.5 31 -99 93 q-37.5 62 -37.5 150 q0 87 37.5 148 q37.5 61 98.5 91.5 q61 30.5 131 30.5 ZM292 401 q-34 0 -57.5 -20.5 q-23.5 -20.5 -34.5 -57.5 l172 0 q-4 38 -26 58 q-22 20 -54 20 Z" /><glyph glyph-name="ebreve" unicode="&#x115;" d="M291 579 q-84 0 -135.5 46 q-51.5 46 -51.5 124 l123 0 q6 -74 64 -74 q58 0 66 74 l122 0 q0 -78 -51 -124 q-51 -46 -137 -46 ZM297 531 q71 0 125.5 -30.5 q54.5 -30.5 84.5 -87.5 q30 -57 30 -133 q0 -32 -6 -68 l-331 0 q11 -43 38 -66.5 q27 -23.5 66 -23.5 q32 0 57.5 15 q25.5 15 37.5 44 l119 -71 q-22 -59 -83 -91 q-61 -32 -137 -32 q-70 0 -131.5 31 q-61.5 31 -99 93 q-37.5 62 -37.5 150 q0 87 37.5 148 q37.5 61 98.5 91.5 q61 30.5 131 30.5 ZM292 401 q-34 0 -57.5 -20.5 q-23.5 -20.5 -34.5 -57.5 l172 0 q-4 38 -26 58 q-22 20 -54 20 Z" /><glyph glyph-name="ecaron" unicode="&#x11b;" d="M234 749 l57 -74 l57 74 l135 0 l-135 -170 l-115 0 l-134 170 l135 0 ZM297 531 q71 0 125.5 -30.5 q54.5 -30.5 84.5 -87.5 q30 -57 30 -133 q0 -32 -6 -68 l-331 0 q11 -43 38 -66.5 q27 -23.5 66 -23.5 q32 0 57.5 15 q25.5 15 37.5 44 l119 -71 q-22 -59 -83 -91 q-61 -32 -137 -32 q-70 0 -131.5 31 q-61.5 31 -99 93 q-37.5 62 -37.5 150 q0 87 37.5 148 q37.5 61 98.5 91.5 q61 30.5 131 30.5 ZM292 401 q-34 0 -57.5 -20.5 q-23.5 -20.5 -34.5 -57.5 l172 0 q-4 38 -26 58 q-22 20 -54 20 Z" /><glyph glyph-name="ecircumflex" unicode="ê" d="M233 749 l115 0 l135 -170 l-135 0 l-57 73 l-57 -73 l-135 0 l134 170 ZM297 531 q71 0 125.5 -30.5 q54.5 -30.5 84.5 -87.5 q30 -57 30 -133 q0 -32 -6 -68 l-331 0 q11 -43 38 -66.5 q27 -23.5 66 -23.5 q32 0 57.5 15 q25.5 15 37.5 44 l119 -71 q-22 -59 -83 -91 q-61 -32 -137 -32 q-70 0 -131.5 31 q-61.5 31 -99 93 q-37.5 62 -37.5 150 q0 87 37.5 148 q37.5 61 98.5 91.5 q61 30.5 131 30.5 ZM292 401 q-34 0 -57.5 -20.5 q-23.5 -20.5 -34.5 -57.5 l172 0 q-4 38 -26 58 q-22 20 -54 20 Z" /><glyph glyph-name="uni1EBF" unicode="&#x1ebf;" d="M352 765 l93 162 l161 0 l-129 -162 l-125 0 ZM230 741 l114 0 l135 -162 l-135 0 l-57 70 l-57 -70 l-135 0 l135 162 ZM297 531 q71 0 125.5 -30.5 q54.5 -30.5 84.5 -87.5 q30 -57 30 -133 q0 -32 -6 -68 l-331 0 q11 -43 38 -66.5 q27 -23.5 66 -23.5 q32 0 57.5 15 q25.5 15 37.5 44 l119 -71 q-22 -59 -83 -91 q-61 -32 -137 -32 q-70 0 -131.5 31 q-61.5 31 -99 93 q-37.5 62 -37.5 150 q0 87 37.5 148 q37.5 61 98.5 91.5 q61 30.5 131 30.5 ZM292 401 q-34 0 -57.5 -20.5 q-23.5 -20.5 -34.5 -57.5 l172 0 q-4 38 -26 58 q-22 20 -54 20 Z" /><glyph glyph-name="uni1EC7" unicode="&#x1ec7;" d="M233 749 l115 0 l135 -170 l-135 0 l-57 73 l-57 -73 l-135 0 l134 170 ZM297 531 q71 0 125.5 -30.5 q54.5 -30.5 84.5 -87.5 q30 -57 30 -133 q0 -32 -6 -68 l-331 0 q11 -43 38 -66.5 q27 -23.5 66 -23.5 q32 0 57.5 15 q25.5 15 37.5 44 l119 -71 q-22 -59 -83 -91 q-61 -32 -137 -32 q-70 0 -131.5 31 q-61.5 31 -99 93 q-37.5 62 -37.5 150 q0 87 37.5 148 q37.5 61 98.5 91.5 q61 30.5 131 30.5 ZM292 401 q-34 0 -57.5 -20.5 q-23.5 -20.5 -34.5 -57.5 l172 0 q-4 38 -26 58 q-22 20 -54 20 ZM298 -238 q-39 0 -66.5 27.5 q-27.5 27.5 -27.5 65.5 q0 38 27.5 65.5 q27.5 27.5 66.5 27.5 q38 0 66.5 -28 q28.5 -28 28.5 -65 q0 -38 -28 -65.5 q-28 -27.5 -67 -27.5 Z" /><glyph glyph-name="uni1EC1" unicode="&#x1ec1;" d="M239 927 l161 0 l93 -162 l-125 0 l-129 162 ZM230 741 l114 0 l135 -162 l-135 0 l-57 70 l-57 -70 l-135 0 l135 162 ZM297 531 q71 0 125.5 -30.5 q54.5 -30.5 84.5 -87.5 q30 -57 30 -133 q0 -32 -6 -68 l-331 0 q11 -43 38 -66.5 q27 -23.5 66 -23.5 q32 0 57.5 15 q25.5 15 37.5 44 l119 -71 q-22 -59 -83 -91 q-61 -32 -137 -32 q-70 0 -131.5 31 q-61.5 31 -99 93 q-37.5 62 -37.5 150 q0 87 37.5 148 q37.5 61 98.5 91.5 q61 30.5 131 30.5 ZM292 401 q-34 0 -57.5 -20.5 q-23.5 -20.5 -34.5 -57.5 l172 0 q-4 38 -26 58 q-22 20 -54 20 Z" /><glyph glyph-name="uni1EC3" unicode="&#x1ec3;" d="M302 896 q21 15 51.5 23 q30.5 8 63.5 8 q59 0 98 -24.5 q39 -24.5 39 -73.5 q0 -45 -34.5 -74 q-34.5 -29 -93.5 -48 l-52 66 q67 21 67 47 q0 11 -11 18.5 q-11 7.5 -29 7.5 q-33 0 -78 -26 l-21 76 ZM230 738 l114 0 l135 -159 l-135 0 l-57 69 l-57 -69 l-135 0 l135 159 ZM297 531 q71 0 125.5 -30.5 q54.5 -30.5 84.5 -87.5 q30 -57 30 -133 q0 -32 -6 -68 l-331 0 q11 -43 38 -66.5 q27 -23.5 66 -23.5 q32 0 57.5 15 q25.5 15 37.5 44 l119 -71 q-22 -59 -83 -91 q-61 -32 -137 -32 q-70 0 -131.5 31 q-61.5 31 -99 93 q-37.5 62 -37.5 150 q0 87 37.5 148 q37.5 61 98.5 91.5 q61 30.5 131 30.5 ZM292 401 q-34 0 -57.5 -20.5 q-23.5 -20.5 -34.5 -57.5 l172 0 q-4 38 -26 58 q-22 20 -54 20 Z" /><glyph glyph-name="uni1EC5" unicode="&#x1ec5;" d="M227 827 q-26 0 -35 -51 l-106 0 q2 66 38 108 q36 42 93 42 q35 0 57 -12 q22 -12 43 -32 q13 -12 20 -17 q7 -5 16 -5 q26 0 35 51 l106 0 q-2 -67 -37.5 -108.5 q-35.5 -41.5 -93.5 -41.5 q-35 0 -57 12 q-22 12 -43 32 q-13 12 -20 17 q-7 5 -16 5 ZM233 739 l115 0 l134 -160 l-135 0 l-56 69 l-58 -69 l-134 0 l134 160 ZM297 531 q71 0 125.5 -30.5 q54.5 -30.5 84.5 -87.5 q30 -57 30 -133 q0 -32 -6 -68 l-331 0 q11 -43 38 -66.5 q27 -23.5 66 -23.5 q32 0 57.5 15 q25.5 15 37.5 44 l119 -71 q-22 -59 -83 -91 q-61 -32 -137 -32 q-70 0 -131.5 31 q-61.5 31 -99 93 q-37.5 62 -37.5 150 q0 87 37.5 148 q37.5 61 98.5 91.5 q61 30.5 131 30.5 ZM292 401 q-34 0 -57.5 -20.5 q-23.5 -20.5 -34.5 -57.5 l172 0 q-4 38 -26 58 q-22 20 -54 20 Z" /><glyph glyph-name="edieresis" unicode="ë" d="M174 578 q-34 0 -58 25.5 q-24 25.5 -24 60.5 q0 35 24 60 q24 25 58 25 q36 0 60.5 -25 q24.5 -25 24.5 -60 q0 -36 -24.5 -61 q-24.5 -25 -60.5 -25 ZM407 578 q-35 0 -58.5 25.5 q-23.5 25.5 -23.5 60.5 q0 35 23.5 60 q23.5 25 58.5 25 q35 0 59.5 -25 q24.5 -25 24.5 -60 q0 -35 -24.5 -60.5 q-24.5 -25.5 -59.5 -25.5 ZM297 531 q71 0 125.5 -30.5 q54.5 -30.5 84.5 -87.5 q30 -57 30 -133 q0 -32 -6 -68 l-331 0 q11 -43 38 -66.5 q27 -23.5 66 -23.5 q32 0 57.5 15 q25.5 15 37.5 44 l119 -71 q-22 -59 -83 -91 q-61 -32 -137 -32 q-70 0 -131.5 31 q-61.5 31 -99 93 q-37.5 62 -37.5 150 q0 87 37.5 148 q37.5 61 98.5 91.5 q61 30.5 131 30.5 ZM292 401 q-34 0 -57.5 -20.5 q-23.5 -20.5 -34.5 -57.5 l172 0 q-4 38 -26 58 q-22 20 -54 20 Z" /><glyph glyph-name="edotaccent" unicode="&#x117;" d="M291 572 q-39 0 -66.5 28.5 q-27.5 28.5 -27.5 67.5 q0 40 27.5 68.5 q27.5 28.5 66.5 28.5 q38 0 66.5 -28.5 q28.5 -28.5 28.5 -68.5 q0 -39 -28 -67.5 q-28 -28.5 -67 -28.5 ZM297 531 q71 0 125.5 -30.5 q54.5 -30.5 84.5 -87.5 q30 -57 30 -133 q0 -32 -6 -68 l-331 0 q11 -43 38 -66.5 q27 -23.5 66 -23.5 q32 0 57.5 15 q25.5 15 37.5 44 l119 -71 q-22 -59 -83 -91 q-61 -32 -137 -32 q-70 0 -131.5 31 q-61.5 31 -99 93 q-37.5 62 -37.5 150 q0 87 37.5 148 q37.5 61 98.5 91.5 q61 30.5 131 30.5 ZM292 401 q-34 0 -57.5 -20.5 q-23.5 -20.5 -34.5 -57.5 l172 0 q-4 38 -26 58 q-22 20 -54 20 Z" /><glyph glyph-name="uni1EB9" unicode="&#x1eb9;" d="M297 531 q71 0 125.5 -30.5 q54.5 -30.5 84.5 -87.5 q30 -57 30 -133 q0 -32 -6 -68 l-331 0 q11 -43 38 -66.5 q27 -23.5 66 -23.5 q32 0 57.5 15 q25.5 15 37.5 44 l119 -71 q-22 -59 -83 -91 q-61 -32 -137 -32 q-70 0 -131.5 31 q-61.5 31 -99 93 q-37.5 62 -37.5 150 q0 87 37.5 148 q37.5 61 98.5 91.5 q61 30.5 131 30.5 ZM292 401 q-34 0 -57.5 -20.5 q-23.5 -20.5 -34.5 -57.5 l172 0 q-4 38 -26 58 q-22 20 -54 20 ZM298 -238 q-39 0 -66.5 27.5 q-27.5 27.5 -27.5 65.5 q0 38 27.5 65.5 q27.5 27.5 66.5 27.5 q38 0 66.5 -28 q28.5 -28 28.5 -65 q0 -38 -28 -65.5 q-28 -27.5 -67 -27.5 Z" /><glyph glyph-name="egrave" unicode="è" d="M108 749 l160 0 l94 -170 l-125 0 l-129 170 ZM297 531 q71 0 125.5 -30.5 q54.5 -30.5 84.5 -87.5 q30 -57 30 -133 q0 -32 -6 -68 l-331 0 q11 -43 38 -66.5 q27 -23.5 66 -23.5 q32 0 57.5 15 q25.5 15 37.5 44 l119 -71 q-22 -59 -83 -91 q-61 -32 -137 -32 q-70 0 -131.5 31 q-61.5 31 -99 93 q-37.5 62 -37.5 150 q0 87 37.5 148 q37.5 61 98.5 91.5 q61 30.5 131 30.5 ZM292 401 q-34 0 -57.5 -20.5 q-23.5 -20.5 -34.5 -57.5 l172 0 q-4 38 -26 58 q-22 20 -54 20 Z" /><glyph glyph-name="uni1EBB" unicode="&#x1ebb;" d="M159 754 q22 16 52 24.5 q30 8.5 62 8.5 q60 0 98.5 -26.5 q38.5 -26.5 38.5 -78.5 q0 -90 -127 -130 l-53 70 q33 11 50 23 q17 12 17 27 q0 13 -11 20 q-11 7 -29 7 q-34 0 -78 -28 l-20 83 ZM297 531 q71 0 125.5 -30.5 q54.5 -30.5 84.5 -87.5 q30 -57 30 -133 q0 -32 -6 -68 l-331 0 q11 -43 38 -66.5 q27 -23.5 66 -23.5 q32 0 57.5 15 q25.5 15 37.5 44 l119 -71 q-22 -59 -83 -91 q-61 -32 -137 -32 q-70 0 -131.5 31 q-61.5 31 -99 93 q-37.5 62 -37.5 150 q0 87 37.5 148 q37.5 61 98.5 91.5 q61 30.5 131 30.5 ZM292 401 q-34 0 -57.5 -20.5 q-23.5 -20.5 -34.5 -57.5 l172 0 q-4 38 -26 58 q-22 20 -54 20 Z" /><glyph glyph-name="emacron" unicode="&#x113;" d="M115 609 l0 104 l352 0 l0 -104 l-352 0 ZM297 531 q71 0 125.5 -30.5 q54.5 -30.5 84.5 -87.5 q30 -57 30 -133 q0 -32 -6 -68 l-331 0 q11 -43 38 -66.5 q27 -23.5 66 -23.5 q32 0 57.5 15 q25.5 15 37.5 44 l119 -71 q-22 -59 -83 -91 q-61 -32 -137 -32 q-70 0 -131.5 31 q-61.5 31 -99 93 q-37.5 62 -37.5 150 q0 87 37.5 148 q37.5 61 98.5 91.5 q61 30.5 131 30.5 ZM292 401 q-34 0 -57.5 -20.5 q-23.5 -20.5 -34.5 -57.5 l172 0 q-4 38 -26 58 q-22 20 -54 20 Z" /><glyph glyph-name="eogonek" unicode="&#x119;" d="M297 531 q71 0 125.5 -30.5 q54.5 -30.5 84.5 -87.5 q30 -57 30 -133 q0 -32 -6 -68 l-331 0 q11 -43 38 -66.5 q27 -23.5 66 -23.5 q32 0 57.5 15 q25.5 15 37.5 44 l119 -71 q-17 -45 -64 -80 q-72 -53 -97 -79.5 q-25 -26.5 -25 -54.5 q0 -43 49 -43 q36 0 73 34 l51 -75 q-28 -28 -60.5 -42 q-32.5 -14 -77.5 -14 q-65 0 -105 27.5 q-40 27.5 -40 85.5 q0 33 14.5 61.5 q14.5 28.5 42.5 56.5 q-66 4 -123 36 q-57 32 -91.5 93 q-34.5 61 -34.5 145 q0 87 37.5 148 q37.5 61 98.5 91.5 q61 30.5 131 30.5 ZM372 323 q-4 38 -26 58 q-22 20 -54 20 q-34 0 -57.5 -20.5 q-23.5 -20.5 -34.5 -57.5 l172 0 Z" /><glyph glyph-name="uni1EBD" unicode="&#x1ebd;" d="M87 592 q2 71 38 115 q36 44 94 44 q34 0 56 -12.5 q22 -12.5 43 -33.5 q12 -12 20 -17.5 q8 -5.5 17 -5.5 q25 0 34 54 l106 0 q-2 -71 -37.5 -115 q-35.5 -44 -93.5 -44 q-34 0 -55.5 12 q-21.5 12 -44.5 34 q-12 12 -19.5 17.5 q-7.5 5.5 -16.5 5.5 q-27 0 -34 -54 l-107 0 ZM297 531 q71 0 125.5 -30.5 q54.5 -30.5 84.5 -87.5 q30 -57 30 -133 q0 -32 -6 -68 l-331 0 q11 -43 38 -66.5 q27 -23.5 66 -23.5 q32 0 57.5 15 q25.5 15 37.5 44 l119 -71 q-22 -59 -83 -91 q-61 -32 -137 -32 q-70 0 -131.5 31 q-61.5 31 -99 93 q-37.5 62 -37.5 150 q0 87 37.5 148 q37.5 61 98.5 91.5 q61 30.5 131 30.5 ZM292 401 q-34 0 -57.5 -20.5 q-23.5 -20.5 -34.5 -57.5 l172 0 q-4 38 -26 58 q-22 20 -54 20 Z" /><glyph glyph-name="uni0259" unicode="&#x259;" d="M264 531 q70 0 131.5 -31 q61.5 -31 99 -93 q37.5 -62 37.5 -150 q0 -87 -37.5 -148 q-37.5 -61 -98 -91.5 q-60.5 -30.5 -130.5 -30.5 q-71 0 -125.5 30.5 q-54.5 30.5 -84.5 87 q-30 56.5 -30 131.5 q0 34 6 70 l330 0 q-10 43 -37.5 66.5 q-27.5 23.5 -66.5 23.5 q-31 0 -56.5 -15 q-25.5 -15 -38.5 -43 l-119 70 q22 59 83 91 q61 32 137 32 ZM270 117 q34 0 57.5 21 q23.5 21 34.5 58 l-172 0 q4 -39 26 -59 q22 -20 54 -20 Z" /><glyph glyph-name="uni0292" unicode="&#x292;" d="M313 227 q90 -19 141 -78 q51 -59 51 -148 q0 -78 -38 -133 q-38 -55 -102 -83.5 q-64 -28.5 -140 -28.5 q-92 0 -158.5 43 q-66.5 43 -95.5 126 l125 72 q18 -49 52 -76 q34 -27 82 -27 q50 0 78 28.5 q28 28.5 28 74.5 q0 51 -36.5 79 q-36.5 28 -101.5 28 q-39 0 -76 -8 l0 122 l148 165 l-252 0 l0 134 l463 0 l0 -117 l-168 -173 Z" /><glyph glyph-name="uni01EF" unicode="&#x1ef;" d="M194 749 l58 -74 l56 74 l135 0 l-135 -170 l-114 0 l-135 170 l135 0 ZM313 227 q90 -19 141 -78 q51 -59 51 -148 q0 -78 -38 -133 q-38 -55 -102 -83.5 q-64 -28.5 -140 -28.5 q-92 0 -158.5 43 q-66.5 43 -95.5 126 l125 72 q18 -49 52 -76 q34 -27 82 -27 q50 0 78 28.5 q28 28.5 28 74.5 q0 51 -36.5 79 q-36.5 28 -101.5 28 q-39 0 -76 -8 l0 122 l148 165 l-252 0 l0 134 l463 0 l0 -117 l-168 -173 Z" /><glyph glyph-name="f" unicode="f" d="M326 635 q-71 0 -71 -112 l0 -6 l136 0 l0 -136 l-136 0 l0 -381 l-163 0 l0 381 l-88 0 l0 136 l88 0 l0 12 q0 123 60.5 184.5 q60.5 61.5 158.5 61.5 q49 0 86.5 -14.5 q37.5 -14.5 59.5 -39.5 l-62 -114 q-31 28 -69 28 Z" /><glyph glyph-name="g" unicode="g" d="M580 517 l0 -455 q0 -160 -82.5 -233 q-82.5 -73 -207.5 -73 q-89 0 -155 37.5 q-66 37.5 -95 102.5 l123 72 q38 -72 127 -72 q70 0 97 38 q27 38 30 120 q-51 -67 -142 -67 q-65 0 -121 32.5 q-56 32.5 -90 94 q-34 61.5 -34 145.5 q0 84 34 146 q34 62 90 94 q56 32 121 32 q102 0 153 -84 q5 26 7 70 l145 0 ZM307 124 q46 0 78 35 q32 35 32 100 q0 64 -31.5 96.5 q-31.5 32.5 -78.5 32.5 q-49 0 -79 -34.5 q-30 -34.5 -30 -94.5 q0 -61 30 -98 q30 -37 79 -37 Z" /><glyph glyph-name="gbreve" unicode="&#x11f;" d="M304 579 q-85 0 -136 46 q-51 46 -51 124 l122 0 q8 -74 65 -74 q59 0 65 74 l123 0 q0 -78 -51.5 -124 q-51.5 -46 -136.5 -46 ZM580 517 l0 -455 q0 -160 -82.5 -233 q-82.5 -73 -207.5 -73 q-89 0 -155 37.5 q-66 37.5 -95 102.5 l123 72 q38 -72 127 -72 q70 0 97 38 q27 38 30 120 q-51 -67 -142 -67 q-65 0 -121 32.5 q-56 32.5 -90 94 q-34 61.5 -34 145.5 q0 84 34 146 q34 62 90 94 q56 32 121 32 q102 0 153 -84 q5 26 7 70 l145 0 ZM307 124 q46 0 78 35 q32 35 32 100 q0 64 -31.5 96.5 q-31.5 32.5 -78.5 32.5 q-49 0 -79 -34.5 q-30 -34.5 -30 -94.5 q0 -61 30 -98 q30 -37 79 -37 Z" /><glyph glyph-name="gcaron" unicode="&#x1e7;" d="M495 749 l-134 -170 l-115 0 l-135 170 l135 0 l58 -74 l56 74 l135 0 ZM580 517 l0 -455 q0 -160 -82.5 -233 q-82.5 -73 -207.5 -73 q-89 0 -155 37.5 q-66 37.5 -95 102.5 l123 72 q38 -72 127 -72 q70 0 97 38 q27 38 30 120 q-51 -67 -142 -67 q-65 0 -121 32.5 q-56 32.5 -90 94 q-34 61.5 -34 145.5 q0 84 34 146 q34 62 90 94 q56 32 121 32 q102 0 153 -84 q5 26 7 70 l145 0 ZM307 124 q46 0 78 35 q32 35 32 100 q0 64 -31.5 96.5 q-31.5 32.5 -78.5 32.5 q-49 0 -79 -34.5 q-30 -34.5 -30 -94.5 q0 -61 30 -98 q30 -37 79 -37 Z" /><glyph glyph-name="gcircumflex" unicode="&#x11d;" d="M360 579 l-56 73 l-58 -73 l-135 0 l135 170 l115 0 l134 -170 l-135 0 ZM580 517 l0 -455 q0 -160 -82.5 -233 q-82.5 -73 -207.5 -73 q-89 0 -155 37.5 q-66 37.5 -95 102.5 l123 72 q38 -72 127 -72 q70 0 97 38 q27 38 30 120 q-51 -67 -142 -67 q-65 0 -121 32.5 q-56 32.5 -90 94 q-34 61.5 -34 145.5 q0 84 34 146 q34 62 90 94 q56 32 121 32 q102 0 153 -84 q5 26 7 70 l145 0 ZM307 124 q46 0 78 35 q32 35 32 100 q0 64 -31.5 96.5 q-31.5 32.5 -78.5 32.5 q-49 0 -79 -34.5 q-30 -34.5 -30 -94.5 q0 -61 30 -98 q30 -37 79 -37 Z" /><glyph glyph-name="uni0123" unicode="&#x123;" d="M306 572 q-41 0 -69 31.5 q-28 31.5 -28 90.5 q0 78 48 129.5 q48 51.5 124 61.5 l0 -80 q-32 -4 -51.5 -16.5 q-19.5 -12.5 -27.5 -36.5 l4 0 q36 -1 60 -26.5 q24 -25.5 24 -62.5 q0 -38 -24 -64.5 q-24 -26.5 -60 -26.5 ZM580 517 l0 -455 q0 -160 -82.5 -233 q-82.5 -73 -207.5 -73 q-89 0 -155 37.5 q-66 37.5 -95 102.5 l123 72 q38 -72 127 -72 q70 0 97 38 q27 38 30 120 q-51 -67 -142 -67 q-65 0 -121 32.5 q-56 32.5 -90 94 q-34 61.5 -34 145.5 q0 84 34 146 q34 62 90 94 q56 32 121 32 q102 0 153 -84 q5 26 7 70 l145 0 ZM307 124 q46 0 78 35 q32 35 32 100 q0 64 -31.5 96.5 q-31.5 32.5 -78.5 32.5 q-49 0 -79 -34.5 q-30 -34.5 -30 -94.5 q0 -61 30 -98 q30 -37 79 -37 Z" /><glyph glyph-name="gdotaccent" unicode="&#x121;" d="M304 572 q-39 0 -66.5 28.5 q-27.5 28.5 -27.5 67.5 q0 40 27.5 68.5 q27.5 28.5 66.5 28.5 q38 0 66.5 -29 q28.5 -29 28.5 -68 q0 -39 -28 -67.5 q-28 -28.5 -67 -28.5 ZM580 517 l0 -455 q0 -160 -82.5 -233 q-82.5 -73 -207.5 -73 q-89 0 -155 37.5 q-66 37.5 -95 102.5 l123 72 q38 -72 127 -72 q70 0 97 38 q27 38 30 120 q-51 -67 -142 -67 q-65 0 -121 32.5 q-56 32.5 -90 94 q-34 61.5 -34 145.5 q0 84 34 146 q34 62 90 94 q56 32 121 32 q102 0 153 -84 q5 26 7 70 l145 0 ZM307 124 q46 0 78 35 q32 35 32 100 q0 64 -31.5 96.5 q-31.5 32.5 -78.5 32.5 q-49 0 -79 -34.5 q-30 -34.5 -30 -94.5 q0 -61 30 -98 q30 -37 79 -37 Z" /><glyph glyph-name="uni0261" unicode="&#x261;" d="M580 517 l0 -455 q0 -160 -82.5 -233 q-82.5 -73 -207.5 -73 q-89 0 -155 37.5 q-66 37.5 -95 102.5 l123 72 q38 -72 127 -72 q70 0 97 38 q27 38 30 120 q-51 -67 -142 -67 q-65 0 -121 32.5 q-56 32.5 -90 94 q-34 61.5 -34 145.5 q0 84 34 146 q34 62 90 94 q56 32 121 32 q102 0 153 -84 q5 26 7 70 l145 0 ZM307 124 q46 0 78 35 q32 35 32 100 q0 64 -31.5 96.5 q-31.5 32.5 -78.5 32.5 q-49 0 -79 -34.5 q-30 -34.5 -30 -94.5 q0 -61 30 -98 q30 -37 79 -37 Z" /><glyph glyph-name="uni01E5" unicode="&#x1e5;" d="M580 320 l90 0 l0 -123 l-90 0 l0 -135 q0 -160 -82.5 -233 q-82.5 -73 -207.5 -73 q-89 0 -155 37.5 q-66 37.5 -95 102.5 l123 72 q38 -72 127 -72 q70 0 97 38 q27 38 30 120 q-51 -67 -142 -67 q-65 0 -121 32.5 q-56 32.5 -90 94 q-34 61.5 -34 145.5 q0 84 34 146 q34 62 90 94 q56 32 121 32 q102 0 153 -84 q5 26 7 70 l145 0 l0 -197 ZM307 124 q33 0 60 18.5 q27 18.5 40 55.5 l-94 0 l0 123 l93 0 q-13 34 -39.5 50.5 q-26.5 16.5 -59.5 16.5 q-49 0 -79 -34.5 q-30 -34.5 -30 -94.5 q0 -61 30 -98 q30 -37 79 -37 Z" /><glyph glyph-name="h" unicode="h" d="M377 531 q88 0 137.5 -57 q49.5 -57 49.5 -168 l0 -306 l-163 0 l0 251 q0 65 -19.5 101 q-19.5 36 -64.5 36 q-45 0 -70 -38 q-25 -38 -25 -106 l0 -244 l-163 0 l0 761 l163 0 l0 -308 q50 78 155 78 Z" /><glyph glyph-name="hbar" unicode="&#x127;" d="M389 531 q88 0 137.5 -57 q49.5 -57 49.5 -168 l0 -306 l-165 0 l0 251 q0 66 -18.5 101.5 q-18.5 35.5 -63.5 35.5 q-45 0 -70 -38 q-25 -38 -25 -106 l0 -244 l-163 0 l0 566 l-72 0 l0 111 l72 0 l0 84 l163 0 l0 -84 l133 0 l0 -111 l-133 0 l0 -113 q50 78 155 78 Z" /><glyph glyph-name="uni021F" unicode="&#x21f;" d="M84 928 l57 -51 l57 51 l135 0 l-135 -120 l-114 0 l-135 120 l135 0 ZM377 531 q88 0 137.5 -57 q49.5 -57 49.5 -168 l0 -306 l-163 0 l0 251 q0 65 -19.5 101 q-19.5 36 -64.5 36 q-45 0 -70 -38 q-25 -38 -25 -106 l0 -244 l-163 0 l0 761 l163 0 l0 -308 q50 78 155 78 Z" /><glyph glyph-name="hcircumflex" unicode="&#x125;" d="M84 928 l114 0 l135 -120 l-135 0 l-57 51 l-57 -51 l-135 0 l135 120 ZM377 531 q88 0 137.5 -57 q49.5 -57 49.5 -168 l0 -306 l-163 0 l0 251 q0 65 -19.5 101 q-19.5 36 -64.5 36 q-45 0 -70 -38 q-25 -38 -25 -106 l0 -244 l-163 0 l0 761 l163 0 l0 -308 q50 78 155 78 Z" /><glyph glyph-name="i" unicode="i" d="M140 572 q-39 0 -67 28.5 q-28 28.5 -28 67.5 q0 40 27.5 68.5 q27.5 28.5 67.5 28.5 q38 0 66.5 -29 q28.5 -29 28.5 -68 q0 -39 -28 -67.5 q-28 -28.5 -67 -28.5 ZM222 0 l-163 0 l0 517 l163 0 l0 -517 Z" /><glyph glyph-name="dotlessi" unicode="&#x131;" d="M59 0 l0 517 l163 0 l0 -517 l-163 0 Z" /><glyph glyph-name="iacute" unicode="í" d="M71 579 l93 170 l161 0 l-130 -170 l-124 0 ZM59 0 l0 517 l163 0 l0 -517 l-163 0 Z" /><glyph glyph-name="ibreve" unicode="&#x12d;" d="M141 579 q-84 0 -135.5 46 q-51.5 46 -51.5 124 l123 0 q6 -74 64 -74 q58 0 66 74 l122 0 q0 -78 -51 -124 q-51 -46 -137 -46 ZM59 0 l0 517 l163 0 l0 -517 l-163 0 Z" /><glyph glyph-name="uni01D0" unicode="&#x1d0;" d="M84 749 l57 -74 l57 74 l135 0 l-135 -170 l-114 0 l-135 170 l135 0 ZM59 0 l0 517 l163 0 l0 -517 l-163 0 Z" /><glyph glyph-name="icircumflex" unicode="î" d="M83 749 l115 0 l135 -170 l-135 0 l-57 73 l-57 -73 l-135 0 l134 170 ZM59 0 l0 517 l163 0 l0 -517 l-163 0 Z" /><glyph glyph-name="idieresis" unicode="ï" d="M24 578 q-34 0 -58 25.5 q-24 25.5 -24 60.5 q0 35 24 60 q24 25 58 25 q36 0 60.5 -25 q24.5 -25 24.5 -60 q0 -35 -24.5 -60.5 q-24.5 -25.5 -60.5 -25.5 ZM258 578 q-35 0 -59 25.5 q-24 25.5 -24 60.5 q0 35 24 60 q24 25 59 25 q34 0 58.5 -25 q24.5 -25 24.5 -60 q0 -35 -24.5 -60.5 q-24.5 -25.5 -58.5 -25.5 ZM59 0 l0 517 l163 0 l0 -517 l-163 0 Z" /><glyph glyph-name="uni1ECB" unicode="&#x1ecb;" d="M140 572 q-39 0 -67 28.5 q-28 28.5 -28 67.5 q0 40 27.5 68.5 q27.5 28.5 67.5 28.5 q38 0 66.5 -29 q28.5 -29 28.5 -68 q0 -39 -28 -67.5 q-28 -28.5 -67 -28.5 ZM222 0 l-163 0 l0 517 l163 0 l0 -517 ZM141 -238 q-39 0 -66.5 27.5 q-27.5 27.5 -27.5 65.5 q0 38 27.5 65.5 q27.5 27.5 66.5 27.5 q38 0 66.5 -28 q28.5 -28 28.5 -65 q0 -38 -28 -65.5 q-28 -27.5 -67 -27.5 Z" /><glyph glyph-name="igrave" unicode="ì" d="M-42 749 l160 0 l94 -170 l-125 0 l-129 170 ZM59 0 l0 517 l163 0 l0 -517 l-163 0 Z" /><glyph glyph-name="uni1EC9" unicode="&#x1ec9;" d="M9 754 q22 16 52 24.5 q30 8.5 62 8.5 q60 0 98.5 -26.5 q38.5 -26.5 38.5 -78.5 q0 -90 -127 -130 l-53 70 q33 11 50 23 q17 12 17 27 q0 13 -10.5 20 q-10.5 7 -29.5 7 q-32 0 -78 -27 l-20 82 ZM59 0 l0 517 l163 0 l0 -517 l-163 0 Z" /><glyph glyph-name="ij" unicode="&#x133;" d="M140 572 q-39 0 -67 28.5 q-28 28.5 -28 67.5 q0 40 27.5 68.5 q27.5 28.5 67.5 28.5 q38 0 66.5 -29 q28.5 -29 28.5 -68 q0 -39 -28 -67.5 q-28 -28.5 -67 -28.5 ZM418 572 q-38 0 -65.5 28.5 q-27.5 28.5 -27.5 67.5 q0 40 27.5 68.5 q27.5 28.5 65.5 28.5 q39 0 67.5 -28.5 q28.5 -28.5 28.5 -68.5 q0 -39 -28.5 -67.5 q-28.5 -28.5 -67.5 -28.5 ZM222 0 l-163 0 l0 517 l163 0 l0 -517 ZM280 -244 q-47 0 -90.5 15.5 q-43.5 15.5 -71.5 46.5 l86 109 q25 -32 61 -32 q39 0 56 30 q17 30 17 91 l0 501 l164 0 l0 -517 q0 -81 -30.5 -136 q-30.5 -55 -81 -81.5 q-50.5 -26.5 -110.5 -26.5 Z" /><glyph glyph-name="imacron" unicode="&#x12b;" d="M-35 609 l0 104 l352 0 l0 -104 l-352 0 ZM59 0 l0 517 l163 0 l0 -517 l-163 0 Z" /><glyph glyph-name="iogonek" unicode="&#x12f;" d="M141 572 q-39 0 -66.5 28.5 q-27.5 28.5 -27.5 67.5 q0 40 27.5 68.5 q27.5 28.5 66.5 28.5 q38 0 66.5 -28.5 q28.5 -28.5 28.5 -68.5 q0 -39 -28 -67.5 q-28 -28.5 -67 -28.5 ZM288 -188 q-28 -28 -61 -42 q-33 -14 -78 -14 q-64 0 -104 29.5 q-40 29.5 -40 86.5 q0 38 18.5 69 q18.5 31 52.5 59 l-17 0 l0 517 l163 0 l0 -517 q-54 -27 -80.5 -53 q-26.5 -26 -26.5 -55 q0 -39 46 -39 q21 0 39.5 8 q18.5 8 38.5 27 l49 -76 Z" /><glyph glyph-name="itilde" unicode="&#x129;" d="M-63 593 q2 70 38 114.5 q36 44.5 94 44.5 q35 0 56.5 -12.5 q21.5 -12.5 42.5 -34.5 q13 -12 20.5 -17.5 q7.5 -5.5 16.5 -5.5 q25 0 34 54 l106 0 q-2 -71 -37.5 -115 q-35.5 -44 -93.5 -44 q-34 0 -55.5 12 q-21.5 12 -44.5 34 q-12 12 -19.5 17.5 q-7.5 5.5 -16.5 5.5 q-25 0 -34 -53 l-107 0 ZM59 0 l0 517 l163 0 l0 -517 l-163 0 Z" /><glyph glyph-name="j" unicode="j" d="M139 572 q-38 0 -65.5 28.5 q-27.5 28.5 -27.5 67.5 q0 40 27.5 68.5 q27.5 28.5 65.5 28.5 q39 0 67.5 -28.5 q28.5 -28.5 28.5 -68.5 q0 -39 -28.5 -67.5 q-28.5 -28.5 -67.5 -28.5 ZM1 -244 q-47 0 -90.5 15.5 q-43.5 15.5 -72.5 46.5 l87 109 q25 -32 61 -32 q39 0 56 30 q17 30 17 91 l0 501 l163 0 l0 -517 q0 -81 -30.5 -136 q-30.5 -55 -80.5 -81.5 q-50 -26.5 -110 -26.5 Z" /><glyph glyph-name="uni0237" unicode="&#x237;" d="M1 -244 q-47 0 -90.5 15.5 q-43.5 15.5 -72.5 46.5 l87 109 q25 -32 61 -32 q39 0 56 30 q17 30 17 91 l0 501 l163 0 l0 -517 q0 -81 -30.5 -136 q-30.5 -55 -80.5 -81.5 q-50 -26.5 -110 -26.5 Z" /><glyph glyph-name="uni01F0" unicode="&#x1f0;" d="M83 749 l57 -74 l57 74 l135 0 l-135 -170 l-114 0 l-135 170 l135 0 ZM1 -244 q-47 0 -90.5 15.5 q-43.5 15.5 -72.5 46.5 l87 109 q25 -32 61 -32 q39 0 56 30 q17 30 17 91 l0 501 l163 0 l0 -517 q0 -81 -30.5 -136 q-30.5 -55 -80.5 -81.5 q-50 -26.5 -110 -26.5 Z" /><glyph glyph-name="jcircumflex" unicode="&#x135;" d="M83 749 l114 0 l135 -170 l-135 0 l-57 73 l-57 -73 l-135 0 l135 170 ZM1 -244 q-47 0 -90.5 15.5 q-43.5 15.5 -72.5 46.5 l87 109 q25 -32 61 -32 q39 0 56 30 q17 30 17 91 l0 501 l163 0 l0 -517 q0 -81 -30.5 -136 q-30.5 -55 -80.5 -81.5 q-50 -26.5 -110 -26.5 Z" /><glyph glyph-name="k" unicode="k" d="M405 314 l207 -314 l-194 0 l-122 192 l-74 -81 l0 -111 l-163 0 l0 761 l163 0 l0 -454 l179 210 l187 0 l-183 -203 Z" /><glyph glyph-name="uni01E9" unicode="&#x1e9;" d="M84 928 l57 -51 l57 51 l135 0 l-135 -120 l-114 0 l-135 120 l135 0 ZM405 314 l207 -314 l-194 0 l-122 192 l-74 -81 l0 -111 l-163 0 l0 761 l163 0 l0 -454 l179 210 l187 0 l-183 -203 Z" /><glyph glyph-name="uni0137" unicode="&#x137;" d="M402 517 l188 0 l-184 -203 l208 -314 l-195 0 l-123 192 l-73 -81 l0 -111 l-164 0 l0 761 l164 0 l0 -454 l179 210 ZM319 -30 q44 0 70.5 -23 q26.5 -23 26.5 -69 q0 -56 -44.5 -88.5 q-44.5 -32.5 -127.5 -33.5 l0 61 q64 3 78 30 l-4 0 q-38 1 -60.5 16 q-22.5 15 -22.5 43 q0 29 23.5 46.5 q23.5 17.5 60.5 17.5 Z" /><glyph glyph-name="kgreenlandic" unicode="&#x138;" d="M405 314 l207 -314 l-194 0 l-122 192 l-74 -81 l0 -111 l-163 0 l0 517 l163 0 l0 -210 l179 210 l187 0 l-183 -203 Z" /><glyph glyph-name="l" unicode="l" d="M222 0 l-163 0 l0 761 l163 0 l0 -761 Z" /><glyph glyph-name="lacute" unicode="&#x13a;" d="M80 809 l98 119 l167 0 l-134 -119 l-131 0 ZM222 0 l-163 0 l0 761 l163 0 l0 -761 Z" /><glyph glyph-name="lcaron" unicode="&#x13e;" d="M320 762 q32 0 52.5 -23 q20.5 -23 20.5 -74 q0 -68 -37 -107.5 q-37 -39.5 -98 -47.5 l0 64 q25 4 40 14 q15 10 21 29 l-3 0 q-28 0 -46.5 20.5 q-18.5 20.5 -18.5 53.5 q0 34 19 52.5 q19 18.5 50 18.5 ZM222 0 l-163 0 l0 761 l163 0 l0 -761 Z" /><glyph glyph-name="uni013C" unicode="&#x13c;" d="M59 0 l0 761 l163 0 l0 -761 l-163 0 ZM138 -30 q44 0 70.5 -23 q26.5 -23 26.5 -69 q0 -57 -44 -89 q-44 -32 -128 -33 l0 61 q64 3 78 30 l-4 0 q-38 1 -60.5 16 q-22.5 15 -22.5 43 q0 29 23.5 46.5 q23.5 17.5 60.5 17.5 Z" /><glyph glyph-name="ldot" unicode="&#x140;" d="M222 0 l-163 0 l0 761 l163 0 l0 -761 ZM329 295 q-36 0 -59.5 23 q-23.5 23 -23.5 64 q0 42 23.5 65 q23.5 23 59.5 23 q37 0 61 -23 q24 -23 24 -65 q0 -41 -24 -64 q-24 -23 -61 -23 Z" /><glyph glyph-name="lslash" unicode="&#x142;" d="M246 761 l0 -246 l72 44 l0 -165 l-72 -44 l0 -350 l-163 0 l0 250 l-72 -43 l0 165 l72 43 l0 346 l163 0 Z" /><glyph glyph-name="m" unicode="m" d="M661 531 q76 0 123 -58 q47 -58 47 -167 l0 -306 l-158 0 l0 251 q0 63 -15.5 100 q-15.5 37 -54.5 37 q-38 0 -58 -38 q-20 -38 -20 -106 l0 -244 l-159 0 l0 251 q0 63 -15.5 100 q-15.5 37 -53.5 37 q-38 0 -58.5 -38 q-20.5 -38 -20.5 -106 l0 -244 l-159 0 l0 517 l140 0 q5 -53 9 -74 q50 88 146 88 q51 0 90.5 -27 q39.5 -27 60.5 -79 q50 106 156 106 Z" /><glyph glyph-name="uni1E3F" unicode="&#x1e3f;" d="M389 579 l94 170 l161 0 l-130 -170 l-125 0 ZM661 531 q76 0 123 -58 q47 -58 47 -167 l0 -306 l-158 0 l0 251 q0 63 -15.5 100 q-15.5 37 -54.5 37 q-38 0 -58 -38 q-20 -38 -20 -106 l0 -244 l-159 0 l0 251 q0 63 -15.5 100 q-15.5 37 -53.5 37 q-38 0 -58.5 -38 q-20.5 -38 -20.5 -106 l0 -244 l-159 0 l0 517 l140 0 q5 -53 9 -74 q50 88 146 88 q51 0 90.5 -27 q39.5 -27 60.5 -79 q50 106 156 106 Z" /><glyph glyph-name="n" unicode="n" d="M377 531 q88 0 137.5 -57 q49.5 -57 49.5 -168 l0 -306 l-163 0 l0 251 q0 65 -19.5 101 q-19.5 36 -64.5 36 q-45 0 -70 -38 q-25 -38 -25 -106 l0 -244 l-163 0 l0 517 l145 0 q2 -50 9 -80 q50 94 164 94 Z" /><glyph glyph-name="nacute" unicode="&#x144;" d="M243 579 l94 170 l160 0 l-129 -170 l-125 0 ZM377 531 q88 0 137.5 -57 q49.5 -57 49.5 -168 l0 -306 l-163 0 l0 251 q0 65 -19.5 101 q-19.5 36 -64.5 36 q-45 0 -70 -38 q-25 -38 -25 -106 l0 -244 l-163 0 l0 517 l145 0 q2 -50 9 -80 q50 94 164 94 Z" /><glyph glyph-name="napostrophe" unicode="&#x149;" d="M1 589 q30 4 47.5 14 q17.5 10 25.5 29 l-1 0 q-34 0 -57 20.5 q-23 20.5 -23 50.5 q0 30 22 51 q22 21 55 21 q38 0 64 -25 q26 -25 26 -72 q0 -62 -44.5 -103 q-44.5 -41 -114.5 -49 l0 63 ZM377 531 q88 0 137.5 -57 q49.5 -57 49.5 -168 l0 -306 l-165 0 l0 251 q0 66 -18.5 101.5 q-18.5 35.5 -63.5 35.5 q-45 0 -70 -38 q-25 -38 -25 -106 l0 -244 l-163 0 l0 517 l145 0 q2 -50 9 -80 q50 94 164 94 Z" /><glyph glyph-name="ncaron" unicode="&#x148;" d="M256 749 l58 -74 l56 74 l135 0 l-134 -170 l-115 0 l-134 170 l134 0 ZM377 531 q88 0 137.5 -57 q49.5 -57 49.5 -168 l0 -306 l-163 0 l0 251 q0 65 -19.5 101 q-19.5 36 -64.5 36 q-45 0 -70 -38 q-25 -38 -25 -106 l0 -244 l-163 0 l0 517 l145 0 q2 -50 9 -80 q50 94 164 94 Z" /><glyph glyph-name="uni0146" unicode="&#x146;" d="M377 531 q88 0 137.5 -57 q49.5 -57 49.5 -168 l0 -306 l-163 0 l0 251 q0 65 -19.5 101 q-19.5 36 -64.5 36 q-45 0 -70 -38 q-25 -38 -25 -106 l0 -244 l-163 0 l0 517 l145 0 q2 -50 9 -80 q50 94 164 94 ZM308 -30 q44 0 71 -23 q27 -23 27 -69 q0 -56 -44.5 -88.5 q-44.5 -32.5 -128.5 -33.5 l0 60 q66 5 79 31 l-5 0 q-37 1 -59.5 16 q-22.5 15 -22.5 43 q0 29 23.5 46.5 q23.5 17.5 59.5 17.5 Z" /><glyph glyph-name="uni01F9" unicode="&#x1f9;" d="M130 749 l161 0 l94 -170 l-125 0 l-130 170 ZM377 531 q88 0 137.5 -57 q49.5 -57 49.5 -168 l0 -306 l-163 0 l0 251 q0 65 -19.5 101 q-19.5 36 -64.5 36 q-45 0 -70 -38 q-25 -38 -25 -106 l0 -244 l-163 0 l0 517 l145 0 q2 -50 9 -80 q50 94 164 94 Z" /><glyph glyph-name="eng" unicode="&#x14b;" d="M377 531 q88 0 137.5 -57 q49.5 -57 49.5 -168 l0 -307 q0 -81 -28.5 -135.5 q-28.5 -54.5 -77 -81 q-48.5 -26.5 -108.5 -26.5 q-80 0 -137 47 l61 114 q29 -22 59 -22 q38 0 53 32 q15 32 15 87 l0 237 q0 65 -19.5 101 q-19.5 36 -64.5 36 q-45 0 -70 -38 q-25 -38 -25 -106 l0 -244 l-163 0 l0 517 l145 0 q2 -50 9 -80 q50 94 164 94 Z" /><glyph glyph-name="ntilde" unicode="ñ" d="M110 593 q2 71 37.5 115 q35.5 44 93.5 44 q35 0 56.5 -12.5 q21.5 -12.5 43.5 -34.5 q12 -12 19.5 -17.5 q7.5 -5.5 16.5 -5.5 q26 0 35 54 l106 0 q-2 -71 -38 -115 q-36 -44 -93 -44 q-35 0 -57 12.5 q-22 12.5 -43 33.5 q-12 12 -19.5 17.5 q-7.5 5.5 -16.5 5.5 q-26 0 -35 -53 l-106 0 ZM377 531 q88 0 137.5 -57 q49.5 -57 49.5 -168 l0 -306 l-163 0 l0 251 q0 65 -19.5 101 q-19.5 36 -64.5 36 q-45 0 -70 -38 q-25 -38 -25 -106 l0 -244 l-163 0 l0 517 l145 0 q2 -50 9 -80 q50 94 164 94 Z" /><glyph glyph-name="o" unicode="o" d="M30 259 q0 82 37.5 144 q37.5 62 100.5 95 q63 33 135 33 q72 0 134.5 -33 q62.5 -33 99.5 -95 q37 -62 37 -144 q0 -83 -37 -144.5 q-37 -61.5 -99 -94.5 q-62 -33 -135 -33 q-73 0 -135.5 33 q-62.5 33 -100 94.5 q-37.5 61.5 -37.5 144.5 ZM198 259 q0 -61 29.5 -96.5 q29.5 -35.5 74.5 -35.5 q44 0 73.5 35.5 q29.5 35.5 29.5 96.5 q0 61 -29.5 97 q-29.5 36 -73.5 36 q-45 0 -74.5 -36 q-29.5 -36 -29.5 -97 Z" /><glyph glyph-name="oacute" unicode="ó" d="M232 579 l94 170 l161 0 l-130 -170 l-125 0 ZM30 259 q0 82 37.5 144 q37.5 62 100.5 95 q63 33 135 33 q72 0 134.5 -33 q62.5 -33 99.5 -95 q37 -62 37 -144 q0 -83 -37 -144.5 q-37 -61.5 -99 -94.5 q-62 -33 -135 -33 q-73 0 -135.5 33 q-62.5 33 -100 94.5 q-37.5 61.5 -37.5 144.5 ZM198 259 q0 -61 29.5 -96.5 q29.5 -35.5 74.5 -35.5 q44 0 73.5 35.5 q29.5 35.5 29.5 96.5 q0 61 -29.5 97 q-29.5 36 -73.5 36 q-45 0 -74.5 -36 q-29.5 -36 -29.5 -97 Z" /><glyph glyph-name="obreve" unicode="&#x14f;" d="M303 579 q-85 0 -136 46 q-51 46 -51 124 l122 0 q8 -74 65 -74 q58 0 66 74 l122 0 q0 -78 -51 -124 q-51 -46 -137 -46 ZM30 259 q0 82 37.5 144 q37.5 62 100.5 95 q63 33 135 33 q72 0 134.5 -33 q62.5 -33 99.5 -95 q37 -62 37 -144 q0 -83 -37 -144.5 q-37 -61.5 -99 -94.5 q-62 -33 -135 -33 q-73 0 -135.5 33 q-62.5 33 -100 94.5 q-37.5 61.5 -37.5 144.5 ZM198 259 q0 -61 29.5 -96.5 q29.5 -35.5 74.5 -35.5 q44 0 73.5 35.5 q29.5 35.5 29.5 96.5 q0 61 -29.5 97 q-29.5 36 -73.5 36 q-45 0 -74.5 -36 q-29.5 -36 -29.5 -97 Z" /><glyph glyph-name="uni01D2" unicode="&#x1d2;" d="M246 749 l57 -74 l57 74 l134 0 l-134 -170 l-115 0 l-134 170 l135 0 ZM30 259 q0 82 37.5 144 q37.5 62 100.5 95 q63 33 135 33 q72 0 134.5 -33 q62.5 -33 99.5 -95 q37 -62 37 -144 q0 -83 -37 -144.5 q-37 -61.5 -99 -94.5 q-62 -33 -135 -33 q-73 0 -135.5 33 q-62.5 33 -100 94.5 q-37.5 61.5 -37.5 144.5 ZM198 259 q0 -61 29.5 -96.5 q29.5 -35.5 74.5 -35.5 q44 0 73.5 35.5 q29.5 35.5 29.5 96.5 q0 61 -29.5 97 q-29.5 36 -73.5 36 q-45 0 -74.5 -36 q-29.5 -36 -29.5 -97 Z" /><glyph glyph-name="ocircumflex" unicode="ô" d="M245 749 l115 0 l134 -170 l-134 0 l-57 73 l-57 -73 l-135 0 l134 170 ZM30 259 q0 82 37.5 144 q37.5 62 100.5 95 q63 33 135 33 q72 0 134.5 -33 q62.5 -33 99.5 -95 q37 -62 37 -144 q0 -83 -37 -144.5 q-37 -61.5 -99 -94.5 q-62 -33 -135 -33 q-73 0 -135.5 33 q-62.5 33 -100 94.5 q-37.5 61.5 -37.5 144.5 ZM198 259 q0 -61 29.5 -96.5 q29.5 -35.5 74.5 -35.5 q44 0 73.5 35.5 q29.5 35.5 29.5 96.5 q0 61 -29.5 97 q-29.5 36 -73.5 36 q-45 0 -74.5 -36 q-29.5 -36 -29.5 -97 Z" /><glyph glyph-name="uni1ED1" unicode="&#x1ed1;" d="M364 775 l84 144 l156 0 l-116 -144 l-124 0 ZM242 749 l114 0 l135 -170 l-135 0 l-57 73 l-57 -73 l-135 0 l135 170 ZM30 259 q0 82 37.5 144 q37.5 62 100.5 95 q63 33 135 33 q72 0 134.5 -33 q62.5 -33 99.5 -95 q37 -62 37 -144 q0 -83 -37 -144.5 q-37 -61.5 -99 -94.5 q-62 -33 -135 -33 q-73 0 -135.5 33 q-62.5 33 -100 94.5 q-37.5 61.5 -37.5 144.5 ZM198 259 q0 -61 29.5 -96.5 q29.5 -35.5 74.5 -35.5 q44 0 73.5 35.5 q29.5 35.5 29.5 96.5 q0 61 -29.5 97 q-29.5 36 -73.5 36 q-45 0 -74.5 -36 q-29.5 -36 -29.5 -97 Z" /><glyph glyph-name="uni1ED9" unicode="&#x1ed9;" d="M245 749 l115 0 l134 -170 l-134 0 l-57 73 l-57 -73 l-135 0 l134 170 ZM30 259 q0 82 37.5 144 q37.5 62 100.5 95 q63 33 135 33 q72 0 134.5 -33 q62.5 -33 99.5 -95 q37 -62 37 -144 q0 -83 -37 -144.5 q-37 -61.5 -99 -94.5 q-62 -33 -135 -33 q-73 0 -135.5 33 q-62.5 33 -100 94.5 q-37.5 61.5 -37.5 144.5 ZM198 259 q0 -61 29.5 -96.5 q29.5 -35.5 74.5 -35.5 q44 0 73.5 35.5 q29.5 35.5 29.5 96.5 q0 61 -29.5 97 q-29.5 36 -73.5 36 q-45 0 -74.5 -36 q-29.5 -36 -29.5 -97 ZM303 -238 q-39 0 -66.5 27.5 q-27.5 27.5 -27.5 65.5 q0 38 27.5 65.5 q27.5 27.5 66.5 27.5 q38 0 66.5 -28 q28.5 -28 28.5 -65 q0 -38 -28 -65.5 q-28 -27.5 -67 -27.5 Z" /><glyph glyph-name="uni1ED3" unicode="&#x1ed3;" d="M264 919 l156 0 l85 -144 l-125 0 l-116 144 ZM242 749 l114 0 l135 -170 l-135 0 l-57 73 l-57 -73 l-135 0 l135 170 ZM30 259 q0 82 37.5 144 q37.5 62 100.5 95 q63 33 135 33 q72 0 134.5 -33 q62.5 -33 99.5 -95 q37 -62 37 -144 q0 -83 -37 -144.5 q-37 -61.5 -99 -94.5 q-62 -33 -135 -33 q-73 0 -135.5 33 q-62.5 33 -100 94.5 q-37.5 61.5 -37.5 144.5 ZM198 259 q0 -61 29.5 -96.5 q29.5 -35.5 74.5 -35.5 q44 0 73.5 35.5 q29.5 35.5 29.5 96.5 q0 61 -29.5 97 q-29.5 36 -73.5 36 q-45 0 -74.5 -36 q-29.5 -36 -29.5 -97 Z" /><glyph glyph-name="uni1ED5" unicode="&#x1ed5;" d="M314 896 q43 31 115 31 q59 0 97.5 -24.5 q38.5 -24.5 38.5 -73.5 q0 -45 -34 -74.5 q-34 -29.5 -93 -47.5 l-53 66 q67 21 67 47 q0 11 -10.5 18.5 q-10.5 7.5 -28.5 7.5 q-33 0 -78 -26 l-21 76 ZM242 738 l114 0 l135 -159 l-135 0 l-57 69 l-57 -69 l-135 0 l135 159 ZM30 259 q0 82 37.5 144 q37.5 62 100.5 95 q63 33 135 33 q72 0 134.5 -33 q62.5 -33 99.5 -95 q37 -62 37 -144 q0 -83 -37 -144.5 q-37 -61.5 -99 -94.5 q-62 -33 -135 -33 q-73 0 -135.5 33 q-62.5 33 -100 94.5 q-37.5 61.5 -37.5 144.5 ZM198 259 q0 -61 29.5 -96.5 q29.5 -35.5 74.5 -35.5 q44 0 73.5 35.5 q29.5 35.5 29.5 96.5 q0 61 -29.5 97 q-29.5 36 -73.5 36 q-45 0 -74.5 -36 q-29.5 -36 -29.5 -97 Z" /><glyph glyph-name="uni1ED7" unicode="&#x1ed7;" d="M239 827 q-26 0 -35 -51 l-106 0 q2 66 38 108 q36 42 93 42 q35 0 57 -12 q22 -12 43 -32 q13 -12 20 -17 q7 -5 16 -5 q26 0 35 51 l106 0 q-2 -66 -38 -108 q-36 -42 -93 -42 q-35 0 -57 12 q-22 12 -43 32 q-13 12 -20 17 q-7 5 -16 5 ZM245 739 l115 0 l134 -160 l-135 0 l-56 69 l-58 -69 l-135 0 l135 160 ZM30 259 q0 82 37.5 144 q37.5 62 100.5 95 q63 33 135 33 q72 0 134.5 -33 q62.5 -33 99.5 -95 q37 -62 37 -144 q0 -83 -37 -144.5 q-37 -61.5 -99 -94.5 q-62 -33 -135 -33 q-73 0 -135.5 33 q-62.5 33 -100 94.5 q-37.5 61.5 -37.5 144.5 ZM198 259 q0 -61 29.5 -96.5 q29.5 -35.5 74.5 -35.5 q44 0 73.5 35.5 q29.5 35.5 29.5 96.5 q0 61 -29.5 97 q-29.5 36 -73.5 36 q-45 0 -74.5 -36 q-29.5 -36 -29.5 -97 Z" /><glyph glyph-name="odieresis" unicode="ö" d="M186 578 q-34 0 -58 25.5 q-24 25.5 -24 60.5 q0 35 24 60 q24 25 58 25 q36 0 60 -25 q24 -25 24 -60 q0 -36 -24 -61 q-24 -25 -60 -25 ZM419 578 q-35 0 -58.5 25.5 q-23.5 25.5 -23.5 60.5 q0 35 23.5 60 q23.5 25 58.5 25 q35 0 59.5 -25 q24.5 -25 24.5 -60 q0 -35 -24.5 -60.5 q-24.5 -25.5 -59.5 -25.5 ZM30 259 q0 82 37.5 144 q37.5 62 100.5 95 q63 33 135 33 q72 0 134.5 -33 q62.5 -33 99.5 -95 q37 -62 37 -144 q0 -83 -37 -144.5 q-37 -61.5 -99 -94.5 q-62 -33 -135 -33 q-73 0 -135.5 33 q-62.5 33 -100 94.5 q-37.5 61.5 -37.5 144.5 ZM198 259 q0 -61 29.5 -96.5 q29.5 -35.5 74.5 -35.5 q44 0 73.5 35.5 q29.5 35.5 29.5 96.5 q0 61 -29.5 97 q-29.5 36 -73.5 36 q-45 0 -74.5 -36 q-29.5 -36 -29.5 -97 Z" /><glyph glyph-name="uni1ECD" unicode="&#x1ecd;" d="M30 259 q0 82 37.5 144 q37.5 62 100.5 95 q63 33 135 33 q72 0 134.5 -33 q62.5 -33 99.5 -95 q37 -62 37 -144 q0 -83 -37 -144.5 q-37 -61.5 -99 -94.5 q-62 -33 -135 -33 q-73 0 -135.5 33 q-62.5 33 -100 94.5 q-37.5 61.5 -37.5 144.5 ZM198 259 q0 -61 29.5 -96.5 q29.5 -35.5 74.5 -35.5 q44 0 73.5 35.5 q29.5 35.5 29.5 96.5 q0 61 -29.5 97 q-29.5 36 -73.5 36 q-45 0 -74.5 -36 q-29.5 -36 -29.5 -97 ZM303 -238 q-39 0 -66.5 27.5 q-27.5 27.5 -27.5 65.5 q0 38 27.5 65.5 q27.5 27.5 66.5 27.5 q38 0 66.5 -28 q28.5 -28 28.5 -65 q0 -38 -28 -65.5 q-28 -27.5 -67 -27.5 Z" /><glyph glyph-name="ograve" unicode="ò" d="M120 749 l160 0 l94 -170 l-125 0 l-129 170 ZM30 259 q0 82 37.5 144 q37.5 62 100.5 95 q63 33 135 33 q72 0 134.5 -33 q62.5 -33 99.5 -95 q37 -62 37 -144 q0 -83 -37 -144.5 q-37 -61.5 -99 -94.5 q-62 -33 -135 -33 q-73 0 -135.5 33 q-62.5 33 -100 94.5 q-37.5 61.5 -37.5 144.5 ZM198 259 q0 -61 29.5 -96.5 q29.5 -35.5 74.5 -35.5 q44 0 73.5 35.5 q29.5 35.5 29.5 96.5 q0 61 -29.5 97 q-29.5 36 -73.5 36 q-45 0 -74.5 -36 q-29.5 -36 -29.5 -97 Z" /><glyph glyph-name="uni1ECF" unicode="&#x1ecf;" d="M170 754 q22 16 52.5 24.5 q30.5 8.5 62.5 8.5 q60 0 98.5 -26.5 q38.5 -26.5 38.5 -78.5 q0 -90 -127 -130 l-53 70 q33 11 50 23 q17 12 17 27 q0 13 -11 20 q-11 7 -29 7 q-35 0 -78 -28 l-21 83 ZM30 259 q0 82 37.5 144 q37.5 62 100.5 95 q63 33 135 33 q72 0 134.5 -33 q62.5 -33 99.5 -95 q37 -62 37 -144 q0 -83 -37 -144.5 q-37 -61.5 -99 -94.5 q-62 -33 -135 -33 q-73 0 -135.5 33 q-62.5 33 -100 94.5 q-37.5 61.5 -37.5 144.5 ZM198 259 q0 -61 29.5 -96.5 q29.5 -35.5 74.5 -35.5 q44 0 73.5 35.5 q29.5 35.5 29.5 96.5 q0 61 -29.5 97 q-29.5 36 -73.5 36 q-45 0 -74.5 -36 q-29.5 -36 -29.5 -97 Z" /><glyph glyph-name="ohorn" unicode="&#x1a1;" d="M635 574 q0 -81 -27 -117.5 q-27 -36.5 -90 -42.5 q56 -69 56 -163 q0 -79 -37.5 -139 q-37.5 -60 -99.5 -92.5 q-62 -32.5 -134 -32.5 q-73 0 -135.5 33 q-62.5 33 -100 94.5 q-37.5 61.5 -37.5 144.5 q0 83 38.5 144.5 q38.5 61.5 103.5 94.5 q65 33 144 33 q34 0 80 -8 q38 -6 56 -6 q27 0 37.5 12.5 q10.5 12.5 10.5 52.5 q0 33 -7 64 l134 0 q8 -32 8 -72 ZM303 127 q44 0 73 35.5 q29 35.5 29 96.5 q0 61 -29 97 q-29 36 -73 36 q-45 0 -75 -36 q-30 -36 -30 -97 q0 -61 29.5 -96.5 q29.5 -35.5 75.5 -35.5 Z" /><glyph glyph-name="uni1EDB" unicode="&#x1edb;" d="M326 749 l161 0 l-130 -170 l-125 0 l94 170 ZM635 574 q0 -81 -27 -117.5 q-27 -36.5 -90 -42.5 q56 -69 56 -163 q0 -79 -37.5 -139 q-37.5 -60 -99.5 -92.5 q-62 -32.5 -134 -32.5 q-73 0 -135.5 33 q-62.5 33 -100 94.5 q-37.5 61.5 -37.5 144.5 q0 83 38.5 144.5 q38.5 61.5 103.5 94.5 q65 33 144 33 q34 0 80 -8 q38 -6 56 -6 q27 0 37.5 12.5 q10.5 12.5 10.5 52.5 q0 33 -7 64 l134 0 q8 -32 8 -72 ZM303 127 q44 0 73 35.5 q29 35.5 29 96.5 q0 61 -29 97 q-29 36 -73 36 q-45 0 -75 -36 q-30 -36 -30 -97 q0 -61 29.5 -96.5 q29.5 -35.5 75.5 -35.5 Z" /><glyph glyph-name="uni1EE3" unicode="&#x1ee3;" d="M635 574 q0 -81 -27 -117.5 q-27 -36.5 -90 -42.5 q56 -69 56 -163 q0 -79 -37.5 -139 q-37.5 -60 -99.5 -92.5 q-62 -32.5 -134 -32.5 q-73 0 -135.5 33 q-62.5 33 -100 94.5 q-37.5 61.5 -37.5 144.5 q0 83 38.5 144.5 q38.5 61.5 103.5 94.5 q65 33 144 33 q34 0 80 -8 q38 -6 56 -6 q27 0 37.5 12.5 q10.5 12.5 10.5 52.5 q0 33 -7 64 l134 0 q8 -32 8 -72 ZM303 127 q44 0 73 35.5 q29 35.5 29 96.5 q0 61 -29 97 q-29 36 -73 36 q-45 0 -75 -36 q-30 -36 -30 -97 q0 -61 29.5 -96.5 q29.5 -35.5 75.5 -35.5 ZM303 -52 q38 0 66.5 -28 q28.5 -28 28.5 -65 q0 -38 -28 -65.5 q-28 -27.5 -67 -27.5 q-39 0 -66.5 27.5 q-27.5 27.5 -27.5 65.5 q0 38 27.5 65.5 q27.5 27.5 66.5 27.5 Z" /><glyph glyph-name="uni1EDD" unicode="&#x1edd;" d="M280 749 l94 -170 l-125 0 l-129 170 l160 0 ZM635 574 q0 -81 -27 -117.5 q-27 -36.5 -90 -42.5 q56 -69 56 -163 q0 -79 -37.5 -139 q-37.5 -60 -99.5 -92.5 q-62 -32.5 -134 -32.5 q-73 0 -135.5 33 q-62.5 33 -100 94.5 q-37.5 61.5 -37.5 144.5 q0 83 38.5 144.5 q38.5 61.5 103.5 94.5 q65 33 144 33 q34 0 80 -8 q38 -6 56 -6 q27 0 37.5 12.5 q10.5 12.5 10.5 52.5 q0 33 -7 64 l134 0 q8 -32 8 -72 ZM303 127 q44 0 73 35.5 q29 35.5 29 96.5 q0 61 -29 97 q-29 36 -73 36 q-45 0 -75 -36 q-30 -36 -30 -97 q0 -61 29.5 -96.5 q29.5 -35.5 75.5 -35.5 Z" /><glyph glyph-name="uni1EDF" unicode="&#x1edf;" d="M269 699 q-35 0 -78 -28 l-21 83 q22 16 52.5 24.5 q30.5 8.5 62.5 8.5 q60 0 98.5 -26.5 q38.5 -26.5 38.5 -78.5 q0 -90 -127 -130 l-53 70 q33 11 50 23 q17 12 17 27 q0 13 -11 20 q-11 7 -29 7 ZM635 574 q0 -81 -27 -117.5 q-27 -36.5 -90 -42.5 q56 -69 56 -163 q0 -79 -37.5 -139 q-37.5 -60 -99.5 -92.5 q-62 -32.5 -134 -32.5 q-73 0 -135.5 33 q-62.5 33 -100 94.5 q-37.5 61.5 -37.5 144.5 q0 83 38.5 144.5 q38.5 61.5 103.5 94.5 q65 33 144 33 q34 0 80 -8 q38 -6 56 -6 q27 0 37.5 12.5 q10.5 12.5 10.5 52.5 q0 33 -7 64 l134 0 q8 -32 8 -72 ZM303 127 q44 0 73 35.5 q29 35.5 29 96.5 q0 61 -29 97 q-29 36 -73 36 q-45 0 -75 -36 q-30 -36 -30 -97 q0 -61 29.5 -96.5 q29.5 -35.5 75.5 -35.5 Z" /><glyph glyph-name="uni1EE1" unicode="&#x1ee1;" d="M240 646 q-26 0 -35 -54 l-106 0 q2 71 38 115 q36 44 93 44 q35 0 57 -12.5 q22 -12.5 43 -33.5 q12 -12 19.5 -17.5 q7.5 -5.5 16.5 -5.5 q26 0 35 54 l106 0 q-2 -71 -37.5 -115 q-35.5 -44 -93.5 -44 q-35 0 -57 12.5 q-22 12.5 -43 33.5 q-12 12 -19.5 17.5 q-7.5 5.5 -16.5 5.5 ZM635 574 q0 -81 -27 -117.5 q-27 -36.5 -90 -42.5 q56 -69 56 -163 q0 -79 -37.5 -139 q-37.5 -60 -99.5 -92.5 q-62 -32.5 -134 -32.5 q-73 0 -135.5 33 q-62.5 33 -100 94.5 q-37.5 61.5 -37.5 144.5 q0 83 38.5 144.5 q38.5 61.5 103.5 94.5 q65 33 144 33 q34 0 80 -8 q38 -6 56 -6 q27 0 37.5 12.5 q10.5 12.5 10.5 52.5 q0 33 -7 64 l134 0 q8 -32 8 -72 ZM303 127 q44 0 73 35.5 q29 35.5 29 96.5 q0 61 -29 97 q-29 36 -73 36 q-45 0 -75 -36 q-30 -36 -30 -97 q0 -61 29.5 -96.5 q29.5 -35.5 75.5 -35.5 Z" /><glyph glyph-name="ohungarumlaut" unicode="&#x151;" d="M152 579 l93 170 l148 0 l-129 -170 l-112 0 ZM342 579 l93 170 l148 0 l-129 -170 l-112 0 ZM30 259 q0 82 37.5 144 q37.5 62 100.5 95 q63 33 135 33 q72 0 134.5 -33 q62.5 -33 99.5 -95 q37 -62 37 -144 q0 -83 -37 -144.5 q-37 -61.5 -99 -94.5 q-62 -33 -135 -33 q-73 0 -135.5 33 q-62.5 33 -100 94.5 q-37.5 61.5 -37.5 144.5 ZM198 259 q0 -61 29.5 -96.5 q29.5 -35.5 74.5 -35.5 q44 0 73.5 35.5 q29.5 35.5 29.5 96.5 q0 61 -29.5 97 q-29.5 36 -73.5 36 q-45 0 -74.5 -36 q-29.5 -36 -29.5 -97 Z" /><glyph glyph-name="omacron" unicode="&#x14d;" d="M127 609 l0 104 l352 0 l0 -104 l-352 0 ZM30 259 q0 82 37.5 144 q37.5 62 100.5 95 q63 33 135 33 q72 0 134.5 -33 q62.5 -33 99.5 -95 q37 -62 37 -144 q0 -83 -37 -144.5 q-37 -61.5 -99 -94.5 q-62 -33 -135 -33 q-73 0 -135.5 33 q-62.5 33 -100 94.5 q-37.5 61.5 -37.5 144.5 ZM198 259 q0 -61 29.5 -96.5 q29.5 -35.5 74.5 -35.5 q44 0 73.5 35.5 q29.5 35.5 29.5 96.5 q0 61 -29.5 97 q-29.5 36 -73.5 36 q-45 0 -74.5 -36 q-29.5 -36 -29.5 -97 Z" /><glyph glyph-name="oslash" unicode="ø" d="M443 553 l131 0 l-73 -104 q73 -75 73 -190 q0 -83 -37 -144.5 q-37 -61.5 -99 -94.5 q-62 -33 -135 -33 q-57 0 -110 22 l-31 -44 l-132 0 l73 104 q-73 75 -73 190 q0 82 37.5 144 q37.5 62 100.5 95 q63 33 135 33 q53 0 110 -21 l30 43 ZM187 259 q0 -26 9 -57 l131 186 q-9 4 -24 4 q-50 0 -83 -36 q-33 -36 -33 -97 ZM417 259 q0 33 -10 56 l-129 -184 q11 -4 25 -4 q49 0 81.5 35.5 q32.5 35.5 32.5 96.5 Z" /><glyph glyph-name="oslashacute" unicode="&#x1ff;" d="M232 579 l94 170 l161 0 l-130 -170 l-125 0 ZM443 553 l131 0 l-73 -104 q73 -75 73 -190 q0 -83 -37 -144.5 q-37 -61.5 -99 -94.5 q-62 -33 -135 -33 q-57 0 -110 22 l-31 -44 l-132 0 l73 104 q-73 75 -73 190 q0 82 37.5 144 q37.5 62 100.5 95 q63 33 135 33 q53 0 110 -21 l30 43 ZM187 259 q0 -26 9 -57 l131 186 q-9 4 -24 4 q-50 0 -83 -36 q-33 -36 -33 -97 ZM417 259 q0 33 -10 56 l-129 -184 q11 -4 25 -4 q49 0 81.5 35.5 q32.5 35.5 32.5 96.5 Z" /><glyph glyph-name="otilde" unicode="õ" d="M99 592 q2 71 38 115 q36 44 93 44 q35 0 57 -12.5 q22 -12.5 43 -33.5 q12 -12 19.5 -17.5 q7.5 -5.5 16.5 -5.5 q26 0 35 54 l106 0 q-2 -71 -37.5 -115 q-35.5 -44 -93.5 -44 q-35 0 -57 12.5 q-22 12.5 -43 33.5 q-12 12 -19.5 17.5 q-7.5 5.5 -16.5 5.5 q-26 0 -35 -54 l-106 0 ZM30 259 q0 82 37.5 144 q37.5 62 100.5 95 q63 33 135 33 q72 0 134.5 -33 q62.5 -33 99.5 -95 q37 -62 37 -144 q0 -83 -37 -144.5 q-37 -61.5 -99 -94.5 q-62 -33 -135 -33 q-73 0 -135.5 33 q-62.5 33 -100 94.5 q-37.5 61.5 -37.5 144.5 ZM198 259 q0 -61 29.5 -96.5 q29.5 -35.5 74.5 -35.5 q44 0 73.5 35.5 q29.5 35.5 29.5 96.5 q0 61 -29.5 97 q-29.5 36 -73.5 36 q-45 0 -74.5 -36 q-29.5 -36 -29.5 -97 Z" /><glyph glyph-name="oe" unicode="&#x153;" d="M676 531 q69 0 122.5 -31 q53.5 -31 83.5 -87.5 q30 -56.5 30 -132.5 q0 -32 -6 -68 l-331 0 q11 -43 38 -66.5 q27 -23.5 66 -23.5 q32 0 57.5 15 q25.5 15 37.5 44 l119 -71 q-22 -59 -81 -91 q-59 -32 -131 -32 q-62 0 -112.5 24.5 q-50.5 24.5 -83.5 74.5 q-31 -48 -80.5 -73.5 q-49.5 -25.5 -108.5 -25.5 q-69 0 -130 33 q-61 33 -98.5 95 q-37.5 62 -37.5 144 q0 82 37.5 144 q37.5 62 98.5 95 q61 33 130 33 q60 0 109 -25 q49 -25 80 -73 q31 49 81 73.5 q50 24.5 110 24.5 ZM667 401 q-34 0 -57.5 -20.5 q-23.5 -20.5 -34.5 -57.5 l172 0 q-4 38 -26 58 q-22 20 -54 20 ZM303 127 q44 0 73 35.5 q29 35.5 29 96.5 q0 61 -29 97 q-29 36 -73 36 q-45 0 -75 -36 q-30 -36 -30 -97 q0 -61 29.5 -96.5 q29.5 -35.5 75.5 -35.5 Z" /><glyph glyph-name="p" unicode="p" d="M375 531 q64 0 117.5 -32 q53.5 -32 85 -93.5 q31.5 -61.5 31.5 -146.5 q0 -84 -31.5 -145.5 q-31.5 -61.5 -85 -94 q-53.5 -32.5 -117.5 -32.5 q-98 0 -153 71 l0 -290 l-163 0 l0 749 l145 0 q4 -56 7 -73 q28 44 70 65.5 q42 21.5 94 21.5 ZM333 130 q48 0 78 34.5 q30 34.5 30 94.5 q0 61 -30 98 q-30 37 -78 37 q-47 0 -79 -35 q-32 -35 -32 -100 q0 -65 31.5 -97 q31.5 -32 79.5 -32 Z" /><glyph glyph-name="thorn" unicode="þ" d="M375 531 q64 0 117.5 -32 q53.5 -32 85 -93.5 q31.5 -61.5 31.5 -146.5 q0 -84 -31.5 -145.5 q-31.5 -61.5 -85 -94 q-53.5 -32.5 -117.5 -32.5 q-98 0 -153 71 l0 -290 l-163 0 l0 993 l163 0 l0 -301 q55 71 153 71 ZM333 130 q48 0 78 34.5 q30 34.5 30 94.5 q0 61 -30 98 q-30 37 -78 37 q-47 0 -79 -35 q-32 -35 -32 -100 q0 -65 31.5 -97 q31.5 -32 79.5 -32 Z" /><glyph glyph-name="q" unicode="q" d="M580 517 l0 -749 l-163 0 l0 290 q-55 -71 -152 -71 q-65 0 -118.5 32.5 q-53.5 32.5 -85 94 q-31.5 61.5 -31.5 145.5 q0 85 31.5 146.5 q31.5 61.5 85 93.5 q53.5 32 118.5 32 q52 0 93.5 -21.5 q41.5 -21.5 69.5 -64.5 q6 42 7 72 l145 0 ZM307 130 q47 0 78.5 32 q31.5 32 31.5 97 q0 65 -31.5 100 q-31.5 35 -78.5 35 q-48 0 -78.5 -37 q-30.5 -37 -30.5 -98 q0 -60 30 -94.5 q30 -34.5 79 -34.5 Z" /><glyph glyph-name="r" unicode="r" d="M361 531 q32 0 60.5 -10 q28.5 -10 42.5 -26 l-63 -124 q-32 21 -64 21 q-53 0 -84 -44 q-31 -44 -31 -119 l0 -229 l-163 0 l0 517 l145 0 q2 -49 9 -80 q23 46 61.5 70 q38.5 24 86.5 24 Z" /><glyph glyph-name="racute" unicode="&#x155;" d="M182 579 l94 170 l160 0 l-129 -170 l-125 0 ZM361 531 q32 0 60.5 -10 q28.5 -10 42.5 -26 l-63 -124 q-32 21 -64 21 q-53 0 -84 -44 q-31 -44 -31 -119 l0 -229 l-163 0 l0 517 l145 0 q2 -49 9 -80 q23 46 61.5 70 q38.5 24 86.5 24 Z" /><glyph glyph-name="rcaron" unicode="&#x159;" d="M195 749 l58 -74 l56 74 l135 0 l-134 -170 l-115 0 l-135 170 l135 0 ZM361 531 q32 0 60.5 -10 q28.5 -10 42.5 -26 l-63 -124 q-32 21 -64 21 q-53 0 -84 -44 q-31 -44 -31 -119 l0 -229 l-163 0 l0 517 l145 0 q2 -49 9 -80 q23 46 61.5 70 q38.5 24 86.5 24 Z" /><glyph glyph-name="uni0157" unicode="&#x157;" d="M361 531 q32 0 60.5 -10 q28.5 -10 42.5 -26 l-63 -124 q-32 21 -64 21 q-53 0 -84 -44 q-31 -44 -31 -119 l0 -229 l-163 0 l0 517 l145 0 q2 -49 9 -80 q23 46 61.5 70 q38.5 24 86.5 24 ZM138 -30 q44 0 70.5 -23 q26.5 -23 26.5 -69 q0 -56 -44 -88.5 q-44 -32.5 -128 -33.5 l0 60 q32 2 51.5 9.5 q19.5 7.5 26.5 21.5 l-4 0 q-38 1 -60.5 16 q-22.5 15 -22.5 43 q0 29 23.5 46.5 q23.5 17.5 60.5 17.5 Z" /><glyph glyph-name="s" unicode="s" d="M459 156 q0 -80 -62.5 -124.5 q-62.5 -44.5 -160.5 -44.5 q-84 0 -146 36 q-62 36 -85 99 l118 69 q13 -35 43.5 -54.5 q30.5 -19.5 70.5 -19.5 q25 0 40 8.5 q15 8.5 15 24.5 q0 19 -21.5 30 q-21.5 11 -70.5 26 q-53 15 -87.5 30 q-34.5 15 -59.5 44.5 q-25 29.5 -25 76.5 q0 54 30 93.5 q30 39.5 80 60 q50 20.5 109 20.5 q82 0 138 -35 q56 -35 71 -92 l-118 -66 q-29 63 -92 63 q-24 0 -37.5 -9.5 q-13.5 -9.5 -13.5 -24.5 q0 -19 20.5 -29 q20.5 -10 67.5 -24 q52 -14 88 -30 q36 -16 62 -47 q26 -31 26 -81 Z" /><glyph glyph-name="sacute" unicode="&#x15b;" d="M172 579 l94 170 l160 0 l-129 -170 l-125 0 ZM459 156 q0 -80 -62.5 -124.5 q-62.5 -44.5 -160.5 -44.5 q-84 0 -146 36 q-62 36 -85 99 l118 69 q13 -35 43.5 -54.5 q30.5 -19.5 70.5 -19.5 q25 0 40 8.5 q15 8.5 15 24.5 q0 19 -21.5 30 q-21.5 11 -70.5 26 q-53 15 -87.5 30 q-34.5 15 -59.5 44.5 q-25 29.5 -25 76.5 q0 54 30 93.5 q30 39.5 80 60 q50 20.5 109 20.5 q82 0 138 -35 q56 -35 71 -92 l-118 -66 q-29 63 -92 63 q-24 0 -37.5 -9.5 q-13.5 -9.5 -13.5 -24.5 q0 -19 20.5 -29 q20.5 -10 67.5 -24 q52 -14 88 -30 q36 -16 62 -47 q26 -31 26 -81 Z" /><glyph glyph-name="scaron" unicode="&#x161;" d="M185 749 l58 -74 l56 74 l135 0 l-135 -170 l-114 0 l-135 170 l135 0 ZM459 156 q0 -80 -62.5 -124.5 q-62.5 -44.5 -160.5 -44.5 q-84 0 -146 36 q-62 36 -85 99 l118 69 q13 -35 43.5 -54.5 q30.5 -19.5 70.5 -19.5 q25 0 40 8.5 q15 8.5 15 24.5 q0 19 -21.5 30 q-21.5 11 -70.5 26 q-53 15 -87.5 30 q-34.5 15 -59.5 44.5 q-25 29.5 -25 76.5 q0 54 30 93.5 q30 39.5 80 60 q50 20.5 109 20.5 q82 0 138 -35 q56 -35 71 -92 l-118 -66 q-29 63 -92 63 q-24 0 -37.5 -9.5 q-13.5 -9.5 -13.5 -24.5 q0 -19 20.5 -29 q20.5 -10 67.5 -24 q52 -14 88 -30 q36 -16 62 -47 q26 -31 26 -81 Z" /><glyph glyph-name="scedilla" unicode="&#x15f;" d="M459 156 q0 -73 -52.5 -116.5 q-52.5 -43.5 -138.5 -50.5 l-21 -46 q48 -1 79 -24 q31 -23 31 -66 q0 -50 -43.5 -73.5 q-43.5 -23.5 -106.5 -23.5 q-43 0 -84 13 l0 74 q41 -12 79 -12 q49 0 49 21 q0 10 -13 16 q-13 6 -34 6 q-29 0 -60 -10 l-10 52 l35 78 q-60 12 -103 45 q-43 33 -61 83 l118 69 q13 -35 43.5 -54.5 q30.5 -19.5 70.5 -19.5 q25 0 40 8.5 q15 8.5 15 24.5 q0 19 -21.5 30 q-21.5 11 -70.5 26 q-53 15 -87.5 30 q-34.5 15 -59.5 44.5 q-25 29.5 -25 76.5 q0 54 30 93.5 q30 39.5 80 60 q50 20.5 109 20.5 q82 0 138 -35 q56 -35 71 -92 l-118 -66 q-29 63 -92 63 q-24 0 -37.5 -9.5 q-13.5 -9.5 -13.5 -24.5 q0 -19 20.5 -29 q20.5 -10 67.5 -24 q52 -14 88 -30 q36 -16 62 -47 q26 -31 26 -81 Z" /><glyph glyph-name="scircumflex" unicode="&#x15d;" d="M185 749 l114 0 l135 -170 l-135 0 l-56 73 l-58 -73 l-135 0 l135 170 ZM459 156 q0 -80 -62.5 -124.5 q-62.5 -44.5 -160.5 -44.5 q-84 0 -146 36 q-62 36 -85 99 l118 69 q13 -35 43.5 -54.5 q30.5 -19.5 70.5 -19.5 q25 0 40 8.5 q15 8.5 15 24.5 q0 19 -21.5 30 q-21.5 11 -70.5 26 q-53 15 -87.5 30 q-34.5 15 -59.5 44.5 q-25 29.5 -25 76.5 q0 54 30 93.5 q30 39.5 80 60 q50 20.5 109 20.5 q82 0 138 -35 q56 -35 71 -92 l-118 -66 q-29 63 -92 63 q-24 0 -37.5 -9.5 q-13.5 -9.5 -13.5 -24.5 q0 -19 20.5 -29 q20.5 -10 67.5 -24 q52 -14 88 -30 q36 -16 62 -47 q26 -31 26 -81 Z" /><glyph glyph-name="uni0219" unicode="&#x219;" d="M195 367 q0 -19 20.5 -29 q20.5 -10 67.5 -24 q52 -14 88 -30 q36 -16 62 -47 q26 -31 26 -81 q0 -80 -62.5 -124.5 q-62.5 -44.5 -160.5 -44.5 q-84 0 -146 36 q-62 36 -85 99 l118 69 q13 -35 43.5 -54.5 q30.5 -19.5 70.5 -19.5 q25 0 40 8.5 q15 8.5 15 24.5 q0 19 -21.5 30 q-21.5 11 -70.5 26 q-53 15 -87.5 30 q-34.5 15 -59.5 44.5 q-25 29.5 -25 76.5 q0 54 30 93.5 q30 39.5 80 60 q50 20.5 109 20.5 q82 0 138 -35 q56 -35 71 -92 l-118 -66 q-29 63 -92 63 q-24 0 -37.5 -9.5 q-13.5 -9.5 -13.5 -24.5 ZM231 -30 q44 0 70.5 -23 q26.5 -23 26.5 -69 q0 -56 -44 -88.5 q-44 -32.5 -128 -33.5 l0 60 q32 2 51.5 9.5 q19.5 7.5 26.5 21.5 l-4 0 q-38 1 -60.5 16 q-22.5 15 -22.5 43 q0 29 23.5 46.5 q23.5 17.5 60.5 17.5 Z" /><glyph glyph-name="germandbls" unicode="ß" d="M476 386 q63 -19 102 -63 q39 -44 39 -121 q0 -103 -67 -159 q-67 -56 -178 -56 q-63 0 -102 17 l0 141 q13 -8 35 -13 q22 -5 44 -5 q43 0 71.5 22.5 q28.5 22.5 28.5 69.5 q0 55 -40.5 73.5 q-40.5 18.5 -86.5 18.5 l-39 0 l0 136 l18 0 q50 0 76.5 21.5 q26.5 21.5 26.5 70.5 q0 44 -20.5 67.5 q-20.5 23.5 -59.5 23.5 q-58 0 -80 -50.5 q-22 -50.5 -22 -132.5 l0 -447 l-163 0 l0 461 q0 106 35.5 176 q35.5 70 96.5 103.5 q61 33.5 138 33.5 q71 0 126.5 -28.5 q55.5 -28.5 86.5 -79 q31 -50.5 31 -115.5 q0 -116 -97 -165 Z" /><glyph glyph-name="longs" unicode="&#x17f;" d="M315 775 q47 0 83.5 -14.5 q36.5 -14.5 58.5 -39.5 l-62 -114 q-30 28 -66 28 q-35 0 -54.5 -30 q-19.5 -30 -19.5 -92 l0 -513 l-165 0 l0 381 l-86 0 l0 136 l86 0 l0 12 q0 82 30.5 137.5 q30.5 55.5 81.5 82 q51 26.5 113 26.5 Z" /><glyph glyph-name="t" unicode="t" d="M455 37 q-56 -50 -158 -50 q-91 0 -146 47.5 q-55 47.5 -55 168.5 l0 177 l-95 0 l0 137 l95 0 l0 166 l163 0 l0 -166 l158 0 l0 -137 l-158 0 l0 -148 q0 -50 15 -77.5 q15 -27.5 57 -27.5 q34 0 67 23 l57 -113 Z" /><glyph glyph-name="tbar" unicode="&#x167;" d="M455 37 q-56 -50 -158 -50 q-91 0 -146.5 48 q-55.5 48 -55.5 171 l-94 0 l0 123 l94 0 l0 65 l-94 0 l0 123 l94 0 l0 166 l164 0 l0 -166 l158 0 l0 -123 l-158 0 l0 -65 l158 0 l0 -123 l-157 0 q3 -38 19 -58.5 q16 -20.5 52 -20.5 q34 0 67 23 l57 -113 Z" /><glyph glyph-name="tcaron" unicode="&#x165;" d="M383 881 q41 0 69.5 -31.5 q28.5 -31.5 28.5 -90.5 q0 -78 -48 -129.5 q-48 -51.5 -125 -61.5 l0 80 q64 8 79 53 l-3 0 q-36 1 -60 26.5 q-24 25.5 -24 62.5 q0 38 23.5 64.5 q23.5 26.5 59.5 26.5 ZM331 127 q34 0 67 23 l57 -113 q-56 -50 -158 -50 q-91 0 -146 47.5 q-55 47.5 -55 168.5 l0 177 l-95 0 l0 137 l95 0 l0 166 l163 0 l0 -166 l158 0 l0 -137 l-158 0 l0 -148 q0 -50 15 -77.5 q15 -27.5 57 -27.5 Z" /><glyph glyph-name="uni0163" unicode="&#x163;" d="M281 -58 q48 -2 79 -24.5 q31 -22.5 31 -64.5 q0 -50 -43.5 -73.5 q-43.5 -23.5 -106.5 -23.5 q-43 0 -84 13 l0 74 q45 -13 79 -13 q22 0 35 5 q13 5 13 16 q0 10 -12.5 16 q-12.5 6 -33.5 6 q-29 0 -60 -10 l-10 52 l39 85 q-111 40 -111 203 l0 177 l-95 0 l0 137 l95 0 l0 166 l163 0 l0 -166 l158 0 l0 -137 l-158 0 l0 -148 q0 -50 15 -77.5 q15 -27.5 57 -27.5 q34 0 67 23 l57 -113 q-55 -49 -154 -50 l-20 -45 Z" /><glyph glyph-name="uni021B" unicode="&#x21b;" d="M455 37 q-56 -50 -158 -50 q-91 0 -146 47.5 q-55 47.5 -55 168.5 l0 177 l-95 0 l0 137 l95 0 l0 166 l163 0 l0 -166 l158 0 l0 -137 l-158 0 l0 -148 q0 -50 15 -77.5 q15 -27.5 57 -27.5 q34 0 67 23 l57 -113 ZM264 -30 q44 0 70.5 -23 q26.5 -23 26.5 -69 q0 -56 -44 -88.5 q-44 -32.5 -128 -33.5 l0 60 q32 2 51.5 9.5 q19.5 7.5 26.5 21.5 l-4 0 q-38 1 -60.5 16 q-22.5 15 -22.5 43 q0 29 23.5 46.5 q23.5 17.5 60.5 17.5 Z" /><glyph glyph-name="u" unicode="u" d="M392 517 l163 0 l0 -517 l-144 0 l-2 22 q-4 45 -7 58 q-51 -93 -162 -93 q-88 0 -138.5 57 q-50.5 57 -50.5 168 l0 305 l163 0 l0 -250 q0 -62 17.5 -99.5 q17.5 -37.5 64.5 -37.5 q46 0 71 38 q25 38 25 106 l0 243 Z" /><glyph glyph-name="uacute" unicode="ú" d="M234 579 l94 170 l161 0 l-130 -170 l-125 0 ZM392 517 l163 0 l0 -517 l-144 0 l-2 22 q-4 45 -7 58 q-51 -93 -162 -93 q-88 0 -138.5 57 q-50.5 57 -50.5 168 l0 305 l163 0 l0 -250 q0 -62 17.5 -99.5 q17.5 -37.5 64.5 -37.5 q46 0 71 38 q25 38 25 106 l0 243 Z" /><glyph glyph-name="ubreve" unicode="&#x16d;" d="M305 579 q-85 0 -136 46 q-51 46 -51 124 l122 0 q8 -74 65 -74 q58 0 66 74 l122 0 q0 -78 -51 -124 q-51 -46 -137 -46 ZM392 517 l163 0 l0 -517 l-144 0 l-2 22 q-4 45 -7 58 q-51 -93 -162 -93 q-88 0 -138.5 57 q-50.5 57 -50.5 168 l0 305 l163 0 l0 -250 q0 -62 17.5 -99.5 q17.5 -37.5 64.5 -37.5 q46 0 71 38 q25 38 25 106 l0 243 Z" /><glyph glyph-name="uni01D4" unicode="&#x1d4;" d="M248 749 l57 -74 l57 74 l134 0 l-134 -170 l-115 0 l-134 170 l135 0 ZM392 517 l163 0 l0 -517 l-144 0 l-2 22 q-4 45 -7 58 q-51 -93 -162 -93 q-88 0 -138.5 57 q-50.5 57 -50.5 168 l0 305 l163 0 l0 -250 q0 -62 17.5 -99.5 q17.5 -37.5 64.5 -37.5 q46 0 71 38 q25 38 25 106 l0 243 Z" /><glyph glyph-name="ucircumflex" unicode="û" d="M247 749 l115 0 l134 -170 l-134 0 l-57 73 l-57 -73 l-135 0 l134 170 ZM392 517 l163 0 l0 -517 l-144 0 l-2 22 q-4 45 -7 58 q-51 -93 -162 -93 q-88 0 -138.5 57 q-50.5 57 -50.5 168 l0 305 l163 0 l0 -250 q0 -62 17.5 -99.5 q17.5 -37.5 64.5 -37.5 q46 0 71 38 q25 38 25 106 l0 243 Z" /><glyph glyph-name="udieresis" unicode="ü" d="M188 578 q-34 0 -58 25.5 q-24 25.5 -24 60.5 q0 35 24 60 q24 25 58 25 q36 0 60 -25 q24 -25 24 -60 q0 -35 -24.5 -60.5 q-24.5 -25.5 -59.5 -25.5 ZM421 578 q-35 0 -58.5 25.5 q-23.5 25.5 -23.5 60.5 q0 35 23.5 60 q23.5 25 58.5 25 q35 0 59.5 -25 q24.5 -25 24.5 -60 q0 -35 -24.5 -60.5 q-24.5 -25.5 -59.5 -25.5 ZM392 517 l163 0 l0 -517 l-144 0 l-2 22 q-4 45 -7 58 q-51 -93 -162 -93 q-88 0 -138.5 57 q-50.5 57 -50.5 168 l0 305 l163 0 l0 -250 q0 -62 17.5 -99.5 q17.5 -37.5 64.5 -37.5 q46 0 71 38 q25 38 25 106 l0 243 Z" /><glyph glyph-name="uni01D8" unicode="&#x1d8;" d="M234 775 l85 144 l156 0 l-116 -144 l-125 0 ZM188 578 q-34 0 -58 25.5 q-24 25.5 -24 60.5 q0 35 24 60 q24 25 58 25 q36 0 60 -25 q24 -25 24 -60 q0 -35 -24.5 -60.5 q-24.5 -25.5 -59.5 -25.5 ZM421 578 q-35 0 -58.5 25.5 q-23.5 25.5 -23.5 60.5 q0 35 23.5 60 q23.5 25 58.5 25 q35 0 59.5 -25 q24.5 -25 24.5 -60 q0 -35 -24.5 -60.5 q-24.5 -25.5 -59.5 -25.5 ZM392 517 l163 0 l0 -517 l-144 0 l-2 22 q-4 45 -7 58 q-51 -93 -162 -93 q-88 0 -138.5 57 q-50.5 57 -50.5 168 l0 305 l163 0 l0 -250 q0 -62 17.5 -99.5 q17.5 -37.5 64.5 -37.5 q46 0 71 38 q25 38 25 106 l0 243 Z" /><glyph glyph-name="uni01DA" unicode="&#x1da;" d="M248 919 l57 -62 l56 62 l135 0 l-134 -144 l-115 0 l-134 144 l135 0 ZM188 578 q-34 0 -58 25.5 q-24 25.5 -24 60.5 q0 35 24 60 q24 25 58 25 q36 0 60 -25 q24 -25 24 -60 q0 -35 -24.5 -60.5 q-24.5 -25.5 -59.5 -25.5 ZM421 578 q-35 0 -58.5 25.5 q-23.5 25.5 -23.5 60.5 q0 35 23.5 60 q23.5 25 58.5 25 q35 0 59.5 -25 q24.5 -25 24.5 -60 q0 -35 -24.5 -60.5 q-24.5 -25.5 -59.5 -25.5 ZM392 517 l163 0 l0 -517 l-144 0 l-2 22 q-4 45 -7 58 q-51 -93 -162 -93 q-88 0 -138.5 57 q-50.5 57 -50.5 168 l0 305 l163 0 l0 -250 q0 -62 17.5 -99.5 q17.5 -37.5 64.5 -37.5 q46 0 71 38 q25 38 25 106 l0 243 Z" /><glyph glyph-name="uni01DC" unicode="&#x1dc;" d="M135 919 l156 0 l85 -144 l-125 0 l-116 144 ZM188 578 q-34 0 -58 25.5 q-24 25.5 -24 60.5 q0 35 24 60 q24 25 58 25 q36 0 60 -25 q24 -25 24 -60 q0 -35 -24.5 -60.5 q-24.5 -25.5 -59.5 -25.5 ZM421 578 q-35 0 -58.5 25.5 q-23.5 25.5 -23.5 60.5 q0 35 23.5 60 q23.5 25 58.5 25 q35 0 59.5 -25 q24.5 -25 24.5 -60 q0 -35 -24.5 -60.5 q-24.5 -25.5 -59.5 -25.5 ZM392 517 l163 0 l0 -517 l-144 0 l-2 22 q-4 45 -7 58 q-51 -93 -162 -93 q-88 0 -138.5 57 q-50.5 57 -50.5 168 l0 305 l163 0 l0 -250 q0 -62 17.5 -99.5 q17.5 -37.5 64.5 -37.5 q46 0 71 38 q25 38 25 106 l0 243 Z" /><glyph glyph-name="uni01D6" unicode="&#x1d6;" d="M129 795 l0 104 l352 0 l0 -104 l-352 0 ZM188 578 q-34 0 -58 25.5 q-24 25.5 -24 60.5 q0 35 24 60 q24 25 58 25 q36 0 60 -25 q24 -25 24 -60 q0 -35 -24.5 -60.5 q-24.5 -25.5 -59.5 -25.5 ZM421 578 q-35 0 -58.5 25.5 q-23.5 25.5 -23.5 60.5 q0 35 23.5 60 q23.5 25 58.5 25 q35 0 59.5 -25 q24.5 -25 24.5 -60 q0 -35 -24.5 -60.5 q-24.5 -25.5 -59.5 -25.5 ZM392 517 l163 0 l0 -517 l-144 0 l-2 22 q-4 45 -7 58 q-51 -93 -162 -93 q-88 0 -138.5 57 q-50.5 57 -50.5 168 l0 305 l163 0 l0 -250 q0 -62 17.5 -99.5 q17.5 -37.5 64.5 -37.5 q46 0 71 38 q25 38 25 106 l0 243 Z" /><glyph glyph-name="uni1EE5" unicode="&#x1ee5;" d="M392 517 l163 0 l0 -517 l-144 0 l-2 22 q-4 45 -7 58 q-51 -93 -162 -93 q-88 0 -138.5 57 q-50.5 57 -50.5 168 l0 305 l163 0 l0 -250 q0 -62 17.5 -99.5 q17.5 -37.5 64.5 -37.5 q46 0 71 38 q25 38 25 106 l0 243 ZM310 -238 q-39 0 -67 27.5 q-28 27.5 -28 65.5 q0 38 28 65.5 q28 27.5 67 27.5 q38 0 66.5 -28 q28.5 -28 28.5 -65 q0 -38 -28 -65.5 q-28 -27.5 -67 -27.5 Z" /><glyph glyph-name="ugrave" unicode="ù" d="M122 749 l160 0 l94 -170 l-125 0 l-129 170 ZM392 517 l163 0 l0 -517 l-144 0 l-2 22 q-4 45 -7 58 q-51 -93 -162 -93 q-88 0 -138.5 57 q-50.5 57 -50.5 168 l0 305 l163 0 l0 -250 q0 -62 17.5 -99.5 q17.5 -37.5 64.5 -37.5 q46 0 71 38 q25 38 25 106 l0 243 Z" /><glyph glyph-name="uni1EE7" unicode="&#x1ee7;" d="M172 754 q22 16 52.5 24.5 q30.5 8.5 62.5 8.5 q60 0 98.5 -26.5 q38.5 -26.5 38.5 -78.5 q0 -90 -127 -130 l-53 70 q33 11 50 23 q17 12 17 27 q0 13 -11 20 q-11 7 -29 7 q-34 0 -78 -27 l-21 82 ZM392 517 l163 0 l0 -517 l-144 0 l-2 22 q-4 45 -7 58 q-51 -93 -162 -93 q-88 0 -138.5 57 q-50.5 57 -50.5 168 l0 305 l163 0 l0 -250 q0 -62 17.5 -99.5 q17.5 -37.5 64.5 -37.5 q46 0 71 38 q25 38 25 106 l0 243 Z" /><glyph glyph-name="uhorn" unicode="&#x1b0;" d="M708 574 q0 -55 -14 -88 q-14 -33 -47.5 -50.5 q-33.5 -17.5 -91.5 -22.5 l0 -413 l-144 0 l-2 22 q-4 45 -7 58 q-51 -93 -162 -93 q-88 0 -138.5 57 q-50.5 57 -50.5 168 l0 305 l163 0 l0 -250 q0 -62 17.5 -99.5 q17.5 -37.5 64.5 -37.5 q46 0 71 38 q25 38 25 106 l0 243 l73 0 q48 1 69.5 5 q21.5 4 30 17.5 q8.5 13.5 8.5 42.5 q0 33 -7 64 l134 0 q8 -32 8 -72 Z" /><glyph glyph-name="uni1EE9" unicode="&#x1ee9;" d="M234 579 l94 170 l161 0 l-130 -170 l-125 0 ZM708 574 q0 -55 -14 -88 q-14 -33 -47.5 -50.5 q-33.5 -17.5 -91.5 -22.5 l0 -413 l-144 0 l-2 22 q-4 45 -7 58 q-51 -93 -162 -93 q-88 0 -138.5 57 q-50.5 57 -50.5 168 l0 305 l163 0 l0 -250 q0 -62 17.5 -99.5 q17.5 -37.5 64.5 -37.5 q46 0 71 38 q25 38 25 106 l0 243 l73 0 q48 1 69.5 5 q21.5 4 30 17.5 q8.5 13.5 8.5 42.5 q0 33 -7 64 l134 0 q8 -32 8 -72 Z" /><glyph glyph-name="uni1EF1" unicode="&#x1ef1;" d="M708 574 q0 -55 -14 -88 q-14 -33 -47.5 -50.5 q-33.5 -17.5 -91.5 -22.5 l0 -413 l-144 0 l-2 22 q-4 45 -7 58 q-51 -93 -162 -93 q-88 0 -138.5 57 q-50.5 57 -50.5 168 l0 305 l163 0 l0 -250 q0 -62 17.5 -99.5 q17.5 -37.5 64.5 -37.5 q46 0 71 38 q25 38 25 106 l0 243 l73 0 q48 1 69.5 5 q21.5 4 30 17.5 q8.5 13.5 8.5 42.5 q0 33 -7 64 l134 0 q8 -32 8 -72 ZM310 -238 q-39 0 -67 27.5 q-28 27.5 -28 65.5 q0 38 28 65.5 q28 27.5 67 27.5 q38 0 66.5 -28 q28.5 -28 28.5 -65 q0 -38 -28 -65.5 q-28 -27.5 -67 -27.5 Z" /><glyph glyph-name="uni1EEB" unicode="&#x1eeb;" d="M122 749 l160 0 l94 -170 l-125 0 l-129 170 ZM708 574 q0 -55 -14 -88 q-14 -33 -47.5 -50.5 q-33.5 -17.5 -91.5 -22.5 l0 -413 l-144 0 l-2 22 q-4 45 -7 58 q-51 -93 -162 -93 q-88 0 -138.5 57 q-50.5 57 -50.5 168 l0 305 l163 0 l0 -250 q0 -62 17.5 -99.5 q17.5 -37.5 64.5 -37.5 q46 0 71 38 q25 38 25 106 l0 243 l73 0 q48 1 69.5 5 q21.5 4 30 17.5 q8.5 13.5 8.5 42.5 q0 33 -7 64 l134 0 q8 -32 8 -72 Z" /><glyph glyph-name="uni1EED" unicode="&#x1eed;" d="M172 754 q22 16 52.5 24.5 q30.5 8.5 62.5 8.5 q60 0 98.5 -26.5 q38.5 -26.5 38.5 -78.5 q0 -90 -127 -130 l-53 70 q33 11 50 23 q17 12 17 27 q0 13 -11 20 q-11 7 -29 7 q-34 0 -78 -27 l-21 82 ZM708 574 q0 -55 -14 -88 q-14 -33 -47.5 -50.5 q-33.5 -17.5 -91.5 -22.5 l0 -413 l-144 0 l-2 22 q-4 45 -7 58 q-51 -93 -162 -93 q-88 0 -138.5 57 q-50.5 57 -50.5 168 l0 305 l163 0 l0 -250 q0 -62 17.5 -99.5 q17.5 -37.5 64.5 -37.5 q46 0 71 38 q25 38 25 106 l0 243 l73 0 q48 1 69.5 5 q21.5 4 30 17.5 q8.5 13.5 8.5 42.5 q0 33 -7 64 l134 0 q8 -32 8 -72 Z" /><glyph glyph-name="uni1EEF" unicode="&#x1eef;" d="M101 593 q2 70 38 114.5 q36 44.5 93 44.5 q35 0 56.5 -12.5 q21.5 -12.5 43.5 -34.5 q12 -12 19.5 -17.5 q7.5 -5.5 16.5 -5.5 q26 0 35 54 l106 0 q-2 -71 -37.5 -115 q-35.5 -44 -93.5 -44 q-35 0 -57 12.5 q-22 12.5 -43 33.5 q-12 12 -19.5 17.5 q-7.5 5.5 -16.5 5.5 q-26 0 -35 -53 l-106 0 ZM708 574 q0 -55 -14 -88 q-14 -33 -47.5 -50.5 q-33.5 -17.5 -91.5 -22.5 l0 -413 l-144 0 l-2 22 q-4 45 -7 58 q-51 -93 -162 -93 q-88 0 -138.5 57 q-50.5 57 -50.5 168 l0 305 l163 0 l0 -250 q0 -62 17.5 -99.5 q17.5 -37.5 64.5 -37.5 q46 0 71 38 q25 38 25 106 l0 243 l73 0 q48 1 69.5 5 q21.5 4 30 17.5 q8.5 13.5 8.5 42.5 q0 33 -7 64 l134 0 q8 -32 8 -72 Z" /><glyph glyph-name="uhungarumlaut" unicode="&#x171;" d="M154 579 l93 170 l148 0 l-129 -170 l-112 0 ZM344 579 l93 170 l148 0 l-129 -170 l-112 0 ZM392 517 l163 0 l0 -517 l-144 0 l-2 22 q-4 45 -7 58 q-51 -93 -162 -93 q-88 0 -138.5 57 q-50.5 57 -50.5 168 l0 305 l163 0 l0 -250 q0 -62 17.5 -99.5 q17.5 -37.5 64.5 -37.5 q46 0 71 38 q25 38 25 106 l0 243 Z" /><glyph glyph-name="umacron" unicode="&#x16b;" d="M129 609 l0 104 l352 0 l0 -104 l-352 0 ZM392 517 l163 0 l0 -517 l-144 0 l-2 22 q-4 45 -7 58 q-51 -93 -162 -93 q-88 0 -138.5 57 q-50.5 57 -50.5 168 l0 305 l163 0 l0 -250 q0 -62 17.5 -99.5 q17.5 -37.5 64.5 -37.5 q46 0 71 38 q25 38 25 106 l0 243 Z" /><glyph glyph-name="uogonek" unicode="&#x173;" d="M621 -188 q-28 -28 -60.5 -42 q-32.5 -14 -78.5 -14 q-64 0 -104 29.5 q-40 29.5 -40 86.5 q0 71 73 129 l-2 21 q-4 43 -7 58 q-51 -93 -162 -93 q-88 0 -138.5 57 q-50.5 57 -50.5 168 l0 305 l163 0 l0 -250 q0 -62 17.5 -99.5 q17.5 -37.5 64.5 -37.5 q46 0 71 38 q25 38 25 106 l0 243 l163 0 l0 -517 q-54 -27 -80.5 -53 q-26.5 -26 -26.5 -55 q0 -39 46 -39 q21 0 39.5 8 q18.5 8 38.5 27 l49 -76 Z" /><glyph glyph-name="uring" unicode="&#x16f;" d="M178 691 q0 54 36.5 89 q36.5 35 90.5 35 q54 0 89 -35 q35 -35 35 -89 q0 -55 -35 -90 q-35 -35 -89 -35 q-54 0 -90.5 35 q-36.5 35 -36.5 90 ZM261 691 q0 -20 12.5 -33 q12.5 -13 31.5 -13 q19 0 30.5 12.5 q11.5 12.5 11.5 33.5 q0 21 -11.5 33.5 q-11.5 12.5 -30.5 12.5 q-19 0 -31.5 -13 q-12.5 -13 -12.5 -33 ZM392 517 l163 0 l0 -517 l-144 0 l-2 22 q-4 45 -7 58 q-51 -93 -162 -93 q-88 0 -138.5 57 q-50.5 57 -50.5 168 l0 305 l163 0 l0 -250 q0 -62 17.5 -99.5 q17.5 -37.5 64.5 -37.5 q46 0 71 38 q25 38 25 106 l0 243 Z" /><glyph glyph-name="utilde" unicode="&#x169;" d="M101 593 q2 70 38 114.5 q36 44.5 93 44.5 q35 0 56.5 -12.5 q21.5 -12.5 43.5 -34.5 q12 -12 19.5 -17.5 q7.5 -5.5 16.5 -5.5 q26 0 35 54 l106 0 q-2 -71 -37.5 -115 q-35.5 -44 -93.5 -44 q-35 0 -57 12.5 q-22 12.5 -43 33.5 q-12 12 -19.5 17.5 q-7.5 5.5 -16.5 5.5 q-26 0 -35 -53 l-106 0 ZM392 517 l163 0 l0 -517 l-144 0 l-2 22 q-4 45 -7 58 q-51 -93 -162 -93 q-88 0 -138.5 57 q-50.5 57 -50.5 168 l0 305 l163 0 l0 -250 q0 -62 17.5 -99.5 q17.5 -37.5 64.5 -37.5 q46 0 71 38 q25 38 25 106 l0 243 Z" /><glyph glyph-name="v" unicode="v" d="M182 517 l121 -313 l114 313 l171 0 l-224 -516 l-133 0 l-230 516 l181 0 Z" /><glyph glyph-name="w" unicode="w" d="M495 517 l96 -292 l91 292 l159 0 l-191 -516 l-118 0 l-109 287 l-105 -287 l-119 0 l-198 516 l168 0 l97 -298 l90 298 l139 0 Z" /><glyph glyph-name="wacute" unicode="&#x1e83;" d="M368 579 l93 170 l161 0 l-130 -170 l-124 0 ZM495 517 l96 -292 l91 292 l159 0 l-191 -516 l-118 0 l-109 287 l-105 -287 l-119 0 l-198 516 l168 0 l97 -298 l90 298 l139 0 Z" /><glyph glyph-name="wcircumflex" unicode="&#x175;" d="M380 749 l115 0 l134 -170 l-134 0 l-57 73 l-57 -73 l-135 0 l134 170 ZM495 517 l96 -292 l91 292 l159 0 l-191 -516 l-118 0 l-109 287 l-105 -287 l-119 0 l-198 516 l168 0 l97 -298 l90 298 l139 0 Z" /><glyph glyph-name="wdieresis" unicode="&#x1e85;" d="M321 578 q-34 0 -58 25.5 q-24 25.5 -24 60.5 q0 35 24 60 q24 25 58 25 q36 0 60.5 -25 q24.5 -25 24.5 -60 q0 -35 -24.5 -60.5 q-24.5 -25.5 -60.5 -25.5 ZM554 578 q-35 0 -58.5 25.5 q-23.5 25.5 -23.5 60.5 q0 35 23.5 60 q23.5 25 58.5 25 q35 0 59.5 -25 q24.5 -25 24.5 -60 q0 -35 -24.5 -60.5 q-24.5 -25.5 -59.5 -25.5 ZM495 517 l96 -292 l91 292 l159 0 l-191 -516 l-118 0 l-109 287 l-105 -287 l-119 0 l-198 516 l168 0 l97 -298 l90 298 l139 0 Z" /><glyph glyph-name="wgrave" unicode="&#x1e81;" d="M255 749 l160 0 l94 -170 l-125 0 l-129 170 ZM495 517 l96 -292 l91 292 l159 0 l-191 -516 l-118 0 l-109 287 l-105 -287 l-119 0 l-198 516 l168 0 l97 -298 l90 298 l139 0 Z" /><glyph glyph-name="x" unicode="x" d="M281 380 l97 137 l178 0 l-191 -254 l191 -263 l-185 0 l-96 138 l-96 -138 l-178 0 l190 255 l-190 262 l185 0 l95 -137 Z" /><glyph glyph-name="y" unicode="y" d="M418 517 l172 0 l-229 -574 q-39 -99 -94 -143 q-55 -44 -133 -44 q-40 0 -75 11.5 q-35 11.5 -59 31.5 l63 123 q34 -23 69 -23 q32 0 52 18.5 q20 18.5 45 71.5 l-228 528 l181 0 l125 -329 l111 329 Z" /><glyph glyph-name="yacute" unicode="ý" d="M321 749 l160 0 l-129 -170 l-125 0 l94 170 ZM418 517 l172 0 l-229 -574 q-39 -99 -94 -143 q-55 -44 -133 -44 q-40 0 -75 11.5 q-35 11.5 -59 31.5 l63 123 q34 -23 69 -23 q32 0 52 18.5 q20 18.5 45 71.5 l-228 528 l181 0 l125 -329 l111 329 Z" /><glyph glyph-name="ycircumflex" unicode="&#x177;" d="M354 579 l-56 73 l-58 -73 l-135 0 l135 170 l114 0 l135 -170 l-135 0 ZM418 517 l172 0 l-229 -574 q-39 -99 -94 -143 q-55 -44 -133 -44 q-40 0 -75 11.5 q-35 11.5 -59 31.5 l63 123 q34 -23 69 -23 q32 0 52 18.5 q20 18.5 45 71.5 l-228 528 l181 0 l125 -329 l111 329 Z" /><glyph glyph-name="ydieresis" unicode="ÿ" d="M180 578 q-33 0 -57 25.5 q-24 25.5 -24 60.5 q0 35 23.5 60 q23.5 25 57.5 25 q36 0 60.5 -25 q24.5 -25 24.5 -60 q0 -35 -24.5 -60.5 q-24.5 -25.5 -60.5 -25.5 ZM414 578 q-35 0 -59 25.5 q-24 25.5 -24 60.5 q0 35 24 60 q24 25 59 25 q34 0 58.5 -25 q24.5 -25 24.5 -60 q0 -35 -24.5 -60.5 q-24.5 -25.5 -58.5 -25.5 ZM418 517 l172 0 l-229 -574 q-39 -99 -94 -143 q-55 -44 -133 -44 q-40 0 -75 11.5 q-35 11.5 -59 31.5 l63 123 q34 -23 69 -23 q32 0 52 18.5 q20 18.5 45 71.5 l-228 528 l181 0 l125 -329 l111 329 Z" /><glyph glyph-name="uni1EF5" unicode="&#x1ef5;" d="M418 517 l172 0 l-229 -574 q-39 -99 -94 -143 q-55 -44 -133 -44 q-40 0 -75 11.5 q-35 11.5 -59 31.5 l63 123 q34 -23 69 -23 q32 0 52 18.5 q20 18.5 45 71.5 l-228 528 l181 0 l125 -329 l111 329 ZM491 -52 q38 0 67 -28 q29 -28 29 -65 q0 -38 -28 -65.5 q-28 -27.5 -68 -27.5 q-39 0 -66.5 27.5 q-27.5 27.5 -27.5 65.5 q0 38 27.5 65.5 q27.5 27.5 66.5 27.5 Z" /><glyph glyph-name="ygrave" unicode="&#x1ef3;" d="M275 749 l93 -170 l-124 0 l-130 170 l161 0 ZM418 517 l172 0 l-229 -574 q-39 -99 -94 -143 q-55 -44 -133 -44 q-40 0 -75 11.5 q-35 11.5 -59 31.5 l63 123 q34 -23 69 -23 q32 0 52 18.5 q20 18.5 45 71.5 l-228 528 l181 0 l125 -329 l111 329 Z" /><glyph glyph-name="uni1EF7" unicode="&#x1ef7;" d="M264 699 q-34 0 -78 -27 l-21 82 q22 16 52 24.5 q30 8.5 62 8.5 q60 0 98.5 -26.5 q38.5 -26.5 38.5 -78.5 q0 -90 -127 -130 l-53 70 q33 11 50 23 q17 12 17 27 q0 13 -10.5 20 q-10.5 7 -28.5 7 ZM418 517 l172 0 l-229 -574 q-39 -99 -94 -143 q-55 -44 -133 -44 q-40 0 -75 11.5 q-35 11.5 -59 31.5 l63 123 q34 -23 69 -23 q32 0 52 18.5 q20 18.5 45 71.5 l-228 528 l181 0 l125 -329 l111 329 Z" /><glyph glyph-name="uni1EF9" unicode="&#x1ef9;" d="M234 646 q-25 0 -34 -53 l-106 0 q2 71 37.5 115 q35.5 44 93.5 44 q34 0 55.5 -12.5 q21.5 -12.5 44.5 -34.5 q12 -12 19.5 -17.5 q7.5 -5.5 16.5 -5.5 q25 0 34 54 l107 0 q-2 -71 -38 -115 q-36 -44 -94 -44 q-34 0 -56 12.5 q-22 12.5 -43 33.5 q-12 12 -20 17.5 q-8 5.5 -17 5.5 ZM418 517 l172 0 l-229 -574 q-39 -99 -94 -143 q-55 -44 -133 -44 q-40 0 -75 11.5 q-35 11.5 -59 31.5 l63 123 q34 -23 69 -23 q32 0 52 18.5 q20 18.5 45 71.5 l-228 528 l181 0 l125 -329 l111 329 Z" /><glyph glyph-name="z" unicode="z" d="M449 516 l0 -96 l-216 -292 l233 0 l0 -128 l-441 0 l0 98 l216 290 l-200 0 l0 128 l408 0 Z" /><glyph glyph-name="zacute" unicode="&#x17a;" d="M180 579 l94 170 l160 0 l-129 -170 l-125 0 ZM449 516 l0 -96 l-216 -292 l233 0 l0 -128 l-441 0 l0 98 l216 290 l-193 0 l0 128 l401 0 Z" /><glyph glyph-name="zcaron" unicode="&#x17e;" d="M193 749 l58 -74 l56 74 l135 0 l-135 -170 l-114 0 l-135 170 l135 0 ZM449 516 l0 -96 l-216 -292 l233 0 l0 -128 l-441 0 l0 98 l216 290 l-193 0 l0 128 l401 0 Z" /><glyph glyph-name="zdotaccent" unicode="&#x17c;" d="M251 572 q-39 0 -67 28.5 q-28 28.5 -28 67.5 q0 40 27.5 68.5 q27.5 28.5 67.5 28.5 q38 0 66.5 -29 q28.5 -29 28.5 -68 q0 -39 -28 -67.5 q-28 -28.5 -67 -28.5 ZM449 516 l0 -96 l-216 -292 l233 0 l0 -128 l-441 0 l0 98 l216 290 l-193 0 l0 128 l401 0 Z" /><glyph glyph-name="ordfeminine" unicode="ª" d="M218 737 q88 0 136.5 -52.5 q48.5 -52.5 48.5 -141.5 l0 -213 l-106 0 l-6 42 q-18 -26 -44.5 -39 q-26.5 -13 -65.5 -13 q-65 0 -108.5 33.5 q-43.5 33.5 -43.5 90.5 q0 40 23 70.5 q23 30.5 61 47 q38 16.5 83 16.5 q41 0 81 -15 q-4 37 -22 55.5 q-18 18.5 -48 18.5 q-49 0 -73 -49 l-88 52 q22 45 67 71 q45 26 105 26 ZM203 413 q28 0 51.5 16 q23.5 16 24.5 43 q-36 18 -68 18 q-25 0 -40.5 -11.5 q-15.5 -11.5 -15.5 -28.5 q0 -17 13.5 -27 q13.5 -10 34.5 -10 Z" /><glyph glyph-name="ordmasculine" unicode="º" d="M25 529 q0 63 29 110.5 q29 47.5 77 72.5 q48 25 104 25 q55 0 102.5 -25 q47.5 -25 76 -72.5 q28.5 -47.5 28.5 -110.5 q0 -64 -28.5 -111.5 q-28.5 -47.5 -76 -72.5 q-47.5 -25 -102.5 -25 q-56 0 -104 25 q-48 25 -77 72.5 q-29 47.5 -29 111.5 ZM155 529 q0 -47 22 -74 q22 -27 57 -27 q33 0 55 27.5 q22 27.5 22 73.5 q0 46 -22 73.5 q-22 27.5 -55 27.5 q-35 0 -57 -27.5 q-22 -27.5 -22 -73.5 Z" /><glyph glyph-name="uni207F" unicode="&#x207f;" d="M298 737 q67 0 105.5 -43.5 q38.5 -43.5 38.5 -128.5 l0 -235 l-128 0 l0 192 q0 51 -14 78.5 q-14 27.5 -49 27.5 q-34 0 -52.5 -29 q-18.5 -29 -18.5 -82 l0 -187 l-126 0 l0 397 l111 0 q1 -9 2.5 -28 q1.5 -19 4.5 -33 q38 71 126 71 Z" /><glyph glyph-name="uni0410" unicode="&#x410;" d="M446 732 l297 -732 l-180 0 l-56 148 l-277 0 l-54 -148 l-170 0 l289 732 l151 0 ZM453 291 l-87 228 l-83 -228 l170 0 Z" /><glyph glyph-name="uni0411" unicode="&#x411;" d="M378 447 q131 0 206 -59 q75 -59 75 -165 q0 -106 -74.5 -164.5 q-74.5 -58.5 -206.5 -58.5 l-306 0 l0 732 l526 0 l0 -147 l-355 0 l0 -138 l135 0 ZM368 148 q54 0 84 20 q30 20 30 56 q0 37 -30 57 q-30 20 -84 20 l-125 0 l0 -153 l125 0 Z" /><glyph glyph-name="uni0412" unicode="&#x412;" d="M545 379 q114 -46 114 -166 q0 -100 -75 -156.5 q-75 -56.5 -206 -56.5 l-306 0 l0 732 l281 0 q118 0 194 -53 q76 -53 76 -154 q0 -98 -78 -146 ZM239 585 l0 -144 l100 0 q49 0 78 21 q29 21 29 56 q0 33 -28 50 q-28 17 -79 17 l-100 0 ZM368 148 q54 0 84 19.5 q30 19.5 30 55.5 q0 36 -30.5 56.5 q-30.5 20.5 -84.5 20.5 l-128 0 l0 -152 l129 0 Z" /><glyph glyph-name="uni0413" unicode="&#x413;" d="M72 732 l490 0 l0 -151 l-319 0 l0 -581 l-171 0 l0 732 Z" /><glyph glyph-name="uni0403" unicode="&#x403;" d="M258 794 l94 134 l160 0 l-129 -134 l-125 0 ZM72 732 l490 0 l0 -151 l-319 0 l0 -581 l-171 0 l0 732 Z" /><glyph glyph-name="uni0490" unicode="&#x490;" d="M72 732 l344 0 l22 155 l147 0 l-20 -306 l-322 0 l0 -581 l-171 0 l0 732 Z" /><glyph glyph-name="uni0414" unicode="&#x414;" d="M720 151 l105 0 l-12 -323 l-147 0 l-6 172 l-482 0 l-6 -172 l-147 0 l-12 323 l41 0 q46 0 74 22 q28 22 44 74 q16 52 24 145 l30 340 l494 0 l0 -581 ZM549 151 l0 430 l-169 0 l-19 -210 q-12 -149 -55 -220 l243 0 Z" /><glyph glyph-name="uni0415" unicode="&#x415;" d="M529 295 l-286 0 l0 -147 l331 0 l0 -148 l-502 0 l0 732 l490 0 l0 -147 l-319 0 l0 -144 l286 0 l0 -146 Z" /><glyph glyph-name="uni0400" unicode="&#x400;" d="M110 928 l167 0 l98 -133 l-131 0 l-134 133 ZM529 295 l-286 0 l0 -147 l331 0 l0 -148 l-502 0 l0 732 l490 0 l0 -147 l-319 0 l0 -144 l286 0 l0 -146 Z" /><glyph glyph-name="uni0401" unicode="&#x401;" d="M196 789 q-34 0 -58 20.5 q-24 20.5 -24 49.5 q0 28 24 48.5 q24 20.5 58 20.5 q35 0 59.5 -20.5 q24.5 -20.5 24.5 -48.5 q0 -29 -24 -49.5 q-24 -20.5 -60 -20.5 ZM429 789 q-35 0 -59 21 q-24 21 -24 49 q0 28 24 48.5 q24 20.5 59 20.5 q34 0 59 -20.5 q25 -20.5 25 -48.5 q0 -29 -25 -49.5 q-25 -20.5 -59 -20.5 ZM529 295 l-286 0 l0 -147 l331 0 l0 -148 l-502 0 l0 732 l490 0 l0 -147 l-319 0 l0 -144 l286 0 l0 -146 Z" /><glyph glyph-name="uni0416" unicode="&#x416;" d="M885 373 l238 -373 l-202 0 l-178 290 l-97 0 l0 -290 l-171 0 l0 290 l-97 0 l-177 -290 l-203 0 l238 373 l-227 359 l191 0 l177 -290 l98 0 l0 290 l171 0 l0 -290 l99 0 l177 290 l190 0 l-227 -359 Z" /><glyph glyph-name="uni0417" unicode="&#x417;" d="M450 378 q127 -49 127 -178 q0 -101 -76 -157 q-76 -56 -203 -56 q-110 0 -178 43 q-68 43 -98 129 l134 78 q40 -99 139 -99 q46 0 74 21.5 q28 21.5 28 59.5 q0 43 -38.5 64 q-38.5 21 -116.5 21 l-24 0 l0 138 l40 0 q57 0 86 23 q29 23 29 60 q0 32 -22 51 q-22 19 -62 19 q-89 0 -130 -99 l-128 74 q27 86 97.5 131.5 q70.5 45.5 174.5 45.5 q75 0 132 -26 q57 -26 88 -73 q31 -47 31 -108 q0 -55 -26.5 -96.5 q-26.5 -41.5 -77.5 -65.5 Z" /><glyph glyph-name="uni0418" unicode="&#x418;" d="M560 732 l137 0 l0 -732 l-156 0 l0 455 l-332 -455 l-137 0 l0 732 l156 0 l0 -455 l332 455 Z" /><glyph glyph-name="uni0419" unicode="&#x419;" d="M385 793 q-85 0 -136 36.5 q-51 36.5 -51 98.5 l123 0 q8 -58 64 -58 q59 0 65 58 l123 0 q0 -63 -51 -99 q-51 -36 -137 -36 ZM560 732 l137 0 l0 -732 l-156 0 l0 455 l-332 -455 l-137 0 l0 732 l156 0 l0 -455 l332 455 Z" /><glyph glyph-name="uni040D" unicode="&#x40d;" d="M202 928 l160 0 l94 -134 l-125 0 l-129 134 ZM560 732 l137 0 l0 -732 l-156 0 l0 455 l-332 -455 l-137 0 l0 732 l156 0 l0 -455 l332 455 Z" /><glyph glyph-name="uni041A" unicode="&#x41a;" d="M484 373 l258 -373 l-204 0 l-194 290 l-101 0 l0 -290 l-171 0 l0 732 l171 0 l0 -290 l104 0 l193 290 l192 0 l-248 -359 Z" /><glyph glyph-name="uni040C" unicode="&#x40c;" d="M320 795 l98 133 l167 0 l-134 -133 l-131 0 ZM484 373 l258 -373 l-204 0 l-194 290 l-101 0 l0 -290 l-171 0 l0 732 l171 0 l0 -290 l104 0 l193 290 l192 0 l-248 -359 Z" /><glyph glyph-name="uni041B" unicode="&#x41b;" d="M707 732 l0 -732 l-171 0 l0 581 l-223 0 l-18 -313 q-7 -114 -38.5 -175 q-31.5 -61 -89 -83.5 q-57.5 -22.5 -153.5 -22.5 l0 156 q45 0 68.5 13 q23.5 13 33 43.5 q9.5 30.5 12.5 89.5 l28 443 l551 0 Z" /><glyph glyph-name="uni041C" unicode="&#x41c;" d="M684 732 l129 0 l0 -732 l-162 0 l0 434 l-165 -236 l-87 0 l-167 238 l0 -436 l-160 0 l0 732 l132 0 l241 -353 l239 353 Z" /><glyph glyph-name="uni041D" unicode="&#x41d;" d="M243 455 l302 0 l0 277 l171 0 l0 -732 l-171 0 l0 304 l-302 0 l0 -304 l-171 0 l0 732 l171 0 l0 -277 Z" /><glyph glyph-name="uni041E" unicode="&#x41e;" d="M38 367 q0 116 47.5 202 q47.5 86 129.5 131.5 q82 45.5 181 45.5 q99 0 180.5 -45.5 q81.5 -45.5 129.5 -131.5 q48 -86 48 -202 q0 -117 -48 -203 q-48 -86 -129.5 -131.5 q-81.5 -45.5 -180.5 -45.5 q-100 0 -181.5 45.5 q-81.5 45.5 -129 131.5 q-47.5 86 -47.5 203 ZM218 367 q0 -67 22.5 -118 q22.5 -51 63 -78.5 q40.5 -27.5 92.5 -27.5 q52 0 92 27.5 q40 27.5 62.5 78.5 q22.5 51 22.5 118 q0 66 -22.5 116.5 q-22.5 50.5 -62.5 78 q-40 27.5 -92 27.5 q-52 0 -92.5 -27.5 q-40.5 -27.5 -63 -78 q-22.5 -50.5 -22.5 -116.5 Z" /><glyph glyph-name="uni041F" unicode="&#x41f;" d="M72 732 l637 0 l0 -732 l-171 0 l0 581 l-295 0 l0 -581 l-171 0 l0 732 Z" /><glyph glyph-name="uni0420" unicode="&#x420;" d="M337 732 q92 0 160 -30.5 q68 -30.5 104.5 -86.5 q36.5 -56 36.5 -131 q0 -75 -36.5 -131 q-36.5 -56 -104.5 -86.5 q-68 -30.5 -160 -30.5 l-94 0 l0 -236 l-171 0 l0 732 l265 0 ZM318 380 q62 0 101 24 q39 24 39 80 q0 55 -39.5 79.5 q-39.5 24.5 -100.5 24.5 l-75 0 l0 -208 l75 0 Z" /><glyph glyph-name="uni0421" unicode="&#x421;" d="M393 144 q99 0 144 104 l143 -84 q-16 -48 -55 -88.5 q-39 -40.5 -97.5 -64.5 q-58.5 -24 -130.5 -24 q-99 0 -181 47 q-82 47 -130 133.5 q-48 86.5 -48 199.5 q0 113 48 199 q48 86 130 133 q82 47 181 47 q72 0 130.5 -24 q58.5 -24 97.5 -64.5 q39 -40.5 55 -88.5 l-143 -84 q-45 104 -144 104 q-49 0 -88.5 -26.5 q-39.5 -26.5 -63 -77 q-23.5 -50.5 -23.5 -118.5 q0 -68 23.5 -119 q23.5 -51 63 -77.5 q39.5 -26.5 88.5 -26.5 Z" /><glyph glyph-name="uni0422" unicode="&#x422;" d="M7 732 l612 0 l0 -151 l-220 0 l0 -581 l-172 0 l0 581 l-220 0 l0 151 Z" /><glyph glyph-name="uni0423" unicode="&#x423;" d="M366 386 l154 346 l180 0 l-257 -527 q-35 -72 -67.5 -117.5 q-32.5 -45.5 -80.5 -73 q-48 -27.5 -118 -27.5 q-69 0 -119 28 l0 158 q55 -29 110 -29 q38 0 63 14 q25 14 48 50 l-273 524 l193 0 l167 -346 Z" /><glyph glyph-name="uni040E" unicode="&#x40e;" d="M360 793 q-85 0 -136 36.5 q-51 36.5 -51 98.5 l123 0 q8 -58 64 -58 q59 0 65 58 l123 0 q0 -63 -51 -99 q-51 -36 -137 -36 ZM366 386 l154 346 l180 0 l-257 -527 q-35 -72 -67.5 -117.5 q-32.5 -45.5 -80.5 -73 q-48 -27.5 -118 -27.5 q-69 0 -119 28 l0 158 q55 -29 110 -29 q38 0 63 14 q25 14 48 50 l-273 524 l193 0 l167 -346 Z" /><glyph glyph-name="uni0424" unicode="&#x424;" d="M837 367 q0 -80 -42.5 -142 q-42.5 -62 -115.5 -100 q-73 -38 -163 -51 l0 -74 l-165 0 l0 74 q-92 12 -164.5 50 q-72.5 38 -115 100 q-42.5 62 -42.5 143 q0 80 42.5 142 q42.5 62 115.5 100 q73 38 164 50 l0 73 l165 0 l0 -73 q91 -13 163.5 -51 q72.5 -38 115 -99.5 q42.5 -61.5 42.5 -141.5 ZM206 367 q0 -53 38.5 -87.5 q38.5 -34.5 106.5 -46.5 l0 268 q-68 -12 -106.5 -46.5 q-38.5 -34.5 -38.5 -87.5 ZM516 233 q67 12 105 46.5 q38 34.5 38 87.5 q0 53 -38 87.5 q-38 34.5 -105 46.5 l0 -268 Z" /><glyph glyph-name="uni0425" unicode="&#x425;" d="M725 732 l-256 -355 l269 -377 l-211 0 l-163 238 l-166 -238 l-196 0 l269 373 l-256 359 l209 0 l151 -220 l153 220 l197 0 Z" /><glyph glyph-name="uni0427" unicode="&#x427;" d="M487 732 l171 0 l0 -732 l-171 0 l0 281 q-65 -52 -173 -52 q-128 0 -202.5 68.5 q-74.5 68.5 -74.5 206.5 l0 228 l171 0 l0 -192 q0 -83 31.5 -119 q31.5 -36 101.5 -36 q66 0 106 34.5 q40 34.5 40 121.5 l0 191 Z" /><glyph glyph-name="uni0426" unicode="&#x426;" d="M709 732 l0 -581 l105 0 l-11 -323 l-148 0 l-6 172 l-577 0 l0 732 l171 0 l0 -581 l295 0 l0 581 l171 0 Z" /><glyph glyph-name="uni0428" unicode="&#x428;" d="M614 151 l200 0 l0 581 l170 0 l0 -732 l-912 0 l0 732 l171 0 l0 -581 l200 0 l0 581 l170 0 l1 -581 Z" /><glyph glyph-name="uni0429" unicode="&#x429;" d="M814 732 l170 0 l0 -581 l104 0 l-11 -323 l-148 0 l-6 172 l-851 0 l0 732 l171 0 l0 -581 l200 0 l0 581 l170 0 l1 -581 l200 0 l0 581 Z" /><glyph glyph-name="uni040F" unicode="&#x40f;" d="M243 151 l295 0 l0 581 l171 0 l0 -732 l-238 0 l-6 -172 l-148 0 l-6 172 l-239 0 l0 732 l171 0 l0 -581 Z" /><glyph glyph-name="uni042C" unicode="&#x42c;" d="M378 467 q132 0 206.5 -61 q74.5 -61 74.5 -174 q0 -112 -74.5 -172 q-74.5 -60 -206.5 -60 l-306 0 l0 732 l171 0 l0 -265 l135 0 ZM368 148 q53 0 83.5 23 q30.5 23 30.5 61 q0 40 -30.5 63 q-30.5 23 -83.5 23 l-125 0 l0 -170 l125 0 Z" /><glyph glyph-name="uni042A" unicode="&#x42a;" d="M517 467 q132 0 206.5 -61 q74.5 -61 74.5 -174 q0 -112 -74.5 -172 q-74.5 -60 -206.5 -60 l-307 0 l0 585 l-203 0 l0 147 l374 0 l0 -265 l136 0 ZM506 148 q53 0 83.5 23 q30.5 23 30.5 61 q0 40 -30.5 63 q-30.5 23 -83.5 23 l-125 0 l0 -170 l125 0 Z" /><glyph glyph-name="uni042B" unicode="&#x42b;" d="M378 467 q132 0 206.5 -61 q74.5 -61 74.5 -174 q0 -112 -74.5 -172 q-74.5 -60 -206.5 -60 l-306 0 l0 732 l171 0 l0 -265 l135 0 ZM916 0 l-171 0 l0 732 l171 0 l0 -732 ZM368 148 q53 0 83.5 23 q30.5 23 30.5 61 q0 40 -30.5 63 q-30.5 23 -83.5 23 l-125 0 l0 -170 l125 0 Z" /><glyph glyph-name="uni0409" unicode="&#x409;" d="M843 467 q132 0 206.5 -61 q74.5 -61 74.5 -174 q0 -112 -74.5 -172 q-74.5 -60 -206.5 -60 l-307 0 l0 581 l-223 0 l-18 -314 q-7 -114 -38.5 -174.5 q-31.5 -60.5 -89 -83 q-57.5 -22.5 -153.5 -22.5 l0 156 q45 0 68.5 13 q23.5 13 33 43.5 q9.5 30.5 12.5 89.5 l28 443 l551 0 l0 -265 l136 0 ZM832 148 q53 0 83.5 23 q30.5 23 30.5 61 q0 40 -30.5 63 q-30.5 23 -83.5 23 l-125 0 l0 -170 l125 0 Z" /><glyph glyph-name="uni040A" unicode="&#x40a;" d="M855 455 q133 0 207 -58 q74 -58 74 -170 q0 -112 -74 -169.5 q-74 -57.5 -207 -57.5 l-310 0 l0 304 l-302 0 l0 -304 l-171 0 l0 732 l171 0 l0 -277 l302 0 l0 277 l171 0 l0 -277 l139 0 ZM844 148 q53 0 83.5 21.5 q30.5 21.5 30.5 57.5 q0 37 -30.5 58 q-30.5 21 -83.5 21 l-128 0 l0 -158 l128 0 Z" /><glyph glyph-name="uni0405" unicode="&#x405;" d="M582 215 q0 -81 -42.5 -132 q-42.5 -51 -106.5 -73.5 q-64 -22.5 -131 -22.5 q-101 0 -185 46.5 q-84 46.5 -112 134.5 l138 79 q22 -51 64.5 -79 q42.5 -28 100.5 -28 q43 0 69.5 16.5 q26.5 16.5 26.5 48.5 q0 25 -18 42.5 q-18 17.5 -45.5 28.5 q-27.5 11 -75.5 26 q-71 22 -117 43.5 q-46 21.5 -79 64 q-33 42.5 -33 110.5 q0 75 39.5 126 q39.5 51 103 75.5 q63.5 24.5 136.5 24.5 q96 0 168 -44 q72 -44 93 -125 l-140 -79 q-16 45 -49.5 70 q-33.5 25 -81.5 25 q-41 0 -66.5 -18 q-25.5 -18 -25.5 -48 q0 -33 32.5 -51 q32.5 -18 101.5 -39 q73 -22 120 -44 q47 -22 81 -65 q34 -43 34 -113 Z" /><glyph glyph-name="uni0404" unicode="&#x404;" d="M391 137 q101 0 146 107 l143 -80 q-16 -48 -55 -88.5 q-39 -40.5 -97.5 -64.5 q-58.5 -24 -130.5 -24 q-99 0 -181 47 q-82 47 -130 133.5 q-48 86.5 -48 199.5 q0 113 48 199 q48 86 130 133 q82 47 181 47 q72 0 130.5 -24 q58.5 -24 97.5 -64.5 q39 -40.5 55 -88.5 l-143 -80 q-45 107 -146 107 q-62 0 -107 -39 q-45 -39 -60 -116 l227 0 l0 -139 l-228 0 q13 -81 58.5 -123 q45.5 -42 109.5 -42 Z" /><glyph glyph-name="uni042D" unicode="&#x42d;" d="M310 746 q104 0 182 -46.5 q78 -46.5 120.5 -132 q42.5 -85.5 42.5 -200.5 q0 -115 -42.5 -201 q-42.5 -86 -120.5 -132.5 q-78 -46.5 -182 -46.5 q-76 0 -138 24 q-62 24 -102.5 64.5 q-40.5 40.5 -55.5 88.5 l143 80 q45 -107 154 -107 q65 0 106.5 41 q41.5 41 53.5 124 l-228 0 l0 139 l227 0 q-13 78 -54 116.5 q-41 38.5 -105 38.5 q-109 0 -154 -107 l-143 80 q15 48 55.5 88.5 q40.5 40.5 102.5 64.5 q62 24 138 24 Z" /><glyph glyph-name="uni0406" unicode="&#x406;" d="M243 0 l-171 0 l0 732 l171 0 l0 -732 Z" /><glyph glyph-name="uni0407" unicode="&#x407;" d="M40 789 q-34 0 -58 20.5 q-24 20.5 -24 49.5 q0 28 24 48.5 q24 20.5 58 20.5 q35 0 59.5 -20.5 q24.5 -20.5 24.5 -48.5 q0 -29 -24 -49.5 q-24 -20.5 -60 -20.5 ZM273 789 q-35 0 -59 21 q-24 21 -24 49 q0 28 24 48.5 q24 20.5 59 20.5 q34 0 59 -20.5 q25 -20.5 25 -48.5 q0 -29 -25 -49.5 q-25 -20.5 -59 -20.5 ZM243 0 l-171 0 l0 732 l171 0 l0 -732 Z" /><glyph glyph-name="uni0408" unicode="&#x408;" d="M232 -13 q-87 0 -150 42 q-63 42 -82 129 l143 75 q11 -45 32.5 -67.5 q21.5 -22.5 58.5 -22.5 q46 0 64.5 35.5 q18.5 35.5 18.5 112.5 l0 441 l172 0 l0 -458 q0 -153 -72.5 -220 q-72.5 -67 -184.5 -67 Z" /><glyph glyph-name="uni040B" unicode="&#x40b;" d="M573 454 q128 0 202 -68.5 q74 -68.5 74 -206.5 l0 -179 l-170 0 l0 143 q0 84 -31.5 119.5 q-31.5 35.5 -101.5 35.5 q-66 0 -106.5 -34.5 q-40.5 -34.5 -40.5 -121.5 l0 -142 l-172 0 l0 581 l-220 0 l0 151 l612 0 l0 -151 l-220 0 l0 -178 q66 51 174 51 Z" /><glyph glyph-name="uni042E" unicode="&#x42e;" d="M697 746 q93 0 169.5 -44 q76.5 -44 121 -129.5 q44.5 -85.5 44.5 -205.5 q0 -121 -44.5 -207 q-44.5 -86 -121 -129.5 q-76.5 -43.5 -169.5 -43.5 q-85 0 -156 36.5 q-71 36.5 -117.5 108 q-46.5 71.5 -57.5 172.5 l-123 0 l0 -304 l-171 0 l0 732 l171 0 l0 -277 l127 0 q15 93 61.5 158.5 q46.5 65.5 115 99 q68.5 33.5 150.5 33.5 ZM697 143 q71 0 113 58.5 q42 58.5 42 165.5 q0 105 -42.5 163.5 q-42.5 58.5 -112.5 58.5 q-71 0 -114 -58 q-43 -58 -43 -164 q0 -106 43 -165 q43 -59 114 -59 Z" /><glyph glyph-name="uni042F" unicode="&#x42f;" d="M197 284 q-62 31 -95 84 q-33 53 -33 122 q0 72 36 127 q36 55 103.5 85 q67.5 30 158.5 30 l266 0 l0 -732 l-171 0 l0 248 l-92 0 l-5 0 l-162 -247 l-203 -1 l197 284 ZM387 588 q-137 0 -137 -98 q0 -54 40 -76.5 q40 -22.5 97 -22.5 l75 0 l0 197 l-75 0 Z" /><glyph glyph-name="uni0402" unicode="&#x402;" d="M596 455 q125 0 201.5 -62 q76.5 -62 76.5 -179 q0 -111 -69.5 -169 q-69.5 -58 -192.5 -58 q-29 0 -59 3 l0 145 q9 -1 25 -1 q59 0 89 21 q30 21 30 62 q0 41 -29 64 q-29 23 -89 23 q-74 0 -127 -40 q-53 -40 -53 -135 l0 -129 l-172 0 l0 581 l-220 0 l0 151 l612 0 l0 -151 l-220 0 l0 -185 q77 59 197 59 Z" /><glyph glyph-name="uni0462" unicode="&#x462;" d="M465 433 q134 0 207.5 -53.5 q73.5 -53.5 73.5 -161.5 q0 -109 -73.5 -163.5 q-73.5 -54.5 -207.5 -54.5 l-306 0 l0 516 l-164 0 l0 129 l164 0 l0 87 l170 0 l0 -87 l227 0 l0 -129 l-227 0 l0 -83 l136 0 ZM454 141 q55 0 85 19.5 q30 19.5 30 57.5 q0 39 -30 59.5 q-30 20.5 -85 20.5 l-125 0 l0 -157 l125 0 Z" /><glyph glyph-name="uni0472" unicode="&#x472;" d="M396 746 q98 0 180 -47 q82 -47 130 -133 q48 -86 48 -199 q0 -114 -48 -200.5 q-48 -86.5 -130 -133 q-82 -46.5 -180 -46.5 q-99 0 -180.5 46.5 q-81.5 46.5 -129 133 q-47.5 86.5 -47.5 200.5 q0 113 47.5 199 q47.5 86 129 133 q81.5 47 180.5 47 ZM396 593 q-63 0 -108.5 -41 q-45.5 -41 -61.5 -112 l339 0 q-17 71 -61.5 112 q-44.5 41 -107.5 41 ZM396 139 q64 0 109 42 q45 42 60 115 l-339 0 q16 -73 61 -115 q45 -42 109 -42 Z" /><glyph glyph-name="uni0474" unicode="&#x474;" d="M699 746 q44 0 74.5 -12.5 q30.5 -12.5 57.5 -32.5 l-53 -132 q-28 20 -56 20 q-25 0 -41.5 -16 q-16.5 -16 -33.5 -57 l-210 -516 l-132 0 l-299 732 l195 0 l176 -475 l108 293 q42 112 92.5 154 q50.5 42 121.5 42 Z" /><glyph glyph-name="uni0492" unicode="&#x492;" d="M76 732 l490 0 l0 -149 l-320 0 l0 -160 l126 0 l0 -148 l-126 0 l0 -275 l-170 0 l0 275 l-76 0 l0 148 l76 0 l0 309 Z" /><glyph glyph-name="uni049A" unicode="&#x49a;" d="M732 732 l-248 -359 l155 -222 l126 0 l-12 -323 l-148 0 l-5 172 l-62 0 l-194 290 l-101 0 l0 -290 l-171 0 l0 732 l171 0 l0 -290 l104 0 l193 290 l192 0 Z" /><glyph glyph-name="uni049C" unicode="&#x49c;" d="M538 373 l215 -373 l-190 0 l-159 290 l-21 0 l0 -136 l-110 0 l0 136 l-44 0 l0 -290 l-157 0 l0 732 l157 0 l0 -290 l44 0 l0 136 l110 0 l0 -136 l24 0 l157 290 l178 0 l-204 -359 Z" /><glyph glyph-name="uni04A2" unicode="&#x4a2;" d="M716 732 l0 -581 l105 0 l-12 -323 l-147 0 l-6 172 l-111 0 l0 304 l-302 0 l0 -304 l-171 0 l0 732 l171 0 l0 -277 l302 0 l0 277 l171 0 Z" /><glyph glyph-name="uni04AE" unicode="&#x4ae;" d="M363 446 l153 286 l184 0 l-255 -453 l0 -279 l-172 0 l0 278 l-267 454 l199 0 l158 -286 Z" /><glyph glyph-name="uni04B0" unicode="&#x4b0;" d="M363 446 l153 286 l184 0 l-194 -345 l131 0 l0 -151 l-192 0 l0 -236 l-172 0 l0 236 l-193 0 l0 151 l129 0 l-203 345 l199 0 l158 -286 Z" /><glyph glyph-name="uni04B2" unicode="&#x4b2;" d="M725 732 l-257 -353 l163 -228 l123 0 l-12 -323 l-147 0 l-6 172 l-61 0 l-163 237 l-167 -237 l-196 0 l270 371 l-257 361 l209 0 l150 -219 l154 219 l197 0 Z" /><glyph glyph-name="uni04B8" unicode="&#x4b8;" d="M492 732 l166 0 l0 -732 l-171 0 l0 281 q-36 -30 -82 -40 l0 -137 l-110 0 l0 125 q-120 5 -189 73.5 q-69 68.5 -69 201.5 l0 228 l166 0 l0 -192 q0 -67 22 -103 q22 -36 70 -46 l0 136 l110 0 l0 -137 q43 11 65 46 q22 35 22 105 l0 191 Z" /><glyph glyph-name="uni04BA" unicode="&#x4ba;" d="M243 0 l-171 0 l0 732 l171 0 l0 -281 q65 52 174 52 q128 0 202 -68.5 q74 -68.5 74 -206.5 l0 -228 l-171 0 l0 192 q0 83 -31.5 119 q-31.5 36 -101.5 36 q-66 0 -106 -34.5 q-40 -34.5 -40 -121.5 l0 -191 Z" /><glyph glyph-name="uni04D8" unicode="&#x4d8;" d="M366 746 q98 0 176.5 -42.5 q78.5 -42.5 124 -128.5 q45.5 -86 45.5 -211 q0 -122 -46.5 -207 q-46.5 -85 -126 -127.5 q-79.5 -42.5 -177.5 -42.5 q-96 0 -167.5 40.5 q-71.5 40.5 -110.5 116 q-39 75.5 -39 177.5 q0 50 9 104 l475 0 q-12 81 -54 125 q-42 44 -116 44 q-57 0 -97 -28.5 q-40 -28.5 -71 -82.5 l-127 86 q39 86 120 131.5 q81 45.5 182 45.5 ZM365 138 q136 0 162 141 l-302 0 q2 -73 38.5 -107 q36.5 -34 101.5 -34 Z" /><glyph glyph-name="uni04E8" unicode="&#x4e8;" d="M396 746 q98 0 180 -47 q82 -47 130 -133 q48 -86 48 -199 q0 -114 -48 -200.5 q-48 -86.5 -130 -133 q-82 -46.5 -180 -46.5 q-99 0 -180.5 46.5 q-81.5 46.5 -129 133 q-47.5 86.5 -47.5 200.5 q0 113 47.5 199 q47.5 86 129 133 q81.5 47 180.5 47 ZM396 593 q-63 0 -108.5 -41 q-45.5 -41 -61.5 -112 l339 0 q-17 71 -61.5 112 q-44.5 41 -107.5 41 ZM396 139 q64 0 109 42 q45 42 60 115 l-339 0 q16 -73 61 -115 q45 -42 109 -42 Z" /><glyph glyph-name="uni0430" unicode="&#x430;" d="M287 531 q112 0 173 -62.5 q61 -62.5 61 -176.5 l0 -292 l-137 0 q-5 42 -7 56 q-24 -35 -58 -52 q-34 -17 -86 -17 q-55 0 -100.5 19.5 q-45.5 19.5 -72 56 q-26.5 36.5 -26.5 86.5 q0 52 29.5 91.5 q29.5 39.5 79.5 60.5 q50 21 109 21 q55 0 108 -19 q-7 98 -89 98 q-69 0 -100 -64 l-115 67 q29 59 89.5 93 q60.5 34 141.5 34 ZM360 202 q-39 10 -74 10 q-41 0 -65 -15 q-24 -15 -24 -40 q0 -23 18 -36 q18 -13 46 -13 q38 0 68.5 22 q30.5 22 30.5 59 l0 13 Z" /><glyph glyph-name="uni0431" unicode="&#x431;" d="M334 515 q65 0 117 -31.5 q52 -31.5 82 -90.5 q30 -59 30 -140 q0 -84 -34.5 -144 q-34.5 -60 -94.5 -91 q-60 -31 -135 -31 q-121 0 -195 87 q-74 87 -74 277 q0 111 26.5 197.5 q26.5 86.5 82.5 136.5 q46 40 100 52 q54 12 136 16 q48 2 79 6.5 q31 4.5 53 16.5 l0 -140 q-19 -13 -45 -16 q-26 -3 -73 -4 q-56 -2 -89 -8 q-33 -6 -58 -27 q-36 -32 -47 -113 q58 47 139 47 ZM298 123 q43 0 69 34.5 q26 34.5 26 91.5 q0 58 -26 93.5 q-26 35.5 -69 35.5 q-44 0 -71.5 -36 q-27.5 -36 -27.5 -93 q0 -58 27.5 -92 q27.5 -34 71.5 -34 Z" /><glyph glyph-name="uni0432" unicode="&#x432;" d="M446 266 q41 -15 62.5 -44 q21.5 -29 21.5 -71 q0 -71 -56 -111 q-56 -40 -156 -40 l-259 0 l0 517 l242 0 q91 0 147 -37.5 q56 -37.5 56 -108.5 q0 -72 -58 -105 ZM218 399 l0 -81 l60 0 q63 0 63 42 q0 18 -15.5 28.5 q-15.5 10.5 -47.5 10.5 l-60 0 ZM295 118 q71 0 71 43 q0 20 -17.5 32 q-17.5 12 -53.5 12 l-77 0 l0 -87 l77 0 Z" /><glyph glyph-name="uni0433" unicode="&#x433;" d="M59 517 l391 0 l0 -136 l-228 0 l0 -381 l-163 0 l0 517 Z" /><glyph glyph-name="uni0453" unicode="&#x453;" d="M191 581 l93 170 l161 0 l-130 -170 l-124 0 ZM59 517 l391 0 l0 -136 l-228 0 l0 -381 l-163 0 l0 517 Z" /><glyph glyph-name="uni0491" unicode="&#x491;" d="M59 517 l273 0 l21 130 l140 0 l-20 -266 l-251 0 l0 -381 l-163 0 l0 517 Z" /><glyph glyph-name="uni0434" unicode="&#x434;" d="M567 126 l93 0 l-12 -298 l-140 0 l-6 167 l-337 0 l-6 -167 l-142 0 l-11 298 l40 0 q41 0 63 24 q22 24 32.5 74.5 q10.5 50.5 18.5 147.5 l13 145 l394 0 l0 -391 ZM408 126 l0 260 l-93 0 l-3 -36 q-7 -80 -16.5 -134 q-9.5 -54 -27.5 -90 l140 0 Z" /><glyph glyph-name="uni0435" unicode="&#x435;" d="M297 531 q71 0 125.5 -30.5 q54.5 -30.5 84.5 -87.5 q30 -57 30 -133 q0 -32 -6 -68 l-331 0 q11 -43 38 -66.5 q27 -23.5 66 -23.5 q32 0 57.5 15 q25.5 15 37.5 44 l119 -71 q-22 -59 -83 -91 q-61 -32 -137 -32 q-70 0 -131.5 31 q-61.5 31 -99 93 q-37.5 62 -37.5 150 q0 87 37.5 148 q37.5 61 98.5 91.5 q61 30.5 131 30.5 ZM292 401 q-34 0 -57.5 -20.5 q-23.5 -20.5 -34.5 -57.5 l172 0 q-4 38 -26 58 q-22 20 -54 20 Z" /><glyph glyph-name="uni0450" unicode="&#x450;" d="M108 749 l160 0 l94 -170 l-125 0 l-129 170 ZM297 531 q71 0 125.5 -30.5 q54.5 -30.5 84.5 -87.5 q30 -57 30 -133 q0 -32 -6 -68 l-331 0 q11 -43 38 -66.5 q27 -23.5 66 -23.5 q32 0 57.5 15 q25.5 15 37.5 44 l119 -71 q-22 -59 -83 -91 q-61 -32 -137 -32 q-70 0 -131.5 31 q-61.5 31 -99 93 q-37.5 62 -37.5 150 q0 87 37.5 148 q37.5 61 98.5 91.5 q61 30.5 131 30.5 ZM292 401 q-34 0 -57.5 -20.5 q-23.5 -20.5 -34.5 -57.5 l172 0 q-4 38 -26 58 q-22 20 -54 20 Z" /><glyph glyph-name="uni0451" unicode="&#x451;" d="M174 578 q-34 0 -58 25.5 q-24 25.5 -24 60.5 q0 35 24 60 q24 25 58 25 q36 0 60.5 -25 q24.5 -25 24.5 -60 q0 -36 -24.5 -61 q-24.5 -25 -60.5 -25 ZM407 578 q-35 0 -58.5 25.5 q-23.5 25.5 -23.5 60.5 q0 35 23.5 60 q23.5 25 58.5 25 q35 0 59.5 -25 q24.5 -25 24.5 -60 q0 -35 -24.5 -60.5 q-24.5 -25.5 -59.5 -25.5 ZM297 531 q71 0 125.5 -30.5 q54.5 -30.5 84.5 -87.5 q30 -57 30 -133 q0 -32 -6 -68 l-331 0 q11 -43 38 -66.5 q27 -23.5 66 -23.5 q32 0 57.5 15 q25.5 15 37.5 44 l119 -71 q-22 -59 -83 -91 q-61 -32 -137 -32 q-70 0 -131.5 31 q-61.5 31 -99 93 q-37.5 62 -37.5 150 q0 87 37.5 148 q37.5 61 98.5 91.5 q61 30.5 131 30.5 ZM292 401 q-34 0 -57.5 -20.5 q-23.5 -20.5 -34.5 -57.5 l172 0 q-4 38 -26 58 q-22 20 -54 20 Z" /><glyph glyph-name="uni0436" unicode="&#x436;" d="M571 326 l126 191 l172 0 l-170 -248 l171 -269 l-184 0 l-116 190 l-53 0 l0 -190 l-163 0 l0 190 l-53 0 l-117 -190 l-184 0 l171 269 l-170 248 l172 0 l126 -191 l55 0 l0 191 l163 0 l0 -191 l54 0 Z" /><glyph glyph-name="uni0437" unicode="&#x437;" d="M350 270 q57 -17 88 -52 q31 -35 31 -80 q0 -44 -28 -78 q-28 -34 -80 -53.5 q-52 -19.5 -122 -19.5 q-90 0 -153.5 31.5 q-63.5 31.5 -93.5 92.5 l111 66 q18 -30 47 -44 q29 -14 72 -14 q33 0 56 9 q23 9 23 28 q0 42 -111 42 l-39 0 l0 125 l41 0 q49 0 70 9.5 q21 9.5 21 28.5 q0 18 -16 28 q-16 10 -46 10 q-63 0 -92 -44 l-120 73 q27 47 85 75 q58 28 138 28 q101 0 160.5 -41 q59.5 -41 59.5 -108 q0 -82 -102 -112 Z" /><glyph glyph-name="uni0438" unicode="&#x438;" d="M216 517 l0 -283 l224 283 l130 0 l0 -517 l-156 0 l0 284 l-225 -284 l-130 0 l0 517 l157 0 Z" /><glyph glyph-name="uni0439" unicode="&#x439;" d="M315 579 q-84 0 -135.5 46 q-51.5 46 -51.5 124 l123 0 q6 -74 64 -74 q58 0 66 74 l122 0 q0 -78 -51 -124 q-51 -46 -137 -46 ZM216 517 l0 -283 l224 283 l130 0 l0 -517 l-156 0 l0 284 l-225 -284 l-130 0 l0 517 l157 0 Z" /><glyph glyph-name="uni045D" unicode="&#x45d;" d="M132 749 l160 0 l94 -170 l-125 0 l-129 170 ZM216 517 l0 -283 l224 283 l130 0 l0 -517 l-156 0 l0 284 l-225 -284 l-130 0 l0 517 l157 0 Z" /><glyph glyph-name="uni043A" unicode="&#x43a;" d="M279 326 l135 191 l174 0 l-182 -248 l183 -269 l-186 0 l-126 190 l-55 0 l0 -190 l-163 0 l0 517 l163 0 l0 -191 l57 0 Z" /><glyph glyph-name="uni045C" unicode="&#x45c;" d="M245 579 l93 170 l161 0 l-130 -170 l-124 0 ZM279 326 l135 191 l174 0 l-182 -248 l183 -269 l-186 0 l-126 190 l-55 0 l0 -190 l-163 0 l0 517 l163 0 l0 -191 l57 0 Z" /><glyph glyph-name="uni043B" unicode="&#x43b;" d="M553 517 l0 -517 l-163 0 l0 380 l-119 0 l-8 -138 q-7 -104 -32.5 -158.5 q-25.5 -54.5 -76 -75.5 q-50.5 -21 -139.5 -21 l0 156 q37 0 56.5 12 q19.5 12 28 37 q8.5 25 11.5 71 l15 254 l427 0 Z" /><glyph glyph-name="uni043C" unicode="&#x43c;" d="M528 517 l128 0 l0 -517 l-147 0 l0 269 l-120 -173 l-62 0 l-121 166 l0 -262 l-147 0 l0 517 l127 0 l173 -243 l169 243 Z" /><glyph glyph-name="uni043D" unicode="&#x43d;" d="M222 331 l174 0 l0 186 l163 0 l0 -517 l-163 0 l0 195 l-174 0 l0 -195 l-163 0 l0 517 l163 0 l0 -186 Z" /><glyph glyph-name="uni043E" unicode="&#x43e;" d="M30 259 q0 82 37.5 144 q37.5 62 100.5 95 q63 33 135 33 q72 0 134.5 -33 q62.5 -33 99.5 -95 q37 -62 37 -144 q0 -83 -37 -144.5 q-37 -61.5 -99 -94.5 q-62 -33 -135 -33 q-73 0 -135.5 33 q-62.5 33 -100 94.5 q-37.5 61.5 -37.5 144.5 ZM198 259 q0 -61 29.5 -96.5 q29.5 -35.5 74.5 -35.5 q44 0 73.5 35.5 q29.5 35.5 29.5 96.5 q0 61 -29.5 97 q-29.5 36 -73.5 36 q-45 0 -74.5 -36 q-29.5 -36 -29.5 -97 Z" /><glyph glyph-name="uni043F" unicode="&#x43f;" d="M59 517 l500 0 l0 -517 l-163 0 l0 381 l-174 0 l0 -381 l-163 0 l0 517 Z" /><glyph glyph-name="uni0440" unicode="&#x440;" d="M375 531 q64 0 117.5 -32 q53.5 -32 85 -93.5 q31.5 -61.5 31.5 -146.5 q0 -84 -31.5 -145.5 q-31.5 -61.5 -85 -94 q-53.5 -32.5 -117.5 -32.5 q-98 0 -153 71 l0 -290 l-163 0 l0 749 l145 0 q4 -56 7 -73 q28 44 70 65.5 q42 21.5 94 21.5 ZM333 130 q48 0 78 34.5 q30 34.5 30 94.5 q0 61 -30 98 q-30 37 -78 37 q-47 0 -79 -35 q-32 -35 -32 -100 q0 -65 31.5 -97 q31.5 -32 79.5 -32 Z" /><glyph glyph-name="uni0441" unicode="&#x441;" d="M299 128 q30 0 50.5 13.5 q20.5 13.5 36.5 39.5 l123 -71 q-24 -60 -81 -91.5 q-57 -31.5 -129 -31.5 q-69 0 -130.5 30.5 q-61.5 30.5 -100 92 q-38.5 61.5 -38.5 149.5 q0 88 38.5 149.5 q38.5 61.5 100 92 q61.5 30.5 130.5 30.5 q72 0 129 -31.5 q57 -31.5 81 -90.5 l-123 -72 q-17 26 -37.5 40 q-20.5 14 -49.5 14 q-46 0 -73.5 -36.5 q-27.5 -36.5 -27.5 -95.5 q0 -59 27.5 -95 q27.5 -36 73.5 -36 Z" /><glyph glyph-name="uni0442" unicode="&#x442;" d="M5 381 l0 136 l497 0 l0 -136 l-168 0 l0 -381 l-163 0 l0 381 l-166 0 Z" /><glyph glyph-name="uni0443" unicode="&#x443;" d="M418 517 l172 0 l-229 -574 q-39 -99 -94 -143 q-55 -44 -133 -44 q-40 0 -75 11.5 q-35 11.5 -59 31.5 l63 123 q34 -23 69 -23 q32 0 52 18.5 q20 18.5 45 71.5 l-228 528 l181 0 l125 -329 l111 329 Z" /><glyph glyph-name="uni045E" unicode="&#x45e;" d="M298 579 q-85 0 -136 46 q-51 46 -51 124 l122 0 q8 -74 65 -74 q59 0 65 74 l123 0 q0 -78 -51.5 -124 q-51.5 -46 -136.5 -46 ZM418 517 l172 0 l-229 -574 q-39 -99 -94 -143 q-55 -44 -133 -44 q-40 0 -75 11.5 q-35 11.5 -59 31.5 l63 123 q34 -23 69 -23 q32 0 52 18.5 q20 18.5 45 71.5 l-228 528 l181 0 l125 -329 l111 329 Z" /><glyph glyph-name="uni0444" unicode="&#x444;" d="M764 259 q0 -113 -80.5 -181.5 q-80.5 -68.5 -207.5 -85.5 l0 -224 l-156 0 l0 224 q-128 17 -209 85 q-81 68 -81 182 q0 113 81.5 181.5 q81.5 68.5 209.5 85.5 l0 177 l156 0 l0 -177 q127 -17 207 -85.5 q80 -68.5 80 -181.5 ZM196 259 q0 -49 33.5 -80.5 q33.5 -31.5 90.5 -43.5 l1 248 q-58 -12 -91.5 -43.5 q-33.5 -31.5 -33.5 -80.5 ZM476 135 q56 12 88.5 43.5 q32.5 31.5 32.5 80.5 q0 49 -32.5 80.5 q-32.5 31.5 -87.5 43.5 l-1 -248 Z" /><glyph glyph-name="uni0445" unicode="&#x445;" d="M281 380 l97 137 l178 0 l-191 -254 l191 -263 l-185 0 l-96 138 l-96 -138 l-178 0 l190 255 l-190 262 l185 0 l95 -137 Z" /><glyph glyph-name="uni0447" unicode="&#x447;" d="M382 517 l163 0 l0 -517 l-163 0 l0 172 q-48 -44 -133 -44 q-91 0 -147 47 q-56 47 -56 135 l0 207 l165 0 l0 -152 q0 -94 83 -94 q43 0 65.5 25.5 q22.5 25.5 22.5 72.5 l0 148 Z" /><glyph glyph-name="uni0446" unicode="&#x446;" d="M559 517 l0 -381 l100 0 l-12 -308 l-140 0 l-7 172 l-441 0 l0 517 l163 0 l0 -381 l174 0 l0 381 l163 0 Z" /><glyph glyph-name="uni0448" unicode="&#x448;" d="M500 136 l125 0 l0 381 l158 0 l0 -517 l-724 0 l0 517 l158 0 l0 -381 l125 0 l0 381 l158 0 l0 -381 Z" /><glyph glyph-name="uni0449" unicode="&#x449;" d="M783 517 l0 -381 l100 0 l-11 -308 l-140 0 l-7 172 l-666 0 l0 517 l158 0 l0 -381 l125 0 l0 381 l158 0 l0 -381 l125 0 l0 381 l158 0 Z" /><glyph glyph-name="uni045F" unicode="&#x45f;" d="M222 136 l174 0 l0 381 l163 0 l0 -517 l-174 0 l-6 -172 l-141 0 l-6 172 l-173 0 l0 517 l163 0 l0 -381 Z" /><glyph glyph-name="uni044C" unicode="&#x44c;" d="M327 350 q106 0 163 -45 q57 -45 57 -129 q0 -85 -57.5 -130.5 q-57.5 -45.5 -162.5 -45.5 l-268 0 l0 517 l170 0 l0 -167 l98 0 ZM300 126 q78 0 78 50 q0 49 -78 49 l-71 0 l0 -99 l71 0 Z" /><glyph glyph-name="uni044A" unicode="&#x44a;" d="M450 350 q106 0 163 -45 q57 -45 57 -129 q0 -85 -57.5 -130.5 q-57.5 -45.5 -162.5 -45.5 l-268 0 l0 381 l-172 0 l0 136 l342 0 l0 -167 l98 0 ZM422 126 q79 0 79 50 q0 49 -79 49 l-70 0 l0 -99 l70 0 Z" /><glyph glyph-name="uni044B" unicode="&#x44b;" d="M327 350 q106 0 163 -45 q57 -45 57 -129 q0 -85 -57.5 -130.5 q-57.5 -45.5 -162.5 -45.5 l-268 0 l0 517 l170 0 l0 -167 l98 0 ZM789 0 l-170 0 l0 517 l170 0 l0 -517 ZM300 126 q78 0 78 50 q0 49 -78 49 l-71 0 l0 -99 l71 0 Z" /><glyph glyph-name="uni0459" unicode="&#x459;" d="M651 350 q106 0 163 -45 q57 -45 57 -129 q0 -85 -57.5 -130.5 q-57.5 -45.5 -162.5 -45.5 l-261 0 l0 380 l-119 0 l-8 -138 q-7 -104 -32.5 -158.5 q-25.5 -54.5 -76 -75.5 q-50.5 -21 -139.5 -21 l0 156 q37 0 56.5 12 q19.5 12 28 37 q8.5 25 11.5 71 l15 254 l427 0 l0 -167 l98 0 ZM623 126 q79 0 79 50 q0 49 -79 49 l-70 0 l0 -99 l70 0 Z" /><glyph glyph-name="uni045A" unicode="&#x45a;" d="M656 344 q106 0 163 -44 q57 -44 57 -128 q0 -84 -57 -128 q-57 -44 -163 -44 l-260 0 l0 208 l-174 0 l0 -208 l-163 0 l0 517 l163 0 l0 -173 l174 0 l0 173 l163 0 l0 -173 l97 0 ZM629 124 q78 0 78 48 q0 23 -18.5 35.5 q-18.5 12.5 -59.5 12.5 l-70 0 l0 -96 l70 0 Z" /><glyph glyph-name="uni0455" unicode="&#x455;" d="M459 156 q0 -80 -62.5 -124.5 q-62.5 -44.5 -160.5 -44.5 q-84 0 -146 36 q-62 36 -85 99 l118 69 q13 -35 43.5 -54.5 q30.5 -19.5 70.5 -19.5 q25 0 40 8.5 q15 8.5 15 24.5 q0 19 -21.5 30 q-21.5 11 -70.5 26 q-53 15 -87.5 30 q-34.5 15 -59.5 44.5 q-25 29.5 -25 76.5 q0 54 30 93.5 q30 39.5 80 60 q50 20.5 109 20.5 q82 0 138 -35 q56 -35 71 -92 l-118 -66 q-29 63 -92 63 q-24 0 -37.5 -9.5 q-13.5 -9.5 -13.5 -24.5 q0 -19 20.5 -29 q20.5 -10 67.5 -24 q52 -14 88 -30 q36 -16 62 -47 q26 -31 26 -81 Z" /><glyph glyph-name="uni0454" unicode="&#x454;" d="M299 118 q32 0 54.5 15 q22.5 15 39.5 42 l116 -65 q-21 -59 -79 -91 q-58 -32 -127 -32 q-71 0 -133 30.5 q-62 30.5 -101 92 q-39 61.5 -39 149.5 q0 88 39 149.5 q39 61.5 101 92 q62 30.5 133 30.5 q68 0 126 -32 q58 -32 80 -90 l-116 -66 q-37 58 -94 58 q-36 0 -61.5 -21 q-25.5 -21 -37.5 -58 l147 0 l0 -121 l-148 0 q11 -39 37 -61 q26 -22 63 -22 Z" /><glyph glyph-name="uni044D" unicode="&#x44d;" d="M210 531 q75 0 135 -30 q60 -30 95 -91.5 q35 -61.5 35 -150.5 q0 -89 -35 -150.5 q-35 -61.5 -95 -91.5 q-60 -30 -135 -30 q-73 0 -132.5 32 q-59.5 32 -80.5 91 l116 65 q16 -27 39.5 -42 q23.5 -15 57.5 -15 q38 0 62.5 21.5 q24.5 21.5 34.5 61.5 l-149 0 l0 121 l148 0 q-11 38 -35 58.5 q-24 20.5 -61 20.5 q-62 0 -97 -58 l-116 66 q21 58 80.5 90 q59.5 32 132.5 32 Z" /><glyph glyph-name="uni0456" unicode="&#x456;" d="M140 572 q-39 0 -67 28.5 q-28 28.5 -28 67.5 q0 40 27.5 68.5 q27.5 28.5 67.5 28.5 q38 0 66.5 -29 q28.5 -29 28.5 -68 q0 -39 -28 -67.5 q-28 -28.5 -67 -28.5 ZM222 0 l-163 0 l0 517 l163 0 l0 -517 Z" /><glyph glyph-name="uni0457" unicode="&#x457;" d="M43 578 q-34 0 -58 25.5 q-24 25.5 -24 60.5 q0 35 24 60 q24 25 58 25 q36 0 60 -25 q24 -25 24 -60 q0 -35 -24.5 -60.5 q-24.5 -25.5 -59.5 -25.5 ZM227 578 q-35 0 -59 26 q-24 26 -24 60 q0 35 24 60 q24 25 59 25 q34 0 59 -25 q25 -25 25 -60 q0 -35 -25 -60.5 q-25 -25.5 -59 -25.5 ZM217 0 l-163 0 l0 517 l163 0 l0 -517 Z" /><glyph glyph-name="uni0458" unicode="&#x458;" d="M139 572 q-38 0 -65.5 28.5 q-27.5 28.5 -27.5 67.5 q0 40 27.5 68.5 q27.5 28.5 65.5 28.5 q39 0 67.5 -28.5 q28.5 -28.5 28.5 -68.5 q0 -39 -28.5 -67.5 q-28.5 -28.5 -67.5 -28.5 ZM1 -244 q-47 0 -90.5 15.5 q-43.5 15.5 -72.5 46.5 l87 109 q25 -32 61 -32 q39 0 56 30 q17 30 17 91 l0 501 l163 0 l0 -517 q0 -81 -30.5 -136 q-30.5 -55 -80.5 -81.5 q-50 -26.5 -110 -26.5 Z" /><glyph glyph-name="uni045B" unicode="&#x45b;" d="M392 531 q87 0 137 -57 q50 -57 50 -168 l0 -306 l-165 0 l0 251 q0 66 -18.5 101.5 q-18.5 35.5 -63.5 35.5 q-45 0 -70 -38 q-25 -38 -25 -106 l0 -244 l-163 0 l0 566 l-73 0 l0 111 l73 0 l0 84 l163 0 l0 -84 l133 0 l0 -111 l-133 0 l0 -113 q50 78 155 78 Z" /></font>
</defs>
</svg>
