<?xml version="1.0" standalone="no"?><!DOCTYPE svg PUBLIC "-//W3C//DTD SVG 1.1//EN" "http://www.w3.org/Graphics/SVG/1.1/DTD/svg11.dtd" ><svg xmlns="http://www.w3.org/2000/svg"><metadata></metadata><defs><font id="HarmonyOS Sans Bold Version 1.0" horiz-adv-x="1612"><font-face font-family="HarmonyOS Sans" font-weight="700" font-stretch="normal" units-per-em="1000" panose-1="0 0 8 0 0 0 0 0 0 0" ascent="928" descent="-244" x-height="0" bbox="-572 -271 1536 1056" underline-thickness="50" underline-position="-75" unicode-range="U+0000-30fb" /><missing-glyph horiz-adv-x="1000"  /><glyph glyph-name="null" unicode="" d="" /><glyph glyph-name="space" unicode=" " d="" /><glyph glyph-name="A" unicode="A" d="M420 732 l296 -732 l-154 0 l-64 167 l-285 0 l-62 -167 l-145 0 l287 732 l127 0 ZM451 291 l-98 257 l-95 -257 l193 0 Z" /><glyph glyph-name="Aacute" unicode="Á" d="M316 800 l93 128 l144 0 l-124 -128 l-113 0 ZM420 732 l296 -732 l-154 0 l-64 167 l-285 0 l-62 -167 l-145 0 l287 732 l127 0 ZM451 291 l-98 257 l-95 -257 l193 0 Z" /><glyph glyph-name="Abreve" unicode="&#x102;" d="M367 799 q-80 0 -127.5 34.5 q-47.5 34.5 -47.5 94.5 l108 0 q3 -29 20 -45 q17 -16 47 -16 q61 0 69 61 l108 0 q0 -60 -47.5 -94.5 q-47.5 -34.5 -129.5 -34.5 ZM420 732 l296 -732 l-154 0 l-64 167 l-285 0 l-62 -167 l-145 0 l287 732 l127 0 ZM451 291 l-98 257 l-95 -257 l193 0 Z" /><glyph glyph-name="uni1EAE" unicode="&#x1eae;" d="M316 864 l93 64 l144 0 l-124 -64 l-113 0 ZM367 779 q-80 0 -127.5 17.5 q-47.5 17.5 -47.5 47.5 l108 0 q6 -22 67 -22 q61 0 69 22 l108 0 q0 -30 -47.5 -47.5 q-47.5 -17.5 -129.5 -17.5 ZM420 732 l296 -732 l-154 0 l-64 167 l-285 0 l-62 -167 l-145 0 l287 732 l127 0 ZM451 291 l-98 257 l-95 -257 l193 0 Z" /><glyph glyph-name="uni1EB6" unicode="&#x1eb6;" d="M367 799 q-80 0 -127.5 34.5 q-47.5 34.5 -47.5 94.5 l108 0 q3 -29 20 -45 q17 -16 47 -16 q61 0 69 61 l108 0 q0 -60 -47.5 -94.5 q-47.5 -34.5 -129.5 -34.5 ZM420 732 l296 -732 l-154 0 l-64 167 l-285 0 l-62 -167 l-145 0 l287 732 l127 0 ZM451 291 l-98 257 l-95 -257 l193 0 ZM367 -222 q-34 0 -58 24.5 q-24 24.5 -24 57.5 q0 33 24 57 q24 24 58 24 q34 0 58.5 -24 q24.5 -24 24.5 -57 q0 -33 -24.5 -57.5 q-24.5 -24.5 -58.5 -24.5 Z" /><glyph glyph-name="uni1EB0" unicode="&#x1eb0;" d="M182 928 l144 0 l93 -64 l-113 0 l-124 64 ZM367 779 q-80 0 -127.5 17.5 q-47.5 17.5 -47.5 47.5 l108 0 q6 -22 67 -22 q61 0 69 22 l108 0 q0 -30 -47.5 -47.5 q-47.5 -17.5 -129.5 -17.5 ZM420 732 l296 -732 l-154 0 l-64 167 l-285 0 l-62 -167 l-145 0 l287 732 l127 0 ZM451 291 l-98 257 l-95 -257 l193 0 Z" /><glyph glyph-name="uni1EB2" unicode="&#x1eb2;" d="M248 916 q42 11 103 11 q56 0 91 -9 q35 -9 35 -27 q0 -33 -117 -47 l-45 26 q68 5 68 13 q0 8 -43 8 q-35 0 -74 -6 l-18 31 ZM367 779 q-80 0 -127.5 16.5 q-47.5 16.5 -47.5 44.5 l108 0 q6 -20 67 -20 q61 0 69 20 l108 0 q0 -28 -47.5 -44.5 q-47.5 -16.5 -129.5 -16.5 ZM420 732 l296 -732 l-154 0 l-64 167 l-285 0 l-62 -167 l-145 0 l287 732 l127 0 ZM451 291 l-98 257 l-95 -257 l193 0 Z" /><glyph glyph-name="uni1EB4" unicode="&#x1eb4;" d="M176 869 q2 26 35.5 42.5 q33.5 16.5 86.5 16.5 q32 0 52 -4 q20 -4 42 -12 q26 -8 37 -8 q27 0 35 18 l95 0 q-2 -26 -35 -42.5 q-33 -16.5 -87 -16.5 q-32 0 -52 4 q-20 4 -42 12 q-26 8 -37 8 q-27 0 -35 -18 l-95 0 ZM367 779 q-80 0 -127.5 17.5 q-47.5 17.5 -47.5 47.5 l108 0 q6 -22 67 -22 q61 0 69 22 l108 0 q0 -30 -47.5 -47.5 q-47.5 -17.5 -129.5 -17.5 ZM420 732 l296 -732 l-154 0 l-64 167 l-285 0 l-62 -167 l-145 0 l287 732 l127 0 ZM451 291 l-98 257 l-95 -257 l193 0 Z" /><glyph glyph-name="uni01CD" unicode="&#x1cd;" d="M302 928 l65 -65 l65 65 l122 0 l-133 -129 l-108 0 l-133 129 l122 0 ZM420 732 l296 -732 l-154 0 l-64 167 l-285 0 l-62 -167 l-145 0 l287 732 l127 0 ZM451 291 l-98 257 l-95 -257 l193 0 Z" /><glyph glyph-name="Acircumflex" unicode="Â" d="M313 928 l108 0 l133 -129 l-122 0 l-65 66 l-65 -66 l-122 0 l133 129 ZM420 732 l296 -732 l-154 0 l-64 167 l-285 0 l-62 -167 l-145 0 l287 732 l127 0 ZM451 291 l-98 257 l-95 -257 l193 0 Z" /><glyph glyph-name="uni1EA4" unicode="&#x1ea4;" d="M452 859 l93 69 l144 0 l-123 -69 l-114 0 ZM313 848 l108 0 l133 -69 l-130 0 l-57 29 l-57 -29 l-130 0 l133 69 ZM420 732 l296 -732 l-154 0 l-64 167 l-285 0 l-62 -167 l-145 0 l287 732 l127 0 ZM451 291 l-98 257 l-95 -257 l193 0 Z" /><glyph glyph-name="uni1EAC" unicode="&#x1eac;" d="M313 928 l108 0 l133 -129 l-122 0 l-65 66 l-65 -66 l-122 0 l133 129 ZM420 732 l296 -732 l-154 0 l-64 167 l-285 0 l-62 -167 l-145 0 l287 732 l127 0 ZM451 291 l-98 257 l-95 -257 l193 0 ZM367 -222 q-34 0 -58 24.5 q-24 24.5 -24 57.5 q0 33 24 57 q24 24 58 24 q34 0 58.5 -24 q24.5 -24 24.5 -57 q0 -33 -24.5 -57.5 q-24.5 -24.5 -58.5 -24.5 Z" /><glyph glyph-name="uni1EA6" unicode="&#x1ea6;" d="M319 928 l144 0 l93 -69 l-114 0 l-123 69 ZM313 848 l108 0 l133 -69 l-126 0 l-61 31 l-61 -31 l-126 0 l133 69 ZM420 732 l296 -732 l-154 0 l-64 167 l-285 0 l-62 -167 l-145 0 l287 732 l127 0 ZM451 291 l-98 257 l-95 -257 l193 0 Z" /><glyph glyph-name="uni1EA8" unicode="&#x1ea8;" d="M385 916 q45 12 102 12 q56 0 91.5 -10 q35.5 -10 35.5 -30 q0 -19 -31.5 -30.5 q-31.5 -11.5 -85.5 -19.5 l-45 27 q68 7 68 15 q0 4 -12 6.5 q-12 2.5 -31 2.5 q-39 0 -75 -7 l-17 34 ZM313 846 l108 0 l133 -67 l-130 0 l-57 28 l-57 -28 l-130 0 l133 67 ZM420 732 l296 -732 l-154 0 l-64 167 l-285 0 l-62 -167 l-145 0 l287 732 l127 0 ZM451 291 l-98 257 l-95 -257 l193 0 Z" /><glyph glyph-name="uni1EAA" unicode="&#x1eaa;" d="M176 866 q2 28 35 45 q33 17 87 17 q32 0 52 -4 q20 -4 42 -12 q23 -9 37 -9 q27 0 35 19 l95 0 q-2 -28 -35 -45 q-33 -17 -87 -17 q-32 0 -52 4 q-20 4 -42 12 q-23 9 -37 9 q-27 0 -35 -19 l-95 0 ZM313 847 l108 0 l133 -68 l-130 0 l-57 28 l-57 -28 l-130 0 l133 68 ZM420 732 l296 -732 l-154 0 l-64 167 l-285 0 l-62 -167 l-145 0 l287 732 l127 0 ZM451 291 l-98 257 l-95 -257 l193 0 Z" /><glyph glyph-name="Adieresis" unicode="Ä" d="M254 774 q-31 0 -52.5 22.5 q-21.5 22.5 -21.5 54.5 q0 32 21.5 54.5 q21.5 22.5 52.5 22.5 q32 0 54 -22.5 q22 -22.5 22 -54.5 q0 -32 -22 -54.5 q-22 -22.5 -54 -22.5 ZM479 774 q-31 0 -53 23 q-22 23 -22 54 q0 32 22 54.5 q22 22.5 53 22.5 q31 0 53 -22.5 q22 -22.5 22 -54.5 q0 -32 -22 -54.5 q-22 -22.5 -53 -22.5 ZM420 732 l296 -732 l-154 0 l-64 167 l-285 0 l-62 -167 l-145 0 l287 732 l127 0 ZM451 291 l-98 257 l-95 -257 l193 0 Z" /><glyph glyph-name="uni1EA0" unicode="&#x1ea0;" d="M420 732 l296 -732 l-154 0 l-64 167 l-285 0 l-62 -167 l-145 0 l287 732 l127 0 ZM451 291 l-98 257 l-95 -257 l193 0 ZM367 -222 q-34 0 -58 24.5 q-24 24.5 -24 57.5 q0 33 24 57 q24 24 58 24 q34 0 58.5 -24 q24.5 -24 24.5 -57 q0 -33 -24.5 -57.5 q-24.5 -24.5 -58.5 -24.5 Z" /><glyph glyph-name="Agrave" unicode="À" d="M182 928 l144 0 l93 -128 l-113 0 l-124 128 ZM420 732 l296 -732 l-154 0 l-64 167 l-285 0 l-62 -167 l-145 0 l287 732 l127 0 ZM451 291 l-98 257 l-95 -257 l193 0 Z" /><glyph glyph-name="uni1EA2" unicode="&#x1ea2;" d="M248 908 q42 20 103 20 q55 0 90.5 -17 q35.5 -17 35.5 -52 q0 -61 -117 -86 l-48 46 q65 15 65 33 q0 9 -11 14 q-11 5 -30 5 q-33 0 -70 -17 l-18 54 ZM420 732 l296 -732 l-154 0 l-64 167 l-285 0 l-62 -167 l-145 0 l287 732 l127 0 ZM451 291 l-98 257 l-95 -257 l193 0 Z" /><glyph glyph-name="Amacron" unicode="&#x100;" d="M196 831 l0 95 l342 0 l0 -95 l-342 0 ZM420 732 l296 -732 l-154 0 l-64 167 l-285 0 l-62 -167 l-145 0 l287 732 l127 0 ZM451 291 l-98 257 l-95 -257 l193 0 Z" /><glyph glyph-name="Aogonek" unicode="&#x104;" d="M779 -193 q-26 -26 -57 -38.5 q-31 -12.5 -74 -12.5 q-60 0 -99.5 27 q-39.5 27 -39.5 82 q0 40 20.5 72.5 q20.5 32.5 57.5 62.5 l-25 0 l-64 167 l-285 0 l-62 -167 l-145 0 l287 732 l127 0 l296 -732 q-56 -31 -82 -58.5 q-26 -27.5 -26 -57.5 q0 -24 14 -35.5 q14 -11.5 37 -11.5 q40 0 74 34 l46 -64 ZM353 548 l-95 -257 l193 0 l-98 257 Z" /><glyph glyph-name="Aring" unicode="Å" d="M247 857 q0 31 34.5 51 q34.5 20 85.5 20 q51 0 84.5 -20 q33.5 -20 33.5 -51 q0 -31 -33.5 -51.5 q-33.5 -20.5 -84.5 -20.5 q-51 0 -85.5 20.5 q-34.5 20.5 -34.5 51.5 ZM321 857 q0 -13 12.5 -21.5 q12.5 -8.5 33.5 -8.5 q20 0 32.5 8.5 q12.5 8.5 12.5 21.5 q0 13 -12.5 21 q-12.5 8 -32.5 8 q-21 0 -33.5 -8 q-12.5 -8 -12.5 -21 ZM420 732 l296 -732 l-154 0 l-64 167 l-285 0 l-62 -167 l-145 0 l287 732 l127 0 ZM451 291 l-98 257 l-95 -257 l193 0 Z" /><glyph glyph-name="Aringacute" unicode="&#x1fa;" d="M308 872 l84 56 l137 0 l-112 -56 l-109 0 ZM257 809 q0 20 31 33 q31 13 79 13 q48 0 78 -13 q30 -13 30 -33 q0 -20 -30 -33 q-30 -13 -78 -13 q-48 0 -79 13 q-31 13 -31 33 ZM327 808 q0 -5 11 -9 q11 -4 29 -4 q17 0 27.5 4 q10.5 4 10.5 9 q0 6 -10 10 q-10 4 -28 4 q-18 0 -29 -4 q-11 -4 -11 -10 ZM420 732 l296 -732 l-154 0 l-64 167 l-285 0 l-62 -167 l-145 0 l287 732 l127 0 ZM451 291 l-98 257 l-95 -257 l193 0 Z" /><glyph glyph-name="uni1E00" unicode="&#x1e00;" d="M420 732 l296 -732 l-154 0 l-64 167 l-285 0 l-62 -167 l-145 0 l287 732 l127 0 ZM451 291 l-98 257 l-95 -257 l193 0 ZM246 -135 q0 49 34.5 79 q34.5 30 85.5 30 q52 0 85.5 -30 q33.5 -30 33.5 -79 q0 -49 -33.5 -79 q-33.5 -30 -85.5 -30 q-51 0 -85.5 30 q-34.5 30 -34.5 79 ZM321 -135 q0 -18 12 -30 q12 -12 33 -12 q20 0 32.5 12 q12.5 12 12.5 30 q0 19 -12.5 30.5 q-12.5 11.5 -32.5 11.5 q-21 0 -33 -11 q-12 -11 -12 -31 Z" /><glyph glyph-name="Atilde" unicode="Ã" d="M176 811 q2 52 35 84.5 q33 32.5 87 32.5 q32 0 52.5 -9.5 q20.5 -9.5 41.5 -26.5 q12 -9 20 -13.5 q8 -4.5 17 -4.5 q27 0 35 42 l95 0 q-2 -52 -35 -84.5 q-33 -32.5 -87 -32.5 q-32 0 -52.5 9.5 q-20.5 9.5 -41.5 26.5 q-12 9 -20 13.5 q-8 4.5 -17 4.5 q-27 0 -35 -42 l-95 0 ZM420 732 l296 -732 l-154 0 l-64 167 l-285 0 l-62 -167 l-145 0 l287 732 l127 0 ZM451 291 l-98 257 l-95 -257 l193 0 Z" /><glyph glyph-name="AE" unicode="Æ" d="M964 309 l-297 0 l0 -182 l343 0 l0 -127 l-489 0 l0 169 l-253 0 l-105 -169 l-162 0 l472 732 l526 0 l0 -126 l-332 0 l0 -172 l297 0 l0 -125 ZM521 293 l0 288 l-177 -288 l177 0 Z" /><glyph glyph-name="AEacute" unicode="&#x1fc;" d="M596 801 l93 127 l144 0 l-123 -127 l-114 0 ZM964 309 l-297 0 l0 -182 l343 0 l0 -127 l-489 0 l0 169 l-253 0 l-105 -169 l-162 0 l472 732 l526 0 l0 -126 l-332 0 l0 -172 l297 0 l0 -125 ZM521 293 l0 288 l-177 -288 l177 0 Z" /><glyph glyph-name="B" unicode="B" d="M524 380 q121 -43 121 -169 q0 -99 -72.5 -155 q-72.5 -56 -203.5 -56 l-292 0 l0 732 l265 0 q117 0 190.5 -53.5 q73.5 -53.5 73.5 -150.5 q0 -101 -82 -148 ZM219 606 l0 -173 l109 0 q59 0 93.5 24.5 q34.5 24.5 34.5 65.5 q0 40 -34 61.5 q-34 21.5 -94 21.5 l-109 0 ZM357 126 q66 0 101.5 24 q35.5 24 35.5 68 q0 44 -35.5 69 q-35.5 25 -102.5 25 l-137 0 l0 -186 l138 0 Z" /><glyph glyph-name="C" unicode="C" d="M390 121 q53 0 91.5 28 q38.5 28 61.5 78 l121 -70 q-27 -74 -99 -121.5 q-72 -47.5 -172 -47.5 q-97 0 -177 47 q-80 47 -127 133.5 q-47 86.5 -47 198.5 q0 112 46.5 198 q46.5 86 127 133 q80.5 47 177.5 47 q100 0 172 -47.5 q72 -47.5 99 -121.5 l-121 -70 q-23 50 -61.5 78 q-38.5 28 -91.5 28 q-56 0 -100 -30 q-44 -30 -69.5 -85.5 q-25.5 -55.5 -25.5 -129.5 q0 -74 25.5 -130 q25.5 -56 69.5 -86 q44 -30 100 -30 Z" /><glyph glyph-name="Cacute" unicode="&#x106;" d="M313 800 l93 128 l145 0 l-124 -128 l-114 0 ZM390 121 q53 0 91.5 28 q38.5 28 61.5 78 l121 -70 q-27 -74 -99 -121.5 q-72 -47.5 -172 -47.5 q-97 0 -177 47 q-80 47 -127 133.5 q-47 86.5 -47 198.5 q0 112 46.5 198 q46.5 86 127 133 q80.5 47 177.5 47 q100 0 172 -47.5 q72 -47.5 99 -121.5 l-121 -70 q-23 50 -61.5 78 q-38.5 28 -91.5 28 q-56 0 -100 -30 q-44 -30 -69.5 -85.5 q-25.5 -55.5 -25.5 -129.5 q0 -74 25.5 -130 q25.5 -56 69.5 -86 q44 -30 100 -30 Z" /><glyph glyph-name="Ccaron" unicode="&#x10c;" d="M300 928 l65 -65 l65 65 l121 0 l-132 -129 l-109 0 l-132 129 l122 0 ZM390 121 q53 0 91.5 28 q38.5 28 61.5 78 l121 -70 q-27 -74 -99 -121.5 q-72 -47.5 -172 -47.5 q-97 0 -177 47 q-80 47 -127 133.5 q-47 86.5 -47 198.5 q0 112 46.5 198 q46.5 86 127 133 q80.5 47 177.5 47 q100 0 172 -47.5 q72 -47.5 99 -121.5 l-121 -70 q-23 50 -61.5 78 q-38.5 28 -91.5 28 q-56 0 -100 -30 q-44 -30 -69.5 -85.5 q-25.5 -55.5 -25.5 -129.5 q0 -74 25.5 -130 q25.5 -56 69.5 -86 q44 -30 100 -30 Z" /><glyph glyph-name="Ccedilla" unicode="Ç" d="M390 121 q53 0 91.5 28 q38.5 28 61.5 78 l121 -70 q-24 -68 -88 -114.5 q-64 -46.5 -153 -53.5 l-20 -46 q48 0 79 -23 q31 -23 31 -66 q0 -49 -43 -73.5 q-43 -24.5 -104 -24.5 q-37 0 -80 12 l0 70 q39 -12 77 -12 q54 0 54 26 q0 13 -14.5 19.5 q-14.5 6.5 -39.5 6.5 q-25 0 -55 -6 l-9 47 l33 74 q-83 14 -149 64 q-66 50 -103.5 130 q-37.5 80 -37.5 180 q0 112 46.5 198 q46.5 86 127 133 q80.5 47 177.5 47 q100 0 172 -47.5 q72 -47.5 99 -121.5 l-121 -70 q-23 50 -61.5 78 q-38.5 28 -91.5 28 q-56 0 -100 -30 q-44 -30 -69.5 -85.5 q-25.5 -55.5 -25.5 -129.5 q0 -74 25.5 -130 q25.5 -56 69.5 -86 q44 -30 100 -30 Z" /><glyph glyph-name="Ccircumflex" unicode="&#x108;" d="M310 928 l109 0 l132 -129 l-121 0 l-65 65 l-65 -65 l-122 0 l132 129 ZM390 121 q53 0 91.5 28 q38.5 28 61.5 78 l121 -70 q-27 -74 -99 -121.5 q-72 -47.5 -172 -47.5 q-97 0 -177 47 q-80 47 -127 133.5 q-47 86.5 -47 198.5 q0 112 46.5 198 q46.5 86 127 133 q80.5 47 177.5 47 q100 0 172 -47.5 q72 -47.5 99 -121.5 l-121 -70 q-23 50 -61.5 78 q-38.5 28 -91.5 28 q-56 0 -100 -30 q-44 -30 -69.5 -85.5 q-25.5 -55.5 -25.5 -129.5 q0 -74 25.5 -130 q25.5 -56 69.5 -86 q44 -30 100 -30 Z" /><glyph glyph-name="Cdotaccent" unicode="&#x10a;" d="M365 801 q-30 0 -52 19 q-22 19 -22 45 q0 26 21.5 44.5 q21.5 18.5 52.5 18.5 q32 0 54 -18.5 q22 -18.5 22 -44.5 q0 -26 -22.5 -45 q-22.5 -19 -53.5 -19 ZM390 121 q53 0 91.5 28 q38.5 28 61.5 78 l121 -70 q-27 -74 -99 -121.5 q-72 -47.5 -172 -47.5 q-97 0 -177 47 q-80 47 -127 133.5 q-47 86.5 -47 198.5 q0 112 46.5 198 q46.5 86 127 133 q80.5 47 177.5 47 q100 0 172 -47.5 q72 -47.5 99 -121.5 l-121 -70 q-23 50 -61.5 78 q-38.5 28 -91.5 28 q-56 0 -100 -30 q-44 -30 -69.5 -85.5 q-25.5 -55.5 -25.5 -129.5 q0 -74 25.5 -130 q25.5 -56 69.5 -86 q44 -30 100 -30 Z" /><glyph glyph-name="D" unicode="D" d="M321 732 q107 0 193.5 -43 q86.5 -43 136.5 -125.5 q50 -82.5 50 -196.5 q0 -114 -50 -197 q-50 -83 -136 -126.5 q-86 -43.5 -194 -43.5 l-244 0 l0 732 l244 0 ZM304 124 q118 0 181 63 q63 63 63 180 q0 115 -63.5 178.5 q-63.5 63.5 -180.5 63.5 l-82 0 l0 -485 l82 0 Z" /><glyph glyph-name="Eth" unicode="Ð" d="M349 732 q107 0 193.5 -43 q86.5 -43 136.5 -125.5 q50 -82.5 50 -196.5 q0 -114 -50 -197 q-50 -83 -136 -126.5 q-86 -43.5 -194 -43.5 l-244 0 l0 309 l-84 0 l0 128 l84 0 l0 295 l244 0 ZM332 124 q118 0 181 63 q63 63 63 180 q0 115 -63.5 178.5 q-63.5 63.5 -180.5 63.5 l-82 0 l0 -172 l127 0 l0 -128 l-127 0 l0 -185 l82 0 Z" /><glyph glyph-name="Dcaron" unicode="&#x10e;" d="M248 928 l66 -65 l65 65 l121 0 l-132 -129 l-109 0 l-132 129 l121 0 ZM321 732 q107 0 193.5 -43 q86.5 -43 136.5 -125.5 q50 -82.5 50 -196.5 q0 -114 -50 -197 q-50 -83 -136 -126.5 q-86 -43.5 -194 -43.5 l-244 0 l0 732 l244 0 ZM304 124 q118 0 181 63 q63 63 63 180 q0 115 -63.5 178.5 q-63.5 63.5 -180.5 63.5 l-82 0 l0 -485 l82 0 Z" /><glyph glyph-name="Dcroat" unicode="&#x110;" d="M349 732 q107 0 193.5 -43 q86.5 -43 136.5 -125.5 q50 -82.5 50 -196.5 q0 -114 -50 -197 q-50 -83 -136 -126.5 q-86 -43.5 -194 -43.5 l-244 0 l0 309 l-84 0 l0 128 l84 0 l0 295 l244 0 ZM332 124 q118 0 181 63 q63 63 63 180 q0 115 -63.5 178.5 q-63.5 63.5 -180.5 63.5 l-82 0 l0 -172 l127 0 l0 -128 l-127 0 l0 -185 l82 0 Z" /><glyph glyph-name="E" unicode="E" d="M519 309 l-297 0 l0 -182 l343 0 l0 -127 l-488 0 l0 732 l477 0 l0 -126 l-332 0 l0 -172 l297 0 l0 -125 Z" /><glyph glyph-name="Eacute" unicode="É" d="M261 800 l93 128 l145 0 l-124 -128 l-114 0 ZM519 309 l-297 0 l0 -182 l343 0 l0 -127 l-488 0 l0 732 l477 0 l0 -126 l-332 0 l0 -172 l297 0 l0 -125 Z" /><glyph glyph-name="Ebreve" unicode="&#x114;" d="M313 798 q-80 0 -128 35 q-48 35 -48 95 l109 0 q3 -29 20 -45 q17 -16 47 -16 q62 0 68 61 l109 0 q0 -60 -48 -95 q-48 -35 -129 -35 ZM519 309 l-297 0 l0 -182 l343 0 l0 -127 l-488 0 l0 732 l477 0 l0 -126 l-332 0 l0 -172 l297 0 l0 -125 Z" /><glyph glyph-name="Ecaron" unicode="&#x11a;" d="M248 928 l65 -65 l65 65 l121 0 l-132 -129 l-109 0 l-132 129 l122 0 ZM519 309 l-297 0 l0 -182 l343 0 l0 -127 l-488 0 l0 732 l477 0 l0 -126 l-332 0 l0 -172 l297 0 l0 -125 Z" /><glyph glyph-name="Ecircumflex" unicode="Ê" d="M258 928 l109 0 l132 -129 l-121 0 l-65 65 l-65 -65 l-122 0 l132 129 ZM519 309 l-297 0 l0 -182 l343 0 l0 -127 l-488 0 l0 732 l477 0 l0 -126 l-332 0 l0 -172 l297 0 l0 -125 Z" /><glyph glyph-name="uni1EBE" unicode="&#x1ebe;" d="M398 859 l93 69 l144 0 l-123 -69 l-114 0 ZM258 848 l109 0 l132 -69 l-130 0 l-56 29 l-57 -29 l-130 0 l132 69 ZM519 309 l-297 0 l0 -182 l343 0 l0 -127 l-488 0 l0 732 l477 0 l0 -126 l-332 0 l0 -172 l297 0 l0 -125 Z" /><glyph glyph-name="uni1EC6" unicode="&#x1ec6;" d="M258 928 l109 0 l132 -129 l-121 0 l-65 66 l-65 -66 l-122 0 l132 129 ZM519 309 l-297 0 l0 -182 l343 0 l0 -127 l-488 0 l0 732 l477 0 l0 -126 l-332 0 l0 -172 l297 0 l0 -125 ZM313 -222 q-34 0 -58 24.5 q-24 24.5 -24 57.5 q0 33 24 57 q24 24 58 24 q34 0 59 -24 q25 -24 25 -57 q0 -33 -25 -57.5 q-25 -24.5 -59 -24.5 Z" /><glyph glyph-name="uni1EC0" unicode="&#x1ec0;" d="M264 928 l145 0 l93 -69 l-114 0 l-124 69 ZM258 848 l109 0 l132 -69 l-125 0 l-61 31 l-61 -31 l-126 0 l132 69 ZM519 309 l-297 0 l0 -182 l343 0 l0 -127 l-488 0 l0 732 l477 0 l0 -126 l-332 0 l0 -172 l297 0 l0 -125 Z" /><glyph glyph-name="uni1EC2" unicode="&#x1ec2;" d="M330 916 q46 12 103 12 q55 0 91 -10 q36 -10 36 -30 q0 -19 -31.5 -30.5 q-31.5 -11.5 -86.5 -19.5 l-45 27 q68 7 68 15 q0 4 -12 6.5 q-12 2.5 -30 2.5 q-39 0 -75 -7 l-18 34 ZM258 846 l109 0 l132 -67 l-130 0 l-56 28 l-57 -28 l-130 0 l132 67 ZM519 309 l-297 0 l0 -182 l343 0 l0 -127 l-488 0 l0 732 l477 0 l0 -126 l-332 0 l0 -172 l297 0 l0 -125 Z" /><glyph glyph-name="uni1EC4" unicode="&#x1ec4;" d="M126 866 q2 28 35.5 45 q33.5 17 87.5 17 q32 0 52.5 -4.5 q20.5 -4.5 40.5 -11.5 q23 -9 38 -9 q26 0 35 19 l95 0 q-2 -28 -35.5 -45 q-33.5 -17 -87.5 -17 q-32 0 -52.5 4.5 q-20.5 4.5 -40.5 11.5 q-23 9 -38 9 q-25 0 -35 -19 l-95 0 ZM263 847 l109 0 l132 -68 l-130 0 l-56 28 l-57 -28 l-130 0 l132 68 ZM519 309 l-297 0 l0 -182 l343 0 l0 -127 l-488 0 l0 732 l477 0 l0 -126 l-332 0 l0 -172 l297 0 l0 -125 Z" /><glyph glyph-name="Edieresis" unicode="Ë" d="M200 801 q-31 0 -52.5 19 q-21.5 19 -21.5 45 q0 26 21.5 44.5 q21.5 18.5 52.5 18.5 q32 0 54 -18.5 q22 -18.5 22 -44.5 q0 -26 -22 -45 q-22 -19 -54 -19 ZM424 801 q-31 0 -52.5 19 q-21.5 19 -21.5 45 q0 26 21.5 44.5 q21.5 18.5 52.5 18.5 q31 0 53.5 -18.5 q22.5 -18.5 22.5 -44.5 q0 -26 -22.5 -45 q-22.5 -19 -53.5 -19 ZM519 309 l-297 0 l0 -182 l343 0 l0 -127 l-488 0 l0 732 l477 0 l0 -126 l-332 0 l0 -172 l297 0 l0 -125 Z" /><glyph glyph-name="Edotaccent" unicode="&#x116;" d="M313 801 q-30 0 -52 19 q-22 19 -22 45 q0 26 21.5 44.5 q21.5 18.5 52.5 18.5 q32 0 54 -18.5 q22 -18.5 22 -44.5 q0 -26 -22.5 -45 q-22.5 -19 -53.5 -19 ZM519 309 l-297 0 l0 -182 l343 0 l0 -127 l-488 0 l0 732 l477 0 l0 -126 l-332 0 l0 -172 l297 0 l0 -125 Z" /><glyph glyph-name="uni1EB8" unicode="&#x1eb8;" d="M519 309 l-297 0 l0 -182 l343 0 l0 -127 l-488 0 l0 732 l477 0 l0 -126 l-332 0 l0 -172 l297 0 l0 -125 ZM313 -222 q-34 0 -58 24.5 q-24 24.5 -24 57.5 q0 33 24 57 q24 24 58 24 q34 0 59 -24 q25 -24 25 -57 q0 -33 -25 -57.5 q-25 -24.5 -59 -24.5 Z" /><glyph glyph-name="Egrave" unicode="È" d="M128 928 l144 0 l93 -128 l-114 0 l-123 128 ZM519 309 l-297 0 l0 -182 l343 0 l0 -127 l-488 0 l0 732 l477 0 l0 -126 l-332 0 l0 -172 l297 0 l0 -125 Z" /><glyph glyph-name="uni1EBA" unicode="&#x1eba;" d="M194 908 q40 20 103 20 q55 0 90.5 -17 q35.5 -17 35.5 -52 q0 -61 -117 -87 l-48 46 q32 8 48.5 16 q16.5 8 16.5 17 q0 9 -11.5 14.5 q-11.5 5.5 -29.5 5.5 q-33 0 -70 -17 l-18 54 ZM519 309 l-297 0 l0 -182 l343 0 l0 -127 l-488 0 l0 732 l477 0 l0 -126 l-332 0 l0 -172 l297 0 l0 -125 Z" /><glyph glyph-name="Emacron" unicode="&#x112;" d="M142 831 l0 95 l342 0 l0 -95 l-342 0 ZM519 309 l-297 0 l0 -182 l343 0 l0 -127 l-488 0 l0 732 l477 0 l0 -126 l-332 0 l0 -172 l297 0 l0 -125 Z" /><glyph glyph-name="Eogonek" unicode="&#x118;" d="M628 -194 q-26 -25 -57 -37.5 q-31 -12.5 -74 -12.5 q-60 0 -99.5 27 q-39.5 27 -39.5 82 q0 75 79 135 l-360 0 l0 732 l477 0 l0 -126 l-332 0 l0 -172 l297 0 l0 -125 l-297 0 l0 -182 l343 0 l0 -127 q-56 -31 -82 -58.5 q-26 -27.5 -26 -58.5 q0 -23 14 -34.5 q14 -11.5 37 -11.5 q40 0 74 34 l46 -65 Z" /><glyph glyph-name="uni1EBC" unicode="&#x1ebc;" d="M121 811 q2 52 35.5 84.5 q33.5 32.5 87.5 32.5 q32 0 52.5 -9.5 q20.5 -9.5 40.5 -26.5 q13 -10 21 -14.5 q8 -4.5 17 -4.5 q26 0 35 43 l95 0 q-2 -53 -35 -85.5 q-33 -32.5 -87 -32.5 q-33 0 -53.5 9.5 q-20.5 9.5 -41.5 26.5 q-21 19 -36 19 q-26 0 -36 -42 l-95 0 ZM519 309 l-297 0 l0 -182 l343 0 l0 -127 l-488 0 l0 732 l477 0 l0 -126 l-332 0 l0 -172 l297 0 l0 -125 Z" /><glyph glyph-name="F" unicode="F" d="M77 732 l477 0 l0 -127 l-332 0 l0 -187 l297 0 l0 -126 l-297 0 l0 -292 l-145 0 l0 732 Z" /><glyph glyph-name="G" unicode="G" d="M400 281 l0 125 l280 0 l0 -298 q-34 -55 -108.5 -87.5 q-74.5 -32.5 -164.5 -32.5 q-107 0 -190 48 q-83 48 -129 134 q-46 86 -46 197 q0 112 47.5 198 q47.5 86 130.5 133 q83 47 184 47 q101 0 175.5 -45.5 q74.5 -45.5 100.5 -116.5 l-120 -69 q-22 46 -63 72.5 q-41 26.5 -97 26.5 q-59 0 -106 -30 q-47 -30 -74 -86 q-27 -56 -27 -130 q0 -76 27.5 -132 q27.5 -56 78 -86 q50.5 -30 117.5 -30 q78 0 122 43 l0 119 l-138 0 Z" /><glyph glyph-name="Gbreve" unicode="&#x11e;" d="M397 799 q-80 0 -128 34.5 q-48 34.5 -48 93.5 l109 0 q6 -60 67 -60 q62 0 68 60 l109 0 q0 -59 -48 -93.5 q-48 -34.5 -129 -34.5 ZM400 281 l0 125 l280 0 l0 -298 q-34 -55 -108.5 -87.5 q-74.5 -32.5 -164.5 -32.5 q-107 0 -190 48 q-83 48 -129 134 q-46 86 -46 197 q0 112 47.5 198 q47.5 86 130.5 133 q83 47 184 47 q101 0 175.5 -45.5 q74.5 -45.5 100.5 -116.5 l-120 -69 q-22 46 -63 72.5 q-41 26.5 -97 26.5 q-59 0 -106 -30 q-47 -30 -74 -86 q-27 -56 -27 -130 q0 -76 27.5 -132 q27.5 -56 78 -86 q50.5 -30 117.5 -30 q78 0 122 43 l0 119 l-138 0 Z" /><glyph glyph-name="Gcircumflex" unicode="&#x11c;" d="M342 928 l109 0 l132 -128 l-121 0 l-65 65 l-66 -65 l-121 0 l132 128 ZM400 281 l0 125 l280 0 l0 -298 q-34 -55 -108.5 -87.5 q-74.5 -32.5 -164.5 -32.5 q-107 0 -190 48 q-83 48 -129 134 q-46 86 -46 197 q0 112 47.5 198 q47.5 86 130.5 133 q83 47 184 47 q101 0 175.5 -45.5 q74.5 -45.5 100.5 -116.5 l-120 -69 q-22 46 -63 72.5 q-41 26.5 -97 26.5 q-59 0 -106 -30 q-47 -30 -74 -86 q-27 -56 -27 -130 q0 -76 27.5 -132 q27.5 -56 78 -86 q50.5 -30 117.5 -30 q78 0 122 43 l0 119 l-138 0 Z" /><glyph glyph-name="uni0122" unicode="&#x122;" d="M538 281 l-138 0 l0 125 l280 0 l0 -298 q-34 -55 -108.5 -87.5 q-74.5 -32.5 -164.5 -32.5 q-107 0 -190 48 q-83 48 -129 134 q-46 86 -46 197 q0 112 47.5 198 q47.5 86 130.5 133 q83 47 184 47 q101 0 175.5 -45.5 q74.5 -45.5 100.5 -116.5 l-120 -69 q-22 46 -63 72.5 q-41 26.5 -97 26.5 q-59 0 -106 -30 q-47 -30 -74 -86 q-27 -56 -27 -130 q0 -76 27.5 -132 q27.5 -56 78 -86 q50.5 -30 117.5 -30 q78 0 122 43 l0 119 ZM393 -33 q39 0 62.5 -22 q23.5 -22 23.5 -65 q0 -56 -40.5 -88 q-40.5 -32 -115.5 -36 l0 54 q63 9 74 41 l-5 0 q-33 0 -52.5 15 q-19.5 15 -19.5 41 q0 27 20.5 43.5 q20.5 16.5 52.5 16.5 Z" /><glyph glyph-name="Gdotaccent" unicode="&#x120;" d="M396 802 q-30 0 -51.5 19 q-21.5 19 -21.5 45 q0 25 21.5 43.5 q21.5 18.5 51.5 18.5 q32 0 54 -18.5 q22 -18.5 22 -43.5 q0 -26 -22 -45 q-22 -19 -54 -19 ZM400 281 l0 125 l280 0 l0 -298 q-34 -55 -108.5 -87.5 q-74.5 -32.5 -164.5 -32.5 q-107 0 -190 48 q-83 48 -129 134 q-46 86 -46 197 q0 112 47.5 198 q47.5 86 130.5 133 q83 47 184 47 q101 0 175.5 -45.5 q74.5 -45.5 100.5 -116.5 l-120 -69 q-22 46 -63 72.5 q-41 26.5 -97 26.5 q-59 0 -106 -30 q-47 -30 -74 -86 q-27 -56 -27 -130 q0 -76 27.5 -132 q27.5 -56 78 -86 q50.5 -30 117.5 -30 q78 0 122 43 l0 119 l-138 0 Z" /><glyph glyph-name="H" unicode="H" d="M222 444 l330 0 l0 288 l146 0 l0 -732 l-146 0 l0 315 l-330 0 l0 -315 l-145 0 l0 732 l145 0 l0 -288 Z" /><glyph glyph-name="Hbar" unicode="&#x126;" d="M717 732 l0 -101 l68 0 l0 -104 l-68 0 l0 -527 l-146 0 l0 311 l-330 0 l0 -311 l-146 0 l0 527 l-69 0 l0 104 l69 0 l0 101 l146 0 l0 -101 l330 0 l0 101 l146 0 ZM241 527 l0 -87 l330 0 l0 87 l-330 0 Z" /><glyph glyph-name="Hcircumflex" unicode="&#x124;" d="M332 928 l109 0 l133 -129 l-122 0 l-65 65 l-65 -65 l-122 0 l132 129 ZM222 444 l330 0 l0 288 l146 0 l0 -732 l-146 0 l0 315 l-330 0 l0 -315 l-145 0 l0 732 l145 0 l0 -288 Z" /><glyph glyph-name="I" unicode="I" d="M222 0 l-145 0 l0 732 l145 0 l0 -732 Z" /><glyph glyph-name="IJ" unicode="&#x132;" d="M222 0 l-145 0 l0 732 l145 0 l0 -732 ZM512 -12 q-81 0 -139.5 38.5 q-58.5 38.5 -77.5 119.5 l121 64 q11 -45 35 -67 q24 -22 62 -22 q49 0 69.5 36.5 q20.5 36.5 20.5 113.5 l0 461 l147 0 l0 -475 q0 -142 -67.5 -205.5 q-67.5 -63.5 -170.5 -63.5 Z" /><glyph glyph-name="Iacute" unicode="Í" d="M98 800 l93 128 l144 0 l-124 -128 l-113 0 ZM222 0 l-145 0 l0 732 l145 0 l0 -732 Z" /><glyph glyph-name="Ibreve" unicode="&#x12c;" d="M150 798 q-80 0 -128 35 q-48 35 -48 95 l108 0 q8 -61 68 -61 q62 0 68 61 l109 0 q0 -60 -48 -95 q-48 -35 -129 -35 ZM222 0 l-145 0 l0 732 l145 0 l0 -732 Z" /><glyph glyph-name="uni01CF" unicode="&#x1cf;" d="M84 928 l66 -65 l64 65 l122 0 l-132 -129 l-109 0 l-133 129 l122 0 ZM222 0 l-145 0 l0 732 l145 0 l0 -732 Z" /><glyph glyph-name="Icircumflex" unicode="Î" d="M95 928 l109 0 l132 -129 l-122 0 l-64 65 l-66 -65 l-122 0 l133 129 ZM222 0 l-145 0 l0 732 l145 0 l0 -732 Z" /><glyph glyph-name="Idieresis" unicode="Ï" d="M36 801 q-30 0 -51.5 19 q-21.5 19 -21.5 45 q0 26 21.5 44.5 q21.5 18.5 51.5 18.5 q32 0 54 -18.5 q22 -18.5 22 -44.5 q0 -26 -22 -45 q-22 -19 -54 -19 ZM261 801 q-31 0 -52.5 19 q-21.5 19 -21.5 45 q0 26 21.5 44.5 q21.5 18.5 52.5 18.5 q31 0 53 -18.5 q22 -18.5 22 -44.5 q0 -26 -22 -45 q-22 -19 -53 -19 ZM222 0 l-145 0 l0 732 l145 0 l0 -732 Z" /><glyph glyph-name="Idotaccent" unicode="&#x130;" d="M149 801 q-30 0 -52 19 q-22 19 -22 45 q0 26 21.5 44.5 q21.5 18.5 52.5 18.5 q32 0 54 -18.5 q22 -18.5 22 -44.5 q0 -26 -22 -45 q-22 -19 -54 -19 ZM222 0 l-145 0 l0 732 l145 0 l0 -732 Z" /><glyph glyph-name="uni1ECA" unicode="&#x1eca;" d="M222 0 l-145 0 l0 732 l145 0 l0 -732 ZM150 -222 q-34 0 -58.5 24.5 q-24.5 24.5 -24.5 57.5 q0 33 24.5 57 q24.5 24 58.5 24 q34 0 58.5 -24 q24.5 -24 24.5 -57 q0 -33 -24.5 -57.5 q-24.5 -24.5 -58.5 -24.5 Z" /><glyph glyph-name="Igrave" unicode="Ì" d="M-36 928 l145 0 l93 -128 l-114 0 l-124 128 ZM222 0 l-145 0 l0 732 l145 0 l0 -732 Z" /><glyph glyph-name="uni1EC8" unicode="&#x1ec8;" d="M30 908 q42 20 103 20 q55 0 91 -17 q36 -17 36 -52 q0 -62 -118 -87 l-47 46 q32 8 48 16 q16 8 16 17 q0 9 -11 14.5 q-11 5.5 -30 5.5 q-33 0 -70 -17 l-18 54 ZM222 0 l-145 0 l0 732 l145 0 l0 -732 Z" /><glyph glyph-name="Imacron" unicode="&#x12a;" d="M-21 831 l0 95 l342 0 l0 -95 l-342 0 ZM222 0 l-145 0 l0 732 l145 0 l0 -732 Z" /><glyph glyph-name="Iogonek" unicode="&#x12e;" d="M284 -194 q-50 -50 -130 -50 q-61 0 -100 27 q-39 27 -39 82 q0 40 20.5 73 q20.5 33 57.5 62 l-16 0 l0 732 l145 0 l0 -732 q-56 -31 -82 -58.5 q-26 -27.5 -26 -58.5 q0 -23 14 -34.5 q14 -11.5 37 -11.5 q39 0 73 34 l46 -65 Z" /><glyph glyph-name="Itilde" unicode="&#x128;" d="M-42 811 q2 52 35 84.5 q33 32.5 87 32.5 q33 0 53.5 -9.5 q20.5 -9.5 41.5 -26.5 q21 -19 36 -19 q27 0 36 43 l95 0 q-2 -53 -35.5 -85.5 q-33.5 -32.5 -87.5 -32.5 q-32 0 -52.5 9.5 q-20.5 9.5 -40.5 26.5 q-13 10 -21 14.5 q-8 4.5 -17 4.5 q-25 0 -35 -42 l-95 0 ZM222 0 l-145 0 l0 732 l145 0 l0 -732 Z" /><glyph glyph-name="J" unicode="J" d="M216 -12 q-81 0 -139 39 q-58 39 -77 119 l120 64 q12 -45 35.5 -67 q23.5 -22 61.5 -22 q50 0 71 36.5 q21 36.5 21 113.5 l0 461 l145 0 l0 -475 q0 -143 -67 -206 q-67 -63 -171 -63 Z" /><glyph glyph-name="Jcircumflex" unicode="&#x134;" d="M323 928 l109 0 l132 -129 l-121 0 l-65 65 l-66 -65 l-121 0 l132 129 ZM213 -12 q-81 0 -139 39 q-58 39 -77 119 l120 64 q12 -45 35.5 -67 q23.5 -22 61.5 -22 q50 0 71 36.5 q21 36.5 21 113.5 l0 461 l145 0 l0 -475 q0 -143 -67 -206 q-67 -63 -171 -63 Z" /><glyph glyph-name="K" unicode="K" d="M426 433 l311 -433 l-187 0 l-228 322 l-100 -107 l0 -215 l-145 0 l0 732 l145 0 l0 -341 l304 341 l181 0 l-281 -299 Z" /><glyph glyph-name="uni0136" unicode="&#x136;" d="M526 732 l181 0 l-281 -299 l311 -433 l-187 0 l-228 322 l-100 -107 l0 -215 l-145 0 l0 732 l145 0 l0 -341 l304 341 ZM386 -33 q39 0 62.5 -22 q23.5 -22 23.5 -65 q0 -56 -40.5 -88 q-40.5 -32 -115.5 -36 l0 54 q63 9 74 41 l-5 0 q-33 0 -52.5 15 q-19.5 15 -19.5 41 q0 27 20.5 43.5 q20.5 16.5 52.5 16.5 Z" /><glyph glyph-name="L" unicode="L" d="M77 732 l145 0 l0 -602 l333 0 l0 -130 l-478 0 l0 732 Z" /><glyph glyph-name="Lacute" unicode="&#x139;" d="M98 801 l93 127 l144 0 l-124 -127 l-113 0 ZM77 732 l145 0 l0 -602 l333 0 l0 -130 l-478 0 l0 732 Z" /><glyph glyph-name="Lcaron" unicode="&#x13d;" d="M488 636 q0 -70 -43.5 -116 q-43.5 -46 -112.5 -56 l0 68 q31 6 49.5 19.5 q18.5 13.5 24.5 36.5 l-3 0 q-33 1 -53.5 23.5 q-20.5 22.5 -20.5 55.5 q0 33 20.5 55.5 q20.5 22.5 52.5 22.5 q36 0 61 -28 q25 -28 25 -81 ZM77 732 l145 0 l0 -602 l333 0 l0 -130 l-478 0 l0 732 Z" /><glyph glyph-name="uni013B" unicode="&#x13b;" d="M77 732 l145 0 l0 -602 l333 0 l0 -130 l-478 0 l0 732 ZM325 -33 q39 0 62.5 -22 q23.5 -22 23.5 -65 q0 -56 -40.5 -88 q-40.5 -32 -115.5 -36 l0 54 q63 9 74 41 l-5 0 q-33 0 -52.5 15 q-19.5 15 -19.5 41 q0 27 20.5 43.5 q20.5 16.5 52.5 16.5 Z" /><glyph glyph-name="Ldot" unicode="&#x13f;" d="M77 732 l145 0 l0 -602 l333 0 l0 -130 l-478 0 l0 732 ZM396 318 q-33 0 -57.5 25.5 q-24.5 25.5 -24.5 59.5 q0 35 24 60 q24 25 58 25 q35 0 59.5 -25 q24.5 -25 24.5 -60 q0 -34 -24.5 -59.5 q-24.5 -25.5 -59.5 -25.5 Z" /><glyph glyph-name="Lslash" unicode="&#x141;" d="M386 405 l-143 -71 l0 -204 l334 0 l0 -130 l-479 0 l0 262 l-84 -42 l0 140 l84 42 l0 330 l145 0 l0 -258 l143 71 l0 -140 Z" /><glyph glyph-name="M" unicode="M" d="M691 732 l110 0 l0 -732 l-138 0 l0 472 l-186 -277 l-76 0 l-187 279 l0 -474 l-137 0 l0 732 l115 0 l250 -379 l249 379 Z" /><glyph glyph-name="uni1E3E" unicode="&#x1e3e;" d="M388 800 l93 128 l144 0 l-124 -128 l-113 0 ZM691 732 l110 0 l0 -732 l-138 0 l0 472 l-186 -277 l-76 0 l-187 279 l0 -474 l-137 0 l0 732 l115 0 l250 -379 l249 379 Z" /><glyph glyph-name="N" unicode="N" d="M194 732 l355 -484 l0 484 l135 0 l0 -732 l-118 0 l-356 485 l0 -485 l-133 0 l0 732 l117 0 Z" /><glyph glyph-name="Nacute" unicode="&#x143;" d="M329 800 l93 127 l144 0 l-124 -127 l-113 0 ZM194 732 l355 -484 l0 484 l135 0 l0 -732 l-118 0 l-356 485 l0 -485 l-133 0 l0 732 l117 0 Z" /><glyph glyph-name="Ncaron" unicode="&#x147;" d="M315 928 l65 -65 l65 65 l122 0 l-133 -129 l-108 0 l-133 129 l122 0 ZM194 732 l355 -484 l0 484 l135 0 l0 -732 l-118 0 l-356 485 l0 -485 l-133 0 l0 732 l117 0 Z" /><glyph glyph-name="uni0145" unicode="&#x145;" d="M194 732 l355 -484 l0 484 l135 0 l0 -732 l-118 0 l-356 485 l0 -485 l-133 0 l0 732 l117 0 ZM377 -33 q38 0 61.5 -22 q23.5 -22 23.5 -65 q0 -56 -40 -88 q-40 -32 -115 -36 l0 54 q63 10 74 41 l-5 0 q-33 0 -53 15 q-20 15 -20 41 q0 27 21 43.5 q21 16.5 53 16.5 Z" /><glyph glyph-name="Eng" unicode="&#x14a;" d="M549 732 l135 0 l0 -752 q0 -111 -55 -167.5 q-55 -56.5 -139 -56.5 q-71 0 -121 40 l53 100 q25 -19 57 -19 q37 0 53.5 29.5 q16.5 29.5 16.5 85.5 l0 30 l-339 463 l0 -485 l-133 0 l0 732 l117 0 l355 -484 l0 484 Z" /><glyph glyph-name="Ntilde" unicode="Ñ" d="M188 811 q2 52 35.5 84.5 q33.5 32.5 87.5 32.5 q32 0 52.5 -9.5 q20.5 -9.5 41.5 -26.5 q12 -9 20 -13.5 q8 -4.5 17 -4.5 q27 0 35 42 l95 0 q-2 -52 -35 -84.5 q-33 -32.5 -87 -32.5 q-32 0 -52.5 9.5 q-20.5 9.5 -41.5 26.5 q-12 9 -20 13.5 q-8 4.5 -17 4.5 q-27 0 -35 -42 l-96 0 ZM194 732 l355 -484 l0 484 l135 0 l0 -732 l-118 0 l-356 485 l0 -485 l-133 0 l0 732 l117 0 Z" /><glyph glyph-name="O" unicode="O" d="M42 367 q0 115 46 201 q46 86 125.5 131.5 q79.5 45.5 177.5 45.5 q98 0 177.5 -45.5 q79.5 -45.5 126 -131.5 q46.5 -86 46.5 -201 q0 -116 -46.5 -202 q-46.5 -86 -126 -131.5 q-79.5 -45.5 -177.5 -45.5 q-98 0 -177.5 45.5 q-79.5 45.5 -125.5 131.5 q-46 86 -46 202 ZM195 367 q0 -73 24.5 -129 q24.5 -56 69 -86.5 q44.5 -30.5 102.5 -30.5 q58 0 102.5 30.5 q44.5 30.5 69 86.5 q24.5 56 24.5 129 q0 73 -24.5 128.5 q-24.5 55.5 -69 86 q-44.5 30.5 -102.5 30.5 q-58 0 -102.5 -30.5 q-44.5 -30.5 -69 -86 q-24.5 -55.5 -24.5 -128.5 Z" /><glyph glyph-name="Oacute" unicode="Ó" d="M340 800 l93 128 l144 0 l-124 -128 l-113 0 ZM42 367 q0 115 46 201 q46 86 125.5 131.5 q79.5 45.5 177.5 45.5 q98 0 177.5 -45.5 q79.5 -45.5 126 -131.5 q46.5 -86 46.5 -201 q0 -116 -46.5 -202 q-46.5 -86 -126 -131.5 q-79.5 -45.5 -177.5 -45.5 q-98 0 -177.5 45.5 q-79.5 45.5 -125.5 131.5 q-46 86 -46 202 ZM195 367 q0 -73 24.5 -129 q24.5 -56 69 -86.5 q44.5 -30.5 102.5 -30.5 q58 0 102.5 30.5 q44.5 30.5 69 86.5 q24.5 56 24.5 129 q0 73 -24.5 128.5 q-24.5 55.5 -69 86 q-44.5 30.5 -102.5 30.5 q-58 0 -102.5 -30.5 q-44.5 -30.5 -69 -86 q-24.5 -55.5 -24.5 -128.5 Z" /><glyph glyph-name="Obreve" unicode="&#x14e;" d="M391 798 q-80 0 -127.5 35 q-47.5 35 -47.5 95 l108 0 q3 -29 20 -45 q17 -16 47 -16 q61 0 69 61 l108 0 q0 -61 -47.5 -95.5 q-47.5 -34.5 -129.5 -34.5 ZM42 367 q0 115 46 201 q46 86 125.5 131.5 q79.5 45.5 177.5 45.5 q98 0 177.5 -45.5 q79.5 -45.5 126 -131.5 q46.5 -86 46.5 -201 q0 -116 -46.5 -202 q-46.5 -86 -126 -131.5 q-79.5 -45.5 -177.5 -45.5 q-98 0 -177.5 45.5 q-79.5 45.5 -125.5 131.5 q-46 86 -46 202 ZM195 367 q0 -73 24.5 -129 q24.5 -56 69 -86.5 q44.5 -30.5 102.5 -30.5 q58 0 102.5 30.5 q44.5 30.5 69 86.5 q24.5 56 24.5 129 q0 73 -24.5 128.5 q-24.5 55.5 -69 86 q-44.5 30.5 -102.5 30.5 q-58 0 -102.5 -30.5 q-44.5 -30.5 -69 -86 q-24.5 -55.5 -24.5 -128.5 Z" /><glyph glyph-name="uni01D1" unicode="&#x1d1;" d="M326 928 l65 -65 l65 65 l122 0 l-133 -129 l-108 0 l-133 129 l122 0 ZM42 367 q0 115 46 201 q46 86 125.5 131.5 q79.5 45.5 177.5 45.5 q98 0 177.5 -45.5 q79.5 -45.5 126 -131.5 q46.5 -86 46.5 -201 q0 -116 -46.5 -202 q-46.5 -86 -126 -131.5 q-79.5 -45.5 -177.5 -45.5 q-98 0 -177.5 45.5 q-79.5 45.5 -125.5 131.5 q-46 86 -46 202 ZM195 367 q0 -73 24.5 -129 q24.5 -56 69 -86.5 q44.5 -30.5 102.5 -30.5 q58 0 102.5 30.5 q44.5 30.5 69 86.5 q24.5 56 24.5 129 q0 73 -24.5 128.5 q-24.5 55.5 -69 86 q-44.5 30.5 -102.5 30.5 q-58 0 -102.5 -30.5 q-44.5 -30.5 -69 -86 q-24.5 -55.5 -24.5 -128.5 Z" /><glyph glyph-name="Ocircumflex" unicode="Ô" d="M337 928 l108 0 l133 -129 l-122 0 l-65 65 l-65 -65 l-122 0 l133 129 ZM42 367 q0 115 46 201 q46 86 125.5 131.5 q79.5 45.5 177.5 45.5 q98 0 177.5 -45.5 q79.5 -45.5 126 -131.5 q46.5 -86 46.5 -201 q0 -116 -46.5 -202 q-46.5 -86 -126 -131.5 q-79.5 -45.5 -177.5 -45.5 q-98 0 -177.5 45.5 q-79.5 45.5 -125.5 131.5 q-46 86 -46 202 ZM195 367 q0 -73 24.5 -129 q24.5 -56 69 -86.5 q44.5 -30.5 102.5 -30.5 q58 0 102.5 30.5 q44.5 30.5 69 86.5 q24.5 56 24.5 129 q0 73 -24.5 128.5 q-24.5 55.5 -69 86 q-44.5 30.5 -102.5 30.5 q-58 0 -102.5 -30.5 q-44.5 -30.5 -69 -86 q-24.5 -55.5 -24.5 -128.5 Z" /><glyph glyph-name="uni1ED0" unicode="&#x1ed0;" d="M476 859 l93 69 l144 0 l-123 -69 l-114 0 ZM337 848 l108 0 l133 -69 l-130 0 l-57 29 l-57 -29 l-130 0 l133 69 ZM42 367 q0 115 46 201 q46 86 125.5 131.5 q79.5 45.5 177.5 45.5 q98 0 177.5 -45.5 q79.5 -45.5 126 -131.5 q46.5 -86 46.5 -201 q0 -116 -46.5 -202 q-46.5 -86 -126 -131.5 q-79.5 -45.5 -177.5 -45.5 q-98 0 -177.5 45.5 q-79.5 45.5 -125.5 131.5 q-46 86 -46 202 ZM195 367 q0 -73 24.5 -129 q24.5 -56 69 -86.5 q44.5 -30.5 102.5 -30.5 q58 0 102.5 30.5 q44.5 30.5 69 86.5 q24.5 56 24.5 129 q0 73 -24.5 128.5 q-24.5 55.5 -69 86 q-44.5 30.5 -102.5 30.5 q-58 0 -102.5 -30.5 q-44.5 -30.5 -69 -86 q-24.5 -55.5 -24.5 -128.5 Z" /><glyph glyph-name="uni1ED8" unicode="&#x1ed8;" d="M337 928 l108 0 l133 -129 l-122 0 l-65 66 l-65 -66 l-122 0 l133 129 ZM42 367 q0 115 46 201 q46 86 125.5 131.5 q79.5 45.5 177.5 45.5 q98 0 177.5 -45.5 q79.5 -45.5 126 -131.5 q46.5 -86 46.5 -201 q0 -116 -46.5 -202 q-46.5 -86 -126 -131.5 q-79.5 -45.5 -177.5 -45.5 q-98 0 -177.5 45.5 q-79.5 45.5 -125.5 131.5 q-46 86 -46 202 ZM195 367 q0 -73 24.5 -129 q24.5 -56 69 -86.5 q44.5 -30.5 102.5 -30.5 q58 0 102.5 30.5 q44.5 30.5 69 86.5 q24.5 56 24.5 129 q0 73 -24.5 128.5 q-24.5 55.5 -69 86 q-44.5 30.5 -102.5 30.5 q-58 0 -102.5 -30.5 q-44.5 -30.5 -69 -86 q-24.5 -55.5 -24.5 -128.5 ZM391 -222 q-34 0 -58 24.5 q-24 24.5 -24 57.5 q0 33 24 57 q24 24 58 24 q34 0 59 -24 q25 -24 25 -57 q0 -33 -25 -57.5 q-25 -24.5 -59 -24.5 Z" /><glyph glyph-name="uni1ED2" unicode="&#x1ed2;" d="M343 928 l144 0 l93 -69 l-114 0 l-123 69 ZM337 848 l108 0 l133 -69 l-126 0 l-61 31 l-61 -31 l-126 0 l133 69 ZM42 367 q0 115 46 201 q46 86 125.5 131.5 q79.5 45.5 177.5 45.5 q98 0 177.5 -45.5 q79.5 -45.5 126 -131.5 q46.5 -86 46.5 -201 q0 -116 -46.5 -202 q-46.5 -86 -126 -131.5 q-79.5 -45.5 -177.5 -45.5 q-98 0 -177.5 45.5 q-79.5 45.5 -125.5 131.5 q-46 86 -46 202 ZM195 367 q0 -73 24.5 -129 q24.5 -56 69 -86.5 q44.5 -30.5 102.5 -30.5 q58 0 102.5 30.5 q44.5 30.5 69 86.5 q24.5 56 24.5 129 q0 73 -24.5 128.5 q-24.5 55.5 -69 86 q-44.5 30.5 -102.5 30.5 q-58 0 -102.5 -30.5 q-44.5 -30.5 -69 -86 q-24.5 -55.5 -24.5 -128.5 Z" /><glyph glyph-name="uni1ED4" unicode="&#x1ed4;" d="M409 916 q41 11 102 11 q55 0 91 -10 q36 -10 36 -29 q0 -18 -32.5 -30.5 q-32.5 -12.5 -85.5 -19.5 l-45 27 q35 3 52 6.5 q17 3.5 17 8.5 q0 4 -12 6.5 q-12 2.5 -31 2.5 q-33 0 -75 -8 l-17 35 ZM337 845 l108 0 l133 -66 l-130 0 l-57 28 l-57 -28 l-130 0 l133 66 ZM42 367 q0 115 46 201 q46 86 125.5 131.5 q79.5 45.5 177.5 45.5 q98 0 177.5 -45.5 q79.5 -45.5 126 -131.5 q46.5 -86 46.5 -201 q0 -116 -46.5 -202 q-46.5 -86 -126 -131.5 q-79.5 -45.5 -177.5 -45.5 q-98 0 -177.5 45.5 q-79.5 45.5 -125.5 131.5 q-46 86 -46 202 ZM195 367 q0 -73 24.5 -129 q24.5 -56 69 -86.5 q44.5 -30.5 102.5 -30.5 q58 0 102.5 30.5 q44.5 30.5 69 86.5 q24.5 56 24.5 129 q0 73 -24.5 128.5 q-24.5 55.5 -69 86 q-44.5 30.5 -102.5 30.5 q-58 0 -102.5 -30.5 q-44.5 -30.5 -69 -86 q-24.5 -55.5 -24.5 -128.5 Z" /><glyph glyph-name="uni1ED6" unicode="&#x1ed6;" d="M200 866 q2 28 35.5 45 q33.5 17 87.5 17 q32 0 52 -4 q20 -4 42 -12 q23 -9 37 -9 q27 0 35 19 l95 0 q-2 -28 -35 -45 q-33 -17 -87 -17 q-32 0 -52 4 q-20 4 -42 12 q-23 9 -37 9 q-27 0 -35 -19 l-96 0 ZM338 847 l108 0 l133 -68 l-130 0 l-57 28 l-57 -28 l-130 0 l133 68 ZM42 367 q0 115 46 201 q46 86 125.5 131.5 q79.5 45.5 177.5 45.5 q98 0 177.5 -45.5 q79.5 -45.5 126 -131.5 q46.5 -86 46.5 -201 q0 -116 -46.5 -202 q-46.5 -86 -126 -131.5 q-79.5 -45.5 -177.5 -45.5 q-98 0 -177.5 45.5 q-79.5 45.5 -125.5 131.5 q-46 86 -46 202 ZM195 367 q0 -73 24.5 -129 q24.5 -56 69 -86.5 q44.5 -30.5 102.5 -30.5 q58 0 102.5 30.5 q44.5 30.5 69 86.5 q24.5 56 24.5 129 q0 73 -24.5 128.5 q-24.5 55.5 -69 86 q-44.5 30.5 -102.5 30.5 q-58 0 -102.5 -30.5 q-44.5 -30.5 -69 -86 q-24.5 -55.5 -24.5 -128.5 Z" /><glyph glyph-name="Odieresis" unicode="Ö" d="M278 801 q-31 0 -52.5 19 q-21.5 19 -21.5 45 q0 26 21.5 44.5 q21.5 18.5 52.5 18.5 q32 0 54 -18.5 q22 -18.5 22 -44.5 q0 -26 -22 -45 q-22 -19 -54 -19 ZM503 801 q-31 0 -53 19 q-22 19 -22 45 q0 26 22 44.5 q22 18.5 53 18.5 q31 0 53 -18.5 q22 -18.5 22 -44.5 q0 -26 -22 -45 q-22 -19 -53 -19 ZM42 367 q0 115 46 201 q46 86 125.5 131.5 q79.5 45.5 177.5 45.5 q98 0 177.5 -45.5 q79.5 -45.5 126 -131.5 q46.5 -86 46.5 -201 q0 -116 -46.5 -202 q-46.5 -86 -126 -131.5 q-79.5 -45.5 -177.5 -45.5 q-98 0 -177.5 45.5 q-79.5 45.5 -125.5 131.5 q-46 86 -46 202 ZM195 367 q0 -73 24.5 -129 q24.5 -56 69 -86.5 q44.5 -30.5 102.5 -30.5 q58 0 102.5 30.5 q44.5 30.5 69 86.5 q24.5 56 24.5 129 q0 73 -24.5 128.5 q-24.5 55.5 -69 86 q-44.5 30.5 -102.5 30.5 q-58 0 -102.5 -30.5 q-44.5 -30.5 -69 -86 q-24.5 -55.5 -24.5 -128.5 Z" /><glyph glyph-name="uni1ECC" unicode="&#x1ecc;" d="M42 367 q0 115 46 201 q46 86 125.5 131.5 q79.5 45.5 177.5 45.5 q98 0 177.5 -45.5 q79.5 -45.5 126 -131.5 q46.5 -86 46.5 -201 q0 -116 -46.5 -202 q-46.5 -86 -126 -131.5 q-79.5 -45.5 -177.5 -45.5 q-98 0 -177.5 45.5 q-79.5 45.5 -125.5 131.5 q-46 86 -46 202 ZM195 367 q0 -73 24.5 -129 q24.5 -56 69 -86.5 q44.5 -30.5 102.5 -30.5 q58 0 102.5 30.5 q44.5 30.5 69 86.5 q24.5 56 24.5 129 q0 73 -24.5 128.5 q-24.5 55.5 -69 86 q-44.5 30.5 -102.5 30.5 q-58 0 -102.5 -30.5 q-44.5 -30.5 -69 -86 q-24.5 -55.5 -24.5 -128.5 ZM391 -222 q-34 0 -58 24.5 q-24 24.5 -24 57.5 q0 33 24 57 q24 24 58 24 q34 0 59 -24 q25 -24 25 -57 q0 -33 -25 -57.5 q-25 -24.5 -59 -24.5 Z" /><glyph glyph-name="Ograve" unicode="Ò" d="M206 928 l144 0 l93 -128 l-113 0 l-124 128 ZM42 367 q0 115 46 201 q46 86 125.5 131.5 q79.5 45.5 177.5 45.5 q98 0 177.5 -45.5 q79.5 -45.5 126 -131.5 q46.5 -86 46.5 -201 q0 -116 -46.5 -202 q-46.5 -86 -126 -131.5 q-79.5 -45.5 -177.5 -45.5 q-98 0 -177.5 45.5 q-79.5 45.5 -125.5 131.5 q-46 86 -46 202 ZM195 367 q0 -73 24.5 -129 q24.5 -56 69 -86.5 q44.5 -30.5 102.5 -30.5 q58 0 102.5 30.5 q44.5 30.5 69 86.5 q24.5 56 24.5 129 q0 73 -24.5 128.5 q-24.5 55.5 -69 86 q-44.5 30.5 -102.5 30.5 q-58 0 -102.5 -30.5 q-44.5 -30.5 -69 -86 q-24.5 -55.5 -24.5 -128.5 Z" /><glyph glyph-name="uni1ECE" unicode="&#x1ece;" d="M272 908 q42 20 103 20 q55 0 90.5 -17 q35.5 -17 35.5 -52 q0 -62 -117 -87 l-48 46 q32 8 48.5 16 q16.5 8 16.5 17 q0 9 -11 14.5 q-11 5.5 -30 5.5 q-33 0 -70 -17 l-18 54 ZM42 367 q0 115 46 201 q46 86 125.5 131.5 q79.5 45.5 177.5 45.5 q98 0 177.5 -45.5 q79.5 -45.5 126 -131.5 q46.5 -86 46.5 -201 q0 -116 -46.5 -202 q-46.5 -86 -126 -131.5 q-79.5 -45.5 -177.5 -45.5 q-98 0 -177.5 45.5 q-79.5 45.5 -125.5 131.5 q-46 86 -46 202 ZM195 367 q0 -73 24.5 -129 q24.5 -56 69 -86.5 q44.5 -30.5 102.5 -30.5 q58 0 102.5 30.5 q44.5 30.5 69 86.5 q24.5 56 24.5 129 q0 73 -24.5 128.5 q-24.5 55.5 -69 86 q-44.5 30.5 -102.5 30.5 q-58 0 -102.5 -30.5 q-44.5 -30.5 -69 -86 q-24.5 -55.5 -24.5 -128.5 Z" /><glyph glyph-name="Ohorn" unicode="&#x1a0;" d="M629 642 q53 -47 82.5 -116.5 q29.5 -69.5 29.5 -158.5 q0 -113 -46.5 -199 q-46.5 -86 -126.5 -133 q-80 -47 -177 -47 q-97 0 -176.5 47 q-79.5 47 -126 133 q-46.5 86 -46.5 199 q0 113 47 198.5 q47 85.5 129.5 132.5 q82.5 47 185.5 47 q31 0 83 -6 q44 -7 82 -7 q43 0 61.5 13.5 q18.5 13.5 18.5 54.5 q0 31 -7 60 l116 0 q7 -32 7 -69 q0 -77 -31.5 -110.5 q-31.5 -33.5 -104.5 -38.5 ZM391 121 q58 0 102.5 30.5 q44.5 30.5 68.5 86.5 q24 56 24 129 q0 73 -24.5 128.5 q-24.5 55.5 -68.5 86 q-44 30.5 -102 30.5 q-58 0 -102.5 -30.5 q-44.5 -30.5 -69 -86 q-24.5 -55.5 -24.5 -128.5 q0 -73 24.5 -129 q24.5 -56 69 -86.5 q44.5 -30.5 102.5 -30.5 Z" /><glyph glyph-name="uni1EDA" unicode="&#x1eda;" d="M433 928 l144 0 l-124 -128 l-113 0 l93 128 ZM629 642 q53 -47 82.5 -116.5 q29.5 -69.5 29.5 -158.5 q0 -113 -46.5 -199 q-46.5 -86 -126.5 -133 q-80 -47 -177 -47 q-97 0 -176.5 47 q-79.5 47 -126 133 q-46.5 86 -46.5 199 q0 113 47 198.5 q47 85.5 129.5 132.5 q82.5 47 185.5 47 q31 0 83 -6 q44 -7 82 -7 q43 0 61.5 13.5 q18.5 13.5 18.5 54.5 q0 31 -7 60 l116 0 q7 -32 7 -69 q0 -77 -31.5 -110.5 q-31.5 -33.5 -104.5 -38.5 ZM391 121 q58 0 102.5 30.5 q44.5 30.5 68.5 86.5 q24 56 24 129 q0 73 -24.5 128.5 q-24.5 55.5 -68.5 86 q-44 30.5 -102 30.5 q-58 0 -102.5 -30.5 q-44.5 -30.5 -69 -86 q-24.5 -55.5 -24.5 -128.5 q0 -73 24.5 -129 q24.5 -56 69 -86.5 q44.5 -30.5 102.5 -30.5 Z" /><glyph glyph-name="uni1EE2" unicode="&#x1ee2;" d="M629 642 q53 -47 82.5 -116.5 q29.5 -69.5 29.5 -158.5 q0 -113 -46.5 -199 q-46.5 -86 -126.5 -133 q-80 -47 -177 -47 q-97 0 -176.5 47 q-79.5 47 -126 133 q-46.5 86 -46.5 199 q0 113 47 198.5 q47 85.5 129.5 132.5 q82.5 47 185.5 47 q31 0 83 -6 q44 -7 82 -7 q43 0 61.5 13.5 q18.5 13.5 18.5 54.5 q0 31 -7 60 l116 0 q7 -32 7 -69 q0 -77 -31.5 -110.5 q-31.5 -33.5 -104.5 -38.5 ZM391 121 q58 0 102.5 30.5 q44.5 30.5 68.5 86.5 q24 56 24 129 q0 73 -24.5 128.5 q-24.5 55.5 -68.5 86 q-44 30.5 -102 30.5 q-58 0 -102.5 -30.5 q-44.5 -30.5 -69 -86 q-24.5 -55.5 -24.5 -128.5 q0 -73 24.5 -129 q24.5 -56 69 -86.5 q44.5 -30.5 102.5 -30.5 ZM391 -59 q34 0 59 -24 q25 -24 25 -57 q0 -33 -25 -57.5 q-25 -24.5 -59 -24.5 q-34 0 -58 24.5 q-24 24.5 -24 57.5 q0 33 24 57 q24 24 58 24 Z" /><glyph glyph-name="uni1EDC" unicode="&#x1edc;" d="M350 928 l93 -128 l-113 0 l-124 128 l144 0 ZM629 642 q53 -47 82.5 -116.5 q29.5 -69.5 29.5 -158.5 q0 -113 -46.5 -199 q-46.5 -86 -126.5 -133 q-80 -47 -177 -47 q-97 0 -176.5 47 q-79.5 47 -126 133 q-46.5 86 -46.5 199 q0 113 47 198.5 q47 85.5 129.5 132.5 q82.5 47 185.5 47 q31 0 83 -6 q44 -7 82 -7 q43 0 61.5 13.5 q18.5 13.5 18.5 54.5 q0 31 -7 60 l116 0 q7 -32 7 -69 q0 -77 -31.5 -110.5 q-31.5 -33.5 -104.5 -38.5 ZM391 121 q58 0 102.5 30.5 q44.5 30.5 68.5 86.5 q24 56 24 129 q0 73 -24.5 128.5 q-24.5 55.5 -68.5 86 q-44 30.5 -102 30.5 q-58 0 -102.5 -30.5 q-44.5 -30.5 -69 -86 q-24.5 -55.5 -24.5 -128.5 q0 -73 24.5 -129 q24.5 -56 69 -86.5 q44.5 -30.5 102.5 -30.5 Z" /><glyph glyph-name="uni1EDE" unicode="&#x1ede;" d="M360 871 q-33 0 -70 -17 l-18 54 q42 20 103 20 q55 0 90.5 -17 q35.5 -17 35.5 -52 q0 -62 -117 -87 l-48 46 q32 8 48.5 16 q16.5 8 16.5 17 q0 9 -11 14.5 q-11 5.5 -30 5.5 ZM629 642 q53 -47 82.5 -116.5 q29.5 -69.5 29.5 -158.5 q0 -113 -46.5 -199 q-46.5 -86 -126.5 -133 q-80 -47 -177 -47 q-97 0 -176.5 47 q-79.5 47 -126 133 q-46.5 86 -46.5 199 q0 113 47 198.5 q47 85.5 129.5 132.5 q82.5 47 185.5 47 q31 0 83 -6 q44 -7 82 -7 q43 0 61.5 13.5 q18.5 13.5 18.5 54.5 q0 31 -7 60 l116 0 q7 -32 7 -69 q0 -77 -31.5 -110.5 q-31.5 -33.5 -104.5 -38.5 ZM391 121 q58 0 102.5 30.5 q44.5 30.5 68.5 86.5 q24 56 24 129 q0 73 -24.5 128.5 q-24.5 55.5 -68.5 86 q-44 30.5 -102 30.5 q-58 0 -102.5 -30.5 q-44.5 -30.5 -69 -86 q-24.5 -55.5 -24.5 -128.5 q0 -73 24.5 -129 q24.5 -56 69 -86.5 q44.5 -30.5 102.5 -30.5 Z" /><glyph glyph-name="uni1EE0" unicode="&#x1ee0;" d="M330 853 q-27 0 -35 -42 l-96 0 q2 52 35.5 84.5 q33.5 32.5 87.5 32.5 q32 0 52.5 -9.5 q20.5 -9.5 41.5 -26.5 q13 -10 20.5 -14.5 q7.5 -4.5 16.5 -4.5 q28 0 35 43 l95 0 q-2 -53 -35 -85.5 q-33 -32.5 -87 -32.5 q-32 0 -52.5 9.5 q-20.5 9.5 -41.5 26.5 q-13 10 -20.5 14.5 q-7.5 4.5 -16.5 4.5 ZM629 642 q53 -47 82.5 -116.5 q29.5 -69.5 29.5 -158.5 q0 -113 -46.5 -199 q-46.5 -86 -126.5 -133 q-80 -47 -177 -47 q-97 0 -176.5 47 q-79.5 47 -126 133 q-46.5 86 -46.5 199 q0 113 47 198.5 q47 85.5 129.5 132.5 q82.5 47 185.5 47 q31 0 83 -6 q44 -7 82 -7 q43 0 61.5 13.5 q18.5 13.5 18.5 54.5 q0 31 -7 60 l116 0 q7 -32 7 -69 q0 -77 -31.5 -110.5 q-31.5 -33.5 -104.5 -38.5 ZM391 121 q58 0 102.5 30.5 q44.5 30.5 68.5 86.5 q24 56 24 129 q0 73 -24.5 128.5 q-24.5 55.5 -68.5 86 q-44 30.5 -102 30.5 q-58 0 -102.5 -30.5 q-44.5 -30.5 -69 -86 q-24.5 -55.5 -24.5 -128.5 q0 -73 24.5 -129 q24.5 -56 69 -86.5 q44.5 -30.5 102.5 -30.5 Z" /><glyph glyph-name="Ohungarumlaut" unicode="&#x150;" d="M251 799 l90 129 l130 0 l-120 -129 l-100 0 ZM429 799 l90 129 l130 0 l-120 -129 l-100 0 ZM42 367 q0 115 46 201 q46 86 125.5 131.5 q79.5 45.5 177.5 45.5 q98 0 177.5 -45.5 q79.5 -45.5 126 -131.5 q46.5 -86 46.5 -201 q0 -116 -46.5 -202 q-46.5 -86 -126 -131.5 q-79.5 -45.5 -177.5 -45.5 q-98 0 -177.5 45.5 q-79.5 45.5 -125.5 131.5 q-46 86 -46 202 ZM195 367 q0 -73 24.5 -129 q24.5 -56 69 -86.5 q44.5 -30.5 102.5 -30.5 q58 0 102.5 30.5 q44.5 30.5 69 86.5 q24.5 56 24.5 129 q0 73 -24.5 128.5 q-24.5 55.5 -69 86 q-44.5 30.5 -102.5 30.5 q-58 0 -102.5 -30.5 q-44.5 -30.5 -69 -86 q-24.5 -55.5 -24.5 -128.5 Z" /><glyph glyph-name="Omacron" unicode="&#x14c;" d="M220 831 l0 95 l342 0 l0 -95 l-342 0 ZM42 367 q0 115 46 201 q46 86 125.5 131.5 q79.5 45.5 177.5 45.5 q98 0 177.5 -45.5 q79.5 -45.5 126 -131.5 q46.5 -86 46.5 -201 q0 -116 -46.5 -202 q-46.5 -86 -126 -131.5 q-79.5 -45.5 -177.5 -45.5 q-98 0 -177.5 45.5 q-79.5 45.5 -125.5 131.5 q-46 86 -46 202 ZM195 367 q0 -73 24.5 -129 q24.5 -56 69 -86.5 q44.5 -30.5 102.5 -30.5 q58 0 102.5 30.5 q44.5 30.5 69 86.5 q24.5 56 24.5 129 q0 73 -24.5 128.5 q-24.5 55.5 -69 86 q-44.5 30.5 -102.5 30.5 q-58 0 -102.5 -30.5 q-44.5 -30.5 -69 -86 q-24.5 -55.5 -24.5 -128.5 Z" /><glyph glyph-name="Oslash" unicode="Ø" d="M596 768 l147 0 l-94 -136 q44 -50 68.5 -117.5 q24.5 -67.5 24.5 -147.5 q0 -113 -46.5 -199 q-46.5 -86 -126 -133 q-79.5 -47 -176.5 -47 q-89 0 -161 40 l-43 -63 l-147 0 l94 136 q-44 50 -68 117.5 q-24 67.5 -24 148.5 q0 112 46.5 198 q46.5 86 126 133 q79.5 47 176.5 47 q86 0 160 -40 l43 63 ZM191 367 q0 -79 31 -139 l253 363 q-36 21 -82 21 q-60 0 -105.5 -30.5 q-45.5 -30.5 -71 -86 q-25.5 -55.5 -25.5 -128.5 ZM593 367 q0 79 -31 138 l-252 -363 q36 -21 83 -21 q59 0 104.5 30.5 q45.5 30.5 70.5 86.5 q25 56 25 129 Z" /><glyph glyph-name="Oslashacute" unicode="&#x1fe;" d="M341 800 l93 128 l144 0 l-123 -128 l-114 0 ZM596 768 l147 0 l-94 -136 q44 -50 68.5 -117.5 q24.5 -67.5 24.5 -147.5 q0 -113 -46.5 -199 q-46.5 -86 -126 -133 q-79.5 -47 -176.5 -47 q-89 0 -161 40 l-43 -63 l-147 0 l94 136 q-44 50 -68 117.5 q-24 67.5 -24 148.5 q0 112 46.5 198 q46.5 86 126 133 q79.5 47 176.5 47 q86 0 160 -40 l43 63 ZM191 367 q0 -79 31 -139 l253 363 q-36 21 -82 21 q-60 0 -105.5 -30.5 q-45.5 -30.5 -71 -86 q-25.5 -55.5 -25.5 -128.5 ZM593 367 q0 79 -31 138 l-252 -363 q36 -21 83 -21 q59 0 104.5 30.5 q45.5 30.5 70.5 86.5 q25 56 25 129 Z" /><glyph glyph-name="Otilde" unicode="Õ" d="M199 811 q2 52 35.5 84.5 q33.5 32.5 87.5 32.5 q32 0 52.5 -9.5 q20.5 -9.5 41.5 -26.5 q13 -10 20.5 -14.5 q7.5 -4.5 16.5 -4.5 q28 0 35 43 l95 0 q-2 -53 -35 -85.5 q-33 -32.5 -87 -32.5 q-32 0 -52.5 9.5 q-20.5 9.5 -41.5 26.5 q-13 10 -20.5 14.5 q-7.5 4.5 -16.5 4.5 q-27 0 -35 -42 l-96 0 ZM42 367 q0 115 46 201 q46 86 125.5 131.5 q79.5 45.5 177.5 45.5 q98 0 177.5 -45.5 q79.5 -45.5 126 -131.5 q46.5 -86 46.5 -201 q0 -116 -46.5 -202 q-46.5 -86 -126 -131.5 q-79.5 -45.5 -177.5 -45.5 q-98 0 -177.5 45.5 q-79.5 45.5 -125.5 131.5 q-46 86 -46 202 ZM195 367 q0 -73 24.5 -129 q24.5 -56 69 -86.5 q44.5 -30.5 102.5 -30.5 q58 0 102.5 30.5 q44.5 30.5 69 86.5 q24.5 56 24.5 129 q0 73 -24.5 128.5 q-24.5 55.5 -69 86 q-44.5 30.5 -102.5 30.5 q-58 0 -102.5 -30.5 q-44.5 -30.5 -69 -86 q-24.5 -55.5 -24.5 -128.5 Z" /><glyph glyph-name="OE" unicode="&#x152;" d="M732 309 l0 -182 l343 0 l0 -127 l-489 0 l0 79 q-39 -44 -92.5 -67.5 q-53.5 -23.5 -115.5 -23.5 q-91 0 -168 47 q-77 47 -122.5 133 q-45.5 86 -45.5 199 q0 112 45.5 198 q45.5 86 122.5 133 q77 47 168 47 q62 0 115.5 -23.5 q53.5 -23.5 92.5 -67.5 l0 78 l478 0 l0 -126 l-332 0 l0 -172 l297 0 l0 -125 l-297 0 ZM391 121 q58 0 102.5 30.5 q44.5 30.5 68.5 86.5 q24 56 24 129 q0 73 -24.5 128.5 q-24.5 55.5 -68.5 86 q-44 30.5 -102 30.5 q-58 0 -102.5 -30.5 q-44.5 -30.5 -69 -86 q-24.5 -55.5 -24.5 -128.5 q0 -73 24.5 -129 q24.5 -56 69 -86.5 q44.5 -30.5 102.5 -30.5 Z" /><glyph glyph-name="P" unicode="P" d="M329 732 q87 0 152 -30 q65 -30 100.5 -84.5 q35.5 -54.5 35.5 -127.5 q0 -72 -35.5 -126.5 q-35.5 -54.5 -100.5 -84 q-65 -29.5 -152 -29.5 l-107 0 l0 -250 l-145 0 l0 732 l252 0 ZM313 373 q68 0 109 29.5 q41 29.5 41 87.5 q0 58 -41 88.5 q-41 30.5 -109 30.5 l-91 0 l0 -236 l91 0 Z" /><glyph glyph-name="Thorn" unicode="Þ" d="M329 608 q87 0 152 -30 q65 -30 100.5 -84.5 q35.5 -54.5 35.5 -127.5 q0 -72 -35.5 -126.5 q-35.5 -54.5 -100.5 -84 q-65 -29.5 -152 -29.5 l-107 0 l0 -126 l-145 0 l0 732 l145 0 l0 -124 l107 0 ZM312 249 q61 0 106 27 q45 27 45 90 q0 60 -42 89.5 q-42 29.5 -109 29.5 l-90 0 l0 -236 l90 0 Z" /><glyph glyph-name="Q" unicode="Q" d="M813 -167 l-201 0 l-184 157 q-24 -2 -37 -2 q-98 0 -177.5 45.5 q-79.5 45.5 -125.5 131.5 q-46 86 -46 202 q0 115 46 201 q46 86 125.5 131.5 q79.5 45.5 177.5 45.5 q98 0 177.5 -45.5 q79.5 -45.5 126 -131.5 q46.5 -86 46.5 -201 q0 -112 -44 -196.5 q-44 -84.5 -119 -131.5 l235 -206 ZM195 367 q0 -73 24.5 -129 q24.5 -56 69 -86.5 q44.5 -30.5 102.5 -30.5 q58 0 102.5 30.5 q44.5 30.5 69 86.5 q24.5 56 24.5 129 q0 73 -24.5 128.5 q-24.5 55.5 -69 86 q-44.5 30.5 -102.5 30.5 q-58 0 -102.5 -30.5 q-44.5 -30.5 -69 -86 q-24.5 -55.5 -24.5 -128.5 Z" /><glyph glyph-name="R" unicode="R" d="M685 0 l-173 1 l-178 263 l-6 0 l-106 0 l0 -264 l-145 0 l0 732 l253 0 q86 0 151 -29 q65 -29 100 -82.5 q35 -53.5 35 -122.5 q0 -70 -36 -123 q-36 -53 -101 -81 l206 -294 ZM222 609 l0 -222 l91 0 q64 0 106.5 27.5 q42.5 27.5 42.5 83.5 q0 57 -42 84 q-42 27 -107 27 l-91 0 Z" /><glyph glyph-name="Racute" unicode="&#x154;" d="M251 801 l93 127 l144 0 l-124 -127 l-113 0 ZM685 0 l-173 1 l-178 263 l-6 0 l-106 0 l0 -264 l-145 0 l0 732 l253 0 q86 0 151 -29 q65 -29 100 -82.5 q35 -53.5 35 -122.5 q0 -70 -36 -123 q-36 -53 -101 -81 l206 -294 ZM222 609 l0 -222 l91 0 q64 0 106.5 27.5 q42.5 27.5 42.5 83.5 q0 57 -42 84 q-42 27 -107 27 l-91 0 Z" /><glyph glyph-name="Rcaron" unicode="&#x158;" d="M237 928 l66 -65 l64 65 l122 0 l-133 -128 l-108 0 l-133 128 l122 0 ZM685 0 l-173 1 l-178 263 l-6 0 l-106 0 l0 -264 l-145 0 l0 732 l253 0 q86 0 151 -29 q65 -29 100 -82.5 q35 -53.5 35 -122.5 q0 -70 -36 -123 q-36 -53 -101 -81 l206 -294 ZM222 609 l0 -222 l91 0 q64 0 106.5 27.5 q42.5 27.5 42.5 83.5 q0 57 -42 84 q-42 27 -107 27 l-91 0 Z" /><glyph glyph-name="uni0156" unicode="&#x156;" d="M685 0 l-173 1 l-178 263 l-6 0 l-106 0 l0 -264 l-145 0 l0 732 l253 0 q86 0 151 -29 q65 -29 100 -82.5 q35 -53.5 35 -122.5 q0 -70 -36 -123 q-36 -53 -101 -81 l206 -294 ZM313 387 q64 0 106.5 27.5 q42.5 27.5 42.5 83.5 q0 57 -42 84 q-42 27 -107 27 l-91 0 l0 -222 l91 0 ZM368 -33 q38 0 62 -22 q24 -22 24 -65 q0 -56 -40.5 -88 q-40.5 -32 -115.5 -36 l0 54 q63 9 74 41 l-5 0 q-33 0 -52.5 15 q-19.5 15 -19.5 41 q0 27 20.5 43.5 q20.5 16.5 52.5 16.5 Z" /><glyph glyph-name="S" unicode="S" d="M571 212 q0 -75 -38.5 -125.5 q-38.5 -50.5 -100 -74.5 q-61.5 -24 -131.5 -24 q-102 0 -184 47.5 q-82 47.5 -109 134.5 l118 67 q24 -56 70 -87 q46 -31 110 -31 q52 0 82.5 21 q30.5 21 30.5 61 q0 32 -20.5 53 q-20.5 21 -51 33 q-30.5 12 -83.5 28 q-71 21 -116 41.5 q-45 20.5 -77 61.5 q-32 41 -32 108 q0 71 37.5 120.5 q37.5 49.5 99 74 q61.5 24.5 132.5 24.5 q97 0 166 -44 q69 -44 89 -119 l-118 -67 q-18 47 -54 73.5 q-36 26.5 -90 26.5 q-49 0 -79.5 -22.5 q-30.5 -22.5 -30.5 -59.5 q0 -28 19 -46.5 q19 -18.5 48.5 -30 q29.5 -11.5 79.5 -26.5 q72 -21 119 -42.5 q47 -21.5 80.5 -64 q33.5 -42.5 33.5 -111.5 Z" /><glyph glyph-name="Sacute" unicode="&#x15a;" d="M255 800 l93 128 l144 0 l-124 -128 l-113 0 ZM571 212 q0 -75 -38.5 -125.5 q-38.5 -50.5 -100 -74.5 q-61.5 -24 -131.5 -24 q-102 0 -184 47.5 q-82 47.5 -109 134.5 l118 67 q24 -56 70 -87 q46 -31 110 -31 q52 0 82.5 21 q30.5 21 30.5 61 q0 32 -20.5 53 q-20.5 21 -51 33 q-30.5 12 -83.5 28 q-71 21 -116 41.5 q-45 20.5 -77 61.5 q-32 41 -32 108 q0 71 37.5 120.5 q37.5 49.5 99 74 q61.5 24.5 132.5 24.5 q97 0 166 -44 q69 -44 89 -119 l-118 -67 q-18 47 -54 73.5 q-36 26.5 -90 26.5 q-49 0 -79.5 -22.5 q-30.5 -22.5 -30.5 -59.5 q0 -28 19 -46.5 q19 -18.5 48.5 -30 q29.5 -11.5 79.5 -26.5 q72 -21 119 -42.5 q47 -21.5 80.5 -64 q33.5 -42.5 33.5 -111.5 Z" /><glyph glyph-name="Scaron" unicode="&#x160;" d="M241 928 l65 -65 l65 65 l122 0 l-133 -129 l-109 0 l-132 129 l122 0 ZM571 212 q0 -75 -38.5 -125.5 q-38.5 -50.5 -100 -74.5 q-61.5 -24 -131.5 -24 q-102 0 -184 47.5 q-82 47.5 -109 134.5 l118 67 q24 -56 70 -87 q46 -31 110 -31 q52 0 82.5 21 q30.5 21 30.5 61 q0 32 -20.5 53 q-20.5 21 -51 33 q-30.5 12 -83.5 28 q-71 21 -116 41.5 q-45 20.5 -77 61.5 q-32 41 -32 108 q0 71 37.5 120.5 q37.5 49.5 99 74 q61.5 24.5 132.5 24.5 q97 0 166 -44 q69 -44 89 -119 l-118 -67 q-18 47 -54 73.5 q-36 26.5 -90 26.5 q-49 0 -79.5 -22.5 q-30.5 -22.5 -30.5 -59.5 q0 -28 19 -46.5 q19 -18.5 48.5 -30 q29.5 -11.5 79.5 -26.5 q72 -21 119 -42.5 q47 -21.5 80.5 -64 q33.5 -42.5 33.5 -111.5 Z" /><glyph glyph-name="Scedilla" unicode="&#x15e;" d="M571 212 q0 -73 -36 -122.5 q-36 -49.5 -93.5 -74 q-57.5 -24.5 -125.5 -27.5 l-20 -44 q48 -1 79.5 -24 q31.5 -23 31.5 -66 q0 -49 -43 -73.5 q-43 -24.5 -104 -24.5 q-38 0 -81 12 l0 70 q41 -12 77 -12 q54 0 54 26 q0 13 -14.5 19.5 q-14.5 6.5 -39.5 6.5 q-24 0 -54 -6 l-9 47 l33 76 q-79 15 -137 60 q-58 45 -81 115 l118 67 q24 -56 70 -87 q46 -31 110 -31 q52 0 82.5 21 q30.5 21 30.5 61 q0 32 -20.5 53 q-20.5 21 -51 33 q-30.5 12 -83.5 28 q-71 21 -116 41.5 q-45 20.5 -77 61.5 q-32 41 -32 108 q0 71 37.5 120.5 q37.5 49.5 99 74 q61.5 24.5 132.5 24.5 q97 0 166 -44 q69 -44 89 -119 l-118 -67 q-18 47 -54 73.5 q-36 26.5 -90 26.5 q-49 0 -79.5 -22.5 q-30.5 -22.5 -30.5 -59.5 q0 -28 19 -46.5 q19 -18.5 48.5 -30 q29.5 -11.5 79.5 -26.5 q72 -21 119 -42.5 q47 -21.5 80.5 -64 q33.5 -42.5 33.5 -111.5 Z" /><glyph glyph-name="Scircumflex" unicode="&#x15c;" d="M251 928 l109 0 l133 -129 l-122 0 l-65 66 l-65 -66 l-122 0 l132 129 ZM571 212 q0 -75 -38.5 -125.5 q-38.5 -50.5 -100 -74.5 q-61.5 -24 -131.5 -24 q-102 0 -184 47.5 q-82 47.5 -109 134.5 l118 67 q24 -56 70 -87 q46 -31 110 -31 q52 0 82.5 21 q30.5 21 30.5 61 q0 32 -20.5 53 q-20.5 21 -51 33 q-30.5 12 -83.5 28 q-71 21 -116 41.5 q-45 20.5 -77 61.5 q-32 41 -32 108 q0 71 37.5 120.5 q37.5 49.5 99 74 q61.5 24.5 132.5 24.5 q97 0 166 -44 q69 -44 89 -119 l-118 -67 q-18 47 -54 73.5 q-36 26.5 -90 26.5 q-49 0 -79.5 -22.5 q-30.5 -22.5 -30.5 -59.5 q0 -28 19 -46.5 q19 -18.5 48.5 -30 q29.5 -11.5 79.5 -26.5 q72 -21 119 -42.5 q47 -21.5 80.5 -64 q33.5 -42.5 33.5 -111.5 Z" /><glyph glyph-name="uni0218" unicode="&#x218;" d="M571 212 q0 -75 -38.5 -125.5 q-38.5 -50.5 -100 -74.5 q-61.5 -24 -131.5 -24 q-102 0 -184 47.5 q-82 47.5 -109 134.5 l118 67 q24 -56 70 -87 q46 -31 110 -31 q52 0 82.5 21 q30.5 21 30.5 61 q0 32 -20.5 53 q-20.5 21 -51 33 q-30.5 12 -83.5 28 q-71 21 -116 41.5 q-45 20.5 -77 61.5 q-32 41 -32 108 q0 71 37.5 120.5 q37.5 49.5 99 74 q61.5 24.5 132.5 24.5 q97 0 166 -44 q69 -44 89 -119 l-118 -67 q-18 47 -54 73.5 q-36 26.5 -90 26.5 q-49 0 -79.5 -22.5 q-30.5 -22.5 -30.5 -59.5 q0 -28 19 -46.5 q19 -18.5 48.5 -30 q29.5 -11.5 79.5 -26.5 q72 -21 119 -42.5 q47 -21.5 80.5 -64 q33.5 -42.5 33.5 -111.5 ZM282 -33 q39 0 62.5 -22 q23.5 -22 23.5 -65 q0 -56 -40.5 -88 q-40.5 -32 -115.5 -36 l0 54 q63 9 75 41 l-6 0 q-33 0 -52.5 15 q-19.5 15 -19.5 41 q0 27 20.5 43.5 q20.5 16.5 52.5 16.5 Z" /><glyph glyph-name="uni018F" unicode="&#x18f;" d="M358 745 q98 0 174.5 -43 q76.5 -43 120 -128.5 q43.5 -85.5 43.5 -208.5 q0 -121 -44.5 -206 q-44.5 -85 -121.5 -128 q-77 -43 -173 -43 q-94 0 -164.5 41 q-70.5 41 -108.5 115.5 q-38 74.5 -38 172.5 q0 46 9 97 l485 0 q-10 99 -57 150 q-47 51 -131 51 q-60 0 -102.5 -28.5 q-42.5 -28.5 -74.5 -85.5 l-108 75 q37 82 115 125.5 q78 43.5 176 43.5 ZM360 117 q77 0 122 44 q45 44 56 128 l-338 0 q1 -85 43.5 -128.5 q42.5 -43.5 116.5 -43.5 Z" /><glyph glyph-name="T" unicode="T" d="M8 732 l590 0 l0 -129 l-222 0 l0 -603 l-146 0 l0 603 l-222 0 l0 129 Z" /><glyph glyph-name="Tbar" unicode="&#x166;" d="M8 732 l590 0 l0 -129 l-222 0 l0 -190 l143 0 l0 -129 l-143 0 l0 -284 l-146 0 l0 284 l-141 0 l0 129 l141 0 l0 190 l-222 0 l0 129 Z" /><glyph glyph-name="Tcaron" unicode="&#x164;" d="M238 928 l66 -65 l64 65 l122 0 l-133 -129 l-108 0 l-133 129 l122 0 ZM8 732 l590 0 l0 -129 l-222 0 l0 -603 l-146 0 l0 603 l-222 0 l0 129 Z" /><glyph glyph-name="uni0162" unicode="&#x162;" d="M376 603 l0 -603 l-23 0 l-25 -56 q48 -1 79.5 -24 q31.5 -23 31.5 -65 q0 -50 -43 -74.5 q-43 -24.5 -104 -24.5 q-39 0 -80 12 l0 70 q39 -12 76 -12 q55 0 55 26 q0 13 -14.5 19.5 q-14.5 6.5 -40.5 6.5 q-24 0 -54 -6 l-9 47 l36 81 l-31 0 l0 603 l-222 0 l0 129 l590 0 l0 -129 l-222 0 Z" /><glyph glyph-name="uni021A" unicode="&#x21a;" d="M230 603 l-222 0 l0 129 l590 0 l0 -129 l-222 0 l0 -603 l-146 0 l0 603 ZM300 -33 q38 0 62 -22 q24 -22 24 -65 q0 -56 -40.5 -88 q-40.5 -32 -115.5 -36 l0 54 q63 10 74 41 l-5 0 q-33 0 -52.5 15 q-19.5 15 -19.5 41 q0 27 20.5 43.5 q20.5 16.5 52.5 16.5 Z" /><glyph glyph-name="U" unicode="U" d="M545 732 l145 0 l0 -436 q0 -94 -37 -163.5 q-37 -69.5 -107 -107 q-70 -37.5 -166 -37.5 q-97 0 -167 37.5 q-70 37.5 -107 107 q-37 69.5 -37 163.5 l0 436 l145 0 l0 -401 q0 -106 43.5 -158 q43.5 -52 122.5 -52 q78 0 121.5 52 q43.5 52 43.5 158 l0 401 Z" /><glyph glyph-name="Uacute" unicode="Ú" d="M328 800 l93 128 l144 0 l-124 -128 l-113 0 ZM545 732 l145 0 l0 -436 q0 -94 -37 -163.5 q-37 -69.5 -107 -107 q-70 -37.5 -166 -37.5 q-97 0 -167 37.5 q-70 37.5 -107 107 q-37 69.5 -37 163.5 l0 436 l145 0 l0 -401 q0 -106 43.5 -158 q43.5 -52 122.5 -52 q78 0 121.5 52 q43.5 52 43.5 158 l0 401 Z" /><glyph glyph-name="Ubreve" unicode="&#x16c;" d="M380 798 q-81 0 -128.5 35 q-47.5 35 -47.5 95 l108 0 q8 -61 68 -61 q62 0 68 61 l109 0 q0 -60 -48 -95 q-48 -35 -129 -35 ZM545 732 l145 0 l0 -436 q0 -94 -37 -163.5 q-37 -69.5 -107 -107 q-70 -37.5 -166 -37.5 q-97 0 -167 37.5 q-70 37.5 -107 107 q-37 69.5 -37 163.5 l0 436 l145 0 l0 -401 q0 -106 43.5 -158 q43.5 -52 122.5 -52 q78 0 121.5 52 q43.5 52 43.5 158 l0 401 Z" /><glyph glyph-name="uni01D3" unicode="&#x1d3;" d="M314 928 l66 -65 l64 65 l122 0 l-132 -129 l-109 0 l-133 129 l122 0 ZM545 732 l145 0 l0 -436 q0 -94 -37 -163.5 q-37 -69.5 -107 -107 q-70 -37.5 -166 -37.5 q-97 0 -167 37.5 q-70 37.5 -107 107 q-37 69.5 -37 163.5 l0 436 l145 0 l0 -401 q0 -106 43.5 -158 q43.5 -52 122.5 -52 q78 0 121.5 52 q43.5 52 43.5 158 l0 401 Z" /><glyph glyph-name="Ucircumflex" unicode="Û" d="M325 928 l109 0 l132 -129 l-122 0 l-64 65 l-66 -65 l-122 0 l133 129 ZM545 732 l145 0 l0 -436 q0 -94 -37 -163.5 q-37 -69.5 -107 -107 q-70 -37.5 -166 -37.5 q-97 0 -167 37.5 q-70 37.5 -107 107 q-37 69.5 -37 163.5 l0 436 l145 0 l0 -401 q0 -106 43.5 -158 q43.5 -52 122.5 -52 q78 0 121.5 52 q43.5 52 43.5 158 l0 401 Z" /><glyph glyph-name="Udieresis" unicode="Ü" d="M266 801 q-31 0 -52 19 q-21 19 -21 45 q0 26 21.5 44.5 q21.5 18.5 51.5 18.5 q32 0 54 -18.5 q22 -18.5 22 -44.5 q0 -26 -22 -45 q-22 -19 -54 -19 ZM491 801 q-31 0 -52.5 19 q-21.5 19 -21.5 45 q0 26 21.5 44.5 q21.5 18.5 52.5 18.5 q31 0 53 -18.5 q22 -18.5 22 -44.5 q0 -26 -22 -45 q-22 -19 -53 -19 ZM545 732 l145 0 l0 -436 q0 -94 -37 -163.5 q-37 -69.5 -107 -107 q-70 -37.5 -166 -37.5 q-97 0 -167 37.5 q-70 37.5 -107 107 q-37 69.5 -37 163.5 l0 436 l145 0 l0 -401 q0 -106 43.5 -158 q43.5 -52 122.5 -52 q78 0 121.5 52 q43.5 52 43.5 158 l0 401 Z" /><glyph glyph-name="uni01D7" unicode="&#x1d7;" d="M327 867 l93 61 l144 0 l-123 -61 l-114 0 ZM266 774 q-31 0 -52 11.5 q-21 11.5 -21 28.5 q0 17 21.5 29 q21.5 12 51.5 12 q32 0 54 -12 q22 -12 22 -29 q0 -17 -22 -28.5 q-22 -11.5 -54 -11.5 ZM491 774 q-31 0 -52.5 11.5 q-21.5 11.5 -21.5 28.5 q0 17 21.5 29 q21.5 12 52.5 12 q31 0 53 -12 q22 -12 22 -29 q0 -17 -22 -28.5 q-22 -11.5 -53 -11.5 ZM545 732 l145 0 l0 -436 q0 -94 -37 -163.5 q-37 -69.5 -107 -107 q-70 -37.5 -166 -37.5 q-97 0 -167 37.5 q-70 37.5 -107 107 q-37 69.5 -37 163.5 l0 436 l145 0 l0 -401 q0 -106 43.5 -158 q43.5 -52 122.5 -52 q78 0 121.5 52 q43.5 52 43.5 158 l0 401 Z" /><glyph glyph-name="uni01D9" unicode="&#x1d9;" d="M565 928 l-132 -61 l-109 0 l-132 61 l130 0 l57 -26 l56 26 l130 0 ZM266 774 q-31 0 -52 11.5 q-21 11.5 -21 28.5 q0 17 21.5 29 q21.5 12 51.5 12 q32 0 54 -12 q22 -12 22 -29 q0 -17 -22 -28.5 q-22 -11.5 -54 -11.5 ZM491 774 q-31 0 -52.5 11.5 q-21.5 11.5 -21.5 28.5 q0 17 21.5 29 q21.5 12 52.5 12 q31 0 53 -12 q22 -12 22 -29 q0 -17 -22 -28.5 q-22 -11.5 -53 -11.5 ZM545 732 l145 0 l0 -436 q0 -94 -37 -163.5 q-37 -69.5 -107 -107 q-70 -37.5 -166 -37.5 q-97 0 -167 37.5 q-70 37.5 -107 107 q-37 69.5 -37 163.5 l0 436 l145 0 l0 -401 q0 -106 43.5 -158 q43.5 -52 122.5 -52 q78 0 121.5 52 q43.5 52 43.5 158 l0 401 Z" /><glyph glyph-name="uni01DB" unicode="&#x1db;" d="M194 928 l144 0 l93 -61 l-114 0 l-123 61 ZM266 774 q-31 0 -52 11.5 q-21 11.5 -21 28.5 q0 17 21.5 29 q21.5 12 51.5 12 q32 0 54 -12 q22 -12 22 -29 q0 -17 -22 -28.5 q-22 -11.5 -54 -11.5 ZM491 774 q-31 0 -52.5 11.5 q-21.5 11.5 -21.5 28.5 q0 17 21.5 29 q21.5 12 52.5 12 q31 0 53 -12 q22 -12 22 -29 q0 -17 -22 -28.5 q-22 -11.5 -53 -11.5 ZM545 732 l145 0 l0 -436 q0 -94 -37 -163.5 q-37 -69.5 -107 -107 q-70 -37.5 -166 -37.5 q-97 0 -167 37.5 q-70 37.5 -107 107 q-37 69.5 -37 163.5 l0 436 l145 0 l0 -401 q0 -106 43.5 -158 q43.5 -52 122.5 -52 q78 0 121.5 52 q43.5 52 43.5 158 l0 401 Z" /><glyph glyph-name="uni01D5" unicode="&#x1d5;" d="M208 881 l0 47 l342 0 l0 -47 l-342 0 ZM266 774 q-31 0 -52 12.5 q-21 12.5 -21 30.5 q0 17 21 29.5 q21 12.5 52 12.5 q32 0 54 -12.5 q22 -12.5 22 -29.5 q0 -18 -22 -30.5 q-22 -12.5 -54 -12.5 ZM491 774 q-31 0 -52.5 12.5 q-21.5 12.5 -21.5 30.5 q0 17 21.5 29.5 q21.5 12.5 52.5 12.5 q31 0 53 -12.5 q22 -12.5 22 -29.5 q0 -18 -22 -30.5 q-22 -12.5 -53 -12.5 ZM545 732 l145 0 l0 -436 q0 -94 -37 -163.5 q-37 -69.5 -107 -107 q-70 -37.5 -166 -37.5 q-97 0 -167 37.5 q-70 37.5 -107 107 q-37 69.5 -37 163.5 l0 436 l145 0 l0 -401 q0 -106 43.5 -158 q43.5 -52 122.5 -52 q78 0 121.5 52 q43.5 52 43.5 158 l0 401 Z" /><glyph glyph-name="uni1EE4" unicode="&#x1ee4;" d="M545 732 l145 0 l0 -436 q0 -94 -37 -163.5 q-37 -69.5 -107 -107 q-70 -37.5 -166 -37.5 q-97 0 -167 37.5 q-70 37.5 -107 107 q-37 69.5 -37 163.5 l0 436 l145 0 l0 -401 q0 -106 43.5 -158 q43.5 -52 122.5 -52 q78 0 121.5 52 q43.5 52 43.5 158 l0 401 ZM380 -222 q-34 0 -58.5 24.5 q-24.5 24.5 -24.5 57.5 q0 33 24.5 57 q24.5 24 58.5 24 q34 0 58.5 -24 q24.5 -24 24.5 -57 q0 -33 -24.5 -57.5 q-24.5 -24.5 -58.5 -24.5 Z" /><glyph glyph-name="Ugrave" unicode="Ù" d="M194 928 l144 0 l93 -128 l-113 0 l-124 128 ZM545 732 l145 0 l0 -436 q0 -94 -37 -163.5 q-37 -69.5 -107 -107 q-70 -37.5 -166 -37.5 q-97 0 -167 37.5 q-70 37.5 -107 107 q-37 69.5 -37 163.5 l0 436 l145 0 l0 -401 q0 -106 43.5 -158 q43.5 -52 122.5 -52 q78 0 121.5 52 q43.5 52 43.5 158 l0 401 Z" /><glyph glyph-name="uni1EE6" unicode="&#x1ee6;" d="M260 908 q42 20 103 20 q55 0 91 -17 q36 -17 36 -52 q0 -62 -118 -87 l-47 46 q32 8 48 16 q16 8 16 17 q0 9 -11 14.5 q-11 5.5 -30 5.5 q-33 0 -70 -17 l-18 54 ZM545 732 l145 0 l0 -436 q0 -94 -37 -163.5 q-37 -69.5 -107 -107 q-70 -37.5 -166 -37.5 q-97 0 -167 37.5 q-70 37.5 -107 107 q-37 69.5 -37 163.5 l0 436 l145 0 l0 -401 q0 -106 43.5 -158 q43.5 -52 122.5 -52 q78 0 121.5 52 q43.5 52 43.5 158 l0 401 Z" /><glyph glyph-name="Uhorn" unicode="&#x1af;" d="M831 791 q0 -77 -32 -110 q-32 -33 -109 -40 l0 -345 q0 -94 -37 -163.5 q-37 -69.5 -107 -107 q-70 -37.5 -166 -37.5 q-97 0 -167 37.5 q-70 37.5 -107 107 q-37 69.5 -37 163.5 l0 436 l145 0 l0 -401 q0 -106 43.5 -158 q43.5 -52 122.5 -52 q78 0 121 52 q43 52 43 158 l0 401 l65 0 q44 0 65.5 4.5 q21.5 4.5 30.5 18.5 q9 14 9 43 q0 31 -7 62 l117 0 q7 -34 7 -69 Z" /><glyph glyph-name="uni1EE8" unicode="&#x1ee8;" d="M328 800 l93 128 l144 0 l-124 -128 l-113 0 ZM831 791 q0 -77 -32 -110 q-32 -33 -109 -40 l0 -345 q0 -94 -37 -163.5 q-37 -69.5 -107 -107 q-70 -37.5 -166 -37.5 q-97 0 -167 37.5 q-70 37.5 -107 107 q-37 69.5 -37 163.5 l0 436 l145 0 l0 -401 q0 -106 43.5 -158 q43.5 -52 122.5 -52 q78 0 121 52 q43 52 43 158 l0 401 l65 0 q44 0 65.5 4.5 q21.5 4.5 30.5 18.5 q9 14 9 43 q0 31 -7 62 l117 0 q7 -34 7 -69 Z" /><glyph glyph-name="uni1EF0" unicode="&#x1ef0;" d="M831 791 q0 -77 -32 -110 q-32 -33 -109 -40 l0 -345 q0 -94 -37 -163.5 q-37 -69.5 -107 -107 q-70 -37.5 -166 -37.5 q-97 0 -167 37.5 q-70 37.5 -107 107 q-37 69.5 -37 163.5 l0 436 l145 0 l0 -401 q0 -106 43.5 -158 q43.5 -52 122.5 -52 q78 0 121 52 q43 52 43 158 l0 401 l65 0 q44 0 65.5 4.5 q21.5 4.5 30.5 18.5 q9 14 9 43 q0 31 -7 62 l117 0 q7 -34 7 -69 ZM380 -222 q-34 0 -58.5 24.5 q-24.5 24.5 -24.5 57.5 q0 33 24.5 57 q24.5 24 58.5 24 q34 0 58.5 -24 q24.5 -24 24.5 -57 q0 -33 -24.5 -57.5 q-24.5 -24.5 -58.5 -24.5 Z" /><glyph glyph-name="uni1EEA" unicode="&#x1eea;" d="M194 928 l144 0 l93 -128 l-113 0 l-124 128 ZM831 791 q0 -77 -32 -110 q-32 -33 -109 -40 l0 -345 q0 -94 -37 -163.5 q-37 -69.5 -107 -107 q-70 -37.5 -166 -37.5 q-97 0 -167 37.5 q-70 37.5 -107 107 q-37 69.5 -37 163.5 l0 436 l145 0 l0 -401 q0 -106 43.5 -158 q43.5 -52 122.5 -52 q78 0 121 52 q43 52 43 158 l0 401 l65 0 q44 0 65.5 4.5 q21.5 4.5 30.5 18.5 q9 14 9 43 q0 31 -7 62 l117 0 q7 -34 7 -69 Z" /><glyph glyph-name="uni1EEC" unicode="&#x1eec;" d="M260 908 q42 20 103 20 q55 0 91 -17 q36 -17 36 -52 q0 -62 -118 -87 l-47 46 q32 8 48 16 q16 8 16 17 q0 9 -11 14.5 q-11 5.5 -30 5.5 q-33 0 -70 -17 l-18 54 ZM831 791 q0 -77 -32 -110 q-32 -33 -109 -40 l0 -345 q0 -94 -37 -163.5 q-37 -69.5 -107 -107 q-70 -37.5 -166 -37.5 q-97 0 -167 37.5 q-70 37.5 -107 107 q-37 69.5 -37 163.5 l0 436 l145 0 l0 -401 q0 -106 43.5 -158 q43.5 -52 122.5 -52 q78 0 121 52 q43 52 43 158 l0 401 l65 0 q44 0 65.5 4.5 q21.5 4.5 30.5 18.5 q9 14 9 43 q0 31 -7 62 l117 0 q7 -34 7 -69 Z" /><glyph glyph-name="uni1EEE" unicode="&#x1eee;" d="M188 811 q2 52 35 84.5 q33 32.5 87 32.5 q33 0 53.5 -9.5 q20.5 -9.5 41.5 -26.5 q21 -19 36 -19 q27 0 36 43 l95 0 q-2 -53 -35.5 -85.5 q-33.5 -32.5 -87.5 -32.5 q-32 0 -52.5 9.5 q-20.5 9.5 -40.5 26.5 q-13 10 -21 14.5 q-8 4.5 -17 4.5 q-27 0 -35 -42 l-95 0 ZM831 791 q0 -77 -32 -110 q-32 -33 -109 -40 l0 -345 q0 -94 -37 -163.5 q-37 -69.5 -107 -107 q-70 -37.5 -166 -37.5 q-97 0 -167 37.5 q-70 37.5 -107 107 q-37 69.5 -37 163.5 l0 436 l145 0 l0 -401 q0 -106 43.5 -158 q43.5 -52 122.5 -52 q78 0 121 52 q43 52 43 158 l0 401 l65 0 q44 0 65.5 4.5 q21.5 4.5 30.5 18.5 q9 14 9 43 q0 31 -7 62 l117 0 q7 -34 7 -69 Z" /><glyph glyph-name="Uhungarumlaut" unicode="&#x170;" d="M239 799 l90 129 l131 0 l-121 -129 l-100 0 ZM417 799 l90 129 l131 0 l-121 -129 l-100 0 ZM545 732 l145 0 l0 -436 q0 -94 -37 -163.5 q-37 -69.5 -107 -107 q-70 -37.5 -166 -37.5 q-97 0 -167 37.5 q-70 37.5 -107 107 q-37 69.5 -37 163.5 l0 436 l145 0 l0 -401 q0 -106 43.5 -158 q43.5 -52 122.5 -52 q78 0 121.5 52 q43.5 52 43.5 158 l0 401 Z" /><glyph glyph-name="Umacron" unicode="&#x16a;" d="M209 831 l0 95 l342 0 l0 -95 l-342 0 ZM545 732 l145 0 l0 -436 q0 -94 -37 -163.5 q-37 -69.5 -107 -107 q-70 -37.5 -166 -37.5 q-97 0 -167 37.5 q-70 37.5 -107 107 q-37 69.5 -37 163.5 l0 436 l145 0 l0 -401 q0 -106 43.5 -158 q43.5 -52 122.5 -52 q78 0 121.5 52 q43.5 52 43.5 158 l0 401 Z" /><glyph glyph-name="Uogonek" unicode="&#x172;" d="M690 296 q0 -89 -33 -156 q-33 -67 -95 -106 q-62 -40 -85.5 -73.5 q-23.5 -33.5 -23.5 -66.5 q0 -29 14.5 -43 q14.5 -14 38.5 -14 q35 0 71 34 l46 -64 q-49 -51 -128 -51 q-63 0 -102 29 q-39 29 -39 91 q0 62 41 112 l-15 0 q-97 0 -167 37.5 q-70 37.5 -107 107 q-37 69.5 -37 163.5 l0 436 l145 0 l0 -401 q0 -106 43.5 -158 q43.5 -52 122.5 -52 q78 0 121 52 q43 52 43 158 l0 401 l146 0 l0 -436 Z" /><glyph glyph-name="Uring" unicode="&#x16e;" d="M259 857 q0 31 35 51 q35 20 86 20 q51 0 84.5 -20 q33.5 -20 33.5 -51 q0 -31 -33.5 -51.5 q-33.5 -20.5 -84.5 -20.5 q-51 0 -86 20.5 q-35 20.5 -35 51.5 ZM334 857 q0 -14 12.5 -22 q12.5 -8 33.5 -8 q20 0 32 8 q12 8 12 22 q0 13 -12 21 q-12 8 -32 8 q-21 0 -33.5 -8 q-12.5 -8 -12.5 -21 ZM545 732 l145 0 l0 -436 q0 -94 -37 -163.5 q-37 -69.5 -107 -107 q-70 -37.5 -166 -37.5 q-97 0 -167 37.5 q-70 37.5 -107 107 q-37 69.5 -37 163.5 l0 436 l145 0 l0 -401 q0 -106 43.5 -158 q43.5 -52 122.5 -52 q78 0 121.5 52 q43.5 52 43.5 158 l0 401 Z" /><glyph glyph-name="Utilde" unicode="&#x168;" d="M188 811 q2 52 35 84.5 q33 32.5 87 32.5 q33 0 53.5 -9.5 q20.5 -9.5 41.5 -26.5 q21 -19 36 -19 q27 0 36 43 l95 0 q-2 -53 -35.5 -85.5 q-33.5 -32.5 -87.5 -32.5 q-32 0 -52.5 9.5 q-20.5 9.5 -40.5 26.5 q-13 10 -21 14.5 q-8 4.5 -17 4.5 q-27 0 -35 -42 l-95 0 ZM545 732 l145 0 l0 -436 q0 -94 -37 -163.5 q-37 -69.5 -107 -107 q-70 -37.5 -166 -37.5 q-97 0 -167 37.5 q-70 37.5 -107 107 q-37 69.5 -37 163.5 l0 436 l145 0 l0 -401 q0 -106 43.5 -158 q43.5 -52 122.5 -52 q78 0 121.5 52 q43.5 52 43.5 158 l0 401 Z" /><glyph glyph-name="V" unicode="V" d="M171 732 l196 -529 l188 529 l155 0 l-285 -732 l-123 0 l-296 732 l165 0 Z" /><glyph glyph-name="W" unicode="W" d="M567 732 l152 -492 l140 492 l140 0 l-228 -732 l-112 0 l-154 478 l-149 -478 l-111 0 l-238 732 l150 0 l150 -492 l144 492 l116 0 Z" /><glyph glyph-name="Wacute" unicode="&#x1e82;" d="M457 800 l93 128 l144 0 l-123 -128 l-114 0 ZM567 732 l152 -492 l140 492 l140 0 l-228 -732 l-112 0 l-154 478 l-149 -478 l-111 0 l-238 732 l150 0 l150 -492 l144 492 l116 0 Z" /><glyph glyph-name="Wcircumflex" unicode="&#x174;" d="M454 928 l109 0 l132 -129 l-122 0 l-64 65 l-66 -65 l-121 0 l132 129 ZM567 732 l152 -492 l140 492 l140 0 l-228 -732 l-112 0 l-154 478 l-149 -478 l-111 0 l-238 732 l150 0 l150 -492 l144 492 l116 0 Z" /><glyph glyph-name="Wdieresis" unicode="&#x1e84;" d="M395 801 q-30 0 -51.5 19 q-21.5 19 -21.5 45 q0 26 21.5 44.5 q21.5 18.5 51.5 18.5 q32 0 54 -18.5 q22 -18.5 22 -44.5 q0 -26 -22 -45 q-22 -19 -54 -19 ZM620 801 q-31 0 -52.5 19 q-21.5 19 -21.5 45 q0 26 21.5 44.5 q21.5 18.5 52.5 18.5 q31 0 53 -18.5 q22 -18.5 22 -44.5 q0 -26 -22 -45 q-22 -19 -53 -19 ZM567 732 l152 -492 l140 492 l140 0 l-228 -732 l-112 0 l-154 478 l-149 -478 l-111 0 l-238 732 l150 0 l150 -492 l144 492 l116 0 Z" /><glyph glyph-name="Wgrave" unicode="&#x1e80;" d="M323 928 l145 0 l93 -128 l-114 0 l-124 128 ZM567 732 l152 -492 l140 492 l140 0 l-228 -732 l-112 0 l-154 478 l-149 -478 l-111 0 l-238 732 l150 0 l150 -492 l144 492 l116 0 Z" /><glyph glyph-name="X" unicode="X" d="M698 732 l-257 -357 l269 -375 l-180 0 l-178 257 l-179 -257 l-168 0 l268 372 l-256 360 l177 0 l168 -242 l168 242 l168 0 Z" /><glyph glyph-name="Y" unicode="Y" d="M349 432 l166 300 l157 0 l-255 -444 l0 -288 l-145 0 l0 289 l-266 443 l171 0 l172 -300 Z" /><glyph glyph-name="Yacute" unicode="Ý" d="M295 800 l93 128 l144 0 l-124 -128 l-113 0 ZM349 432 l166 300 l157 0 l-255 -444 l0 -288 l-145 0 l0 289 l-266 443 l171 0 l172 -300 Z" /><glyph glyph-name="Ycircumflex" unicode="&#x176;" d="M292 928 l108 0 l133 -129 l-122 0 l-65 66 l-65 -66 l-122 0 l133 129 ZM349 432 l166 300 l157 0 l-255 -444 l0 -288 l-145 0 l0 289 l-266 443 l171 0 l172 -300 Z" /><glyph glyph-name="Ydieresis" unicode="&#x178;" d="M233 802 q-31 0 -52.5 18.5 q-21.5 18.5 -21.5 44.5 q0 26 21.5 44.5 q21.5 18.5 52.5 18.5 q32 0 54 -18.5 q22 -18.5 22 -44.5 q0 -26 -22 -44.5 q-22 -18.5 -54 -18.5 ZM458 802 q-31 0 -53 18.5 q-22 18.5 -22 44.5 q0 26 22 44.5 q22 18.5 53 18.5 q31 0 53 -18.5 q22 -18.5 22 -44.5 q0 -26 -22 -44.5 q-22 -18.5 -53 -18.5 ZM349 432 l166 300 l157 0 l-255 -444 l0 -288 l-145 0 l0 289 l-266 443 l171 0 l172 -300 Z" /><glyph glyph-name="uni1EF4" unicode="&#x1ef4;" d="M349 432 l166 300 l157 0 l-255 -444 l0 -288 l-145 0 l0 289 l-266 443 l171 0 l172 -300 ZM345 -222 q-34 0 -58 24.5 q-24 24.5 -24 57.5 q0 33 24 57 q24 24 58 24 q34 0 59 -24 q25 -24 25 -57 q0 -33 -25 -57.5 q-25 -24.5 -59 -24.5 Z" /><glyph glyph-name="Ygrave" unicode="&#x1ef2;" d="M161 928 l144 0 l93 -128 l-113 0 l-124 128 ZM349 432 l166 300 l157 0 l-255 -444 l0 -288 l-145 0 l0 289 l-266 443 l171 0 l172 -300 Z" /><glyph glyph-name="uni1EF6" unicode="&#x1ef6;" d="M227 908 q42 20 103 20 q55 0 90.5 -17 q35.5 -17 35.5 -52 q0 -61 -117 -86 l-48 46 q65 15 65 33 q0 9 -11 14 q-11 5 -30 5 q-33 0 -70 -17 l-18 54 ZM349 432 l166 300 l157 0 l-255 -444 l0 -288 l-145 0 l0 289 l-266 443 l171 0 l172 -300 Z" /><glyph glyph-name="uni1EF8" unicode="&#x1ef8;" d="M155 811 q2 52 35 84.5 q33 32.5 87 32.5 q32 0 52.5 -9.5 q20.5 -9.5 41.5 -26.5 q12 -9 20 -13.5 q8 -4.5 17 -4.5 q27 0 35 42 l95 0 q-2 -52 -35 -84.5 q-33 -32.5 -87 -32.5 q-32 0 -52.5 9.5 q-20.5 9.5 -41.5 26.5 q-12 9 -20 13.5 q-8 4.5 -17 4.5 q-27 0 -35 -42 l-95 0 ZM349 432 l166 300 l157 0 l-255 -444 l0 -288 l-145 0 l0 289 l-266 443 l171 0 l172 -300 Z" /><glyph glyph-name="Z" unicode="Z" d="M559 732 l0 -80 l-340 -522 l354 0 l0 -130 l-556 0 l0 81 l341 522 l-310 0 l0 129 l511 0 Z" /><glyph glyph-name="Zacute" unicode="&#x179;" d="M252 801 l93 127 l144 0 l-124 -127 l-113 0 ZM559 732 l0 -80 l-340 -522 l354 0 l0 -130 l-556 0 l0 81 l341 522 l-310 0 l0 129 l511 0 Z" /><glyph glyph-name="Zcaron" unicode="&#x17d;" d="M238 928 l66 -62 l64 62 l122 0 l-133 -128 l-108 0 l-133 128 l122 0 ZM559 732 l0 -80 l-340 -522 l354 0 l0 -130 l-556 0 l0 81 l341 522 l-310 0 l0 129 l511 0 Z" /><glyph glyph-name="Zdotaccent" unicode="&#x17b;" d="M303 802 q-30 0 -52 19 q-22 19 -22 45 q0 25 22 43.5 q22 18.5 52 18.5 q32 0 54 -18.5 q22 -18.5 22 -43.5 q0 -26 -22 -45 q-22 -19 -54 -19 ZM559 732 l0 -80 l-340 -522 l354 0 l0 -130 l-556 0 l0 81 l341 522 l-310 0 l0 129 l511 0 Z" /><glyph glyph-name="a" unicode="a" d="M284 531 q105 0 164 -59.5 q59 -59.5 59 -169.5 l0 -302 l-117 0 q-1 8 -2.5 26.5 q-1.5 18.5 -4.5 32.5 q-23 -36 -59.5 -53.5 q-36.5 -17.5 -88.5 -17.5 q-54 0 -98.5 19 q-44.5 19 -70.5 55.5 q-26 36.5 -26 86.5 q0 52 29.5 90.5 q29.5 38.5 79.5 59.5 q50 21 110 21 q54 0 111 -18 q-3 115 -98 115 q-76 0 -111 -68 l-99 57 q28 58 86 91.5 q58 33.5 136 33.5 ZM370 210 q-50 12 -87 12 q-49 0 -76 -17.5 q-27 -17.5 -27 -49.5 q0 -29 21.5 -45 q21.5 -16 55.5 -16 q45 0 79 25.5 q34 25.5 34 70.5 l0 20 Z" /><glyph glyph-name="aacute" unicode="á" d="M307 748 l140 0 l-120 -165 l-110 0 l90 165 ZM284 531 q105 0 164 -59.5 q59 -59.5 59 -169.5 l0 -302 l-117 0 q-1 8 -2.5 26.5 q-1.5 18.5 -4.5 32.5 q-23 -36 -59.5 -53.5 q-36.5 -17.5 -88.5 -17.5 q-54 0 -98.5 19 q-44.5 19 -70.5 55.5 q-26 36.5 -26 86.5 q0 52 29.5 90.5 q29.5 38.5 79.5 59.5 q50 21 110 21 q54 0 111 -18 q-3 115 -98 115 q-76 0 -111 -68 l-99 57 q28 58 86 91.5 q58 33.5 136 33.5 ZM370 210 q-50 12 -87 12 q-49 0 -76 -17.5 q-27 -17.5 -27 -49.5 q0 -29 21.5 -45 q21.5 -16 55.5 -16 q45 0 79 25.5 q34 25.5 34 70.5 l0 20 Z" /><glyph glyph-name="abreve" unicode="&#x103;" d="M280 582 q-80 0 -129 44.5 q-49 44.5 -49 120.5 l109 0 q7 -78 69 -78 q63 0 69 78 l109 0 q0 -76 -48.5 -120.5 q-48.5 -44.5 -129.5 -44.5 ZM284 531 q105 0 164 -59.5 q59 -59.5 59 -169.5 l0 -302 l-117 0 q-1 8 -2.5 26.5 q-1.5 18.5 -4.5 32.5 q-23 -36 -59.5 -53.5 q-36.5 -17.5 -88.5 -17.5 q-54 0 -98.5 19 q-44.5 19 -70.5 55.5 q-26 36.5 -26 86.5 q0 52 29.5 90.5 q29.5 38.5 79.5 59.5 q50 21 110 21 q54 0 111 -18 q-3 115 -98 115 q-76 0 -111 -68 l-99 57 q28 58 86 91.5 q58 33.5 136 33.5 ZM370 210 q-50 12 -87 12 q-49 0 -76 -17.5 q-27 -17.5 -27 -49.5 q0 -29 21.5 -45 q21.5 -16 55.5 -16 q45 0 79 25.5 q34 25.5 34 70.5 l0 20 Z" /><glyph glyph-name="uni1EAF" unicode="&#x1eaf;" d="M298 918 l137 0 l-108 -141 l-110 0 l81 141 ZM280 582 q-80 0 -129 44.5 q-49 44.5 -49 120.5 l109 0 q7 -78 69 -78 q63 0 69 78 l109 0 q0 -76 -48.5 -120.5 q-48.5 -44.5 -129.5 -44.5 ZM284 531 q105 0 164 -59.5 q59 -59.5 59 -169.5 l0 -302 l-117 0 q-1 8 -2.5 26.5 q-1.5 18.5 -4.5 32.5 q-23 -36 -59.5 -53.5 q-36.5 -17.5 -88.5 -17.5 q-54 0 -98.5 19 q-44.5 19 -70.5 55.5 q-26 36.5 -26 86.5 q0 52 29.5 90.5 q29.5 38.5 79.5 59.5 q50 21 110 21 q54 0 111 -18 q-3 115 -98 115 q-76 0 -111 -68 l-99 57 q28 58 86 91.5 q58 33.5 136 33.5 ZM370 210 q-50 12 -87 12 q-49 0 -76 -17.5 q-27 -17.5 -27 -49.5 q0 -29 21.5 -45 q21.5 -16 55.5 -16 q45 0 79 25.5 q34 25.5 34 70.5 l0 20 Z" /><glyph glyph-name="uni1EB7" unicode="&#x1eb7;" d="M280 582 q-80 0 -129 44.5 q-49 44.5 -49 120.5 l109 0 q7 -78 69 -78 q63 0 69 78 l109 0 q0 -76 -48.5 -120.5 q-48.5 -44.5 -129.5 -44.5 ZM284 531 q105 0 164 -59.5 q59 -59.5 59 -169.5 l0 -302 l-117 0 q-1 8 -2.5 26.5 q-1.5 18.5 -4.5 32.5 q-23 -36 -59.5 -53.5 q-36.5 -17.5 -88.5 -17.5 q-54 0 -98.5 19 q-44.5 19 -70.5 55.5 q-26 36.5 -26 86.5 q0 52 29.5 90.5 q29.5 38.5 79.5 59.5 q50 21 110 21 q54 0 111 -18 q-4 115 -98 115 q-76 0 -111 -68 l-99 57 q28 58 86 91.5 q58 33.5 136 33.5 ZM370 210 q-50 12 -87 12 q-49 0 -76 -17.5 q-27 -17.5 -27 -49.5 q0 -29 21.5 -45 q21.5 -16 55.5 -16 q45 0 79 25.5 q34 25.5 34 70.5 l0 20 ZM285 -59 q34 0 58.5 -24 q24.5 -24 24.5 -57 q0 -33 -24.5 -57.5 q-24.5 -24.5 -58.5 -24.5 q-34 0 -58 24.5 q-24 24.5 -24 57.5 q0 33 24 57 q24 24 58 24 Z" /><glyph glyph-name="uni1EB1" unicode="&#x1eb1;" d="M261 918 l81 -141 l-109 0 l-109 141 l137 0 ZM280 582 q-80 0 -129 44.5 q-49 44.5 -49 120.5 l109 0 q7 -78 69 -78 q63 0 69 78 l109 0 q0 -76 -48.5 -120.5 q-48.5 -44.5 -129.5 -44.5 ZM284 531 q105 0 164 -59.5 q59 -59.5 59 -169.5 l0 -302 l-117 0 q-1 8 -2.5 26.5 q-1.5 18.5 -4.5 32.5 q-23 -36 -59.5 -53.5 q-36.5 -17.5 -88.5 -17.5 q-54 0 -98.5 19 q-44.5 19 -70.5 55.5 q-26 36.5 -26 86.5 q0 52 29.5 90.5 q29.5 38.5 79.5 59.5 q50 21 110 21 q54 0 111 -18 q-3 115 -98 115 q-76 0 -111 -68 l-99 57 q28 58 86 91.5 q58 33.5 136 33.5 ZM370 210 q-50 12 -87 12 q-49 0 -76 -17.5 q-27 -17.5 -27 -49.5 q0 -29 21.5 -45 q21.5 -16 55.5 -16 q45 0 79 25.5 q34 25.5 34 70.5 l0 20 Z" /><glyph glyph-name="uni1EB3" unicode="&#x1eb3;" d="M248 859 q-31 0 -70 -21 l-18 65 q20 12 47 18.5 q27 6.5 56 6.5 q55 0 91 -22 q36 -22 36 -65 q0 -75 -118 -108 l-47 54 q64 20 64 45 q0 13 -11 20 q-11 7 -30 7 ZM280 582 q-80 0 -129 39.5 q-49 39.5 -49 106.5 l109 0 q7 -70 69 -70 q62 0 69 70 l109 0 q0 -67 -48.5 -106.5 q-48.5 -39.5 -129.5 -39.5 ZM284 531 q105 0 164 -59.5 q59 -59.5 59 -169.5 l0 -302 l-117 0 q-1 8 -2.5 26.5 q-1.5 18.5 -4.5 32.5 q-23 -36 -59.5 -53.5 q-36.5 -17.5 -88.5 -17.5 q-54 0 -98.5 19 q-44.5 19 -70.5 55.5 q-26 36.5 -26 86.5 q0 52 29.5 90.5 q29.5 38.5 79.5 59.5 q50 21 110 21 q54 0 111 -18 q-3 115 -98 115 q-76 0 -111 -68 l-99 57 q28 58 86 91.5 q58 33.5 136 33.5 ZM370 210 q-50 12 -87 12 q-49 0 -76 -17.5 q-27 -17.5 -27 -49.5 q0 -29 21.5 -45 q21.5 -16 55.5 -16 q45 0 79 25.5 q34 25.5 34 70.5 l0 20 Z" /><glyph glyph-name="uni1EB5" unicode="&#x1eb5;" d="M218 832 q-28 0 -35 -51 l-95 0 q2 63 35 102 q33 39 87 39 q33 0 53.5 -11.5 q20.5 -11.5 41.5 -31.5 q11 -11 19 -16.5 q8 -5.5 17 -5.5 q27 0 36 51 l95 0 q-2 -62 -35.5 -101 q-33.5 -39 -87.5 -39 q-33 0 -53.5 11.5 q-20.5 11.5 -39.5 30.5 q-12 11 -20.5 16.5 q-8.5 5.5 -17.5 5.5 ZM280 664 q63 0 69 74 l109 0 q0 -72 -48.5 -114 q-48.5 -42 -129.5 -42 q-80 0 -129 42.5 q-49 42.5 -49 113.5 l109 0 q6 -74 69 -74 ZM284 531 q105 0 164 -59.5 q59 -59.5 59 -169.5 l0 -302 l-117 0 q-1 8 -2.5 26.5 q-1.5 18.5 -4.5 32.5 q-23 -36 -59.5 -53.5 q-36.5 -17.5 -88.5 -17.5 q-54 0 -98.5 19 q-44.5 19 -70.5 55.5 q-26 36.5 -26 86.5 q0 52 29.5 90.5 q29.5 38.5 79.5 59.5 q50 21 110 21 q54 0 111 -18 q-3 115 -98 115 q-76 0 -111 -68 l-99 57 q28 58 86 91.5 q58 33.5 136 33.5 ZM370 210 q-50 12 -87 12 q-49 0 -76 -17.5 q-27 -17.5 -27 -49.5 q0 -29 21.5 -45 q21.5 -16 55.5 -16 q45 0 79 25.5 q34 25.5 34 70.5 l0 20 Z" /><glyph glyph-name="uni01CE" unicode="&#x1ce;" d="M459 748 l-128 -165 l-104 0 l-128 165 l120 0 l61 -80 l60 80 l119 0 ZM284 531 q105 0 164 -59.5 q59 -59.5 59 -169.5 l0 -302 l-117 0 q-1 8 -2.5 26.5 q-1.5 18.5 -4.5 32.5 q-23 -36 -59.5 -53.5 q-36.5 -17.5 -88.5 -17.5 q-54 0 -98.5 19 q-44.5 19 -70.5 55.5 q-26 36.5 -26 86.5 q0 52 29.5 90.5 q29.5 38.5 79.5 59.5 q50 21 110 21 q54 0 111 -18 q-3 115 -98 115 q-76 0 -111 -68 l-99 57 q28 58 86 91.5 q58 33.5 136 33.5 ZM370 210 q-50 12 -87 12 q-49 0 -76 -17.5 q-27 -17.5 -27 -49.5 q0 -29 21.5 -45 q21.5 -16 55.5 -16 q45 0 79 25.5 q34 25.5 34 70.5 l0 20 Z" /><glyph glyph-name="acircumflex" unicode="â" d="M340 583 l-61 79 l-61 -79 l-119 0 l128 165 l104 0 l128 -165 l-119 0 ZM284 531 q105 0 164 -59.5 q59 -59.5 59 -169.5 l0 -302 l-117 0 q-1 8 -2.5 26.5 q-1.5 18.5 -4.5 32.5 q-23 -36 -59.5 -53.5 q-36.5 -17.5 -88.5 -17.5 q-54 0 -98.5 19 q-44.5 19 -70.5 55.5 q-26 36.5 -26 86.5 q0 52 29.5 90.5 q29.5 38.5 79.5 59.5 q50 21 110 21 q54 0 111 -18 q-3 115 -98 115 q-76 0 -111 -68 l-99 57 q28 58 86 91.5 q58 33.5 136 33.5 ZM370 210 q-50 12 -87 12 q-49 0 -76 -17.5 q-27 -17.5 -27 -49.5 q0 -29 21.5 -45 q21.5 -16 55.5 -16 q45 0 79 25.5 q34 25.5 34 70.5 l0 20 Z" /><glyph glyph-name="uni1EA5" unicode="&#x1ea5;" d="M423 914 l136 0 l-108 -142 l-109 0 l81 142 ZM336 583 l-60 79 l-61 -79 l-119 0 l128 165 l104 0 l128 -165 l-120 0 ZM284 531 q105 0 164 -59.5 q59 -59.5 59 -169.5 l0 -302 l-117 0 q-1 8 -2.5 26.5 q-1.5 18.5 -4.5 32.5 q-23 -36 -59.5 -53.5 q-36.5 -17.5 -88.5 -17.5 q-54 0 -98.5 19 q-44.5 19 -70.5 55.5 q-26 36.5 -26 86.5 q0 52 29.5 90.5 q29.5 38.5 79.5 59.5 q50 21 110 21 q54 0 111 -18 q-3 115 -98 115 q-76 0 -111 -68 l-99 57 q28 58 86 91.5 q58 33.5 136 33.5 ZM370 210 q-50 12 -87 12 q-49 0 -76 -17.5 q-27 -17.5 -27 -49.5 q0 -29 21.5 -45 q21.5 -16 55.5 -16 q45 0 79 25.5 q34 25.5 34 70.5 l0 20 Z" /><glyph glyph-name="uni1EAD" unicode="&#x1ead;" d="M340 583 l-61 79 l-61 -79 l-119 0 l128 165 l104 0 l128 -165 l-119 0 ZM284 531 q105 0 164 -59.5 q59 -59.5 59 -169.5 l0 -302 l-117 0 q-1 8 -2.5 26.5 q-1.5 18.5 -4.5 32.5 q-23 -36 -59.5 -53.5 q-36.5 -17.5 -88.5 -17.5 q-54 0 -98.5 19 q-44.5 19 -70.5 55.5 q-26 36.5 -26 86.5 q0 52 29.5 90.5 q29.5 38.5 79.5 59.5 q50 21 110 21 q54 0 111 -18 q-4 115 -98 115 q-76 0 -111 -68 l-99 57 q28 58 86 91.5 q58 33.5 136 33.5 ZM370 210 q-50 12 -87 12 q-49 0 -76 -17.5 q-27 -17.5 -27 -49.5 q0 -29 21.5 -45 q21.5 -16 55.5 -16 q45 0 79 25.5 q34 25.5 34 70.5 l0 20 ZM285 -59 q34 0 58.5 -24 q24.5 -24 24.5 -57 q0 -33 -24.5 -57.5 q-24.5 -24.5 -58.5 -24.5 q-34 0 -58 24.5 q-24 24.5 -24 57.5 q0 33 24 57 q24 24 58 24 Z" /><glyph glyph-name="uni1EA7" unicode="&#x1ea7;" d="M385 914 l81 -142 l-109 0 l-108 142 l136 0 ZM336 583 l-60 79 l-61 -79 l-119 0 l128 165 l104 0 l128 -165 l-120 0 ZM284 531 q105 0 164 -59.5 q59 -59.5 59 -169.5 l0 -302 l-117 0 q-1 8 -2.5 26.5 q-1.5 18.5 -4.5 32.5 q-23 -36 -59.5 -53.5 q-36.5 -17.5 -88.5 -17.5 q-54 0 -98.5 19 q-44.5 19 -70.5 55.5 q-26 36.5 -26 86.5 q0 52 29.5 90.5 q29.5 38.5 79.5 59.5 q50 21 110 21 q54 0 111 -18 q-3 115 -98 115 q-76 0 -111 -68 l-99 57 q28 58 86 91.5 q58 33.5 136 33.5 ZM370 210 q-50 12 -87 12 q-49 0 -76 -17.5 q-27 -17.5 -27 -49.5 q0 -29 21.5 -45 q21.5 -16 55.5 -16 q45 0 79 25.5 q34 25.5 34 70.5 l0 20 Z" /><glyph glyph-name="uni1EA9" unicode="&#x1ea9;" d="M384 850 q-31 0 -70 -23 l-18 71 q43 27 103 27 q55 0 90.5 -24 q35.5 -24 35.5 -70 q0 -82 -117 -118 l-48 60 q32 11 48.5 22 q16.5 11 16.5 26 q0 13 -11 21 q-11 8 -30 8 ZM336 583 l-60 76 l-61 -76 l-119 0 l128 157 l104 0 l128 -157 l-120 0 ZM284 531 q105 0 164 -59.5 q59 -59.5 59 -169.5 l0 -302 l-117 0 q-1 8 -2.5 26.5 q-1.5 18.5 -4.5 32.5 q-23 -36 -59.5 -53.5 q-36.5 -17.5 -88.5 -17.5 q-54 0 -98.5 19 q-44.5 19 -70.5 55.5 q-26 36.5 -26 86.5 q0 52 29.5 90.5 q29.5 38.5 79.5 59.5 q50 21 110 21 q54 0 111 -18 q-3 115 -98 115 q-76 0 -111 -68 l-99 57 q28 58 86 91.5 q58 33.5 136 33.5 ZM370 210 q-50 12 -87 12 q-49 0 -76 -17.5 q-27 -17.5 -27 -49.5 q0 -29 21.5 -45 q21.5 -16 55.5 -16 q45 0 79 25.5 q34 25.5 34 70.5 l0 20 Z" /><glyph glyph-name="uni1EAB" unicode="&#x1eab;" d="M217 831 q-27 0 -36 -52 l-95 0 q2 63 35.5 103 q33.5 40 87.5 40 q32 0 52.5 -11.5 q20.5 -11.5 40.5 -31.5 q12 -12 20 -17.5 q8 -5.5 18 -5.5 q28 0 35 52 l95 0 q-2 -64 -35 -103.5 q-33 -39.5 -87 -39.5 q-33 0 -53.5 11.5 q-20.5 11.5 -41.5 32.5 q-11 11 -19 16.5 q-8 5.5 -17 5.5 ZM98 583 l128 158 l104 0 l128 -158 l-119 0 l-60 76 l-62 -76 l-119 0 ZM284 531 q105 0 164 -59.5 q59 -59.5 59 -169.5 l0 -302 l-117 0 q-1 8 -2.5 26.5 q-1.5 18.5 -4.5 32.5 q-23 -36 -59.5 -53.5 q-36.5 -17.5 -88.5 -17.5 q-54 0 -98.5 19 q-44.5 19 -70.5 55.5 q-26 36.5 -26 86.5 q0 52 29.5 90.5 q29.5 38.5 79.5 59.5 q50 21 110 21 q54 0 111 -18 q-3 115 -98 115 q-76 0 -111 -68 l-99 57 q28 58 86 91.5 q58 33.5 136 33.5 ZM370 210 q-50 12 -87 12 q-49 0 -76 -17.5 q-27 -17.5 -27 -49.5 q0 -29 21.5 -45 q21.5 -16 55.5 -16 q45 0 79 25.5 q34 25.5 34 70.5 l0 20 Z" /><glyph glyph-name="adieresis" unicode="ä" d="M167 588 q-30 0 -52 23 q-22 23 -22 54 q0 32 21.5 54.5 q21.5 22.5 52.5 22.5 q32 0 54 -22.5 q22 -22.5 22 -54.5 q0 -31 -22 -54 q-22 -23 -54 -23 ZM391 588 q-31 0 -52.5 23 q-21.5 23 -21.5 54 q0 32 21.5 54.5 q21.5 22.5 52.5 22.5 q31 0 53.5 -22.5 q22.5 -22.5 22.5 -54.5 q0 -31 -22.5 -54 q-22.5 -23 -53.5 -23 ZM284 531 q105 0 164 -59.5 q59 -59.5 59 -169.5 l0 -302 l-117 0 q-1 8 -2.5 26.5 q-1.5 18.5 -4.5 32.5 q-23 -36 -59.5 -53.5 q-36.5 -17.5 -88.5 -17.5 q-54 0 -98.5 19 q-44.5 19 -70.5 55.5 q-26 36.5 -26 86.5 q0 52 29.5 90.5 q29.5 38.5 79.5 59.5 q50 21 110 21 q54 0 111 -18 q-3 115 -98 115 q-76 0 -111 -68 l-99 57 q28 58 86 91.5 q58 33.5 136 33.5 ZM370 210 q-50 12 -87 12 q-49 0 -76 -17.5 q-27 -17.5 -27 -49.5 q0 -29 21.5 -45 q21.5 -16 55.5 -16 q45 0 79 25.5 q34 25.5 34 70.5 l0 20 Z" /><glyph glyph-name="uni1EA1" unicode="&#x1ea1;" d="M284 531 q105 0 164 -59.5 q59 -59.5 59 -169.5 l0 -302 l-117 0 q-1 8 -2.5 26.5 q-1.5 18.5 -4.5 32.5 q-23 -36 -59.5 -53.5 q-36.5 -17.5 -88.5 -17.5 q-54 0 -98.5 19 q-44.5 19 -70.5 55.5 q-26 36.5 -26 86.5 q0 52 29.5 90.5 q29.5 38.5 79.5 59.5 q50 21 110 21 q54 0 111 -18 q-4 115 -98 115 q-76 0 -111 -68 l-99 57 q28 58 86 91.5 q58 33.5 136 33.5 ZM370 210 q-50 12 -87 12 q-49 0 -76 -17.5 q-27 -17.5 -27 -49.5 q0 -29 21.5 -45 q21.5 -16 55.5 -16 q45 0 79 25.5 q34 25.5 34 70.5 l0 20 ZM285 -59 q34 0 58.5 -24 q24.5 -24 24.5 -57 q0 -33 -24.5 -57.5 q-24.5 -24.5 -58.5 -24.5 q-34 0 -58 24.5 q-24 24.5 -24 57.5 q0 33 24 57 q24 24 58 24 Z" /><glyph glyph-name="agrave" unicode="à" d="M252 748 l90 -165 l-109 0 l-121 165 l140 0 ZM284 531 q105 0 164 -59.5 q59 -59.5 59 -169.5 l0 -302 l-117 0 q-1 8 -2.5 26.5 q-1.5 18.5 -4.5 32.5 q-23 -36 -59.5 -53.5 q-36.5 -17.5 -88.5 -17.5 q-54 0 -98.5 19 q-44.5 19 -70.5 55.5 q-26 36.5 -26 86.5 q0 52 29.5 90.5 q29.5 38.5 79.5 59.5 q50 21 110 21 q54 0 111 -18 q-3 115 -98 115 q-76 0 -111 -68 l-99 57 q28 58 86 91.5 q58 33.5 136 33.5 ZM370 210 q-50 12 -87 12 q-49 0 -76 -17.5 q-27 -17.5 -27 -49.5 q0 -29 21.5 -45 q21.5 -16 55.5 -16 q45 0 79 25.5 q34 25.5 34 70.5 l0 20 Z" /><glyph glyph-name="uni1EA3" unicode="&#x1ea3;" d="M248 701 q-33 0 -70 -23 l-18 74 q20 13 47 20.5 q27 7.5 56 7.5 q55 0 91 -24.5 q36 -24.5 36 -74.5 q0 -85 -118 -123 l-47 63 q64 22 64 51 q0 13 -11 21 q-11 8 -30 8 ZM284 531 q105 0 164 -59.5 q59 -59.5 59 -169.5 l0 -302 l-117 0 q-1 8 -2.5 26.5 q-1.5 18.5 -4.5 32.5 q-23 -36 -59.5 -53.5 q-36.5 -17.5 -88.5 -17.5 q-54 0 -98.5 19 q-44.5 19 -70.5 55.5 q-26 36.5 -26 86.5 q0 52 29.5 90.5 q29.5 38.5 79.5 59.5 q50 21 110 21 q54 0 111 -18 q-3 115 -98 115 q-76 0 -111 -68 l-99 57 q28 58 86 91.5 q58 33.5 136 33.5 ZM370 210 q-50 12 -87 12 q-49 0 -76 -17.5 q-27 -17.5 -27 -49.5 q0 -29 21.5 -45 q21.5 -16 55.5 -16 q45 0 79 25.5 q34 25.5 34 70.5 l0 20 Z" /><glyph glyph-name="uni0251" unicode="&#x251;" d="M564 518 l0 -518 l-122 0 q-5 58 -8 78 q-27 -45 -70.5 -67.5 q-43.5 -22.5 -94.5 -22.5 q-64 0 -117 32 q-53 32 -85 93.5 q-32 61.5 -32 145.5 q0 85 32 146.5 q32 61.5 85 93.5 q53 32 117 32 q52 0 95 -22.5 q43 -22.5 70 -67.5 q3 21 8 77 l122 0 ZM301 107 q52 0 88 38 q36 38 36 114 q0 75 -36 111.5 q-36 36.5 -88 36.5 q-55 0 -88.5 -39 q-33.5 -39 -33.5 -109 q0 -70 33.5 -111 q33.5 -41 88.5 -41 Z" /><glyph glyph-name="amacron" unicode="&#x101;" d="M109 711 l342 0 l0 -95 l-342 0 l0 95 ZM284 531 q105 0 164 -59.5 q59 -59.5 59 -169.5 l0 -302 l-117 0 q-1 8 -2.5 26.5 q-1.5 18.5 -4.5 32.5 q-23 -36 -59.5 -53.5 q-36.5 -17.5 -88.5 -17.5 q-54 0 -98.5 19 q-44.5 19 -70.5 55.5 q-26 36.5 -26 86.5 q0 52 29.5 90.5 q29.5 38.5 79.5 59.5 q50 21 110 21 q54 0 111 -18 q-3 115 -98 115 q-76 0 -111 -68 l-99 57 q28 58 86 91.5 q58 33.5 136 33.5 ZM370 210 q-50 12 -87 12 q-49 0 -76 -17.5 q-27 -17.5 -27 -49.5 q0 -29 21.5 -45 q21.5 -16 55.5 -16 q45 0 79 25.5 q34 25.5 34 70.5 l0 20 Z" /><glyph glyph-name="aogonek" unicode="&#x105;" d="M569 -189 q-25 -27 -56.5 -41 q-31.5 -14 -73.5 -14 q-61 0 -100 29.5 q-39 29.5 -39 85.5 q0 42 23.5 76 q23.5 34 65.5 64 q-1 24 -6 48 q-23 -36 -59.5 -53.5 q-36.5 -17.5 -88.5 -17.5 q-54 0 -98.5 19 q-44.5 19 -70.5 55.5 q-26 36.5 -26 86.5 q0 52 29.5 90.5 q29.5 38.5 79.5 59.5 q50 21 110 21 q54 0 111 -18 q-4 115 -98 115 q-76 0 -111 -68 l-99 57 q28 58 86 91.5 q58 33.5 136 33.5 q105 0 164 -59.5 q59 -59.5 59 -169.5 l0 -302 q-55 -29 -81.5 -55.5 q-26.5 -26.5 -26.5 -57.5 q0 -44 49 -44 q42 0 77 35 l44 -67 ZM370 210 q-50 12 -87 12 q-49 0 -76 -17.5 q-27 -17.5 -27 -49.5 q0 -29 21.5 -45 q21.5 -16 55.5 -16 q45 0 79 25.5 q34 25.5 34 70.5 l0 20 Z" /><glyph glyph-name="aring" unicode="å" d="M280 571 q-52 0 -86.5 33 q-34.5 33 -34.5 85 q0 52 34.5 85.5 q34.5 33.5 86.5 33.5 q51 0 84.5 -33.5 q33.5 -33.5 33.5 -85.5 q0 -52 -33.5 -85 q-33.5 -33 -84.5 -33 ZM280 738 q-21 0 -33.5 -13.5 q-12.5 -13.5 -12.5 -35.5 q0 -21 12.5 -34.5 q12.5 -13.5 33.5 -13.5 q20 0 32 13.5 q12 13.5 12 34.5 q0 22 -12 35.5 q-12 13.5 -32 13.5 ZM284 531 q105 0 164 -59.5 q59 -59.5 59 -169.5 l0 -302 l-117 0 q-1 8 -2.5 26.5 q-1.5 18.5 -4.5 32.5 q-23 -36 -59.5 -53.5 q-36.5 -17.5 -88.5 -17.5 q-54 0 -98.5 19 q-44.5 19 -70.5 55.5 q-26 36.5 -26 86.5 q0 52 29.5 90.5 q29.5 38.5 79.5 59.5 q50 21 110 21 q54 0 111 -18 q-3 115 -98 115 q-76 0 -111 -68 l-99 57 q28 58 86 91.5 q58 33.5 136 33.5 ZM370 210 q-50 12 -87 12 q-49 0 -76 -17.5 q-27 -17.5 -27 -49.5 q0 -29 21.5 -45 q21.5 -16 55.5 -16 q45 0 79 25.5 q34 25.5 34 70.5 l0 20 Z" /><glyph glyph-name="aringacute" unicode="&#x1fb;" d="M304 928 l137 0 l-112 -122 l-109 0 l84 122 ZM280 569 q-47 0 -79 28 q-32 28 -32 72 q0 42 32 70.5 q32 28.5 79 28.5 q46 0 76.5 -28 q30.5 -28 30.5 -71 q0 -44 -30 -72 q-30 -28 -77 -28 ZM280 709 q-19 0 -31 -11 q-12 -11 -12 -29 q0 -19 12 -30.5 q12 -11.5 31 -11.5 q18 0 29 11.5 q11 11.5 11 30.5 q0 18 -11 29 q-11 11 -29 11 ZM284 531 q105 0 164 -59.5 q59 -59.5 59 -169.5 l0 -302 l-117 0 q-1 8 -2.5 26.5 q-1.5 18.5 -4.5 32.5 q-23 -36 -59.5 -53.5 q-36.5 -17.5 -88.5 -17.5 q-54 0 -98.5 19 q-44.5 19 -70.5 55.5 q-26 36.5 -26 86.5 q0 52 29.5 90.5 q29.5 38.5 79.5 59.5 q50 21 110 21 q54 0 111 -18 q-3 115 -98 115 q-76 0 -111 -68 l-99 57 q28 58 86 91.5 q58 33.5 136 33.5 ZM370 210 q-50 12 -87 12 q-49 0 -76 -17.5 q-27 -17.5 -27 -49.5 q0 -29 21.5 -45 q21.5 -16 55.5 -16 q45 0 79 25.5 q34 25.5 34 70.5 l0 20 Z" /><glyph glyph-name="uni1E01" unicode="&#x1e01;" d="M284 531 q105 0 164 -59.5 q59 -59.5 59 -169.5 l0 -302 l-117 0 q-1 8 -2.5 26.5 q-1.5 18.5 -4.5 32.5 q-23 -36 -59.5 -53.5 q-36.5 -17.5 -88.5 -17.5 q-54 0 -98.5 19 q-44.5 19 -70.5 55.5 q-26 36.5 -26 86.5 q0 52 29.5 90.5 q29.5 38.5 79.5 59.5 q50 21 110 21 q54 0 111 -18 q-4 115 -98 115 q-76 0 -111 -68 l-99 57 q28 58 86 91.5 q58 33.5 136 33.5 ZM370 210 q-50 12 -87 12 q-49 0 -76 -17.5 q-27 -17.5 -27 -49.5 q0 -29 21.5 -45 q21.5 -16 55.5 -16 q45 0 79 25.5 q34 25.5 34 70.5 l0 20 ZM284 -33 q52 0 85.5 -29.5 q33.5 -29.5 33.5 -76.5 q0 -47 -33.5 -76 q-33.5 -29 -85.5 -29 q-51 0 -85.5 29.5 q-34.5 29.5 -34.5 75.5 q0 47 34.5 76.5 q34.5 29.5 85.5 29.5 ZM284 -180 q20 0 32.5 11.5 q12.5 11.5 12.5 29.5 q0 19 -12.5 30 q-12.5 11 -32.5 11 q-21 0 -33 -11 q-12 -11 -12 -30 q0 -18 12 -29.5 q12 -11.5 33 -11.5 Z" /><glyph glyph-name="atilde" unicode="ã" d="M218 652 q-27 0 -35 -53 l-95 0 q2 66 35 107.5 q33 41.5 87 41.5 q33 0 53 -12 q20 -12 42 -34 q12 -12 19.5 -17.5 q7.5 -5.5 16.5 -5.5 q27 0 36 54 l95 0 q-2 -66 -35.5 -107.5 q-33.5 -41.5 -87.5 -41.5 q-32 0 -52.5 12 q-20.5 12 -40.5 32 q-13 13 -21 18.5 q-8 5.5 -17 5.5 ZM284 531 q105 0 164 -59.5 q59 -59.5 59 -169.5 l0 -302 l-117 0 q-1 8 -2.5 26.5 q-1.5 18.5 -4.5 32.5 q-23 -36 -59.5 -53.5 q-36.5 -17.5 -88.5 -17.5 q-54 0 -98.5 19 q-44.5 19 -70.5 55.5 q-26 36.5 -26 86.5 q0 52 29.5 90.5 q29.5 38.5 79.5 59.5 q50 21 110 21 q54 0 111 -18 q-3 115 -98 115 q-76 0 -111 -68 l-99 57 q28 58 86 91.5 q58 33.5 136 33.5 ZM370 210 q-50 12 -87 12 q-49 0 -76 -17.5 q-27 -17.5 -27 -49.5 q0 -29 21.5 -45 q21.5 -16 55.5 -16 q45 0 79 25.5 q34 25.5 34 70.5 l0 20 Z" /><glyph glyph-name="ae" unicode="æ" d="M635 531 q68 0 120 -30.5 q52 -30.5 81 -86 q29 -55.5 29 -127.5 q0 -32 -6 -65 l-344 0 q9 -58 42 -87.5 q33 -29.5 82 -29.5 q35 0 62 15.5 q27 15.5 42 46.5 l103 -60 q-22 -57 -81 -88 q-59 -31 -132 -31 q-61 0 -110 24 q-49 24 -81 70 q-51 -94 -187 -94 q-94 0 -154.5 43 q-60.5 43 -60.5 118 q0 52 28.5 90.5 q28.5 38.5 78.5 59.5 q50 21 111 21 q55 0 114 -18 q-6 115 -103 115 q-73 0 -108 -69 l-99 58 q23 58 80 91.5 q57 33.5 132 33.5 q61 0 105 -22.5 q44 -22.5 70 -64.5 q33 43 81.5 65 q48.5 22 104.5 22 ZM723 319 q-4 48 -30.5 73.5 q-26.5 25.5 -66.5 25.5 q-41 0 -70.5 -26 q-29.5 -26 -39.5 -73 l207 0 ZM373 210 q-52 12 -92 12 q-49 0 -75 -17.5 q-26 -17.5 -26 -47.5 q0 -30 23 -46.5 q23 -16.5 59 -16.5 q46 0 78.5 25.5 q32.5 25.5 32.5 70.5 l0 20 Z" /><glyph glyph-name="aeacute" unicode="&#x1fd;" d="M481 748 l140 0 l-120 -165 l-110 0 l90 165 ZM635 531 q68 0 120 -30.5 q52 -30.5 81 -86 q29 -55.5 29 -127.5 q0 -32 -6 -65 l-344 0 q9 -58 42 -87.5 q33 -29.5 82 -29.5 q35 0 62 15.5 q27 15.5 42 46.5 l103 -60 q-22 -57 -81 -88 q-59 -31 -132 -31 q-61 0 -110 24 q-49 24 -81 70 q-51 -94 -187 -94 q-94 0 -154.5 43 q-60.5 43 -60.5 118 q0 52 28.5 90.5 q28.5 38.5 78.5 59.5 q50 21 111 21 q55 0 114 -18 q-6 115 -103 115 q-73 0 -108 -69 l-99 58 q23 58 80 91.5 q57 33.5 132 33.5 q61 0 105 -22.5 q44 -22.5 70 -64.5 q33 43 81.5 65 q48.5 22 104.5 22 ZM723 319 q-4 48 -30.5 73.5 q-26.5 25.5 -66.5 25.5 q-41 0 -70.5 -26 q-29.5 -26 -39.5 -73 l207 0 ZM373 210 q-52 12 -92 12 q-49 0 -75 -17.5 q-26 -17.5 -26 -47.5 q0 -30 23 -46.5 q23 -16.5 59 -16.5 q46 0 78.5 25.5 q32.5 25.5 32.5 70.5 l0 20 Z" /><glyph glyph-name="b" unicode="b" d="M361 531 q63 0 116.5 -32 q53.5 -32 85 -94 q31.5 -62 31.5 -146 q0 -84 -31.5 -145.5 q-31.5 -61.5 -85 -93.5 q-53.5 -32 -116.5 -32 q-52 0 -95.5 22 q-43.5 22 -70.5 68 q-7 -57 -8 -78 l-122 0 l0 761 l139 0 l0 -308 q28 39 68.5 58.5 q40.5 19.5 88.5 19.5 ZM329 107 q54 0 87.5 41 q33.5 41 33.5 111 q0 70 -33 109 q-33 39 -88 39 q-53 0 -89 -36.5 q-36 -36.5 -36 -111.5 q0 -75 36.5 -113.5 q36.5 -38.5 88.5 -38.5 Z" /><glyph glyph-name="c" unicode="c" d="M298 109 q60 0 96 59 l106 -62 q-25 -58 -79 -88 q-54 -30 -123 -30 q-69 0 -129 31.5 q-60 31.5 -97 93 q-37 61.5 -37 146.5 q0 86 37 147.5 q37 61.5 97 93 q60 31.5 129 31.5 q69 0 123 -30 q54 -30 79 -88 l-106 -62 q-35 58 -96 58 q-54 0 -86.5 -40.5 q-32.5 -40.5 -32.5 -109.5 q0 -68 33 -109 q33 -41 86 -41 Z" /><glyph glyph-name="cacute" unicode="&#x107;" d="M222 583 l90 165 l140 0 l-121 -165 l-109 0 ZM298 109 q60 0 96 59 l106 -62 q-25 -58 -79 -88 q-54 -30 -123 -30 q-69 0 -129 31.5 q-60 31.5 -97 93 q-37 61.5 -37 146.5 q0 86 37 147.5 q37 61.5 97 93 q60 31.5 129 31.5 q69 0 123 -30 q54 -30 79 -88 l-106 -62 q-35 58 -96 58 q-54 0 -86.5 -40.5 q-32.5 -40.5 -32.5 -109.5 q0 -68 33 -109 q33 -41 86 -41 Z" /><glyph glyph-name="ccaron" unicode="&#x10d;" d="M224 748 l61 -79 l60 79 l119 0 l-128 -165 l-104 0 l-128 165 l120 0 ZM298 109 q60 0 96 59 l106 -62 q-25 -58 -79 -88 q-54 -30 -123 -30 q-69 0 -129 31.5 q-60 31.5 -97 93 q-37 61.5 -37 146.5 q0 86 37 147.5 q37 61.5 97 93 q60 31.5 129 31.5 q69 0 123 -30 q54 -30 79 -88 l-106 -62 q-35 58 -96 58 q-54 0 -86.5 -40.5 q-32.5 -40.5 -32.5 -109.5 q0 -68 33 -109 q33 -41 86 -41 Z" /><glyph glyph-name="ccedilla" unicode="ç" d="M298 109 q60 0 96 59 l106 -62 q-22 -50 -66 -79.5 q-44 -29.5 -102 -36.5 l-20 -47 q48 0 79.5 -23 q31.5 -23 31.5 -66 q0 -50 -42 -74 q-42 -24 -104 -24 q-39 0 -82 12 l0 71 q41 -12 77 -12 q54 0 54 25 q0 13 -14.5 20 q-14.5 7 -38.5 7 q-23 0 -55 -8 l-9 47 l32 76 q-58 11 -104.5 45.5 q-46.5 34.5 -74 90.5 q-27.5 56 -27.5 129 q0 86 37 147.5 q37 61.5 97 93 q60 31.5 129 31.5 q69 0 123 -30 q54 -30 79 -88 l-106 -62 q-35 58 -96 58 q-54 0 -86.5 -40.5 q-32.5 -40.5 -32.5 -109.5 q0 -68 33 -109 q33 -41 86 -41 Z" /><glyph glyph-name="ccircumflex" unicode="&#x109;" d="M232 748 l104 0 l128 -165 l-119 0 l-61 79 l-61 -79 l-120 0 l129 165 ZM298 109 q60 0 96 59 l106 -62 q-25 -58 -79 -88 q-54 -30 -123 -30 q-69 0 -129 31.5 q-60 31.5 -97 93 q-37 61.5 -37 146.5 q0 86 37 147.5 q37 61.5 97 93 q60 31.5 129 31.5 q69 0 123 -30 q54 -30 79 -88 l-106 -62 q-35 58 -96 58 q-54 0 -86.5 -40.5 q-32.5 -40.5 -32.5 -109.5 q0 -68 33 -109 q33 -41 86 -41 Z" /><glyph glyph-name="cdotaccent" unicode="&#x10b;" d="M285 584 q-34 0 -58.5 25.5 q-24.5 25.5 -24.5 59.5 q0 35 24.5 60 q24.5 25 58.5 25 q33 0 58 -25.5 q25 -25.5 25 -59.5 q0 -34 -24.5 -59.5 q-24.5 -25.5 -58.5 -25.5 ZM298 109 q60 0 96 59 l106 -62 q-25 -58 -79 -88 q-54 -30 -123 -30 q-69 0 -129 31.5 q-60 31.5 -97 93 q-37 61.5 -37 146.5 q0 86 37 147.5 q37 61.5 97 93 q60 31.5 129 31.5 q69 0 123 -30 q54 -30 79 -88 l-106 -62 q-35 58 -96 58 q-54 0 -86.5 -40.5 q-32.5 -40.5 -32.5 -109.5 q0 -68 33 -109 q33 -41 86 -41 Z" /><glyph glyph-name="d" unicode="d" d="M425 761 l139 0 l0 -761 l-122 0 q-5 58 -8 78 q-27 -45 -70.5 -67.5 q-43.5 -22.5 -94.5 -22.5 q-64 0 -117 32 q-53 32 -85 93.5 q-32 61.5 -32 145.5 q0 85 32 146.5 q32 61.5 85 93.5 q53 32 117 32 q47 0 87.5 -19 q40.5 -19 68.5 -58 l0 307 ZM301 107 q52 0 88 38 q36 38 36 114 q0 75 -36 111.5 q-36 36.5 -88 36.5 q-55 0 -88.5 -39 q-33.5 -39 -33.5 -109 q0 -70 33.5 -111 q33.5 -41 88.5 -41 Z" /><glyph glyph-name="eth" unicode="ð" d="M401 643 q80 -74 122 -167 q42 -93 42 -195 q0 -92 -36 -158.5 q-36 -66.5 -96 -100.5 q-60 -34 -132 -34 q-72 0 -133 32.5 q-61 32.5 -97 92.5 q-36 60 -36 139 q0 78 36.5 138 q36.5 60 96 92.5 q59.5 32.5 125.5 32.5 q42 0 75 -18 q-30 44 -80 83 l-140 -77 l-41 79 l96 53 q-48 25 -94 41 l66 98 q84 -30 149 -72 l130 72 l43 -79 l-96 -52 ZM301 103 q53 0 86 40.5 q33 40.5 33 107.5 q0 67 -33.5 107 q-33.5 40 -85.5 40 q-53 0 -87.5 -40 q-34.5 -40 -34.5 -107 q0 -67 34.5 -107.5 q34.5 -40.5 87.5 -40.5 Z" /><glyph glyph-name="dcaron" unicode="&#x10f;" d="M663 765 q30 0 49 -22 q19 -22 19 -68 q0 -63 -35 -100 q-35 -37 -93 -46 l0 57 q51 11 61 48 l-4 0 q-26 0 -42.5 19 q-16.5 19 -16.5 48 q0 30 17.5 47 q17.5 17 44.5 17 ZM425 761 l139 0 l0 -761 l-122 0 q-5 58 -8 78 q-27 -45 -70.5 -67.5 q-43.5 -22.5 -94.5 -22.5 q-64 0 -117 32 q-53 32 -85 93.5 q-32 61.5 -32 145.5 q0 85 32 146.5 q32 61.5 85 93.5 q53 32 117 32 q47 0 87.5 -19 q40.5 -19 68.5 -58 l0 307 ZM301 107 q52 0 88 38 q36 38 36 114 q0 75 -36 111.5 q-36 36.5 -88 36.5 q-55 0 -88.5 -39 q-33.5 -39 -33.5 -109 q0 -70 33.5 -111 q33.5 -41 88.5 -41 Z" /><glyph glyph-name="dcroat" unicode="&#x111;" d="M564 675 l74 0 l0 -99 l-74 0 l0 -576 l-122 0 q-5 58 -8 78 q-27 -45 -70.5 -67.5 q-43.5 -22.5 -94.5 -22.5 q-64 0 -117 32 q-53 32 -85 93.5 q-32 61.5 -32 145.5 q0 85 32 146.5 q32 61.5 85 93.5 q53 32 117 32 q47 0 87.5 -19 q40.5 -19 68.5 -58 l0 122 l-119 0 l0 99 l119 0 l0 86 l139 0 l0 -86 ZM301 107 q52 0 88 38 q36 38 36 114 q0 75 -36 111.5 q-36 36.5 -88 36.5 q-55 0 -88.5 -39 q-33.5 -39 -33.5 -109 q0 -70 33.5 -111 q33.5 -41 88.5 -41 Z" /><glyph glyph-name="e" unicode="e" d="M295 531 q69 0 122.5 -30.5 q53.5 -30.5 83 -86 q29.5 -55.5 29.5 -127.5 q0 -32 -6 -65 l-344 0 q9 -58 42 -87.5 q33 -29.5 82 -29.5 q35 0 62.5 15.5 q27.5 15.5 42.5 46.5 l102 -60 q-21 -57 -80.5 -88 q-59.5 -31 -132.5 -31 q-70 0 -130 31 q-60 31 -96.5 93 q-36.5 62 -36.5 149 q0 86 36.5 147 q36.5 61 95.5 92 q59 31 128 31 ZM291 418 q-41 0 -70 -26 q-29 -26 -39 -73 l206 0 q-4 48 -30.5 73.5 q-26.5 25.5 -66.5 25.5 Z" /><glyph glyph-name="eacute" unicode="é" d="M229 583 l90 165 l140 0 l-120 -165 l-110 0 ZM295 531 q69 0 122.5 -30.5 q53.5 -30.5 83 -86 q29.5 -55.5 29.5 -127.5 q0 -32 -6 -65 l-344 0 q9 -58 42 -87.5 q33 -29.5 82 -29.5 q35 0 62.5 15.5 q27.5 15.5 42.5 46.5 l102 -60 q-21 -57 -80.5 -88 q-59.5 -31 -132.5 -31 q-70 0 -130 31 q-60 31 -96.5 93 q-36.5 62 -36.5 149 q0 86 36.5 147 q36.5 61 95.5 92 q59 31 128 31 ZM291 418 q-41 0 -70 -26 q-29 -26 -39 -73 l206 0 q-4 48 -30.5 73.5 q-26.5 25.5 -66.5 25.5 Z" /><glyph glyph-name="ebreve" unicode="&#x115;" d="M292 582 q-80 0 -129 44.5 q-49 44.5 -49 120.5 l109 0 q3 -37 20.5 -57.5 q17.5 -20.5 48.5 -20.5 q62 0 70 78 l108 0 q0 -76 -48.5 -120.5 q-48.5 -44.5 -129.5 -44.5 ZM295 531 q69 0 122.5 -30.5 q53.5 -30.5 83 -86 q29.5 -55.5 29.5 -127.5 q0 -32 -6 -65 l-344 0 q9 -58 42 -87.5 q33 -29.5 82 -29.5 q35 0 62.5 15.5 q27.5 15.5 42.5 46.5 l102 -60 q-21 -57 -80.5 -88 q-59.5 -31 -132.5 -31 q-70 0 -130 31 q-60 31 -96.5 93 q-36.5 62 -36.5 149 q0 86 36.5 147 q36.5 61 95.5 92 q59 31 128 31 ZM291 418 q-41 0 -70 -26 q-29 -26 -39 -73 l206 0 q-4 48 -30.5 73.5 q-26.5 25.5 -66.5 25.5 Z" /><glyph glyph-name="ecaron" unicode="&#x11b;" d="M231 748 l61 -80 l60 80 l119 0 l-128 -165 l-103 0 l-129 165 l120 0 ZM295 531 q69 0 122.5 -30.5 q53.5 -30.5 83 -86 q29.5 -55.5 29.5 -127.5 q0 -32 -6 -65 l-344 0 q9 -58 42 -87.5 q33 -29.5 82 -29.5 q35 0 62.5 15.5 q27.5 15.5 42.5 46.5 l102 -60 q-21 -57 -80.5 -88 q-59.5 -31 -132.5 -31 q-70 0 -130 31 q-60 31 -96.5 93 q-36.5 62 -36.5 149 q0 86 36.5 147 q36.5 61 95.5 92 q59 31 128 31 ZM291 418 q-41 0 -70 -26 q-29 -26 -39 -73 l206 0 q-4 48 -30.5 73.5 q-26.5 25.5 -66.5 25.5 Z" /><glyph glyph-name="ecircumflex" unicode="ê" d="M239 748 l104 0 l128 -165 l-119 0 l-61 79 l-61 -79 l-119 0 l128 165 ZM295 531 q69 0 122.5 -30.5 q53.5 -30.5 83 -86 q29.5 -55.5 29.5 -127.5 q0 -32 -6 -65 l-344 0 q9 -58 42 -87.5 q33 -29.5 82 -29.5 q35 0 62.5 15.5 q27.5 15.5 42.5 46.5 l102 -60 q-21 -57 -80.5 -88 q-59.5 -31 -132.5 -31 q-70 0 -130 31 q-60 31 -96.5 93 q-36.5 62 -36.5 149 q0 86 36.5 147 q36.5 61 95.5 92 q59 31 128 31 ZM291 418 q-41 0 -70 -26 q-29 -26 -39 -73 l206 0 q-4 48 -30.5 73.5 q-26.5 25.5 -66.5 25.5 Z" /><glyph glyph-name="uni1EBF" unicode="&#x1ebf;" d="M354 765 l90 160 l140 0 l-121 -160 l-109 0 ZM236 742 l104 0 l128 -159 l-119 0 l-60 77 l-61 -77 l-120 0 l128 159 ZM295 531 q69 0 122.5 -30.5 q53.5 -30.5 83 -86 q29.5 -55.5 29.5 -127.5 q0 -32 -6 -65 l-344 0 q9 -58 42 -87.5 q33 -29.5 82 -29.5 q35 0 62.5 15.5 q27.5 15.5 42.5 46.5 l102 -60 q-21 -57 -80.5 -88 q-59.5 -31 -132.5 -31 q-70 0 -130 31 q-60 31 -96.5 93 q-36.5 62 -36.5 149 q0 86 36.5 147 q36.5 61 95.5 92 q59 31 128 31 ZM291 418 q-41 0 -70 -26 q-29 -26 -39 -73 l206 0 q-4 48 -30.5 73.5 q-26.5 25.5 -66.5 25.5 Z" /><glyph glyph-name="uni1EC7" unicode="&#x1ec7;" d="M239 748 l104 0 l128 -165 l-119 0 l-61 79 l-61 -79 l-119 0 l128 165 ZM295 531 q69 0 122.5 -30.5 q53.5 -30.5 83 -86 q29.5 -55.5 29.5 -127.5 q0 -32 -6 -65 l-344 0 q9 -58 42 -87.5 q33 -29.5 82 -29.5 q35 0 62.5 15.5 q27.5 15.5 42.5 46.5 l102 -60 q-21 -57 -80.5 -88 q-59.5 -31 -132.5 -31 q-70 0 -130 31 q-60 31 -96.5 93 q-36.5 62 -36.5 149 q0 86 36.5 147 q36.5 61 95.5 92 q59 31 128 31 ZM291 418 q-41 0 -70 -26 q-29 -26 -39 -73 l206 0 q-4 48 -30.5 73.5 q-26.5 25.5 -66.5 25.5 ZM298 -222 q-34 0 -58 24.5 q-24 24.5 -24 57.5 q0 33 24 57 q24 24 58 24 q34 0 58.5 -24 q24.5 -24 24.5 -57 q0 -33 -24.5 -57.5 q-24.5 -24.5 -58.5 -24.5 Z" /><glyph glyph-name="uni1EC1" unicode="&#x1ec1;" d="M249 925 l139 0 l90 -160 l-109 0 l-120 160 ZM236 742 l104 0 l128 -159 l-119 0 l-60 77 l-61 -77 l-120 0 l128 159 ZM295 531 q69 0 122.5 -30.5 q53.5 -30.5 83 -86 q29.5 -55.5 29.5 -127.5 q0 -32 -6 -65 l-344 0 q9 -58 42 -87.5 q33 -29.5 82 -29.5 q35 0 62.5 15.5 q27.5 15.5 42.5 46.5 l102 -60 q-21 -57 -80.5 -88 q-59.5 -31 -132.5 -31 q-70 0 -130 31 q-60 31 -96.5 93 q-36.5 62 -36.5 149 q0 86 36.5 147 q36.5 61 95.5 92 q59 31 128 31 ZM291 418 q-41 0 -70 -26 q-29 -26 -39 -73 l206 0 q-4 48 -30.5 73.5 q-26.5 25.5 -66.5 25.5 Z" /><glyph glyph-name="uni1EC3" unicode="&#x1ec3;" d="M308 898 q43 27 103 27 q55 0 90.5 -24 q35.5 -24 35.5 -70 q0 -82 -117 -118 l-48 60 q32 11 48.5 22 q16.5 11 16.5 26 q0 13 -11 21 q-11 8 -30 8 q-31 0 -70 -23 l-18 71 ZM236 740 l104 0 l128 -157 l-119 0 l-60 76 l-61 -76 l-120 0 l128 157 ZM295 531 q69 0 122.5 -30.5 q53.5 -30.5 83 -86 q29.5 -55.5 29.5 -127.5 q0 -32 -6 -65 l-344 0 q9 -58 42 -87.5 q33 -29.5 82 -29.5 q35 0 62.5 15.5 q27.5 15.5 42.5 46.5 l102 -60 q-21 -57 -80.5 -88 q-59.5 -31 -132.5 -31 q-70 0 -130 31 q-60 31 -96.5 93 q-36.5 62 -36.5 149 q0 86 36.5 147 q36.5 61 95.5 92 q59 31 128 31 ZM291 418 q-41 0 -70 -26 q-29 -26 -39 -73 l206 0 q-4 48 -30.5 73.5 q-26.5 25.5 -66.5 25.5 Z" /><glyph glyph-name="uni1EC5" unicode="&#x1ec5;" d="M229 831 q-28 0 -35 -52 l-96 0 q2 63 35.5 103 q33.5 40 87.5 40 q32 0 52.5 -11.5 q20.5 -11.5 41.5 -31.5 q12 -12 20 -17.5 q8 -5.5 17 -5.5 q28 0 35 52 l95 0 q-2 -64 -35 -103.5 q-33 -39.5 -87 -39.5 q-32 0 -52.5 11.5 q-20.5 11.5 -41.5 31.5 q-12 12 -20 17.5 q-8 5.5 -17 5.5 ZM238 741 l104 0 l128 -158 l-119 0 l-60 76 l-61 -76 l-120 0 l128 158 ZM295 531 q69 0 122.5 -30.5 q53.5 -30.5 83 -86 q29.5 -55.5 29.5 -127.5 q0 -32 -6 -65 l-344 0 q9 -58 42 -87.5 q33 -29.5 82 -29.5 q35 0 62.5 15.5 q27.5 15.5 42.5 46.5 l102 -60 q-21 -57 -80.5 -88 q-59.5 -31 -132.5 -31 q-70 0 -130 31 q-60 31 -96.5 93 q-36.5 62 -36.5 149 q0 86 36.5 147 q36.5 61 95.5 92 q59 31 128 31 ZM291 418 q-41 0 -70 -26 q-29 -26 -39 -73 l206 0 q-4 48 -30.5 73.5 q-26.5 25.5 -66.5 25.5 Z" /><glyph glyph-name="edieresis" unicode="ë" d="M179 588 q-30 0 -52 23 q-22 23 -22 54 q0 32 21.5 54.5 q21.5 22.5 52.5 22.5 q32 0 54 -22.5 q22 -22.5 22 -54.5 q0 -31 -22 -54 q-22 -23 -54 -23 ZM404 588 q-31 0 -53 23 q-22 23 -22 54 q0 32 22 54.5 q22 22.5 53 22.5 q31 0 53 -22.5 q22 -22.5 22 -54.5 q0 -31 -22 -54 q-22 -23 -53 -23 ZM295 531 q69 0 122.5 -30.5 q53.5 -30.5 83 -86 q29.5 -55.5 29.5 -127.5 q0 -32 -6 -65 l-344 0 q9 -58 42 -87.5 q33 -29.5 82 -29.5 q35 0 62.5 15.5 q27.5 15.5 42.5 46.5 l102 -60 q-21 -57 -80.5 -88 q-59.5 -31 -132.5 -31 q-70 0 -130 31 q-60 31 -96.5 93 q-36.5 62 -36.5 149 q0 86 36.5 147 q36.5 61 95.5 92 q59 31 128 31 ZM291 418 q-41 0 -70 -26 q-29 -26 -39 -73 l206 0 q-4 48 -30.5 73.5 q-26.5 25.5 -66.5 25.5 Z" /><glyph glyph-name="edotaccent" unicode="&#x117;" d="M292 584 q-34 0 -58.5 25 q-24.5 25 -24.5 59 q0 35 24.5 60 q24.5 25 58.5 25 q34 0 58.5 -25 q24.5 -25 24.5 -60 q0 -34 -24.5 -59 q-24.5 -25 -58.5 -25 ZM295 531 q69 0 122.5 -30.5 q53.5 -30.5 83 -86 q29.5 -55.5 29.5 -127.5 q0 -32 -6 -65 l-344 0 q9 -58 42 -87.5 q33 -29.5 82 -29.5 q35 0 62.5 15.5 q27.5 15.5 42.5 46.5 l102 -60 q-21 -57 -80.5 -88 q-59.5 -31 -132.5 -31 q-70 0 -130 31 q-60 31 -96.5 93 q-36.5 62 -36.5 149 q0 86 36.5 147 q36.5 61 95.5 92 q59 31 128 31 ZM291 418 q-41 0 -70 -26 q-29 -26 -39 -73 l206 0 q-4 48 -30.5 73.5 q-26.5 25.5 -66.5 25.5 Z" /><glyph glyph-name="uni1EB9" unicode="&#x1eb9;" d="M295 531 q69 0 122.5 -30.5 q53.5 -30.5 83 -86 q29.5 -55.5 29.5 -127.5 q0 -32 -6 -65 l-344 0 q9 -58 42 -87.5 q33 -29.5 82 -29.5 q35 0 62.5 15.5 q27.5 15.5 42.5 46.5 l102 -60 q-21 -57 -80.5 -88 q-59.5 -31 -132.5 -31 q-70 0 -130 31 q-60 31 -96.5 93 q-36.5 62 -36.5 149 q0 86 36.5 147 q36.5 61 95.5 92 q59 31 128 31 ZM291 418 q-41 0 -70 -26 q-29 -26 -39 -73 l206 0 q-4 48 -30.5 73.5 q-26.5 25.5 -66.5 25.5 ZM298 -222 q-34 0 -58 24.5 q-24 24.5 -24 57.5 q0 33 24 57 q24 24 58 24 q34 0 58.5 -24 q24.5 -24 24.5 -57 q0 -33 -24.5 -57.5 q-24.5 -24.5 -58.5 -24.5 Z" /><glyph glyph-name="egrave" unicode="è" d="M124 748 l140 0 l90 -165 l-109 0 l-121 165 ZM295 531 q69 0 122.5 -30.5 q53.5 -30.5 83 -86 q29.5 -55.5 29.5 -127.5 q0 -32 -6 -65 l-344 0 q9 -58 42 -87.5 q33 -29.5 82 -29.5 q35 0 62.5 15.5 q27.5 15.5 42.5 46.5 l102 -60 q-21 -57 -80.5 -88 q-59.5 -31 -132.5 -31 q-70 0 -130 31 q-60 31 -96.5 93 q-36.5 62 -36.5 149 q0 86 36.5 147 q36.5 61 95.5 92 q59 31 128 31 ZM291 418 q-41 0 -70 -26 q-29 -26 -39 -73 l206 0 q-4 48 -30.5 73.5 q-26.5 25.5 -66.5 25.5 Z" /><glyph glyph-name="uni1EBB" unicode="&#x1ebb;" d="M172 752 q20 13 47 20.5 q27 7.5 56 7.5 q55 0 91 -24.5 q36 -24.5 36 -74.5 q0 -85 -118 -123 l-47 63 q64 21 64 51 q0 13 -11 21 q-11 8 -30 8 q-33 0 -70 -23 l-18 74 ZM295 531 q69 0 122.5 -30.5 q53.5 -30.5 83 -86 q29.5 -55.5 29.5 -127.5 q0 -32 -6 -65 l-344 0 q9 -58 42 -87.5 q33 -29.5 82 -29.5 q35 0 62.5 15.5 q27.5 15.5 42.5 46.5 l102 -60 q-21 -57 -80.5 -88 q-59.5 -31 -132.5 -31 q-70 0 -130 31 q-60 31 -96.5 93 q-36.5 62 -36.5 149 q0 86 36.5 147 q36.5 61 95.5 92 q59 31 128 31 ZM291 418 q-41 0 -70 -26 q-29 -26 -39 -73 l206 0 q-4 48 -30.5 73.5 q-26.5 25.5 -66.5 25.5 Z" /><glyph glyph-name="emacron" unicode="&#x113;" d="M121 616 l0 95 l342 0 l0 -95 l-342 0 ZM295 531 q69 0 122.5 -30.5 q53.5 -30.5 83 -86 q29.5 -55.5 29.5 -127.5 q0 -32 -6 -65 l-344 0 q9 -58 42 -87.5 q33 -29.5 82 -29.5 q35 0 62.5 15.5 q27.5 15.5 42.5 46.5 l102 -60 q-21 -57 -80.5 -88 q-59.5 -31 -132.5 -31 q-70 0 -130 31 q-60 31 -96.5 93 q-36.5 62 -36.5 149 q0 86 36.5 147 q36.5 61 95.5 92 q59 31 128 31 ZM291 418 q-41 0 -70 -26 q-29 -26 -39 -73 l206 0 q-4 48 -30.5 73.5 q-26.5 25.5 -66.5 25.5 Z" /><glyph glyph-name="eogonek" unicode="&#x119;" d="M295 531 q69 0 122.5 -30.5 q53.5 -30.5 83 -86 q29.5 -55.5 29.5 -127.5 q0 -32 -6 -65 l-344 0 q9 -58 42 -87.5 q33 -29.5 82 -29.5 q35 0 62.5 15.5 q27.5 15.5 42.5 46.5 l102 -60 q-17 -45 -62 -77 q-72 -53 -98 -81 q-26 -28 -26 -59 q0 -46 53 -46 q36 0 72 31 l46 -66 q-51 -53 -130 -53 q-61 0 -100 27.5 q-39 27.5 -39 84.5 q0 34 15 62.5 q15 28.5 44 57.5 q-68 3 -125 35 q-57 32 -91.5 93 q-34.5 61 -34.5 145 q0 86 36.5 147 q36.5 61 95.5 92 q59 31 128 31 ZM388 319 q-4 48 -30.5 73.5 q-26.5 25.5 -66.5 25.5 q-41 0 -70 -26 q-29 -26 -39 -73 l206 0 Z" /><glyph glyph-name="uni1EBD" unicode="&#x1ebd;" d="M100 599 q2 66 35 107.5 q33 41.5 87 41.5 q33 0 53 -12 q20 -12 42 -34 q12 -12 19.5 -17.5 q7.5 -5.5 16.5 -5.5 q27 0 36 54 l95 0 q-2 -66 -35.5 -107.5 q-33.5 -41.5 -87.5 -41.5 q-32 0 -52 11.5 q-20 11.5 -41 32.5 q-12 13 -20.5 18.5 q-8.5 5.5 -17.5 5.5 q-26 0 -35 -53 l-95 0 ZM295 531 q69 0 122.5 -30.5 q53.5 -30.5 83 -86 q29.5 -55.5 29.5 -127.5 q0 -32 -6 -65 l-344 0 q9 -58 42 -87.5 q33 -29.5 82 -29.5 q35 0 62.5 15.5 q27.5 15.5 42.5 46.5 l102 -60 q-21 -57 -80.5 -88 q-59.5 -31 -132.5 -31 q-70 0 -130 31 q-60 31 -96.5 93 q-36.5 62 -36.5 149 q0 86 36.5 147 q36.5 61 95.5 92 q59 31 128 31 ZM291 418 q-41 0 -70 -26 q-29 -26 -39 -73 l206 0 q-4 48 -30.5 73.5 q-26.5 25.5 -66.5 25.5 Z" /><glyph glyph-name="uni0259" unicode="&#x259;" d="M259 531 q70 0 130 -31 q60 -31 96.5 -93 q36.5 -62 36.5 -150 q0 -85 -36.5 -146 q-36.5 -61 -95.5 -92 q-59 -31 -128 -31 q-69 0 -122.5 31 q-53.5 31 -83 86.5 q-29.5 55.5 -29.5 127.5 q0 31 6 64 l344 0 q-9 57 -42 87 q-33 30 -82 30 q-35 0 -62 -15.5 q-27 -15.5 -42 -46.5 l-103 60 q22 57 81 88 q59 31 132 31 ZM266 101 q41 0 70.5 25.5 q29.5 25.5 39.5 72.5 l-207 0 q4 -47 31 -72.5 q27 -25.5 66 -25.5 Z" /><glyph glyph-name="uni0292" unicode="&#x292;" d="M288 228 q98 -14 151.5 -75 q53.5 -61 53.5 -152 q0 -77 -36.5 -132.5 q-36.5 -55.5 -97.5 -84 q-61 -28.5 -135 -28.5 q-89 0 -154.5 42.5 q-65.5 42.5 -93.5 124.5 l108 62 q19 -53 56 -81 q37 -28 87 -28 q56 0 89 34 q33 34 33 89 q0 57 -40 89 q-40 32 -116 32 q-32 0 -70 -6 l0 106 l163 183 l-266 0 l0 115 l449 0 l0 -98 l-181 -192 Z" /><glyph glyph-name="uni01EF" unicode="&#x1ef;" d="M184 748 l61 -79 l61 79 l119 0 l-128 -165 l-104 0 l-128 165 l119 0 ZM288 228 q98 -14 151.5 -75 q53.5 -61 53.5 -152 q0 -77 -36.5 -132.5 q-36.5 -55.5 -97.5 -84 q-61 -28.5 -135 -28.5 q-89 0 -154.5 42.5 q-65.5 42.5 -93.5 124.5 l108 62 q19 -53 56 -81 q37 -28 87 -28 q56 0 89 34 q33 34 33 89 q0 57 -40 89 q-40 32 -116 32 q-32 0 -70 -6 l0 106 l163 183 l-266 0 l0 115 l449 0 l0 -98 l-181 -192 Z" /><glyph glyph-name="f" unicode="f" d="M312 653 q-37 0 -56 -27 q-19 -27 -19 -88 l0 -20 l135 0 l0 -116 l-135 0 l0 -402 l-139 0 l0 402 l-89 0 l0 116 l89 0 l0 25 q0 117 56 174 q56 57 146 57 q44 0 78 -13 q34 -13 54 -34 l-53 -100 q-31 26 -67 26 Z" /><glyph glyph-name="g" unicode="g" d="M564 518 l0 -465 q0 -157 -79 -227 q-79 -70 -196 -70 q-85 0 -149.5 36 q-64.5 36 -91.5 100 l107 61 q39 -75 134 -75 q74 0 104.5 43.5 q30.5 43.5 31.5 140.5 q-52 -74 -150 -74 q-63 0 -118 32.5 q-55 32.5 -88.5 94 q-33.5 61.5 -33.5 144.5 q0 84 33.5 145.5 q33.5 61.5 88.5 94 q55 32.5 118 32.5 q51 0 92 -22 q41 -22 67 -67 q7 41 8 76 l122 0 ZM301 107 q52 0 88 38 q36 38 36 114 q0 75 -36 111.5 q-36 36.5 -88 36.5 q-55 0 -88.5 -39 q-33.5 -39 -33.5 -109 q0 -70 33.5 -111 q33.5 -41 88.5 -41 Z" /><glyph glyph-name="gbreve" unicode="&#x11f;" d="M298 583 q-80 0 -128.5 44.5 q-48.5 44.5 -48.5 120.5 l108 0 q8 -78 69 -78 q64 0 70 78 l109 0 q0 -76 -49 -120.5 q-49 -44.5 -130 -44.5 ZM564 518 l0 -465 q0 -157 -79 -227 q-79 -70 -196 -70 q-85 0 -149.5 36 q-64.5 36 -91.5 100 l107 61 q39 -75 134 -75 q74 0 104.5 43.5 q30.5 43.5 31.5 140.5 q-52 -74 -150 -74 q-63 0 -118 32.5 q-55 32.5 -88.5 94 q-33.5 61.5 -33.5 144.5 q0 84 33.5 145.5 q33.5 61.5 88.5 94 q55 32.5 118 32.5 q51 0 92 -22 q41 -22 67 -67 q7 41 8 76 l122 0 ZM301 107 q52 0 88 38 q36 38 36 114 q0 75 -36 111.5 q-36 36.5 -88 36.5 q-55 0 -88.5 -39 q-33.5 -39 -33.5 -109 q0 -70 33.5 -111 q33.5 -41 88.5 -41 Z" /><glyph glyph-name="gcaron" unicode="&#x1e7;" d="M478 748 l-129 -165 l-103 0 l-128 165 l119 0 l61 -79 l60 79 l120 0 ZM564 518 l0 -465 q0 -157 -79 -227 q-79 -70 -196 -70 q-85 0 -149.5 36 q-64.5 36 -91.5 100 l107 61 q39 -75 134 -75 q74 0 104.5 43.5 q30.5 43.5 31.5 140.5 q-52 -74 -150 -74 q-63 0 -118 32.5 q-55 32.5 -88.5 94 q-33.5 61.5 -33.5 144.5 q0 84 33.5 145.5 q33.5 61.5 88.5 94 q55 32.5 118 32.5 q51 0 92 -22 q41 -22 67 -67 q7 41 8 76 l122 0 ZM301 107 q52 0 88 38 q36 38 36 114 q0 75 -36 111.5 q-36 36.5 -88 36.5 q-55 0 -88.5 -39 q-33.5 -39 -33.5 -109 q0 -70 33.5 -111 q33.5 -41 88.5 -41 Z" /><glyph glyph-name="gcircumflex" unicode="&#x11d;" d="M358 583 l-60 79 l-61 -79 l-120 0 l129 165 l103 0 l129 -165 l-120 0 ZM564 518 l0 -465 q0 -157 -79 -227 q-79 -70 -196 -70 q-85 0 -149.5 36 q-64.5 36 -91.5 100 l107 61 q39 -75 134 -75 q74 0 104.5 43.5 q30.5 43.5 31.5 140.5 q-52 -74 -150 -74 q-63 0 -118 32.5 q-55 32.5 -88.5 94 q-33.5 61.5 -33.5 144.5 q0 84 33.5 145.5 q33.5 61.5 88.5 94 q55 32.5 118 32.5 q51 0 92 -22 q41 -22 67 -67 q7 41 8 76 l122 0 ZM301 107 q52 0 88 38 q36 38 36 114 q0 75 -36 111.5 q-36 36.5 -88 36.5 q-55 0 -88.5 -39 q-33.5 -39 -33.5 -109 q0 -70 33.5 -111 q33.5 -41 88.5 -41 Z" /><glyph glyph-name="uni0123" unicode="&#x123;" d="M299 584 q-36 0 -61 28 q-25 28 -25 81 q0 70 43.5 116 q43.5 46 112.5 56 l0 -68 q-31 -5 -49.5 -18.5 q-18.5 -13.5 -24.5 -38.5 l4 0 q32 0 52.5 -22.5 q20.5 -22.5 20.5 -55.5 q0 -33 -20.5 -55.5 q-20.5 -22.5 -52.5 -22.5 ZM564 518 l0 -465 q0 -157 -79 -227 q-79 -70 -196 -70 q-85 0 -149.5 36 q-64.5 36 -91.5 100 l107 61 q39 -75 134 -75 q74 0 104.5 43.5 q30.5 43.5 31.5 140.5 q-52 -74 -150 -74 q-63 0 -118 32.5 q-55 32.5 -88.5 94 q-33.5 61.5 -33.5 144.5 q0 84 33.5 145.5 q33.5 61.5 88.5 94 q55 32.5 118 32.5 q51 0 92 -22 q41 -22 67 -67 q7 41 8 76 l122 0 ZM301 107 q52 0 88 38 q36 38 36 114 q0 75 -36 111.5 q-36 36.5 -88 36.5 q-55 0 -88.5 -39 q-33.5 -39 -33.5 -109 q0 -70 33.5 -111 q33.5 -41 88.5 -41 Z" /><glyph glyph-name="gdotaccent" unicode="&#x121;" d="M298 584 q-33 0 -57.5 25.5 q-24.5 25.5 -24.5 59.5 q0 35 24 60 q24 25 58 25 q34 0 59 -25.5 q25 -25.5 25 -59.5 q0 -34 -25 -59.5 q-25 -25.5 -59 -25.5 ZM564 518 l0 -465 q0 -157 -79 -227 q-79 -70 -196 -70 q-85 0 -149.5 36 q-64.5 36 -91.5 100 l107 61 q39 -75 134 -75 q74 0 104.5 43.5 q30.5 43.5 31.5 140.5 q-52 -74 -150 -74 q-63 0 -118 32.5 q-55 32.5 -88.5 94 q-33.5 61.5 -33.5 144.5 q0 84 33.5 145.5 q33.5 61.5 88.5 94 q55 32.5 118 32.5 q51 0 92 -22 q41 -22 67 -67 q7 41 8 76 l122 0 ZM301 107 q52 0 88 38 q36 38 36 114 q0 75 -36 111.5 q-36 36.5 -88 36.5 q-55 0 -88.5 -39 q-33.5 -39 -33.5 -109 q0 -70 33.5 -111 q33.5 -41 88.5 -41 Z" /><glyph glyph-name="uni0261" unicode="&#x261;" d="M564 518 l0 -465 q0 -157 -79 -227 q-79 -70 -196 -70 q-85 0 -149.5 36 q-64.5 36 -91.5 100 l107 61 q39 -75 134 -75 q74 0 104.5 43.5 q30.5 43.5 31.5 140.5 q-52 -74 -150 -74 q-63 0 -118 32.5 q-55 32.5 -88.5 94 q-33.5 61.5 -33.5 144.5 q0 84 33.5 145.5 q33.5 61.5 88.5 94 q55 32.5 118 32.5 q51 0 92 -22 q41 -22 67 -67 q7 41 8 76 l122 0 ZM301 107 q52 0 88 38 q36 38 36 114 q0 75 -36 111.5 q-36 36.5 -88 36.5 q-55 0 -88.5 -39 q-33.5 -39 -33.5 -109 q0 -70 33.5 -111 q33.5 -41 88.5 -41 Z" /><glyph glyph-name="uni01E5" unicode="&#x1e5;" d="M564 313 l90 0 l0 -107 l-90 0 l0 -153 q0 -157 -79 -227 q-79 -70 -196 -70 q-85 0 -149.5 36 q-64.5 36 -91.5 100 l107 61 q39 -75 134 -75 q74 0 104.5 43.5 q30.5 43.5 31.5 140.5 q-52 -74 -150 -74 q-63 0 -118 32.5 q-55 32.5 -88.5 94 q-33.5 61.5 -33.5 144.5 q0 84 33.5 145.5 q33.5 61.5 88.5 94 q55 32.5 118 32.5 q51 0 92 -22 q41 -22 67 -67 q7 41 8 76 l122 0 l0 -205 ZM301 107 q40 0 73 24.5 q33 24.5 44 74.5 l-105 0 l0 107 l104 0 q-11 48 -43.5 71 q-32.5 23 -72.5 23 q-55 0 -88.5 -39 q-33.5 -39 -33.5 -109 q0 -70 33.5 -111 q33.5 -41 88.5 -41 Z" /><glyph glyph-name="h" unicode="h" d="M362 531 q85 0 135.5 -56.5 q50.5 -56.5 50.5 -164.5 l0 -310 l-139 0 l0 265 q0 142 -94 142 q-50 0 -80.5 -38.5 q-30.5 -38.5 -30.5 -108.5 l0 -260 l-139 0 l0 761 l139 0 l0 -312 q50 82 158 82 Z" /><glyph glyph-name="hbar" unicode="&#x127;" d="M374 531 q85 0 135.5 -56.5 q50.5 -56.5 50.5 -164.5 l0 -310 l-141 0 l0 265 q0 68 -21.5 105 q-21.5 37 -70.5 37 q-50 0 -80.5 -38.5 q-30.5 -38.5 -30.5 -108.5 l0 -260 l-139 0 l0 576 l-74 0 l0 99 l74 0 l0 86 l139 0 l0 -86 l141 0 l0 -99 l-141 0 l0 -127 q50 82 158 82 Z" /><glyph glyph-name="uni021F" unicode="&#x21f;" d="M74 928 l61 -54 l59 54 l120 0 l-128 -115 l-104 0 l-128 115 l120 0 ZM362 531 q85 0 135.5 -56.5 q50.5 -56.5 50.5 -164.5 l0 -310 l-139 0 l0 265 q0 142 -94 142 q-50 0 -80.5 -38.5 q-30.5 -38.5 -30.5 -108.5 l0 -260 l-139 0 l0 761 l139 0 l0 -312 q50 82 158 82 Z" /><glyph glyph-name="hcircumflex" unicode="&#x125;" d="M82 928 l104 0 l128 -115 l-120 0 l-59 54 l-61 -54 l-120 0 l128 115 ZM362 531 q85 0 135.5 -56.5 q50.5 -56.5 50.5 -164.5 l0 -310 l-139 0 l0 265 q0 142 -94 142 q-50 0 -80.5 -38.5 q-30.5 -38.5 -30.5 -108.5 l0 -260 l-139 0 l0 761 l139 0 l0 -312 q50 82 158 82 Z" /><glyph glyph-name="i" unicode="i" d="M133 584 q-33 0 -57.5 25.5 q-24.5 25.5 -24.5 59.5 q0 35 24 60 q24 25 58 25 q34 0 59 -25.5 q25 -25.5 25 -59.5 q0 -34 -25 -59.5 q-25 -25.5 -59 -25.5 ZM204 0 l-139 0 l0 518 l139 0 l0 -518 Z" /><glyph glyph-name="dotlessi" unicode="&#x131;" d="M65 0 l0 518 l139 0 l0 -518 l-139 0 Z" /><glyph glyph-name="iacute" unicode="í" d="M72 583 l90 165 l140 0 l-120 -165 l-110 0 ZM65 0 l0 518 l139 0 l0 -518 l-139 0 Z" /><glyph glyph-name="ibreve" unicode="&#x12d;" d="M135 583 q-80 0 -129 44.5 q-49 44.5 -49 120.5 l109 0 q7 -78 69 -78 q62 0 70 78 l108 0 q0 -76 -48.5 -120.5 q-48.5 -44.5 -129.5 -44.5 ZM65 0 l0 518 l139 0 l0 -518 l-139 0 Z" /><glyph glyph-name="uni01D0" unicode="&#x1d0;" d="M74 748 l61 -79 l60 79 l119 0 l-128 -165 l-104 0 l-128 165 l120 0 ZM65 0 l0 518 l139 0 l0 -518 l-139 0 Z" /><glyph glyph-name="icircumflex" unicode="î" d="M82 748 l104 0 l128 -165 l-119 0 l-61 79 l-61 -79 l-119 0 l128 165 ZM65 0 l0 518 l139 0 l0 -518 l-139 0 Z" /><glyph glyph-name="idieresis" unicode="ï" d="M22 589 q-31 0 -52.5 22.5 q-21.5 22.5 -21.5 54.5 q0 32 21.5 54.5 q21.5 22.5 52.5 22.5 q32 0 54 -22.5 q22 -22.5 22 -54.5 q0 -32 -22 -54.5 q-22 -22.5 -54 -22.5 ZM246 589 q-31 0 -52.5 23 q-21.5 23 -21.5 54 q0 32 21.5 54.5 q21.5 22.5 52.5 22.5 q31 0 53.5 -22.5 q22.5 -22.5 22.5 -54.5 q0 -32 -22.5 -54.5 q-22.5 -22.5 -53.5 -22.5 ZM65 0 l0 518 l139 0 l0 -518 l-139 0 Z" /><glyph glyph-name="uni1ECB" unicode="&#x1ecb;" d="M133 584 q-33 0 -57.5 25.5 q-24.5 25.5 -24.5 59.5 q0 35 24 60 q24 25 58 25 q34 0 59 -25.5 q25 -25.5 25 -59.5 q0 -34 -25 -59.5 q-25 -25.5 -59 -25.5 ZM204 0 l-139 0 l0 518 l139 0 l0 -518 ZM135 -222 q-34 0 -58.5 24.5 q-24.5 24.5 -24.5 57.5 q0 33 24.5 57 q24.5 24 58.5 24 q34 0 58.5 -24 q24.5 -24 24.5 -57 q0 -33 -24.5 -57.5 q-24.5 -24.5 -58.5 -24.5 Z" /><glyph glyph-name="igrave" unicode="ì" d="M-33 748 l140 0 l90 -165 l-109 0 l-121 165 ZM65 0 l0 518 l139 0 l0 -518 l-139 0 Z" /><glyph glyph-name="uni1EC9" unicode="&#x1ec9;" d="M15 752 q20 14 47 21.5 q27 7.5 56 7.5 q55 0 91 -25 q36 -25 36 -74 q0 -86 -118 -124 l-47 63 q32 11 48 23 q16 12 16 28 q0 14 -11 22 q-11 8 -30 8 q-32 0 -70 -24 l-18 74 ZM65 0 l0 518 l139 0 l0 -518 l-139 0 Z" /><glyph glyph-name="ij" unicode="&#x133;" d="M133 584 q-33 0 -57.5 25.5 q-24.5 25.5 -24.5 59.5 q0 35 24 60 q24 25 58 25 q34 0 59 -25.5 q25 -25.5 25 -59.5 q0 -34 -25 -59.5 q-25 -25.5 -59 -25.5 ZM400 584 q-33 0 -57 25.5 q-24 25.5 -24 59.5 q0 35 23.5 60 q23.5 25 57.5 25 q34 0 59 -25 q25 -25 25 -60 q0 -34 -25 -59.5 q-25 -25.5 -59 -25.5 ZM204 0 l-139 0 l0 518 l139 0 l0 -518 ZM265 -244 q-42 0 -81 14.5 q-39 14.5 -65 41.5 l75 95 q25 -30 60 -30 q40 0 59 29 q19 29 19 92 l0 520 l139 0 l0 -531 q0 -78 -28.5 -130 q-28.5 -52 -75.5 -76.5 q-47 -24.5 -102 -24.5 Z" /><glyph glyph-name="imacron" unicode="&#x12b;" d="M-36 616 l0 95 l342 0 l0 -95 l-342 0 ZM65 0 l0 518 l139 0 l0 -518 l-139 0 Z" /><glyph glyph-name="iogonek" unicode="&#x12f;" d="M135 584 q-34 0 -58.5 25.5 q-24.5 25.5 -24.5 59.5 q0 35 24.5 60 q24.5 25 58.5 25 q34 0 58.5 -25 q24.5 -25 24.5 -60 q0 -34 -24.5 -59.5 q-24.5 -25.5 -58.5 -25.5 ZM266 -189 q-25 -27 -56.5 -41 q-31.5 -14 -73.5 -14 q-61 0 -100 29.5 q-39 29.5 -39 85.5 q0 71 75 129 l-7 0 l0 518 l139 0 l0 -518 q-56 -29 -82.5 -55.5 q-26.5 -26.5 -26.5 -57.5 q0 -44 50 -44 q41 0 77 35 l44 -67 Z" /><glyph glyph-name="itilde" unicode="&#x129;" d="M-57 599 q2 66 35 107.5 q33 41.5 87 41.5 q33 0 53.5 -12 q20.5 -12 41.5 -33 q10 -11 18.5 -17 q8.5 -6 17.5 -6 q27 0 36 53 l95 0 q-2 -66 -35.5 -107.5 q-33.5 -41.5 -87.5 -41.5 q-32 0 -52.5 12 q-20.5 12 -40.5 33 q-13 13 -21 18.5 q-8 5.5 -17 5.5 q-28 0 -35 -54 l-95 0 ZM65 0 l0 518 l139 0 l0 -518 l-139 0 Z" /><glyph glyph-name="j" unicode="j" d="M132 584 q-33 0 -57 25.5 q-24 25.5 -24 59.5 q0 35 24 60 q24 25 57 25 q35 0 59.5 -25 q24.5 -25 24.5 -60 q0 -34 -24.5 -59.5 q-24.5 -25.5 -59.5 -25.5 ZM-2 -244 q-42 0 -81.5 14.5 q-39.5 14.5 -64.5 41.5 l75 95 q25 -30 60 -30 q39 0 58.5 29 q19.5 29 19.5 92 l0 520 l139 0 l0 -531 q0 -78 -28.5 -130 q-28.5 -52 -75.5 -76.5 q-47 -24.5 -102 -24.5 Z" /><glyph glyph-name="uni0237" unicode="&#x237;" d="M-2 -244 q-42 0 -81.5 14.5 q-39.5 14.5 -64.5 41.5 l75 95 q25 -30 60 -30 q39 0 58.5 29 q19.5 29 19.5 92 l0 520 l139 0 l0 -531 q0 -78 -28.5 -130 q-28.5 -52 -75.5 -76.5 q-47 -24.5 -102 -24.5 Z" /><glyph glyph-name="uni01F0" unicode="&#x1f0;" d="M73 748 l61 -79 l60 79 l120 0 l-129 -165 l-103 0 l-129 165 l120 0 ZM-2 -244 q-42 0 -81.5 14.5 q-39.5 14.5 -64.5 41.5 l75 95 q25 -30 60 -30 q39 0 58.5 29 q19.5 29 19.5 92 l0 520 l139 0 l0 -531 q0 -78 -28.5 -130 q-28.5 -52 -75.5 -76.5 q-47 -24.5 -102 -24.5 Z" /><glyph glyph-name="jcircumflex" unicode="&#x135;" d="M81 748 l104 0 l129 -165 l-120 0 l-60 79 l-61 -79 l-120 0 l128 165 ZM-2 -244 q-42 0 -81.5 14.5 q-39.5 14.5 -64.5 41.5 l75 95 q25 -30 60 -30 q39 0 58.5 29 q19.5 29 19.5 92 l0 520 l139 0 l0 -531 q0 -78 -28.5 -130 q-28.5 -52 -75.5 -76.5 q-47 -24.5 -102 -24.5 Z" /><glyph glyph-name="k" unicode="k" d="M376 311 l209 -311 l-167 0 l-136 206 l-78 -86 l0 -120 l-139 0 l0 761 l139 0 l0 -472 l197 229 l161 0 l-186 -207 Z" /><glyph glyph-name="uni01E9" unicode="&#x1e9;" d="M74 928 l61 -54 l59 54 l120 0 l-128 -115 l-104 0 l-128 115 l120 0 ZM376 311 l209 -311 l-167 0 l-136 206 l-78 -86 l0 -120 l-139 0 l0 761 l139 0 l0 -472 l197 229 l161 0 l-186 -207 Z" /><glyph glyph-name="uni0137" unicode="&#x137;" d="M401 518 l162 0 l-187 -207 l211 -311 l-168 0 l-136 206 l-79 -86 l0 -120 l-139 0 l0 761 l139 0 l0 -472 l197 229 ZM309 -33 q38 0 61.5 -22 q23.5 -22 23.5 -65 q0 -56 -40 -88 q-40 -32 -115 -36 l0 54 q63 10 74 41 l-5 0 q-33 0 -53 15 q-20 15 -20 41 q0 27 21 43.5 q21 16.5 53 16.5 Z" /><glyph glyph-name="kgreenlandic" unicode="&#x138;" d="M376 311 l209 -311 l-167 0 l-136 206 l-78 -86 l0 -120 l-139 0 l0 518 l139 0 l0 -229 l197 229 l161 0 l-186 -207 Z" /><glyph glyph-name="l" unicode="l" d="M204 0 l-139 0 l0 761 l139 0 l0 -761 Z" /><glyph glyph-name="lacute" unicode="&#x13a;" d="M83 816 l93 112 l144 0 l-124 -112 l-113 0 ZM204 0 l-139 0 l0 761 l139 0 l0 -761 Z" /><glyph glyph-name="lcaron" unicode="&#x13e;" d="M303 765 q30 0 49 -22 q19 -22 19 -68 q0 -63 -35.5 -100 q-35.5 -37 -93.5 -46 l0 57 q26 5 41.5 16.5 q15.5 11.5 20.5 31.5 l-4 0 q-26 0 -43 19 q-17 19 -17 48 q0 29 17.5 46.5 q17.5 17.5 45.5 17.5 ZM204 0 l-139 0 l0 761 l139 0 l0 -761 Z" /><glyph glyph-name="uni013C" unicode="&#x13c;" d="M65 0 l0 761 l139 0 l0 -761 l-139 0 ZM131 -33 q38 0 62 -22 q24 -22 24 -65 q0 -56 -40.5 -88 q-40.5 -32 -115.5 -36 l0 54 q63 9 74 41 l-5 0 q-33 0 -52.5 15 q-19.5 15 -19.5 41 q0 27 20.5 43.5 q20.5 16.5 52.5 16.5 Z" /><glyph glyph-name="ldot" unicode="&#x140;" d="M204 0 l-139 0 l0 761 l139 0 l0 -761 ZM302 307 q-31 0 -52 21 q-21 21 -21 55 q0 35 21 55.5 q21 20.5 52 20.5 q32 0 52.5 -20.5 q20.5 -20.5 20.5 -55.5 q0 -34 -20.5 -55 q-20.5 -21 -52.5 -21 Z" /><glyph glyph-name="lslash" unicode="&#x142;" d="M223 761 l0 -266 l72 43 l0 -140 l-72 -43 l0 -355 l-139 0 l0 271 l-72 -43 l0 140 l72 43 l0 350 l139 0 Z" /><glyph glyph-name="m" unicode="m" d="M648 531 q75 0 122 -56.5 q47 -56.5 47 -162.5 l0 -312 l-136 0 l0 265 q0 142 -79 142 q-43 0 -68.5 -39 q-25.5 -39 -25.5 -108 l0 -260 l-135 0 l0 265 q0 142 -79 142 q-43 0 -68 -39 q-25 -39 -25 -108 l0 -260 l-136 0 l0 518 l119 0 q5 -57 8 -76 q51 89 148 89 q52 0 91 -27 q39 -27 59 -80 q25 55 66 81 q41 26 92 26 Z" /><glyph glyph-name="uni1E3F" unicode="&#x1e3f;" d="M388 583 l90 165 l140 0 l-121 -165 l-109 0 ZM648 531 q75 0 122 -56.5 q47 -56.5 47 -162.5 l0 -312 l-136 0 l0 265 q0 142 -79 142 q-43 0 -68.5 -39 q-25.5 -39 -25.5 -108 l0 -260 l-135 0 l0 265 q0 142 -79 142 q-43 0 -68 -39 q-25 -39 -25 -108 l0 -260 l-136 0 l0 518 l119 0 q5 -57 8 -76 q51 89 148 89 q52 0 91 -27 q39 -27 59 -80 q25 55 66 81 q41 26 92 26 Z" /><glyph glyph-name="n" unicode="n" d="M362 531 q86 0 136 -56.5 q50 -56.5 50 -164.5 l0 -310 l-139 0 l0 265 q0 142 -94 142 q-50 0 -80.5 -38.5 q-30.5 -38.5 -30.5 -108.5 l0 -260 l-139 0 l0 518 l122 0 q5 -61 9 -83 q50 96 166 96 Z" /><glyph glyph-name="nacute" unicode="&#x144;" d="M244 583 l90 165 l140 0 l-121 -165 l-109 0 ZM362 531 q86 0 136 -56.5 q50 -56.5 50 -164.5 l0 -310 l-139 0 l0 265 q0 142 -94 142 q-50 0 -80.5 -38.5 q-30.5 -38.5 -30.5 -108.5 l0 -260 l-139 0 l0 518 l122 0 q5 -61 9 -83 q50 96 166 96 Z" /><glyph glyph-name="napostrophe" unicode="&#x149;" d="M-5 593 q31 6 48 17.5 q17 11.5 23 32.5 l-3 0 q-31 0 -50.5 18.5 q-19.5 18.5 -19.5 46.5 q0 28 19.5 47 q19.5 19 49.5 19 q33 0 56.5 -23.5 q23.5 -23.5 23.5 -68.5 q0 -59 -40.5 -98 q-40.5 -39 -106.5 -47 l0 56 ZM362 531 q86 0 136 -56.5 q50 -56.5 50 -164.5 l0 -310 l-140 0 l0 265 q0 142 -93 142 q-50 0 -80.5 -38.5 q-30.5 -38.5 -30.5 -108.5 l0 -260 l-139 0 l0 518 l122 0 q5 -61 9 -83 q50 96 166 96 Z" /><glyph glyph-name="ncaron" unicode="&#x148;" d="M245 748 l61 -79 l60 79 l120 0 l-129 -165 l-103 0 l-129 165 l120 0 ZM362 531 q86 0 136 -56.5 q50 -56.5 50 -164.5 l0 -310 l-139 0 l0 265 q0 142 -94 142 q-50 0 -80.5 -38.5 q-30.5 -38.5 -30.5 -108.5 l0 -260 l-139 0 l0 518 l122 0 q5 -61 9 -83 q50 96 166 96 Z" /><glyph glyph-name="uni0146" unicode="&#x146;" d="M362 531 q86 0 136 -56.5 q50 -56.5 50 -164.5 l0 -310 l-139 0 l0 265 q0 142 -94 142 q-50 0 -80.5 -38.5 q-30.5 -38.5 -30.5 -108.5 l0 -260 l-139 0 l0 518 l122 0 q5 -61 9 -83 q50 96 166 96 ZM305 -33 q38 0 61.5 -22 q23.5 -22 23.5 -65 q0 -55 -40 -87.5 q-40 -32.5 -115 -36.5 l0 54 q31 5 49.5 14.5 q18.5 9.5 24.5 26.5 l-5 0 q-33 0 -53 15 q-20 15 -20 41 q0 27 21 43.5 q21 16.5 53 16.5 Z" /><glyph glyph-name="uni01F9" unicode="&#x1f9;" d="M139 748 l140 0 l89 -165 l-109 0 l-120 165 ZM362 531 q86 0 136 -56.5 q50 -56.5 50 -164.5 l0 -310 l-139 0 l0 265 q0 142 -94 142 q-50 0 -80.5 -38.5 q-30.5 -38.5 -30.5 -108.5 l0 -260 l-139 0 l0 518 l122 0 q5 -61 9 -83 q50 96 166 96 Z" /><glyph glyph-name="eng" unicode="&#x14b;" d="M362 531 q86 0 136 -56.5 q50 -56.5 50 -164.5 l0 -330 q0 -111 -55 -167.5 q-55 -56.5 -139 -56.5 q-71 0 -121 40 l53 100 q27 -19 55 -19 q68 0 68 115 l0 273 q0 142 -94 142 q-50 0 -80.5 -38.5 q-30.5 -38.5 -30.5 -108.5 l0 -260 l-139 0 l0 518 l122 0 q5 -61 9 -83 q50 96 166 96 Z" /><glyph glyph-name="ntilde" unicode="ñ" d="M114 599 q2 66 35.5 107.5 q33.5 41.5 87.5 41.5 q32 0 52.5 -11.5 q20.5 -11.5 40.5 -32.5 q13 -12 21 -18 q8 -6 17 -6 q26 0 35 53 l95 0 q-2 -67 -35.5 -108 q-33.5 -41 -87.5 -41 q-32 0 -52.5 12 q-20.5 12 -40.5 33 q-12 12 -20.5 18 q-8.5 6 -17.5 6 q-26 0 -35 -54 l-95 0 ZM362 531 q86 0 136 -56.5 q50 -56.5 50 -164.5 l0 -310 l-139 0 l0 265 q0 142 -94 142 q-50 0 -80.5 -38.5 q-30.5 -38.5 -30.5 -108.5 l0 -260 l-139 0 l0 518 l122 0 q5 -61 9 -83 q50 96 166 96 Z" /><glyph glyph-name="o" unicode="o" d="M35 259 q0 81 36.5 143 q36.5 62 97.5 95.5 q61 33.5 132 33.5 q70 0 130.5 -33.5 q60.5 -33.5 97 -95.5 q36.5 -62 36.5 -143 q0 -81 -36.5 -143 q-36.5 -62 -97 -95 q-60.5 -33 -130.5 -33 q-71 0 -132 33 q-61 33 -97.5 95 q-36.5 62 -36.5 143 ZM179 259 q0 -69 34.5 -109.5 q34.5 -40.5 86.5 -40.5 q52 0 86 40.5 q34 40.5 34 109.5 q0 69 -34 110 q-34 41 -86 41 q-52 0 -86.5 -41 q-34.5 -41 -34.5 -110 Z" /><glyph glyph-name="oacute" unicode="ó" d="M239 583 l89 165 l140 0 l-120 -165 l-109 0 ZM35 259 q0 81 36.5 143 q36.5 62 97.5 95.5 q61 33.5 132 33.5 q70 0 130.5 -33.5 q60.5 -33.5 97 -95.5 q36.5 -62 36.5 -143 q0 -81 -36.5 -143 q-36.5 -62 -97 -95 q-60.5 -33 -130.5 -33 q-71 0 -132 33 q-61 33 -97.5 95 q-36.5 62 -36.5 143 ZM179 259 q0 -69 34.5 -109.5 q34.5 -40.5 86.5 -40.5 q52 0 86 40.5 q34 40.5 34 109.5 q0 69 -34 110 q-34 41 -86 41 q-52 0 -86.5 -41 q-34.5 -41 -34.5 -110 Z" /><glyph glyph-name="obreve" unicode="&#x14f;" d="M301 582 q-80 0 -129 44.5 q-49 44.5 -49 120.5 l109 0 q3 -37 20.5 -57.5 q17.5 -20.5 48.5 -20.5 q62 0 70 78 l108 0 q0 -76 -48.5 -120.5 q-48.5 -44.5 -129.5 -44.5 ZM35 259 q0 81 36.5 143 q36.5 62 97.5 95.5 q61 33.5 132 33.5 q70 0 130.5 -33.5 q60.5 -33.5 97 -95.5 q36.5 -62 36.5 -143 q0 -81 -36.5 -143 q-36.5 -62 -97 -95 q-60.5 -33 -130.5 -33 q-71 0 -132 33 q-61 33 -97.5 95 q-36.5 62 -36.5 143 ZM179 259 q0 -69 34.5 -109.5 q34.5 -40.5 86.5 -40.5 q52 0 86 40.5 q34 40.5 34 109.5 q0 69 -34 110 q-34 41 -86 41 q-52 0 -86.5 -41 q-34.5 -41 -34.5 -110 Z" /><glyph glyph-name="uni01D2" unicode="&#x1d2;" d="M240 748 l61 -80 l60 80 l120 0 l-129 -165 l-103 0 l-129 165 l120 0 ZM35 259 q0 81 36.5 143 q36.5 62 97.5 95.5 q61 33.5 132 33.5 q70 0 130.5 -33.5 q60.5 -33.5 97 -95.5 q36.5 -62 36.5 -143 q0 -81 -36.5 -143 q-36.5 -62 -97 -95 q-60.5 -33 -130.5 -33 q-71 0 -132 33 q-61 33 -97.5 95 q-36.5 62 -36.5 143 ZM179 259 q0 -69 34.5 -109.5 q34.5 -40.5 86.5 -40.5 q52 0 86 40.5 q34 40.5 34 109.5 q0 69 -34 110 q-34 41 -86 41 q-52 0 -86.5 -41 q-34.5 -41 -34.5 -110 Z" /><glyph glyph-name="ocircumflex" unicode="ô" d="M248 748 l104 0 l129 -165 l-120 0 l-60 79 l-62 -79 l-119 0 l128 165 ZM35 259 q0 81 36.5 143 q36.5 62 97.5 95.5 q61 33.5 132 33.5 q70 0 130.5 -33.5 q60.5 -33.5 97 -95.5 q36.5 -62 36.5 -143 q0 -81 -36.5 -143 q-36.5 -62 -97 -95 q-60.5 -33 -130.5 -33 q-71 0 -132 33 q-61 33 -97.5 95 q-36.5 62 -36.5 143 ZM179 259 q0 -69 34.5 -109.5 q34.5 -40.5 86.5 -40.5 q52 0 86 40.5 q34 40.5 34 109.5 q0 69 -34 110 q-34 41 -86 41 q-52 0 -86.5 -41 q-34.5 -41 -34.5 -110 Z" /><glyph glyph-name="uni1ED1" unicode="&#x1ed1;" d="M363 772 l81 142 l137 0 l-109 -142 l-109 0 ZM245 748 l104 0 l128 -165 l-119 0 l-60 79 l-61 -79 l-120 0 l128 165 ZM35 259 q0 81 36.5 143 q36.5 62 97.5 95.5 q61 33.5 132 33.5 q70 0 130.5 -33.5 q60.5 -33.5 97 -95.5 q36.5 -62 36.5 -143 q0 -81 -36.5 -143 q-36.5 -62 -97 -95 q-60.5 -33 -130.5 -33 q-71 0 -132 33 q-61 33 -97.5 95 q-36.5 62 -36.5 143 ZM179 259 q0 -69 34.5 -109.5 q34.5 -40.5 86.5 -40.5 q52 0 86 40.5 q34 40.5 34 109.5 q0 69 -34 110 q-34 41 -86 41 q-52 0 -86.5 -41 q-34.5 -41 -34.5 -110 Z" /><glyph glyph-name="uni1ED9" unicode="&#x1ed9;" d="M248 748 l104 0 l129 -165 l-120 0 l-60 79 l-62 -79 l-119 0 l128 165 ZM35 259 q0 81 36.5 143 q36.5 62 97.5 95.5 q61 33.5 132 33.5 q70 0 130.5 -33.5 q60.5 -33.5 97 -95.5 q36.5 -62 36.5 -143 q0 -81 -36.5 -143 q-36.5 -62 -97 -95 q-60.5 -33 -130.5 -33 q-71 0 -132 33 q-61 33 -97.5 95 q-36.5 62 -36.5 143 ZM179 259 q0 -69 34.5 -109.5 q34.5 -40.5 86.5 -40.5 q52 0 86 40.5 q34 40.5 34 109.5 q0 69 -34 110 q-34 41 -86 41 q-52 0 -86.5 -41 q-34.5 -41 -34.5 -110 ZM301 -222 q-34 0 -58 24.5 q-24 24.5 -24 57.5 q0 33 24 57 q24 24 58 24 q34 0 58.5 -24 q24.5 -24 24.5 -57 q0 -33 -24.5 -57.5 q-24.5 -24.5 -58.5 -24.5 Z" /><glyph glyph-name="uni1ED3" unicode="&#x1ed3;" d="M270 914 l137 0 l81 -142 l-110 0 l-108 142 ZM245 748 l104 0 l128 -165 l-119 0 l-60 79 l-61 -79 l-120 0 l128 165 ZM35 259 q0 81 36.5 143 q36.5 62 97.5 95.5 q61 33.5 132 33.5 q70 0 130.5 -33.5 q60.5 -33.5 97 -95.5 q36.5 -62 36.5 -143 q0 -81 -36.5 -143 q-36.5 -62 -97 -95 q-60.5 -33 -130.5 -33 q-71 0 -132 33 q-61 33 -97.5 95 q-36.5 62 -36.5 143 ZM179 259 q0 -69 34.5 -109.5 q34.5 -40.5 86.5 -40.5 q52 0 86 40.5 q34 40.5 34 109.5 q0 69 -34 110 q-34 41 -86 41 q-52 0 -86.5 -41 q-34.5 -41 -34.5 -110 Z" /><glyph glyph-name="uni1ED5" unicode="&#x1ed5;" d="M317 898 q20 13 47.5 20 q27.5 7 55.5 7 q55 0 91 -24 q36 -24 36 -70 q0 -82 -118 -118 l-47 60 q31 11 47.5 22 q16.5 11 16.5 26 q0 13 -11 21 q-11 8 -30 8 q-31 0 -70 -23 l-18 71 ZM245 740 l104 0 l128 -157 l-119 0 l-60 76 l-61 -76 l-120 0 l128 157 ZM35 259 q0 81 36.5 143 q36.5 62 97.5 95.5 q61 33.5 132 33.5 q70 0 130.5 -33.5 q60.5 -33.5 97 -95.5 q36.5 -62 36.5 -143 q0 -81 -36.5 -143 q-36.5 -62 -97 -95 q-60.5 -33 -130.5 -33 q-71 0 -132 33 q-61 33 -97.5 95 q-36.5 62 -36.5 143 ZM179 259 q0 -69 34.5 -109.5 q34.5 -40.5 86.5 -40.5 q52 0 86 40.5 q34 40.5 34 109.5 q0 69 -34 110 q-34 41 -86 41 q-52 0 -86.5 -41 q-34.5 -41 -34.5 -110 Z" /><glyph glyph-name="uni1ED7" unicode="&#x1ed7;" d="M238 831 q-28 0 -35 -52 l-95 0 q2 64 35 103.5 q33 39.5 87 39.5 q32 0 52.5 -11.5 q20.5 -11.5 41.5 -31.5 q12 -12 20 -17.5 q8 -5.5 17 -5.5 q28 0 35 52 l95 0 q-2 -64 -35 -103.5 q-33 -39.5 -87 -39.5 q-32 0 -52.5 11.5 q-20.5 11.5 -41.5 31.5 q-12 12 -20 17.5 q-8 5.5 -17 5.5 ZM247 741 l104 0 l128 -158 l-119 0 l-60 76 l-61 -76 l-120 0 l128 158 ZM35 259 q0 81 36.5 143 q36.5 62 97.5 95.5 q61 33.5 132 33.5 q70 0 130.5 -33.5 q60.5 -33.5 97 -95.5 q36.5 -62 36.5 -143 q0 -81 -36.5 -143 q-36.5 -62 -97 -95 q-60.5 -33 -130.5 -33 q-71 0 -132 33 q-61 33 -97.5 95 q-36.5 62 -36.5 143 ZM179 259 q0 -69 34.5 -109.5 q34.5 -40.5 86.5 -40.5 q52 0 86 40.5 q34 40.5 34 109.5 q0 69 -34 110 q-34 41 -86 41 q-52 0 -86.5 -41 q-34.5 -41 -34.5 -110 Z" /><glyph glyph-name="odieresis" unicode="ö" d="M188 588 q-30 0 -52 23 q-22 23 -22 54 q0 32 21.5 54.5 q21.5 22.5 52.5 22.5 q32 0 54 -22.5 q22 -22.5 22 -54.5 q0 -31 -22 -54 q-22 -23 -54 -23 ZM413 588 q-31 0 -53 23 q-22 23 -22 54 q0 32 22 54.5 q22 22.5 53 22.5 q31 0 53 -22.5 q22 -22.5 22 -54.5 q0 -31 -22 -54 q-22 -23 -53 -23 ZM35 259 q0 81 36.5 143 q36.5 62 97.5 95.5 q61 33.5 132 33.5 q70 0 130.5 -33.5 q60.5 -33.5 97 -95.5 q36.5 -62 36.5 -143 q0 -81 -36.5 -143 q-36.5 -62 -97 -95 q-60.5 -33 -130.5 -33 q-71 0 -132 33 q-61 33 -97.5 95 q-36.5 62 -36.5 143 ZM179 259 q0 -69 34.5 -109.5 q34.5 -40.5 86.5 -40.5 q52 0 86 40.5 q34 40.5 34 109.5 q0 69 -34 110 q-34 41 -86 41 q-52 0 -86.5 -41 q-34.5 -41 -34.5 -110 Z" /><glyph glyph-name="uni1ECD" unicode="&#x1ecd;" d="M35 259 q0 81 36.5 143 q36.5 62 97.5 95.5 q61 33.5 132 33.5 q70 0 130.5 -33.5 q60.5 -33.5 97 -95.5 q36.5 -62 36.5 -143 q0 -81 -36.5 -143 q-36.5 -62 -97 -95 q-60.5 -33 -130.5 -33 q-71 0 -132 33 q-61 33 -97.5 95 q-36.5 62 -36.5 143 ZM179 259 q0 -69 34.5 -109.5 q34.5 -40.5 86.5 -40.5 q52 0 86 40.5 q34 40.5 34 109.5 q0 69 -34 110 q-34 41 -86 41 q-52 0 -86.5 -41 q-34.5 -41 -34.5 -110 ZM301 -222 q-34 0 -58 24.5 q-24 24.5 -24 57.5 q0 33 24 57 q24 24 58 24 q34 0 58.5 -24 q24.5 -24 24.5 -57 q0 -33 -24.5 -57.5 q-24.5 -24.5 -58.5 -24.5 Z" /><glyph glyph-name="ograve" unicode="ò" d="M133 748 l140 0 l90 -165 l-109 0 l-121 165 ZM35 259 q0 81 36.5 143 q36.5 62 97.5 95.5 q61 33.5 132 33.5 q70 0 130.5 -33.5 q60.5 -33.5 97 -95.5 q36.5 -62 36.5 -143 q0 -81 -36.5 -143 q-36.5 -62 -97 -95 q-60.5 -33 -130.5 -33 q-71 0 -132 33 q-61 33 -97.5 95 q-36.5 62 -36.5 143 ZM179 259 q0 -69 34.5 -109.5 q34.5 -40.5 86.5 -40.5 q52 0 86 40.5 q34 40.5 34 109.5 q0 69 -34 110 q-34 41 -86 41 q-52 0 -86.5 -41 q-34.5 -41 -34.5 -110 Z" /><glyph glyph-name="uni1ECF" unicode="&#x1ecf;" d="M182 752 q19 13 46 20.5 q27 7.5 56 7.5 q55 0 91 -24.5 q36 -24.5 36 -74.5 q0 -85 -118 -123 l-47 63 q64 21 64 51 q0 13 -11 21 q-11 8 -30 8 q-32 0 -70 -23 l-17 74 ZM35 259 q0 81 36.5 143 q36.5 62 97.5 95.5 q61 33.5 132 33.5 q70 0 130.5 -33.5 q60.5 -33.5 97 -95.5 q36.5 -62 36.5 -143 q0 -81 -36.5 -143 q-36.5 -62 -97 -95 q-60.5 -33 -130.5 -33 q-71 0 -132 33 q-61 33 -97.5 95 q-36.5 62 -36.5 143 ZM179 259 q0 -69 34.5 -109.5 q34.5 -40.5 86.5 -40.5 q52 0 86 40.5 q34 40.5 34 109.5 q0 69 -34 110 q-34 41 -86 41 q-52 0 -86.5 -41 q-34.5 -41 -34.5 -110 Z" /><glyph glyph-name="ohorn" unicode="&#x1a1;" d="M614 577 q0 -78 -26.5 -111 q-26.5 -33 -87.5 -38 q31 -32 48 -76.5 q17 -44.5 17 -97.5 q0 -79 -36.5 -139.5 q-36.5 -60.5 -97 -93.5 q-60.5 -33 -130.5 -33 q-71 0 -132 33 q-61 33 -97.5 95 q-36.5 62 -36.5 143 q0 82 37.5 143.5 q37.5 61.5 101 95 q63.5 33.5 140.5 33.5 q24 0 75 -7 q38 -6 57 -6 q28 0 40 13 q12 13 12 53 q0 31 -7 62 l116 0 q7 -34 7 -69 ZM301 109 q52 0 85.5 40.5 q33.5 40.5 33.5 109.5 q0 70 -33.5 110.5 q-33.5 40.5 -85.5 40.5 q-53 0 -87.5 -41 q-34.5 -41 -34.5 -110 q0 -69 34.5 -109.5 q34.5 -40.5 87.5 -40.5 Z" /><glyph glyph-name="uni1EDB" unicode="&#x1edb;" d="M328 748 l140 0 l-120 -165 l-109 0 l89 165 ZM614 577 q0 -78 -26.5 -111 q-26.5 -33 -87.5 -38 q31 -32 48 -76.5 q17 -44.5 17 -97.5 q0 -79 -36.5 -139.5 q-36.5 -60.5 -97 -93.5 q-60.5 -33 -130.5 -33 q-71 0 -132 33 q-61 33 -97.5 95 q-36.5 62 -36.5 143 q0 82 37.5 143.5 q37.5 61.5 101 95 q63.5 33.5 140.5 33.5 q24 0 75 -7 q38 -6 57 -6 q28 0 40 13 q12 13 12 53 q0 31 -7 62 l116 0 q7 -34 7 -69 ZM301 109 q52 0 85.5 40.5 q33.5 40.5 33.5 109.5 q0 70 -33.5 110.5 q-33.5 40.5 -85.5 40.5 q-53 0 -87.5 -41 q-34.5 -41 -34.5 -110 q0 -69 34.5 -109.5 q34.5 -40.5 87.5 -40.5 Z" /><glyph glyph-name="uni1EE3" unicode="&#x1ee3;" d="M614 577 q0 -78 -26.5 -111 q-26.5 -33 -87.5 -38 q31 -32 48 -76.5 q17 -44.5 17 -97.5 q0 -79 -36.5 -139.5 q-36.5 -60.5 -97 -93.5 q-60.5 -33 -130.5 -33 q-71 0 -132 33 q-61 33 -97.5 95 q-36.5 62 -36.5 143 q0 82 37.5 143.5 q37.5 61.5 101 95 q63.5 33.5 140.5 33.5 q24 0 75 -7 q38 -6 57 -6 q28 0 40 13 q12 13 12 53 q0 31 -7 62 l116 0 q7 -34 7 -69 ZM301 109 q52 0 85.5 40.5 q33.5 40.5 33.5 109.5 q0 70 -33.5 110.5 q-33.5 40.5 -85.5 40.5 q-53 0 -87.5 -41 q-34.5 -41 -34.5 -110 q0 -69 34.5 -109.5 q34.5 -40.5 87.5 -40.5 ZM301 -59 q34 0 58.5 -24 q24.5 -24 24.5 -57 q0 -33 -24.5 -57.5 q-24.5 -24.5 -58.5 -24.5 q-34 0 -58 24.5 q-24 24.5 -24 57.5 q0 33 24 57 q24 24 58 24 Z" /><glyph glyph-name="uni1EDD" unicode="&#x1edd;" d="M273 748 l90 -165 l-109 0 l-121 165 l140 0 ZM614 577 q0 -78 -26.5 -111 q-26.5 -33 -87.5 -38 q31 -32 48 -76.5 q17 -44.5 17 -97.5 q0 -79 -36.5 -139.5 q-36.5 -60.5 -97 -93.5 q-60.5 -33 -130.5 -33 q-71 0 -132 33 q-61 33 -97.5 95 q-36.5 62 -36.5 143 q0 82 37.5 143.5 q37.5 61.5 101 95 q63.5 33.5 140.5 33.5 q24 0 75 -7 q38 -6 57 -6 q28 0 40 13 q12 13 12 53 q0 31 -7 62 l116 0 q7 -34 7 -69 ZM301 109 q52 0 85.5 40.5 q33.5 40.5 33.5 109.5 q0 70 -33.5 110.5 q-33.5 40.5 -85.5 40.5 q-53 0 -87.5 -41 q-34.5 -41 -34.5 -110 q0 -69 34.5 -109.5 q34.5 -40.5 87.5 -40.5 Z" /><glyph glyph-name="uni1EDF" unicode="&#x1edf;" d="M269 701 q-32 0 -70 -23 l-17 74 q19 13 46 20.5 q27 7.5 56 7.5 q55 0 91 -24.5 q36 -24.5 36 -74.5 q0 -85 -118 -123 l-47 63 q64 21 64 51 q0 13 -11 21 q-11 8 -30 8 ZM614 577 q0 -78 -26.5 -111 q-26.5 -33 -87.5 -38 q31 -32 48 -76.5 q17 -44.5 17 -97.5 q0 -79 -36.5 -139.5 q-36.5 -60.5 -97 -93.5 q-60.5 -33 -130.5 -33 q-71 0 -132 33 q-61 33 -97.5 95 q-36.5 62 -36.5 143 q0 82 37.5 143.5 q37.5 61.5 101 95 q63.5 33.5 140.5 33.5 q24 0 75 -7 q38 -6 57 -6 q28 0 40 13 q12 13 12 53 q0 31 -7 62 l116 0 q7 -34 7 -69 ZM301 109 q52 0 85.5 40.5 q33.5 40.5 33.5 109.5 q0 70 -33.5 110.5 q-33.5 40.5 -85.5 40.5 q-53 0 -87.5 -41 q-34.5 -41 -34.5 -110 q0 -69 34.5 -109.5 q34.5 -40.5 87.5 -40.5 Z" /><glyph glyph-name="uni1EE1" unicode="&#x1ee1;" d="M239 652 q-26 0 -35 -53 l-95 0 q2 66 35.5 107.5 q33.5 41.5 87.5 41.5 q32 0 52.5 -12 q20.5 -12 40.5 -33 q13 -13 21 -18.5 q8 -5.5 17 -5.5 q26 0 35 54 l95 0 q-2 -66 -35.5 -107.5 q-33.5 -41.5 -87.5 -41.5 q-32 0 -52.5 12 q-20.5 12 -40.5 32 q-13 13 -21 18.5 q-8 5.5 -17 5.5 ZM614 577 q0 -78 -26.5 -111 q-26.5 -33 -87.5 -38 q31 -32 48 -76.5 q17 -44.5 17 -97.5 q0 -79 -36.5 -139.5 q-36.5 -60.5 -97 -93.5 q-60.5 -33 -130.5 -33 q-71 0 -132 33 q-61 33 -97.5 95 q-36.5 62 -36.5 143 q0 82 37.5 143.5 q37.5 61.5 101 95 q63.5 33.5 140.5 33.5 q24 0 75 -7 q38 -6 57 -6 q28 0 40 13 q12 13 12 53 q0 31 -7 62 l116 0 q7 -34 7 -69 ZM301 109 q52 0 85.5 40.5 q33.5 40.5 33.5 109.5 q0 70 -33.5 110.5 q-33.5 40.5 -85.5 40.5 q-53 0 -87.5 -41 q-34.5 -41 -34.5 -110 q0 -69 34.5 -109.5 q34.5 -40.5 87.5 -40.5 Z" /><glyph glyph-name="ohungarumlaut" unicode="&#x151;" d="M160 583 l90 165 l131 0 l-121 -165 l-100 0 ZM338 583 l90 165 l131 0 l-121 -165 l-100 0 ZM35 259 q0 81 36.5 143 q36.5 62 97.5 95.5 q61 33.5 132 33.5 q70 0 130.5 -33.5 q60.5 -33.5 97 -95.5 q36.5 -62 36.5 -143 q0 -81 -36.5 -143 q-36.5 -62 -97 -95 q-60.5 -33 -130.5 -33 q-71 0 -132 33 q-61 33 -97.5 95 q-36.5 62 -36.5 143 ZM179 259 q0 -69 34.5 -109.5 q34.5 -40.5 86.5 -40.5 q52 0 86 40.5 q34 40.5 34 109.5 q0 69 -34 110 q-34 41 -86 41 q-52 0 -86.5 -41 q-34.5 -41 -34.5 -110 Z" /><glyph glyph-name="omacron" unicode="&#x14d;" d="M130 616 l0 95 l342 0 l0 -95 l-342 0 ZM35 259 q0 81 36.5 143 q36.5 62 97.5 95.5 q61 33.5 132 33.5 q70 0 130.5 -33.5 q60.5 -33.5 97 -95.5 q36.5 -62 36.5 -143 q0 -81 -36.5 -143 q-36.5 -62 -97 -95 q-60.5 -33 -130.5 -33 q-71 0 -132 33 q-61 33 -97.5 95 q-36.5 62 -36.5 143 ZM179 259 q0 -69 34.5 -109.5 q34.5 -40.5 86.5 -40.5 q52 0 86 40.5 q34 40.5 34 109.5 q0 69 -34 110 q-34 41 -86 41 q-52 0 -86.5 -41 q-34.5 -41 -34.5 -110 Z" /><glyph glyph-name="oslash" unicode="ø" d="M447 553 l118 0 l-72 -103 q34 -36 53 -84.5 q19 -48.5 19 -106.5 q0 -81 -36.5 -143 q-36.5 -62 -97 -95 q-60.5 -33 -130.5 -33 q-59 0 -114 25 l-34 -48 l-118 0 l73 104 q-35 35 -54 83.5 q-19 48.5 -19 106.5 q0 81 36.5 143 q36.5 62 97.5 95.5 q61 33.5 132 33.5 q58 0 113 -25 l33 47 ZM171 259 q0 -44 17 -76 l152 219 q-18 8 -39 8 q-56 0 -93 -41 q-37 -41 -37 -110 ZM428 259 q0 46 -16 77 l-152 -218 q18 -9 41 -9 q55 0 91 40.5 q36 40.5 36 109.5 Z" /><glyph glyph-name="oslashacute" unicode="&#x1ff;" d="M239 583 l89 165 l140 0 l-120 -165 l-109 0 ZM447 553 l118 0 l-72 -103 q34 -36 53 -84.5 q19 -48.5 19 -106.5 q0 -81 -36.5 -143 q-36.5 -62 -97 -95 q-60.5 -33 -130.5 -33 q-59 0 -114 25 l-34 -48 l-118 0 l73 104 q-35 35 -54 83.5 q-19 48.5 -19 106.5 q0 81 36.5 143 q36.5 62 97.5 95.5 q61 33.5 132 33.5 q58 0 113 -25 l33 47 ZM171 259 q0 -44 17 -76 l152 219 q-18 8 -39 8 q-56 0 -93 -41 q-37 -41 -37 -110 ZM428 259 q0 46 -16 77 l-152 -218 q18 -9 41 -9 q55 0 91 40.5 q36 40.5 36 109.5 Z" /><glyph glyph-name="otilde" unicode="õ" d="M109 599 q2 66 35.5 107.5 q33.5 41.5 87.5 41.5 q32 0 52.5 -12 q20.5 -12 40.5 -33 q13 -13 21 -18.5 q8 -5.5 17 -5.5 q26 0 35 54 l95 0 q-2 -66 -35.5 -107.5 q-33.5 -41.5 -87.5 -41.5 q-32 0 -52.5 12 q-20.5 12 -40.5 32 q-13 13 -21 18.5 q-8 5.5 -17 5.5 q-26 0 -35 -53 l-95 0 ZM35 259 q0 81 36.5 143 q36.5 62 97.5 95.5 q61 33.5 132 33.5 q70 0 130.5 -33.5 q60.5 -33.5 97 -95.5 q36.5 -62 36.5 -143 q0 -81 -36.5 -143 q-36.5 -62 -97 -95 q-60.5 -33 -130.5 -33 q-71 0 -132 33 q-61 33 -97.5 95 q-36.5 62 -36.5 143 ZM179 259 q0 -69 34.5 -109.5 q34.5 -40.5 86.5 -40.5 q52 0 86 40.5 q34 40.5 34 109.5 q0 69 -34 110 q-34 41 -86 41 q-52 0 -86.5 -41 q-34.5 -41 -34.5 -110 Z" /><glyph glyph-name="oe" unicode="&#x153;" d="M683 531 q68 0 120.5 -30.5 q52.5 -30.5 82 -86 q29.5 -55.5 29.5 -127.5 q0 -32 -6 -65 l-344 0 q9 -58 42 -87.5 q33 -29.5 82 -29.5 q35 0 62.5 15.5 q27.5 15.5 42.5 46.5 l102 -60 q-21 -57 -79 -88 q-58 -31 -129 -31 q-64 0 -116 26.5 q-52 26.5 -83 78.5 q-31 -51 -81.5 -78 q-50.5 -27 -110.5 -27 q-69 0 -129 33.5 q-60 33.5 -96.5 95 q-36.5 61.5 -36.5 142.5 q0 81 36.5 143 q36.5 62 96.5 95.5 q60 33.5 129 33.5 q60 0 110.5 -27 q50.5 -27 80.5 -78 q31 52 82 78.5 q51 26.5 113 26.5 ZM676 418 q-41 0 -70 -26 q-29 -26 -39 -73 l206 0 q-4 48 -30.5 73.5 q-26.5 25.5 -66.5 25.5 ZM301 109 q52 0 85.5 40.5 q33.5 40.5 33.5 109.5 q0 70 -33.5 110.5 q-33.5 40.5 -85.5 40.5 q-53 0 -87.5 -41 q-34.5 -41 -34.5 -110 q0 -69 34.5 -109.5 q34.5 -40.5 87.5 -40.5 Z" /><glyph glyph-name="p" unicode="p" d="M361 531 q63 0 116.5 -32 q53.5 -32 85 -94 q31.5 -62 31.5 -146 q0 -84 -31.5 -145.5 q-31.5 -61.5 -85 -93.5 q-53.5 -32 -116.5 -32 q-48 0 -89 19 q-41 19 -68 58 l0 -297 l-139 0 l0 750 l122 0 l3 -34 q1 -10 2 -21 q1 -11 3 -23 q27 46 70.5 68.5 q43.5 22.5 95.5 22.5 ZM329 111 q54 0 87.5 39.5 q33.5 39.5 33.5 108.5 q0 71 -33 112 q-33 41 -88 41 q-52 0 -88.5 -38.5 q-36.5 -38.5 -36.5 -114.5 q0 -75 36 -111.5 q36 -36.5 89 -36.5 Z" /><glyph glyph-name="thorn" unicode="þ" d="M361 531 q63 0 116.5 -32 q53.5 -32 85 -94 q31.5 -62 31.5 -146 q0 -84 -31.5 -145.5 q-31.5 -61.5 -85 -93.5 q-53.5 -32 -116.5 -32 q-48 0 -89 19 q-41 19 -68 58 l0 -297 l-139 0 l0 993 l139 0 l0 -308 q28 39 68.5 58.5 q40.5 19.5 88.5 19.5 ZM329 111 q54 0 87.5 39.5 q33.5 39.5 33.5 108.5 q0 71 -33 112 q-33 41 -88 41 q-52 0 -88.5 -38.5 q-36.5 -38.5 -36.5 -114.5 q0 -75 36 -111.5 q36 -36.5 89 -36.5 Z" /><glyph glyph-name="q" unicode="q" d="M564 518 l0 -750 l-139 0 l0 297 q-27 -39 -68 -58 q-41 -19 -88 -19 q-64 0 -117 32 q-53 32 -85 93.5 q-32 61.5 -32 145.5 q0 85 32 146.5 q32 61.5 85 93.5 q53 32 117 32 q52 0 95 -22.5 q43 -22.5 70 -67.5 q7 58 8 77 l122 0 ZM301 111 q52 0 88 36.5 q36 36.5 36 111.5 q0 75 -36.5 114 q-36.5 39 -87.5 39 q-55 0 -88.5 -41.5 q-33.5 -41.5 -33.5 -111.5 q0 -69 33.5 -108.5 q33.5 -39.5 88.5 -39.5 Z" /><glyph glyph-name="r" unicode="r" d="M340 531 q30 0 56 -9 q26 -9 40 -23 l-54 -107 q-26 18 -59 18 q-54 0 -86.5 -45 q-32.5 -45 -32.5 -124 l0 -241 l-139 0 l0 518 l122 0 q5 -60 9 -82 q23 47 60 71 q37 24 84 24 Z" /><glyph glyph-name="racute" unicode="&#x155;" d="M180 583 l90 165 l140 0 l-121 -165 l-109 0 ZM340 531 q30 0 56 -9 q26 -9 40 -23 l-54 -107 q-26 18 -59 18 q-54 0 -86.5 -45 q-32.5 -45 -32.5 -124 l0 -241 l-139 0 l0 518 l122 0 q5 -60 9 -82 q23 47 60 71 q37 24 84 24 Z" /><glyph glyph-name="rcaron" unicode="&#x159;" d="M181 748 l61 -80 l60 80 l120 0 l-129 -165 l-103 0 l-128 165 l119 0 ZM340 531 q30 0 56 -9 q26 -9 40 -23 l-54 -107 q-26 18 -59 18 q-54 0 -86.5 -45 q-32.5 -45 -32.5 -124 l0 -241 l-139 0 l0 518 l122 0 q5 -60 9 -82 q23 47 60 71 q37 24 84 24 Z" /><glyph glyph-name="uni0157" unicode="&#x157;" d="M340 531 q30 0 56 -9 q26 -9 40 -23 l-54 -107 q-26 18 -59 18 q-54 0 -86.5 -45 q-32.5 -45 -32.5 -124 l0 -241 l-139 0 l0 518 l122 0 q5 -60 9 -82 q23 47 60 71 q37 24 84 24 ZM131 -33 q38 0 62 -22 q24 -22 24 -65 q0 -55 -40.5 -87.5 q-40.5 -32.5 -115.5 -36.5 l0 54 q32 5 50 14.5 q18 9.5 24 26.5 l-5 0 q-33 0 -52.5 15 q-19.5 15 -19.5 41 q0 27 20.5 43.5 q20.5 16.5 52.5 16.5 Z" /><glyph glyph-name="s" unicode="s" d="M449 154 q0 -77 -59.5 -121.5 q-59.5 -44.5 -154.5 -44.5 q-82 0 -141.5 35 q-59.5 35 -80.5 97 l101 59 q15 -37 47 -57.5 q32 -20.5 75 -20.5 q32 0 51 12 q19 12 19 34 q0 25 -25 38.5 q-25 13.5 -78 28.5 q-53 16 -86.5 31 q-33.5 15 -58 43.5 q-24.5 28.5 -24.5 74.5 q0 52 28.5 90 q28.5 38 76.5 58 q48 20 105 20 q78 0 132 -33.5 q54 -33.5 68 -88.5 l-101 -57 q-30 65 -101 65 q-30 0 -48 -11.5 q-18 -11.5 -18 -32.5 q0 -24 24 -36.5 q24 -12.5 75 -26.5 q54 -15 89 -30 q35 -15 60 -45.5 q25 -30.5 25 -80.5 Z" /><glyph glyph-name="sacute" unicode="&#x15b;" d="M179 583 l90 165 l140 0 l-120 -165 l-110 0 ZM449 154 q0 -77 -59.5 -121.5 q-59.5 -44.5 -154.5 -44.5 q-82 0 -141.5 35 q-59.5 35 -80.5 97 l101 59 q15 -37 47 -57.5 q32 -20.5 75 -20.5 q32 0 51 12 q19 12 19 34 q0 25 -25 38.5 q-25 13.5 -78 28.5 q-53 16 -86.5 31 q-33.5 15 -58 43.5 q-24.5 28.5 -24.5 74.5 q0 52 28.5 90 q28.5 38 76.5 58 q48 20 105 20 q78 0 132 -33.5 q54 -33.5 68 -88.5 l-101 -57 q-30 65 -101 65 q-30 0 -48 -11.5 q-18 -11.5 -18 -32.5 q0 -24 24 -36.5 q24 -12.5 75 -26.5 q54 -15 89 -30 q35 -15 60 -45.5 q25 -30.5 25 -80.5 Z" /><glyph glyph-name="scaron" unicode="&#x161;" d="M181 748 l61 -79 l60 79 l120 0 l-129 -165 l-103 0 l-129 165 l120 0 ZM449 154 q0 -77 -59.5 -121.5 q-59.5 -44.5 -154.5 -44.5 q-82 0 -141.5 35 q-59.5 35 -80.5 97 l101 59 q15 -37 47 -57.5 q32 -20.5 75 -20.5 q32 0 51 12 q19 12 19 34 q0 25 -25 38.5 q-25 13.5 -78 28.5 q-53 16 -86.5 31 q-33.5 15 -58 43.5 q-24.5 28.5 -24.5 74.5 q0 52 28.5 90 q28.5 38 76.5 58 q48 20 105 20 q78 0 132 -33.5 q54 -33.5 68 -88.5 l-101 -57 q-30 65 -101 65 q-30 0 -48 -11.5 q-18 -11.5 -18 -32.5 q0 -24 24 -36.5 q24 -12.5 75 -26.5 q54 -15 89 -30 q35 -15 60 -45.5 q25 -30.5 25 -80.5 Z" /><glyph glyph-name="scedilla" unicode="&#x15f;" d="M449 154 q0 -71 -51.5 -115 q-51.5 -44 -135.5 -50 l-20 -46 q48 0 79.5 -23 q31.5 -23 31.5 -66 q0 -50 -42 -74 q-42 -24 -103 -24 q-39 0 -82 12 l0 71 q39 -12 76 -12 q55 0 55 25 q0 12 -14.5 19 q-14.5 7 -38.5 7 q-24 0 -56 -8 l-9 48 l33 76 q-59 11 -100.5 44 q-41.5 33 -58.5 82 l101 59 q15 -37 47 -57.5 q32 -20.5 75 -20.5 q32 0 51 12 q19 12 19 34 q0 25 -25 38.5 q-25 13.5 -78 28.5 q-53 16 -86.5 31 q-33.5 15 -58 43.5 q-24.5 28.5 -24.5 74.5 q0 52 28.5 90 q28.5 38 76.5 58 q48 20 105 20 q78 0 132 -33.5 q54 -33.5 68 -88.5 l-101 -57 q-30 65 -101 65 q-30 0 -48 -11.5 q-18 -11.5 -18 -32.5 q0 -24 24 -36.5 q24 -12.5 75 -26.5 q54 -15 89 -30 q35 -15 60 -45.5 q25 -30.5 25 -80.5 Z" /><glyph glyph-name="scircumflex" unicode="&#x15d;" d="M189 748 l104 0 l129 -165 l-120 0 l-61 79 l-61 -79 l-119 0 l128 165 ZM449 154 q0 -77 -59.5 -121.5 q-59.5 -44.5 -154.5 -44.5 q-82 0 -141.5 35 q-59.5 35 -80.5 97 l101 59 q15 -37 47 -57.5 q32 -20.5 75 -20.5 q32 0 51 12 q19 12 19 34 q0 25 -25 38.5 q-25 13.5 -78 28.5 q-53 16 -86.5 31 q-33.5 15 -58 43.5 q-24.5 28.5 -24.5 74.5 q0 52 28.5 90 q28.5 38 76.5 58 q48 20 105 20 q78 0 132 -33.5 q54 -33.5 68 -88.5 l-101 -57 q-30 65 -101 65 q-30 0 -48 -11.5 q-18 -11.5 -18 -32.5 q0 -24 24 -36.5 q24 -12.5 75 -26.5 q54 -15 89 -30 q35 -15 60 -45.5 q25 -30.5 25 -80.5 Z" /><glyph glyph-name="uni0219" unicode="&#x219;" d="M176 373 q0 -24 24 -36.5 q24 -12.5 75 -26.5 q54 -15 89 -30 q35 -15 60 -45.5 q25 -30.5 25 -80.5 q0 -77 -59.5 -121.5 q-59.5 -44.5 -154.5 -44.5 q-82 0 -141.5 35 q-59.5 35 -80.5 97 l101 59 q15 -37 47 -57.5 q32 -20.5 75 -20.5 q32 0 51 12 q19 12 19 34 q0 25 -25 38.5 q-25 13.5 -78 28.5 q-53 16 -86.5 31 q-33.5 15 -58 43.5 q-24.5 28.5 -24.5 74.5 q0 52 28.5 90 q28.5 38 76.5 58 q48 20 105 20 q78 0 132 -33.5 q54 -33.5 68 -88.5 l-101 -57 q-30 65 -101 65 q-30 0 -48 -11.5 q-18 -11.5 -18 -32.5 ZM229 -33 q38 0 62 -22 q24 -22 24 -65 q0 -55 -40.5 -87.5 q-40.5 -32.5 -115.5 -36.5 l0 54 q31 5 49.5 14.5 q18.5 9.5 24.5 26.5 l-5 0 q-33 0 -52.5 15 q-19.5 15 -19.5 41 q0 27 20.5 43.5 q20.5 16.5 52.5 16.5 Z" /><glyph glyph-name="germandbls" unicode="ß" d="M457 390 q64 -20 102.5 -65.5 q38.5 -45.5 38.5 -120.5 q0 -100 -65.5 -158 q-65.5 -58 -175.5 -58 q-56 0 -96 14 l0 123 q38 -16 78 -16 q51 0 83 27 q32 27 32 80 q0 58 -42 83.5 q-42 25.5 -98 25.5 l-40 0 l0 116 l18 0 q59 0 89 27 q30 27 30 79 q0 48 -24.5 75 q-24.5 27 -69.5 27 q-60 0 -86.5 -50 q-26.5 -50 -26.5 -132 l0 -467 l-139 0 l0 478 q0 98 33.5 164 q33.5 66 91 98 q57.5 32 130.5 32 q68 0 121.5 -27.5 q53.5 -27.5 83.5 -77 q30 -49.5 30 -112.5 q0 -57 -25 -99 q-25 -42 -73 -66 Z" /><glyph glyph-name="longs" unicode="&#x17f;" d="M304 774 q42 0 75 -13 q33 -13 53 -34 l-53 -100 q-29 26 -64 26 q-78 0 -78 -122 l0 -531 l-141 0 l0 402 l-87 0 l0 116 l87 0 l0 25 q0 78 28.5 130 q28.5 52 76 76.5 q47.5 24.5 103.5 24.5 Z" /><glyph glyph-name="t" unicode="t" d="M425 30 q-51 -42 -142 -42 q-84 0 -135.5 44.5 q-51.5 44.5 -51.5 159.5 l0 209 l-92 0 l0 117 l92 0 l0 159 l139 0 l0 -159 l156 0 l0 -117 l-156 0 l0 -186 q0 -52 18 -79 q18 -27 58 -27 q35 0 66 21 l48 -100 Z" /><glyph glyph-name="tbar" unicode="&#x167;" d="M425 30 q-51 -42 -142 -42 q-84 0 -135.5 45 q-51.5 45 -51.5 161 l0 21 l-92 0 l0 108 l92 0 l0 88 l-92 0 l0 107 l92 0 l0 159 l140 0 l0 -159 l155 0 l0 -107 l-155 0 l0 -88 l155 0 l0 -108 l-155 0 l0 -1 q0 -53 17.5 -79 q17.5 -26 57.5 -26 q35 0 66 21 l48 -100 Z" /><glyph glyph-name="tcaron" unicode="&#x165;" d="M369 857 q36 0 61 -28 q25 -28 25 -81 q0 -70 -43.5 -116 q-43.5 -46 -112.5 -56 l0 68 q31 6 49.5 19.5 q18.5 13.5 24.5 37.5 l-4 0 q-32 0 -52.5 23 q-20.5 23 -20.5 55 q0 33 20.5 55.5 q20.5 22.5 52.5 22.5 ZM311 109 q35 0 66 21 l48 -100 q-51 -42 -142 -42 q-84 0 -135.5 44.5 q-51.5 44.5 -51.5 159.5 l0 209 l-92 0 l0 117 l92 0 l0 159 l139 0 l0 -159 l156 0 l0 -117 l-156 0 l0 -186 q0 -52 18 -79 q18 -27 58 -27 Z" /><glyph glyph-name="uni0163" unicode="&#x163;" d="M269 -58 q48 0 79 -23 q31 -23 31 -65 q0 -50 -42 -74 q-42 -24 -103 -24 q-39 0 -82 12 l0 71 q37 -13 77 -13 q54 0 54 25 q0 12 -14.5 19 q-14.5 7 -39.5 7 q-27 0 -55 -7 l-9 47 l36 83 q-105 37 -105 192 l0 209 l-92 0 l0 117 l92 0 l0 159 l139 0 l0 -159 l156 0 l0 -117 l-156 0 l0 -186 q0 -52 18 -79 q18 -27 58 -27 q35 0 66 21 l48 -100 q-50 -41 -137 -42 l-19 -46 Z" /><glyph glyph-name="uni021B" unicode="&#x21b;" d="M425 30 q-51 -42 -142 -42 q-84 0 -135.5 44.5 q-51.5 44.5 -51.5 159.5 l0 209 l-92 0 l0 117 l92 0 l0 159 l139 0 l0 -159 l156 0 l0 -117 l-156 0 l0 -186 q0 -52 18 -79 q18 -27 58 -27 q35 0 66 21 l48 -100 ZM254 -33 q39 0 62.5 -22 q23.5 -22 23.5 -65 q0 -55 -40.5 -87.5 q-40.5 -32.5 -115.5 -36.5 l0 54 q32 5 50.5 14.5 q18.5 9.5 24.5 26.5 l-6 0 q-33 0 -52.5 15 q-19.5 15 -19.5 41 q0 27 20.5 43.5 q20.5 16.5 52.5 16.5 Z" /><glyph glyph-name="u" unicode="u" d="M400 518 l139 0 l0 -518 l-123 0 q-4 60 -8 81 q-26 -47 -68 -70 q-42 -23 -96 -23 q-87 0 -137 56 q-50 56 -50 164 l0 310 l139 0 l0 -264 q0 -143 92 -143 q50 0 81 39 q31 39 31 109 l0 259 Z" /><glyph glyph-name="uacute" unicode="ú" d="M238 583 l90 165 l140 0 l-121 -165 l-109 0 ZM400 518 l139 0 l0 -518 l-123 0 q-4 60 -8 81 q-26 -47 -68 -70 q-42 -23 -96 -23 q-87 0 -137 56 q-50 56 -50 164 l0 310 l139 0 l0 -264 q0 -143 92 -143 q50 0 81 39 q31 39 31 109 l0 259 Z" /><glyph glyph-name="ubreve" unicode="&#x16d;" d="M300 583 q-80 0 -128.5 44.5 q-48.5 44.5 -48.5 120.5 l109 0 q7 -78 68 -78 q64 0 70 78 l109 0 q0 -76 -49 -120.5 q-49 -44.5 -130 -44.5 ZM400 518 l139 0 l0 -518 l-123 0 q-4 60 -8 81 q-26 -47 -68 -70 q-42 -23 -96 -23 q-87 0 -137 56 q-50 56 -50 164 l0 310 l139 0 l0 -264 q0 -143 92 -143 q50 0 81 39 q31 39 31 109 l0 259 Z" /><glyph glyph-name="uni01D4" unicode="&#x1d4;" d="M239 748 l61 -79 l60 79 l120 0 l-128 -165 l-104 0 l-128 165 l119 0 ZM400 518 l139 0 l0 -518 l-123 0 q-4 60 -8 81 q-26 -47 -68 -70 q-42 -23 -96 -23 q-87 0 -137 56 q-50 56 -50 164 l0 310 l139 0 l0 -264 q0 -143 92 -143 q50 0 81 39 q31 39 31 109 l0 259 Z" /><glyph glyph-name="ucircumflex" unicode="û" d="M248 748 l104 0 l128 -165 l-120 0 l-60 79 l-61 -79 l-120 0 l129 165 ZM400 518 l139 0 l0 -518 l-123 0 q-4 60 -8 81 q-26 -47 -68 -70 q-42 -23 -96 -23 q-87 0 -137 56 q-50 56 -50 164 l0 310 l139 0 l0 -264 q0 -143 92 -143 q50 0 81 39 q31 39 31 109 l0 259 Z" /><glyph glyph-name="udieresis" unicode="ü" d="M188 589 q-31 0 -52.5 22.5 q-21.5 22.5 -21.5 54.5 q0 32 21.5 54.5 q21.5 22.5 52.5 22.5 q32 0 54 -22.5 q22 -22.5 22 -54.5 q0 -32 -22 -54.5 q-22 -22.5 -54 -22.5 ZM412 589 q-31 0 -52.5 23 q-21.5 23 -21.5 54 q0 32 21.5 54.5 q21.5 22.5 52.5 22.5 q31 0 53.5 -22.5 q22.5 -22.5 22.5 -54.5 q0 -32 -22.5 -54.5 q-22.5 -22.5 -53.5 -22.5 ZM400 518 l139 0 l0 -518 l-123 0 q-4 60 -8 81 q-26 -47 -68 -70 q-42 -23 -96 -23 q-87 0 -137 56 q-50 56 -50 164 l0 310 l139 0 l0 -264 q0 -143 92 -143 q50 0 81 39 q31 39 31 109 l0 259 Z" /><glyph glyph-name="uni01D8" unicode="&#x1d8;" d="M238 772 l81 142 l137 0 l-109 -142 l-109 0 ZM188 589 q-31 0 -52.5 22.5 q-21.5 22.5 -21.5 54.5 q0 32 21.5 54.5 q21.5 22.5 52.5 22.5 q32 0 54 -22.5 q22 -22.5 22 -54.5 q0 -32 -22 -54.5 q-22 -22.5 -54 -22.5 ZM412 589 q-31 0 -52.5 23 q-21.5 23 -21.5 54 q0 32 21.5 54.5 q21.5 22.5 52.5 22.5 q31 0 53.5 -22.5 q22.5 -22.5 22.5 -54.5 q0 -32 -22.5 -54.5 q-22.5 -22.5 -53.5 -22.5 ZM400 518 l139 0 l0 -518 l-123 0 q-4 60 -8 81 q-26 -47 -68 -70 q-42 -23 -96 -23 q-87 0 -137 56 q-50 56 -50 164 l0 310 l139 0 l0 -264 q0 -143 92 -143 q50 0 81 39 q31 39 31 109 l0 259 Z" /><glyph glyph-name="uni01DA" unicode="&#x1da;" d="M240 914 l60 -68 l60 68 l120 0 l-128 -142 l-104 0 l-128 142 l120 0 ZM188 589 q-31 0 -52.5 22.5 q-21.5 22.5 -21.5 54.5 q0 32 21.5 54.5 q21.5 22.5 52.5 22.5 q32 0 54 -22.5 q22 -22.5 22 -54.5 q0 -32 -22 -54.5 q-22 -22.5 -54 -22.5 ZM412 589 q-31 0 -52.5 23 q-21.5 23 -21.5 54 q0 32 21.5 54.5 q21.5 22.5 52.5 22.5 q31 0 53.5 -22.5 q22.5 -22.5 22.5 -54.5 q0 -32 -22.5 -54.5 q-22.5 -22.5 -53.5 -22.5 ZM400 518 l139 0 l0 -518 l-123 0 q-4 60 -8 81 q-26 -47 -68 -70 q-42 -23 -96 -23 q-87 0 -137 56 q-50 56 -50 164 l0 310 l139 0 l0 -264 q0 -143 92 -143 q50 0 81 39 q31 39 31 109 l0 259 Z" /><glyph glyph-name="uni01DC" unicode="&#x1dc;" d="M145 914 l137 0 l81 -142 l-110 0 l-108 142 ZM188 589 q-31 0 -52.5 22.5 q-21.5 22.5 -21.5 54.5 q0 32 21.5 54.5 q21.5 22.5 52.5 22.5 q32 0 54 -22.5 q22 -22.5 22 -54.5 q0 -32 -22 -54.5 q-22 -22.5 -54 -22.5 ZM412 589 q-31 0 -52.5 23 q-21.5 23 -21.5 54 q0 32 21.5 54.5 q21.5 22.5 52.5 22.5 q31 0 53.5 -22.5 q22.5 -22.5 22.5 -54.5 q0 -32 -22.5 -54.5 q-22.5 -22.5 -53.5 -22.5 ZM400 518 l139 0 l0 -518 l-123 0 q-4 60 -8 81 q-26 -47 -68 -70 q-42 -23 -96 -23 q-87 0 -137 56 q-50 56 -50 164 l0 310 l139 0 l0 -264 q0 -143 92 -143 q50 0 81 39 q31 39 31 109 l0 259 Z" /><glyph glyph-name="uni01D6" unicode="&#x1d6;" d="M129 796 l0 95 l342 0 l0 -95 l-342 0 ZM188 589 q-31 0 -52.5 22.5 q-21.5 22.5 -21.5 54.5 q0 32 21.5 54.5 q21.5 22.5 52.5 22.5 q32 0 54 -22.5 q22 -22.5 22 -54.5 q0 -32 -22 -54.5 q-22 -22.5 -54 -22.5 ZM412 589 q-31 0 -52.5 23 q-21.5 23 -21.5 54 q0 32 21.5 54.5 q21.5 22.5 52.5 22.5 q31 0 53.5 -22.5 q22.5 -22.5 22.5 -54.5 q0 -32 -22.5 -54.5 q-22.5 -22.5 -53.5 -22.5 ZM400 518 l139 0 l0 -518 l-123 0 q-4 60 -8 81 q-26 -47 -68 -70 q-42 -23 -96 -23 q-87 0 -137 56 q-50 56 -50 164 l0 310 l139 0 l0 -264 q0 -143 92 -143 q50 0 81 39 q31 39 31 109 l0 259 Z" /><glyph glyph-name="uni1EE5" unicode="&#x1ee5;" d="M400 518 l139 0 l0 -518 l-123 0 q-4 60 -8 81 q-26 -47 -68 -70 q-42 -23 -96 -23 q-87 0 -137 56 q-50 56 -50 164 l0 310 l139 0 l0 -264 q0 -143 92 -143 q50 0 81 39 q31 39 31 109 l0 259 ZM304 -222 q-34 0 -58 24.5 q-24 24.5 -24 57.5 q0 33 24 57 q24 24 58 24 q34 0 58.5 -24 q24.5 -24 24.5 -57 q0 -33 -24.5 -57.5 q-24.5 -24.5 -58.5 -24.5 Z" /><glyph glyph-name="ugrave" unicode="ù" d="M133 748 l140 0 l90 -165 l-110 0 l-120 165 ZM400 518 l139 0 l0 -518 l-123 0 q-4 60 -8 81 q-26 -47 -68 -70 q-42 -23 -96 -23 q-87 0 -137 56 q-50 56 -50 164 l0 310 l139 0 l0 -264 q0 -143 92 -143 q50 0 81 39 q31 39 31 109 l0 259 Z" /><glyph glyph-name="uni1EE7" unicode="&#x1ee7;" d="M181 752 q41 29 103 29 q55 0 90.5 -25 q35.5 -25 35.5 -74 q0 -86 -117 -124 l-48 63 q32 11 48.5 23 q16.5 12 16.5 28 q0 14 -11 22 q-11 8 -30 8 q-32 0 -70 -24 l-18 74 ZM400 518 l139 0 l0 -518 l-123 0 q-4 60 -8 81 q-26 -47 -68 -70 q-42 -23 -96 -23 q-87 0 -137 56 q-50 56 -50 164 l0 310 l139 0 l0 -264 q0 -143 92 -143 q50 0 81 39 q31 39 31 109 l0 259 Z" /><glyph glyph-name="uhorn" unicode="&#x1b0;" d="M680 576 q0 -77 -32 -110 q-32 -33 -109 -39 l0 -427 l-123 0 q-4 60 -8 81 q-26 -47 -68 -70 q-42 -23 -96 -23 q-87 0 -137 56 q-50 56 -50 164 l0 310 l139 0 l0 -264 q0 -143 92 -143 q50 0 81 39 q31 39 31 109 l0 259 l68 0 q40 1 59.5 6 q19.5 5 27.5 18.5 q8 13.5 8 41.5 q0 31 -7 62 l117 0 q7 -34 7 -70 Z" /><glyph glyph-name="uni1EE9" unicode="&#x1ee9;" d="M238 583 l90 165 l140 0 l-121 -165 l-109 0 ZM680 576 q0 -77 -32 -110 q-32 -33 -109 -39 l0 -427 l-123 0 q-4 60 -8 81 q-26 -47 -68 -70 q-42 -23 -96 -23 q-87 0 -137 56 q-50 56 -50 164 l0 310 l139 0 l0 -264 q0 -143 92 -143 q50 0 81 39 q31 39 31 109 l0 259 l68 0 q40 1 59.5 6 q19.5 5 27.5 18.5 q8 13.5 8 41.5 q0 31 -7 62 l117 0 q7 -34 7 -70 Z" /><glyph glyph-name="uni1EF1" unicode="&#x1ef1;" d="M680 576 q0 -77 -32 -110 q-32 -33 -109 -39 l0 -427 l-123 0 q-4 60 -8 81 q-26 -47 -68 -70 q-42 -23 -96 -23 q-87 0 -137 56 q-50 56 -50 164 l0 310 l139 0 l0 -264 q0 -143 92 -143 q50 0 81 39 q31 39 31 109 l0 259 l68 0 q40 1 59.5 6 q19.5 5 27.5 18.5 q8 13.5 8 41.5 q0 31 -7 62 l117 0 q7 -34 7 -70 ZM304 -222 q-34 0 -58 24.5 q-24 24.5 -24 57.5 q0 33 24 57 q24 24 58 24 q34 0 58.5 -24 q24.5 -24 24.5 -57 q0 -33 -24.5 -57.5 q-24.5 -24.5 -58.5 -24.5 Z" /><glyph glyph-name="uni1EEB" unicode="&#x1eeb;" d="M133 748 l140 0 l90 -165 l-110 0 l-120 165 ZM680 576 q0 -77 -32 -110 q-32 -33 -109 -39 l0 -427 l-123 0 q-4 60 -8 81 q-26 -47 -68 -70 q-42 -23 -96 -23 q-87 0 -137 56 q-50 56 -50 164 l0 310 l139 0 l0 -264 q0 -143 92 -143 q50 0 81 39 q31 39 31 109 l0 259 l68 0 q40 1 59.5 6 q19.5 5 27.5 18.5 q8 13.5 8 41.5 q0 31 -7 62 l117 0 q7 -34 7 -70 Z" /><glyph glyph-name="uni1EED" unicode="&#x1eed;" d="M181 752 q41 29 103 29 q55 0 90.5 -25 q35.5 -25 35.5 -74 q0 -86 -117 -124 l-48 63 q32 11 48.5 23 q16.5 12 16.5 28 q0 14 -11 22 q-11 8 -30 8 q-32 0 -70 -24 l-18 74 ZM680 576 q0 -77 -32 -110 q-32 -33 -109 -39 l0 -427 l-123 0 q-4 60 -8 81 q-26 -47 -68 -70 q-42 -23 -96 -23 q-87 0 -137 56 q-50 56 -50 164 l0 310 l139 0 l0 -264 q0 -143 92 -143 q50 0 81 39 q31 39 31 109 l0 259 l68 0 q40 1 59.5 6 q19.5 5 27.5 18.5 q8 13.5 8 41.5 q0 31 -7 62 l117 0 q7 -34 7 -70 Z" /><glyph glyph-name="uni1EEF" unicode="&#x1eef;" d="M108 599 q2 66 35.5 107.5 q33.5 41.5 87.5 41.5 q32 0 52.5 -12 q20.5 -12 41.5 -33 q13 -12 20.5 -17.5 q7.5 -5.5 16.5 -5.5 q27 0 35 53 l95 0 q-2 -66 -35 -107.5 q-33 -41.5 -87 -41.5 q-32 0 -52.5 12 q-20.5 12 -41.5 33 q-12 13 -20 18.5 q-8 5.5 -17 5.5 q-28 0 -35 -54 l-96 0 ZM680 576 q0 -77 -32 -110 q-32 -33 -109 -39 l0 -427 l-123 0 q-4 60 -8 81 q-26 -47 -68 -70 q-42 -23 -96 -23 q-87 0 -137 56 q-50 56 -50 164 l0 310 l139 0 l0 -264 q0 -143 92 -143 q50 0 81 39 q31 39 31 109 l0 259 l68 0 q40 1 59.5 6 q19.5 5 27.5 18.5 q8 13.5 8 41.5 q0 31 -7 62 l117 0 q7 -34 7 -70 Z" /><glyph glyph-name="uhungarumlaut" unicode="&#x171;" d="M160 583 l90 165 l130 0 l-120 -165 l-100 0 ZM338 583 l90 165 l130 0 l-120 -165 l-100 0 ZM400 518 l139 0 l0 -518 l-123 0 q-4 60 -8 81 q-26 -47 -68 -70 q-42 -23 -96 -23 q-87 0 -137 56 q-50 56 -50 164 l0 310 l139 0 l0 -264 q0 -143 92 -143 q50 0 81 39 q31 39 31 109 l0 259 Z" /><glyph glyph-name="umacron" unicode="&#x16b;" d="M129 616 l0 95 l342 0 l0 -95 l-342 0 ZM400 518 l139 0 l0 -518 l-123 0 q-4 60 -8 81 q-26 -47 -68 -70 q-42 -23 -96 -23 q-87 0 -137 56 q-50 56 -50 164 l0 310 l139 0 l0 -264 q0 -143 92 -143 q50 0 81 39 q31 39 31 109 l0 259 Z" /><glyph glyph-name="uogonek" unicode="&#x173;" d="M601 -189 q-25 -27 -56.5 -41 q-31.5 -14 -73.5 -14 q-61 0 -100 29.5 q-39 29.5 -39 85.5 q0 75 84 135 q-4 56 -8 75 q-26 -47 -68 -70 q-42 -23 -96 -23 q-87 0 -137 56 q-50 56 -50 164 l0 310 l139 0 l0 -264 q0 -143 92 -143 q50 0 81 39 q31 39 31 109 l0 259 l139 0 l0 -518 q-55 -29 -81.5 -55.5 q-26.5 -26.5 -26.5 -57.5 q0 -44 50 -44 q41 0 76 35 l44 -67 Z" /><glyph glyph-name="uring" unicode="&#x16f;" d="M180 690 q0 51 34.5 85 q34.5 34 85.5 34 q51 0 84.5 -33.5 q33.5 -33.5 33.5 -85.5 q0 -52 -33.5 -85.5 q-33.5 -33.5 -84.5 -33.5 q-51 0 -85.5 33.5 q-34.5 33.5 -34.5 85.5 ZM254 690 q0 -21 12.5 -35 q12.5 -14 33.5 -14 q20 0 32.5 14 q12.5 14 12.5 35 q0 22 -12.5 35 q-12.5 13 -32.5 13 q-21 0 -33.5 -13 q-12.5 -13 -12.5 -35 ZM400 518 l139 0 l0 -518 l-123 0 q-4 60 -8 81 q-26 -47 -68 -70 q-42 -23 -96 -23 q-87 0 -137 56 q-50 56 -50 164 l0 310 l139 0 l0 -264 q0 -143 92 -143 q50 0 81 39 q31 39 31 109 l0 259 Z" /><glyph glyph-name="utilde" unicode="&#x169;" d="M108 599 q2 66 35.5 107.5 q33.5 41.5 87.5 41.5 q32 0 52.5 -12 q20.5 -12 41.5 -33 q13 -12 20.5 -17.5 q7.5 -5.5 16.5 -5.5 q27 0 35 53 l95 0 q-2 -66 -35 -107.5 q-33 -41.5 -87 -41.5 q-32 0 -52.5 12 q-20.5 12 -41.5 33 q-12 13 -20 18.5 q-8 5.5 -17 5.5 q-28 0 -35 -54 l-96 0 ZM400 518 l139 0 l0 -518 l-123 0 q-4 60 -8 81 q-26 -47 -68 -70 q-42 -23 -96 -23 q-87 0 -137 56 q-50 56 -50 164 l0 310 l139 0 l0 -264 q0 -143 92 -143 q50 0 81 39 q31 39 31 109 l0 259 Z" /><glyph glyph-name="v" unicode="v" d="M158 518 l134 -342 l125 342 l145 0 l-219 -517 l-113 0 l-226 517 l154 0 Z" /><glyph glyph-name="w" unicode="w" d="M474 518 l108 -323 l102 323 l135 0 l-189 -517 l-99 0 l-118 315 l-113 -315 l-100 0 l-196 517 l143 0 l109 -327 l102 327 l116 0 Z" /><glyph glyph-name="wacute" unicode="&#x1e83;" d="M364 583 l90 165 l140 0 l-121 -165 l-109 0 ZM474 518 l108 -323 l102 323 l135 0 l-189 -517 l-99 0 l-118 315 l-113 -315 l-100 0 l-196 517 l143 0 l109 -327 l102 327 l116 0 Z" /><glyph glyph-name="wcircumflex" unicode="&#x175;" d="M374 748 l104 0 l128 -165 l-120 0 l-60 79 l-61 -79 l-120 0 l129 165 ZM474 518 l108 -323 l102 323 l135 0 l-189 -517 l-99 0 l-118 315 l-113 -315 l-100 0 l-196 517 l143 0 l109 -327 l102 327 l116 0 Z" /><glyph glyph-name="wdieresis" unicode="&#x1e85;" d="M314 589 q-31 0 -52.5 22.5 q-21.5 22.5 -21.5 54.5 q0 32 21.5 54.5 q21.5 22.5 52.5 22.5 q32 0 53.5 -22.5 q21.5 -22.5 21.5 -54.5 q0 -32 -21.5 -54.5 q-21.5 -22.5 -53.5 -22.5 ZM538 589 q-31 0 -52.5 23 q-21.5 23 -21.5 54 q0 32 21.5 54.5 q21.5 22.5 52.5 22.5 q31 0 53 -22.5 q22 -22.5 22 -54.5 q0 -32 -22 -54.5 q-22 -22.5 -53 -22.5 ZM474 518 l108 -323 l102 323 l135 0 l-189 -517 l-99 0 l-118 315 l-113 -315 l-100 0 l-196 517 l143 0 l109 -327 l102 327 l116 0 Z" /><glyph glyph-name="wgrave" unicode="&#x1e81;" d="M259 748 l140 0 l90 -165 l-110 0 l-120 165 ZM474 518 l108 -323 l102 323 l135 0 l-189 -517 l-99 0 l-118 315 l-113 -315 l-100 0 l-196 517 l143 0 l109 -327 l102 327 l116 0 Z" /><glyph glyph-name="x" unicode="x" d="M272 364 l110 154 l152 0 l-190 -256 l190 -262 l-159 0 l-109 155 l-108 -155 l-154 0 l190 256 l-190 262 l161 0 l107 -154 Z" /><glyph glyph-name="y" unicode="y" d="M420 518 l145 0 l-233 -586 q-37 -93 -86.5 -134.5 q-49.5 -41.5 -123.5 -41.5 q-36 0 -67.5 10.5 q-31.5 10.5 -54.5 28.5 l55 106 q30 -22 66 -22 q23 0 39.5 9.5 q16.5 9.5 31.5 33 q15 23.5 35 69.5 l-225 527 l156 0 l137 -357 l125 357 Z" /><glyph glyph-name="yacute" unicode="ý" d="M314 748 l140 0 l-120 -165 l-109 0 l89 165 ZM420 518 l145 0 l-233 -586 q-37 -93 -86.5 -134.5 q-49.5 -41.5 -123.5 -41.5 q-36 0 -67.5 10.5 q-31.5 10.5 -54.5 28.5 l55 106 q30 -22 66 -22 q23 0 39.5 9.5 q16.5 9.5 31.5 33 q15 23.5 35 69.5 l-225 527 l156 0 l137 -357 l125 357 Z" /><glyph glyph-name="ycircumflex" unicode="&#x177;" d="M347 583 l-61 79 l-61 -79 l-119 0 l128 165 l104 0 l129 -165 l-120 0 ZM420 518 l145 0 l-233 -586 q-37 -93 -86.5 -134.5 q-49.5 -41.5 -123.5 -41.5 q-36 0 -67.5 10.5 q-31.5 10.5 -54.5 28.5 l55 106 q30 -22 66 -22 q23 0 39.5 9.5 q16.5 9.5 31.5 33 q15 23.5 35 69.5 l-225 527 l156 0 l137 -357 l125 357 Z" /><glyph glyph-name="ydieresis" unicode="ÿ" d="M174 589 q-31 0 -52.5 22.5 q-21.5 22.5 -21.5 54.5 q0 32 21.5 54.5 q21.5 22.5 52.5 22.5 q32 0 54 -22.5 q22 -22.5 22 -54.5 q0 -32 -22 -54.5 q-22 -22.5 -54 -22.5 ZM399 589 q-31 0 -53 23 q-22 23 -22 54 q0 32 22 54.5 q22 22.5 53 22.5 q31 0 53 -22.5 q22 -22.5 22 -54.5 q0 -32 -22 -54.5 q-22 -22.5 -53 -22.5 ZM420 518 l145 0 l-233 -586 q-37 -93 -86.5 -134.5 q-49.5 -41.5 -123.5 -41.5 q-36 0 -67.5 10.5 q-31.5 10.5 -54.5 28.5 l55 106 q30 -22 66 -22 q23 0 39.5 9.5 q16.5 9.5 31.5 33 q15 23.5 35 69.5 l-225 527 l156 0 l137 -357 l125 357 Z" /><glyph glyph-name="uni1EF5" unicode="&#x1ef5;" d="M420 518 l145 0 l-233 -586 q-37 -93 -86.5 -134.5 q-49.5 -41.5 -123.5 -41.5 q-36 0 -67.5 10.5 q-31.5 10.5 -54.5 28.5 l55 106 q30 -22 66 -22 q23 0 39.5 9.5 q16.5 9.5 31.5 33 q15 23.5 35 69.5 l-225 527 l156 0 l137 -357 l125 357 ZM468 -59 q34 0 58.5 -24 q24.5 -24 24.5 -57 q0 -33 -24.5 -57.5 q-24.5 -24.5 -58.5 -24.5 q-34 0 -58 24.5 q-24 24.5 -24 57.5 q0 33 24 57 q24 24 58 24 Z" /><glyph glyph-name="ygrave" unicode="&#x1ef3;" d="M259 748 l90 -165 l-109 0 l-121 165 l140 0 ZM420 518 l145 0 l-233 -586 q-37 -93 -86.5 -134.5 q-49.5 -41.5 -123.5 -41.5 q-36 0 -67.5 10.5 q-31.5 10.5 -54.5 28.5 l55 106 q30 -22 66 -22 q23 0 39.5 9.5 q16.5 9.5 31.5 33 q15 23.5 35 69.5 l-225 527 l156 0 l137 -357 l125 357 Z" /><glyph glyph-name="uni1EF7" unicode="&#x1ef7;" d="M255 702 q-30 0 -70 -24 l-18 74 q20 14 47 21.5 q27 7.5 56 7.5 q55 0 91 -25 q36 -25 36 -74 q0 -86 -118 -124 l-47 63 q32 11 48 23 q16 12 16 28 q0 14 -11 22 q-11 8 -30 8 ZM420 518 l145 0 l-233 -586 q-37 -93 -86.5 -134.5 q-49.5 -41.5 -123.5 -41.5 q-36 0 -67.5 10.5 q-31.5 10.5 -54.5 28.5 l55 106 q30 -22 66 -22 q23 0 39.5 9.5 q16.5 9.5 31.5 33 q15 23.5 35 69.5 l-225 527 l156 0 l137 -357 l125 357 Z" /><glyph glyph-name="uni1EF9" unicode="&#x1ef9;" d="M225 653 q-26 0 -35 -54 l-95 0 q2 67 35.5 108 q33.5 41 87.5 41 q32 0 52.5 -11.5 q20.5 -11.5 40.5 -32.5 q13 -12 21 -18 q8 -6 17 -6 q26 0 35 53 l95 0 q-2 -66 -35.5 -107.5 q-33.5 -41.5 -87.5 -41.5 q-32 0 -52.5 12 q-20.5 12 -40.5 33 q-13 13 -21 18.5 q-8 5.5 -17 5.5 ZM420 518 l145 0 l-233 -586 q-37 -93 -86.5 -134.5 q-49.5 -41.5 -123.5 -41.5 q-36 0 -67.5 10.5 q-31.5 10.5 -54.5 28.5 l55 106 q30 -22 66 -22 q23 0 39.5 9.5 q16.5 9.5 31.5 33 q15 23.5 35 69.5 l-225 527 l156 0 l137 -357 l125 357 Z" /><glyph glyph-name="z" unicode="z" d="M443 517 l0 -80 l-236 -326 l251 0 l0 -111 l-431 0 l0 81 l236 326 l-219 0 l0 110 l399 0 Z" /><glyph glyph-name="zacute" unicode="&#x17a;" d="M185 583 l90 165 l140 0 l-121 -165 l-109 0 ZM443 517 l0 -80 l-236 -326 l251 0 l0 -111 l-431 0 l0 81 l236 326 l-212 0 l0 110 l392 0 Z" /><glyph glyph-name="zcaron" unicode="&#x17e;" d="M186 748 l61 -79 l60 79 l120 0 l-128 -165 l-104 0 l-128 165 l119 0 ZM443 517 l0 -80 l-236 -326 l251 0 l0 -111 l-431 0 l0 81 l236 326 l-212 0 l0 110 l392 0 Z" /><glyph glyph-name="zdotaccent" unicode="&#x17c;" d="M247 584 q-33 0 -57.5 25.5 q-24.5 25.5 -24.5 59.5 q0 35 24 60 q24 25 58 25 q34 0 59 -25.5 q25 -25.5 25 -59.5 q0 -34 -25 -59.5 q-25 -25.5 -59 -25.5 ZM443 517 l0 -80 l-236 -326 l251 0 l0 -111 l-431 0 l0 81 l236 326 l-212 0 l0 110 l392 0 Z" /><glyph glyph-name="ordfeminine" unicode="ª" d="M213 739 q81 0 127 -49.5 q46 -49.5 46 -134.5 l0 -219 l-91 0 q-1 21 -6 42 q-34 -51 -109 -51 q-63 0 -105.5 32.5 q-42.5 32.5 -42.5 89.5 q0 58 48 94 q48 36 118 36 q42 0 81 -13 q-3 84 -75 84 q-53 0 -79 -51 l-77 44 q21 44 65 70 q44 26 100 26 ZM196 409 q33 0 58.5 18.5 q25.5 18.5 25.5 51.5 l0 7 q-41 16 -73 16 q-30 0 -47.5 -13 q-17.5 -13 -17.5 -35 q0 -21 15.5 -33 q15.5 -12 38.5 -12 Z" /><glyph glyph-name="ordmasculine" unicode="º" d="M27 532 q0 62 28 109 q28 47 74 72.5 q46 25.5 100 25.5 q53 0 99 -25 q46 -25 73.5 -72 q27.5 -47 27.5 -110 q0 -62 -27.5 -108.5 q-27.5 -46.5 -73.5 -71.5 q-46 -25 -99 -25 q-54 0 -100 25 q-46 25 -74 71.5 q-28 46.5 -28 108.5 ZM140 532 q0 -51 25 -81.5 q25 -30.5 63 -30.5 q38 0 62.5 30.5 q24.5 30.5 24.5 81.5 q0 53 -24.5 83.5 q-24.5 30.5 -62.5 30.5 q-39 0 -63.5 -30.5 q-24.5 -30.5 -24.5 -83.5 Z" /><glyph glyph-name="uni207F" unicode="&#x207f;" d="M280 739 q66 0 104 -43 q38 -43 38 -125 l0 -235 l-110 0 l0 200 q0 108 -70 108 q-36 0 -57 -29 q-21 -29 -21 -82 l0 -197 l-109 0 l0 392 l95 0 q2 -32 6 -60 q37 71 124 71 Z" /><glyph glyph-name="uni0410" unicode="&#x410;" d="M420 732 l296 -732 l-154 0 l-64 167 l-285 0 l-62 -167 l-145 0 l287 732 l127 0 ZM451 291 l-98 257 l-95 -257 l193 0 Z" /><glyph glyph-name="uni0411" unicode="&#x411;" d="M369 440 q130 0 203 -58.5 q73 -58.5 73 -162.5 q0 -104 -72.5 -161.5 q-72.5 -57.5 -203.5 -57.5 l-292 0 l0 732 l503 0 l0 -126 l-358 0 l0 -166 l147 0 ZM356 126 q67 0 102 25 q35 25 35 69 q0 44 -35 69 q-35 25 -102 25 l-134 0 l0 -188 l134 0 Z" /><glyph glyph-name="uni0412" unicode="&#x412;" d="M524 380 q121 -43 121 -169 q0 -99 -72.5 -155 q-72.5 -56 -203.5 -56 l-292 0 l0 732 l265 0 q117 0 190.5 -53.5 q73.5 -53.5 73.5 -150.5 q0 -101 -82 -148 ZM219 606 l0 -173 l109 0 q59 0 93 24.5 q34 24.5 34 65.5 q0 40 -33.5 61.5 q-33.5 21.5 -93.5 21.5 l-109 0 ZM356 126 q67 0 102 24 q35 24 35 68 q0 44 -35 69 q-35 25 -102 25 l-137 0 l0 -186 l137 0 Z" /><glyph glyph-name="uni0413" unicode="&#x413;" d="M77 732 l477 0 l0 -129 l-332 0 l0 -603 l-145 0 l0 732 Z" /><glyph glyph-name="uni0403" unicode="&#x403;" d="M264 798 l90 130 l140 0 l-121 -130 l-109 0 ZM77 732 l477 0 l0 -129 l-332 0 l0 -603 l-145 0 l0 732 Z" /><glyph glyph-name="uni0490" unicode="&#x490;" d="M77 732 l352 0 l20 150 l125 0 l-18 -279 l-334 0 l0 -603 l-145 0 l0 732 Z" /><glyph glyph-name="uni0414" unicode="&#x414;" d="M700 129 l98 0 l-10 -301 l-125 0 l-5 172 l-505 0 l-5 -172 l-125 0 l-10 301 l41 0 q46 0 74 24 q28 24 44 79 q16 55 24 152 l28 348 l476 0 l0 -603 ZM555 129 l0 474 l-199 0 l-18 -237 q-6 -83 -20.5 -141.5 q-14.5 -58.5 -40.5 -95.5 l278 0 Z" /><glyph glyph-name="uni0415" unicode="&#x415;" d="M519 309 l-297 0 l0 -182 l343 0 l0 -127 l-488 0 l0 732 l477 0 l0 -126 l-332 0 l0 -172 l297 0 l0 -125 Z" /><glyph glyph-name="uni0400" unicode="&#x400;" d="M128 928 l144 0 l93 -128 l-114 0 l-123 128 ZM519 309 l-297 0 l0 -182 l343 0 l0 -127 l-488 0 l0 732 l477 0 l0 -126 l-332 0 l0 -172 l297 0 l0 -125 Z" /><glyph glyph-name="uni0401" unicode="&#x401;" d="M200 801 q-31 0 -52.5 19 q-21.5 19 -21.5 45 q0 26 21.5 44.5 q21.5 18.5 52.5 18.5 q32 0 54 -18.5 q22 -18.5 22 -44.5 q0 -26 -22 -45 q-22 -19 -54 -19 ZM424 801 q-31 0 -52.5 19 q-21.5 19 -21.5 45 q0 26 21.5 44.5 q21.5 18.5 52.5 18.5 q31 0 53.5 -18.5 q22.5 -18.5 22.5 -44.5 q0 -26 -22.5 -45 q-22.5 -19 -53.5 -19 ZM519 309 l-297 0 l0 -182 l343 0 l0 -127 l-488 0 l0 732 l477 0 l0 -126 l-332 0 l0 -172 l297 0 l0 -125 Z" /><glyph glyph-name="uni0416" unicode="&#x416;" d="M840 374 l249 -374 l-177 0 l-196 304 l-99 0 l0 -304 l-145 0 l0 304 l-101 0 l-196 -304 l-175 0 l249 374 l-236 358 l165 0 l192 -299 l102 0 l0 299 l145 0 l0 -299 l103 0 l192 299 l164 0 l-236 -358 Z" /><glyph glyph-name="uni0417" unicode="&#x417;" d="M433 382 q65 -23 99 -68.5 q34 -45.5 34 -111.5 q0 -100 -74 -157 q-74 -57 -198 -57 q-212 0 -270 170 l115 67 q40 -108 152 -108 q55 0 88 26 q33 26 33 73 q0 49 -42.5 74.5 q-42.5 25.5 -126.5 25.5 l-27 0 l1 120 l39 0 q64 0 96.5 27 q32.5 27 32.5 69 q0 38 -27 61 q-27 23 -73 23 q-97 0 -141 -108 l-110 64 q27 86 95.5 130 q68.5 44 166.5 44 q74 0 129 -25.5 q55 -25.5 84.5 -71.5 q29.5 -46 29.5 -105 q0 -55 -26.5 -97 q-26.5 -42 -79.5 -65 Z" /><glyph glyph-name="uni0418" unicode="&#x418;" d="M566 732 l118 0 l0 -732 l-135 0 l0 493 l-355 -493 l-117 0 l0 732 l133 0 l0 -493 l356 493 Z" /><glyph glyph-name="uni0419" unicode="&#x419;" d="M380 799 q-80 0 -127.5 34.5 q-47.5 34.5 -47.5 94.5 l108 0 q3 -29 20 -45 q17 -16 47 -16 q61 0 69 61 l108 0 q0 -60 -47.5 -94.5 q-47.5 -34.5 -129.5 -34.5 ZM566 732 l118 0 l0 -732 l-135 0 l0 493 l-355 -493 l-117 0 l0 732 l133 0 l0 -493 l356 493 Z" /><glyph glyph-name="uni040D" unicode="&#x40d;" d="M213 928 l140 0 l90 -131 l-110 0 l-120 131 ZM566 732 l118 0 l0 -732 l-135 0 l0 493 l-355 -493 l-117 0 l0 732 l133 0 l0 -493 l356 493 Z" /><glyph glyph-name="uni041A" unicode="&#x41a;" d="M446 374 l271 -374 l-179 0 l-213 304 l-103 0 l0 -304 l-145 0 l0 732 l145 0 l0 -299 l107 0 l209 299 l165 0 l-257 -358 Z" /><glyph glyph-name="uni040C" unicode="&#x40c;" d="M318 800 l93 128 l144 0 l-124 -128 l-113 0 ZM446 374 l271 -374 l-179 0 l-213 304 l-103 0 l0 -304 l-145 0 l0 732 l145 0 l0 -299 l107 0 l209 299 l165 0 l-257 -358 Z" /><glyph glyph-name="uni041B" unicode="&#x41b;" d="M690 732 l0 -732 l-146 0 l0 603 l-251 0 l-18 -343 q-6 -109 -34.5 -167.5 q-28.5 -58.5 -81.5 -81.5 q-53 -23 -143 -23 l0 133 q45 0 69 14 q24 14 34 47 q10 33 13 95 l25 455 l533 0 Z" /><glyph glyph-name="uni041C" unicode="&#x41c;" d="M691 732 l110 0 l0 -732 l-138 0 l0 472 l-186 -277 l-76 0 l-187 279 l0 -474 l-137 0 l0 732 l115 0 l250 -379 l249 379 Z" /><glyph glyph-name="uni041D" unicode="&#x41d;" d="M222 444 l330 0 l0 288 l146 0 l0 -732 l-146 0 l0 315 l-330 0 l0 -315 l-145 0 l0 732 l145 0 l0 -288 Z" /><glyph glyph-name="uni041E" unicode="&#x41e;" d="M42 367 q0 115 46 201 q46 86 125.5 131.5 q79.5 45.5 177.5 45.5 q98 0 177.5 -45.5 q79.5 -45.5 126 -131.5 q46.5 -86 46.5 -201 q0 -116 -46.5 -202 q-46.5 -86 -126 -131.5 q-79.5 -45.5 -177.5 -45.5 q-98 0 -177.5 45.5 q-79.5 45.5 -125.5 131.5 q-46 86 -46 202 ZM195 367 q0 -73 24.5 -129 q24.5 -56 69 -86.5 q44.5 -30.5 102.5 -30.5 q58 0 102.5 30.5 q44.5 30.5 68.5 86.5 q24 56 24 129 q0 73 -24.5 128.5 q-24.5 55.5 -68.5 86 q-44 30.5 -102 30.5 q-58 0 -102.5 -30.5 q-44.5 -30.5 -69 -86 q-24.5 -55.5 -24.5 -128.5 Z" /><glyph glyph-name="uni041F" unicode="&#x41f;" d="M77 732 l615 0 l0 -732 l-145 0 l0 603 l-325 0 l0 -603 l-145 0 l0 732 Z" /><glyph glyph-name="uni0420" unicode="&#x420;" d="M329 732 q87 0 152 -30 q65 -30 100.5 -84.5 q35.5 -54.5 35.5 -127.5 q0 -72 -35.5 -126.5 q-35.5 -54.5 -100.5 -84 q-65 -29.5 -152 -29.5 l-107 0 l0 -250 l-145 0 l0 732 l252 0 ZM312 373 q68 0 109.5 29.5 q41.5 29.5 41.5 87.5 q0 58 -41.5 88.5 q-41.5 30.5 -109.5 30.5 l-90 0 l0 -236 l90 0 Z" /><glyph glyph-name="uni0421" unicode="&#x421;" d="M390 121 q53 0 91.5 28 q38.5 28 61.5 78 l121 -70 q-27 -74 -99 -121.5 q-72 -47.5 -172 -47.5 q-97 0 -177 47 q-80 47 -127 133.5 q-47 86.5 -47 198.5 q0 112 46.5 198 q46.5 86 127 133 q80.5 47 177.5 47 q100 0 172 -47.5 q72 -47.5 99 -121.5 l-121 -70 q-23 50 -61.5 78 q-38.5 28 -91.5 28 q-56 0 -100 -30 q-44 -30 -69.5 -85.5 q-25.5 -55.5 -25.5 -129.5 q0 -74 25.5 -130 q25.5 -56 69.5 -86 q44 -30 100 -30 Z" /><glyph glyph-name="uni0422" unicode="&#x422;" d="M8 732 l592 0 l0 -129 l-223 0 l0 -603 l-147 0 l0 603 l-222 0 l0 129 Z" /><glyph glyph-name="uni0423" unicode="&#x423;" d="M352 361 l166 371 l154 0 l-256 -528 q-35 -73 -68.5 -119 q-33.5 -46 -78.5 -71.5 q-45 -25.5 -108 -25.5 q-63 0 -108 26 l0 135 q50 -28 101 -28 q39 0 66.5 19 q27.5 19 57.5 68 l-272 524 l166 0 l180 -371 Z" /><glyph glyph-name="uni040E" unicode="&#x40e;" d="M345 799 q-80 0 -127.5 34.5 q-47.5 34.5 -47.5 94.5 l108 0 q3 -29 20 -45 q17 -16 47 -16 q61 0 69 61 l108 0 q0 -60 -47.5 -94.5 q-47.5 -34.5 -129.5 -34.5 ZM352 361 l166 371 l154 0 l-256 -528 q-35 -73 -68.5 -119 q-33.5 -46 -78.5 -71.5 q-45 -25.5 -108 -25.5 q-63 0 -108 26 l0 135 q50 -28 101 -28 q39 0 66.5 19 q27.5 19 57.5 68 l-272 524 l166 0 l180 -371 Z" /><glyph glyph-name="uni0424" unicode="&#x424;" d="M813 367 q0 -81 -42.5 -143 q-42.5 -62 -114.5 -99.5 q-72 -37.5 -162 -48.5 l0 -76 l-142 0 l0 76 q-90 10 -162.5 47 q-72.5 37 -115 99.5 q-42.5 62.5 -42.5 144.5 q0 81 42.5 143 q42.5 62 115 99.5 q72.5 37.5 162.5 47.5 l0 75 l142 0 l0 -75 q90 -11 162.5 -48 q72.5 -37 114.5 -99 q42 -62 42 -143 ZM183 367 q0 -66 45 -105 q45 -39 124 -51 l0 312 q-78 -12 -123.5 -51 q-45.5 -39 -45.5 -105 ZM494 211 q78 12 122.5 51 q44.5 39 44.5 105 q0 65 -45 104.5 q-45 39.5 -122 51.5 l0 -312 Z" /><glyph glyph-name="uni0425" unicode="&#x425;" d="M698 732 l-257 -357 l269 -375 l-180 0 l-178 257 l-179 -257 l-168 0 l268 372 l-256 360 l177 0 l168 -242 l168 242 l168 0 Z" /><glyph glyph-name="uni0427" unicode="&#x427;" d="M486 732 l146 0 l0 -732 l-146 0 l0 299 q-67 -61 -181 -61 q-122 0 -193.5 65.5 q-71.5 65.5 -71.5 197.5 l0 231 l146 0 l0 -200 q0 -85 33.5 -123 q33.5 -38 106.5 -38 q71 0 115.5 37.5 q44.5 37.5 44.5 124.5 l0 199 Z" /><glyph glyph-name="uni0426" unicode="&#x426;" d="M692 732 l0 -603 l98 0 l-11 -301 l-124 0 l-6 172 l-572 0 l0 732 l145 0 l0 -603 l325 0 l0 603 l145 0 Z" /><glyph glyph-name="uni0428" unicode="&#x428;" d="M593 129 l225 0 l0 603 l145 0 l0 -732 l-886 0 l0 732 l145 0 l0 -603 l225 0 l0 603 l146 0 l0 -603 Z" /><glyph glyph-name="uni0429" unicode="&#x429;" d="M817 732 l146 0 l0 -603 l94 0 l-10 -301 l-125 0 l-5 172 l-840 0 l0 732 l145 0 l0 -603 l225 0 l0 603 l146 0 l0 -603 l224 0 l0 603 Z" /><glyph glyph-name="uni040F" unicode="&#x40f;" d="M222 129 l325 0 l0 603 l145 0 l0 -732 l-239 0 l-6 -172 l-124 0 l-6 172 l-240 0 l0 732 l145 0 l0 -603 Z" /><glyph glyph-name="uni042C" unicode="&#x42c;" d="M369 453 q131 0 203.5 -59.5 q72.5 -59.5 72.5 -168.5 q0 -108 -72 -166.5 q-72 -58.5 -204 -58.5 l-292 0 l0 732 l145 0 l0 -279 l147 0 ZM356 126 q66 0 101.5 26.5 q35.5 26.5 35.5 72.5 q0 47 -35.5 74.5 q-35.5 27.5 -101.5 27.5 l-134 0 l0 -201 l134 0 Z" /><glyph glyph-name="uni042A" unicode="&#x42a;" d="M504 453 q131 0 203.5 -59.5 q72.5 -59.5 72.5 -168.5 q0 -108 -72 -166.5 q-72 -58.5 -204 -58.5 l-292 0 l0 606 l-204 0 l0 126 l349 0 l0 -279 l147 0 ZM491 126 q66 0 101.5 26.5 q35.5 26.5 35.5 72.5 q0 47 -35.5 74.5 q-35.5 27.5 -101.5 27.5 l-134 0 l0 -201 l134 0 Z" /><glyph glyph-name="uni042B" unicode="&#x42b;" d="M369 453 q131 0 203.5 -59.5 q72.5 -59.5 72.5 -168.5 q0 -108 -72 -166.5 q-72 -58.5 -204 -58.5 l-292 0 l0 732 l145 0 l0 -279 l147 0 ZM882 0 l-145 0 l0 732 l145 0 l0 -732 ZM356 126 q66 0 101.5 26.5 q35.5 26.5 35.5 72.5 q0 47 -35.5 74.5 q-35.5 27.5 -101.5 27.5 l-134 0 l0 -201 l134 0 Z" /><glyph glyph-name="uni0409" unicode="&#x409;" d="M837 453 q131 0 203.5 -59.5 q72.5 -59.5 72.5 -168.5 q0 -108 -72 -166.5 q-72 -58.5 -204 -58.5 l-292 0 l0 603 l-252 0 l-18 -346 q-6 -107 -34.5 -165.5 q-28.5 -58.5 -82 -81 q-53.5 -22.5 -142.5 -22.5 l0 133 q45 0 69 14 q24 14 34 46.5 q10 32.5 13 93.5 l25 457 l533 0 l0 -279 l147 0 ZM825 126 q66 0 101 26.5 q35 26.5 35 72.5 q0 47 -35.5 74.5 q-35.5 27.5 -100.5 27.5 l-135 0 l0 -201 l135 0 Z" /><glyph glyph-name="uni040A" unicode="&#x40a;" d="M848 444 q131 0 203.5 -57.5 q72.5 -57.5 72.5 -165.5 q0 -108 -72 -164.5 q-72 -56.5 -204 -56.5 l-296 0 l0 315 l-330 0 l0 -315 l-145 0 l0 732 l145 0 l0 -288 l330 0 l0 288 l146 0 l0 -288 l150 0 ZM835 126 q66 0 101.5 25.5 q35.5 25.5 35.5 69.5 q0 44 -36 70.5 q-36 26.5 -101 26.5 l-137 0 l0 -192 l137 0 Z" /><glyph glyph-name="uni0405" unicode="&#x405;" d="M571 210 q0 -75 -38.5 -124.5 q-38.5 -49.5 -100 -73.5 q-61.5 -24 -131.5 -24 q-102 0 -184 47.5 q-82 47.5 -109 134.5 l118 67 q24 -56 70 -87 q46 -31 110 -31 q52 0 82.5 20.5 q30.5 20.5 30.5 60.5 q0 31 -20 51.5 q-20 20.5 -50 33 q-30 12.5 -84 29.5 q-73 23 -117.5 44 q-44.5 21 -76.5 62 q-32 41 -32 107 q0 71 37.5 120 q37.5 49 99 73.5 q61.5 24.5 132.5 24.5 q97 0 166 -44 q69 -44 89 -119 l-118 -67 q-18 47 -54 73.5 q-36 26.5 -90 26.5 q-50 0 -80 -22 q-30 -22 -30 -59 q0 -28 19 -46.5 q19 -18.5 47.5 -30.5 q28.5 -12 80.5 -28 q73 -23 119.5 -44.5 q46.5 -21.5 80 -64 q33.5 -42.5 33.5 -110.5 Z" /><glyph glyph-name="uni0404" unicode="&#x404;" d="M388 116 q106 0 155 109 l121 -68 q-27 -74 -99 -121.5 q-72 -47.5 -172 -47.5 q-97 0 -177 47 q-80 47 -127 133.5 q-47 86.5 -47 198.5 q0 112 46.5 198 q46.5 86 127 133 q80.5 47 177.5 47 q100 0 172 -47.5 q72 -47.5 99 -121.5 l-121 -68 q-49 109 -155 109 q-72 0 -123 -48.5 q-51 -48.5 -65 -136.5 l252 0 l0 -120 l-253 0 q12 -93 63.5 -144.5 q51.5 -51.5 125.5 -51.5 Z" /><glyph glyph-name="uni042D" unicode="&#x42d;" d="M299 745 q102 0 178 -46.5 q76 -46.5 117 -132 q41 -85.5 41 -199.5 q0 -114 -41 -200 q-41 -86 -117 -132.5 q-76 -46.5 -178 -46.5 q-107 0 -183 48 q-76 48 -102 121 l121 68 q22 -52 63.5 -80.5 q41.5 -28.5 100.5 -28.5 q77 0 123.5 50.5 q46.5 50.5 56.5 145.5 l-253 0 l0 120 l252 0 q-12 90 -58.5 137.5 q-46.5 47.5 -120.5 47.5 q-59 0 -100.5 -28.5 q-41.5 -28.5 -63.5 -80.5 l-121 68 q26 73 102 121 q76 48 183 48 Z" /><glyph glyph-name="uni0406" unicode="&#x406;" d="M222 0 l-145 0 l0 732 l145 0 l0 -732 Z" /><glyph glyph-name="uni0407" unicode="&#x407;" d="M36 801 q-30 0 -51.5 19 q-21.5 19 -21.5 45 q0 26 21.5 44.5 q21.5 18.5 51.5 18.5 q32 0 54 -18.5 q22 -18.5 22 -44.5 q0 -26 -22 -45 q-22 -19 -54 -19 ZM261 801 q-31 0 -52.5 19 q-21.5 19 -21.5 45 q0 26 21.5 44.5 q21.5 18.5 52.5 18.5 q31 0 53 -18.5 q22 -18.5 22 -44.5 q0 -26 -22 -45 q-22 -19 -53 -19 ZM222 0 l-145 0 l0 732 l145 0 l0 -732 Z" /><glyph glyph-name="uni0408" unicode="&#x408;" d="M216 -12 q-81 0 -139 39 q-58 39 -77 119 l120 64 q12 -45 35.5 -67 q23.5 -22 61.5 -22 q50 0 70.5 36.5 q20.5 36.5 20.5 113.5 l0 461 l146 0 l0 -475 q0 -143 -67 -206 q-67 -63 -171 -63 Z" /><glyph glyph-name="uni040B" unicode="&#x40b;" d="M558 457 q122 0 193.5 -65.5 q71.5 -65.5 71.5 -197.5 l0 -194 l-145 0 l0 163 q0 85 -33.5 123 q-33.5 38 -105.5 38 q-71 0 -116.5 -37.5 q-45.5 -37.5 -45.5 -124.5 l0 -162 l-147 0 l0 603 l-222 0 l0 129 l592 0 l0 -129 l-223 0 l0 -207 q67 61 181 61 Z" /><glyph glyph-name="uni042E" unicode="&#x42e;" d="M677 745 q91 0 165.5 -44 q74.5 -44 117.5 -129.5 q43 -85.5 43 -204.5 q0 -120 -43 -205.5 q-43 -85.5 -117 -129.5 q-74 -44 -166 -44 q-85 0 -155 38 q-70 38 -115 111.5 q-45 73.5 -54 177.5 l-131 0 l0 -315 l-145 0 l0 732 l145 0 l0 -288 l134 0 q13 96 58 163.5 q45 67.5 113 102.5 q68 35 150 35 ZM677 121 q79 0 126 65 q47 65 47 181 q0 115 -47 180 q-47 65 -126 65 q-79 0 -127 -65 q-48 -65 -48 -180 q0 -116 47.5 -181 q47.5 -65 127.5 -65 Z" /><glyph glyph-name="uni042F" unicode="&#x42f;" d="M206 294 q-64 28 -100 81 q-36 53 -36 123 q0 70 35 123 q35 53 100 82 q65 29 151 29 l253 0 l0 -732 l-145 0 l0 264 l-106 0 l-6 0 l-178 -263 l-174 -1 l206 294 ZM373 609 q-65 0 -106.5 -27 q-41.5 -27 -41.5 -84 q0 -56 42 -83.5 q42 -27.5 106 -27.5 l91 0 l0 222 l-91 0 Z" /><glyph glyph-name="uni0402" unicode="&#x402;" d="M578 457 q78 0 139 -27 q61 -27 96.5 -81.5 q35.5 -54.5 35.5 -132.5 q0 -111 -69.5 -169.5 q-69.5 -58.5 -189.5 -58.5 q-14 0 -46 2 l0 125 q153 -8 153 102 q0 52 -33 81.5 q-33 29.5 -99 29.5 q-77 0 -132.5 -41 q-55.5 -41 -55.5 -134 l0 -153 l-147 0 l0 603 l-222 0 l0 129 l592 0 l0 -129 l-223 0 l0 -214 q74 68 201 68 Z" /><glyph glyph-name="uni0462" unicode="&#x462;" d="M453 430 q132 0 204 -54.5 q72 -54.5 72 -159.5 q0 -106 -72 -161 q-72 -55 -204 -55 l-292 0 l0 524 l-165 0 l0 113 l165 0 l0 95 l145 0 l0 -95 l224 0 l0 -113 l-224 0 l0 -94 l147 0 ZM441 121 q66 0 101 24.5 q35 24.5 35 70.5 q0 46 -35 71.5 q-35 25.5 -101 25.5 l-135 0 l0 -192 l135 0 Z" /><glyph glyph-name="uni0472" unicode="&#x472;" d="M392 745 q97 0 177 -47 q80 -47 126.5 -133 q46.5 -86 46.5 -198 q0 -113 -46.5 -199 q-46.5 -86 -126.5 -133 q-80 -47 -177 -47 q-97 0 -176.5 47 q-79.5 47 -126 133 q-46.5 86 -46.5 199 q0 112 46.5 198 q46.5 86 126 133 q79.5 47 176.5 47 ZM392 615 q-74 0 -125 -49.5 q-51 -49.5 -65 -134.5 l379 0 q-14 85 -64.5 134.5 q-50.5 49.5 -124.5 49.5 ZM392 118 q75 0 125.5 51 q50.5 51 63.5 138 l-380 0 q14 -87 65 -138 q51 -51 126 -51 Z" /><glyph glyph-name="uni0474" unicode="&#x474;" d="M687 745 q72 0 119 -43 l-47 -113 q-25 23 -55 23 q-24 0 -40.5 -15.5 q-16.5 -15.5 -33.5 -56.5 l-216 -540 l-112 0 l-296 732 l165 0 l193 -514 l130 352 q37 99 82 137 q45 38 111 38 Z" /><glyph glyph-name="uni0492" unicode="&#x492;" d="M80 732 l477 0 l0 -127 l-331 0 l0 -187 l127 0 l0 -126 l-127 0 l0 -292 l-146 0 l0 292 l-80 0 l0 126 l80 0 l0 314 Z" /><glyph glyph-name="uni049A" unicode="&#x49a;" d="M703 732 l-257 -358 l179 -245 l111 0 l-10 -301 l-124 0 l-6 172 l-58 0 l-213 304 l-103 0 l0 -304 l-145 0 l0 732 l145 0 l0 -299 l107 0 l209 299 l165 0 Z" /><glyph glyph-name="uni049C" unicode="&#x49c;" d="M500 375 l228 -375 l-167 0 l-178 304 l-23 0 l0 -138 l-100 0 l0 138 l-47 0 l0 -304 l-136 0 l0 732 l136 0 l0 -299 l47 0 l0 138 l100 0 l0 -138 l27 0 l174 299 l154 0 l-215 -357 Z" /><glyph glyph-name="uni04A2" unicode="&#x4a2;" d="M698 732 l0 -603 l97 0 l-10 -301 l-125 0 l-5 172 l-103 0 l0 315 l-330 0 l0 -315 l-145 0 l0 732 l145 0 l0 -288 l330 0 l0 288 l146 0 Z" /><glyph glyph-name="uni04AE" unicode="&#x4ae;" d="M349 432 l166 300 l157 0 l-254 -443 l0 -289 l-147 0 l0 289 l-265 443 l171 0 l172 -300 Z" /><glyph glyph-name="uni04B0" unicode="&#x4b0;" d="M349 432 l166 300 l157 0 l-201 -350 l135 0 l0 -129 l-188 0 l0 -253 l-147 0 l0 253 l-188 0 l0 129 l133 0 l-210 350 l171 0 l172 -300 Z" /><glyph glyph-name="uni04B2" unicode="&#x4b2;" d="M698 732 l-259 -355 l178 -248 l107 0 l-11 -301 l-124 0 l-6 172 l-51 0 l-179 258 l-182 -258 l-166 0 l270 370 l-258 362 l176 0 l167 -243 l172 243 l166 0 Z" /><glyph glyph-name="uni04B8" unicode="&#x4b8;" d="M489 732 l143 0 l0 -732 l-146 0 l0 299 q-39 -39 -98 -51 l0 -139 l-99 0 l0 129 q-115 5 -182 70.5 q-67 65.5 -67 192.5 l0 231 l143 0 l0 -200 q0 -73 25.5 -111 q25.5 -38 80.5 -47 l0 141 l99 0 l0 -138 q101 23 101 156 l0 199 Z" /><glyph glyph-name="uni04BA" unicode="&#x4ba;" d="M222 0 l-145 0 l0 732 l145 0 l0 -299 q67 61 181 61 q122 0 193.5 -65.5 q71.5 -65.5 71.5 -197.5 l0 -231 l-145 0 l0 200 q0 85 -34 123 q-34 38 -107 38 q-71 0 -115.5 -37.5 q-44.5 -37.5 -44.5 -124.5 l0 -199 Z" /><glyph glyph-name="uni04D8" unicode="&#x4d8;" d="M358 745 q98 0 174.5 -43 q76.5 -43 120 -128.5 q43.5 -85.5 43.5 -208.5 q0 -121 -44.5 -206 q-44.5 -85 -121.5 -128 q-77 -43 -173 -43 q-94 0 -164.5 41 q-70.5 41 -108.5 115.5 q-38 74.5 -38 172.5 q0 46 9 97 l485 0 q-10 99 -57 150 q-47 51 -131 51 q-60 0 -102.5 -28.5 q-42.5 -28.5 -74.5 -85.5 l-108 75 q37 82 115 125.5 q78 43.5 176 43.5 ZM360 117 q77 0 122 44 q45 44 56 128 l-338 0 q1 -85 43.5 -128.5 q42.5 -43.5 116.5 -43.5 Z" /><glyph glyph-name="uni04E8" unicode="&#x4e8;" d="M392 745 q97 0 177 -47 q80 -47 126.5 -133 q46.5 -86 46.5 -198 q0 -113 -46.5 -199 q-46.5 -86 -126.5 -133 q-80 -47 -177 -47 q-97 0 -176.5 47 q-79.5 47 -126 133 q-46.5 86 -46.5 199 q0 112 46.5 198 q46.5 86 126 133 q79.5 47 176.5 47 ZM392 615 q-74 0 -125 -49.5 q-51 -49.5 -65 -134.5 l379 0 q-14 85 -64.5 134.5 q-50.5 49.5 -124.5 49.5 ZM392 118 q75 0 125.5 51 q50.5 51 63.5 138 l-380 0 q14 -87 65 -138 q51 -51 126 -51 Z" /><glyph glyph-name="uni0430" unicode="&#x430;" d="M284 531 q105 0 164 -59.5 q59 -59.5 59 -169.5 l0 -302 l-117 0 q-1 8 -2.5 26.5 q-1.5 18.5 -4.5 32.5 q-23 -36 -59.5 -53.5 q-36.5 -17.5 -88.5 -17.5 q-54 0 -98.5 19 q-44.5 19 -70.5 55.5 q-26 36.5 -26 86.5 q0 52 29.5 90.5 q29.5 38.5 79.5 59.5 q50 21 110 21 q54 0 111 -18 q-3 115 -98 115 q-76 0 -111 -68 l-99 57 q28 58 86 91.5 q58 33.5 136 33.5 ZM370 210 q-50 12 -87 12 q-49 0 -76 -17.5 q-27 -17.5 -27 -49.5 q0 -29 21.5 -45 q21.5 -16 55.5 -16 q45 0 79 25.5 q34 25.5 34 70.5 l0 20 Z" /><glyph glyph-name="uni0431" unicode="&#x431;" d="M329 520 q64 0 116 -31 q52 -31 82.5 -90.5 q30.5 -59.5 30.5 -141.5 q0 -85 -34 -146 q-34 -61 -93 -92 q-59 -31 -132 -31 q-119 0 -191.5 87 q-72.5 87 -72.5 274 q0 112 26.5 199.5 q26.5 87.5 82.5 137.5 q32 28 70.5 42.5 q38.5 14.5 74.5 18.5 q36 4 89 6 q48 2 76.5 6 q28.5 4 49.5 15 l-1 -121 q-18 -11 -43.5 -14.5 q-25.5 -3.5 -68.5 -4.5 q-56 -1 -93 -8 q-37 -7 -65 -30 q-43 -39 -54 -135 q27 28 65.5 43.5 q38.5 15.5 84.5 15.5 ZM298 106 q52 0 82.5 40 q30.5 40 30.5 106 q0 68 -30.5 108 q-30.5 40 -82.5 40 q-52 0 -84.5 -41 q-32.5 -41 -32.5 -107 q0 -67 32.5 -106.5 q32.5 -39.5 84.5 -39.5 Z" /><glyph glyph-name="uni0432" unicode="&#x432;" d="M429 267 q88 -30 88 -118 q0 -70 -54 -109.5 q-54 -39.5 -153 -39.5 l-245 0 l0 518 l228 0 q90 0 144 -37.5 q54 -37.5 54 -107.5 q0 -73 -62 -106 ZM200 414 l0 -102 l75 0 q39 0 57.5 14 q18.5 14 18.5 39 q0 23 -18.5 36 q-18.5 13 -57.5 13 l-75 0 ZM291 104 q86 0 86 54 q0 54 -86 54 l-91 0 l0 -108 l91 0 Z" /><glyph glyph-name="uni0433" unicode="&#x433;" d="M65 518 l377 0 l0 -117 l-238 0 l0 -401 l-139 0 l0 518 Z" /><glyph glyph-name="uni0453" unicode="&#x453;" d="M199 585 l90 165 l140 0 l-120 -165 l-110 0 ZM65 518 l377 0 l0 -117 l-238 0 l0 -401 l-139 0 l0 518 Z" /><glyph glyph-name="uni0491" unicode="&#x491;" d="M65 518 l278 0 l19 126 l119 0 l-17 -243 l-260 0 l0 -401 l-139 0 l0 518 Z" /><glyph glyph-name="uni0434" unicode="&#x434;" d="M550 110 l89 0 l-10 -282 l-120 0 l-6 168 l-356 0 l-6 -168 l-121 0 l-11 282 l41 0 q42 0 63.5 24 q21.5 24 31.5 74.5 q10 50.5 18 152.5 l12 157 l375 0 l0 -408 ZM415 110 l0 294 l-117 0 l-4 -60 q-8 -94 -17 -146.5 q-9 -52.5 -28 -87.5 l166 0 Z" /><glyph glyph-name="uni0435" unicode="&#x435;" d="M295 531 q69 0 122.5 -30.5 q53.5 -30.5 83 -86 q29.5 -55.5 29.5 -127.5 q0 -32 -6 -65 l-344 0 q9 -58 42 -87.5 q33 -29.5 82 -29.5 q35 0 62.5 15.5 q27.5 15.5 42.5 46.5 l102 -60 q-21 -57 -80.5 -88 q-59.5 -31 -132.5 -31 q-70 0 -130 31 q-60 31 -96.5 93 q-36.5 62 -36.5 149 q0 86 36.5 147 q36.5 61 95.5 92 q59 31 128 31 ZM291 418 q-41 0 -70 -26 q-29 -26 -39 -73 l206 0 q-4 48 -30.5 73.5 q-26.5 25.5 -66.5 25.5 Z" /><glyph glyph-name="uni0450" unicode="&#x450;" d="M124 748 l140 0 l90 -165 l-109 0 l-121 165 ZM295 531 q69 0 122.5 -30.5 q53.5 -30.5 83 -86 q29.5 -55.5 29.5 -127.5 q0 -32 -6 -65 l-344 0 q9 -58 42 -87.5 q33 -29.5 82 -29.5 q35 0 62.5 15.5 q27.5 15.5 42.5 46.5 l102 -60 q-21 -57 -80.5 -88 q-59.5 -31 -132.5 -31 q-70 0 -130 31 q-60 31 -96.5 93 q-36.5 62 -36.5 149 q0 86 36.5 147 q36.5 61 95.5 92 q59 31 128 31 ZM291 418 q-41 0 -70 -26 q-29 -26 -39 -73 l206 0 q-4 48 -30.5 73.5 q-26.5 25.5 -66.5 25.5 Z" /><glyph glyph-name="uni0451" unicode="&#x451;" d="M179 588 q-30 0 -52 23 q-22 23 -22 54 q0 32 21.5 54.5 q21.5 22.5 52.5 22.5 q32 0 54 -22.5 q22 -22.5 22 -54.5 q0 -31 -22 -54 q-22 -23 -54 -23 ZM404 588 q-31 0 -53 23 q-22 23 -22 54 q0 32 22 54.5 q22 22.5 53 22.5 q31 0 53 -22.5 q22 -22.5 22 -54.5 q0 -31 -22 -54 q-22 -23 -53 -23 ZM295 531 q69 0 122.5 -30.5 q53.5 -30.5 83 -86 q29.5 -55.5 29.5 -127.5 q0 -32 -6 -65 l-344 0 q9 -58 42 -87.5 q33 -29.5 82 -29.5 q35 0 62.5 15.5 q27.5 15.5 42.5 46.5 l102 -60 q-21 -57 -80.5 -88 q-59.5 -31 -132.5 -31 q-70 0 -130 31 q-60 31 -96.5 93 q-36.5 62 -36.5 149 q0 86 36.5 147 q36.5 61 95.5 92 q59 31 128 31 ZM291 418 q-41 0 -70 -26 q-29 -26 -39 -73 l206 0 q-4 48 -30.5 73.5 q-26.5 25.5 -66.5 25.5 Z" /><glyph glyph-name="uni0436" unicode="&#x436;" d="M540 317 l136 201 l149 0 l-175 -251 l180 -267 l-161 0 l-130 200 l-55 0 l0 -200 l-139 0 l0 200 l-55 0 l-130 -200 l-160 0 l179 267 l-174 251 l148 0 l136 -201 l56 0 l0 201 l139 0 l0 -201 l56 0 Z" /><glyph glyph-name="uni0437" unicode="&#x437;" d="M334 271 q57 -15 88.5 -49.5 q31.5 -34.5 31.5 -82.5 q0 -44 -27 -78 q-27 -34 -77 -53.5 q-50 -19.5 -117 -19.5 q-87 0 -148.5 31 q-61.5 31 -88.5 92 l97 58 q36 -66 126 -66 q40 0 65.5 12.5 q25.5 12.5 25.5 38.5 q0 56 -121 56 l-41 0 l0 109 l43 0 q101 0 101 48 q0 23 -20 36 q-20 13 -55 13 q-69 0 -100 -52 l-104 63 q25 49 81.5 76.5 q56.5 27.5 132.5 27.5 q96 0 152.5 -40 q56.5 -40 56.5 -106 q0 -41 -26 -70 q-26 -29 -76 -44 Z" /><glyph glyph-name="uni0438" unicode="&#x438;" d="M199 518 l0 -314 l241 314 l112 0 l0 -518 l-134 0 l0 314 l-241 -314 l-112 0 l0 518 l134 0 Z" /><glyph glyph-name="uni0439" unicode="&#x439;" d="M309 583 q-80 0 -129 44.5 q-49 44.5 -49 120.5 l109 0 q7 -78 69 -78 q62 0 70 78 l108 0 q0 -76 -48.5 -120.5 q-48.5 -44.5 -129.5 -44.5 ZM199 518 l0 -314 l241 314 l112 0 l0 -518 l-134 0 l0 314 l-241 -314 l-112 0 l0 518 l134 0 Z" /><glyph glyph-name="uni045D" unicode="&#x45d;" d="M141 748 l140 0 l90 -165 l-109 0 l-121 165 ZM199 518 l0 -314 l241 314 l112 0 l0 -518 l-134 0 l0 314 l-241 -314 l-112 0 l0 518 l134 0 Z" /><glyph glyph-name="uni043A" unicode="&#x43a;" d="M264 317 l148 201 l152 0 l-190 -251 l195 -267 l-164 0 l-142 200 l-59 0 l0 -200 l-139 0 l0 518 l139 0 l0 -201 l60 0 Z" /><glyph glyph-name="uni045C" unicode="&#x45c;" d="M243 583 l90 165 l140 0 l-120 -165 l-110 0 ZM264 317 l148 201 l152 0 l-190 -251 l195 -267 l-164 0 l-142 200 l-59 0 l0 -200 l-139 0 l0 518 l139 0 l0 -201 l60 0 Z" /><glyph glyph-name="uni043B" unicode="&#x43b;" d="M532 518 l0 -518 l-139 0 l0 401 l-144 0 l-8 -174 q-6 -94 -29.5 -145.5 q-23.5 -51.5 -70 -72.5 q-46.5 -21 -127.5 -21 l0 133 q37 0 57 12.5 q20 12.5 28 38.5 q8 26 11 72 l15 274 l407 0 Z" /><glyph glyph-name="uni043C" unicode="&#x43c;" d="M533 518 l113 0 l0 -518 l-127 0 l0 300 l-134 -204 l-58 0 l-135 197 l0 -293 l-127 0 l0 518 l113 0 l179 -266 l176 266 Z" /><glyph glyph-name="uni043D" unicode="&#x43d;" d="M204 321 l200 0 l0 197 l139 0 l0 -518 l-139 0 l0 205 l-200 0 l0 -205 l-139 0 l0 518 l139 0 l0 -197 Z" /><glyph glyph-name="uni043E" unicode="&#x43e;" d="M35 259 q0 81 36.5 143 q36.5 62 97.5 95.5 q61 33.5 132 33.5 q70 0 130.5 -33.5 q60.5 -33.5 97 -95.5 q36.5 -62 36.5 -143 q0 -81 -36.5 -143 q-36.5 -62 -97 -95 q-60.5 -33 -130.5 -33 q-71 0 -132 33 q-61 33 -97.5 95 q-36.5 62 -36.5 143 ZM179 259 q0 -69 34.5 -109.5 q34.5 -40.5 86.5 -40.5 q52 0 86 40.5 q34 40.5 34 109.5 q0 69 -34 110 q-34 41 -86 41 q-52 0 -86.5 -41 q-34.5 -41 -34.5 -110 Z" /><glyph glyph-name="uni043F" unicode="&#x43f;" d="M65 518 l478 0 l0 -518 l-139 0 l0 401 l-200 0 l0 -401 l-139 0 l0 518 Z" /><glyph glyph-name="uni0440" unicode="&#x440;" d="M361 531 q63 0 116.5 -32 q53.5 -32 85 -94 q31.5 -62 31.5 -146 q0 -84 -31.5 -145.5 q-31.5 -61.5 -85 -93.5 q-53.5 -32 -116.5 -32 q-48 0 -89 19 q-41 19 -68 58 l0 -297 l-139 0 l0 750 l122 0 l3 -34 q1 -10 2 -21 q1 -11 3 -23 q27 46 70.5 68.5 q43.5 22.5 95.5 22.5 ZM329 111 q54 0 87.5 39.5 q33.5 39.5 33.5 108.5 q0 71 -33 112 q-33 41 -88 41 q-52 0 -88.5 -38.5 q-36.5 -38.5 -36.5 -114.5 q0 -75 36 -111.5 q36 -36.5 89 -36.5 Z" /><glyph glyph-name="uni0441" unicode="&#x441;" d="M298 109 q60 0 96 59 l106 -62 q-25 -58 -79 -88 q-54 -30 -123 -30 q-69 0 -129 31.5 q-60 31.5 -97 93 q-37 61.5 -37 146.5 q0 86 37 147.5 q37 61.5 97 93 q60 31.5 129 31.5 q69 0 123 -30 q54 -30 79 -88 l-106 -62 q-35 58 -96 58 q-54 0 -86.5 -40.5 q-32.5 -40.5 -32.5 -109.5 q0 -68 33 -109 q33 -41 86 -41 Z" /><glyph glyph-name="uni0442" unicode="&#x442;" d="M6 401 l0 117 l480 0 l0 -117 l-171 0 l0 -401 l-139 0 l0 401 l-170 0 Z" /><glyph glyph-name="uni0443" unicode="&#x443;" d="M420 518 l145 0 l-233 -586 q-37 -93 -86.5 -134.5 q-49.5 -41.5 -123.5 -41.5 q-36 0 -67.5 10.5 q-31.5 10.5 -54.5 28.5 l55 106 q30 -22 66 -22 q23 0 39.5 9.5 q16.5 9.5 31.5 33 q15 23.5 35 69.5 l-225 527 l156 0 l137 -357 l125 357 Z" /><glyph glyph-name="uni045E" unicode="&#x45e;" d="M287 583 q-80 0 -129 44.5 q-49 44.5 -49 120.5 l109 0 q3 -37 20.5 -57.5 q17.5 -20.5 48.5 -20.5 q62 0 70 78 l108 0 q0 -76 -48.5 -120.5 q-48.5 -44.5 -129.5 -44.5 ZM420 518 l145 0 l-233 -586 q-37 -93 -86.5 -134.5 q-49.5 -41.5 -123.5 -41.5 q-36 0 -67.5 10.5 q-31.5 10.5 -54.5 28.5 l55 106 q30 -22 66 -22 q23 0 39.5 9.5 q16.5 9.5 31.5 33 q15 23.5 35 69.5 l-225 527 l156 0 l137 -357 l125 357 Z" /><glyph glyph-name="uni0444" unicode="&#x444;" d="M740 259 q0 -77 -38 -134 q-38 -57 -102.5 -90 q-64.5 -33 -144.5 -43 l0 -224 l-134 0 l0 224 q-125 15 -205.5 84 q-80.5 69 -80.5 183 q0 77 38 134 q38 57 103 90.5 q65 33.5 146 43.5 l0 171 l134 0 l0 -171 q80 -10 144.5 -43.5 q64.5 -33.5 102 -90.5 q37.5 -57 37.5 -134 ZM177 259 q0 -59 39.5 -95.5 q39.5 -36.5 104.5 -48.5 l1 289 q-66 -12 -105.5 -48.5 q-39.5 -36.5 -39.5 -96.5 ZM455 115 q65 12 103.5 48.5 q38.5 36.5 38.5 95.5 q0 60 -38.5 96.5 q-38.5 36.5 -102.5 47.5 l-1 -288 Z" /><glyph glyph-name="uni0445" unicode="&#x445;" d="M272 364 l110 154 l152 0 l-190 -256 l190 -262 l-159 0 l-109 155 l-108 -155 l-154 0 l190 256 l-190 262 l161 0 l107 -154 Z" /><glyph glyph-name="uni0447" unicode="&#x447;" d="M387 518 l138 0 l0 -518 l-138 0 l0 189 q-50 -51 -139 -51 q-88 0 -143 46.5 q-55 46.5 -55 134.5 l0 199 l140 0 l0 -154 q0 -102 94 -102 q48 0 75.5 27 q27.5 27 27.5 78 l0 151 Z" /><glyph glyph-name="uni0446" unicode="&#x446;" d="M543 518 l0 -401 l93 0 l-10 -289 l-118 0 l-6 172 l-437 0 l0 518 l139 0 l0 -401 l200 0 l0 401 l139 0 Z" /><glyph glyph-name="uni0448" unicode="&#x448;" d="M481 117 l146 0 l0 401 l135 0 l0 -518 l-697 0 l0 518 l135 0 l0 -401 l146 0 l0 401 l135 0 l0 -401 Z" /><glyph glyph-name="uni0449" unicode="&#x449;" d="M762 518 l0 -401 l93 0 l-10 -289 l-119 0 l-6 172 l-655 0 l0 518 l135 0 l0 -401 l146 0 l0 401 l135 0 l0 -401 l146 0 l0 401 l135 0 Z" /><glyph glyph-name="uni045F" unicode="&#x45f;" d="M204 117 l200 0 l0 401 l139 0 l0 -518 l-174 0 l-6 -172 l-118 0 l-7 172 l-173 0 l0 518 l139 0 l0 -401 Z" /><glyph glyph-name="uni044C" unicode="&#x44c;" d="M310 344 q105 0 161 -45.5 q56 -45.5 56 -125.5 q0 -82 -56 -127.5 q-56 -45.5 -161 -45.5 l-245 0 l0 518 l144 0 l0 -174 l101 0 ZM286 109 q52 0 74.5 16.5 q22.5 16.5 22.5 47.5 q0 30 -22.5 45.5 q-22.5 15.5 -74.5 15.5 l-77 0 l0 -125 l77 0 Z" /><glyph glyph-name="uni044A" unicode="&#x44a;" d="M428 344 q105 0 161 -45.5 q56 -45.5 56 -125.5 q0 -82 -56 -127.5 q-56 -45.5 -161 -45.5 l-246 0 l0 401 l-171 0 l0 117 l315 0 l0 -174 l102 0 ZM404 109 q51 0 73.5 16.5 q22.5 16.5 22.5 47.5 q0 30 -22.5 45.5 q-22.5 15.5 -73.5 15.5 l-78 0 l0 -125 l78 0 Z" /><glyph glyph-name="uni044B" unicode="&#x44b;" d="M310 344 q105 0 161 -45.5 q56 -45.5 56 -125.5 q0 -82 -56 -127.5 q-56 -45.5 -161 -45.5 l-245 0 l0 518 l144 0 l0 -174 l101 0 ZM749 0 l-144 0 l0 518 l144 0 l0 -518 ZM286 109 q52 0 74.5 16.5 q22.5 16.5 22.5 47.5 q0 30 -22.5 45.5 q-22.5 15.5 -74.5 15.5 l-77 0 l0 -125 l77 0 Z" /><glyph glyph-name="uni0459" unicode="&#x459;" d="M634 344 q104 0 160 -45.5 q56 -45.5 56 -125.5 q0 -82 -56 -127.5 q-56 -45.5 -160 -45.5 l-241 0 l0 401 l-144 0 l-8 -174 q-6 -94 -29.5 -145.5 q-23.5 -51.5 -70 -72.5 q-46.5 -21 -127.5 -21 l0 133 q37 0 57 12.5 q20 12.5 28 38.5 q8 26 11 72 l15 274 l407 0 l0 -174 l102 0 ZM609 109 q52 0 74.5 16.5 q22.5 16.5 22.5 47.5 q0 30 -22.5 45.5 q-22.5 15.5 -74.5 15.5 l-77 0 l0 -125 l77 0 Z" /><glyph glyph-name="uni045A" unicode="&#x45a;" d="M645 334 q105 0 161 -44 q56 -44 56 -123 q0 -79 -56 -123 q-56 -44 -161 -44 l-241 0 l0 217 l-200 0 l0 -217 l-139 0 l0 518 l139 0 l0 -184 l200 0 l0 184 l139 0 l0 -184 l102 0 ZM621 108 q96 0 96 59 q0 29 -22 44 q-22 15 -74 15 l-78 0 l0 -118 l78 0 Z" /><glyph glyph-name="uni0455" unicode="&#x455;" d="M449 154 q0 -77 -59.5 -121.5 q-59.5 -44.5 -154.5 -44.5 q-82 0 -141.5 35 q-59.5 35 -80.5 97 l101 59 q15 -37 47 -57.5 q32 -20.5 75 -20.5 q32 0 51 12 q19 12 19 34 q0 25 -25 38.5 q-25 13.5 -78 28.5 q-53 16 -86.5 31 q-33.5 15 -58 43.5 q-24.5 28.5 -24.5 74.5 q0 52 28.5 90 q28.5 38 76.5 58 q48 20 105 20 q78 0 132 -33.5 q54 -33.5 68 -88.5 l-101 -57 q-30 65 -101 65 q-30 0 -48 -11.5 q-18 -11.5 -18 -32.5 q0 -24 24 -36.5 q24 -12.5 75 -26.5 q54 -15 89 -30 q35 -15 60 -45.5 q25 -30.5 25 -80.5 Z" /><glyph glyph-name="uni0454" unicode="&#x454;" d="M299 102 q65 0 100 61 l101 -57 q-22 -57 -77 -87.5 q-55 -30.5 -121 -30.5 q-70 0 -131 31.5 q-61 31.5 -98.5 93 q-37.5 61.5 -37.5 146.5 q0 86 37.5 147.5 q37.5 61.5 98.5 93 q61 31.5 131 31.5 q66 0 121 -30.5 q55 -30.5 77 -87.5 l-101 -58 q-34 62 -100 62 q-43 0 -74.5 -27 q-31.5 -27 -42.5 -74 l163 0 l0 -106 l-164 0 q10 -50 42 -79 q32 -29 76 -29 Z" /><glyph glyph-name="uni044D" unicode="&#x44d;" d="M208 531 q73 0 131.5 -31.5 q58.5 -31.5 92.5 -92.5 q34 -61 34 -148 q0 -86 -34 -147.5 q-34 -61.5 -92.5 -92.5 q-58.5 -31 -131.5 -31 q-70 0 -127 30.5 q-57 30.5 -79 87.5 l100 57 q36 -61 106 -61 q46 0 76 28.5 q30 28.5 38 79.5 l-165 0 l0 106 l164 0 q-10 48 -39 74.5 q-29 26.5 -74 26.5 q-70 0 -106 -62 l-100 58 q22 57 79 87.5 q57 30.5 127 30.5 Z" /><glyph glyph-name="uni0456" unicode="&#x456;" d="M133 584 q-33 0 -57.5 25.5 q-24.5 25.5 -24.5 59.5 q0 35 24 60 q24 25 58 25 q34 0 59 -25.5 q25 -25.5 25 -59.5 q0 -34 -25 -59.5 q-25 -25.5 -59 -25.5 ZM204 0 l-139 0 l0 518 l139 0 l0 -518 Z" /></font>
</defs>
</svg>
