<?xml version="1.0" standalone="no"?><!DOCTYPE svg PUBLIC "-//W3C//DTD SVG 1.1//EN" "http://www.w3.org/Graphics/SVG/1.1/DTD/svg11.dtd" ><svg xmlns="http://www.w3.org/2000/svg"><metadata></metadata><defs><font id="HarmonyOS Sans Light Italic Version 1.0" horiz-adv-x="1346"><font-face font-family="HarmonyOS Sans Light" font-weight="300" font-stretch="normal" units-per-em="1000" panose-1="0 0 4 0 0 0 0 0 0 0" ascent="928" descent="-285" x-height="0" bbox="-538 -285 1332 1042" underline-thickness="50" underline-position="-75" unicode-range="U+0020-301e" /><missing-glyph horiz-adv-x="500" d="M93 850 l317 0 l0 -1000 l-317 0 l0 1000 ZM333 750 l0 33 l-165 0 l0 -33 l65 0 l0 -37 l-66 0 l0 -33 l166 0 l0 33 l-66 0 l0 37 l66 0 ZM267 584 l0 70 l-100 0 l0 -104 l166 0 l0 34 l-66 0 ZM200 620 l33 0 l0 -36 l-33 0 l0 36 ZM333 490 l0 33 l-166 0 l0 -33 l66 0 l0 -37 l-66 0 l0 -33 l100 0 l0 70 l66 0 ZM333 363 l0 100 l-33 0 l0 -66 l-133 0 l0 -34 l166 0 ZM333 228 l0 113 l-100 0 l0 -56 l34 0 l0 23 l33 0 l0 -47 l-100 0 l0 80 l-33 0 l0 -113 l166 0 ZM333 55 l0 113 l-166 0 l0 -113 l166 0 ZM200 135 l100 0 l0 -47 l-100 0 l0 47 ZM333 -1 l0 33 l-166 0 l0 -33 l70 0 l-70 -47 l0 -33 l166 0 l0 33 l-102 0 l70 47 l32 0 Z" /><glyph glyph-name="space" unicode=" " d="" /><glyph glyph-name="A" unicode="A" d="M418 698 l161 -732 l-62 0 l-49 230 l-320 0 l-127 -230 l-65 0 l412 732 l50 0 ZM458 250 l-77 367 l-204 -367 l281 0 Z" /><glyph glyph-name="Aacute" unicode="Á" d="M438 774 l-52 0 l106 133 l65 0 l-119 -133 ZM418 698 l161 -732 l-62 0 l-49 230 l-320 0 l-127 -230 l-65 0 l412 732 l50 0 ZM458 250 l-77 367 l-204 -367 l281 0 Z" /><glyph glyph-name="Abreve" unicode="&#x102;" d="M415 774 q-60 0 -93.5 30 q-33.5 30 -33.5 79 q0 7 2 23 l52 0 q-1 -5 -1 -16 q0 -34 20 -54.5 q20 -20.5 57 -20.5 q38 0 64 23 q26 23 36 68 l52 0 q-11 -65 -52 -98.5 q-41 -33.5 -103 -33.5 ZM418 698 l161 -732 l-62 0 l-49 230 l-320 0 l-127 -230 l-65 0 l412 732 l50 0 ZM458 250 l-77 367 l-204 -367 l281 0 Z" /><glyph glyph-name="uni1EAE" unicode="&#x1eae;" d="M471 854 l-58 0 l100 77 l71 0 l-113 -77 ZM412 754 q-60 0 -93.5 18 q-33.5 18 -33.5 47 q0 3 2 13 l57 0 q-5 -19 14 -31 q19 -12 58 -12 q35 0 60 11 q25 11 34 32 l57 0 q-11 -38 -52 -58 q-41 -20 -103 -20 ZM418 698 l161 -732 l-62 0 l-49 230 l-320 0 l-127 -230 l-65 0 l412 732 l50 0 ZM458 250 l-77 367 l-204 -367 l281 0 Z" /><glyph glyph-name="uni1EB6" unicode="&#x1eb6;" d="M415 774 q-60 0 -93.5 30 q-33.5 30 -33.5 79 q0 7 2 23 l52 0 q-1 -5 -1 -16 q0 -34 20 -54.5 q20 -20.5 57 -20.5 q38 0 64 23 q26 23 36 68 l52 0 q-11 -65 -52 -98.5 q-41 -33.5 -103 -33.5 ZM418 698 l161 -732 l-62 0 l-49 230 l-320 0 l-127 -230 l-65 0 l412 732 l50 0 ZM458 250 l-77 367 l-204 -367 l281 0 ZM264 -205 q-17 0 -29.5 13 q-12.5 13 -12.5 30 q0 17 12.5 29.5 q12.5 12.5 29.5 12.5 q17 0 29 -12.5 q12 -12.5 12 -29.5 q0 -17 -12.5 -30 q-12.5 -13 -28.5 -13 Z" /><glyph glyph-name="uni1EB0" unicode="&#x1eb0;" d="M403 854 l-71 77 l60 0 l60 -77 l-49 0 ZM412 754 q-60 0 -93.5 18 q-33.5 18 -33.5 47 q0 3 2 13 l57 0 q-5 -19 14 -31 q19 -12 58 -12 q35 0 60 11 q25 11 34 32 l57 0 q-11 -38 -52 -58 q-41 -20 -103 -20 ZM418 698 l161 -732 l-62 0 l-49 230 l-320 0 l-127 -230 l-65 0 l412 732 l50 0 ZM458 250 l-77 367 l-204 -367 l281 0 Z" /><glyph glyph-name="uni1EB2" unicode="&#x1eb2;" d="M352 925 q31 10 71 10 q39 0 64 -11 q25 -11 25 -30 q0 -24 -28 -37 q-28 -13 -78 -21 l-21 23 q40 6 57.5 10.5 q17.5 4.5 21.5 15.5 q6 20 -47 20 q-30 0 -61 -8 l-4 28 ZM412 754 q-60 0 -93.5 18 q-33.5 18 -33.5 47 q0 3 2 13 l57 0 q-5 -19 14 -31 q19 -12 58 -12 q35 0 60 11 q25 11 34 32 l57 0 q-11 -38 -52 -58 q-41 -20 -103 -20 ZM418 698 l161 -732 l-62 0 l-49 230 l-320 0 l-127 -230 l-65 0 l412 732 l50 0 ZM458 250 l-77 367 l-204 -367 l281 0 Z" /><glyph glyph-name="uni1EB4" unicode="&#x1eb4;" d="M284 865 q10 28 37.5 45 q27.5 17 67.5 17 q25 0 39.5 -5.5 q14.5 -5.5 29.5 -15.5 q14 -9 22.5 -12.5 q8.5 -3.5 22.5 -3.5 q18 0 33 7.5 q15 7.5 22 22.5 l47 0 q-9 -29 -36.5 -45.5 q-27.5 -16.5 -68.5 -16.5 q-25 0 -39.5 5.5 q-14.5 5.5 -29.5 15.5 q-12 8 -21.5 12 q-9.5 4 -22.5 4 q-40 0 -55 -30 l-48 0 ZM412 754 q-60 0 -93.5 18 q-33.5 18 -33.5 47 q0 3 2 13 l57 0 q-5 -19 14 -31 q19 -12 58 -12 q35 0 60 11 q25 11 34 32 l57 0 q-11 -38 -52 -58 q-41 -20 -103 -20 ZM418 698 l161 -732 l-62 0 l-49 230 l-320 0 l-127 -230 l-65 0 l412 732 l50 0 ZM458 250 l-77 367 l-204 -367 l281 0 Z" /><glyph glyph-name="uni01CD" unicode="&#x1cd;" d="M346 907 l66 -96 l98 96 l63 0 l-140 -133 l-53 0 l-93 133 l59 0 ZM418 698 l161 -732 l-62 0 l-49 230 l-320 0 l-127 -230 l-65 0 l412 732 l50 0 ZM458 250 l-77 367 l-204 -367 l281 0 Z" /><glyph glyph-name="Acircumflex" unicode="Â" d="M402 907 l53 0 l93 -133 l-59 0 l-66 96 l-99 -96 l-62 0 l140 133 ZM418 698 l161 -732 l-62 0 l-49 230 l-320 0 l-127 -230 l-65 0 l412 732 l50 0 ZM458 250 l-77 367 l-204 -367 l281 0 Z" /><glyph glyph-name="uni1EA4" unicode="&#x1ea4;" d="M573 848 l-58 0 l100 78 l71 0 l-113 -78 ZM399 832 l53 0 l93 -78 l-64 0 l-60 51 l-90 -51 l-72 0 l140 78 ZM418 698 l161 -732 l-62 0 l-49 230 l-320 0 l-127 -230 l-65 0 l412 732 l50 0 ZM458 250 l-77 367 l-204 -367 l281 0 Z" /><glyph glyph-name="uni1EAC" unicode="&#x1eac;" d="M402 907 l53 0 l93 -133 l-59 0 l-66 96 l-99 -96 l-62 0 l140 133 ZM418 698 l161 -732 l-62 0 l-49 230 l-320 0 l-127 -230 l-65 0 l412 732 l50 0 ZM458 250 l-77 367 l-204 -367 l281 0 ZM264 -205 q-17 0 -29.5 13 q-12.5 13 -12.5 30 q0 17 12.5 29.5 q12.5 12.5 29.5 12.5 q17 0 29 -12.5 q12 -12.5 12 -29.5 q0 -17 -12.5 -30 q-12.5 -13 -28.5 -13 Z" /><glyph glyph-name="uni1EA6" unicode="&#x1ea6;" d="M505 848 l-72 78 l61 0 l60 -78 l-49 0 ZM399 832 l53 0 l93 -78 l-64 0 l-60 51 l-90 -51 l-72 0 l140 78 ZM418 698 l161 -732 l-62 0 l-49 230 l-320 0 l-127 -230 l-65 0 l412 732 l50 0 ZM458 250 l-77 367 l-204 -367 l281 0 Z" /><glyph glyph-name="uni1EA8" unicode="&#x1ea8;" d="M456 918 q33 9 71 9 q39 0 64 -11 q25 -11 25 -29 q0 -24 -28 -37 q-28 -13 -78 -21 l-21 23 q37 4 56 9.5 q19 5.5 23 15.5 q3 10 -9.5 15.5 q-12.5 5.5 -37.5 5.5 q-31 0 -61 -9 l-4 29 ZM399 832 l53 0 l93 -78 l-64 0 l-60 51 l-90 -51 l-72 0 l140 78 ZM418 698 l161 -732 l-62 0 l-49 230 l-320 0 l-127 -230 l-65 0 l412 732 l50 0 ZM458 250 l-77 367 l-204 -367 l281 0 Z" /><glyph glyph-name="uni1EAA" unicode="&#x1eaa;" d="M285 856 q9 29 36.5 46 q27.5 17 68.5 17 q25 0 39.5 -5.5 q14.5 -5.5 29.5 -15.5 q12 -8 21.5 -12 q9.5 -4 22.5 -4 q19 0 33.5 7.5 q14.5 7.5 21.5 22.5 l48 0 q-10 -29 -37 -45.5 q-27 -16.5 -68 -16.5 q-25 0 -39.5 5.5 q-14.5 5.5 -29.5 15.5 q-12 8 -21 12 q-9 4 -23 4 q-40 0 -56 -31 l-47 0 ZM399 832 l53 0 l93 -78 l-64 0 l-60 51 l-90 -51 l-72 0 l140 78 ZM418 698 l161 -732 l-62 0 l-49 230 l-320 0 l-127 -230 l-65 0 l412 732 l50 0 ZM458 250 l-77 367 l-204 -367 l281 0 Z" /><glyph glyph-name="Adieresis" unicode="Ä" d="M322 808 q-17 0 -29.5 12.5 q-12.5 12.5 -12.5 30.5 q0 18 12 30 q12 12 29 12 q18 0 30 -12 q12 -12 12 -30 q0 -18 -12 -30.5 q-12 -12.5 -29 -12.5 ZM518 808 q-17 0 -29 12.5 q-12 12.5 -12 30.5 q0 18 12 30 q12 12 29 12 q17 0 29.5 -12 q12.5 -12 12.5 -30 q0 -18 -12 -30.5 q-12 -12.5 -30 -12.5 ZM418 698 l161 -732 l-62 0 l-49 230 l-320 0 l-127 -230 l-65 0 l412 732 l50 0 ZM458 250 l-77 367 l-204 -367 l281 0 Z" /><glyph glyph-name="uni1EA0" unicode="&#x1ea0;" d="M418 698 l161 -732 l-62 0 l-49 230 l-320 0 l-127 -230 l-65 0 l412 732 l50 0 ZM458 250 l-77 367 l-204 -367 l281 0 ZM264 -205 q-17 0 -29.5 13 q-12.5 13 -12.5 30 q0 17 12.5 29.5 q12.5 12.5 29.5 12.5 q17 0 29 -12.5 q12 -12.5 12 -29.5 q0 -17 -12.5 -30 q-12.5 -13 -28.5 -13 Z" /><glyph glyph-name="Agrave" unicode="À" d="M376 774 l-72 133 l61 0 l60 -133 l-49 0 ZM418 698 l161 -732 l-62 0 l-49 230 l-320 0 l-127 -230 l-65 0 l412 732 l50 0 ZM458 250 l-77 367 l-204 -367 l281 0 Z" /><glyph glyph-name="uni1EA2" unicode="&#x1ea2;" d="M344 906 q32 16 71 16 q39 0 64 -18 q25 -18 25 -50 q0 -40 -27.5 -62.5 q-27.5 -22.5 -78.5 -36.5 l-22 32 q35 8 54.5 20 q19.5 12 23.5 33 q3 19 -9.5 31.5 q-12.5 12.5 -37.5 12.5 q-27 0 -59 -16 l-4 38 ZM418 698 l161 -732 l-62 0 l-49 230 l-320 0 l-127 -230 l-65 0 l412 732 l50 0 ZM458 250 l-77 367 l-204 -367 l281 0 Z" /><glyph glyph-name="Amacron" unicode="&#x100;" d="M562 826 l-293 0 l9 51 l293 0 l-9 -51 ZM418 698 l161 -732 l-62 0 l-49 230 l-320 0 l-127 -230 l-65 0 l412 732 l50 0 ZM458 250 l-77 367 l-204 -367 l281 0 Z" /><glyph glyph-name="Aogonek" unicode="&#x104;" d="M604 -232 q-22 -22 -50 -35 q-28 -13 -59 -13 q-44 0 -74 24.5 q-30 24.5 -30 68.5 q0 98 124 162 l-47 221 l-320 0 l-127 -230 l-65 0 l412 732 l50 0 l161 -732 q-63 -31 -96 -61 q-33 -30 -40 -70 q-2 -12 -2 -18 q0 -26 16 -39.5 q16 -13.5 41 -13.5 q42 0 85 38 l21 -34 ZM381 617 l-204 -367 l281 0 l-77 367 Z" /><glyph glyph-name="Aring" unicode="Å" d="M328 864 q0 40 27.5 66.5 q27.5 26.5 66.5 26.5 q39 0 65 -26.5 q26 -26.5 26 -66.5 q0 -41 -26 -67 q-26 -26 -65 -26 q-40 0 -67 26 q-27 26 -27 67 ZM368 864 q0 -24 15 -40.5 q15 -16.5 39 -16.5 q23 0 37.5 16.5 q14.5 16.5 14.5 40.5 q0 25 -14.5 40.5 q-14.5 15.5 -37.5 15.5 q-24 0 -39 -15.5 q-15 -15.5 -15 -40.5 ZM418 698 l161 -732 l-62 0 l-49 230 l-320 0 l-127 -230 l-65 0 l412 732 l50 0 ZM458 250 l-77 367 l-204 -367 l281 0 Z" /><glyph glyph-name="Aringacute" unicode="&#x1fa;" d="M461 873 l-52 0 l99 69 l65 0 l-112 -69 ZM329 794 q0 22 25 36 q25 14 62 14 q36 0 60 -14 q24 -14 24 -36 q0 -22 -24 -36 q-24 -14 -60 -14 q-37 0 -62 14 q-25 14 -25 36 ZM366 794 q0 -10 14 -16.5 q14 -6.5 36 -6.5 q21 0 34.5 6.5 q13.5 6.5 13.5 16.5 q0 10 -13.5 16.5 q-13.5 6.5 -34.5 6.5 q-22 0 -36 -6.5 q-14 -6.5 -14 -16.5 ZM418 698 l161 -732 l-62 0 l-49 230 l-320 0 l-127 -230 l-65 0 l412 732 l50 0 ZM458 250 l-77 367 l-204 -367 l281 0 Z" /><glyph glyph-name="uni1E00" unicode="&#x1e00;" d="M418 698 l161 -732 l-62 0 l-49 230 l-320 0 l-127 -230 l-65 0 l412 732 l50 0 ZM458 250 l-77 367 l-204 -367 l281 0 ZM168 -170 q0 40 27 66.5 q27 26.5 67 26.5 q39 0 65 -26.5 q26 -26.5 26 -66.5 q0 -41 -26 -67 q-26 -26 -65 -26 q-40 0 -67 26 q-27 26 -27 67 ZM208 -170 q0 -24 15 -40 q15 -16 39 -16 q23 0 37.5 16 q14.5 16 14.5 40 q0 25 -14.5 40.5 q-14.5 15.5 -37.5 15.5 q-24 0 -39 -15.5 q-15 -15.5 -15 -40.5 Z" /><glyph glyph-name="Atilde" unicode="Ã" d="M257 793 q10 48 38.5 77 q28.5 29 68.5 29 q25 0 39 -10.5 q14 -10.5 30 -30.5 q10 -15 19 -22.5 q9 -7.5 23 -7.5 q19 0 34 15 q15 15 22 44 l47 0 q-9 -48 -37.5 -76.5 q-28.5 -28.5 -68.5 -28.5 q-25 0 -40 11 q-15 11 -29 30 q-12 15 -21 22 q-9 7 -22 7 q-19 0 -33.5 -15 q-14.5 -15 -21.5 -44 l-48 0 ZM418 698 l161 -732 l-62 0 l-49 230 l-320 0 l-127 -230 l-65 0 l412 732 l50 0 ZM458 250 l-77 367 l-204 -367 l281 0 Z" /><glyph glyph-name="AE" unicode="Æ" d="M558 699 l440 0 l-9 -53 l-363 0 l-48 -274 l326 0 l-9 -53 l-327 0 l-53 -300 l374 0 l-10 -53 l-433 0 l42 236 l-273 0 l-194 -236 l-70 0 l607 733 ZM497 255 l66 369 l-304 -369 l238 0 Z" /><glyph glyph-name="AEacute" unicode="&#x1fc;" d="M731 775 l-52 0 l106 132 l66 0 l-120 -132 ZM558 699 l440 0 l-9 -53 l-363 0 l-48 -274 l326 0 l-9 -53 l-327 0 l-53 -300 l374 0 l-10 -53 l-433 0 l42 236 l-273 0 l-194 -236 l-70 0 l607 733 ZM497 255 l66 369 l-304 -369 l238 0 Z" /><glyph glyph-name="B" unicode="B" d="M566 491 q-19 -110 -129 -146 q61 -17 92.5 -56.5 q31.5 -39.5 31.5 -97.5 q0 -12 -4 -40 q-15 -89 -83 -137 q-68 -48 -190 -48 l-248 0 l127 732 l188 0 q105 0 161.5 -47.5 q56.5 -47.5 56.5 -123.5 q0 -18 -3 -36 ZM305 368 q87 0 137.5 33 q50.5 33 61.5 95 q2 9 2 27 q0 56 -43.5 89 q-43.5 33 -128.5 33 l-121 0 l-48 -277 l140 0 ZM496 157 q3 17 3 31 q0 61 -46.5 95.5 q-46.5 34.5 -140.5 34.5 l-156 0 l-52 -300 l174 0 q192 0 218 139 Z" /><glyph glyph-name="C" unicode="C" d="M416 654 q-70 0 -129 -35 q-59 -35 -100 -102 q-41 -67 -57 -158 q-8 -46 -8 -84 q0 -77 26.5 -137 q26.5 -60 77 -93.5 q50.5 -33.5 120.5 -33.5 q120 0 183 105 l44 -32 q-37 -64 -95.5 -96 q-58.5 -32 -132.5 -32 q-86 0 -150.5 41 q-64.5 41 -99.5 114 q-35 73 -35 165 q0 39 8 87 q19 107 70.5 185.5 q51.5 78.5 124.5 119.5 q73 41 157 41 q61 0 109 -22.5 q48 -22.5 78.5 -60 q30.5 -37.5 40.5 -82.5 l-51 -24 q-15 58 -60.5 96 q-45.5 38 -120.5 38 Z" /><glyph glyph-name="Cacute" unicode="&#x106;" d="M470 774 l-52 0 l106 132 l65 0 l-119 -132 ZM417 654 q-70 0 -129.5 -35 q-59.5 -35 -100.5 -101.5 q-41 -66.5 -57 -158.5 q-8 -46 -8 -83 q0 -77 26.5 -137 q26.5 -60 77.5 -94 q51 -34 121 -34 q119 0 183 105 l44 -32 q-37 -64 -96 -96 q-59 -32 -132 -32 q-86 0 -150.5 41 q-64.5 41 -99.5 113.5 q-35 72.5 -35 164.5 q0 40 8 88 q19 107 70 185.5 q51 78.5 124 119.5 q73 41 157 41 q61 0 109 -22.5 q48 -22.5 78.5 -60 q30.5 -37.5 40.5 -82.5 l-50 -24 q-16 58 -61.5 96 q-45.5 38 -119.5 38 Z" /><glyph glyph-name="Ccaron" unicode="&#x10c;" d="M378 906 l66 -95 l99 95 l63 0 l-140 -132 l-54 0 l-92 132 l58 0 ZM417 654 q-70 0 -129.5 -35 q-59.5 -35 -100.5 -101.5 q-41 -66.5 -57 -158.5 q-8 -46 -8 -83 q0 -77 26.5 -137 q26.5 -60 77.5 -94 q51 -34 121 -34 q119 0 183 105 l44 -32 q-37 -64 -96 -96 q-59 -32 -132 -32 q-86 0 -150.5 41 q-64.5 41 -99.5 113.5 q-35 72.5 -35 164.5 q0 40 8 88 q19 107 70 185.5 q51 78.5 124 119.5 q73 41 157 41 q61 0 109 -22.5 q48 -22.5 78.5 -60 q30.5 -37.5 40.5 -82.5 l-50 -24 q-16 58 -61.5 96 q-45.5 38 -119.5 38 Z" /><glyph glyph-name="Ccedilla" unicode="Ç" d="M417 654 q-70 0 -129.5 -35 q-59.5 -35 -100.5 -101.5 q-41 -66.5 -57 -158.5 q-8 -46 -8 -83 q0 -77 26.5 -137 q26.5 -60 77.5 -94 q51 -34 121 -34 q119 0 183 105 l44 -32 q-37 -64 -96 -96 q-59 -32 -132 -32 q-9 0 -13 1 l-36 -64 q45 -1 71.5 -21 q26.5 -20 26.5 -56 q0 -50 -38 -73.5 q-38 -23.5 -92 -23.5 q-39 0 -68 10 l4 42 q30 -10 66 -10 q71 0 78 43 q4 24 -16 36.5 q-20 12.5 -61 12.5 q-18 0 -27 -1 l-3 27 l47 83 q-104 20 -164 105.5 q-60 85.5 -60 208.5 q0 39 8 87 q19 107 70 185.5 q51 78.5 124 119.5 q73 41 157 41 q61 0 109 -22.5 q48 -22.5 78.5 -60 q30.5 -37.5 40.5 -82.5 l-50 -24 q-16 58 -61.5 96 q-45.5 38 -119.5 38 Z" /><glyph glyph-name="Ccircumflex" unicode="&#x108;" d="M434 906 l54 0 l92 -132 l-59 0 l-65 95 l-99 -95 l-63 0 l140 132 ZM417 654 q-70 0 -129.5 -35 q-59.5 -35 -100.5 -101.5 q-41 -66.5 -57 -158.5 q-8 -46 -8 -83 q0 -77 26.5 -137 q26.5 -60 77.5 -94 q51 -34 121 -34 q119 0 183 105 l44 -32 q-37 -64 -96 -96 q-59 -32 -132 -32 q-86 0 -150.5 41 q-64.5 41 -99.5 113.5 q-35 72.5 -35 164.5 q0 40 8 88 q19 107 70 185.5 q51 78.5 124 119.5 q73 41 157 41 q61 0 109 -22.5 q48 -22.5 78.5 -60 q30.5 -37.5 40.5 -82.5 l-50 -24 q-16 58 -61.5 96 q-45.5 38 -119.5 38 Z" /><glyph glyph-name="Cdotaccent" unicode="&#x10a;" d="M452 808 q-17 0 -29 12.5 q-12 12.5 -12 29.5 q0 18 12 30.5 q12 12.5 29 12.5 q17 0 29.5 -12.5 q12.5 -12.5 12.5 -30.5 q0 -17 -12 -29.5 q-12 -12.5 -30 -12.5 ZM417 654 q-70 0 -129.5 -35 q-59.5 -35 -100.5 -101.5 q-41 -66.5 -57 -158.5 q-8 -46 -8 -83 q0 -77 26.5 -137 q26.5 -60 77.5 -94 q51 -34 121 -34 q119 0 183 105 l44 -32 q-37 -64 -96 -96 q-59 -32 -132 -32 q-86 0 -150.5 41 q-64.5 41 -99.5 113.5 q-35 72.5 -35 164.5 q0 40 8 88 q19 107 70 185.5 q51 78.5 124 119.5 q73 41 157 41 q61 0 109 -22.5 q48 -22.5 78.5 -60 q30.5 -37.5 40.5 -82.5 l-50 -24 q-16 58 -61.5 96 q-45.5 38 -119.5 38 Z" /><glyph glyph-name="D" unicode="D" d="M332 698 q95 0 168 -39 q73 -39 113.5 -110.5 q40.5 -71.5 40.5 -166.5 q0 -38 -8 -84 q-28 -163 -136.5 -247.5 q-108.5 -84.5 -266.5 -84.5 l-207 0 l127 732 l169 0 ZM584 306 q7 38 7 76 q0 80 -32.5 139.5 q-32.5 59.5 -94.5 92 q-62 32.5 -146 32.5 l-105 0 l-109 -627 l137 0 q138 0 228.5 73 q90.5 73 114.5 214 Z" /><glyph glyph-name="Eth" unicode="Ð" d="M357 698 q95 0 168 -39 q73 -39 113.5 -110.5 q40.5 -71.5 40.5 -166.5 q0 -38 -8 -84 q-28 -163 -136.5 -247.5 q-108.5 -84.5 -266.5 -84.5 l-207 0 l61 350 l-93 0 l10 53 l93 0 l56 329 l169 0 ZM609 306 q7 38 7 76 q0 80 -32.5 139.5 q-32.5 59.5 -94.5 92 q-62 32.5 -146 32.5 l-105 0 l-48 -277 l142 0 l-10 -53 l-141 0 l-52 -297 l137 0 q138 0 229 73 q91 73 114 214 Z" /><glyph glyph-name="Dcaron" unicode="&#x10e;" d="M304 906 l66 -95 l99 95 l63 0 l-140 -132 l-54 0 l-92 132 l58 0 ZM332 698 q95 0 168 -39 q73 -39 113.5 -110.5 q40.5 -71.5 40.5 -166.5 q0 -38 -8 -84 q-28 -163 -136.5 -247.5 q-108.5 -84.5 -266.5 -84.5 l-207 0 l127 732 l169 0 ZM584 306 q7 38 7 76 q0 80 -32.5 139.5 q-32.5 59.5 -94.5 92 q-62 32.5 -146 32.5 l-105 0 l-109 -627 l137 0 q138 0 228.5 73 q90.5 73 114.5 214 Z" /><glyph glyph-name="Dcroat" unicode="&#x110;" d="M357 698 q95 0 168 -39 q73 -39 113.5 -110.5 q40.5 -71.5 40.5 -166.5 q0 -38 -8 -84 q-28 -163 -136.5 -247.5 q-108.5 -84.5 -266.5 -84.5 l-207 0 l61 350 l-93 0 l10 53 l93 0 l56 329 l169 0 ZM609 306 q7 38 7 76 q0 80 -32.5 139.5 q-32.5 59.5 -94.5 92 q-62 32.5 -146 32.5 l-105 0 l-48 -277 l142 0 l-10 -53 l-141 0 l-52 -297 l137 0 q138 0 229 73 q91 73 114 214 Z" /><glyph glyph-name="E" unicode="E" d="M163 698 l418 0 l-9 -53 l-359 0 l-47 -273 l323 0 l-10 -53 l-323 0 l-52 -300 l370 0 l-9 -53 l-429 0 l127 732 Z" /><glyph glyph-name="Eacute" unicode="É" d="M407 774 l-51 0 l106 132 l65 0 l-120 -132 ZM163 698 l418 0 l-9 -53 l-359 0 l-47 -273 l323 0 l-10 -53 l-323 0 l-52 -300 l370 0 l-9 -53 l-429 0 l127 732 Z" /><glyph glyph-name="Ebreve" unicode="&#x114;" d="M385 774 q-60 0 -93.5 29.5 q-33.5 29.5 -33.5 78.5 q0 8 2 24 l52 0 q-1 -6 -1 -17 q0 -34 20 -54 q20 -20 57 -20 q38 0 64.5 23 q26.5 23 35.5 68 l52 0 q-11 -65 -52 -98.5 q-41 -33.5 -103 -33.5 ZM163 698 l418 0 l-9 -53 l-359 0 l-47 -273 l323 0 l-10 -53 l-323 0 l-52 -300 l370 0 l-9 -53 l-429 0 l127 732 Z" /><glyph glyph-name="Ecaron" unicode="&#x11a;" d="M315 906 l67 -95 l98 95 l63 0 l-140 -132 l-53 0 l-93 132 l58 0 ZM163 698 l418 0 l-9 -53 l-359 0 l-47 -273 l323 0 l-10 -53 l-323 0 l-52 -300 l370 0 l-9 -53 l-429 0 l127 732 Z" /><glyph glyph-name="Ecircumflex" unicode="Ê" d="M372 906 l53 0 l93 -132 l-60 0 l-65 95 l-99 -95 l-63 0 l141 132 ZM163 698 l418 0 l-9 -53 l-359 0 l-47 -273 l323 0 l-10 -53 l-323 0 l-52 -300 l370 0 l-9 -53 l-429 0 l127 732 Z" /><glyph glyph-name="uni1EBE" unicode="&#x1ebe;" d="M542 848 l-58 0 l100 78 l71 0 l-113 -78 ZM368 832 l54 0 l92 -78 l-64 0 l-60 51 l-90 -51 l-72 0 l140 78 ZM163 698 l418 0 l-9 -53 l-359 0 l-47 -273 l323 0 l-10 -53 l-323 0 l-52 -300 l370 0 l-9 -53 l-429 0 l127 732 Z" /><glyph glyph-name="uni1EC6" unicode="&#x1ec6;" d="M372 906 l53 0 l93 -132 l-60 0 l-65 95 l-99 -95 l-63 0 l141 132 ZM163 698 l418 0 l-9 -53 l-359 0 l-47 -273 l323 0 l-10 -53 l-323 0 l-52 -300 l370 0 l-9 -53 l-429 0 l127 732 ZM213 -205 q-17 0 -29 13 q-12 13 -12 30 q0 17 12 29.5 q12 12.5 29 12.5 q17 0 29.5 -12.5 q12.5 -12.5 12.5 -29.5 q0 -17 -12.5 -30 q-12.5 -13 -29.5 -13 Z" /><glyph glyph-name="uni1EC0" unicode="&#x1ec0;" d="M474 848 l-71 78 l60 0 l60 -78 l-49 0 ZM368 832 l54 0 l92 -78 l-64 0 l-60 51 l-90 -51 l-72 0 l140 78 ZM163 698 l418 0 l-9 -53 l-359 0 l-47 -273 l323 0 l-10 -53 l-323 0 l-52 -300 l370 0 l-9 -53 l-429 0 l127 732 Z" /><glyph glyph-name="uni1EC2" unicode="&#x1ec2;" d="M425 918 q33 9 71 9 q39 0 64 -11 q25 -11 25 -29 q0 -24 -28 -37 q-28 -13 -78 -21 l-21 23 q37 4 56 9.5 q19 5.5 23 15.5 q3 10 -9.5 15.5 q-12.5 5.5 -37.5 5.5 q-32 0 -60 -9 l-5 29 ZM368 832 l54 0 l92 -78 l-64 0 l-60 51 l-90 -51 l-72 0 l140 78 ZM163 698 l418 0 l-9 -53 l-359 0 l-47 -273 l323 0 l-10 -53 l-323 0 l-52 -300 l370 0 l-9 -53 l-429 0 l127 732 Z" /><glyph glyph-name="uni1EC4" unicode="&#x1ec4;" d="M254 856 q9 29 36.5 46 q27.5 17 68.5 17 q25 0 39.5 -5.5 q14.5 -5.5 29.5 -15.5 q12 -8 21 -12 q9 -4 23 -4 q19 0 34 7.5 q15 7.5 22 22.5 l47 0 q-9 -29 -36.5 -45.5 q-27.5 -16.5 -68.5 -16.5 q-25 0 -39.5 5.5 q-14.5 5.5 -29.5 15.5 q-12 8 -21 12 q-9 4 -23 4 q-40 0 -56 -31 l-47 0 ZM368 832 l54 0 l92 -78 l-64 0 l-60 51 l-90 -51 l-72 0 l140 78 ZM163 698 l418 0 l-9 -53 l-359 0 l-47 -273 l323 0 l-10 -53 l-323 0 l-52 -300 l370 0 l-9 -53 l-429 0 l127 732 Z" /><glyph glyph-name="Edieresis" unicode="Ë" d="M291 808 q-17 0 -29 12.5 q-12 12.5 -12 29.5 q0 18 12 30.5 q12 12.5 29 12.5 q17 0 29.5 -12.5 q12.5 -12.5 12.5 -30.5 q0 -17 -12 -29.5 q-12 -12.5 -30 -12.5 ZM488 808 q-17 0 -29.5 12.5 q-12.5 12.5 -12.5 29.5 q0 18 12 30.5 q12 12.5 29 12.5 q18 0 30.5 -12.5 q12.5 -12.5 12.5 -30.5 q0 -17 -12.5 -29.5 q-12.5 -12.5 -29.5 -12.5 ZM163 698 l418 0 l-9 -53 l-359 0 l-47 -273 l323 0 l-10 -53 l-323 0 l-52 -300 l370 0 l-9 -53 l-429 0 l127 732 Z" /><glyph glyph-name="Edotaccent" unicode="&#x116;" d="M390 808 q-17 0 -29.5 12.5 q-12.5 12.5 -12.5 29.5 q0 18 12 30.5 q12 12.5 29 12.5 q18 0 30 -12.5 q12 -12.5 12 -30.5 q0 -17 -12 -29.5 q-12 -12.5 -29 -12.5 ZM163 698 l418 0 l-9 -53 l-359 0 l-47 -273 l323 0 l-10 -53 l-323 0 l-52 -300 l370 0 l-9 -53 l-429 0 l127 732 Z" /><glyph glyph-name="uni1EB8" unicode="&#x1eb8;" d="M163 698 l418 0 l-9 -53 l-359 0 l-47 -273 l323 0 l-10 -53 l-323 0 l-52 -300 l370 0 l-9 -53 l-429 0 l127 732 ZM213 -205 q-17 0 -29 13 q-12 13 -12 30 q0 17 12 29.5 q12 12.5 29 12.5 q17 0 29.5 -12.5 q12.5 -12.5 12.5 -29.5 q0 -17 -12.5 -30 q-12.5 -13 -29.5 -13 Z" /><glyph glyph-name="Egrave" unicode="È" d="M346 774 l-72 132 l61 0 l60 -132 l-49 0 ZM163 698 l418 0 l-9 -53 l-359 0 l-47 -273 l323 0 l-10 -53 l-323 0 l-52 -300 l370 0 l-9 -53 l-429 0 l127 732 Z" /><glyph glyph-name="uni1EBA" unicode="&#x1eba;" d="M314 906 q34 16 71 16 q39 0 64 -19 q25 -19 25 -51 q0 -40 -28 -62 q-28 -22 -78 -36 l-22 32 q39 11 58.5 23.5 q19.5 12.5 19.5 37.5 q0 16 -12.5 26 q-12.5 10 -34.5 10 q-29 0 -59 -15 l-4 38 ZM163 698 l418 0 l-9 -53 l-359 0 l-47 -273 l323 0 l-10 -53 l-323 0 l-52 -300 l370 0 l-9 -53 l-429 0 l127 732 Z" /><glyph glyph-name="Emacron" unicode="&#x112;" d="M531 825 l-293 0 l10 51 l292 0 l-9 -51 ZM163 698 l418 0 l-9 -53 l-359 0 l-47 -273 l323 0 l-10 -53 l-323 0 l-52 -300 l370 0 l-9 -53 l-429 0 l127 732 Z" /><glyph glyph-name="Eogonek" unicode="&#x118;" d="M581 698 l-9 -53 l-359 0 l-47 -273 l323 0 l-10 -53 l-323 0 l-52 -300 l370 0 l-9 -53 q-71 -35 -104.5 -68.5 q-33.5 -33.5 -33.5 -80.5 q0 -26 16 -39.5 q16 -13.5 41 -13.5 q42 0 85 38 l21 -34 q-22 -22 -50 -35 q-28 -13 -59 -13 q-44 0 -74 24 q-30 24 -30 68 q0 92 108 154 l-349 0 l127 732 l418 0 Z" /><glyph glyph-name="uni1EBC" unicode="&#x1ebc;" d="M227 792 q9 48 37.5 77 q28.5 29 68.5 29 q25 0 40 -11 q15 -11 29 -30 q12 -15 21 -22 q9 -7 22 -7 q19 0 33.5 15 q14.5 15 21.5 44 l48 0 q-10 -49 -38 -77 q-28 -28 -69 -28 q-25 0 -39 10 q-14 10 -30 30 q-12 16 -20.5 23 q-8.5 7 -22.5 7 q-19 0 -33.5 -15.5 q-14.5 -15.5 -21.5 -44.5 l-47 0 ZM163 698 l418 0 l-9 -53 l-359 0 l-47 -273 l323 0 l-10 -53 l-323 0 l-52 -300 l370 0 l-9 -53 l-429 0 l127 732 Z" /><glyph glyph-name="F" unicode="F" d="M163 698 l418 0 l-9 -53 l-359 0 l-50 -288 l323 0 l-9 -53 l-323 0 l-59 -338 l-59 0 l127 732 Z" /><glyph glyph-name="G" unicode="G" d="M566 285 l-162 0 l10 53 l220 0 l-49 -279 q-35 -50 -96 -76.5 q-61 -26.5 -133 -26.5 q-89 0 -156 40.5 q-67 40.5 -103 113 q-36 72.5 -36 165.5 q0 39 8 89 q18 106 70.5 184 q52.5 78 128 119.5 q75.5 41.5 163.5 41.5 q91 0 154.5 -44.5 q63.5 -44.5 78.5 -115.5 l-50 -24 q-14 58 -63.5 93.5 q-49.5 35.5 -124.5 35.5 q-73 0 -134.5 -35.5 q-61.5 -35.5 -103.5 -102 q-42 -66.5 -58 -156.5 q-8 -46 -8 -84 q0 -78 28 -138 q28 -60 82 -93.5 q54 -33.5 129 -33.5 q50 0 94 16.5 q44 16.5 75 51.5 l36 206 Z" /><glyph glyph-name="Gbreve" unicode="&#x11e;" d="M445 775 q-60 0 -93.5 29.5 q-33.5 29.5 -33.5 78.5 q0 8 2 24 l52 0 q-1 -6 -1 -17 q0 -34 20 -54 q20 -20 57 -20 q38 0 64.5 23 q26.5 23 35.5 68 l52 0 q-11 -65 -52 -98.5 q-41 -33.5 -103 -33.5 ZM566 285 l-162 0 l10 53 l220 0 l-49 -279 q-35 -50 -96 -76.5 q-61 -26.5 -133 -26.5 q-89 0 -156 40.5 q-67 40.5 -103 113 q-36 72.5 -36 165.5 q0 39 8 89 q18 106 70.5 184 q52.5 78 128 119.5 q75.5 41.5 163.5 41.5 q91 0 154.5 -44.5 q63.5 -44.5 78.5 -115.5 l-50 -24 q-14 58 -63.5 93.5 q-49.5 35.5 -124.5 35.5 q-73 0 -134.5 -35.5 q-61.5 -35.5 -103.5 -102 q-42 -66.5 -58 -156.5 q-8 -46 -8 -84 q0 -78 28 -138 q28 -60 82 -93.5 q54 -33.5 129 -33.5 q50 0 94 16.5 q44 16.5 75 51.5 l36 206 Z" /><glyph glyph-name="Gcircumflex" unicode="&#x11c;" d="M432 907 l53 0 l93 -132 l-59 0 l-66 95 l-99 -95 l-62 0 l140 132 ZM566 285 l-162 0 l10 53 l220 0 l-49 -279 q-35 -50 -96 -76.5 q-61 -26.5 -133 -26.5 q-89 0 -156 40.5 q-67 40.5 -103 113 q-36 72.5 -36 165.5 q0 39 8 89 q18 106 70.5 184 q52.5 78 128 119.5 q75.5 41.5 163.5 41.5 q91 0 154.5 -44.5 q63.5 -44.5 78.5 -115.5 l-50 -24 q-14 58 -63.5 93.5 q-49.5 35.5 -124.5 35.5 q-73 0 -134.5 -35.5 q-61.5 -35.5 -103.5 -102 q-42 -66.5 -58 -156.5 q-8 -46 -8 -84 q0 -78 28 -138 q28 -60 82 -93.5 q54 -33.5 129 -33.5 q50 0 94 16.5 q44 16.5 75 51.5 l36 206 Z" /><glyph glyph-name="uni0122" unicode="&#x122;" d="M404 285 l10 53 l220 0 l-49 -279 q-35 -50 -96 -76.5 q-61 -26.5 -133 -26.5 q-89 0 -156 40.5 q-67 40.5 -103 113 q-36 72.5 -36 165.5 q0 39 8 89 q18 106 70.5 184 q52.5 78 128 119.5 q75.5 41.5 163.5 41.5 q91 0 154.5 -44.5 q63.5 -44.5 78.5 -115.5 l-50 -24 q-14 58 -63.5 93.5 q-49.5 35.5 -124.5 35.5 q-73 0 -134.5 -35.5 q-61.5 -35.5 -103.5 -102 q-42 -66.5 -58 -156.5 q-8 -46 -8 -84 q0 -78 28 -138 q28 -60 82 -93.5 q54 -33.5 129 -33.5 q50 0 94 16.5 q44 16.5 75 51.5 l36 206 l-162 0 ZM326 -94 q18 0 28.5 -11.5 q10.5 -11.5 10.5 -35.5 q0 -11 -1 -17 q-8 -43 -37.5 -72 q-29.5 -29 -76.5 -38 l1 31 q60 18 73 65 l-4 0 q-16 0 -25 9.5 q-9 9.5 -9 24.5 q0 19 11.5 31.5 q11.5 12.5 28.5 12.5 Z" /><glyph glyph-name="Gdotaccent" unicode="&#x120;" d="M450 809 q-17 0 -29.5 12.5 q-12.5 12.5 -12.5 29.5 q0 18 12 30.5 q12 12.5 29 12.5 q18 0 30 -12.5 q12 -12.5 12 -30.5 q0 -17 -12 -29.5 q-12 -12.5 -29 -12.5 ZM566 285 l-162 0 l10 53 l220 0 l-49 -279 q-35 -50 -96 -76.5 q-61 -26.5 -133 -26.5 q-89 0 -156 40.5 q-67 40.5 -103 113 q-36 72.5 -36 165.5 q0 39 8 89 q18 106 70.5 184 q52.5 78 128 119.5 q75.5 41.5 163.5 41.5 q91 0 154.5 -44.5 q63.5 -44.5 78.5 -115.5 l-50 -24 q-14 58 -63.5 93.5 q-49.5 35.5 -124.5 35.5 q-73 0 -134.5 -35.5 q-61.5 -35.5 -103.5 -102 q-42 -66.5 -58 -156.5 q-8 -46 -8 -84 q0 -78 28 -138 q28 -60 82 -93.5 q54 -33.5 129 -33.5 q50 0 94 16.5 q44 16.5 75 51.5 l36 206 Z" /><glyph glyph-name="H" unicode="H" d="M166 373 l418 0 l57 325 l59 0 l-128 -732 l-59 0 l62 354 l-419 0 l-61 -354 l-59 0 l127 732 l60 0 l-57 -325 Z" /><glyph glyph-name="Hbar" unicode="&#x126;" d="M720 698 l-24 -138 l69 0 l-9 -48 l-69 0 l-96 -546 l-60 0 l62 354 l-422 0 l-63 -354 l-59 0 l96 546 l-69 0 l9 48 l69 0 l24 138 l59 0 l-24 -138 l423 0 l24 138 l60 0 ZM204 512 l-24 -139 l423 0 l24 139 l-423 0 Z" /><glyph glyph-name="Hcircumflex" unicode="&#x124;" d="M441 906 l53 0 l93 -132 l-59 0 l-66 95 l-99 -95 l-62 0 l140 132 ZM166 373 l418 0 l57 325 l59 0 l-128 -732 l-59 0 l62 354 l-419 0 l-61 -354 l-59 0 l127 732 l60 0 l-57 -325 Z" /><glyph glyph-name="I" unicode="I" d="M95 -34 l-59 0 l127 732 l60 0 l-128 -732 Z" /><glyph glyph-name="IJ" unicode="&#x132;" d="M95 -34 l-59 0 l127 732 l60 0 l-128 -732 ZM368 -44 q-67 0 -105.5 35 q-38.5 35 -46.5 100 l51 23 q7 -51 32 -77 q25 -26 73 -26 q53 0 87.5 35.5 q34.5 35.5 48.5 114.5 l94 537 l60 0 l-96 -542 q-19 -107 -71.5 -153.5 q-52.5 -46.5 -126.5 -46.5 Z" /><glyph glyph-name="Iacute" unicode="Í" d="M238 774 l-52 0 l106 132 l66 0 l-120 -132 ZM95 -34 l-59 0 l127 732 l60 0 l-128 -732 Z" /><glyph glyph-name="Ibreve" unicode="&#x12c;" d="M216 774 q-60 0 -93.5 29.5 q-33.5 29.5 -33.5 77.5 q0 9 2 25 l52 0 q-1 -6 -1 -17 q0 -34 20 -54 q20 -20 57 -20 q38 0 64.5 23 q26.5 23 35.5 68 l52 0 q-11 -65 -52 -98.5 q-41 -33.5 -103 -33.5 ZM95 -34 l-59 0 l127 732 l60 0 l-128 -732 Z" /><glyph glyph-name="uni01CF" unicode="&#x1cf;" d="M146 906 l67 -95 l98 95 l63 0 l-140 -132 l-54 0 l-92 132 l58 0 ZM95 -34 l-59 0 l127 732 l60 0 l-128 -732 Z" /><glyph glyph-name="Icircumflex" unicode="Î" d="M203 906 l53 0 l93 -132 l-60 0 l-65 95 l-99 -95 l-63 0 l141 132 ZM95 -34 l-59 0 l127 732 l60 0 l-128 -732 Z" /><glyph glyph-name="Idieresis" unicode="Ï" d="M122 808 q-17 0 -29 12.5 q-12 12.5 -12 29.5 q0 18 12 30.5 q12 12.5 29 12.5 q17 0 29.5 -12.5 q12.5 -12.5 12.5 -30.5 q0 -17 -12 -29.5 q-12 -12.5 -30 -12.5 ZM319 808 q-17 0 -29.5 12.5 q-12.5 12.5 -12.5 29.5 q0 18 12 30.5 q12 12.5 29 12.5 q18 0 30 -12.5 q12 -12.5 12 -30.5 q0 -17 -12 -29.5 q-12 -12.5 -29 -12.5 ZM95 -34 l-59 0 l127 732 l60 0 l-128 -732 Z" /><glyph glyph-name="Idotaccent" unicode="&#x130;" d="M221 808 q-17 0 -29.5 12.5 q-12.5 12.5 -12.5 29.5 q0 18 12 30.5 q12 12.5 29 12.5 q18 0 30 -12.5 q12 -12.5 12 -30.5 q0 -17 -12 -29.5 q-12 -12.5 -29 -12.5 ZM95 -34 l-59 0 l127 732 l60 0 l-128 -732 Z" /><glyph glyph-name="uni1ECA" unicode="&#x1eca;" d="M95 -34 l-59 0 l127 732 l60 0 l-128 -732 ZM44 -205 q-17 0 -29.5 13 q-12.5 13 -12.5 30 q0 17 12.5 29.5 q12.5 12.5 29.5 12.5 q17 0 29 -12.5 q12 -12.5 12 -29.5 q0 -17 -12.5 -30 q-12.5 -13 -28.5 -13 Z" /><glyph glyph-name="Igrave" unicode="Ì" d="M177 774 l-72 132 l61 0 l59 -132 l-48 0 ZM95 -34 l-59 0 l127 732 l60 0 l-128 -732 Z" /><glyph glyph-name="uni1EC8" unicode="&#x1ec8;" d="M144 906 q35 16 72 16 q39 0 63.5 -18.5 q24.5 -18.5 24.5 -50.5 q0 -40 -27.5 -62.5 q-27.5 -22.5 -77.5 -36.5 l-23 32 q40 10 59.5 23 q19.5 13 19.5 38 q0 16 -13 26 q-13 10 -34 10 q-29 0 -59 -15 l-5 38 ZM95 -34 l-59 0 l127 732 l60 0 l-128 -732 Z" /><glyph glyph-name="Imacron" unicode="&#x12a;" d="M362 825 l-293 0 l9 51 l293 0 l-9 -51 ZM95 -34 l-59 0 l127 732 l60 0 l-128 -732 Z" /><glyph glyph-name="Iogonek" unicode="&#x12e;" d="M14 -236 q42 0 85 38 l21 -34 q-22 -22 -50 -35 q-28 -13 -59 -13 q-44 0 -74 24 q-30 24 -30 68 q0 56 35.5 95.5 q35.5 39.5 95.5 71.5 l125 719 l60 0 l-128 -732 q-71 -35 -104.5 -68.5 q-33.5 -33.5 -33.5 -80.5 q0 -26 16 -39.5 q16 -13.5 41 -13.5 Z" /><glyph glyph-name="Itilde" unicode="&#x128;" d="M58 792 q9 49 37 77.5 q28 28.5 69 28.5 q25 0 40 -11 q15 -11 29 -30 q12 -15 21 -22 q9 -7 22 -7 q19 0 33.5 15 q14.5 15 21.5 44 l48 0 q-10 -49 -38 -77 q-28 -28 -69 -28 q-25 0 -39 10 q-14 10 -30 30 q-12 16 -20.5 23 q-8.5 7 -22.5 7 q-19 0 -33.5 -15.5 q-14.5 -15.5 -21.5 -44.5 l-47 0 ZM95 -34 l-59 0 l127 732 l60 0 l-128 -732 Z" /><glyph glyph-name="J" unicode="J" d="M131 -44 q-67 0 -105.5 35 q-38.5 35 -46.5 100 l50 23 q8 -51 33 -77 q25 -26 72 -26 q111 0 137 150 l94 537 l60 0 l-96 -542 q-19 -107 -71.5 -153.5 q-52.5 -46.5 -126.5 -46.5 Z" /><glyph glyph-name="Jcircumflex" unicode="&#x134;" d="M404 907 l53 0 l93 -133 l-59 0 l-66 96 l-99 -96 l-62 0 l140 133 ZM131 -44 q-67 0 -105.5 35 q-38.5 35 -46.5 100 l50 23 q8 -51 33 -77 q25 -26 72 -26 q111 0 137 150 l94 537 l60 0 l-96 -542 q-19 -107 -71.5 -153.5 q-52.5 -46.5 -126.5 -46.5 Z" /><glyph glyph-name="K" unicode="K" d="M154 308 l452 390 l83 0 l-356 -304 l247 -428 l-74 0 l-219 388 l-147 -124 l-46 -264 l-60 0 l129 732 l60 0 l-69 -390 Z" /><glyph glyph-name="uni0136" unicode="&#x136;" d="M606 698 l83 0 l-356 -304 l247 -428 l-74 0 l-219 388 l-147 -124 l-46 -264 l-60 0 l129 732 l60 0 l-69 -390 l452 390 ZM283 -94 q17 0 28 -11 q11 -11 11 -34 q0 -5 -2 -19 q-8 -43 -37 -72 q-29 -29 -77 -38 l2 31 q60 18 73 65 l-4 0 q-17 0 -25.5 9.5 q-8.5 9.5 -8.5 24.5 q0 18 11.5 31 q11.5 13 28.5 13 Z" /><glyph glyph-name="L" unicode="L" d="M164 698 l60 0 l-121 -678 l365 0 l-11 -54 l-423 0 l130 732 Z" /><glyph glyph-name="Lacute" unicode="&#x139;" d="M239 775 l-52 0 l106 132 l66 0 l-120 -132 ZM164 698 l60 0 l-121 -678 l365 0 l-11 -54 l-423 0 l130 732 Z" /><glyph glyph-name="Lcaron" unicode="&#x13d;" d="M465 644 q-7 -42 -36.5 -71.5 q-29.5 -29.5 -77.5 -38.5 l2 31 q58 17 74 65 l-5 0 q-16 0 -25 10 q-9 10 -9 25 q0 18 11.5 31 q11.5 13 29.5 13 q16 0 27 -11.5 q11 -11.5 11 -34.5 q0 -5 -2 -19 ZM224 698 l-121 -678 l365 0 l-11 -54 l-423 0 l130 732 l60 0 Z" /><glyph glyph-name="uni013B" unicode="&#x13b;" d="M224 698 l-121 -678 l365 0 l-11 -54 l-423 0 l130 732 l60 0 ZM239 -94 q18 0 28.5 -11 q10.5 -11 10.5 -35 q0 -11 -1 -18 q-8 -43 -37.5 -72 q-29.5 -29 -76.5 -38 l2 31 q61 18 73 65 l-5 0 q-15 0 -24 9 q-9 9 -9 24 q0 19 11.5 32 q11.5 13 27.5 13 Z" /><glyph glyph-name="Ldot" unicode="&#x13f;" d="M164 698 l60 0 l-121 -678 l365 0 l-11 -54 l-423 0 l130 732 ZM338 306 q-17 0 -29 12.5 q-12 12.5 -12 29.5 q0 18 12 30.5 q12 12.5 29 12.5 q18 0 30 -12.5 q12 -12.5 12 -30.5 q0 -17 -12 -29.5 q-12 -12.5 -30 -12.5 Z" /><glyph glyph-name="Lslash" unicode="&#x141;" d="M345 390 l-158 -76 l-53 -294 l364 0 l-10 -54 l-423 0 l56 317 l-104 -50 l9 57 l106 50 l63 358 l60 0 l-59 -327 l160 76 l-11 -57 Z" /><glyph glyph-name="M" unicode="M" d="M773 698 l49 0 l-128 -732 l-57 0 l106 610 l-319 -399 l-36 0 l-187 412 l-109 -623 l-56 0 l127 732 l52 0 l202 -448 l356 448 Z" /><glyph glyph-name="uni1E3E" unicode="&#x1e3e;" d="M538 774 l-52 0 l106 133 l65 0 l-119 -133 ZM773 698 l49 0 l-128 -732 l-57 0 l106 610 l-319 -399 l-36 0 l-187 412 l-109 -623 l-56 0 l127 732 l52 0 l202 -448 l356 448 Z" /><glyph glyph-name="N" unicode="N" d="M213 698 l319 -630 l109 630 l55 0 l-127 -732 l-49 0 l-318 631 l-111 -631 l-55 0 l127 732 l50 0 Z" /><glyph glyph-name="Nacute" unicode="&#x143;" d="M475 774 l-52 0 l106 133 l65 0 l-119 -133 ZM213 698 l319 -630 l109 630 l55 0 l-127 -732 l-49 0 l-318 631 l-111 -631 l-55 0 l127 732 l50 0 Z" /><glyph glyph-name="Ncaron" unicode="&#x147;" d="M383 907 l66 -96 l99 96 l63 0 l-141 -133 l-53 0 l-93 133 l59 0 ZM213 698 l319 -630 l109 630 l55 0 l-127 -732 l-49 0 l-318 631 l-111 -631 l-55 0 l127 732 l50 0 Z" /><glyph glyph-name="uni0145" unicode="&#x145;" d="M532 68 l109 630 l55 0 l-127 -732 l-49 0 l-318 631 l-111 -631 l-55 0 l127 732 l50 0 l319 -630 ZM285 -94 q18 0 28.5 -11.5 q10.5 -11.5 10.5 -35.5 q0 -11 -1 -17 q-8 -43 -37.5 -72 q-29.5 -29 -76.5 -38 l1 31 q60 17 74 65 l-5 0 q-16 0 -25 9.5 q-9 9.5 -9 24.5 q0 19 11.5 31.5 q11.5 12.5 28.5 12.5 Z" /><glyph glyph-name="Eng" unicode="&#x14a;" d="M554 -119 q-15 -89 -53 -125.5 q-38 -36.5 -93 -36.5 q-54 0 -82 26 l29 45 q17 -18 52 -18 q34 0 58.5 24.5 q24.5 24.5 35.5 91.5 l15 87 l-314 622 l-111 -631 l-55 0 l127 732 l50 0 l319 -630 l109 630 l55 0 l-142 -817 Z" /><glyph glyph-name="Ntilde" unicode="Ñ" d="M294 793 q10 48 38.5 77 q28.5 29 68.5 29 q25 0 39 -10.5 q14 -10.5 30 -30.5 q12 -16 20.5 -23 q8.5 -7 22.5 -7 q18 0 33 15 q15 15 22 44 l47 0 q-9 -49 -37 -77 q-28 -28 -69 -28 q-25 0 -40 11 q-15 11 -29 30 q-12 15 -21 22 q-9 7 -22 7 q-19 0 -33.5 -15 q-14.5 -15 -21.5 -44 l-48 0 ZM213 698 l319 -630 l109 630 l55 0 l-127 -732 l-49 0 l-318 631 l-111 -631 l-55 0 l127 732 l50 0 Z" /><glyph glyph-name="O" unicode="O" d="M68 359 q19 108 71 187 q52 79 126.5 121 q74.5 42 159.5 42 q83 0 146 -41 q63 -41 96.5 -113 q33.5 -72 33.5 -164 q0 -39 -8 -89 q-19 -107 -71 -185 q-52 -78 -126 -119.5 q-74 -41.5 -158 -41.5 q-84 0 -147 40 q-63 40 -97 111.5 q-34 71.5 -34 163.5 q0 40 8 88 ZM129 354 q-7 -41 -7 -83 q0 -116 58 -188 q58 -72 161 -72 q71 0 131 35.5 q60 35.5 102 103.5 q42 68 58 160 q7 41 7 83 q0 76 -25.5 135.5 q-25.5 59.5 -74.5 93 q-49 33.5 -117 33.5 q-71 0 -131.5 -36 q-60.5 -36 -103 -104.5 q-42.5 -68.5 -58.5 -160.5 Z" /><glyph glyph-name="Oacute" unicode="Ó" d="M489 774 l-52 0 l106 132 l65 0 l-119 -132 ZM68 359 q19 108 71 187 q52 79 126.5 121 q74.5 42 159.5 42 q83 0 146 -41 q63 -41 96.5 -113 q33.5 -72 33.5 -164 q0 -39 -8 -89 q-19 -107 -71 -185 q-52 -78 -126 -119.5 q-74 -41.5 -158 -41.5 q-84 0 -147 40 q-63 40 -97 111.5 q-34 71.5 -34 163.5 q0 40 8 88 ZM129 354 q-7 -41 -7 -83 q0 -116 58 -188 q58 -72 161 -72 q71 0 131 35.5 q60 35.5 102 103.5 q42 68 58 160 q7 41 7 83 q0 76 -25.5 135.5 q-25.5 59.5 -74.5 93 q-49 33.5 -117 33.5 q-71 0 -131.5 -36 q-60.5 -36 -103 -104.5 q-42.5 -68.5 -58.5 -160.5 Z" /><glyph glyph-name="Obreve" unicode="&#x14e;" d="M466 774 q-60 0 -93.5 29.5 q-33.5 29.5 -33.5 78.5 q0 8 2 24 l52 0 q-1 -6 -1 -17 q0 -34 20 -54 q20 -20 57 -20 q38 0 64.5 23 q26.5 23 35.5 68 l52 0 q-11 -65 -52 -98.5 q-41 -33.5 -103 -33.5 ZM68 359 q19 108 71 187 q52 79 126.5 121 q74.5 42 159.5 42 q83 0 146 -41 q63 -41 96.5 -113 q33.5 -72 33.5 -164 q0 -39 -8 -89 q-19 -107 -71 -185 q-52 -78 -126 -119.5 q-74 -41.5 -158 -41.5 q-84 0 -147 40 q-63 40 -97 111.5 q-34 71.5 -34 163.5 q0 40 8 88 ZM129 354 q-7 -41 -7 -83 q0 -116 58 -188 q58 -72 161 -72 q71 0 131 35.5 q60 35.5 102 103.5 q42 68 58 160 q7 41 7 83 q0 76 -25.5 135.5 q-25.5 59.5 -74.5 93 q-49 33.5 -117 33.5 q-71 0 -131.5 -36 q-60.5 -36 -103 -104.5 q-42.5 -68.5 -58.5 -160.5 Z" /><glyph glyph-name="uni01D1" unicode="&#x1d1;" d="M397 906 l66 -95 l98 95 l63 0 l-140 -132 l-53 0 l-93 132 l59 0 ZM68 359 q19 108 71 187 q52 79 126.5 121 q74.5 42 159.5 42 q83 0 146 -41 q63 -41 96.5 -113 q33.5 -72 33.5 -164 q0 -39 -8 -89 q-19 -107 -71 -185 q-52 -78 -126 -119.5 q-74 -41.5 -158 -41.5 q-84 0 -147 40 q-63 40 -97 111.5 q-34 71.5 -34 163.5 q0 40 8 88 ZM129 354 q-7 -41 -7 -83 q0 -116 58 -188 q58 -72 161 -72 q71 0 131 35.5 q60 35.5 102 103.5 q42 68 58 160 q7 41 7 83 q0 76 -25.5 135.5 q-25.5 59.5 -74.5 93 q-49 33.5 -117 33.5 q-71 0 -131.5 -36 q-60.5 -36 -103 -104.5 q-42.5 -68.5 -58.5 -160.5 Z" /><glyph glyph-name="Ocircumflex" unicode="Ô" d="M453 906 l53 0 l93 -132 l-59 0 l-66 95 l-99 -95 l-62 0 l140 132 ZM68 359 q19 108 71 187 q52 79 126.5 121 q74.5 42 159.5 42 q83 0 146 -41 q63 -41 96.5 -113 q33.5 -72 33.5 -164 q0 -39 -8 -89 q-19 -107 -71 -185 q-52 -78 -126 -119.5 q-74 -41.5 -158 -41.5 q-84 0 -147 40 q-63 40 -97 111.5 q-34 71.5 -34 163.5 q0 40 8 88 ZM129 354 q-7 -41 -7 -83 q0 -116 58 -188 q58 -72 161 -72 q71 0 131 35.5 q60 35.5 102 103.5 q42 68 58 160 q7 41 7 83 q0 76 -25.5 135.5 q-25.5 59.5 -74.5 93 q-49 33.5 -117 33.5 q-71 0 -131.5 -36 q-60.5 -36 -103 -104.5 q-42.5 -68.5 -58.5 -160.5 Z" /><glyph glyph-name="uni1ED0" unicode="&#x1ed0;" d="M623 848 l-58 0 l100 78 l71 0 l-113 -78 ZM449 832 l54 0 l92 -78 l-64 0 l-60 51 l-90 -51 l-72 0 l140 78 ZM68 359 q19 108 71 187 q52 79 126.5 121 q74.5 42 159.5 42 q83 0 146 -41 q63 -41 96.5 -113 q33.5 -72 33.5 -164 q0 -39 -8 -89 q-19 -107 -71 -185 q-52 -78 -126 -119.5 q-74 -41.5 -158 -41.5 q-84 0 -147 40 q-63 40 -97 111.5 q-34 71.5 -34 163.5 q0 40 8 88 ZM129 354 q-7 -41 -7 -83 q0 -116 58 -188 q58 -72 161 -72 q71 0 131 35.5 q60 35.5 102 103.5 q42 68 58 160 q7 41 7 83 q0 76 -25.5 135.5 q-25.5 59.5 -74.5 93 q-49 33.5 -117 33.5 q-71 0 -131.5 -36 q-60.5 -36 -103 -104.5 q-42.5 -68.5 -58.5 -160.5 Z" /><glyph glyph-name="uni1ED8" unicode="&#x1ed8;" d="M453 906 l53 0 l93 -132 l-59 0 l-66 95 l-99 -95 l-62 0 l140 132 ZM68 359 q19 108 71 187 q52 79 126.5 121 q74.5 42 159.5 42 q83 0 146 -41 q63 -41 96.5 -113 q33.5 -72 33.5 -164 q0 -39 -8 -89 q-19 -107 -71 -185 q-52 -78 -126 -119.5 q-74 -41.5 -158 -41.5 q-84 0 -147 40 q-63 40 -97 111.5 q-34 71.5 -34 163.5 q0 40 8 88 ZM129 354 q-7 -41 -7 -83 q0 -116 58 -188 q58 -72 161 -72 q71 0 131 35.5 q60 35.5 102 103.5 q42 68 58 160 q7 41 7 83 q0 76 -25.5 135.5 q-25.5 59.5 -74.5 93 q-49 33.5 -117 33.5 q-71 0 -131.5 -36 q-60.5 -36 -103 -104.5 q-42.5 -68.5 -58.5 -160.5 ZM294 -205 q-17 0 -29.5 13 q-12.5 13 -12.5 30 q0 17 12.5 29.5 q12.5 12.5 29.5 12.5 q17 0 29 -12.5 q12 -12.5 12 -29.5 q0 -17 -12.5 -30 q-12.5 -13 -28.5 -13 Z" /><glyph glyph-name="uni1ED2" unicode="&#x1ed2;" d="M555 848 l-71 78 l60 0 l60 -78 l-49 0 ZM449 832 l54 0 l92 -78 l-64 0 l-60 51 l-90 -51 l-72 0 l140 78 ZM68 359 q19 108 71 187 q52 79 126.5 121 q74.5 42 159.5 42 q83 0 146 -41 q63 -41 96.5 -113 q33.5 -72 33.5 -164 q0 -39 -8 -89 q-19 -107 -71 -185 q-52 -78 -126 -119.5 q-74 -41.5 -158 -41.5 q-84 0 -147 40 q-63 40 -97 111.5 q-34 71.5 -34 163.5 q0 40 8 88 ZM129 354 q-7 -41 -7 -83 q0 -116 58 -188 q58 -72 161 -72 q71 0 131 35.5 q60 35.5 102 103.5 q42 68 58 160 q7 41 7 83 q0 76 -25.5 135.5 q-25.5 59.5 -74.5 93 q-49 33.5 -117 33.5 q-71 0 -131.5 -36 q-60.5 -36 -103 -104.5 q-42.5 -68.5 -58.5 -160.5 Z" /><glyph glyph-name="uni1ED4" unicode="&#x1ed4;" d="M506 918 q33 9 72 9 q38 0 63 -11 q25 -11 25 -29 q0 -24 -28 -37 q-28 -13 -78 -21 l-21 23 q40 4 60 10.5 q20 6.5 20 18.5 q0 8 -12.5 12.5 q-12.5 4.5 -35.5 4.5 q-32 0 -60 -9 l-5 29 ZM449 832 l54 0 l92 -78 l-64 0 l-60 51 l-90 -51 l-72 0 l140 78 ZM68 359 q19 108 71 187 q52 79 126.5 121 q74.5 42 159.5 42 q83 0 146 -41 q63 -41 96.5 -113 q33.5 -72 33.5 -164 q0 -39 -8 -89 q-19 -107 -71 -185 q-52 -78 -126 -119.5 q-74 -41.5 -158 -41.5 q-84 0 -147 40 q-63 40 -97 111.5 q-34 71.5 -34 163.5 q0 40 8 88 ZM129 354 q-7 -41 -7 -83 q0 -116 58 -188 q58 -72 161 -72 q71 0 131 35.5 q60 35.5 102 103.5 q42 68 58 160 q7 41 7 83 q0 76 -25.5 135.5 q-25.5 59.5 -74.5 93 q-49 33.5 -117 33.5 q-71 0 -131.5 -36 q-60.5 -36 -103 -104.5 q-42.5 -68.5 -58.5 -160.5 Z" /><glyph glyph-name="uni1ED6" unicode="&#x1ed6;" d="M335 856 q10 29 37.5 46 q27.5 17 67.5 17 q25 0 39.5 -5.5 q14.5 -5.5 29.5 -15.5 q12 -8 21 -12 q9 -4 23 -4 q19 0 34 7.5 q15 7.5 22 22.5 l47 0 q-9 -29 -36.5 -45.5 q-27.5 -16.5 -68.5 -16.5 q-25 0 -39.5 5.5 q-14.5 5.5 -29.5 15.5 q-12 8 -21.5 12 q-9.5 4 -22.5 4 q-19 0 -33.5 -8 q-14.5 -8 -21.5 -23 l-48 0 ZM449 832 l54 0 l92 -78 l-64 0 l-60 51 l-90 -51 l-72 0 l140 78 ZM68 359 q19 108 71 187 q52 79 126.5 121 q74.5 42 159.5 42 q83 0 146 -41 q63 -41 96.5 -113 q33.5 -72 33.5 -164 q0 -39 -8 -89 q-19 -107 -71 -185 q-52 -78 -126 -119.5 q-74 -41.5 -158 -41.5 q-84 0 -147 40 q-63 40 -97 111.5 q-34 71.5 -34 163.5 q0 40 8 88 ZM129 354 q-7 -41 -7 -83 q0 -116 58 -188 q58 -72 161 -72 q71 0 131 35.5 q60 35.5 102 103.5 q42 68 58 160 q7 41 7 83 q0 76 -25.5 135.5 q-25.5 59.5 -74.5 93 q-49 33.5 -117 33.5 q-71 0 -131.5 -36 q-60.5 -36 -103 -104.5 q-42.5 -68.5 -58.5 -160.5 Z" /><glyph glyph-name="Odieresis" unicode="Ö" d="M372 808 q-17 0 -29 12.5 q-12 12.5 -12 29.5 q0 18 12 30.5 q12 12.5 29 12.5 q18 0 30 -12.5 q12 -12.5 12 -30.5 q0 -17 -12 -29.5 q-12 -12.5 -30 -12.5 ZM569 808 q-17 0 -29.5 12.5 q-12.5 12.5 -12.5 29.5 q0 18 12.5 30.5 q12.5 12.5 29.5 12.5 q17 0 29.5 -12.5 q12.5 -12.5 12.5 -30.5 q0 -17 -12.5 -29.5 q-12.5 -12.5 -29.5 -12.5 ZM68 359 q19 108 71 187 q52 79 126.5 121 q74.5 42 159.5 42 q83 0 146 -41 q63 -41 96.5 -113 q33.5 -72 33.5 -164 q0 -39 -8 -89 q-19 -107 -71 -185 q-52 -78 -126 -119.5 q-74 -41.5 -158 -41.5 q-84 0 -147 40 q-63 40 -97 111.5 q-34 71.5 -34 163.5 q0 40 8 88 ZM129 354 q-7 -41 -7 -83 q0 -116 58 -188 q58 -72 161 -72 q71 0 131 35.5 q60 35.5 102 103.5 q42 68 58 160 q7 41 7 83 q0 76 -25.5 135.5 q-25.5 59.5 -74.5 93 q-49 33.5 -117 33.5 q-71 0 -131.5 -36 q-60.5 -36 -103 -104.5 q-42.5 -68.5 -58.5 -160.5 Z" /><glyph glyph-name="uni1ECC" unicode="&#x1ecc;" d="M68 359 q19 108 71 187 q52 79 126.5 121 q74.5 42 159.5 42 q83 0 146 -41 q63 -41 96.5 -113 q33.5 -72 33.5 -164 q0 -39 -8 -89 q-19 -107 -71 -185 q-52 -78 -126 -119.5 q-74 -41.5 -158 -41.5 q-84 0 -147 40 q-63 40 -97 111.5 q-34 71.5 -34 163.5 q0 40 8 88 ZM129 354 q-7 -41 -7 -83 q0 -116 58 -188 q58 -72 161 -72 q71 0 131 35.5 q60 35.5 102 103.5 q42 68 58 160 q7 41 7 83 q0 76 -25.5 135.5 q-25.5 59.5 -74.5 93 q-49 33.5 -117 33.5 q-71 0 -131.5 -36 q-60.5 -36 -103 -104.5 q-42.5 -68.5 -58.5 -160.5 ZM294 -205 q-17 0 -29.5 13 q-12.5 13 -12.5 30 q0 17 12.5 29.5 q12.5 12.5 29.5 12.5 q17 0 29 -12.5 q12 -12.5 12 -29.5 q0 -17 -12.5 -30 q-12.5 -13 -28.5 -13 Z" /><glyph glyph-name="Ograve" unicode="Ò" d="M427 774 l-72 132 l61 0 l60 -132 l-49 0 ZM68 359 q19 108 71 187 q52 79 126.5 121 q74.5 42 159.5 42 q83 0 146 -41 q63 -41 96.5 -113 q33.5 -72 33.5 -164 q0 -39 -8 -89 q-19 -107 -71 -185 q-52 -78 -126 -119.5 q-74 -41.5 -158 -41.5 q-84 0 -147 40 q-63 40 -97 111.5 q-34 71.5 -34 163.5 q0 40 8 88 ZM129 354 q-7 -41 -7 -83 q0 -116 58 -188 q58 -72 161 -72 q71 0 131 35.5 q60 35.5 102 103.5 q42 68 58 160 q7 41 7 83 q0 76 -25.5 135.5 q-25.5 59.5 -74.5 93 q-49 33.5 -117 33.5 q-71 0 -131.5 -36 q-60.5 -36 -103 -104.5 q-42.5 -68.5 -58.5 -160.5 Z" /><glyph glyph-name="uni1ECE" unicode="&#x1ece;" d="M395 906 q34 16 71 16 q39 0 64 -19 q25 -19 25 -51 q0 -40 -27.5 -62 q-27.5 -22 -78.5 -36 l-22 32 q39 10 58.5 23 q19.5 13 19.5 38 q0 16 -12.5 26 q-12.5 10 -34.5 10 q-29 0 -59 -15 l-4 38 ZM68 359 q19 108 71 187 q52 79 126.5 121 q74.5 42 159.5 42 q83 0 146 -41 q63 -41 96.5 -113 q33.5 -72 33.5 -164 q0 -39 -8 -89 q-19 -107 -71 -185 q-52 -78 -126 -119.5 q-74 -41.5 -158 -41.5 q-84 0 -147 40 q-63 40 -97 111.5 q-34 71.5 -34 163.5 q0 40 8 88 ZM129 354 q-7 -41 -7 -83 q0 -116 58 -188 q58 -72 161 -72 q71 0 131 35.5 q60 35.5 102 103.5 q42 68 58 160 q7 41 7 83 q0 76 -25.5 135.5 q-25.5 59.5 -74.5 93 q-49 33.5 -117 33.5 q-71 0 -131.5 -36 q-60.5 -36 -103 -104.5 q-42.5 -68.5 -58.5 -160.5 Z" /><glyph glyph-name="Ohorn" unicode="&#x1a0;" d="M770 824 q3 -63 -9 -99.5 q-12 -36.5 -43.5 -53 q-31.5 -16.5 -90.5 -16.5 q-20 0 -52 2 q60 -39 93 -108.5 q33 -69.5 33 -158.5 q0 -38 -8 -88 q-19 -107 -71 -185 q-52 -78 -126 -119.5 q-74 -41.5 -158 -41.5 q-84 0 -147 40 q-63 40 -97 111.5 q-34 71.5 -34 163.5 q0 40 8 88 q19 108 72 187 q53 79 130 121 q77 42 169 42 q32 0 80 -5 q78 -5 97 -5 q45 0 68.5 12.5 q23.5 12.5 31 39.5 q7.5 27 4.5 73 l50 0 ZM632 310 q7 41 7 83 q0 76 -25.5 135.5 q-25.5 59.5 -74.5 93 q-49 33.5 -117 33.5 q-71 0 -131.5 -36 q-60.5 -36 -103 -104.5 q-42.5 -68.5 -58.5 -160.5 q-7 -41 -7 -83 q0 -116 58 -188 q58 -72 161 -72 q71 0 131 35.5 q60 35.5 102 103.5 q42 68 58 160 Z" /><glyph glyph-name="uni1EDA" unicode="&#x1eda;" d="M544 906 l65 0 l-119 -132 l-52 0 l106 132 ZM770 824 q3 -63 -9 -99.5 q-12 -36.5 -43.5 -53 q-31.5 -16.5 -90.5 -16.5 q-20 0 -52 2 q60 -39 93 -108.5 q33 -69.5 33 -158.5 q0 -38 -8 -88 q-19 -107 -71 -185 q-52 -78 -126 -119.5 q-74 -41.5 -158 -41.5 q-84 0 -147 40 q-63 40 -97 111.5 q-34 71.5 -34 163.5 q0 40 8 88 q19 108 72 187 q53 79 130 121 q77 42 169 42 q32 0 80 -5 q78 -5 97 -5 q45 0 68.5 12.5 q23.5 12.5 31 39.5 q7.5 27 4.5 73 l50 0 ZM632 310 q7 41 7 83 q0 76 -25.5 135.5 q-25.5 59.5 -74.5 93 q-49 33.5 -117 33.5 q-71 0 -131.5 -36 q-60.5 -36 -103 -104.5 q-42.5 -68.5 -58.5 -160.5 q-7 -41 -7 -83 q0 -116 58 -188 q58 -72 161 -72 q71 0 131 35.5 q60 35.5 102 103.5 q42 68 58 160 Z" /><glyph glyph-name="uni1EE2" unicode="&#x1ee2;" d="M770 824 q3 -63 -9 -99.5 q-12 -36.5 -43.5 -53 q-31.5 -16.5 -90.5 -16.5 q-20 0 -52 2 q60 -39 93 -108.5 q33 -69.5 33 -158.5 q0 -38 -8 -88 q-19 -107 -71 -185 q-52 -78 -126 -119.5 q-74 -41.5 -158 -41.5 q-84 0 -147 40 q-63 40 -97 111.5 q-34 71.5 -34 163.5 q0 40 8 88 q19 108 72 187 q53 79 130 121 q77 42 169 42 q32 0 80 -5 q78 -5 97 -5 q45 0 68.5 12.5 q23.5 12.5 31 39.5 q7.5 27 4.5 73 l50 0 ZM632 310 q7 41 7 83 q0 76 -25.5 135.5 q-25.5 59.5 -74.5 93 q-49 33.5 -117 33.5 q-71 0 -131.5 -36 q-60.5 -36 -103 -104.5 q-42.5 -68.5 -58.5 -160.5 q-7 -41 -7 -83 q0 -116 58 -188 q58 -72 161 -72 q71 0 131 35.5 q60 35.5 102 103.5 q42 68 58 160 ZM294 -120 q17 0 29 -12.5 q12 -12.5 12 -29.5 q0 -17 -12.5 -30 q-12.5 -13 -28.5 -13 q-17 0 -29.5 13 q-12.5 13 -12.5 30 q0 17 12.5 29.5 q12.5 12.5 29.5 12.5 Z" /><glyph glyph-name="uni1EDC" unicode="&#x1edc;" d="M417 906 l60 -132 l-49 0 l-72 132 l61 0 ZM770 824 q3 -63 -9 -99.5 q-12 -36.5 -43.5 -53 q-31.5 -16.5 -90.5 -16.5 q-20 0 -52 2 q60 -39 93 -108.5 q33 -69.5 33 -158.5 q0 -38 -8 -88 q-19 -107 -71 -185 q-52 -78 -126 -119.5 q-74 -41.5 -158 -41.5 q-84 0 -147 40 q-63 40 -97 111.5 q-34 71.5 -34 163.5 q0 40 8 88 q19 108 72 187 q53 79 130 121 q77 42 169 42 q32 0 80 -5 q78 -5 97 -5 q45 0 68.5 12.5 q23.5 12.5 31 39.5 q7.5 27 4.5 73 l50 0 ZM632 310 q7 41 7 83 q0 76 -25.5 135.5 q-25.5 59.5 -74.5 93 q-49 33.5 -117 33.5 q-71 0 -131.5 -36 q-60.5 -36 -103 -104.5 q-42.5 -68.5 -58.5 -160.5 q-7 -41 -7 -83 q0 -116 58 -188 q58 -72 161 -72 q71 0 131 35.5 q60 35.5 102 103.5 q42 68 58 160 Z" /><glyph glyph-name="uni1EDE" unicode="&#x1ede;" d="M459 883 q-29 0 -59 -15 l-4 38 q34 16 71 16 q39 0 64 -19 q25 -19 25 -51 q0 -40 -27.5 -62 q-27.5 -22 -78.5 -36 l-22 32 q39 11 58.5 23.5 q19.5 12.5 19.5 37.5 q0 16 -12.5 26 q-12.5 10 -34.5 10 ZM770 824 q3 -63 -9 -99.5 q-12 -36.5 -43.5 -53 q-31.5 -16.5 -90.5 -16.5 q-20 0 -52 2 q60 -39 93 -108.5 q33 -69.5 33 -158.5 q0 -38 -8 -88 q-19 -107 -71 -185 q-52 -78 -126 -119.5 q-74 -41.5 -158 -41.5 q-84 0 -147 40 q-63 40 -97 111.5 q-34 71.5 -34 163.5 q0 40 8 88 q19 108 72 187 q53 79 130 121 q77 42 169 42 q32 0 80 -5 q78 -5 97 -5 q45 0 68.5 12.5 q23.5 12.5 31 39.5 q7.5 27 4.5 73 l50 0 ZM632 310 q7 41 7 83 q0 76 -25.5 135.5 q-25.5 59.5 -74.5 93 q-49 33.5 -117 33.5 q-71 0 -131.5 -36 q-60.5 -36 -103 -104.5 q-42.5 -68.5 -58.5 -160.5 q-7 -41 -7 -83 q0 -116 58 -188 q58 -72 161 -72 q71 0 131 35.5 q60 35.5 102 103.5 q42 68 58 160 Z" /><glyph glyph-name="uni1EE0" unicode="&#x1ee0;" d="M411 852 q-19 0 -33.5 -15.5 q-14.5 -15.5 -21.5 -44.5 l-47 0 q9 48 37.5 77 q28.5 29 68.5 29 q25 0 40 -11 q15 -11 29 -30 q12 -15 21 -22 q9 -7 22 -7 q19 0 33.5 15 q14.5 15 21.5 44 l48 0 q-10 -49 -38 -77 q-28 -28 -69 -28 q-25 0 -39 10 q-14 10 -30 30 q-12 16 -20.5 23 q-8.5 7 -22.5 7 ZM770 824 q3 -63 -9 -99.5 q-12 -36.5 -43.5 -53 q-31.5 -16.5 -90.5 -16.5 q-20 0 -52 2 q60 -39 93 -108.5 q33 -69.5 33 -158.5 q0 -38 -8 -88 q-19 -107 -71 -185 q-52 -78 -126 -119.5 q-74 -41.5 -158 -41.5 q-84 0 -147 40 q-63 40 -97 111.5 q-34 71.5 -34 163.5 q0 40 8 88 q19 108 72 187 q53 79 130 121 q77 42 169 42 q32 0 80 -5 q78 -5 97 -5 q45 0 68.5 12.5 q23.5 12.5 31 39.5 q7.5 27 4.5 73 l50 0 ZM632 310 q7 41 7 83 q0 76 -25.5 135.5 q-25.5 59.5 -74.5 93 q-49 33.5 -117 33.5 q-71 0 -131.5 -36 q-60.5 -36 -103 -104.5 q-42.5 -68.5 -58.5 -160.5 q-7 -41 -7 -83 q0 -116 58 -188 q58 -72 161 -72 q71 0 131 35.5 q60 35.5 102 103.5 q42 68 58 160 Z" /><glyph glyph-name="Ohungarumlaut" unicode="&#x150;" d="M413 774 l-51 0 l104 132 l64 0 l-117 -132 ZM544 774 l-52 0 l104 132 l65 0 l-117 -132 ZM68 359 q19 108 71 187 q52 79 126.5 121 q74.5 42 159.5 42 q83 0 146 -41 q63 -41 96.5 -113 q33.5 -72 33.5 -164 q0 -39 -8 -89 q-19 -107 -71 -185 q-52 -78 -126 -119.5 q-74 -41.5 -158 -41.5 q-84 0 -147 40 q-63 40 -97 111.5 q-34 71.5 -34 163.5 q0 40 8 88 ZM129 354 q-7 -41 -7 -83 q0 -116 58 -188 q58 -72 161 -72 q71 0 131 35.5 q60 35.5 102 103.5 q42 68 58 160 q7 41 7 83 q0 76 -25.5 135.5 q-25.5 59.5 -74.5 93 q-49 33.5 -117 33.5 q-71 0 -131.5 -36 q-60.5 -36 -103 -104.5 q-42.5 -68.5 -58.5 -160.5 Z" /><glyph glyph-name="Omacron" unicode="&#x14c;" d="M612 825 l-293 0 l10 51 l292 0 l-9 -51 ZM68 359 q19 108 71 187 q52 79 126.5 121 q74.5 42 159.5 42 q83 0 146 -41 q63 -41 96.5 -113 q33.5 -72 33.5 -164 q0 -39 -8 -89 q-19 -107 -71 -185 q-52 -78 -126 -119.5 q-74 -41.5 -158 -41.5 q-84 0 -147 40 q-63 40 -97 111.5 q-34 71.5 -34 163.5 q0 40 8 88 ZM129 354 q-7 -41 -7 -83 q0 -116 58 -188 q58 -72 161 -72 q71 0 131 35.5 q60 35.5 102 103.5 q42 68 58 160 q7 41 7 83 q0 76 -25.5 135.5 q-25.5 59.5 -74.5 93 q-49 33.5 -117 33.5 q-71 0 -131.5 -36 q-60.5 -36 -103 -104.5 q-42.5 -68.5 -58.5 -160.5 Z" /><glyph glyph-name="Oslash" unicode="Ø" d="M634 732 l63 0 l-92 -127 q44 -51 68 -120.5 q24 -69.5 24 -151.5 q0 -111 -41.5 -196.5 q-41.5 -85.5 -115 -133 q-73.5 -47.5 -164.5 -47.5 q-109 0 -192 69 l-66 -92 l-63 0 l92 128 q-44 51 -67.5 120 q-23.5 69 -23.5 152 q0 110 41.5 195.5 q41.5 85.5 114.5 133 q73 47.5 164 47.5 q54 0 103 -18 q49 -18 88 -51 l67 92 ZM119 333 q0 -67 16.5 -123.5 q16.5 -56.5 46.5 -99.5 l353 485 q-68 60 -159 60 q-76 0 -134.5 -41 q-58.5 -41 -90.5 -114 q-32 -73 -32 -167 ZM634 333 q0 66 -16.5 123 q-16.5 57 -47.5 99 l-352 -484 q66 -60 158 -60 q77 0 135.5 41 q58.5 41 90.5 114 q32 73 32 167 Z" /><glyph glyph-name="Oslashacute" unicode="&#x1fe;" d="M421 774 l-52 0 l106 132 l65 0 l-119 -132 ZM634 732 l63 0 l-92 -127 q44 -51 68 -120.5 q24 -69.5 24 -151.5 q0 -111 -41.5 -196.5 q-41.5 -85.5 -115 -133 q-73.5 -47.5 -164.5 -47.5 q-109 0 -192 69 l-66 -92 l-63 0 l92 128 q-44 51 -67.5 120 q-23.5 69 -23.5 152 q0 110 41.5 195.5 q41.5 85.5 114.5 133 q73 47.5 164 47.5 q54 0 103 -18 q49 -18 88 -51 l67 92 ZM119 333 q0 -67 16.5 -123.5 q16.5 -56.5 46.5 -99.5 l353 485 q-68 60 -159 60 q-76 0 -134.5 -41 q-58.5 -41 -90.5 -114 q-32 -73 -32 -167 ZM634 333 q0 66 -16.5 123 q-16.5 57 -47.5 99 l-352 -484 q66 -60 158 -60 q77 0 135.5 41 q58.5 41 90.5 114 q32 73 32 167 Z" /><glyph glyph-name="Otilde" unicode="Õ" d="M308 792 q9 48 37.5 77 q28.5 29 68.5 29 q25 0 40 -11 q15 -11 29 -30 q12 -15 21 -22 q9 -7 22 -7 q19 0 33.5 15 q14.5 15 21.5 44 l48 0 q-10 -49 -38 -77 q-28 -28 -69 -28 q-25 0 -39 10 q-14 10 -30 30 q-12 16 -20.5 23 q-8.5 7 -22.5 7 q-19 0 -33.5 -15.5 q-14.5 -15.5 -21.5 -44.5 l-47 0 ZM68 359 q19 108 71 187 q52 79 126.5 121 q74.5 42 159.5 42 q83 0 146 -41 q63 -41 96.5 -113 q33.5 -72 33.5 -164 q0 -39 -8 -89 q-19 -107 -71 -185 q-52 -78 -126 -119.5 q-74 -41.5 -158 -41.5 q-84 0 -147 40 q-63 40 -97 111.5 q-34 71.5 -34 163.5 q0 40 8 88 ZM129 354 q-7 -41 -7 -83 q0 -116 58 -188 q58 -72 161 -72 q71 0 131 35.5 q60 35.5 102 103.5 q42 68 58 160 q7 41 7 83 q0 76 -25.5 135.5 q-25.5 59.5 -74.5 93 q-49 33.5 -117 33.5 q-71 0 -131.5 -36 q-60.5 -36 -103 -104.5 q-42.5 -68.5 -58.5 -160.5 Z" /><glyph glyph-name="OE" unicode="&#x152;" d="M1120 698 l-9 -53 l-359 0 l-48 -273 l324 0 l-10 -53 l-323 0 l-52 -300 l370 0 l-9 -53 l-429 0 l25 143 q-45 -74 -113.5 -113.5 q-68.5 -39.5 -148.5 -39.5 q-84 0 -147 40 q-63 40 -97 111.5 q-34 71.5 -34 163.5 q0 40 8 88 q19 108 71 187 q52 79 126.5 121 q74.5 42 159.5 42 q95 0 158.5 -53.5 q63.5 -53.5 86.5 -146.5 l32 189 l418 0 ZM341 11 q71 0 131 35.5 q60 35.5 102 103.5 q42 68 58 160 q7 41 7 83 q0 76 -25.5 135.5 q-25.5 59.5 -74.5 93 q-49 33.5 -117 33.5 q-71 0 -131.5 -36 q-60.5 -36 -103 -104.5 q-42.5 -68.5 -58.5 -160.5 q-7 -41 -7 -83 q0 -116 58 -188 q58 -72 161 -72 Z" /><glyph glyph-name="P" unicode="P" d="M346 698 q69 0 120 -24 q51 -24 78 -67.5 q27 -43.5 27 -100.5 q0 -23 -4 -43 q-16 -95 -90 -148 q-74 -53 -183 -53 l-147 0 l-52 -296 l-59 0 l127 732 l183 0 ZM506 471 q3 17 3 33 q0 64 -45 103 q-45 39 -131 39 l-120 0 l-58 -331 l137 0 q89 0 145 40.5 q56 40.5 69 115.5 Z" /><glyph glyph-name="Thorn" unicode="Þ" d="M324 552 q69 0 120 -24.5 q51 -24.5 78.5 -68 q27.5 -43.5 27.5 -99.5 q0 -23 -4 -43 q-17 -95 -91 -148 q-74 -53 -183 -53 l-152 0 l-26 -150 l-60 0 l129 732 l60 0 l-26 -146 l127 0 ZM484 324 q3 17 3 33 q0 64 -45 103 q-45 39 -131 39 l-123 0 l-58 -331 l141 0 q88 0 144 40.5 q56 40.5 69 115.5 Z" /><glyph glyph-name="Q" unicode="Q" d="M693 302 q-21 -117 -80.5 -198.5 q-59.5 -81.5 -143.5 -119.5 l183 -165 l-83 0 l-164 145 q-35 -8 -67 -8 q-84 0 -147 40 q-63 40 -97 111.5 q-34 71.5 -34 163.5 q0 40 8 88 q19 108 71 187 q52 79 126.5 121 q74.5 42 159.5 42 q83 0 146 -41 q63 -41 96.5 -113 q33.5 -72 33.5 -164 q0 -39 -8 -89 ZM341 11 q71 0 131 35.5 q60 35.5 102 103.5 q42 68 58 160 q7 41 7 83 q0 76 -25.5 135.5 q-25.5 59.5 -74.5 93 q-49 33.5 -117 33.5 q-71 0 -131.5 -36 q-60.5 -36 -103 -104.5 q-42.5 -68.5 -58.5 -160.5 q-7 -41 -7 -83 q0 -116 58 -188 q58 -72 161 -72 Z" /><glyph glyph-name="R" unicode="R" d="M567 474 q-13 -73 -64 -120.5 q-51 -47.5 -129 -64.5 l171 -323 l-70 0 l-162 314 l-14 0 l-150 0 l-54 -314 l-59 0 l127 732 l182 0 q68 0 119 -23.5 q51 -23.5 79 -65.5 q28 -42 28 -96 q0 -13 -4 -39 ZM505 480 q3 15 3 30 q0 61 -46 98.5 q-46 37.5 -130 37.5 l-119 0 l-54 -313 l131 0 q90 0 146 38 q56 38 69 109 Z" /><glyph glyph-name="Racute" unicode="&#x154;" d="M442 907 l65 0 l-119 -132 l-52 0 l106 132 ZM567 474 q-13 -73 -64 -120.5 q-51 -47.5 -129 -64.5 l171 -323 l-70 0 l-162 314 l-14 0 l-150 0 l-54 -314 l-59 0 l127 732 l182 0 q68 0 119 -23.5 q51 -23.5 79 -65.5 q28 -42 28 -96 q0 -13 -4 -39 ZM505 480 q3 15 3 30 q0 61 -46 98.5 q-46 37.5 -130 37.5 l-119 0 l-54 -313 l131 0 q90 0 146 38 q56 38 69 109 Z" /><glyph glyph-name="Rcaron" unicode="&#x158;" d="M523 907 l-140 -132 l-53 0 l-93 132 l58 0 l67 -95 l98 95 l63 0 ZM567 474 q-13 -73 -64 -120.5 q-51 -47.5 -129 -64.5 l171 -323 l-70 0 l-162 314 l-14 0 l-150 0 l-54 -314 l-59 0 l127 732 l182 0 q68 0 119 -23.5 q51 -23.5 79 -65.5 q28 -42 28 -96 q0 -13 -4 -39 ZM505 480 q3 15 3 30 q0 61 -46 98.5 q-46 37.5 -130 37.5 l-119 0 l-54 -313 l131 0 q90 0 146 38 q56 38 69 109 Z" /><glyph glyph-name="uni0156" unicode="&#x156;" d="M567 474 q-13 -73 -64 -120.5 q-51 -47.5 -129 -64.5 l171 -323 l-70 0 l-162 314 l-14 0 l-150 0 l-54 -314 l-59 0 l127 732 l182 0 q68 0 119 -23.5 q51 -23.5 79 -65.5 q28 -42 28 -96 q0 -13 -4 -39 ZM505 480 q3 15 3 30 q0 61 -46 98.5 q-46 37.5 -130 37.5 l-119 0 l-54 -313 l131 0 q90 0 146 38 q56 38 69 109 ZM268 -94 q17 0 28 -11 q11 -11 11 -34 q0 -5 -2 -19 q-8 -43 -37 -72 q-29 -29 -77 -38 l2 31 q60 18 73 65 l-4 0 q-17 0 -25.5 9.5 q-8.5 9.5 -8.5 24.5 q0 18 11.5 31 q11.5 13 28.5 13 Z" /><glyph glyph-name="S" unicode="S" d="M487 134 q-15 -83 -76 -132 q-63 -46 -156 -46 q-69 0 -124 27 q-55 27 -88 73.5 q-33 46.5 -40 104.5 l51 24 q12 -78 67 -126 q55 -48 136 -48 q69 0 114 34.5 q45 34.5 56 93.5 q2 9 2 26 q0 39 -21.5 66.5 q-21.5 27.5 -52 46 q-30.5 18.5 -84.5 44.5 q-58 28 -93 49.5 q-35 21.5 -59 55 q-24 33.5 -24 81.5 q0 17 3 35 q19 96 93 135 q54 31 128 31 q66 0 114.5 -24.5 q48.5 -24.5 75 -63.5 q26.5 -39 28.5 -82 l-51 -24 q-2 38 -23 70 q-21 32 -58 51 q-37 19 -87 19 q-60 0 -104 -28.5 q-44 -28.5 -54 -85.5 q-2 -16 -2 -24 q0 -36 20.5 -63 q20.5 -27 50 -45 q29.5 -18 81.5 -42 q59 -27 95 -49.5 q36 -22.5 61 -58 q25 -35.5 25 -86.5 q0 -11 -4 -39 Z" /><glyph glyph-name="Sacute" unicode="&#x15a;" d="M385 774 l-52 0 l106 133 l65 0 l-119 -133 ZM487 134 q-15 -83 -76 -132 q-63 -46 -156 -46 q-69 0 -124 27 q-55 27 -88 73.5 q-33 46.5 -40 104.5 l51 24 q12 -78 67 -126 q55 -48 136 -48 q68 0 113.5 34 q45.5 34 56.5 92 q2 9 2 25 q0 38 -21 66 q-21 28 -52 47 q-31 19 -84 44 q-59 28 -93.5 50 q-34.5 22 -59 56.5 q-24.5 34.5 -24.5 82.5 q0 17 3 35 q19 96 93 135 q54 31 128 31 q66 0 114.5 -24.5 q48.5 -24.5 75 -63.5 q26.5 -39 28.5 -82 l-51 -24 q-2 38 -23 70 q-21 32 -58 51 q-37 19 -87 19 q-60 0 -104 -28.5 q-44 -28.5 -54 -85.5 q-2 -16 -2 -24 q0 -37 20.5 -63.5 q20.5 -26.5 50 -45 q29.5 -18.5 82.5 -43.5 q58 -27 93.5 -49.5 q35.5 -22.5 60.5 -58 q25 -35.5 25 -86.5 q0 -17 -3 -37 Z" /><glyph glyph-name="Scaron" unicode="&#x160;" d="M293 907 l66 -96 l98 96 l63 0 l-140 -133 l-53 0 l-93 133 l59 0 ZM487 134 q-15 -83 -76 -132 q-63 -46 -156 -46 q-69 0 -124 27 q-55 27 -88 73.5 q-33 46.5 -40 104.5 l51 24 q12 -78 67 -126 q55 -48 136 -48 q68 0 113.5 34 q45.5 34 56.5 92 q2 9 2 25 q0 38 -21 66 q-21 28 -52 47 q-31 19 -84 44 q-59 28 -93.5 50 q-34.5 22 -59 56.5 q-24.5 34.5 -24.5 82.5 q0 17 3 35 q19 96 93 135 q54 31 128 31 q66 0 114.5 -24.5 q48.5 -24.5 75 -63.5 q26.5 -39 28.5 -82 l-51 -24 q-2 38 -23 70 q-21 32 -58 51 q-37 19 -87 19 q-60 0 -104 -28.5 q-44 -28.5 -54 -85.5 q-2 -16 -2 -24 q0 -37 20.5 -63.5 q20.5 -26.5 50 -45 q29.5 -18.5 82.5 -43.5 q58 -27 93.5 -49.5 q35.5 -22.5 60.5 -58 q25 -35.5 25 -86.5 q0 -17 -3 -37 Z" /><glyph glyph-name="Scedilla" unicode="&#x15e;" d="M160 541 q-2 -16 -2 -24 q0 -37 20.5 -63.5 q20.5 -26.5 50 -45 q29.5 -18.5 82.5 -43.5 q58 -27 93.5 -49.5 q35.5 -22.5 60.5 -58 q25 -35.5 25 -86.5 q0 -17 -3 -37 q-15 -83 -76 -132 q-63 -46 -156 -46 q-6 0 -9 1 l-36 -64 q45 -1 72 -21.5 q27 -20.5 27 -56.5 q0 -50 -38 -73 q-38 -23 -92 -23 q-41 0 -68 10 l3 42 q32 -10 67 -10 q71 0 78 43 q4 24 -16 36.5 q-20 12.5 -61 12.5 q-18 0 -27 -1 l-3 27 l46 83 q-82 15 -134.5 69.5 q-52.5 54.5 -60.5 129.5 l51 24 q12 -78 67 -126 q55 -48 136 -48 q68 0 113.5 34 q45.5 34 56.5 92 q2 9 2 25 q0 38 -21 66 q-21 28 -52 47 q-31 19 -84 44 q-59 28 -93.5 50 q-34.5 22 -59 56.5 q-24.5 34.5 -24.5 82.5 q0 17 3 35 q19 96 93 135 q54 31 128 31 q66 0 114.5 -24.5 q48.5 -24.5 75 -63.5 q26.5 -39 28.5 -82 l-51 -24 q-2 38 -23 70 q-21 32 -58 51 q-37 19 -87 19 q-60 0 -104 -28.5 q-44 -28.5 -54 -85.5 Z" /><glyph glyph-name="Scircumflex" unicode="&#x15c;" d="M349 907 l53 0 l93 -133 l-59 0 l-66 96 l-99 -96 l-62 0 l140 133 ZM487 134 q-15 -83 -76 -132 q-63 -46 -156 -46 q-69 0 -124 27 q-55 27 -88 73.5 q-33 46.5 -40 104.5 l51 24 q12 -78 67 -126 q55 -48 136 -48 q68 0 113.5 34 q45.5 34 56.5 92 q2 9 2 25 q0 38 -21 66 q-21 28 -52 47 q-31 19 -84 44 q-59 28 -93.5 50 q-34.5 22 -59 56.5 q-24.5 34.5 -24.5 82.5 q0 17 3 35 q19 96 93 135 q54 31 128 31 q66 0 114.5 -24.5 q48.5 -24.5 75 -63.5 q26.5 -39 28.5 -82 l-51 -24 q-2 38 -23 70 q-21 32 -58 51 q-37 19 -87 19 q-60 0 -104 -28.5 q-44 -28.5 -54 -85.5 q-2 -16 -2 -24 q0 -37 20.5 -63.5 q20.5 -26.5 50 -45 q29.5 -18.5 82.5 -43.5 q58 -27 93.5 -49.5 q35.5 -22.5 60.5 -58 q25 -35.5 25 -86.5 q0 -17 -3 -37 Z" /><glyph glyph-name="uni0218" unicode="&#x218;" d="M160 541 q-2 -16 -2 -24 q0 -36 20.5 -63 q20.5 -27 50 -45 q29.5 -18 81.5 -42 q59 -27 95 -49.5 q36 -22.5 61 -58 q25 -35.5 25 -86.5 q0 -11 -4 -39 q-15 -83 -76 -132 q-63 -46 -156 -46 q-69 0 -124 27 q-55 27 -88 73.5 q-33 46.5 -40 104.5 l51 24 q12 -78 67 -126 q55 -48 136 -48 q69 0 114 34.5 q45 34.5 56 93.5 q2 9 2 26 q0 39 -21.5 66.5 q-21.5 27.5 -52 46 q-30.5 18.5 -84.5 44.5 q-58 28 -93 49.5 q-35 21.5 -59 55 q-24 33.5 -24 81.5 q0 17 3 35 q19 96 93 135 q54 31 128 31 q66 0 114.5 -24.5 q48.5 -24.5 75 -63.5 q26.5 -39 28.5 -82 l-51 -24 q-2 38 -23 70 q-21 32 -58 51 q-37 19 -87 19 q-60 0 -104 -28.5 q-44 -28.5 -54 -85.5 ZM218 -94 q17 0 28 -11 q11 -11 11 -34 q0 -5 -2 -19 q-8 -43 -37 -72 q-29 -29 -77 -38 l2 31 q61 18 73 65 l-5 0 q-16 0 -24.5 9.5 q-8.5 9.5 -8.5 24.5 q0 18 11.5 31 q11.5 13 28.5 13 Z" /><glyph glyph-name="uni018F" unicode="&#x18f;" d="M385 709 q123 0 189 -79 q66 -79 66 -216 q0 -56 -10 -113 q-31 -173 -124 -259 q-93 -86 -233 -86 q-107 0 -170 50 q-63 50 -63 144 q0 214 344 214 q87 0 190 -13 q5 42 5 71 q0 113 -51.5 172.5 q-51.5 59.5 -148.5 59.5 q-68 0 -124 -31 q-56 -31 -95 -92 l-40 32 q43 73 113 109.5 q70 36.5 152 36.5 ZM276 11 q232 0 289 286 q-103 13 -186 13 q-142 0 -209 -40 q-67 -40 -67 -119 q0 -67 44.5 -103.5 q44.5 -36.5 128.5 -36.5 Z" /><glyph glyph-name="T" unicode="T" d="M86 698 l514 0 l-9 -53 l-228 0 l-119 -679 l-59 0 l119 679 l-227 0 l9 53 Z" /><glyph glyph-name="Tbar" unicode="&#x166;" d="M86 698 l514 0 l-9 -53 l-228 0 l-47 -272 l154 0 l-9 -53 l-155 0 l-62 -354 l-59 0 l62 354 l-153 0 l9 53 l153 0 l48 272 l-227 0 l9 53 Z" /><glyph glyph-name="Tcaron" unicode="&#x164;" d="M296 907 l66 -95 l99 95 l63 0 l-141 -132 l-53 0 l-93 132 l59 0 ZM86 698 l514 0 l-9 -53 l-228 0 l-119 -679 l-59 0 l119 679 l-227 0 l9 53 Z" /><glyph glyph-name="uni0162" unicode="&#x162;" d="M86 698 l514 0 l-9 -53 l-228 0 l-119 -679 l-4 0 l-41 -73 q45 -1 72 -21.5 q27 -20.5 27 -56.5 q0 -50 -38 -73 q-38 -23 -92 -23 q-41 0 -68 10 l3 42 q32 -10 67 -10 q78 0 78 51 q0 20 -20 30.5 q-20 10.5 -57 10.5 q-17 0 -27 -1 l-3 27 l49 87 l-5 0 l119 679 l-227 0 l9 53 Z" /><glyph glyph-name="uni021A" unicode="&#x21a;" d="M77 645 l9 53 l514 0 l-9 -53 l-228 0 l-119 -679 l-59 0 l119 679 l-227 0 ZM198 -94 q17 0 28 -11 q11 -11 11 -34 q0 -5 -2 -19 q-8 -43 -37.5 -72 q-29.5 -29 -76.5 -38 l2 31 q61 18 73 65 l-5 0 q-16 0 -24.5 9.5 q-8.5 9.5 -8.5 24.5 q0 18 11.5 31 q11.5 13 28.5 13 Z" /><glyph glyph-name="U" unicode="U" d="M631 698 l59 0 l-79 -462 q-25 -136 -102 -208 q-77 -72 -196 -72 q-116 0 -178.5 65 q-62.5 65 -62.5 174 q0 28 7 72 l74 431 l59 0 l-73 -423 q-7 -44 -7 -71 q0 -91 47.5 -142 q47.5 -51 137.5 -51 q94 0 154.5 59 q60.5 59 80.5 174 l79 454 Z" /><glyph glyph-name="Uacute" unicode="Ú" d="M467 774 l-52 0 l106 132 l65 0 l-119 -132 ZM631 698 l59 0 l-79 -462 q-25 -136 -102 -208 q-77 -72 -196 -72 q-116 0 -178.5 65 q-62.5 65 -62.5 174 q0 28 7 72 l74 431 l59 0 l-73 -423 q-7 -44 -7 -71 q0 -91 47.5 -142 q47.5 -51 137.5 -51 q94 0 154.5 59 q60.5 59 80.5 174 l79 454 Z" /><glyph glyph-name="Ubreve" unicode="&#x16c;" d="M444 774 q-60 0 -93.5 29.5 q-33.5 29.5 -33.5 78.5 q0 8 2 24 l52 0 q-1 -6 -1 -16 q0 -34 20 -54.5 q20 -20.5 57 -20.5 q38 0 64 23 q26 23 36 68 l52 0 q-11 -65 -52 -98.5 q-41 -33.5 -103 -33.5 ZM631 698 l59 0 l-79 -462 q-25 -136 -102 -208 q-77 -72 -196 -72 q-116 0 -178.5 65 q-62.5 65 -62.5 174 q0 28 7 72 l74 431 l59 0 l-73 -423 q-7 -44 -7 -71 q0 -91 47.5 -142 q47.5 -51 137.5 -51 q94 0 154.5 59 q60.5 59 80.5 174 l79 454 Z" /><glyph glyph-name="uni01D3" unicode="&#x1d3;" d="M375 906 l66 -95 l98 95 l63 0 l-140 -132 l-53 0 l-93 132 l59 0 ZM631 698 l59 0 l-79 -462 q-25 -136 -102 -208 q-77 -72 -196 -72 q-116 0 -178.5 65 q-62.5 65 -62.5 174 q0 28 7 72 l74 431 l59 0 l-73 -423 q-7 -44 -7 -71 q0 -91 47.5 -142 q47.5 -51 137.5 -51 q94 0 154.5 59 q60.5 59 80.5 174 l79 454 Z" /><glyph glyph-name="Ucircumflex" unicode="Û" d="M431 906 l53 0 l93 -132 l-59 0 l-66 95 l-99 -95 l-62 0 l140 132 ZM631 698 l59 0 l-79 -462 q-25 -136 -102 -208 q-77 -72 -196 -72 q-116 0 -178.5 65 q-62.5 65 -62.5 174 q0 28 7 72 l74 431 l59 0 l-73 -423 q-7 -44 -7 -71 q0 -91 47.5 -142 q47.5 -51 137.5 -51 q94 0 154.5 59 q60.5 59 80.5 174 l79 454 Z" /><glyph glyph-name="Udieresis" unicode="Ü" d="M351 808 q-17 0 -29.5 12.5 q-12.5 12.5 -12.5 29.5 q0 18 12 30.5 q12 12.5 29 12.5 q18 0 30 -12.5 q12 -12.5 12 -30.5 q0 -17 -12 -29.5 q-12 -12.5 -29 -12.5 ZM547 808 q-17 0 -29 12.5 q-12 12.5 -12 29.5 q0 18 12 30.5 q12 12.5 29 12.5 q17 0 29.5 -12.5 q12.5 -12.5 12.5 -30.5 q0 -17 -12 -29.5 q-12 -12.5 -30 -12.5 ZM631 698 l59 0 l-79 -462 q-25 -136 -102 -208 q-77 -72 -196 -72 q-116 0 -178.5 65 q-62.5 65 -62.5 174 q0 28 7 72 l74 431 l59 0 l-73 -423 q-7 -44 -7 -71 q0 -91 47.5 -142 q47.5 -51 137.5 -51 q94 0 154.5 59 q60.5 59 80.5 174 l79 454 Z" /><glyph glyph-name="uni01D7" unicode="&#x1d7;" d="M410 850 l95 77 l64 0 l-108 -77 l-51 0 ZM341 761 q-17 0 -29 10.5 q-12 10.5 -12 25.5 q0 14 12 24 q12 10 29 10 q17 0 29.5 -10 q12.5 -10 12.5 -24 q0 -15 -12 -25.5 q-12 -10.5 -30 -10.5 ZM538 761 q-17 0 -29.5 10.5 q-12.5 10.5 -12.5 25.5 q0 14 12 24 q12 10 29 10 q18 0 30 -10 q12 -10 12 -24 q0 -15 -12 -25.5 q-12 -10.5 -29 -10.5 ZM631 698 l59 0 l-79 -462 q-24 -136 -101.5 -208 q-77.5 -72 -196.5 -72 q-116 0 -178.5 65 q-62.5 65 -62.5 174 q0 28 7 72 l74 431 l59 0 l-73 -423 q-7 -44 -7 -71 q0 -91 47.5 -142 q47.5 -51 137.5 -51 q94 0 154.5 59 q60.5 59 80.5 174 l79 454 Z" /><glyph glyph-name="uni01D9" unicode="&#x1d9;" d="M596 928 l-130 -78 l-54 0 l-102 78 l70 0 l65 -47 l80 47 l71 0 ZM341 761 q-17 0 -29 10.5 q-12 10.5 -12 25.5 q0 14 12 24 q12 10 29 10 q17 0 29.5 -10 q12.5 -10 12.5 -24 q0 -15 -12 -25.5 q-12 -10.5 -30 -10.5 ZM538 761 q-17 0 -29.5 10.5 q-12.5 10.5 -12.5 25.5 q0 14 12 24 q12 10 29 10 q18 0 30 -10 q12 -10 12 -24 q0 -15 -12 -25.5 q-12 -10.5 -29 -10.5 ZM631 698 l59 0 l-79 -462 q-24 -136 -101.5 -208 q-77.5 -72 -196.5 -72 q-116 0 -178.5 65 q-62.5 65 -62.5 174 q0 28 7 72 l74 431 l59 0 l-73 -423 q-7 -44 -7 -71 q0 -91 47.5 -142 q47.5 -51 137.5 -51 q94 0 154.5 59 q60.5 59 80.5 174 l79 454 Z" /><glyph glyph-name="uni01DB" unicode="&#x1db;" d="M337 927 l64 0 l68 -77 l-52 0 l-80 77 ZM341 761 q-17 0 -29 10.5 q-12 10.5 -12 25.5 q0 14 12 24 q12 10 29 10 q17 0 29.5 -10 q12.5 -10 12.5 -24 q0 -15 -12 -25.5 q-12 -10.5 -30 -10.5 ZM538 761 q-17 0 -29.5 10.5 q-12.5 10.5 -12.5 25.5 q0 14 12 24 q12 10 29 10 q18 0 30 -10 q12 -10 12 -24 q0 -15 -12 -25.5 q-12 -10.5 -29 -10.5 ZM631 698 l59 0 l-79 -462 q-24 -136 -101.5 -208 q-77.5 -72 -196.5 -72 q-116 0 -178.5 65 q-62.5 65 -62.5 174 q0 28 7 72 l74 431 l59 0 l-73 -423 q-7 -44 -7 -71 q0 -91 47.5 -142 q47.5 -51 137.5 -51 q94 0 154.5 59 q60.5 59 80.5 174 l79 454 Z" /><glyph glyph-name="uni01D5" unicode="&#x1d5;" d="M306 872 l7 36 l293 0 l-7 -36 l-293 0 ZM341 761 q-17 0 -29 10.5 q-12 10.5 -12 25.5 q0 14 12 24 q12 10 29 10 q17 0 29.5 -10 q12.5 -10 12.5 -24 q0 -15 -12 -25.5 q-12 -10.5 -30 -10.5 ZM538 761 q-17 0 -29.5 10.5 q-12.5 10.5 -12.5 25.5 q0 14 12 24 q12 10 29 10 q18 0 30 -10 q12 -10 12 -24 q0 -15 -12 -25.5 q-12 -10.5 -29 -10.5 ZM631 698 l59 0 l-79 -462 q-24 -136 -101.5 -208 q-77.5 -72 -196.5 -72 q-116 0 -178.5 65 q-62.5 65 -62.5 174 q0 28 7 72 l74 431 l59 0 l-73 -423 q-7 -44 -7 -71 q0 -91 47.5 -142 q47.5 -51 137.5 -51 q94 0 154.5 59 q60.5 59 80.5 174 l79 454 Z" /><glyph glyph-name="uni1EE4" unicode="&#x1ee4;" d="M631 698 l59 0 l-79 -462 q-25 -136 -102 -208 q-77 -72 -196 -72 q-116 0 -178.5 65 q-62.5 65 -62.5 174 q0 28 7 72 l74 431 l59 0 l-73 -423 q-7 -44 -7 -71 q0 -91 47.5 -142 q47.5 -51 137.5 -51 q94 0 154.5 59 q60.5 59 80.5 174 l79 454 ZM271 -205 q-17 0 -29.5 13 q-12.5 13 -12.5 30 q0 17 12.5 29.5 q12.5 12.5 29.5 12.5 q17 0 29 -12.5 q12 -12.5 12 -29.5 q0 -17 -12.5 -30 q-12.5 -13 -28.5 -13 Z" /><glyph glyph-name="Ugrave" unicode="Ù" d="M405 774 l-72 132 l61 0 l60 -132 l-49 0 ZM631 698 l59 0 l-79 -462 q-25 -136 -102 -208 q-77 -72 -196 -72 q-116 0 -178.5 65 q-62.5 65 -62.5 174 q0 28 7 72 l74 431 l59 0 l-73 -423 q-7 -44 -7 -71 q0 -91 47.5 -142 q47.5 -51 137.5 -51 q94 0 154.5 59 q60.5 59 80.5 174 l79 454 Z" /><glyph glyph-name="uni1EE6" unicode="&#x1ee6;" d="M373 906 q35 16 71 16 q39 0 64 -18.5 q25 -18.5 25 -50.5 q0 -40 -27.5 -62.5 q-27.5 -22.5 -78.5 -36.5 l-22 32 q36 9 55 20.5 q19 11.5 23 32.5 q3 19 -9.5 31.5 q-12.5 12.5 -37.5 12.5 q-29 0 -59 -15 l-4 38 ZM631 698 l59 0 l-79 -462 q-25 -136 -102 -208 q-77 -72 -196 -72 q-116 0 -178.5 65 q-62.5 65 -62.5 174 q0 28 7 72 l74 431 l59 0 l-73 -423 q-7 -44 -7 -71 q0 -91 47.5 -142 q47.5 -51 137.5 -51 q94 0 154.5 59 q60.5 59 80.5 174 l79 454 Z" /><glyph glyph-name="Uhorn" unicode="&#x1af;" d="M809 824 q4 -88 -24 -126 q-28 -38 -103 -42 l-71 -420 q-24 -136 -101.5 -208 q-77.5 -72 -196.5 -72 q-116 0 -178.5 65 q-62.5 65 -62.5 174 q0 28 7 72 l74 431 l59 0 l-73 -423 q-7 -36 -7 -72 q0 -90 47.5 -141 q47.5 -51 137.5 -51 q94 0 154.5 59 q60.5 59 80.5 174 l79 454 l20 0 q48 0 72 13 q24 13 31.5 39.5 q7.5 26.5 4.5 73.5 l50 0 Z" /><glyph glyph-name="uni1EE8" unicode="&#x1ee8;" d="M467 774 l-52 0 l106 132 l65 0 l-119 -132 ZM809 824 q4 -88 -24 -126 q-28 -38 -103 -42 l-71 -420 q-24 -136 -101.5 -208 q-77.5 -72 -196.5 -72 q-116 0 -178.5 65 q-62.5 65 -62.5 174 q0 28 7 72 l74 431 l59 0 l-73 -423 q-7 -36 -7 -72 q0 -90 47.5 -141 q47.5 -51 137.5 -51 q94 0 154.5 59 q60.5 59 80.5 174 l79 454 l20 0 q48 0 72 13 q24 13 31.5 39.5 q7.5 26.5 4.5 73.5 l50 0 Z" /><glyph glyph-name="uni1EF0" unicode="&#x1ef0;" d="M809 824 q4 -88 -24 -126 q-28 -38 -103 -42 l-71 -420 q-24 -136 -101.5 -208 q-77.5 -72 -196.5 -72 q-116 0 -178.5 65 q-62.5 65 -62.5 174 q0 28 7 72 l74 431 l59 0 l-73 -423 q-7 -36 -7 -72 q0 -90 47.5 -141 q47.5 -51 137.5 -51 q94 0 154.5 59 q60.5 59 80.5 174 l79 454 l20 0 q48 0 72 13 q24 13 31.5 39.5 q7.5 26.5 4.5 73.5 l50 0 ZM271 -205 q-17 0 -29.5 13 q-12.5 13 -12.5 30 q0 17 12.5 29.5 q12.5 12.5 29.5 12.5 q17 0 29 -12.5 q12 -12.5 12 -29.5 q0 -17 -12.5 -30 q-12.5 -13 -28.5 -13 Z" /><glyph glyph-name="uni1EEA" unicode="&#x1eea;" d="M405 774 l-72 132 l61 0 l60 -132 l-49 0 ZM809 824 q4 -88 -24 -126 q-28 -38 -103 -42 l-71 -420 q-24 -136 -101.5 -208 q-77.5 -72 -196.5 -72 q-116 0 -178.5 65 q-62.5 65 -62.5 174 q0 28 7 72 l74 431 l59 0 l-73 -423 q-7 -36 -7 -72 q0 -90 47.5 -141 q47.5 -51 137.5 -51 q94 0 154.5 59 q60.5 59 80.5 174 l79 454 l20 0 q48 0 72 13 q24 13 31.5 39.5 q7.5 26.5 4.5 73.5 l50 0 Z" /><glyph glyph-name="uni1EEC" unicode="&#x1eec;" d="M373 906 q35 16 71 16 q39 0 64 -18.5 q25 -18.5 25 -50.5 q0 -40 -27.5 -62.5 q-27.5 -22.5 -78.5 -36.5 l-22 32 q36 9 55 20.5 q19 11.5 23 32.5 q3 19 -9.5 31.5 q-12.5 12.5 -37.5 12.5 q-29 0 -59 -15 l-4 38 ZM809 824 q4 -88 -24 -126 q-28 -38 -103 -42 l-71 -420 q-24 -136 -101.5 -208 q-77.5 -72 -196.5 -72 q-116 0 -178.5 65 q-62.5 65 -62.5 174 q0 28 7 72 l74 431 l59 0 l-73 -423 q-7 -36 -7 -72 q0 -90 47.5 -141 q47.5 -51 137.5 -51 q94 0 154.5 59 q60.5 59 80.5 174 l79 454 l20 0 q48 0 72 13 q24 13 31.5 39.5 q7.5 26.5 4.5 73.5 l50 0 Z" /><glyph glyph-name="uni1EEE" unicode="&#x1eee;" d="M286 792 q9 48 37.5 77 q28.5 29 68.5 29 q25 0 40 -11 q15 -11 29 -30 q12 -15 21 -22 q9 -7 22 -7 q19 0 34 15 q15 15 22 44 l47 0 q-9 -49 -37.5 -77 q-28.5 -28 -68.5 -28 q-25 0 -40 11 q-15 11 -29 30 q-12 15 -21 22 q-9 7 -22 7 q-20 0 -34.5 -15.5 q-14.5 -15.5 -21.5 -44.5 l-47 0 ZM809 824 q4 -88 -24 -126 q-28 -38 -103 -42 l-71 -420 q-24 -136 -101.5 -208 q-77.5 -72 -196.5 -72 q-116 0 -178.5 65 q-62.5 65 -62.5 174 q0 28 7 72 l74 431 l59 0 l-73 -423 q-7 -36 -7 -72 q0 -90 47.5 -141 q47.5 -51 137.5 -51 q94 0 154.5 59 q60.5 59 80.5 174 l79 454 l20 0 q48 0 72 13 q24 13 31.5 39.5 q7.5 26.5 4.5 73.5 l50 0 Z" /><glyph glyph-name="Uhungarumlaut" unicode="&#x170;" d="M391 774 l-51 0 l104 132 l64 0 l-117 -132 ZM522 774 l-51 0 l104 132 l64 0 l-117 -132 ZM631 698 l59 0 l-79 -462 q-25 -136 -102 -208 q-77 -72 -196 -72 q-116 0 -178.5 65 q-62.5 65 -62.5 174 q0 28 7 72 l74 431 l59 0 l-73 -423 q-7 -44 -7 -71 q0 -91 47.5 -142 q47.5 -51 137.5 -51 q94 0 154.5 59 q60.5 59 80.5 174 l79 454 Z" /><glyph glyph-name="Umacron" unicode="&#x16a;" d="M590 825 l-292 0 l9 51 l293 0 l-10 -51 ZM631 698 l59 0 l-79 -462 q-25 -136 -102 -208 q-77 -72 -196 -72 q-116 0 -178.5 65 q-62.5 65 -62.5 174 q0 28 7 72 l74 431 l59 0 l-73 -423 q-7 -44 -7 -71 q0 -91 47.5 -142 q47.5 -51 137.5 -51 q94 0 154.5 59 q60.5 59 80.5 174 l79 454 Z" /><glyph glyph-name="Uogonek" unicode="&#x172;" d="M631 698 l59 0 l-79 -462 q-16 -87 -54 -149 q-38 -62 -96 -95 q-81 -50 -114.5 -88.5 q-33.5 -38.5 -33.5 -86.5 q0 -28 15.5 -41.5 q15.5 -13.5 39.5 -13.5 q41 0 86 39 l21 -35 q-22 -22 -50 -34.5 q-28 -12.5 -59 -12.5 q-44 0 -73.5 24 q-29.5 24 -29.5 69 q0 12 3 27 q6 36 25 64.5 q19 28.5 52 54.5 q-20 -2 -30 -2 q-116 0 -178.5 65 q-62.5 65 -62.5 174 q0 28 7 72 l74 431 l59 0 l-73 -423 q-7 -44 -7 -71 q0 -91 47.5 -142 q47.5 -51 137.5 -51 q94 0 154.5 59 q60.5 59 80.5 174 l79 454 Z" /><glyph glyph-name="Uring" unicode="&#x16e;" d="M357 863 q0 41 27 67 q27 26 67 26 q39 0 65 -26 q26 -26 26 -67 q0 -40 -26 -66.5 q-26 -26.5 -65 -26.5 q-40 0 -67 26.5 q-27 26.5 -27 66.5 ZM397 863 q0 -24 15 -40 q15 -16 39 -16 q23 0 37.5 16 q14.5 16 14.5 40 q0 25 -14.5 41 q-14.5 16 -37.5 16 q-24 0 -39 -16 q-15 -16 -15 -41 ZM631 698 l59 0 l-79 -462 q-25 -136 -102 -208 q-77 -72 -196 -72 q-116 0 -178.5 65 q-62.5 65 -62.5 174 q0 28 7 72 l74 431 l59 0 l-73 -423 q-7 -44 -7 -71 q0 -91 47.5 -142 q47.5 -51 137.5 -51 q94 0 154.5 59 q60.5 59 80.5 174 l79 454 Z" /><glyph glyph-name="Utilde" unicode="&#x168;" d="M286 792 q9 48 37.5 77 q28.5 29 68.5 29 q25 0 40 -11 q15 -11 29 -30 q12 -15 21 -22 q9 -7 22 -7 q19 0 34 15 q15 15 22 44 l47 0 q-9 -49 -37.5 -77 q-28.5 -28 -68.5 -28 q-25 0 -40 11 q-15 11 -29 30 q-12 15 -21 22 q-9 7 -22 7 q-20 0 -34.5 -15.5 q-14.5 -15.5 -21.5 -44.5 l-47 0 ZM631 698 l59 0 l-79 -462 q-25 -136 -102 -208 q-77 -72 -196 -72 q-116 0 -178.5 65 q-62.5 65 -62.5 174 q0 28 7 72 l74 431 l59 0 l-73 -423 q-7 -44 -7 -71 q0 -91 47.5 -142 q47.5 -51 137.5 -51 q94 0 154.5 59 q60.5 59 80.5 174 l79 454 Z" /><glyph glyph-name="V" unicode="V" d="M149 698 l132 -650 l354 650 l64 0 l-407 -732 l-50 0 l-157 732 l64 0 Z" /><glyph glyph-name="W" unicode="W" d="M574 699 l81 -632 l295 631 l60 0 l-348 -732 l-49 0 l-83 622 l-297 -622 l-48 0 l-100 732 l61 0 l81 -632 l296 633 l51 0 Z" /><glyph glyph-name="Wacute" unicode="&#x1e82;" d="M594 774 l-52 0 l106 133 l65 0 l-119 -133 ZM574 699 l81 -636 l295 635 l60 0 l-349 -736 l-48 0 l-83 626 l-298 -626 l-47 0 l-100 736 l61 0 l80 -635 l297 636 l51 0 Z" /><glyph glyph-name="Wcircumflex" unicode="&#x174;" d="M558 907 l53 0 l93 -133 l-59 0 l-66 96 l-99 -96 l-62 0 l140 133 ZM574 699 l81 -636 l295 635 l60 0 l-349 -736 l-48 0 l-83 626 l-298 -626 l-47 0 l-100 736 l61 0 l80 -635 l297 636 l51 0 Z" /><glyph glyph-name="Wdieresis" unicode="&#x1e84;" d="M478 808 q-17 0 -29.5 12.5 q-12.5 12.5 -12.5 30.5 q0 18 12 30 q12 12 29 12 q18 0 30 -12 q12 -12 12 -30 q0 -18 -12 -30.5 q-12 -12.5 -29 -12.5 ZM674 808 q-17 0 -29 12.5 q-12 12.5 -12 30.5 q0 18 12 30 q12 12 29 12 q17 0 29.5 -12 q12.5 -12 12.5 -30 q0 -18 -12 -30.5 q-12 -12.5 -30 -12.5 ZM574 699 l81 -636 l295 635 l60 0 l-349 -736 l-48 0 l-83 626 l-298 -626 l-47 0 l-100 736 l61 0 l80 -635 l297 636 l51 0 Z" /><glyph glyph-name="Wgrave" unicode="&#x1e80;" d="M532 774 l-72 133 l61 0 l60 -133 l-49 0 ZM574 699 l81 -636 l295 635 l60 0 l-349 -736 l-48 0 l-83 626 l-298 -626 l-47 0 l-100 736 l61 0 l80 -635 l297 636 l51 0 Z" /><glyph glyph-name="X" unicode="X" d="M333 384 l276 314 l73 0 l-324 -364 l202 -368 l-70 0 l-174 324 l-286 -324 l-73 0 l334 374 l-196 358 l70 0 l168 -314 Z" /><glyph glyph-name="Y" unicode="Y" d="M312 342 l270 356 l68 0 l-321 -418 l-54 -314 l-59 0 l56 318 l-186 414 l65 0 l161 -356 Z" /><glyph glyph-name="Yacute" unicode="Ý" d="M412 774 l-52 0 l106 133 l65 0 l-119 -133 ZM312 342 l270 356 l68 0 l-321 -418 l-54 -314 l-59 0 l56 318 l-186 414 l65 0 l161 -356 Z" /><glyph glyph-name="Ycircumflex" unicode="&#x176;" d="M376 907 l53 0 l93 -133 l-59 0 l-66 96 l-99 -96 l-62 0 l140 133 ZM312 342 l270 356 l68 0 l-321 -418 l-54 -314 l-59 0 l56 318 l-186 414 l65 0 l161 -356 Z" /><glyph glyph-name="Ydieresis" unicode="&#x178;" d="M295 808 q-17 0 -29 12.5 q-12 12.5 -12 30.5 q0 18 12 30 q12 12 29 12 q18 0 30 -12 q12 -12 12 -30 q0 -18 -12 -30.5 q-12 -12.5 -30 -12.5 ZM492 808 q-17 0 -29.5 12.5 q-12.5 12.5 -12.5 30.5 q0 18 12.5 30 q12.5 12 29.5 12 q17 0 29.5 -12 q12.5 -12 12.5 -30 q0 -18 -12.5 -30.5 q-12.5 -12.5 -29.5 -12.5 ZM312 342 l270 356 l68 0 l-321 -418 l-54 -314 l-59 0 l56 318 l-186 414 l65 0 l161 -356 Z" /><glyph glyph-name="uni1EF4" unicode="&#x1ef4;" d="M312 342 l270 356 l68 0 l-321 -418 l-54 -314 l-59 0 l56 318 l-186 414 l65 0 l161 -356 ZM224 -205 q-17 0 -29.5 13 q-12.5 13 -12.5 30 q0 17 12.5 29.5 q12.5 12.5 29.5 12.5 q17 0 29.5 -12.5 q12.5 -12.5 12.5 -29.5 q0 -17 -12.5 -30 q-12.5 -13 -29.5 -13 Z" /><glyph glyph-name="Ygrave" unicode="&#x1ef2;" d="M350 774 l-72 133 l61 0 l60 -133 l-49 0 ZM312 342 l270 356 l68 0 l-321 -418 l-54 -314 l-59 0 l56 318 l-186 414 l65 0 l161 -356 Z" /><glyph glyph-name="uni1EF6" unicode="&#x1ef6;" d="M318 906 q32 16 71 16 q39 0 64 -18.5 q25 -18.5 25 -50.5 q0 -40 -27.5 -62 q-27.5 -22 -78.5 -36 l-22 32 q35 8 54.5 20 q19.5 12 23.5 33 q3 19 -9.5 31.5 q-12.5 12.5 -37.5 12.5 q-27 0 -59 -16 l-4 38 ZM312 342 l270 356 l68 0 l-321 -418 l-54 -314 l-59 0 l56 318 l-186 414 l65 0 l161 -356 Z" /><glyph glyph-name="uni1EF8" unicode="&#x1ef8;" d="M231 793 q9 48 37.5 77 q28.5 29 68.5 29 q25 0 40 -11 q15 -11 29 -30 q11 -15 20.5 -22.5 q9.5 -7.5 22.5 -7.5 q19 0 33.5 15 q14.5 15 21.5 44 l48 0 q-10 -49 -38 -77 q-28 -28 -68 -28 q-26 0 -40 10.5 q-14 10.5 -30 30.5 q-11 14 -20 21.5 q-9 7.5 -22 7.5 q-20 0 -34.5 -15 q-14.5 -15 -21.5 -44 l-47 0 ZM312 342 l270 356 l68 0 l-321 -418 l-54 -314 l-59 0 l56 318 l-186 414 l65 0 l161 -356 Z" /><glyph glyph-name="Z" unicode="Z" d="M121 645 l9 53 l468 0 l-4 -29 l-525 -649 l424 0 l-10 -54 l-511 0 l5 30 l524 649 l-380 0 Z" /><glyph glyph-name="Zacute" unicode="&#x179;" d="M409 775 l-52 0 l106 132 l65 0 l-119 -132 ZM121 645 l9 53 l468 0 l-4 -29 l-525 -649 l424 0 l-10 -54 l-511 0 l5 30 l524 649 l-380 0 Z" /><glyph glyph-name="Zcaron" unicode="&#x17d;" d="M317 907 l66 -95 l98 95 l63 0 l-140 -132 l-53 0 l-93 132 l59 0 ZM121 645 l9 53 l468 0 l-4 -29 l-525 -649 l424 0 l-10 -54 l-511 0 l5 30 l524 649 l-380 0 Z" /><glyph glyph-name="Zdotaccent" unicode="&#x17b;" d="M391 809 q-17 0 -29.5 12.5 q-12.5 12.5 -12.5 29.5 q0 18 12 30.5 q12 12.5 29 12.5 q18 0 30.5 -12.5 q12.5 -12.5 12.5 -30.5 q0 -17 -12.5 -29.5 q-12.5 -12.5 -29.5 -12.5 ZM121 645 l9 53 l468 0 l-4 -29 l-525 -649 l424 0 l-10 -54 l-511 0 l5 30 l524 649 l-380 0 Z" /><glyph glyph-name="a" unicode="a" d="M544 487 l-91 -521 l-48 0 q9 49 14 101 q-31 -58 -78.5 -84.5 q-47.5 -26.5 -99.5 -26.5 q-57 0 -102.5 27.5 q-45.5 27.5 -71.5 79 q-26 51.5 -26 119.5 q0 31 6 65 q14 80 52.5 136.5 q38.5 56.5 91.5 85 q53 28.5 110 28.5 q64 0 108.5 -35.5 q44.5 -35.5 58.5 -98.5 q20 83 28 124 l48 0 ZM248 9 q69 0 121.5 50.5 q52.5 50.5 71.5 157.5 q5 26 5 59 q0 83 -42.5 125 q-42.5 42 -104.5 42 q-70 0 -123.5 -51.5 q-53.5 -51.5 -70.5 -148.5 q-5 -26 -5 -60 q0 -81 40.5 -127.5 q40.5 -46.5 107.5 -46.5 Z" /><glyph glyph-name="aacute" unicode="á" d="M360 561 l-52 0 l106 148 l66 0 l-120 -148 ZM544 487 l-91 -521 l-48 0 q9 49 14 101 q-31 -58 -78.5 -84.5 q-47.5 -26.5 -99.5 -26.5 q-57 0 -102.5 27.5 q-45.5 27.5 -71.5 79 q-26 51.5 -26 119.5 q0 31 6 65 q14 80 52.5 136.5 q38.5 56.5 91.5 85 q53 28.5 110 28.5 q64 0 108.5 -35.5 q44.5 -35.5 58.5 -98.5 q20 83 28 124 l48 0 ZM248 9 q69 0 121.5 50.5 q52.5 50.5 71.5 157.5 q5 26 5 59 q0 83 -42.5 125 q-42.5 42 -104.5 42 q-70 0 -123.5 -51.5 q-53.5 -51.5 -70.5 -148.5 q-5 -26 -5 -60 q0 -81 40.5 -127.5 q40.5 -46.5 107.5 -46.5 Z" /><glyph glyph-name="abreve" unicode="&#x103;" d="M349 564 q-60 0 -94.5 31.5 q-34.5 31.5 -34.5 83.5 q0 17 2 26 l53 0 q-1 -6 -1 -19 q0 -35 20.5 -56 q20.5 -21 58.5 -21 q81 0 102 96 l52 0 q-12 -68 -54 -104.5 q-42 -36.5 -104 -36.5 ZM544 487 l-91 -521 l-48 0 q9 49 14 101 q-31 -58 -78.5 -84.5 q-47.5 -26.5 -99.5 -26.5 q-57 0 -102.5 27.5 q-45.5 27.5 -71.5 79 q-26 51.5 -26 119.5 q0 31 6 65 q14 80 52.5 136.5 q38.5 56.5 91.5 85 q53 28.5 110 28.5 q64 0 108.5 -35.5 q44.5 -35.5 58.5 -98.5 q20 83 28 124 l48 0 ZM248 9 q69 0 121.5 50.5 q52.5 50.5 71.5 157.5 q5 26 5 59 q0 83 -42.5 125 q-42.5 42 -104.5 42 q-70 0 -123.5 -51.5 q-53.5 -51.5 -70.5 -148.5 q-5 -26 -5 -60 q0 -81 40.5 -127.5 q40.5 -46.5 107.5 -46.5 Z" /><glyph glyph-name="uni1EAF" unicode="&#x1eaf;" d="M390 730 l-52 0 l98 132 l65 0 l-111 -132 ZM349 564 q-60 0 -94.5 31.5 q-34.5 31.5 -34.5 83.5 q0 17 2 26 l53 0 q-1 -6 -1 -19 q0 -35 20.5 -56 q20.5 -21 58.5 -21 q81 0 102 96 l52 0 q-12 -68 -54 -104.5 q-42 -36.5 -104 -36.5 ZM544 487 l-91 -521 l-48 0 q9 49 14 101 q-31 -58 -78.5 -84.5 q-47.5 -26.5 -99.5 -26.5 q-57 0 -102.5 27.5 q-45.5 27.5 -71.5 79 q-26 51.5 -26 119.5 q0 31 6 65 q14 80 52.5 136.5 q38.5 56.5 91.5 85 q53 28.5 110 28.5 q64 0 108.5 -35.5 q44.5 -35.5 58.5 -98.5 q20 83 28 124 l48 0 ZM248 9 q69 0 121.5 50.5 q52.5 50.5 71.5 157.5 q5 26 5 59 q0 83 -42.5 125 q-42.5 42 -104.5 42 q-70 0 -123.5 -51.5 q-53.5 -51.5 -70.5 -148.5 q-5 -26 -5 -60 q0 -81 40.5 -127.5 q40.5 -46.5 107.5 -46.5 Z" /><glyph glyph-name="uni1EB7" unicode="&#x1eb7;" d="M349 564 q-60 0 -94.5 31.5 q-34.5 31.5 -34.5 83.5 q0 17 2 26 l53 0 q-1 -6 -1 -19 q0 -35 20.5 -56 q20.5 -21 58.5 -21 q81 0 102 96 l52 0 q-12 -68 -54 -104.5 q-42 -36.5 -104 -36.5 ZM544 487 l-91 -521 l-48 0 q9 49 14 101 q-31 -58 -78.5 -84.5 q-47.5 -26.5 -99.5 -26.5 q-57 0 -102.5 27.5 q-45.5 27.5 -71.5 79 q-26 51.5 -26 119.5 q0 31 6 65 q14 80 52.5 136.5 q38.5 56.5 91.5 85 q53 28.5 110 28.5 q64 0 108.5 -35.5 q44.5 -35.5 58.5 -98.5 q20 83 28 124 l48 0 ZM248 9 q69 0 121.5 50.5 q52.5 50.5 71.5 157.5 q5 26 5 59 q0 83 -42.5 125 q-42.5 42 -104.5 42 q-70 0 -123.5 -51.5 q-53.5 -51.5 -70.5 -148.5 q-5 -26 -5 -60 q0 -81 40.5 -127.5 q40.5 -46.5 107.5 -46.5 ZM241 -205 q-16 0 -28.5 13 q-12.5 13 -12.5 30 q0 17 12.5 29.5 q12.5 12.5 28.5 12.5 q18 0 30 -12.5 q12 -12.5 12 -29.5 q0 -17 -12.5 -30 q-12.5 -13 -29.5 -13 Z" /><glyph glyph-name="uni1EB1" unicode="&#x1eb1;" d="M349 730 l-65 132 l62 0 l53 -132 l-50 0 ZM349 564 q-60 0 -94.5 31.5 q-34.5 31.5 -34.5 83.5 q0 17 2 26 l53 0 q-1 -6 -1 -19 q0 -35 20.5 -56 q20.5 -21 58.5 -21 q81 0 102 96 l52 0 q-12 -68 -54 -104.5 q-42 -36.5 -104 -36.5 ZM544 487 l-91 -521 l-48 0 q9 49 14 101 q-31 -58 -78.5 -84.5 q-47.5 -26.5 -99.5 -26.5 q-57 0 -102.5 27.5 q-45.5 27.5 -71.5 79 q-26 51.5 -26 119.5 q0 31 6 65 q14 80 52.5 136.5 q38.5 56.5 91.5 85 q53 28.5 110 28.5 q64 0 108.5 -35.5 q44.5 -35.5 58.5 -98.5 q20 83 28 124 l48 0 ZM248 9 q69 0 121.5 50.5 q52.5 50.5 71.5 157.5 q5 26 5 59 q0 83 -42.5 125 q-42.5 42 -104.5 42 q-70 0 -123.5 -51.5 q-53.5 -51.5 -70.5 -148.5 q-5 -26 -5 -60 q0 -81 40.5 -127.5 q40.5 -46.5 107.5 -46.5 Z" /><glyph glyph-name="uni1EB3" unicode="&#x1eb3;" d="M308 880 q32 18 71 18 q38 0 63.5 -21 q25.5 -21 25.5 -56 q0 -80 -106 -108 l-23 34 q40 11 59.5 25.5 q19.5 14.5 19.5 42.5 q0 18 -13 29.5 q-13 11.5 -34 11.5 q-28 0 -59 -17 l-4 41 ZM349 564 q-60 0 -94.5 31.5 q-34.5 31.5 -34.5 83.5 q0 17 2 26 l53 0 q-1 -6 -1 -19 q0 -35 20.5 -56 q20.5 -21 58.5 -21 q81 0 102 96 l52 0 q-12 -68 -54 -104.5 q-42 -36.5 -104 -36.5 ZM544 487 l-91 -521 l-48 0 q9 49 14 101 q-31 -58 -78.5 -84.5 q-47.5 -26.5 -99.5 -26.5 q-57 0 -102.5 27.5 q-45.5 27.5 -71.5 79 q-26 51.5 -26 119.5 q0 31 6 65 q14 80 52.5 136.5 q38.5 56.5 91.5 85 q53 28.5 110 28.5 q64 0 108.5 -35.5 q44.5 -35.5 58.5 -98.5 q20 83 28 124 l48 0 ZM248 9 q69 0 121.5 50.5 q52.5 50.5 71.5 157.5 q5 26 5 59 q0 83 -42.5 125 q-42.5 42 -104.5 42 q-70 0 -123.5 -51.5 q-53.5 -51.5 -70.5 -148.5 q-5 -26 -5 -60 q0 -81 40.5 -127.5 q40.5 -46.5 107.5 -46.5 Z" /><glyph glyph-name="uni1EB5" unicode="&#x1eb5;" d="M220 752 q10 52 38 82.5 q28 30.5 69 30.5 q25 0 39.5 -11 q14.5 -11 29.5 -33 q12 -17 20.5 -24.5 q8.5 -7.5 22.5 -7.5 q18 0 33 16.5 q15 16.5 22 47.5 l47 0 q-9 -52 -37.5 -82.5 q-28.5 -30.5 -68.5 -30.5 q-25 0 -40 11.5 q-15 11.5 -29 31.5 q-11 16 -20.5 24 q-9.5 8 -22.5 8 q-19 0 -33.5 -16 q-14.5 -16 -21.5 -47 l-48 0 ZM349 564 q-60 0 -94.5 31.5 q-34.5 31.5 -34.5 83.5 q0 17 2 26 l53 0 q-1 -6 -1 -19 q0 -35 20.5 -56 q20.5 -21 58.5 -21 q81 0 102 96 l52 0 q-12 -68 -54 -104.5 q-42 -36.5 -104 -36.5 ZM544 487 l-91 -521 l-48 0 q9 49 14 101 q-31 -58 -78.5 -84.5 q-47.5 -26.5 -99.5 -26.5 q-57 0 -102.5 27.5 q-45.5 27.5 -71.5 79 q-26 51.5 -26 119.5 q0 31 6 65 q14 80 52.5 136.5 q38.5 56.5 91.5 85 q53 28.5 110 28.5 q64 0 108.5 -35.5 q44.5 -35.5 58.5 -98.5 q20 83 28 124 l48 0 ZM248 9 q69 0 121.5 50.5 q52.5 50.5 71.5 157.5 q5 26 5 59 q0 83 -42.5 125 q-42.5 42 -104.5 42 q-70 0 -123.5 -51.5 q-53.5 -51.5 -70.5 -148.5 q-5 -26 -5 -60 q0 -81 40.5 -127.5 q40.5 -46.5 107.5 -46.5 Z" /><glyph glyph-name="uni01CE" unicode="&#x1ce;" d="M285 709 l60 -105 l96 105 l60 0 l-136 -148 l-51 0 l-84 148 l55 0 ZM544 487 l-91 -521 l-48 0 q9 49 14 101 q-31 -58 -78.5 -84.5 q-47.5 -26.5 -99.5 -26.5 q-57 0 -102.5 27.5 q-45.5 27.5 -71.5 79 q-26 51.5 -26 119.5 q0 31 6 65 q14 80 52.5 136.5 q38.5 56.5 91.5 85 q53 28.5 110 28.5 q64 0 108.5 -35.5 q44.5 -35.5 58.5 -98.5 q20 83 28 124 l48 0 ZM248 9 q69 0 121.5 50.5 q52.5 50.5 71.5 157.5 q5 26 5 59 q0 83 -42.5 125 q-42.5 42 -104.5 42 q-70 0 -123.5 -51.5 q-53.5 -51.5 -70.5 -148.5 q-5 -26 -5 -60 q0 -81 40.5 -127.5 q40.5 -46.5 107.5 -46.5 Z" /><glyph glyph-name="acircumflex" unicode="â" d="M338 709 l51 0 l85 -148 l-56 0 l-60 106 l-96 -106 l-60 0 l136 148 ZM544 487 l-91 -521 l-48 0 q9 49 14 101 q-31 -58 -78.5 -84.5 q-47.5 -26.5 -99.5 -26.5 q-57 0 -102.5 27.5 q-45.5 27.5 -71.5 79 q-26 51.5 -26 119.5 q0 31 6 65 q14 80 52.5 136.5 q38.5 56.5 91.5 85 q53 28.5 110 28.5 q64 0 108.5 -35.5 q44.5 -35.5 58.5 -98.5 q20 83 28 124 l48 0 ZM248 9 q69 0 121.5 50.5 q52.5 50.5 71.5 157.5 q5 26 5 59 q0 83 -42.5 125 q-42.5 42 -104.5 42 q-70 0 -123.5 -51.5 q-53.5 -51.5 -70.5 -148.5 q-5 -26 -5 -60 q0 -81 40.5 -127.5 q40.5 -46.5 107.5 -46.5 Z" /><glyph glyph-name="uni1EA5" unicode="&#x1ea5;" d="M493 730 l-52 0 l99 132 l65 0 l-112 -132 ZM336 709 l51 0 l84 -148 l-56 0 l-60 106 l-96 -106 l-59 0 l136 148 ZM544 487 l-91 -521 l-48 0 q9 49 14 101 q-31 -58 -78.5 -84.5 q-47.5 -26.5 -99.5 -26.5 q-57 0 -102.5 27.5 q-45.5 27.5 -71.5 79 q-26 51.5 -26 119.5 q0 31 6 65 q14 80 52.5 136.5 q38.5 56.5 91.5 85 q53 28.5 110 28.5 q64 0 108.5 -35.5 q44.5 -35.5 58.5 -98.5 q20 83 28 124 l48 0 ZM248 9 q69 0 121.5 50.5 q52.5 50.5 71.5 157.5 q5 26 5 59 q0 83 -42.5 125 q-42.5 42 -104.5 42 q-70 0 -123.5 -51.5 q-53.5 -51.5 -70.5 -148.5 q-5 -26 -5 -60 q0 -81 40.5 -127.5 q40.5 -46.5 107.5 -46.5 Z" /><glyph glyph-name="uni1EAD" unicode="&#x1ead;" d="M338 709 l51 0 l85 -148 l-56 0 l-60 106 l-96 -106 l-60 0 l136 148 ZM544 487 l-91 -521 l-48 0 q9 49 14 101 q-31 -58 -78.5 -84.5 q-47.5 -26.5 -99.5 -26.5 q-57 0 -102.5 27.5 q-45.5 27.5 -71.5 79 q-26 51.5 -26 119.5 q0 31 6 65 q14 80 52.5 136.5 q38.5 56.5 91.5 85 q53 28.5 110 28.5 q64 0 108.5 -35.5 q44.5 -35.5 58.5 -98.5 q20 83 28 124 l48 0 ZM248 9 q69 0 121.5 50.5 q52.5 50.5 71.5 157.5 q5 26 5 59 q0 83 -42.5 125 q-42.5 42 -104.5 42 q-70 0 -123.5 -51.5 q-53.5 -51.5 -70.5 -148.5 q-5 -26 -5 -60 q0 -81 40.5 -127.5 q40.5 -46.5 107.5 -46.5 ZM241 -205 q-16 0 -28.5 13 q-12.5 13 -12.5 30 q0 17 12.5 29.5 q12.5 12.5 28.5 12.5 q18 0 30 -12.5 q12 -12.5 12 -29.5 q0 -17 -12.5 -30 q-12.5 -13 -29.5 -13 Z" /><glyph glyph-name="uni1EA7" unicode="&#x1ea7;" d="M453 730 l-65 132 l62 0 l52 -132 l-49 0 ZM336 709 l51 0 l84 -148 l-56 0 l-60 106 l-96 -106 l-59 0 l136 148 ZM544 487 l-91 -521 l-48 0 q9 49 14 101 q-31 -58 -78.5 -84.5 q-47.5 -26.5 -99.5 -26.5 q-57 0 -102.5 27.5 q-45.5 27.5 -71.5 79 q-26 51.5 -26 119.5 q0 31 6 65 q14 80 52.5 136.5 q38.5 56.5 91.5 85 q53 28.5 110 28.5 q64 0 108.5 -35.5 q44.5 -35.5 58.5 -98.5 q20 83 28 124 l48 0 ZM248 9 q69 0 121.5 50.5 q52.5 50.5 71.5 157.5 q5 26 5 59 q0 83 -42.5 125 q-42.5 42 -104.5 42 q-70 0 -123.5 -51.5 q-53.5 -51.5 -70.5 -148.5 q-5 -26 -5 -60 q0 -81 40.5 -127.5 q40.5 -46.5 107.5 -46.5 Z" /><glyph glyph-name="uni1EA9" unicode="&#x1ea9;" d="M412 860 q33 18 72 18 q38 0 63.5 -21 q25.5 -21 25.5 -56 q0 -80 -107 -108 l-22 34 q40 11 59.5 25.5 q19.5 14.5 19.5 42.5 q0 18 -13 29.5 q-13 11.5 -34 11.5 q-28 0 -59 -17 l-5 41 ZM336 709 l51 0 l84 -148 l-56 0 l-60 106 l-96 -106 l-59 0 l136 148 ZM544 487 l-91 -521 l-48 0 q9 49 14 101 q-31 -58 -78.5 -84.5 q-47.5 -26.5 -99.5 -26.5 q-57 0 -102.5 27.5 q-45.5 27.5 -71.5 79 q-26 51.5 -26 119.5 q0 31 6 65 q14 80 52.5 136.5 q38.5 56.5 91.5 85 q53 28.5 110 28.5 q64 0 108.5 -35.5 q44.5 -35.5 58.5 -98.5 q20 83 28 124 l48 0 ZM248 9 q69 0 121.5 50.5 q52.5 50.5 71.5 157.5 q5 26 5 59 q0 83 -42.5 125 q-42.5 42 -104.5 42 q-70 0 -123.5 -51.5 q-53.5 -51.5 -70.5 -148.5 q-5 -26 -5 -60 q0 -81 40.5 -127.5 q40.5 -46.5 107.5 -46.5 Z" /><glyph glyph-name="uni1EAB" unicode="&#x1eab;" d="M539 853 q-10 -52 -38 -82.5 q-28 -30.5 -69 -30.5 q-25 0 -39 11 q-14 11 -30 32 q-12 17 -20.5 24.5 q-8.5 7.5 -22.5 7.5 q-19 0 -33.5 -16 q-14.5 -16 -21.5 -47 l-47 0 q9 52 37.5 82.5 q28.5 30.5 68.5 30.5 q25 0 40 -11.5 q15 -11.5 29 -32.5 q11 -16 20.5 -24 q9.5 -8 22.5 -8 q19 0 33.5 16.5 q14.5 16.5 21.5 47.5 l48 0 ZM337 709 l51 0 l84 -148 l-57 0 l-59 106 l-96 -106 l-59 0 l136 148 ZM544 487 l-91 -521 l-48 0 q9 49 14 101 q-31 -58 -78.5 -84.5 q-47.5 -26.5 -99.5 -26.5 q-57 0 -102.5 27.5 q-45.5 27.5 -71.5 79 q-26 51.5 -26 119.5 q0 31 6 65 q14 80 52.5 136.5 q38.5 56.5 91.5 85 q53 28.5 110 28.5 q64 0 108.5 -35.5 q44.5 -35.5 58.5 -98.5 q20 83 28 124 l48 0 ZM248 9 q69 0 121.5 50.5 q52.5 50.5 71.5 157.5 q5 26 5 59 q0 83 -42.5 125 q-42.5 42 -104.5 42 q-70 0 -123.5 -51.5 q-53.5 -51.5 -70.5 -148.5 q-5 -26 -5 -60 q0 -81 40.5 -127.5 q40.5 -46.5 107.5 -46.5 Z" /><glyph glyph-name="adieresis" unicode="ä" d="M254 596 q-17 0 -29 12.5 q-12 12.5 -12 30.5 q0 17 12 29.5 q12 12.5 29 12.5 q17 0 29.5 -12.5 q12.5 -12.5 12.5 -29.5 q0 -18 -12 -30.5 q-12 -12.5 -30 -12.5 ZM451 596 q-17 0 -29.5 12.5 q-12.5 12.5 -12.5 30.5 q0 17 12 29.5 q12 12.5 29 12.5 q18 0 30 -12.5 q12 -12.5 12 -29.5 q0 -18 -12 -30.5 q-12 -12.5 -29 -12.5 ZM544 487 l-91 -521 l-48 0 q9 49 14 101 q-31 -58 -78.5 -84.5 q-47.5 -26.5 -99.5 -26.5 q-57 0 -102.5 27.5 q-45.5 27.5 -71.5 79 q-26 51.5 -26 119.5 q0 31 6 65 q14 80 52.5 136.5 q38.5 56.5 91.5 85 q53 28.5 110 28.5 q64 0 108.5 -35.5 q44.5 -35.5 58.5 -98.5 q20 83 28 124 l48 0 ZM248 9 q69 0 121.5 50.5 q52.5 50.5 71.5 157.5 q5 26 5 59 q0 83 -42.5 125 q-42.5 42 -104.5 42 q-70 0 -123.5 -51.5 q-53.5 -51.5 -70.5 -148.5 q-5 -26 -5 -60 q0 -81 40.5 -127.5 q40.5 -46.5 107.5 -46.5 Z" /><glyph glyph-name="uni1EA1" unicode="&#x1ea1;" d="M544 487 l-91 -521 l-48 0 q9 49 14 101 q-31 -58 -78.5 -84.5 q-47.5 -26.5 -99.5 -26.5 q-57 0 -102.5 27.5 q-45.5 27.5 -71.5 79 q-26 51.5 -26 119.5 q0 31 6 65 q14 80 52.5 136.5 q38.5 56.5 91.5 85 q53 28.5 110 28.5 q64 0 108.5 -35.5 q44.5 -35.5 58.5 -98.5 q20 83 28 124 l48 0 ZM248 9 q69 0 121.5 50.5 q52.5 50.5 71.5 157.5 q5 26 5 59 q0 83 -42.5 125 q-42.5 42 -104.5 42 q-70 0 -123.5 -51.5 q-53.5 -51.5 -70.5 -148.5 q-5 -26 -5 -60 q0 -81 40.5 -127.5 q40.5 -46.5 107.5 -46.5 ZM241 -205 q-16 0 -28.5 13 q-12.5 13 -12.5 30 q0 17 12.5 29.5 q12.5 12.5 28.5 12.5 q18 0 30 -12.5 q12 -12.5 12 -29.5 q0 -17 -12.5 -30 q-12.5 -13 -29.5 -13 Z" /><glyph glyph-name="agrave" unicode="à" d="M319 561 l-67 148 l61 0 l55 -148 l-49 0 ZM544 487 l-91 -521 l-48 0 q9 49 14 101 q-31 -58 -78.5 -84.5 q-47.5 -26.5 -99.5 -26.5 q-57 0 -102.5 27.5 q-45.5 27.5 -71.5 79 q-26 51.5 -26 119.5 q0 31 6 65 q14 80 52.5 136.5 q38.5 56.5 91.5 85 q53 28.5 110 28.5 q64 0 108.5 -35.5 q44.5 -35.5 58.5 -98.5 q20 83 28 124 l48 0 ZM248 9 q69 0 121.5 50.5 q52.5 50.5 71.5 157.5 q5 26 5 59 q0 83 -42.5 125 q-42.5 42 -104.5 42 q-70 0 -123.5 -51.5 q-53.5 -51.5 -70.5 -148.5 q-5 -26 -5 -60 q0 -81 40.5 -127.5 q40.5 -46.5 107.5 -46.5 Z" /><glyph glyph-name="uni1EA3" unicode="&#x1ea3;" d="M278 711 q33 18 71 18 q38 0 63.5 -20.5 q25.5 -20.5 25.5 -55.5 q0 -44 -28.5 -69.5 q-28.5 -25.5 -77.5 -39.5 l-22 34 q35 10 54.5 23.5 q19.5 13.5 23.5 35.5 q3 22 -9.5 36 q-12.5 14 -37.5 14 q-28 0 -59 -17 l-4 41 ZM544 487 l-91 -521 l-48 0 q9 49 14 101 q-31 -58 -78.5 -84.5 q-47.5 -26.5 -99.5 -26.5 q-57 0 -102.5 27.5 q-45.5 27.5 -71.5 79 q-26 51.5 -26 119.5 q0 31 6 65 q14 80 52.5 136.5 q38.5 56.5 91.5 85 q53 28.5 110 28.5 q64 0 108.5 -35.5 q44.5 -35.5 58.5 -98.5 q20 83 28 124 l48 0 ZM248 9 q69 0 121.5 50.5 q52.5 50.5 71.5 157.5 q5 26 5 59 q0 83 -42.5 125 q-42.5 42 -104.5 42 q-70 0 -123.5 -51.5 q-53.5 -51.5 -70.5 -148.5 q-5 -26 -5 -60 q0 -81 40.5 -127.5 q40.5 -46.5 107.5 -46.5 Z" /><glyph glyph-name="uni0251" unicode="&#x251;" d="M544 487 l-91 -521 l-48 0 q9 49 14 101 q-31 -58 -78.5 -84.5 q-47.5 -26.5 -99.5 -26.5 q-57 0 -102.5 27.5 q-45.5 27.5 -71.5 79 q-26 51.5 -26 119.5 q0 31 6 65 q14 80 52.5 136.5 q38.5 56.5 91.5 85 q53 28.5 110 28.5 q64 0 108.5 -35.5 q44.5 -35.5 58.5 -98.5 q20 83 28 124 l48 0 ZM248 9 q69 0 121.5 50.5 q52.5 50.5 71.5 157.5 q5 26 5 59 q0 83 -42.5 125 q-42.5 42 -104.5 42 q-70 0 -123.5 -51.5 q-53.5 -51.5 -70.5 -148.5 q-5 -26 -5 -60 q0 -81 40.5 -127.5 q40.5 -46.5 107.5 -46.5 Z" /><glyph glyph-name="amacron" unicode="&#x101;" d="M495 613 l-293 0 l9 51 l292 0 l-8 -51 ZM544 487 l-91 -521 l-48 0 q9 49 14 101 q-31 -58 -78.5 -84.5 q-47.5 -26.5 -99.5 -26.5 q-57 0 -102.5 27.5 q-45.5 27.5 -71.5 79 q-26 51.5 -26 119.5 q0 31 6 65 q14 80 52.5 136.5 q38.5 56.5 91.5 85 q53 28.5 110 28.5 q64 0 108.5 -35.5 q44.5 -35.5 58.5 -98.5 q20 83 28 124 l48 0 ZM248 9 q69 0 121.5 50.5 q52.5 50.5 71.5 157.5 q5 26 5 59 q0 83 -42.5 125 q-42.5 42 -104.5 42 q-70 0 -123.5 -51.5 q-53.5 -51.5 -70.5 -148.5 q-5 -26 -5 -60 q0 -81 40.5 -127.5 q40.5 -46.5 107.5 -46.5 Z" /><glyph glyph-name="aogonek" unicode="&#x105;" d="M372 -236 q42 0 85 38 l21 -34 q-22 -22 -50 -35 q-28 -13 -59 -13 q-43 0 -73 24 q-30 24 -30 68 q0 60 37.5 99.5 q37.5 39.5 103.5 72.5 q10 57 12 83 q-31 -58 -78.5 -84.5 q-47.5 -26.5 -99.5 -26.5 q-57 0 -102.5 27.5 q-45.5 27.5 -71.5 79 q-26 51.5 -26 119.5 q0 31 6 65 q14 80 52.5 136.5 q38.5 56.5 91.5 85 q53 28.5 110 28.5 q64 0 108.5 -35.5 q44.5 -35.5 58.5 -98.5 q20 83 28 124 l48 0 l-91 -521 q-63 -31 -96 -61 q-33 -30 -40 -70 q-1 -6 -1 -17 q0 -27 15.5 -40.5 q15.5 -13.5 40.5 -13.5 ZM248 9 q69 0 121.5 50.5 q52.5 50.5 71.5 157.5 q5 26 5 59 q0 83 -42.5 125 q-42.5 42 -104.5 42 q-70 0 -123.5 -51.5 q-53.5 -51.5 -70.5 -148.5 q-5 -26 -5 -60 q0 -81 40.5 -127.5 q40.5 -46.5 107.5 -46.5 Z" /><glyph glyph-name="aring" unicode="å" d="M261 652 q0 40 27 66.5 q27 26.5 67 26.5 q39 0 65 -26.5 q26 -26.5 26 -66.5 q0 -41 -26 -67.5 q-26 -26.5 -65 -26.5 q-40 0 -67 26.5 q-27 26.5 -27 67.5 ZM301 652 q0 -25 15 -41 q15 -16 39 -16 q23 0 37.5 16 q14.5 16 14.5 41 q0 25 -14.5 40.5 q-14.5 15.5 -37.5 15.5 q-24 0 -39 -15.5 q-15 -15.5 -15 -40.5 ZM544 487 l-91 -521 l-48 0 q9 49 14 101 q-31 -58 -78.5 -84.5 q-47.5 -26.5 -99.5 -26.5 q-57 0 -102.5 27.5 q-45.5 27.5 -71.5 79 q-26 51.5 -26 119.5 q0 31 6 65 q14 80 52.5 136.5 q38.5 56.5 91.5 85 q53 28.5 110 28.5 q64 0 108.5 -35.5 q44.5 -35.5 58.5 -98.5 q20 83 28 124 l48 0 ZM248 9 q69 0 121.5 50.5 q52.5 50.5 71.5 157.5 q5 26 5 59 q0 83 -42.5 125 q-42.5 42 -104.5 42 q-70 0 -123.5 -51.5 q-53.5 -51.5 -70.5 -148.5 q-5 -26 -5 -60 q0 -81 40.5 -127.5 q40.5 -46.5 107.5 -46.5 Z" /><glyph glyph-name="aringacute" unicode="&#x1fb;" d="M397 771 l-52 0 l99 117 l65 0 l-112 -117 ZM265 637 q0 37 25 61 q25 24 62 24 q36 0 60 -24 q24 -24 24 -61 q0 -37 -24 -61.5 q-24 -24.5 -60 -24.5 q-36 0 -61.5 24.5 q-25.5 24.5 -25.5 61.5 ZM302 637 q0 -22 14 -37 q14 -15 36 -15 q21 0 34.5 15 q13.5 15 13.5 37 q0 23 -13.5 37.5 q-13.5 14.5 -34.5 14.5 q-22 0 -36 -14.5 q-14 -14.5 -14 -37.5 ZM544 487 l-91 -521 l-48 0 q9 49 14 101 q-31 -58 -78.5 -84.5 q-47.5 -26.5 -99.5 -26.5 q-57 0 -102.5 27.5 q-45.5 27.5 -71.5 79 q-26 51.5 -26 119.5 q0 31 6 65 q14 80 52.5 136.5 q38.5 56.5 91.5 85 q53 28.5 110 28.5 q64 0 108.5 -35.5 q44.5 -35.5 58.5 -98.5 q20 83 28 124 l48 0 ZM248 9 q69 0 121.5 50.5 q52.5 50.5 71.5 157.5 q5 26 5 59 q0 83 -42.5 125 q-42.5 42 -104.5 42 q-70 0 -123.5 -51.5 q-53.5 -51.5 -70.5 -148.5 q-5 -26 -5 -60 q0 -81 40.5 -127.5 q40.5 -46.5 107.5 -46.5 Z" /><glyph glyph-name="uni1E01" unicode="&#x1e01;" d="M544 487 l-91 -521 l-48 0 q9 49 14 101 q-31 -58 -78.5 -84.5 q-47.5 -26.5 -99.5 -26.5 q-57 0 -102.5 27.5 q-45.5 27.5 -71.5 79 q-26 51.5 -26 119.5 q0 31 6 65 q14 80 52.5 136.5 q38.5 56.5 91.5 85 q53 28.5 110 28.5 q64 0 108.5 -35.5 q44.5 -35.5 58.5 -98.5 q20 83 28 124 l48 0 ZM248 9 q69 0 121.5 50.5 q52.5 50.5 71.5 157.5 q5 26 5 59 q0 83 -42.5 125 q-42.5 42 -104.5 42 q-70 0 -123.5 -51.5 q-53.5 -51.5 -70.5 -148.5 q-5 -26 -5 -60 q0 -81 40.5 -127.5 q40.5 -46.5 107.5 -46.5 ZM146 -170 q0 40 27 66.5 q27 26.5 67 26.5 q39 0 65 -26.5 q26 -26.5 26 -66.5 q0 -41 -26 -67 q-26 -26 -65 -26 q-40 0 -67 26 q-27 26 -27 67 ZM186 -170 q0 -24 15 -40 q15 -16 39 -16 q23 0 37.5 16 q14.5 16 14.5 40 q0 25 -14.5 40.5 q-14.5 15.5 -37.5 15.5 q-24 0 -39 -15.5 q-15 -15.5 -15 -40.5 Z" /><glyph glyph-name="atilde" unicode="ã" d="M191 583 q9 52 37.5 82.5 q28.5 30.5 68.5 30.5 q25 0 40 -11.5 q15 -11.5 29 -31.5 q11 -16 20.5 -24 q9.5 -8 22.5 -8 q19 0 33.5 16 q14.5 16 21.5 47 l48 0 q-10 -52 -38 -82.5 q-28 -30.5 -69 -30.5 q-25 0 -39.5 11 q-14.5 11 -29.5 33 q-12 17 -20.5 24.5 q-8.5 7.5 -22.5 7.5 q-19 0 -33.5 -16.5 q-14.5 -16.5 -21.5 -47.5 l-47 0 ZM544 487 l-91 -521 l-48 0 q9 49 14 101 q-31 -58 -78.5 -84.5 q-47.5 -26.5 -99.5 -26.5 q-57 0 -102.5 27.5 q-45.5 27.5 -71.5 79 q-26 51.5 -26 119.5 q0 31 6 65 q14 80 52.5 136.5 q38.5 56.5 91.5 85 q53 28.5 110 28.5 q64 0 108.5 -35.5 q44.5 -35.5 58.5 -98.5 q20 83 28 124 l48 0 ZM248 9 q69 0 121.5 50.5 q52.5 50.5 71.5 157.5 q5 26 5 59 q0 83 -42.5 125 q-42.5 42 -104.5 42 q-70 0 -123.5 -51.5 q-53.5 -51.5 -70.5 -148.5 q-5 -26 -5 -60 q0 -81 40.5 -127.5 q40.5 -46.5 107.5 -46.5 Z" /><glyph glyph-name="ae" unicode="æ" d="M616 9 q94 0 148 85 l41 -29 q-31 -54 -82 -81.5 q-51 -27.5 -112 -27.5 q-73 0 -123.5 40 q-50.5 40 -67.5 111 q-24 -74 -82 -112.5 q-58 -38.5 -131 -38.5 q-75 0 -124.5 39 q-49.5 39 -49.5 104 q0 15 3 31 q14 75 77.5 113.5 q63.5 38.5 167.5 38.5 q63 0 131 -13 l2 12 q5 30 5 50 q0 57 -30.5 85.5 q-30.5 28.5 -89.5 28.5 q-98 0 -151 -81 l-41 29 q30 51 82 77.5 q52 26.5 115 26.5 q67 0 110 -32 q43 -32 50 -92 q37 61 94.5 92.5 q57.5 31.5 121.5 31.5 q71 0 111.5 -37 q40.5 -37 40.5 -99 q0 -72 -62 -112.5 q-62 -40.5 -191 -40.5 q-57 0 -119 7 q-1 -10 -1 -29 q0 -83 43.5 -130 q43.5 -47 113.5 -47 ZM675 445 q-72 0 -129 -46 q-57 -46 -78 -137 q68 -7 107 -7 q100 0 150.5 27.5 q50.5 27.5 50.5 78.5 q0 39 -26 61.5 q-26 22.5 -75 22.5 ZM404 223 q-71 11 -120 11 q-85 0 -132.5 -28 q-47.5 -28 -57.5 -83 q-2 -16 -2 -22 q0 -45 32.5 -70.5 q32.5 -25.5 84.5 -25.5 q65 0 118 40 q53 40 65 113 l12 65 Z" /><glyph glyph-name="aeacute" unicode="&#x1fd;" d="M549 709 l66 0 l-120 -148 l-52 0 l106 148 ZM616 9 q94 0 148 85 l41 -29 q-31 -54 -82 -81.5 q-51 -27.5 -112 -27.5 q-73 0 -123.5 40 q-50.5 40 -67.5 111 q-24 -74 -82 -112.5 q-58 -38.5 -131 -38.5 q-75 0 -124.5 39 q-49.5 39 -49.5 104 q0 15 3 31 q14 75 77.5 113.5 q63.5 38.5 167.5 38.5 q63 0 131 -13 l2 12 q5 30 5 50 q0 57 -30.5 85.5 q-30.5 28.5 -89.5 28.5 q-98 0 -151 -81 l-41 29 q30 51 82 77.5 q52 26.5 115 26.5 q67 0 110 -32 q43 -32 50 -92 q37 61 94.5 92.5 q57.5 31.5 121.5 31.5 q71 0 111.5 -37 q40.5 -37 40.5 -99 q0 -72 -62 -112.5 q-62 -40.5 -191 -40.5 q-57 0 -119 7 q-1 -10 -1 -29 q0 -83 43.5 -130 q43.5 -47 113.5 -47 ZM675 445 q-72 0 -129 -46 q-57 -46 -78 -137 q68 -7 107 -7 q100 0 150.5 27.5 q50.5 27.5 50.5 78.5 q0 39 -26 61.5 q-26 22.5 -75 22.5 ZM404 223 q-71 11 -120 11 q-85 0 -132.5 -28 q-47.5 -28 -57.5 -83 q-2 -16 -2 -22 q0 -45 32.5 -70.5 q32.5 -25.5 84.5 -25.5 q65 0 118 40 q53 40 65 113 l12 65 Z" /><glyph glyph-name="b" unicode="b" d="M334 497 q57 0 102 -27.5 q45 -27.5 71 -79 q26 -51.5 26 -119.5 q0 -30 -6 -65 q-13 -80 -52 -136.5 q-39 -56.5 -92 -85 q-53 -28.5 -110 -28.5 q-64 0 -108.5 36.5 q-44.5 36.5 -58.5 98.5 q-11 -37 -27 -125 l-49 0 l132 760 l56 0 l-57 -331 q32 53 77.5 77.5 q45.5 24.5 95.5 24.5 ZM276 10 q69 0 122.5 51.5 q53.5 51.5 70.5 148.5 q6 33 6 61 q0 80 -40.5 126.5 q-40.5 46.5 -107.5 46.5 q-65 0 -120 -47 q-55 -47 -73 -157 q-6 -34 -6 -63 q0 -83 42.5 -125 q42.5 -42 105.5 -42 Z" /><glyph glyph-name="c" unicode="c" d="M256 10 q83 0 131 73 l42 -31 q-33 -52 -78.5 -74 q-45.5 -22 -96.5 -22 q-64 0 -112 29.5 q-48 29.5 -74 82 q-26 52.5 -26 119.5 q0 31 6 62 q13 78 52 134 q39 56 93.5 85 q54.5 29 113.5 29 q63 0 109.5 -31.5 q46.5 -31.5 59.5 -84.5 l-47 -22 q-11 39 -44.5 61.5 q-33.5 22.5 -80.5 22.5 q-70 0 -126 -51.5 q-56 -51.5 -72 -146.5 q-5 -33 -5 -57 q0 -80 41.5 -129 q41.5 -49 113.5 -49 Z" /><glyph glyph-name="cacute" unicode="&#x107;" d="M346 561 l-52 0 l106 148 l66 0 l-120 -148 ZM256 10 q83 0 131 73 l42 -31 q-33 -52 -78.5 -74 q-45.5 -22 -96.5 -22 q-64 0 -112 29.5 q-48 29.5 -74 82 q-26 52.5 -26 119.5 q0 31 6 62 q13 78 52 134 q39 56 93.5 85 q54.5 29 113.5 29 q63 0 109.5 -31.5 q46.5 -31.5 59.5 -84.5 l-47 -22 q-11 39 -44.5 61.5 q-33.5 22.5 -80.5 22.5 q-70 0 -126 -51.5 q-56 -51.5 -72 -146.5 q-5 -33 -5 -57 q0 -80 41.5 -129 q41.5 -49 113.5 -49 Z" /><glyph glyph-name="ccaron" unicode="&#x10d;" d="M271 709 l60 -106 l96 106 l60 0 l-136 -148 l-51 0 l-84 148 l55 0 ZM256 10 q83 0 131 73 l42 -31 q-33 -52 -78.5 -74 q-45.5 -22 -96.5 -22 q-64 0 -112 29.5 q-48 29.5 -74 82 q-26 52.5 -26 119.5 q0 31 6 62 q13 78 52 134 q39 56 93.5 85 q54.5 29 113.5 29 q63 0 109.5 -31.5 q46.5 -31.5 59.5 -84.5 l-47 -22 q-11 39 -44.5 61.5 q-33.5 22.5 -80.5 22.5 q-70 0 -126 -51.5 q-56 -51.5 -72 -146.5 q-5 -33 -5 -57 q0 -80 41.5 -129 q41.5 -49 113.5 -49 Z" /><glyph glyph-name="ccedilla" unicode="ç" d="M304 443 q-70 0 -126 -51.5 q-56 -51.5 -72 -146.5 q-5 -33 -5 -57 q0 -80 41.5 -129 q41.5 -49 113.5 -49 q83 0 131 73 l42 -31 q-62 -96 -179 -96 l-1 0 l-35 -63 q45 -1 71.5 -21 q26.5 -20 26.5 -56 q0 -50 -38 -73.5 q-38 -23.5 -92 -23.5 q-39 0 -68 10 l4 42 q30 -10 66 -10 q71 0 78 43 q4 24 -16 36.5 q-20 12.5 -61 12.5 q-18 0 -27 -1 l-3 27 l47 83 q-74 16 -117 77 q-43 61 -43 147 q0 30 6 63 q13 78 52 134 q39 56 93.5 85 q54.5 29 113.5 29 q63 0 109.5 -31.5 q46.5 -31.5 59.5 -84.5 l-47 -22 q-11 39 -44.5 61.5 q-33.5 22.5 -80.5 22.5 Z" /><glyph glyph-name="ccircumflex" unicode="&#x109;" d="M324 709 l51 0 l85 -148 l-56 0 l-60 105 l-96 -105 l-60 0 l136 148 ZM256 10 q83 0 131 73 l42 -31 q-33 -52 -78.5 -74 q-45.5 -22 -96.5 -22 q-64 0 -112 29.5 q-48 29.5 -74 82 q-26 52.5 -26 119.5 q0 31 6 62 q13 78 52 134 q39 56 93.5 85 q54.5 29 113.5 29 q63 0 109.5 -31.5 q46.5 -31.5 59.5 -84.5 l-47 -22 q-11 39 -44.5 61.5 q-33.5 22.5 -80.5 22.5 q-70 0 -126 -51.5 q-56 -51.5 -72 -146.5 q-5 -33 -5 -57 q0 -80 41.5 -129 q41.5 -49 113.5 -49 Z" /><glyph glyph-name="cdotaccent" unicode="&#x10b;" d="M339 600 q-17 0 -29 12.5 q-12 12.5 -12 29.5 q0 17 12.5 30 q12.5 13 28.5 13 q18 0 30 -12.5 q12 -12.5 12 -30.5 q0 -17 -12.5 -29.5 q-12.5 -12.5 -29.5 -12.5 ZM256 10 q83 0 131 73 l42 -31 q-33 -52 -78.5 -74 q-45.5 -22 -96.5 -22 q-64 0 -112 29.5 q-48 29.5 -74 82 q-26 52.5 -26 119.5 q0 31 6 62 q13 78 52 134 q39 56 93.5 85 q54.5 29 113.5 29 q63 0 109.5 -31.5 q46.5 -31.5 59.5 -84.5 l-47 -22 q-11 39 -44.5 61.5 q-33.5 22.5 -80.5 22.5 q-70 0 -126 -51.5 q-56 -51.5 -72 -146.5 q-5 -33 -5 -57 q0 -80 41.5 -129 q41.5 -49 113.5 -49 Z" /><glyph glyph-name="d" unicode="d" d="M530 726 l56 0 l-133 -760 l-48 0 q11 73 14 100 q-32 -57 -79 -83.5 q-47 -26.5 -99 -26.5 q-57 0 -102.5 27.5 q-45.5 27.5 -71.5 79 q-26 51.5 -26 119.5 q0 31 6 65 q14 80 52.5 136.5 q38.5 56.5 91.5 85 q53 28.5 110 28.5 q64 0 108 -35 q44 -35 58 -96 l63 360 ZM248 9 q64 0 119.5 47.5 q55.5 47.5 73.5 156.5 q6 33 6 62 q0 84 -42.5 126 q-42.5 42 -105.5 42 q-70 0 -123.5 -51.5 q-53.5 -51.5 -70.5 -148.5 q-5 -26 -5 -60 q0 -81 40.5 -127.5 q40.5 -46.5 107.5 -46.5 Z" /><glyph glyph-name="eth" unicode="ð" d="M521 737 l21 -43 l-127 -66 q58 -66 85.5 -151 q27.5 -85 27.5 -173 q0 -50 -7 -88 q-15 -84 -56.5 -142.5 q-41.5 -58.5 -98.5 -88 q-57 -29.5 -119 -29.5 q-62 0 -108.5 29 q-46.5 29 -71.5 80.5 q-25 51.5 -25 116.5 q0 35 5 61 q14 77 54 135 q40 58 97.5 89 q57.5 31 119.5 31 q48 0 84 -21 q36 -21 56 -60 q-22 113 -90 187 l-150 -79 l-19 43 l132 69 q-43 39 -101 63 l33 37 q66 -29 117 -74 l141 74 ZM461 218 q5 32 5 54 q0 77 -40.5 124.5 q-40.5 47.5 -108.5 47.5 q-48 0 -92.5 -25 q-44.5 -25 -76 -72 q-31.5 -47 -43.5 -111 q-5 -32 -5 -54 q0 -77 40.5 -125 q40.5 -48 108.5 -48 q49 0 93 24.5 q44 24.5 76 72 q32 47.5 43 112.5 Z" /><glyph glyph-name="dcaron" unicode="&#x10f;" d="M695 737 q16 0 26.5 -10.5 q10.5 -10.5 10.5 -31.5 q0 -5 -2 -19 q-8 -42 -36 -70 q-28 -28 -74 -36 l3 31 q56 15 70 61 l-4 0 q-15 0 -23.5 9.5 q-8.5 9.5 -8.5 22.5 q0 18 11 30.5 q11 12.5 27 12.5 ZM530 726 l56 0 l-133 -760 l-48 0 q11 73 14 100 q-32 -57 -79 -83.5 q-47 -26.5 -99 -26.5 q-57 0 -102.5 27.5 q-45.5 27.5 -71.5 79 q-26 51.5 -26 119.5 q0 31 6 65 q14 80 52.5 136.5 q38.5 56.5 91.5 85 q53 28.5 110 28.5 q64 0 108 -35 q44 -35 58 -96 l63 360 ZM441 213 q6 33 6 62 q0 84 -42.5 126 q-42.5 42 -105.5 42 q-70 0 -123.5 -51.5 q-53.5 -51.5 -70.5 -148.5 q-5 -26 -5 -60 q0 -81 40.5 -127.5 q40.5 -46.5 107.5 -46.5 q64 0 119.5 47.5 q55.5 47.5 73.5 156.5 Z" /><glyph glyph-name="dcroat" unicode="&#x111;" d="M568 626 l90 0 l-9 -48 l-89 0 l-107 -612 l-48 0 q11 73 14 100 q-32 -57 -79 -83.5 q-47 -26.5 -99 -26.5 q-57 0 -102.5 27.5 q-45.5 27.5 -71.5 79 q-26 51.5 -26 119.5 q0 31 6 65 q14 80 52.5 136.5 q38.5 56.5 91.5 85 q53 28.5 110 28.5 q64 0 108 -35 q44 -35 58 -96 l37 212 l-133 0 l8 48 l133 0 l18 100 l56 0 l-18 -100 ZM441 213 q6 33 6 62 q0 84 -42.5 126 q-42.5 42 -105.5 42 q-70 0 -123.5 -51.5 q-53.5 -51.5 -70.5 -148.5 q-5 -26 -5 -60 q0 -81 40.5 -127.5 q40.5 -46.5 107.5 -46.5 q64 0 119.5 47.5 q55.5 47.5 73.5 156.5 Z" /><glyph glyph-name="e" unicode="e" d="M251 9 q95 0 149 85 l41 -29 q-31 -54 -82.5 -81.5 q-51.5 -27.5 -112.5 -27.5 q-93 0 -149 60.5 q-56 60.5 -56 161.5 q0 32 6 66 q14 82 53.5 139 q39.5 57 95.5 85.5 q56 28.5 118 28.5 q72 0 113 -37 q41 -37 41 -99 q0 -74 -64 -110 q-64 -36 -203 -36 q-27 0 -99 4 q-3 -21 -3 -40 q0 -80 41 -125 q41 -45 111 -45 ZM311 445 q-70 0 -125 -44.5 q-55 -44.5 -76 -133.5 q49 -4 102 -4 q102 0 151 23.5 q49 23.5 49 74.5 q0 39 -26 61.5 q-26 22.5 -75 22.5 Z" /><glyph glyph-name="eacute" unicode="é" d="M334 561 l-53 0 l107 148 l65 0 l-119 -148 ZM252 9 q94 0 148 85 l41 -29 q-31 -54 -82 -81.5 q-51 -27.5 -112 -27.5 q-61 0 -107.5 27.5 q-46.5 27.5 -72.5 78 q-26 50.5 -26 117.5 q0 31 6 65 q14 82 53.5 139 q39.5 57 95.5 85.5 q56 28.5 118 28.5 q72 0 113 -37 q41 -37 41 -99 q0 -74 -64 -110 q-64 -36 -203 -36 q-27 0 -99 4 q-2 -14 -2 -39 q0 -81 41 -126 q41 -45 111 -45 ZM311 445 q-70 0 -125 -44.5 q-55 -44.5 -76 -133.5 q49 -4 102 -4 q102 0 151 23.5 q49 23.5 49 74.5 q0 39 -26 61.5 q-26 22.5 -75 22.5 Z" /><glyph glyph-name="ebreve" unicode="&#x115;" d="M322 564 q-59 0 -93.5 31.5 q-34.5 31.5 -34.5 83.5 q0 17 2 26 l52 0 q-1 -6 -1 -17 q0 -36 20.5 -57.5 q20.5 -21.5 59.5 -21.5 q81 0 102 96 l52 0 q-13 -68 -55 -104.5 q-42 -36.5 -104 -36.5 ZM252 9 q94 0 148 85 l41 -29 q-31 -54 -82 -81.5 q-51 -27.5 -112 -27.5 q-61 0 -107.5 27.5 q-46.5 27.5 -72.5 78 q-26 50.5 -26 117.5 q0 31 6 65 q14 82 53.5 139 q39.5 57 95.5 85.5 q56 28.5 118 28.5 q72 0 113 -37 q41 -37 41 -99 q0 -74 -64 -110 q-64 -36 -203 -36 q-27 0 -99 4 q-2 -14 -2 -39 q0 -81 41 -126 q41 -45 111 -45 ZM311 445 q-70 0 -125 -44.5 q-55 -44.5 -76 -133.5 q49 -4 102 -4 q102 0 151 23.5 q49 23.5 49 74.5 q0 39 -26 61.5 q-26 22.5 -75 22.5 Z" /><glyph glyph-name="ecaron" unicode="&#x11b;" d="M259 709 l60 -105 l95 105 l61 0 l-137 -148 l-51 0 l-84 148 l56 0 ZM252 9 q94 0 148 85 l41 -29 q-31 -54 -82 -81.5 q-51 -27.5 -112 -27.5 q-61 0 -107.5 27.5 q-46.5 27.5 -72.5 78 q-26 50.5 -26 117.5 q0 31 6 65 q14 82 53.5 139 q39.5 57 95.5 85.5 q56 28.5 118 28.5 q72 0 113 -37 q41 -37 41 -99 q0 -74 -64 -110 q-64 -36 -203 -36 q-27 0 -99 4 q-2 -14 -2 -39 q0 -81 41 -126 q41 -45 111 -45 ZM311 445 q-70 0 -125 -44.5 q-55 -44.5 -76 -133.5 q49 -4 102 -4 q102 0 151 23.5 q49 23.5 49 74.5 q0 39 -26 61.5 q-26 22.5 -75 22.5 Z" /><glyph glyph-name="ecircumflex" unicode="ê" d="M312 709 l51 0 l85 -148 l-57 0 l-59 106 l-96 -106 l-60 0 l136 148 ZM252 9 q94 0 148 85 l41 -29 q-31 -54 -82 -81.5 q-51 -27.5 -112 -27.5 q-61 0 -107.5 27.5 q-46.5 27.5 -72.5 78 q-26 50.5 -26 117.5 q0 31 6 65 q14 82 53.5 139 q39.5 57 95.5 85.5 q56 28.5 118 28.5 q72 0 113 -37 q41 -37 41 -99 q0 -74 -64 -110 q-64 -36 -203 -36 q-27 0 -99 4 q-2 -14 -2 -39 q0 -81 41 -126 q41 -45 111 -45 ZM311 445 q-70 0 -125 -44.5 q-55 -44.5 -76 -133.5 q49 -4 102 -4 q102 0 151 23.5 q49 23.5 49 74.5 q0 39 -26 61.5 q-26 22.5 -75 22.5 Z" /><glyph glyph-name="uni1EBF" unicode="&#x1ebf;" d="M467 730 l-52 0 l106 148 l66 0 l-120 -148 ZM310 709 l51 0 l84 -148 l-57 0 l-59 106 l-96 -106 l-59 0 l136 148 ZM252 9 q94 0 148 85 l41 -29 q-31 -54 -82 -81.5 q-51 -27.5 -112 -27.5 q-61 0 -107.5 27.5 q-46.5 27.5 -72.5 78 q-26 50.5 -26 117.5 q0 31 6 65 q14 82 53.5 139 q39.5 57 95.5 85.5 q56 28.5 118 28.5 q72 0 113 -37 q41 -37 41 -99 q0 -74 -64 -110 q-64 -36 -203 -36 q-27 0 -99 4 q-2 -14 -2 -39 q0 -81 41 -126 q41 -45 111 -45 ZM311 445 q-70 0 -125 -44.5 q-55 -44.5 -76 -133.5 q49 -4 102 -4 q102 0 151 23.5 q49 23.5 49 74.5 q0 39 -26 61.5 q-26 22.5 -75 22.5 Z" /><glyph glyph-name="uni1EC7" unicode="&#x1ec7;" d="M312 709 l51 0 l85 -148 l-57 0 l-59 106 l-96 -106 l-60 0 l136 148 ZM252 9 q94 0 148 85 l41 -29 q-31 -54 -82 -81.5 q-51 -27.5 -112 -27.5 q-61 0 -107.5 27.5 q-46.5 27.5 -72.5 78 q-26 50.5 -26 117.5 q0 31 6 65 q14 82 53.5 139 q39.5 57 95.5 85.5 q56 28.5 118 28.5 q72 0 113 -37 q41 -37 41 -99 q0 -74 -64 -110 q-64 -36 -203 -36 q-27 0 -99 4 q-2 -14 -2 -39 q0 -81 41 -126 q41 -45 111 -45 ZM311 445 q-70 0 -125 -44.5 q-55 -44.5 -76 -133.5 q49 -4 102 -4 q102 0 151 23.5 q49 23.5 49 74.5 q0 39 -26 61.5 q-26 22.5 -75 22.5 ZM217 -205 q-17 0 -29.5 13 q-12.5 13 -12.5 30 q0 17 12.5 29.5 q12.5 12.5 29.5 12.5 q17 0 29 -12.5 q12 -12.5 12 -29.5 q0 -17 -12.5 -30 q-12.5 -13 -28.5 -13 Z" /><glyph glyph-name="uni1EC1" unicode="&#x1ec1;" d="M426 730 l-67 148 l61 0 l55 -148 l-49 0 ZM310 709 l51 0 l84 -148 l-57 0 l-59 106 l-96 -106 l-59 0 l136 148 ZM252 9 q94 0 148 85 l41 -29 q-31 -54 -82 -81.5 q-51 -27.5 -112 -27.5 q-61 0 -107.5 27.5 q-46.5 27.5 -72.5 78 q-26 50.5 -26 117.5 q0 31 6 65 q14 82 53.5 139 q39.5 57 95.5 85.5 q56 28.5 118 28.5 q72 0 113 -37 q41 -37 41 -99 q0 -74 -64 -110 q-64 -36 -203 -36 q-27 0 -99 4 q-2 -14 -2 -39 q0 -81 41 -126 q41 -45 111 -45 ZM311 445 q-70 0 -125 -44.5 q-55 -44.5 -76 -133.5 q49 -4 102 -4 q102 0 151 23.5 q49 23.5 49 74.5 q0 39 -26 61.5 q-26 22.5 -75 22.5 Z" /><glyph glyph-name="uni1EC3" unicode="&#x1ec3;" d="M386 860 q33 18 71 18 q39 0 64 -20.5 q25 -20.5 25 -55.5 q0 -44 -28.5 -69.5 q-28.5 -25.5 -77.5 -39.5 l-22 34 q40 11 59.5 25.5 q19.5 14.5 19.5 42.5 q0 18 -13 29.5 q-13 11.5 -35 11.5 q-28 0 -59 -17 l-4 41 ZM310 709 l51 0 l84 -148 l-57 0 l-59 106 l-96 -106 l-59 0 l136 148 ZM252 9 q94 0 148 85 l41 -29 q-31 -54 -82 -81.5 q-51 -27.5 -112 -27.5 q-61 0 -107.5 27.5 q-46.5 27.5 -72.5 78 q-26 50.5 -26 117.5 q0 31 6 65 q14 82 53.5 139 q39.5 57 95.5 85.5 q56 28.5 118 28.5 q72 0 113 -37 q41 -37 41 -99 q0 -74 -64 -110 q-64 -36 -203 -36 q-27 0 -99 4 q-2 -14 -2 -39 q0 -81 41 -126 q41 -45 111 -45 ZM311 445 q-70 0 -125 -44.5 q-55 -44.5 -76 -133.5 q49 -4 102 -4 q102 0 151 23.5 q49 23.5 49 74.5 q0 39 -26 61.5 q-26 22.5 -75 22.5 Z" /><glyph glyph-name="uni1EC5" unicode="&#x1ec5;" d="M512 853 q-9 -52 -37.5 -82.5 q-28.5 -30.5 -68.5 -30.5 q-25 0 -40 11.5 q-15 11.5 -29 31.5 q-11 16 -20.5 24 q-9.5 8 -22.5 8 q-19 0 -33.5 -16 q-14.5 -16 -21.5 -47 l-48 0 q10 52 38 82.5 q28 30.5 69 30.5 q25 0 39.5 -11 q14.5 -11 29.5 -33 q12 -17 20.5 -24.5 q8.5 -7.5 22.5 -7.5 q18 0 33 16.5 q15 16.5 22 47.5 l47 0 ZM310 709 l51 0 l85 -148 l-57 0 l-59 106 l-97 -106 l-59 0 l136 148 ZM252 9 q94 0 148 85 l41 -29 q-31 -54 -82 -81.5 q-51 -27.5 -112 -27.5 q-61 0 -107.5 27.5 q-46.5 27.5 -72.5 78 q-26 50.5 -26 117.5 q0 31 6 65 q14 82 53.5 139 q39.5 57 95.5 85.5 q56 28.5 118 28.5 q72 0 113 -37 q41 -37 41 -99 q0 -74 -64 -110 q-64 -36 -203 -36 q-27 0 -99 4 q-2 -14 -2 -39 q0 -81 41 -126 q41 -45 111 -45 ZM311 445 q-70 0 -125 -44.5 q-55 -44.5 -76 -133.5 q49 -4 102 -4 q102 0 151 23.5 q49 23.5 49 74.5 q0 39 -26 61.5 q-26 22.5 -75 22.5 Z" /><glyph glyph-name="edieresis" unicode="ë" d="M228 596 q-17 0 -29.5 12.5 q-12.5 12.5 -12.5 30.5 q0 17 12.5 29.5 q12.5 12.5 29.5 12.5 q17 0 29.5 -12.5 q12.5 -12.5 12.5 -29.5 q0 -18 -12.5 -30.5 q-12.5 -12.5 -29.5 -12.5 ZM424 596 q-17 0 -29 12.5 q-12 12.5 -12 30.5 q0 17 12 29.5 q12 12.5 29 12.5 q18 0 30 -12.5 q12 -12.5 12 -29.5 q0 -18 -12 -30.5 q-12 -12.5 -30 -12.5 ZM252 9 q94 0 148 85 l41 -29 q-31 -54 -82 -81.5 q-51 -27.5 -112 -27.5 q-61 0 -107.5 27.5 q-46.5 27.5 -72.5 78 q-26 50.5 -26 117.5 q0 31 6 65 q14 82 53.5 139 q39.5 57 95.5 85.5 q56 28.5 118 28.5 q72 0 113 -37 q41 -37 41 -99 q0 -74 -64 -110 q-64 -36 -203 -36 q-27 0 -99 4 q-2 -14 -2 -39 q0 -81 41 -126 q41 -45 111 -45 ZM311 445 q-70 0 -125 -44.5 q-55 -44.5 -76 -133.5 q49 -4 102 -4 q102 0 151 23.5 q49 23.5 49 74.5 q0 39 -26 61.5 q-26 22.5 -75 22.5 Z" /><glyph glyph-name="edotaccent" unicode="&#x117;" d="M327 600 q-17 0 -29 13 q-12 13 -12 30 q0 17 12 29.5 q12 12.5 29 12.5 q17 0 29.5 -12.5 q12.5 -12.5 12.5 -29.5 q0 -17 -12.5 -30 q-12.5 -13 -29.5 -13 ZM252 9 q94 0 148 85 l41 -29 q-31 -54 -82 -81.5 q-51 -27.5 -112 -27.5 q-61 0 -107.5 27.5 q-46.5 27.5 -72.5 78 q-26 50.5 -26 117.5 q0 31 6 65 q14 82 53.5 139 q39.5 57 95.5 85.5 q56 28.5 118 28.5 q72 0 113 -37 q41 -37 41 -99 q0 -74 -64 -110 q-64 -36 -203 -36 q-27 0 -99 4 q-2 -14 -2 -39 q0 -81 41 -126 q41 -45 111 -45 ZM311 445 q-70 0 -125 -44.5 q-55 -44.5 -76 -133.5 q49 -4 102 -4 q102 0 151 23.5 q49 23.5 49 74.5 q0 39 -26 61.5 q-26 22.5 -75 22.5 Z" /><glyph glyph-name="uni1EB9" unicode="&#x1eb9;" d="M252 9 q94 0 148 85 l41 -29 q-31 -54 -82 -81.5 q-51 -27.5 -112 -27.5 q-61 0 -107.5 27.5 q-46.5 27.5 -72.5 78 q-26 50.5 -26 117.5 q0 31 6 65 q14 82 53.5 139 q39.5 57 95.5 85.5 q56 28.5 118 28.5 q72 0 113 -37 q41 -37 41 -99 q0 -74 -64 -110 q-64 -36 -203 -36 q-27 0 -99 4 q-2 -14 -2 -39 q0 -81 41 -126 q41 -45 111 -45 ZM311 445 q-70 0 -125 -44.5 q-55 -44.5 -76 -133.5 q49 -4 102 -4 q102 0 151 23.5 q49 23.5 49 74.5 q0 39 -26 61.5 q-26 22.5 -75 22.5 ZM217 -205 q-17 0 -29.5 13 q-12.5 13 -12.5 30 q0 17 12.5 29.5 q12.5 12.5 29.5 12.5 q17 0 29 -12.5 q12 -12.5 12 -29.5 q0 -17 -12.5 -30 q-12.5 -13 -28.5 -13 Z" /><glyph glyph-name="egrave" unicode="è" d="M293 561 l-67 148 l61 0 l55 -148 l-49 0 ZM252 9 q94 0 148 85 l41 -29 q-31 -54 -82 -81.5 q-51 -27.5 -112 -27.5 q-61 0 -107.5 27.5 q-46.5 27.5 -72.5 78 q-26 50.5 -26 117.5 q0 31 6 65 q14 82 53.5 139 q39.5 57 95.5 85.5 q56 28.5 118 28.5 q72 0 113 -37 q41 -37 41 -99 q0 -74 -64 -110 q-64 -36 -203 -36 q-27 0 -99 4 q-2 -14 -2 -39 q0 -81 41 -126 q41 -45 111 -45 ZM311 445 q-70 0 -125 -44.5 q-55 -44.5 -76 -133.5 q49 -4 102 -4 q102 0 151 23.5 q49 23.5 49 74.5 q0 39 -26 61.5 q-26 22.5 -75 22.5 Z" /><glyph glyph-name="uni1EBB" unicode="&#x1ebb;" d="M252 711 q32 18 71 18 q38 0 63.5 -21 q25.5 -21 25.5 -56 q0 -44 -28 -68.5 q-28 -24.5 -78 -39.5 l-22 34 q38 11 58 26.5 q20 15.5 20 41.5 q0 18 -12.5 29.5 q-12.5 11.5 -34.5 11.5 q-28 0 -59 -17 l-4 41 ZM252 9 q94 0 148 85 l41 -29 q-31 -54 -82 -81.5 q-51 -27.5 -112 -27.5 q-61 0 -107.5 27.5 q-46.5 27.5 -72.5 78 q-26 50.5 -26 117.5 q0 31 6 65 q14 82 53.5 139 q39.5 57 95.5 85.5 q56 28.5 118 28.5 q72 0 113 -37 q41 -37 41 -99 q0 -74 -64 -110 q-64 -36 -203 -36 q-27 0 -99 4 q-2 -14 -2 -39 q0 -81 41 -126 q41 -45 111 -45 ZM311 445 q-70 0 -125 -44.5 q-55 -44.5 -76 -133.5 q49 -4 102 -4 q102 0 151 23.5 q49 23.5 49 74.5 q0 39 -26 61.5 q-26 22.5 -75 22.5 Z" /><glyph glyph-name="emacron" unicode="&#x113;" d="M468 613 l-292 0 l8 51 l293 0 l-9 -51 ZM252 9 q94 0 148 85 l41 -29 q-31 -54 -82 -81.5 q-51 -27.5 -112 -27.5 q-61 0 -107.5 27.5 q-46.5 27.5 -72.5 78 q-26 50.5 -26 117.5 q0 31 6 65 q14 82 53.5 139 q39.5 57 95.5 85.5 q56 28.5 118 28.5 q72 0 113 -37 q41 -37 41 -99 q0 -74 -64 -110 q-64 -36 -203 -36 q-27 0 -99 4 q-2 -14 -2 -39 q0 -81 41 -126 q41 -45 111 -45 ZM311 445 q-70 0 -125 -44.5 q-55 -44.5 -76 -133.5 q49 -4 102 -4 q102 0 151 23.5 q49 23.5 49 74.5 q0 39 -26 61.5 q-26 22.5 -75 22.5 Z" /><glyph glyph-name="eogonek" unicode="&#x119;" d="M252 9 q94 0 148 85 l41 -29 q-30 -52 -79 -80 q-81 -52 -115 -84.5 q-34 -32.5 -40 -71.5 q-2 -12 -2 -17 q0 -25 16 -37.5 q16 -12.5 42 -12.5 q42 0 85 36 l21 -34 q-21 -21 -50 -33 q-29 -12 -60 -12 q-44 0 -74 23 q-30 23 -30 67 q0 7 2 23 q7 35 29 64.5 q22 29.5 62 59.5 q-61 0 -108 27.5 q-47 27.5 -73 78 q-26 50.5 -26 117.5 q0 31 6 65 q14 82 53.5 139 q39.5 57 95.5 85.5 q56 28.5 118 28.5 q72 0 113 -37 q41 -37 41 -99 q0 -74 -64 -110 q-64 -36 -203 -36 q-27 0 -99 4 q-2 -14 -2 -39 q0 -81 41 -126 q41 -45 111 -45 ZM311 445 q-70 0 -125 -44.5 q-55 -44.5 -76 -133.5 q49 -4 102 -4 q102 0 151 23.5 q49 23.5 49 74.5 q0 39 -26 61.5 q-26 22.5 -75 22.5 Z" /><glyph glyph-name="uni1EBD" unicode="&#x1ebd;" d="M164 583 q10 52 38 82.5 q28 30.5 69 30.5 q25 0 40 -11.5 q15 -11.5 29 -31.5 q11 -16 20.5 -24 q9.5 -8 22.5 -8 q19 0 33.5 16 q14.5 16 21.5 47 l48 0 q-10 -52 -38 -82.5 q-28 -30.5 -69 -30.5 q-25 0 -39.5 11 q-14.5 11 -29.5 33 q-12 17 -20.5 24.5 q-8.5 7.5 -22.5 7.5 q-19 0 -33.5 -16.5 q-14.5 -16.5 -21.5 -47.5 l-48 0 ZM252 9 q94 0 148 85 l41 -29 q-31 -54 -82 -81.5 q-51 -27.5 -112 -27.5 q-61 0 -107.5 27.5 q-46.5 27.5 -72.5 78 q-26 50.5 -26 117.5 q0 31 6 65 q14 82 53.5 139 q39.5 57 95.5 85.5 q56 28.5 118 28.5 q72 0 113 -37 q41 -37 41 -99 q0 -74 -64 -110 q-64 -36 -203 -36 q-27 0 -99 4 q-2 -14 -2 -39 q0 -81 41 -126 q41 -45 111 -45 ZM311 445 q-70 0 -125 -44.5 q-55 -44.5 -76 -133.5 q49 -4 102 -4 q102 0 151 23.5 q49 23.5 49 74.5 q0 39 -26 61.5 q-26 22.5 -75 22.5 Z" /><glyph glyph-name="uni0259" unicode="&#x259;" d="M229 443 q-94 0 -148 -85 l-41 29 q31 54 82 81.5 q51 27.5 112 27.5 q61 0 107.5 -27.5 q46.5 -27.5 72.5 -78 q26 -50.5 26 -117.5 q0 -30 -6 -65 q-14 -82 -53.5 -139 q-39.5 -57 -95.5 -85.5 q-56 -28.5 -118 -28.5 q-72 0 -113 37 q-41 37 -41 99 q0 74 64 110 q64 36 203 36 q27 0 99 -4 q2 14 2 39 q0 81 -41 126 q-41 45 -111 45 ZM170 7 q70 0 125 44.5 q55 44.5 76 133.5 q-49 4 -102 4 q-102 0 -151 -23.5 q-49 -23.5 -49 -74.5 q0 -39 26 -61.5 q26 -22.5 75 -22.5 Z" /><glyph glyph-name="uni0292" unicode="&#x292;" d="M471 487 l-6 -36 l-275 -263 q106 -1 159 -58.5 q53 -57.5 53 -144.5 q0 -24 -5 -52 q-18 -104 -88 -159 q-70 -55 -166 -55 q-88 0 -146 47 q-58 47 -65 131 l51 23 q6 -70 50 -109 q44 -39 112 -39 q72 0 125.5 43.5 q53.5 43.5 67.5 125.5 q4 28 4 42 q0 70 -45 112.5 q-45 42.5 -135 42.5 q-29 0 -56 -4 l6 47 l264 257 l-316 0 l8 49 l403 0 Z" /><glyph glyph-name="uni01EF" unicode="&#x1ef;" d="M226 710 l60 -106 l96 106 l60 0 l-136 -148 l-51 0 l-84 148 l55 0 ZM471 487 l-6 -36 l-275 -263 q106 -1 159 -58.5 q53 -57.5 53 -144.5 q0 -24 -5 -52 q-18 -104 -88 -159 q-70 -55 -166 -55 q-88 0 -146 47 q-58 47 -65 131 l51 23 q6 -70 50 -109 q44 -39 112 -39 q72 0 125.5 43.5 q53.5 43.5 67.5 125.5 q4 28 4 42 q0 70 -45 112.5 q-45 42.5 -135 42.5 q-29 0 -56 -4 l6 47 l264 257 l-316 0 l8 49 l403 0 Z" /><glyph glyph-name="f" unicode="f" d="M330 684 q-44 0 -72 -31.5 q-28 -31.5 -42 -109.5 l-10 -56 l138 0 l-8 -49 l-138 0 l-93 -535 q-18 -100 -52 -142 q-34 -42 -92 -42 q-27 0 -48.5 7.5 q-21.5 7.5 -34.5 20.5 l28 45 q21 -20 53 -20 q37 0 57.5 31.5 q20.5 31.5 34.5 114.5 l91 520 l-88 0 l8 49 l88 0 l11 62 q18 101 62 144.5 q44 43.5 110 43.5 q31 0 53.5 -8.5 q22.5 -8.5 36.5 -21.5 l-28 -44 q-26 21 -65 21 Z" /><glyph glyph-name="g" unicode="g" d="M545 487 l-92 -525 q-22 -127 -93 -185 q-71 -58 -159 -58 q-78 0 -134.5 42 q-56.5 42 -66.5 109 l46 21 q15 -56 57 -87.5 q42 -31.5 102 -31.5 q71 0 123 47 q52 47 70 149 l16 89 q-32 -53 -78 -77 q-46 -24 -95 -24 q-57 0 -102.5 27.5 q-45.5 27.5 -71.5 79 q-26 51.5 -26 119.5 q0 31 6 65 q14 80 52.5 136.5 q38.5 56.5 91.5 85 q53 28.5 110 28.5 q64 0 108.5 -35.5 q44.5 -35.5 58.5 -98.5 q12 45 27 124 l50 0 ZM441 213 q6 33 6 62 q0 84 -42.5 126 q-42.5 42 -105.5 42 q-70 0 -123.5 -51.5 q-53.5 -51.5 -70.5 -148.5 q-5 -26 -5 -60 q0 -81 40.5 -127.5 q40.5 -46.5 107.5 -46.5 q64 0 119.5 47.5 q55.5 47.5 73.5 156.5 Z" /><glyph glyph-name="gbreve" unicode="&#x11f;" d="M335 564 q-59 0 -94 31.5 q-35 31.5 -35 82.5 q0 13 3 28 l52 0 q-1 -6 -1 -18 q0 -36 20 -57.5 q20 -21.5 59 -21.5 q81 0 103 97 l52 0 q-12 -69 -54.5 -105.5 q-42.5 -36.5 -104.5 -36.5 ZM545 487 l-92 -525 q-22 -127 -93 -185 q-71 -58 -159 -58 q-78 0 -134.5 42 q-56.5 42 -66.5 109 l46 21 q15 -56 57 -87.5 q42 -31.5 102 -31.5 q71 0 123 47 q52 47 70 149 l16 89 q-32 -53 -78 -77 q-46 -24 -95 -24 q-57 0 -102.5 27.5 q-45.5 27.5 -71.5 79 q-26 51.5 -26 119.5 q0 31 6 65 q14 80 52.5 136.5 q38.5 56.5 91.5 85 q53 28.5 110 28.5 q64 0 108.5 -35.5 q44.5 -35.5 58.5 -98.5 q12 45 27 124 l50 0 ZM441 213 q6 33 6 62 q0 84 -42.5 126 q-42.5 42 -105.5 42 q-70 0 -123.5 -51.5 q-53.5 -51.5 -70.5 -148.5 q-5 -26 -5 -60 q0 -81 40.5 -127.5 q40.5 -46.5 107.5 -46.5 q64 0 119.5 47.5 q55.5 47.5 73.5 156.5 Z" /><glyph glyph-name="gcaron" unicode="&#x1e7;" d="M487 710 l-136 -148 l-51 0 l-84 148 l56 0 l59 -106 l96 106 l60 0 ZM545 487 l-92 -525 q-22 -127 -93 -185 q-71 -58 -159 -58 q-78 0 -134.5 42 q-56.5 42 -66.5 109 l46 21 q15 -56 57 -87.5 q42 -31.5 102 -31.5 q71 0 123 47 q52 47 70 149 l16 89 q-32 -53 -78 -77 q-46 -24 -95 -24 q-57 0 -102.5 27.5 q-45.5 27.5 -71.5 79 q-26 51.5 -26 119.5 q0 31 6 65 q14 80 52.5 136.5 q38.5 56.5 91.5 85 q53 28.5 110 28.5 q64 0 108.5 -35.5 q44.5 -35.5 58.5 -98.5 q12 45 27 124 l50 0 ZM441 213 q6 33 6 62 q0 84 -42.5 126 q-42.5 42 -105.5 42 q-70 0 -123.5 -51.5 q-53.5 -51.5 -70.5 -148.5 q-5 -26 -5 -60 q0 -81 40.5 -127.5 q40.5 -46.5 107.5 -46.5 q64 0 119.5 47.5 q55.5 47.5 73.5 156.5 Z" /><glyph glyph-name="gcircumflex" unicode="&#x11d;" d="M404 562 l-59 105 l-96 -105 l-60 0 l136 148 l51 0 l84 -148 l-56 0 ZM545 487 l-92 -525 q-22 -127 -93 -185 q-71 -58 -159 -58 q-78 0 -134.5 42 q-56.5 42 -66.5 109 l46 21 q15 -56 57 -87.5 q42 -31.5 102 -31.5 q71 0 123 47 q52 47 70 149 l16 89 q-32 -53 -78 -77 q-46 -24 -95 -24 q-57 0 -102.5 27.5 q-45.5 27.5 -71.5 79 q-26 51.5 -26 119.5 q0 31 6 65 q14 80 52.5 136.5 q38.5 56.5 91.5 85 q53 28.5 110 28.5 q64 0 108.5 -35.5 q44.5 -35.5 58.5 -98.5 q12 45 27 124 l50 0 ZM441 213 q6 33 6 62 q0 84 -42.5 126 q-42.5 42 -105.5 42 q-70 0 -123.5 -51.5 q-53.5 -51.5 -70.5 -148.5 q-5 -26 -5 -60 q0 -81 40.5 -127.5 q40.5 -46.5 107.5 -46.5 q64 0 119.5 47.5 q55.5 47.5 73.5 156.5 Z" /><glyph glyph-name="uni0123" unicode="&#x123;" d="M333 591 q-17 0 -28 11.5 q-11 11.5 -11 33.5 q0 5 2 19 q8 43 37.5 72.5 q29.5 29.5 76.5 38.5 l-1 -32 q-30 -8 -48.5 -25 q-18.5 -17 -24.5 -39 l4 0 q16 0 24.5 -10 q8.5 -10 8.5 -24 q0 -19 -11.5 -32 q-11.5 -13 -28.5 -13 ZM545 487 l-92 -525 q-22 -127 -93 -185 q-71 -58 -159 -58 q-78 0 -134.5 42 q-56.5 42 -66.5 109 l46 21 q15 -56 57 -87.5 q42 -31.5 102 -31.5 q71 0 123 47 q52 47 70 149 l16 89 q-32 -53 -78 -77 q-46 -24 -95 -24 q-57 0 -102.5 27.5 q-45.5 27.5 -71.5 79 q-26 51.5 -26 119.5 q0 31 6 65 q14 80 52.5 136.5 q38.5 56.5 91.5 85 q53 28.5 110 28.5 q64 0 108.5 -35.5 q44.5 -35.5 58.5 -98.5 q12 45 27 124 l50 0 ZM441 213 q6 33 6 62 q0 84 -42.5 126 q-42.5 42 -105.5 42 q-70 0 -123.5 -51.5 q-53.5 -51.5 -70.5 -148.5 q-5 -26 -5 -60 q0 -81 40.5 -127.5 q40.5 -46.5 107.5 -46.5 q64 0 119.5 47.5 q55.5 47.5 73.5 156.5 Z" /><glyph glyph-name="gdotaccent" unicode="&#x121;" d="M340 601 q-17 0 -29.5 12.5 q-12.5 12.5 -12.5 29.5 q0 17 12.5 30 q12.5 13 29.5 13 q17 0 29 -13 q12 -13 12 -30 q0 -17 -12 -29.5 q-12 -12.5 -29 -12.5 ZM545 487 l-92 -525 q-22 -127 -93 -185 q-71 -58 -159 -58 q-78 0 -134.5 42 q-56.5 42 -66.5 109 l46 21 q15 -56 57 -87.5 q42 -31.5 102 -31.5 q71 0 123 47 q52 47 70 149 l16 89 q-32 -53 -78 -77 q-46 -24 -95 -24 q-57 0 -102.5 27.5 q-45.5 27.5 -71.5 79 q-26 51.5 -26 119.5 q0 31 6 65 q14 80 52.5 136.5 q38.5 56.5 91.5 85 q53 28.5 110 28.5 q64 0 108.5 -35.5 q44.5 -35.5 58.5 -98.5 q12 45 27 124 l50 0 ZM441 213 q6 33 6 62 q0 84 -42.5 126 q-42.5 42 -105.5 42 q-70 0 -123.5 -51.5 q-53.5 -51.5 -70.5 -148.5 q-5 -26 -5 -60 q0 -81 40.5 -127.5 q40.5 -46.5 107.5 -46.5 q64 0 119.5 47.5 q55.5 47.5 73.5 156.5 Z" /><glyph glyph-name="uni0261" unicode="&#x261;" d="M545 487 l-92 -525 q-22 -127 -93 -185 q-71 -58 -159 -58 q-78 0 -134.5 42 q-56.5 42 -66.5 109 l46 21 q15 -56 57 -87.5 q42 -31.5 102 -31.5 q71 0 123 47 q52 47 70 149 l16 89 q-32 -53 -78 -77 q-46 -24 -95 -24 q-57 0 -102.5 27.5 q-45.5 27.5 -71.5 79 q-26 51.5 -26 119.5 q0 31 6 65 q14 80 52.5 136.5 q38.5 56.5 91.5 85 q53 28.5 110 28.5 q64 0 108.5 -35.5 q44.5 -35.5 58.5 -98.5 q12 45 27 124 l50 0 ZM441 213 q6 33 6 62 q0 84 -42.5 126 q-42.5 42 -105.5 42 q-70 0 -123.5 -51.5 q-53.5 -51.5 -70.5 -148.5 q-5 -26 -5 -60 q0 -81 40.5 -127.5 q40.5 -46.5 107.5 -46.5 q64 0 119.5 47.5 q55.5 47.5 73.5 156.5 Z" /><glyph glyph-name="uni01E5" unicode="&#x1e5;" d="M503 251 l94 0 l-8 -49 l-94 0 l-42 -240 q-22 -127 -93 -185 q-71 -58 -159 -58 q-78 0 -134.5 42 q-56.5 42 -66.5 109 l46 21 q15 -56 57 -87.5 q42 -31.5 102 -31.5 q71 0 123 47 q52 47 70 149 l16 89 q-32 -53 -78 -77 q-46 -24 -95 -24 q-57 0 -102.5 27.5 q-45.5 27.5 -71.5 79 q-26 51.5 -26 119.5 q0 31 6 65 q14 80 52.5 136.5 q38.5 56.5 91.5 85 q53 28.5 110 28.5 q64 0 108.5 -35.5 q44.5 -35.5 58.5 -98.5 q12 45 27 124 l50 0 l-42 -236 ZM445 251 q1 8 1 24 q0 84 -42.5 126 q-42.5 42 -104.5 42 q-70 0 -123.5 -51.5 q-53.5 -51.5 -70.5 -148.5 q-5 -26 -5 -60 q0 -81 40.5 -127.5 q40.5 -46.5 107.5 -46.5 q62 0 116.5 45 q54.5 45 74.5 148 l-133 0 l8 49 l131 0 Z" /><glyph glyph-name="h" unicode="h" d="M329 497 q73 0 117.5 -44.5 q44.5 -44.5 44.5 -126.5 q0 -22 -5 -55 l-54 -305 l-56 0 l52 299 q5 30 5 51 q0 62 -31.5 94.5 q-31.5 32.5 -86.5 32.5 q-60 0 -108.5 -39.5 q-48.5 -39.5 -64.5 -114.5 l-57 -323 l-55 0 l133 761 l56 0 l-56 -319 q29 44 72 66.5 q43 22.5 94 22.5 Z" /><glyph glyph-name="hbar" unicode="&#x127;" d="M337 497 q73 0 117.5 -44.5 q44.5 -44.5 44.5 -126.5 q0 -22 -5 -55 l-54 -305 l-56 0 l53 299 q4 24 4 49 q0 63 -31.5 96 q-31.5 33 -86.5 33 q-60 0 -108.5 -39.5 q-48.5 -39.5 -64.5 -114.5 l-57 -323 l-55 0 l107 612 l-76 0 l8 48 l76 0 l18 101 l56 0 l-17 -101 l164 0 l-8 -48 l-165 0 l-30 -170 q29 44 72 66.5 q43 22.5 94 22.5 Z" /><glyph glyph-name="uni021F" unicode="&#x21f;" d="M148 924 l61 -92 l92 92 l61 0 l-134 -132 l-51 0 l-87 132 l58 0 ZM329 497 q73 0 117.5 -44.5 q44.5 -44.5 44.5 -126.5 q0 -22 -5 -55 l-54 -305 l-56 0 l52 299 q5 30 5 51 q0 62 -31.5 94.5 q-31.5 32.5 -86.5 32.5 q-60 0 -108.5 -39.5 q-48.5 -39.5 -64.5 -114.5 l-57 -323 l-55 0 l133 761 l56 0 l-56 -319 q29 44 72 66.5 q43 22.5 94 22.5 Z" /><glyph glyph-name="hcircumflex" unicode="&#x125;" d="M199 924 l51 0 l87 -132 l-57 0 l-61 93 l-93 -93 l-60 0 l133 132 ZM329 497 q73 0 117.5 -44.5 q44.5 -44.5 44.5 -126.5 q0 -22 -5 -55 l-54 -305 l-56 0 l52 299 q5 30 5 51 q0 62 -31.5 94.5 q-31.5 32.5 -86.5 32.5 q-60 0 -108.5 -39.5 q-48.5 -39.5 -64.5 -114.5 l-57 -323 l-55 0 l133 761 l56 0 l-56 -319 q29 44 72 66.5 q43 22.5 94 22.5 Z" /><glyph glyph-name="i" unicode="i" d="M176 601 q-17 0 -29 12.5 q-12 12.5 -12 29.5 q0 18 12 30.5 q12 12.5 29 12.5 q17 0 29.5 -12.5 q12.5 -12.5 12.5 -30.5 q0 -17 -12 -29.5 q-12 -12.5 -30 -12.5 ZM86 -34 l-56 0 l91 520 l56 0 l-91 -520 Z" /><glyph glyph-name="dotlessi" unicode="&#x131;" d="M28 -34 l92 520 l56 0 l-92 -520 l-56 0 Z" /><glyph glyph-name="iacute" unicode="í" d="M182 562 l-52 0 l106 148 l66 0 l-120 -148 ZM28 -34 l92 520 l56 0 l-92 -520 l-56 0 Z" /><glyph glyph-name="ibreve" unicode="&#x12d;" d="M171 564 q-59 0 -93.5 31.5 q-34.5 31.5 -34.5 83.5 q0 18 2 27 l52 0 q-1 -6 -1 -18 q0 -36 20 -57.5 q20 -21.5 59 -21.5 q81 0 103 97 l52 0 q-12 -69 -54.5 -105.5 q-42.5 -36.5 -104.5 -36.5 ZM28 -34 l92 520 l56 0 l-92 -520 l-56 0 Z" /><glyph glyph-name="uni01D0" unicode="&#x1d0;" d="M108 710 l60 -106 l95 106 l61 0 l-137 -148 l-51 0 l-84 148 l56 0 ZM28 -34 l92 520 l56 0 l-92 -520 l-56 0 Z" /><glyph glyph-name="icircumflex" unicode="î" d="M161 710 l51 0 l84 -148 l-56 0 l-59 105 l-96 -105 l-60 0 l136 148 ZM28 -34 l92 520 l56 0 l-92 -520 l-56 0 Z" /><glyph glyph-name="idieresis" unicode="ï" d="M77 597 q-17 0 -29.5 12 q-12.5 12 -12.5 30 q0 18 12 30.5 q12 12.5 29 12.5 q18 0 30 -12.5 q12 -12.5 12 -30.5 q0 -18 -12 -30 q-12 -12 -29 -12 ZM273 597 q-17 0 -29 12 q-12 12 -12 30 q0 18 12 30.5 q12 12.5 29 12.5 q17 0 29.5 -12.5 q12.5 -12.5 12.5 -30.5 q0 -18 -12 -30 q-12 -12 -30 -12 ZM28 -34 l92 520 l56 0 l-92 -520 l-56 0 Z" /><glyph glyph-name="uni1ECB" unicode="&#x1ecb;" d="M176 601 q-17 0 -29 12.5 q-12 12.5 -12 29.5 q0 18 12 30.5 q12 12.5 29 12.5 q17 0 29.5 -12.5 q12.5 -12.5 12.5 -30.5 q0 -17 -12 -29.5 q-12 -12.5 -30 -12.5 ZM86 -34 l-56 0 l91 520 l56 0 l-91 -520 ZM36 -205 q-17 0 -29.5 13 q-12.5 13 -12.5 30 q0 17 12.5 29.5 q12.5 12.5 29.5 12.5 q17 0 29 -12.5 q12 -12.5 12 -29.5 q0 -17 -12.5 -30 q-12.5 -13 -28.5 -13 Z" /><glyph glyph-name="igrave" unicode="ì" d="M142 562 l-68 148 l62 0 l55 -148 l-49 0 ZM28 -34 l92 520 l56 0 l-92 -520 l-56 0 Z" /><glyph glyph-name="uni1EC9" unicode="&#x1ec9;" d="M100 711 q33 18 71 18 q39 0 64.5 -20.5 q25.5 -20.5 25.5 -55.5 q0 -80 -107 -108 l-22 34 q39 10 59 25.5 q20 15.5 20 42.5 q0 18 -13 29.5 q-13 11.5 -34 11.5 q-26 0 -59 -18 l-5 41 ZM28 -34 l92 520 l56 0 l-92 -520 l-56 0 Z" /><glyph glyph-name="ij" unicode="&#x133;" d="M176 601 q-17 0 -29 12.5 q-12 12.5 -12 29.5 q0 18 12 30.5 q12 12.5 29 12.5 q17 0 29.5 -12.5 q12.5 -12.5 12.5 -30.5 q0 -17 -12 -29.5 q-12 -12.5 -30 -12.5 ZM392 601 q-16 0 -27 12 q-11 12 -11 29 q0 17 13 30.5 q13 13.5 30 13.5 q17 0 28 -11.5 q11 -11.5 11 -27.5 q0 -19 -13 -32.5 q-13 -13.5 -31 -13.5 ZM86 -34 l-56 0 l91 520 l56 0 l-91 -520 ZM130 -281 q-31 0 -54.5 9.5 q-23.5 9.5 -38.5 24.5 l27 45 q28 -26 67 -26 q40 0 67.5 31 q27.5 31 40.5 103 l101 580 l56 0 l-104 -594 q-16 -89 -59 -131 q-43 -42 -103 -42 Z" /><glyph glyph-name="imacron" unicode="&#x12b;" d="M317 613 l-293 0 l9 51 l293 0 l-9 -51 ZM28 -34 l92 520 l56 0 l-92 -520 l-56 0 Z" /><glyph glyph-name="iogonek" unicode="&#x12f;" d="M176 686 q17 0 29 -13 q12 -13 12 -30 q0 -17 -12 -29.5 q-12 -12.5 -29 -12.5 q-17 0 -29.5 12.5 q-12.5 12.5 -12.5 29.5 q0 17 12.5 30 q12.5 13 29.5 13 ZM84 -34 q-71 -35 -104.5 -68.5 q-33.5 -33.5 -33.5 -80.5 q0 -26 16 -39.5 q16 -13.5 41 -13.5 q42 0 85 38 l21 -34 q-22 -22 -50.5 -35 q-28.5 -13 -59.5 -13 q-43 0 -73 24 q-30 24 -30 68 q0 16 2 24 q16 87 132 144 l90 506 l56 0 l-92 -520 Z" /><glyph glyph-name="itilde" unicode="&#x129;" d="M13 584 q10 52 38 82.5 q28 30.5 69 30.5 q25 0 39.5 -11 q14.5 -11 29.5 -33 q10 -16 19 -24 q9 -8 23 -8 q19 0 34 16.5 q15 16.5 22 47.5 l47 0 q-9 -52 -37.5 -82.5 q-28.5 -30.5 -68.5 -30.5 q-25 0 -40 11.5 q-15 11.5 -29 31.5 q-11 16 -20.5 24 q-9.5 8 -22.5 8 q-19 0 -33.5 -16.5 q-14.5 -16.5 -21.5 -46.5 l-48 0 ZM28 -34 l92 520 l56 0 l-92 -520 l-56 0 Z" /><glyph glyph-name="j" unicode="j" d="M171 601 q-16 0 -27 12 q-11 12 -11 29 q0 17 13 30.5 q13 13.5 29 13.5 q17 0 28.5 -11.5 q11.5 -11.5 11.5 -27.5 q0 -19 -13 -32.5 q-13 -13.5 -31 -13.5 ZM-91 -281 q-31 0 -55 9.5 q-24 9.5 -39 24.5 l27 45 q28 -26 68 -26 q40 0 67.5 31 q27.5 31 40.5 103 l101 580 l56 0 l-104 -594 q-16 -89 -59 -131 q-43 -42 -103 -42 Z" /><glyph glyph-name="uni0237" unicode="&#x237;" d="M-98 -281 q-30 0 -54 9.5 q-24 9.5 -39 24.5 l27 45 q28 -26 68 -26 q40 0 67.5 31 q27.5 31 40.5 103 l101 580 l56 0 l-104 -594 q-16 -90 -59 -131.5 q-43 -41.5 -104 -41.5 Z" /><glyph glyph-name="uni01F0" unicode="&#x1f0;" d="M100 710 l60 -106 l96 106 l60 0 l-136 -148 l-51 0 l-85 148 l56 0 ZM-98 -281 q-30 0 -54 9.5 q-24 9.5 -39 24.5 l27 45 q28 -26 68 -26 q40 0 67.5 31 q27.5 31 40.5 103 l101 580 l56 0 l-104 -594 q-16 -90 -59 -131.5 q-43 -41.5 -104 -41.5 Z" /><glyph glyph-name="jcircumflex" unicode="&#x135;" d="M153 710 l51 0 l85 -148 l-56 0 l-60 105 l-96 -105 l-60 0 l136 148 ZM-98 -281 q-30 0 -54 9.5 q-24 9.5 -39 24.5 l27 45 q28 -26 68 -26 q40 0 67.5 31 q27.5 31 40.5 103 l101 580 l56 0 l-104 -594 q-16 -90 -59 -131.5 q-43 -41.5 -104 -41.5 Z" /><glyph glyph-name="k" unicode="k" d="M129 217 l307 269 l75 0 l-245 -214 l173 -306 l-70 0 l-149 266 l-105 -91 l-31 -175 l-56 0 l135 761 l56 0 l-90 -510 Z" /><glyph glyph-name="uni01E9" unicode="&#x1e9;" d="M148 924 l61 -92 l92 92 l61 0 l-134 -132 l-51 0 l-87 132 l58 0 ZM129 217 l307 269 l75 0 l-245 -214 l173 -306 l-70 0 l-149 266 l-105 -91 l-31 -175 l-56 0 l135 761 l56 0 l-90 -510 Z" /><glyph glyph-name="uni0137" unicode="&#x137;" d="M436 486 l75 0 l-245 -214 l173 -306 l-70 0 l-149 266 l-105 -91 l-31 -175 l-56 0 l135 761 l56 0 l-90 -510 l307 269 ZM209 -94 q18 0 28.5 -11.5 q10.5 -11.5 10.5 -35.5 q0 -11 -1 -17 q-8 -43 -37.5 -72 q-29.5 -29 -76.5 -38 l1 31 q60 18 73 65 l-4 0 q-16 0 -25 9.5 q-9 9.5 -9 24.5 q0 19 11.5 31.5 q11.5 12.5 28.5 12.5 Z" /><glyph glyph-name="kgreenlandic" unicode="&#x138;" d="M128 216 l308 270 l76 0 l-246 -214 l174 -306 l-70 0 l-149 266 l-106 -92 l-31 -174 l-56 0 l92 521 l56 0 l-48 -271 Z" /><glyph glyph-name="l" unicode="l" d="M85 -34 l-55 0 l133 761 l56 0 l-134 -761 Z" /><glyph glyph-name="lacute" unicode="&#x13a;" d="M234 793 l-52 0 l106 132 l65 0 l-119 -132 ZM85 -34 l-55 0 l133 761 l56 0 l-134 -761 Z" /><glyph glyph-name="lcaron" unicode="&#x13e;" d="M325 737 q17 0 27 -11 q10 -11 10 -33 q0 -11 -1 -17 q-8 -41 -36 -69.5 q-28 -28.5 -74 -36.5 l3 31 q56 15 69 61 l-4 0 q-15 0 -23.5 9.5 q-8.5 9.5 -8.5 23.5 q0 17 11 29.5 q11 12.5 27 12.5 ZM85 -34 l-55 0 l133 761 l56 0 l-134 -761 Z" /><glyph glyph-name="uni013C" unicode="&#x13c;" d="M30 -34 l133 761 l56 0 l-134 -761 l-55 0 ZM40 -94 q17 0 28 -11 q11 -11 11 -34 q0 -5 -2 -19 q-8 -43 -37 -72 q-29 -29 -76 -38 l1 31 q60 18 73 65 l-4 0 q-17 0 -25.5 9.5 q-8.5 9.5 -8.5 24.5 q0 18 11.5 31 q11.5 13 28.5 13 Z" /><glyph glyph-name="ldot" unicode="&#x140;" d="M85 -34 l-55 0 l133 761 l56 0 l-134 -761 ZM228 313 q-15 0 -26 11 q-11 11 -11 27 q0 16 11 27 q11 11 26 11 q16 0 27 -11 q11 -11 11 -27 q0 -16 -11 -27 q-11 -11 -27 -11 Z" /><glyph glyph-name="lslash" unicode="&#x142;" d="M230 727 l-58 -329 l82 45 l-10 -58 l-82 -45 l-66 -374 l-56 0 l60 341 l-85 -48 l10 58 l85 47 l63 363 l57 0 Z" /><glyph glyph-name="m" unicode="m" d="M730 443 q31 -42 31 -111 q0 -32 -5 -58 l-54 -308 l-55 0 l53 303 q5 30 5 51 q0 57 -27.5 90 q-27.5 33 -75.5 33 q-52 0 -95.5 -40.5 q-43.5 -40.5 -57.5 -117.5 l-56 -319 l-55 0 l53 303 q5 30 5 51 q0 57 -27.5 90 q-27.5 33 -75.5 33 q-51 0 -95.5 -40.5 q-44.5 -40.5 -57.5 -114.5 l-56 -322 l-55 0 l91 520 l48 -2 q-9 -52 -12 -81 q28 46 68 70 q40 24 85 24 q35 0 63.5 -14 q28.5 -14 48.5 -40 q18 -25 25 -62 q29 57 74.5 86.5 q45.5 29.5 97.5 29.5 q35 0 63.5 -14 q28.5 -14 48.5 -40 Z" /><glyph glyph-name="uni1E3F" unicode="&#x1e3f;" d="M486 561 l-52 0 l106 148 l66 0 l-120 -148 ZM730 443 q31 -42 31 -111 q0 -32 -5 -58 l-54 -308 l-55 0 l53 303 q5 30 5 51 q0 57 -27.5 90 q-27.5 33 -75.5 33 q-52 0 -95.5 -40.5 q-43.5 -40.5 -57.5 -117.5 l-56 -319 l-55 0 l53 303 q5 30 5 51 q0 57 -27.5 90 q-27.5 33 -75.5 33 q-51 0 -95.5 -40.5 q-44.5 -40.5 -57.5 -114.5 l-56 -322 l-55 0 l91 520 l48 -2 q-9 -52 -12 -81 q28 46 68 70 q40 24 85 24 q35 0 63.5 -14 q28.5 -14 48.5 -40 q18 -25 25 -62 q29 57 74.5 86.5 q45.5 29.5 97.5 29.5 q35 0 63.5 -14 q28.5 -14 48.5 -40 Z" /><glyph glyph-name="n" unicode="n" d="M328 497 q73 0 117.5 -44.5 q44.5 -44.5 44.5 -126.5 q0 -22 -5 -55 l-54 -305 l-56 0 l52 299 q5 30 5 51 q0 62 -31.5 94.5 q-31.5 32.5 -86.5 32.5 q-62 0 -111.5 -42 q-49.5 -42 -63.5 -122 l-55 -313 l-55 0 l91 521 l48 0 l-13 -88 q29 48 74 73 q45 25 99 25 Z" /><glyph glyph-name="nacute" unicode="&#x144;" d="M343 562 l-52 0 l106 148 l66 0 l-120 -148 ZM328 497 q73 0 117.5 -44.5 q44.5 -44.5 44.5 -126.5 q0 -22 -5 -55 l-54 -305 l-56 0 l52 299 q5 30 5 51 q0 62 -31.5 94.5 q-31.5 32.5 -86.5 32.5 q-62 0 -111.5 -42 q-49.5 -42 -63.5 -122 l-55 -313 l-55 0 l91 521 l48 0 l-13 -88 q29 48 74 73 q45 25 99 25 Z" /><glyph glyph-name="napostrophe" unicode="&#x149;" d="M161 673 q-8 -43 -37 -72.5 q-29 -29.5 -77 -38.5 l1 32 q58 16 73 64 l-4 0 q-16 0 -24.5 10 q-8.5 10 -8.5 25 q0 18 11.5 31 q11.5 13 28.5 13 q17 0 28 -11.5 q11 -11.5 11 -33.5 q0 -5 -2 -19 ZM328 497 q73 0 117.5 -44.5 q44.5 -44.5 44.5 -126.5 q0 -22 -5 -55 l-54 -305 l-56 0 l52 299 q5 30 5 51 q0 62 -31.5 94.5 q-31.5 32.5 -86.5 32.5 q-62 0 -111.5 -42 q-49.5 -42 -63.5 -122 l-55 -313 l-55 0 l91 521 l48 0 l-13 -88 q29 48 74 73 q45 25 99 25 Z" /><glyph glyph-name="ncaron" unicode="&#x148;" d="M269 710 l60 -106 l95 106 l61 0 l-137 -148 l-51 0 l-84 148 l56 0 ZM328 497 q73 0 117.5 -44.5 q44.5 -44.5 44.5 -126.5 q0 -22 -5 -55 l-54 -305 l-56 0 l52 299 q5 30 5 51 q0 62 -31.5 94.5 q-31.5 32.5 -86.5 32.5 q-62 0 -111.5 -42 q-49.5 -42 -63.5 -122 l-55 -313 l-55 0 l91 521 l48 0 l-13 -88 q29 48 74 73 q45 25 99 25 Z" /><glyph glyph-name="uni0146" unicode="&#x146;" d="M328 497 q73 0 117.5 -44.5 q44.5 -44.5 44.5 -126.5 q0 -22 -5 -55 l-54 -305 l-56 0 l52 299 q5 30 5 51 q0 62 -31.5 94.5 q-31.5 32.5 -86.5 32.5 q-62 0 -111.5 -42 q-49.5 -42 -63.5 -122 l-55 -313 l-55 0 l91 521 l48 0 l-13 -88 q29 48 74 73 q45 25 99 25 ZM212 -94 q18 0 28.5 -11 q10.5 -11 10.5 -35 q0 -11 -1 -18 q-8 -43 -37.5 -72 q-29.5 -29 -76.5 -38 l2 31 q61 18 73 65 l-5 0 q-15 0 -24 9 q-9 9 -9 24 q0 19 11.5 32 q11.5 13 27.5 13 Z" /><glyph glyph-name="uni01F9" unicode="&#x1f9;" d="M303 562 l-67 148 l61 0 l55 -148 l-49 0 ZM328 497 q73 0 117.5 -44.5 q44.5 -44.5 44.5 -126.5 q0 -22 -5 -55 l-54 -305 l-56 0 l52 299 q5 30 5 51 q0 62 -31.5 94.5 q-31.5 32.5 -86.5 32.5 q-62 0 -111.5 -42 q-49.5 -42 -63.5 -122 l-55 -313 l-55 0 l91 521 l48 0 l-13 -88 q29 48 74 73 q45 25 99 25 Z" /><glyph glyph-name="eng" unicode="&#x14b;" d="M328 497 q73 0 117.5 -44.5 q44.5 -44.5 44.5 -126.5 q0 -22 -5 -55 l-69 -390 q-28 -162 -146 -162 q-52 0 -80 28 l28 43 q17 -18 52 -18 q33 0 56.5 24.5 q23.5 24.5 35.5 91.5 l65 377 q5 30 5 51 q0 62 -31.5 94.5 q-31.5 32.5 -86.5 32.5 q-62 0 -111.5 -42 q-49.5 -42 -63.5 -122 l-55 -313 l-55 0 l91 521 l48 0 l-13 -88 q29 48 74 73 q45 25 99 25 Z" /><glyph glyph-name="ntilde" unicode="ñ" d="M174 584 q10 52 38 82.5 q28 30.5 69 30.5 q25 0 39.5 -11 q14.5 -11 29.5 -33 q12 -17 20.5 -24.5 q8.5 -7.5 22.5 -7.5 q18 0 33 16.5 q15 16.5 22 47.5 l47 0 q-9 -52 -37.5 -82.5 q-28.5 -30.5 -68.5 -30.5 q-25 0 -40 11.5 q-15 11.5 -29 31.5 q-11 16 -20.5 24 q-9.5 8 -22.5 8 q-19 0 -33.5 -16.5 q-14.5 -16.5 -21.5 -46.5 l-48 0 ZM328 497 q73 0 117.5 -44.5 q44.5 -44.5 44.5 -126.5 q0 -22 -5 -55 l-54 -305 l-56 0 l52 299 q5 30 5 51 q0 62 -31.5 94.5 q-31.5 32.5 -86.5 32.5 q-62 0 -111.5 -42 q-49.5 -42 -63.5 -122 l-55 -313 l-55 0 l91 521 l48 0 l-13 -88 q29 48 74 73 q45 25 99 25 Z" /><glyph glyph-name="o" unicode="o" d="M47 245 q14 78 53.5 135 q39.5 57 95.5 87 q56 30 117 30 q60 0 107 -30 q47 -30 72.5 -83 q25.5 -53 25.5 -120 q0 -34 -5 -60 q-14 -77 -53.5 -133 q-39.5 -56 -95 -85.5 q-55.5 -29.5 -115.5 -29.5 q-61 0 -108 29.5 q-47 29.5 -73 82 q-26 52.5 -26 118.5 q0 26 5 59 ZM105 240 q-5 -32 -5 -55 q0 -79 41.5 -127.5 q41.5 -48.5 111.5 -48.5 q73 0 129 52.5 q56 52.5 73 148.5 q5 32 5 55 q0 80 -41 129.5 q-41 49.5 -110 49.5 q-47 0 -89 -23.5 q-42 -23.5 -72.5 -70 q-30.5 -46.5 -42.5 -110.5 Z" /><glyph glyph-name="oacute" unicode="ó" d="M360 561 l-52 0 l106 148 l66 0 l-120 -148 ZM47 245 q14 78 53.5 135 q39.5 57 95.5 87 q56 30 117 30 q60 0 107 -30 q47 -30 72.5 -83 q25.5 -53 25.5 -120 q0 -34 -5 -60 q-14 -77 -53.5 -133 q-39.5 -56 -95 -85.5 q-55.5 -29.5 -115.5 -29.5 q-61 0 -108 29.5 q-47 29.5 -73 82 q-26 52.5 -26 118.5 q0 26 5 59 ZM105 240 q-5 -32 -5 -55 q0 -79 41.5 -127.5 q41.5 -48.5 111.5 -48.5 q73 0 129 52.5 q56 52.5 73 148.5 q5 32 5 55 q0 80 -41 129.5 q-41 49.5 -110 49.5 q-47 0 -89 -23.5 q-42 -23.5 -72.5 -70 q-30.5 -46.5 -42.5 -110.5 Z" /><glyph glyph-name="obreve" unicode="&#x14f;" d="M349 564 q-59 0 -94 31 q-35 31 -35 82 q0 13 3 28 l52 0 q-1 -6 -1 -19 q0 -35 20.5 -56 q20.5 -21 58.5 -21 q82 0 103 96 l52 0 q-13 -68 -55 -104.5 q-42 -36.5 -104 -36.5 ZM47 245 q14 78 53.5 135 q39.5 57 95.5 87 q56 30 117 30 q60 0 107 -30 q47 -30 72.5 -83 q25.5 -53 25.5 -120 q0 -34 -5 -60 q-14 -77 -53.5 -133 q-39.5 -56 -95 -85.5 q-55.5 -29.5 -115.5 -29.5 q-61 0 -108 29.5 q-47 29.5 -73 82 q-26 52.5 -26 118.5 q0 26 5 59 ZM105 240 q-5 -32 -5 -55 q0 -79 41.5 -127.5 q41.5 -48.5 111.5 -48.5 q73 0 129 52.5 q56 52.5 73 148.5 q5 32 5 55 q0 80 -41 129.5 q-41 49.5 -110 49.5 q-47 0 -89 -23.5 q-42 -23.5 -72.5 -70 q-30.5 -46.5 -42.5 -110.5 Z" /><glyph glyph-name="uni01D2" unicode="&#x1d2;" d="M286 709 l59 -105 l96 105 l60 0 l-136 -148 l-51 0 l-84 148 l56 0 ZM47 245 q14 78 53.5 135 q39.5 57 95.5 87 q56 30 117 30 q60 0 107 -30 q47 -30 72.5 -83 q25.5 -53 25.5 -120 q0 -34 -5 -60 q-14 -77 -53.5 -133 q-39.5 -56 -95 -85.5 q-55.5 -29.5 -115.5 -29.5 q-61 0 -108 29.5 q-47 29.5 -73 82 q-26 52.5 -26 118.5 q0 26 5 59 ZM105 240 q-5 -32 -5 -55 q0 -79 41.5 -127.5 q41.5 -48.5 111.5 -48.5 q73 0 129 52.5 q56 52.5 73 148.5 q5 32 5 55 q0 80 -41 129.5 q-41 49.5 -110 49.5 q-47 0 -89 -23.5 q-42 -23.5 -72.5 -70 q-30.5 -46.5 -42.5 -110.5 Z" /><glyph glyph-name="ocircumflex" unicode="ô" d="M338 709 l51 0 l85 -148 l-56 0 l-60 106 l-95 -106 l-61 0 l136 148 ZM47 245 q14 78 53.5 135 q39.5 57 95.5 87 q56 30 117 30 q60 0 107 -30 q47 -30 72.5 -83 q25.5 -53 25.5 -120 q0 -34 -5 -60 q-14 -77 -53.5 -133 q-39.5 -56 -95 -85.5 q-55.5 -29.5 -115.5 -29.5 q-61 0 -108 29.5 q-47 29.5 -73 82 q-26 52.5 -26 118.5 q0 26 5 59 ZM105 240 q-5 -32 -5 -55 q0 -79 41.5 -127.5 q41.5 -48.5 111.5 -48.5 q73 0 129 52.5 q56 52.5 73 148.5 q5 32 5 55 q0 80 -41 129.5 q-41 49.5 -110 49.5 q-47 0 -89 -23.5 q-42 -23.5 -72.5 -70 q-30.5 -46.5 -42.5 -110.5 Z" /><glyph glyph-name="uni1ED1" unicode="&#x1ed1;" d="M493 730 l-51 0 l98 132 l65 0 l-112 -132 ZM336 709 l51 0 l85 -148 l-57 0 l-60 106 l-96 -106 l-59 0 l136 148 ZM47 245 q14 78 53.5 135 q39.5 57 95.5 87 q56 30 117 30 q60 0 107 -30 q47 -30 72.5 -83 q25.5 -53 25.5 -120 q0 -34 -5 -60 q-14 -77 -53.5 -133 q-39.5 -56 -95 -85.5 q-55.5 -29.5 -115.5 -29.5 q-61 0 -108 29.5 q-47 29.5 -73 82 q-26 52.5 -26 118.5 q0 26 5 59 ZM105 240 q-5 -32 -5 -55 q0 -79 41.5 -127.5 q41.5 -48.5 111.5 -48.5 q73 0 129 52.5 q56 52.5 73 148.5 q5 32 5 55 q0 80 -41 129.5 q-41 49.5 -110 49.5 q-47 0 -89 -23.5 q-42 -23.5 -72.5 -70 q-30.5 -46.5 -42.5 -110.5 Z" /><glyph glyph-name="uni1ED9" unicode="&#x1ed9;" d="M338 709 l51 0 l85 -148 l-56 0 l-60 106 l-95 -106 l-61 0 l136 148 ZM47 245 q14 78 53.5 135 q39.5 57 95.5 87 q56 30 117 30 q60 0 107 -30 q47 -30 72.5 -83 q25.5 -53 25.5 -120 q0 -34 -5 -60 q-14 -77 -53.5 -133 q-39.5 -56 -95 -85.5 q-55.5 -29.5 -115.5 -29.5 q-61 0 -108 29.5 q-47 29.5 -73 82 q-26 52.5 -26 118.5 q0 26 5 59 ZM105 240 q-5 -32 -5 -55 q0 -79 41.5 -127.5 q41.5 -48.5 111.5 -48.5 q73 0 129 52.5 q56 52.5 73 148.5 q5 32 5 55 q0 80 -41 129.5 q-41 49.5 -110 49.5 q-47 0 -89 -23.5 q-42 -23.5 -72.5 -70 q-30.5 -46.5 -42.5 -110.5 ZM213 -205 q-17 0 -29.5 13 q-12.5 13 -12.5 30 q0 17 12.5 29.5 q12.5 12.5 29.5 12.5 q17 0 29.5 -12.5 q12.5 -12.5 12.5 -29.5 q0 -17 -12.5 -30 q-12.5 -13 -29.5 -13 Z" /><glyph glyph-name="uni1ED3" unicode="&#x1ed3;" d="M453 730 l-65 132 l62 0 l52 -132 l-49 0 ZM336 709 l51 0 l85 -148 l-57 0 l-60 106 l-96 -106 l-59 0 l136 148 ZM47 245 q14 78 53.5 135 q39.5 57 95.5 87 q56 30 117 30 q60 0 107 -30 q47 -30 72.5 -83 q25.5 -53 25.5 -120 q0 -34 -5 -60 q-14 -77 -53.5 -133 q-39.5 -56 -95 -85.5 q-55.5 -29.5 -115.5 -29.5 q-61 0 -108 29.5 q-47 29.5 -73 82 q-26 52.5 -26 118.5 q0 26 5 59 ZM105 240 q-5 -32 -5 -55 q0 -79 41.5 -127.5 q41.5 -48.5 111.5 -48.5 q73 0 129 52.5 q56 52.5 73 148.5 q5 32 5 55 q0 80 -41 129.5 q-41 49.5 -110 49.5 q-47 0 -89 -23.5 q-42 -23.5 -72.5 -70 q-30.5 -46.5 -42.5 -110.5 Z" /><glyph glyph-name="uni1ED5" unicode="&#x1ed5;" d="M413 860 q32 18 71 18 q38 0 63.5 -21 q25.5 -21 25.5 -56 q0 -80 -106 -108 l-23 34 q40 11 59.5 25.5 q19.5 14.5 19.5 42.5 q0 18 -13 29.5 q-13 11.5 -34 11.5 q-28 0 -59 -17 l-4 41 ZM336 709 l51 0 l85 -148 l-57 0 l-60 106 l-96 -106 l-59 0 l136 148 ZM47 245 q14 78 53.5 135 q39.5 57 95.5 87 q56 30 117 30 q60 0 107 -30 q47 -30 72.5 -83 q25.5 -53 25.5 -120 q0 -34 -5 -60 q-14 -77 -53.5 -133 q-39.5 -56 -95 -85.5 q-55.5 -29.5 -115.5 -29.5 q-61 0 -108 29.5 q-47 29.5 -73 82 q-26 52.5 -26 118.5 q0 26 5 59 ZM105 240 q-5 -32 -5 -55 q0 -79 41.5 -127.5 q41.5 -48.5 111.5 -48.5 q73 0 129 52.5 q56 52.5 73 148.5 q5 32 5 55 q0 80 -41 129.5 q-41 49.5 -110 49.5 q-47 0 -89 -23.5 q-42 -23.5 -72.5 -70 q-30.5 -46.5 -42.5 -110.5 Z" /><glyph glyph-name="uni1ED7" unicode="&#x1ed7;" d="M539 853 q-10 -52 -38 -82.5 q-28 -30.5 -69 -30.5 q-25 0 -39 11 q-14 11 -30 32 q-12 17 -20.5 24.5 q-8.5 7.5 -22.5 7.5 q-19 0 -33.5 -16 q-14.5 -16 -21.5 -47 l-47 0 q9 52 37.5 82.5 q28.5 30.5 68.5 30.5 q25 0 40 -11.5 q15 -11.5 29 -32.5 q11 -16 20.5 -24 q9.5 -8 22.5 -8 q19 0 33.5 16.5 q14.5 16.5 21.5 47.5 l48 0 ZM337 709 l51 0 l84 -148 l-56 0 l-60 106 l-96 -106 l-59 0 l136 148 ZM47 245 q14 78 53.5 135 q39.5 57 95.5 87 q56 30 117 30 q60 0 107 -30 q47 -30 72.5 -83 q25.5 -53 25.5 -120 q0 -34 -5 -60 q-14 -77 -53.5 -133 q-39.5 -56 -95 -85.5 q-55.5 -29.5 -115.5 -29.5 q-61 0 -108 29.5 q-47 29.5 -73 82 q-26 52.5 -26 118.5 q0 26 5 59 ZM105 240 q-5 -32 -5 -55 q0 -79 41.5 -127.5 q41.5 -48.5 111.5 -48.5 q73 0 129 52.5 q56 52.5 73 148.5 q5 32 5 55 q0 80 -41 129.5 q-41 49.5 -110 49.5 q-47 0 -89 -23.5 q-42 -23.5 -72.5 -70 q-30.5 -46.5 -42.5 -110.5 Z" /><glyph glyph-name="odieresis" unicode="ö" d="M254 596 q-17 0 -29 12.5 q-12 12.5 -12 30.5 q0 17 12 29.5 q12 12.5 29 12.5 q17 0 29.5 -12.5 q12.5 -12.5 12.5 -29.5 q0 -18 -12 -30.5 q-12 -12.5 -30 -12.5 ZM451 596 q-17 0 -29.5 12.5 q-12.5 12.5 -12.5 30.5 q0 17 12 29.5 q12 12.5 29 12.5 q18 0 30.5 -12.5 q12.5 -12.5 12.5 -29.5 q0 -18 -12.5 -30.5 q-12.5 -12.5 -29.5 -12.5 ZM47 245 q14 78 53.5 135 q39.5 57 95.5 87 q56 30 117 30 q60 0 107 -30 q47 -30 72.5 -83 q25.5 -53 25.5 -120 q0 -34 -5 -60 q-14 -77 -53.5 -133 q-39.5 -56 -95 -85.5 q-55.5 -29.5 -115.5 -29.5 q-61 0 -108 29.5 q-47 29.5 -73 82 q-26 52.5 -26 118.5 q0 26 5 59 ZM105 240 q-5 -32 -5 -55 q0 -79 41.5 -127.5 q41.5 -48.5 111.5 -48.5 q73 0 129 52.5 q56 52.5 73 148.5 q5 32 5 55 q0 80 -41 129.5 q-41 49.5 -110 49.5 q-47 0 -89 -23.5 q-42 -23.5 -72.5 -70 q-30.5 -46.5 -42.5 -110.5 Z" /><glyph glyph-name="uni1ECD" unicode="&#x1ecd;" d="M47 245 q14 78 53.5 135 q39.5 57 95.5 87 q56 30 117 30 q60 0 107 -30 q47 -30 72.5 -83 q25.5 -53 25.5 -120 q0 -34 -5 -60 q-14 -77 -53.5 -133 q-39.5 -56 -95 -85.5 q-55.5 -29.5 -115.5 -29.5 q-61 0 -108 29.5 q-47 29.5 -73 82 q-26 52.5 -26 118.5 q0 26 5 59 ZM105 240 q-5 -32 -5 -55 q0 -79 41.5 -127.5 q41.5 -48.5 111.5 -48.5 q73 0 129 52.5 q56 52.5 73 148.5 q5 32 5 55 q0 80 -41 129.5 q-41 49.5 -110 49.5 q-47 0 -89 -23.5 q-42 -23.5 -72.5 -70 q-30.5 -46.5 -42.5 -110.5 ZM213 -205 q-17 0 -29.5 13 q-12.5 13 -12.5 30 q0 17 12.5 29.5 q12.5 12.5 29.5 12.5 q17 0 29.5 -12.5 q12.5 -12.5 12.5 -29.5 q0 -17 -12.5 -30 q-12.5 -13 -29.5 -13 Z" /><glyph glyph-name="ograve" unicode="ò" d="M320 561 l-68 148 l62 0 l55 -148 l-49 0 ZM47 245 q14 78 53.5 135 q39.5 57 95.5 87 q56 30 117 30 q60 0 107 -30 q47 -30 72.5 -83 q25.5 -53 25.5 -120 q0 -34 -5 -60 q-14 -77 -53.5 -133 q-39.5 -56 -95 -85.5 q-55.5 -29.5 -115.5 -29.5 q-61 0 -108 29.5 q-47 29.5 -73 82 q-26 52.5 -26 118.5 q0 26 5 59 ZM105 240 q-5 -32 -5 -55 q0 -79 41.5 -127.5 q41.5 -48.5 111.5 -48.5 q73 0 129 52.5 q56 52.5 73 148.5 q5 32 5 55 q0 80 -41 129.5 q-41 49.5 -110 49.5 q-47 0 -89 -23.5 q-42 -23.5 -72.5 -70 q-30.5 -46.5 -42.5 -110.5 Z" /><glyph glyph-name="uni1ECF" unicode="&#x1ecf;" d="M278 711 q33 18 71 18 q39 0 64.5 -21 q25.5 -21 25.5 -56 q0 -44 -28.5 -68.5 q-28.5 -24.5 -78.5 -39.5 l-22 34 q39 11 59 26.5 q20 15.5 20 41.5 q0 18 -13 29.5 q-13 11.5 -35 11.5 q-28 0 -59 -17 l-4 41 ZM47 245 q14 78 53.5 135 q39.5 57 95.5 87 q56 30 117 30 q60 0 107 -30 q47 -30 72.5 -83 q25.5 -53 25.5 -120 q0 -34 -5 -60 q-14 -77 -53.5 -133 q-39.5 -56 -95 -85.5 q-55.5 -29.5 -115.5 -29.5 q-61 0 -108 29.5 q-47 29.5 -73 82 q-26 52.5 -26 118.5 q0 26 5 59 ZM105 240 q-5 -32 -5 -55 q0 -79 41.5 -127.5 q41.5 -48.5 111.5 -48.5 q73 0 129 52.5 q56 52.5 73 148.5 q5 32 5 55 q0 80 -41 129.5 q-41 49.5 -110 49.5 q-47 0 -89 -23.5 q-42 -23.5 -72.5 -70 q-30.5 -46.5 -42.5 -110.5 Z" /><glyph glyph-name="ohorn" unicode="&#x1a1;" d="M599 611 l1 -27 q0 -73 -29 -107 q-29 -34 -106 -34 q-17 0 -25 1 q37 -30 57.5 -76.5 q20.5 -46.5 20.5 -104.5 q0 -24 -5 -59 q-14 -77 -53.5 -133 q-39.5 -56 -95 -85.5 q-55.5 -29.5 -115.5 -29.5 q-61 0 -108 29.5 q-47 29.5 -73 82 q-26 52.5 -26 118.5 q0 26 5 59 q14 78 54 135 q40 57 98.5 87 q58.5 30 127.5 30 q35 0 77 -7 q9 -1 27 -3 q18 -2 31 -2 q56 0 73.5 32.5 q17.5 32.5 14.5 93.5 l49 0 ZM455 210 q5 32 5 55 q0 80 -41 129.5 q-41 49.5 -110 49.5 q-47 0 -89 -23.5 q-42 -23.5 -72.5 -70 q-30.5 -46.5 -42.5 -110.5 q-5 -32 -5 -55 q0 -79 41.5 -127.5 q41.5 -48.5 111.5 -48.5 q73 0 129 52.5 q56 52.5 73 148.5 Z" /><glyph glyph-name="uni1EDB" unicode="&#x1edb;" d="M415 709 l65 0 l-119 -148 l-53 0 l107 148 ZM599 611 l1 -27 q0 -73 -29 -107 q-29 -34 -106 -34 q-17 0 -25 1 q37 -30 57.5 -76.5 q20.5 -46.5 20.5 -104.5 q0 -24 -5 -59 q-14 -77 -53.5 -133 q-39.5 -56 -95 -85.5 q-55.5 -29.5 -115.5 -29.5 q-61 0 -108 29.5 q-47 29.5 -73 82 q-26 52.5 -26 118.5 q0 26 5 59 q14 78 54 135 q40 57 98.5 87 q58.5 30 127.5 30 q35 0 77 -7 q9 -1 27 -3 q18 -2 31 -2 q56 0 73.5 32.5 q17.5 32.5 14.5 93.5 l49 0 ZM455 210 q5 32 5 55 q0 80 -41 129.5 q-41 49.5 -110 49.5 q-47 0 -89 -23.5 q-42 -23.5 -72.5 -70 q-30.5 -46.5 -42.5 -110.5 q-5 -32 -5 -55 q0 -79 41.5 -127.5 q41.5 -48.5 111.5 -48.5 q73 0 129 52.5 q56 52.5 73 148.5 Z" /><glyph glyph-name="uni1EE3" unicode="&#x1ee3;" d="M599 611 l1 -27 q0 -73 -29 -107 q-29 -34 -106 -34 q-17 0 -25 1 q37 -30 57.5 -76.5 q20.5 -46.5 20.5 -104.5 q0 -24 -5 -59 q-14 -77 -53.5 -133 q-39.5 -56 -95 -85.5 q-55.5 -29.5 -115.5 -29.5 q-61 0 -108 29.5 q-47 29.5 -73 82 q-26 52.5 -26 118.5 q0 26 5 59 q14 78 54 135 q40 57 98.5 87 q58.5 30 127.5 30 q35 0 77 -7 q9 -1 27 -3 q18 -2 31 -2 q56 0 73.5 32.5 q17.5 32.5 14.5 93.5 l49 0 ZM455 210 q5 32 5 55 q0 80 -41 129.5 q-41 49.5 -110 49.5 q-47 0 -89 -23.5 q-42 -23.5 -72.5 -70 q-30.5 -46.5 -42.5 -110.5 q-5 -32 -5 -55 q0 -79 41.5 -127.5 q41.5 -48.5 111.5 -48.5 q73 0 129 52.5 q56 52.5 73 148.5 ZM212 -120 q18 0 30 -12.5 q12 -12.5 12 -29.5 q0 -17 -12.5 -30 q-12.5 -13 -29.5 -13 q-16 0 -28.5 13 q-12.5 13 -12.5 30 q0 17 12.5 29.5 q12.5 12.5 28.5 12.5 Z" /><glyph glyph-name="uni1EDD" unicode="&#x1edd;" d="M314 709 l55 -148 l-49 0 l-67 148 l61 0 ZM599 611 l1 -27 q0 -73 -29 -107 q-29 -34 -106 -34 q-17 0 -25 1 q37 -30 57.5 -76.5 q20.5 -46.5 20.5 -104.5 q0 -24 -5 -59 q-14 -77 -53.5 -133 q-39.5 -56 -95 -85.5 q-55.5 -29.5 -115.5 -29.5 q-61 0 -108 29.5 q-47 29.5 -73 82 q-26 52.5 -26 118.5 q0 26 5 59 q14 78 54 135 q40 57 98.5 87 q58.5 30 127.5 30 q35 0 77 -7 q9 -1 27 -3 q18 -2 31 -2 q56 0 73.5 32.5 q17.5 32.5 14.5 93.5 l49 0 ZM455 210 q5 32 5 55 q0 80 -41 129.5 q-41 49.5 -110 49.5 q-47 0 -89 -23.5 q-42 -23.5 -72.5 -70 q-30.5 -46.5 -42.5 -110.5 q-5 -32 -5 -55 q0 -79 41.5 -127.5 q41.5 -48.5 111.5 -48.5 q73 0 129 52.5 q56 52.5 73 148.5 Z" /><glyph glyph-name="uni1EDF" unicode="&#x1edf;" d="M342 687 q-28 0 -59 -17 l-4 41 q32 18 71 18 q38 0 63.5 -21 q25.5 -21 25.5 -56 q0 -44 -28 -68.5 q-28 -24.5 -78 -39.5 l-22 34 q38 11 58 26.5 q20 15.5 20 41.5 q0 18 -12.5 29.5 q-12.5 11.5 -34.5 11.5 ZM599 611 l1 -27 q0 -73 -29 -107 q-29 -34 -106 -34 q-17 0 -25 1 q37 -30 57.5 -76.5 q20.5 -46.5 20.5 -104.5 q0 -24 -5 -59 q-14 -77 -53.5 -133 q-39.5 -56 -95 -85.5 q-55.5 -29.5 -115.5 -29.5 q-61 0 -108 29.5 q-47 29.5 -73 82 q-26 52.5 -26 118.5 q0 26 5 59 q14 78 54 135 q40 57 98.5 87 q58.5 30 127.5 30 q35 0 77 -7 q9 -1 27 -3 q18 -2 31 -2 q56 0 73.5 32.5 q17.5 32.5 14.5 93.5 l49 0 ZM455 210 q5 32 5 55 q0 80 -41 129.5 q-41 49.5 -110 49.5 q-47 0 -89 -23.5 q-42 -23.5 -72.5 -70 q-30.5 -46.5 -42.5 -110.5 q-5 -32 -5 -55 q0 -79 41.5 -127.5 q41.5 -48.5 111.5 -48.5 q73 0 129 52.5 q56 52.5 73 148.5 Z" /><glyph glyph-name="uni1EE1" unicode="&#x1ee1;" d="M294 647 q-19 0 -33.5 -16.5 q-14.5 -16.5 -21.5 -47.5 l-48 0 q10 52 38 82.5 q28 30.5 69 30.5 q25 0 40 -11.5 q15 -11.5 29 -31.5 q11 -16 20.5 -24 q9.5 -8 22.5 -8 q19 0 33.5 16 q14.5 16 21.5 47 l48 0 q-10 -52 -38 -82.5 q-28 -30.5 -69 -30.5 q-25 0 -39.5 11 q-14.5 11 -29.5 33 q-12 17 -20.5 24.5 q-8.5 7.5 -22.5 7.5 ZM599 611 l1 -27 q0 -73 -29 -107 q-29 -34 -106 -34 q-17 0 -25 1 q37 -30 57.5 -76.5 q20.5 -46.5 20.5 -104.5 q0 -24 -5 -59 q-14 -77 -53.5 -133 q-39.5 -56 -95 -85.5 q-55.5 -29.5 -115.5 -29.5 q-61 0 -108 29.5 q-47 29.5 -73 82 q-26 52.5 -26 118.5 q0 26 5 59 q14 78 54 135 q40 57 98.5 87 q58.5 30 127.5 30 q35 0 77 -7 q9 -1 27 -3 q18 -2 31 -2 q56 0 73.5 32.5 q17.5 32.5 14.5 93.5 l49 0 ZM455 210 q5 32 5 55 q0 80 -41 129.5 q-41 49.5 -110 49.5 q-47 0 -89 -23.5 q-42 -23.5 -72.5 -70 q-30.5 -46.5 -42.5 -110.5 q-5 -32 -5 -55 q0 -79 41.5 -127.5 q41.5 -48.5 111.5 -48.5 q73 0 129 52.5 q56 52.5 73 148.5 Z" /><glyph glyph-name="ohungarumlaut" unicode="&#x151;" d="M295 561 l-51 0 l107 148 l64 0 l-120 -148 ZM426 561 l-51 0 l106 148 l64 0 l-119 -148 ZM47 245 q14 78 53.5 135 q39.5 57 95.5 87 q56 30 117 30 q60 0 107 -30 q47 -30 72.5 -83 q25.5 -53 25.5 -120 q0 -34 -5 -60 q-14 -77 -53.5 -133 q-39.5 -56 -95 -85.5 q-55.5 -29.5 -115.5 -29.5 q-61 0 -108 29.5 q-47 29.5 -73 82 q-26 52.5 -26 118.5 q0 26 5 59 ZM105 240 q-5 -32 -5 -55 q0 -79 41.5 -127.5 q41.5 -48.5 111.5 -48.5 q73 0 129 52.5 q56 52.5 73 148.5 q5 32 5 55 q0 80 -41 129.5 q-41 49.5 -110 49.5 q-47 0 -89 -23.5 q-42 -23.5 -72.5 -70 q-30.5 -46.5 -42.5 -110.5 Z" /><glyph glyph-name="omacron" unicode="&#x14d;" d="M495 613 l-293 0 l9 51 l293 0 l-9 -51 ZM47 245 q14 78 53.5 135 q39.5 57 95.5 87 q56 30 117 30 q60 0 107 -30 q47 -30 72.5 -83 q25.5 -53 25.5 -120 q0 -34 -5 -60 q-14 -77 -53.5 -133 q-39.5 -56 -95 -85.5 q-55.5 -29.5 -115.5 -29.5 q-61 0 -108 29.5 q-47 29.5 -73 82 q-26 52.5 -26 118.5 q0 26 5 59 ZM105 240 q-5 -32 -5 -55 q0 -79 41.5 -127.5 q41.5 -48.5 111.5 -48.5 q73 0 129 52.5 q56 52.5 73 148.5 q5 32 5 55 q0 80 -41 129.5 q-41 49.5 -110 49.5 q-47 0 -89 -23.5 q-42 -23.5 -72.5 -70 q-30.5 -46.5 -42.5 -110.5 Z" /><glyph glyph-name="oslash" unicode="ø" d="M509 520 l65 0 l-96 -109 q42 -61 42 -147 q0 -34 -5 -60 q-14 -77 -53.5 -133 q-39.5 -56 -95 -85.5 q-55.5 -29.5 -115.5 -29.5 q-77 0 -131 49 l-64 -72 l-65 0 l95 108 q-42 59 -42 145 q0 26 5 59 q13 77 52.5 134.5 q39.5 57.5 95.5 87.5 q56 30 117 30 q77 0 131 -49 l64 72 ZM107 240 q-4 -24 -4 -53 q0 -61 22 -101 l283 320 q-38 38 -97 38 q-47 0 -89 -23.5 q-42 -23.5 -72.5 -70 q-30.5 -46.5 -42.5 -110.5 ZM457 210 q4 24 4 53 q0 60 -22 103 l-283 -319 q40 -38 99 -38 q73 0 129 52.5 q56 52.5 73 148.5 Z" /><glyph glyph-name="oslashacute" unicode="&#x1ff;" d="M363 561 l-53 0 l107 148 l65 0 l-119 -148 ZM509 520 l65 0 l-96 -109 q42 -61 42 -147 q0 -34 -5 -60 q-14 -77 -53.5 -133 q-39.5 -56 -95 -85.5 q-55.5 -29.5 -115.5 -29.5 q-77 0 -131 49 l-64 -72 l-65 0 l95 108 q-42 59 -42 145 q0 26 5 59 q13 77 52.5 134.5 q39.5 57.5 95.5 87.5 q56 30 117 30 q77 0 131 -49 l64 72 ZM107 240 q-4 -24 -4 -53 q0 -61 22 -101 l283 320 q-38 38 -97 38 q-47 0 -89 -23.5 q-42 -23.5 -72.5 -70 q-30.5 -46.5 -42.5 -110.5 ZM457 210 q4 24 4 53 q0 60 -22 103 l-283 -319 q40 -38 99 -38 q73 0 129 52.5 q56 52.5 73 148.5 Z" /><glyph glyph-name="otilde" unicode="õ" d="M191 583 q9 52 37.5 82.5 q28.5 30.5 68.5 30.5 q25 0 40 -11.5 q15 -11.5 29 -31.5 q11 -16 20.5 -24 q9.5 -8 22.5 -8 q19 0 34 16 q15 16 22 47 l47 0 q-9 -52 -37.5 -82.5 q-28.5 -30.5 -68.5 -30.5 q-25 0 -40 11.5 q-15 11.5 -29 32.5 q-11 16 -20.5 24 q-9.5 8 -22.5 8 q-19 0 -33.5 -16.5 q-14.5 -16.5 -22.5 -47.5 l-47 0 ZM47 245 q14 78 53.5 135 q39.5 57 95.5 87 q56 30 117 30 q60 0 107 -30 q47 -30 72.5 -83 q25.5 -53 25.5 -120 q0 -34 -5 -60 q-14 -77 -53.5 -133 q-39.5 -56 -95 -85.5 q-55.5 -29.5 -115.5 -29.5 q-61 0 -108 29.5 q-47 29.5 -73 82 q-26 52.5 -26 118.5 q0 26 5 59 ZM105 240 q-5 -32 -5 -55 q0 -79 41.5 -127.5 q41.5 -48.5 111.5 -48.5 q73 0 129 52.5 q56 52.5 73 148.5 q5 32 5 55 q0 80 -41 129.5 q-41 49.5 -110 49.5 q-47 0 -89 -23.5 q-42 -23.5 -72.5 -70 q-30.5 -46.5 -42.5 -110.5 Z" /><glyph glyph-name="oe" unicode="&#x153;" d="M672 9 q94 0 148 85 l40 -29 q-30 -54 -81.5 -81.5 q-51.5 -27.5 -111.5 -27.5 q-75 0 -126.5 41.5 q-51.5 41.5 -67.5 112.5 q-34 -74 -94 -114 q-60 -40 -130 -40 q-61 0 -108 29.5 q-47 29.5 -73 82 q-26 52.5 -26 118.5 q0 26 5 59 q14 78 53.5 135 q39.5 57 95.5 87 q56 30 117 30 q72 0 121.5 -43 q49.5 -43 66.5 -114 q35 76 98 116.5 q63 40.5 136 40.5 q71 0 112 -37 q41 -37 41 -99 q0 -74 -65 -110 q-65 -36 -207 -36 q-27 0 -101 4 q-2 -24 -2 -35 q0 -82 44 -128.5 q44 -46.5 115 -46.5 ZM731 445 q-71 0 -128.5 -45 q-57.5 -45 -78.5 -133 q51 -4 104 -4 q104 0 153.5 23.5 q49.5 23.5 49.5 74.5 q0 39 -25.5 61.5 q-25.5 22.5 -74.5 22.5 ZM455 210 q5 32 5 55 q0 80 -41 129.5 q-41 49.5 -110 49.5 q-47 0 -89 -23.5 q-42 -23.5 -72.5 -70 q-30.5 -46.5 -42.5 -110.5 q-5 -32 -5 -55 q0 -79 41.5 -127.5 q41.5 -48.5 111.5 -48.5 q73 0 129 52.5 q56 52.5 73 148.5 Z" /><glyph glyph-name="p" unicode="p" d="M332 497 q57 0 102.5 -27.5 q45.5 -27.5 71.5 -79 q26 -51.5 26 -119.5 q0 -30 -6 -65 q-14 -80 -52.5 -136.5 q-38.5 -56.5 -91.5 -85 q-53 -28.5 -110 -28.5 q-64 0 -108.5 35.5 q-44.5 35.5 -57.5 96.5 l-64 -360 l-55 0 l133 759 l48 0 q-11 -61 -15 -102 q31 59 79 85.5 q48 26.5 100 26.5 ZM274 10 q70 0 123.5 51.5 q53.5 51.5 70.5 148.5 q5 26 5 60 q0 81 -40.5 127.5 q-40.5 46.5 -107.5 46.5 q-64 0 -119.5 -47 q-55.5 -47 -73.5 -157 q-6 -33 -6 -61 q0 -84 43 -126.5 q43 -42.5 105 -42.5 Z" /><glyph glyph-name="thorn" unicode="þ" d="M333 497 q57 0 102 -27.5 q45 -27.5 71 -79 q26 -51.5 26 -119.5 q0 -30 -6 -65 q-13 -80 -52 -136.5 q-39 -56.5 -92 -85 q-53 -28.5 -110 -28.5 q-64 0 -108 35.5 q-44 35.5 -58 97.5 l-63 -362 l-56 0 l175 1000 l55 0 l-58 -332 q32 53 78 77.5 q46 24.5 96 24.5 ZM275 10 q69 0 122.5 51.5 q53.5 51.5 70.5 148.5 q5 26 5 60 q0 81 -40 127.5 q-40 46.5 -107 46.5 q-65 0 -120 -47 q-55 -47 -74 -157 q-6 -33 -6 -61 q0 -84 43 -126.5 q43 -42.5 106 -42.5 Z" /><glyph glyph-name="q" unicode="q" d="M545 487 l-132 -759 l-56 0 l58 332 q-32 -54 -78 -79 q-46 -25 -96 -25 q-57 0 -102.5 27.5 q-45.5 27.5 -71.5 79 q-26 51.5 -26 119.5 q0 31 6 65 q14 80 52.5 136.5 q38.5 56.5 91.5 85 q53 28.5 110 28.5 q64 0 109 -36 q45 -36 59 -98 q10 35 17.5 75 q7.5 40 9.5 49 l49 0 ZM248 9 q64 0 119.5 47.5 q55.5 47.5 73.5 156.5 q6 33 6 62 q0 84 -42.5 126 q-42.5 42 -105.5 42 q-70 0 -123.5 -51.5 q-53.5 -51.5 -70.5 -148.5 q-5 -26 -5 -60 q0 -81 40.5 -127.5 q40.5 -46.5 107.5 -46.5 Z" /><glyph glyph-name="r" unicode="r" d="M301 497 q27 0 46 -8.5 q19 -8.5 28 -21.5 l-26 -44 q-18 20 -57 20 q-52 0 -94 -40.5 q-42 -40.5 -59 -120.5 l-55 -316 l-55 0 l91 521 l48 0 q-8 -60 -13 -87 q27 49 65 73 q38 24 81 24 Z" /><glyph glyph-name="racute" unicode="&#x155;" d="M276 561 l-52 0 l106 148 l66 0 l-120 -148 ZM301 497 q27 0 46 -8.5 q19 -8.5 28 -21.5 l-26 -44 q-18 20 -57 20 q-52 0 -94 -40.5 q-42 -40.5 -59 -120.5 l-55 -316 l-55 0 l91 521 l48 0 q-8 -60 -13 -87 q27 49 65 73 q38 24 81 24 Z" /><glyph glyph-name="rcaron" unicode="&#x159;" d="M201 709 l60 -105 l96 105 l60 0 l-136 -148 l-51 0 l-84 148 l55 0 ZM301 497 q27 0 46 -8.5 q19 -8.5 28 -21.5 l-26 -44 q-18 20 -57 20 q-52 0 -94 -40.5 q-42 -40.5 -59 -120.5 l-55 -316 l-55 0 l91 521 l48 0 q-8 -60 -13 -87 q27 49 65 73 q38 24 81 24 Z" /><glyph glyph-name="uni0157" unicode="&#x157;" d="M301 497 q27 0 46 -8.5 q19 -8.5 28 -21.5 l-26 -44 q-18 20 -57 20 q-52 0 -94 -40.5 q-42 -40.5 -59 -120.5 l-55 -316 l-55 0 l91 521 l48 0 q-8 -60 -13 -87 q27 49 65 73 q38 24 81 24 ZM39 -94 q18 0 28.5 -11 q10.5 -11 10.5 -35 q0 -11 -1 -18 q-8 -43 -37.5 -72 q-29.5 -29 -76.5 -38 l2 31 q61 18 73 65 l-5 0 q-15 0 -24 9 q-9 9 -9 24 q0 19 11.5 32 q11.5 13 27.5 13 Z" /><glyph glyph-name="s" unicode="s" d="M369 86 q-10 -61 -56.5 -95.5 q-46.5 -34.5 -115.5 -34.5 q-78 0 -130.5 41 q-52.5 41 -60.5 107 l46 21 q10 -56 49 -86.5 q39 -30.5 96 -30.5 q45 0 76 21 q31 21 38 60 q2 12 2 16 q0 25 -15 43.5 q-15 18.5 -36.5 31 q-21.5 12.5 -59.5 29.5 q-44 21 -70 36.5 q-26 15.5 -44.5 41 q-18.5 25.5 -18.5 61.5 q0 47 23.5 81 q23.5 34 62 51 q38.5 17 83.5 17 q67 0 112 -35 q45 -35 51 -87 l-46 -21 q-7 40 -40 65.5 q-33 25.5 -80 25.5 q-45 0 -76 -24 q-31 -24 -31 -66 q0 -24 14.5 -42 q14.5 -18 35 -29.5 q20.5 -11.5 59.5 -29.5 q43 -19 70 -35.5 q27 -16.5 46 -42 q19 -25.5 19 -62.5 q0 -13 -3 -28 Z" /><glyph glyph-name="sacute" unicode="&#x15b;" d="M292 562 l-52 0 l106 148 l66 0 l-120 -148 ZM369 86 q-10 -61 -56.5 -95.5 q-46.5 -34.5 -115.5 -34.5 q-78 0 -130.5 41 q-52.5 41 -60.5 107 l46 21 q10 -56 49 -86.5 q39 -30.5 96 -30.5 q45 0 76 21 q31 21 38 60 q2 12 2 16 q0 25 -15 43.5 q-15 18.5 -36.5 31 q-21.5 12.5 -59.5 29.5 q-44 21 -70 36.5 q-26 15.5 -44.5 41 q-18.5 25.5 -18.5 61.5 q0 47 23.5 81 q23.5 34 62 51 q38.5 17 83.5 17 q67 0 112 -35 q45 -35 51 -87 l-46 -21 q-7 40 -40 65.5 q-33 25.5 -80 25.5 q-45 0 -76 -24 q-31 -24 -31 -66 q0 -24 14.5 -42 q14.5 -18 35 -29.5 q20.5 -11.5 59.5 -29.5 q43 -19 70 -35.5 q27 -16.5 46 -42 q19 -25.5 19 -62.5 q0 -13 -3 -28 Z" /><glyph glyph-name="scaron" unicode="&#x161;" d="M217 710 l60 -106 l96 106 l60 0 l-136 -148 l-51 0 l-85 148 l56 0 ZM369 86 q-10 -61 -56.5 -95.5 q-46.5 -34.5 -115.5 -34.5 q-78 0 -130.5 41 q-52.5 41 -60.5 107 l46 21 q10 -56 49 -86.5 q39 -30.5 96 -30.5 q45 0 76 21 q31 21 38 60 q2 12 2 16 q0 25 -15 43.5 q-15 18.5 -36.5 31 q-21.5 12.5 -59.5 29.5 q-44 21 -70 36.5 q-26 15.5 -44.5 41 q-18.5 25.5 -18.5 61.5 q0 47 23.5 81 q23.5 34 62 51 q38.5 17 83.5 17 q67 0 112 -35 q45 -35 51 -87 l-46 -21 q-7 40 -40 65.5 q-33 25.5 -80 25.5 q-45 0 -76 -24 q-31 -24 -31 -66 q0 -24 14.5 -42 q14.5 -18 35 -29.5 q20.5 -11.5 59.5 -29.5 q43 -19 70 -35.5 q27 -16.5 46 -42 q19 -25.5 19 -62.5 q0 -13 -3 -28 Z" /><glyph glyph-name="scedilla" unicode="&#x15f;" d="M128 355 q0 -24 14.5 -42 q14.5 -18 35 -29.5 q20.5 -11.5 59.5 -29.5 q43 -19 70 -35.5 q27 -16.5 46 -42 q19 -25.5 19 -62.5 q0 -13 -3 -28 q-10 -61 -56.5 -95.5 q-46.5 -34.5 -115.5 -34.5 q-11 0 -16 1 l-36 -64 q45 -1 71.5 -21 q26.5 -20 26.5 -56 q0 -50 -38 -73.5 q-38 -23.5 -92 -23.5 q-39 0 -68 10 l4 42 q30 -10 66 -10 q71 0 78 43 q4 24 -16 36.5 q-20 12.5 -61 12.5 q-17 0 -26 -1 l-3 27 l47 86 q-54 14 -88 51 q-34 37 -40 88 l46 21 q10 -56 49 -86.5 q39 -30.5 96 -30.5 q45 0 76 21 q31 21 38 60 q2 12 2 16 q0 25 -15 43.5 q-15 18.5 -36.5 31 q-21.5 12.5 -59.5 29.5 q-44 21 -70 36.5 q-26 15.5 -44.5 41 q-18.5 25.5 -18.5 61.5 q0 47 23.5 81 q23.5 34 62 51 q38.5 17 83.5 17 q67 0 112 -35 q45 -35 51 -87 l-46 -21 q-7 40 -40 65.5 q-33 25.5 -80 25.5 q-45 0 -76 -24 q-31 -24 -31 -66 Z" /><glyph glyph-name="scircumflex" unicode="&#x15d;" d="M270 710 l51 0 l85 -148 l-56 0 l-60 105 l-96 -105 l-60 0 l136 148 ZM369 86 q-10 -61 -56.5 -95.5 q-46.5 -34.5 -115.5 -34.5 q-78 0 -130.5 41 q-52.5 41 -60.5 107 l46 21 q10 -56 49 -86.5 q39 -30.5 96 -30.5 q45 0 76 21 q31 21 38 60 q2 12 2 16 q0 25 -15 43.5 q-15 18.5 -36.5 31 q-21.5 12.5 -59.5 29.5 q-44 21 -70 36.5 q-26 15.5 -44.5 41 q-18.5 25.5 -18.5 61.5 q0 47 23.5 81 q23.5 34 62 51 q38.5 17 83.5 17 q67 0 112 -35 q45 -35 51 -87 l-46 -21 q-7 40 -40 65.5 q-33 25.5 -80 25.5 q-45 0 -76 -24 q-31 -24 -31 -66 q0 -24 14.5 -42 q14.5 -18 35 -29.5 q20.5 -11.5 59.5 -29.5 q43 -19 70 -35.5 q27 -16.5 46 -42 q19 -25.5 19 -62.5 q0 -13 -3 -28 Z" /><glyph glyph-name="uni0219" unicode="&#x219;" d="M128 355 q0 -24 14.5 -42 q14.5 -18 35 -29.5 q20.5 -11.5 59.5 -29.5 q43 -19 70 -35.5 q27 -16.5 46 -42 q19 -25.5 19 -62.5 q0 -13 -3 -28 q-10 -61 -56.5 -95.5 q-46.5 -34.5 -115.5 -34.5 q-78 0 -130.5 41 q-52.5 41 -60.5 107 l46 21 q10 -56 49 -86.5 q39 -30.5 96 -30.5 q45 0 76 21 q31 21 38 60 q2 12 2 16 q0 25 -15 43.5 q-15 18.5 -36.5 31 q-21.5 12.5 -59.5 29.5 q-44 21 -70 36.5 q-26 15.5 -44.5 41 q-18.5 25.5 -18.5 61.5 q0 47 23.5 81 q23.5 34 62 51 q38.5 17 83.5 17 q67 0 112 -35 q45 -35 51 -87 l-46 -21 q-7 40 -40 65.5 q-33 25.5 -80 25.5 q-45 0 -76 -24 q-31 -24 -31 -66 ZM152 -94 q18 0 28.5 -11.5 q10.5 -11.5 10.5 -35.5 q0 -11 -1 -17 q-8 -43 -37.5 -72 q-29.5 -29 -76.5 -38 l1 31 q60 17 74 65 l-5 0 q-16 0 -25 9.5 q-9 9.5 -9 24.5 q0 19 11.5 31.5 q11.5 12.5 28.5 12.5 Z" /><glyph glyph-name="germandbls" unicode="ß" d="M534 517 q-21 -119 -138 -153 q58 -18 88.5 -62.5 q30.5 -44.5 30.5 -106.5 q0 -23 -4 -43 q-17 -94 -81 -145 q-64 -51 -161 -51 q-55 0 -88 14 l7 54 q32 -15 75 -15 q76 0 126 39 q50 39 63 112 q4 28 4 40 q0 63 -40 101.5 q-40 38.5 -117 38.5 l-37 0 l8 48 l23 0 q78 0 124.5 36.5 q46.5 36.5 57.5 99.5 q3 18 3 36 q0 54 -31 88.5 q-31 34.5 -92 34.5 q-68 0 -114 -47.5 q-46 -47.5 -62 -139.5 l-95 -530 l-56 0 l96 543 q20 111 83 169.5 q63 58.5 150 58.5 q57 0 97.5 -24.5 q40.5 -24.5 62 -65.5 q21.5 -41 21.5 -90 q0 -12 -4 -40 Z" /><glyph glyph-name="longs" unicode="&#x17f;" d="M333 737 q31 0 53.5 -8.5 q22.5 -8.5 36.5 -21.5 l-28 -44 q-26 21 -65 21 q-44 0 -72 -31.5 q-28 -31.5 -42 -109.5 l-111 -640 q-18 -101 -52 -142.5 q-34 -41.5 -92 -41.5 q-27 0 -48.5 7.5 q-21.5 7.5 -34.5 20.5 l28 45 q21 -20 53 -20 q37 0 57 31.5 q20 31.5 35 114.5 l91 520 l-88 0 l8 49 l88 0 l11 62 q18 101 62 144.5 q44 43.5 110 43.5 Z" /><glyph glyph-name="t" unicode="t" d="M331 438 l-145 0 l-56 -318 q-4 -28 -4 -37 q0 -74 69 -74 q36 0 67 23 l18 -47 q-41 -29 -93 -29 q-51 0 -84.5 27 q-33.5 27 -33.5 89 q0 23 4 46 l56 320 l-85 0 l9 49 l85 0 l25 144 l57 0 l-26 -144 l145 0 l-8 -49 Z" /><glyph glyph-name="tbar" unicode="&#x167;" d="M331 438 l-145 0 l-30 -170 l145 0 l-9 -49 l-144 0 l-18 -99 q-4 -28 -4 -37 q0 -74 69 -74 q37 0 68 23 l17 -47 q-41 -29 -92 -29 q-52 0 -85.5 27 q-33.5 27 -33.5 89 q0 23 4 46 l18 101 l-85 0 l9 49 l85 0 l29 170 l-85 0 l9 49 l85 0 l25 144 l57 0 l-26 -144 l145 0 l-8 -49 Z" /><glyph glyph-name="tcaron" unicode="&#x165;" d="M397 757 q17 0 28 -11.5 q11 -11.5 11 -34.5 q0 -6 -2 -20 q-8 -46 -39 -79 q-31 -33 -79 -43 l2 32 q31 9 50 29 q19 20 26 47 l-5 0 q-15 0 -24 9.5 q-9 9.5 -9 24.5 q0 18 12 32 q12 14 29 14 ZM220 631 l-26 -144 l145 0 l-8 -49 l-145 0 l-56 -318 q-4 -28 -4 -37 q0 -74 69 -74 q36 0 67 23 l18 -47 q-41 -29 -93 -29 q-51 0 -84.5 27 q-33.5 27 -33.5 89 q0 23 4 46 l56 320 l-85 0 l9 49 l85 0 l25 144 l57 0 Z" /><glyph glyph-name="uni0163" unicode="&#x163;" d="M331 438 l-145 0 l-56 -318 q-4 -28 -4 -37 q0 -74 69 -74 q36 0 67 23 l18 -47 q-41 -29 -93 -29 q-7 0 -11 1 l-35 -64 q44 -1 71 -22 q27 -21 27 -56 q0 -50 -38 -73 q-38 -23 -92 -23 q-41 0 -68 10 l4 42 q30 -10 66 -10 q71 0 78 43 q4 24 -16 36.5 q-20 12.5 -61 12.5 q-18 0 -27 -1 l-3 27 l48 87 q-28 11 -44.5 37.5 q-16.5 26.5 -16.5 69.5 q0 24 4 45 l56 320 l-85 0 l9 49 l85 0 l25 144 l57 0 l-26 -144 l145 0 l-8 -49 Z" /><glyph glyph-name="uni021B" unicode="&#x21b;" d="M186 438 l-56 -318 q-4 -28 -4 -37 q0 -74 69 -74 q36 0 67 23 l18 -47 q-41 -29 -93 -29 q-51 0 -84.5 27 q-33.5 27 -33.5 89 q0 23 4 46 l56 320 l-85 0 l9 49 l85 0 l25 144 l57 0 l-26 -144 l145 0 l-8 -49 l-145 0 ZM148 -94 q17 0 28 -11 q11 -11 11 -34 q0 -5 -2 -19 q-8 -43 -37 -72 q-29 -29 -77 -38 l2 31 q60 18 73 65 l-4 0 q-17 0 -25.5 9.5 q-8.5 9.5 -8.5 24.5 q0 18 11.5 31 q11.5 13 28.5 13 Z" /><glyph glyph-name="u" unicode="u" d="M459 487 l56 0 l-91 -521 l-49 0 q9 60 12 87 q-29 -48 -73.5 -72.5 q-44.5 -24.5 -97.5 -24.5 q-73 0 -118 44.5 q-45 44.5 -45 126.5 q0 22 5 55 l54 305 l56 0 l-52 -299 q-5 -30 -5 -50 q0 -62 31.5 -95 q31.5 -33 86.5 -33 q62 0 111.5 42 q49.5 42 63.5 122 l55 313 Z" /><glyph glyph-name="uacute" unicode="ú" d="M348 562 l-53 0 l107 148 l65 0 l-119 -148 ZM459 487 l56 0 l-91 -521 l-49 0 q9 60 12 87 q-29 -48 -73.5 -72.5 q-44.5 -24.5 -97.5 -24.5 q-73 0 -118 44.5 q-45 44.5 -45 126.5 q0 22 5 55 l54 305 l56 0 l-52 -299 q-5 -30 -5 -50 q0 -62 31.5 -95 q31.5 -33 86.5 -33 q62 0 111.5 42 q49.5 42 63.5 122 l55 313 Z" /><glyph glyph-name="ubreve" unicode="&#x16d;" d="M336 564 q-59 0 -93.5 31.5 q-34.5 31.5 -34.5 83.5 q0 18 2 27 l52 0 q-1 -6 -1 -17 q0 -37 20.5 -58.5 q20.5 -21.5 59.5 -21.5 q80 0 102 97 l52 0 q-12 -69 -54.5 -105.5 q-42.5 -36.5 -104.5 -36.5 ZM459 487 l56 0 l-91 -521 l-49 0 q9 60 12 87 q-29 -48 -73.5 -72.5 q-44.5 -24.5 -97.5 -24.5 q-73 0 -118 44.5 q-45 44.5 -45 126.5 q0 22 5 55 l54 305 l56 0 l-52 -299 q-5 -30 -5 -50 q0 -62 31.5 -95 q31.5 -33 86.5 -33 q62 0 111.5 42 q49.5 42 63.5 122 l55 313 Z" /><glyph glyph-name="uni01D4" unicode="&#x1d4;" d="M273 710 l60 -106 l95 106 l61 0 l-137 -148 l-50 0 l-85 148 l56 0 ZM459 487 l56 0 l-91 -521 l-49 0 q9 60 12 87 q-29 -48 -73.5 -72.5 q-44.5 -24.5 -97.5 -24.5 q-73 0 -118 44.5 q-45 44.5 -45 126.5 q0 22 5 55 l54 305 l56 0 l-52 -299 q-5 -30 -5 -50 q0 -62 31.5 -95 q31.5 -33 86.5 -33 q62 0 111.5 42 q49.5 42 63.5 122 l55 313 Z" /><glyph glyph-name="ucircumflex" unicode="û" d="M326 710 l51 0 l85 -148 l-57 0 l-59 105 l-96 -105 l-60 0 l136 148 ZM459 487 l56 0 l-91 -521 l-49 0 q9 60 12 87 q-29 -48 -73.5 -72.5 q-44.5 -24.5 -97.5 -24.5 q-73 0 -118 44.5 q-45 44.5 -45 126.5 q0 22 5 55 l54 305 l56 0 l-52 -299 q-5 -30 -5 -50 q0 -62 31.5 -95 q31.5 -33 86.5 -33 q62 0 111.5 42 q49.5 42 63.5 122 l55 313 Z" /><glyph glyph-name="udieresis" unicode="ü" d="M242 597 q-17 0 -29.5 12 q-12.5 12 -12.5 30 q0 18 12.5 30.5 q12.5 12.5 29.5 12.5 q17 0 29.5 -12.5 q12.5 -12.5 12.5 -30.5 q0 -18 -12 -30 q-12 -12 -30 -12 ZM439 597 q-17 0 -29.5 12 q-12.5 12 -12.5 30 q0 18 12 30.5 q12 12.5 29 12.5 q18 0 30 -12.5 q12 -12.5 12 -30.5 q0 -18 -12 -30 q-12 -12 -29 -12 ZM459 487 l56 0 l-91 -521 l-49 0 q9 60 12 87 q-29 -48 -73.5 -72.5 q-44.5 -24.5 -97.5 -24.5 q-73 0 -118 44.5 q-45 44.5 -45 126.5 q0 22 5 55 l54 305 l56 0 l-52 -299 q-5 -30 -5 -50 q0 -62 31.5 -95 q31.5 -33 86.5 -33 q62 0 111.5 42 q49.5 42 63.5 122 l55 313 Z" /><glyph glyph-name="uni01D8" unicode="&#x1d8;" d="M378 728 l-52 0 l98 132 l65 0 l-111 -132 ZM242 597 q-17 0 -29.5 12 q-12.5 12 -12.5 30 q0 18 12.5 30.5 q12.5 12.5 29.5 12.5 q17 0 29.5 -12.5 q12.5 -12.5 12.5 -30.5 q0 -18 -12 -30 q-12 -12 -30 -12 ZM439 597 q-17 0 -29.5 12 q-12.5 12 -12.5 30 q0 18 12 30.5 q12 12.5 29 12.5 q18 0 30 -12.5 q12 -12.5 12 -30.5 q0 -18 -12 -30 q-12 -12 -29 -12 ZM459 487 l56 0 l-91 -521 l-49 0 q9 60 12 87 q-29 -48 -73.5 -72.5 q-44.5 -24.5 -97.5 -24.5 q-73 0 -118 44.5 q-45 44.5 -45 126.5 q0 22 5 55 l54 305 l56 0 l-52 -299 q-5 -30 -5 -50 q0 -62 31.5 -95 q31.5 -33 86.5 -33 q62 0 111.5 42 q49.5 42 63.5 122 l55 313 Z" /><glyph glyph-name="uni01DA" unicode="&#x1da;" d="M302 860 l61 -93 l92 93 l61 0 l-134 -132 l-51 0 l-87 132 l58 0 ZM242 597 q-17 0 -29.5 12 q-12.5 12 -12.5 30 q0 18 12.5 30.5 q12.5 12.5 29.5 12.5 q17 0 29.5 -12.5 q12.5 -12.5 12.5 -30.5 q0 -18 -12 -30 q-12 -12 -30 -12 ZM439 597 q-17 0 -29.5 12 q-12.5 12 -12.5 30 q0 18 12 30.5 q12 12.5 29 12.5 q18 0 30 -12.5 q12 -12.5 12 -30.5 q0 -18 -12 -30 q-12 -12 -29 -12 ZM459 487 l56 0 l-91 -521 l-49 0 q9 60 12 87 q-29 -48 -73.5 -72.5 q-44.5 -24.5 -97.5 -24.5 q-73 0 -118 44.5 q-45 44.5 -45 126.5 q0 22 5 55 l54 305 l56 0 l-52 -299 q-5 -30 -5 -50 q0 -62 31.5 -95 q31.5 -33 86.5 -33 q62 0 111.5 42 q49.5 42 63.5 122 l55 313 Z" /><glyph glyph-name="uni01DC" unicode="&#x1dc;" d="M337 728 l-65 132 l62 0 l52 -132 l-49 0 ZM242 597 q-17 0 -29.5 12 q-12.5 12 -12.5 30 q0 18 12.5 30.5 q12.5 12.5 29.5 12.5 q17 0 29.5 -12.5 q12.5 -12.5 12.5 -30.5 q0 -18 -12 -30 q-12 -12 -30 -12 ZM439 597 q-17 0 -29.5 12 q-12.5 12 -12.5 30 q0 18 12 30.5 q12 12.5 29 12.5 q18 0 30 -12.5 q12 -12.5 12 -30.5 q0 -18 -12 -30 q-12 -12 -29 -12 ZM459 487 l56 0 l-91 -521 l-49 0 q9 60 12 87 q-29 -48 -73.5 -72.5 q-44.5 -24.5 -97.5 -24.5 q-73 0 -118 44.5 q-45 44.5 -45 126.5 q0 22 5 55 l54 305 l56 0 l-52 -299 q-5 -30 -5 -50 q0 -62 31.5 -95 q31.5 -33 86.5 -33 q62 0 111.5 42 q49.5 42 63.5 122 l55 313 Z" /><glyph glyph-name="uni01D6" unicode="&#x1d6;" d="M510 769 l-293 0 l9 50 l293 0 l-9 -50 ZM242 597 q-17 0 -29.5 12 q-12.5 12 -12.5 30 q0 18 12.5 30.5 q12.5 12.5 29.5 12.5 q17 0 29.5 -12.5 q12.5 -12.5 12.5 -30.5 q0 -18 -12 -30 q-12 -12 -30 -12 ZM439 597 q-17 0 -29.5 12 q-12.5 12 -12.5 30 q0 18 12 30.5 q12 12.5 29 12.5 q18 0 30 -12.5 q12 -12.5 12 -30.5 q0 -18 -12 -30 q-12 -12 -29 -12 ZM459 487 l56 0 l-91 -521 l-49 0 q9 60 12 87 q-29 -48 -73.5 -72.5 q-44.5 -24.5 -97.5 -24.5 q-73 0 -118 44.5 q-45 44.5 -45 126.5 q0 22 5 55 l54 305 l56 0 l-52 -299 q-5 -30 -5 -50 q0 -62 31.5 -95 q31.5 -33 86.5 -33 q62 0 111.5 42 q49.5 42 63.5 122 l55 313 Z" /><glyph glyph-name="uni1EE5" unicode="&#x1ee5;" d="M459 487 l56 0 l-91 -521 l-49 0 q9 60 12 87 q-29 -48 -73.5 -72.5 q-44.5 -24.5 -97.5 -24.5 q-73 0 -118 44.5 q-45 44.5 -45 126.5 q0 22 5 55 l54 305 l56 0 l-52 -299 q-5 -30 -5 -50 q0 -62 31.5 -95 q31.5 -33 86.5 -33 q62 0 111.5 42 q49.5 42 63.5 122 l55 313 ZM199 -205 q-16 0 -28.5 13 q-12.5 13 -12.5 30 q0 17 12.5 29.5 q12.5 12.5 28.5 12.5 q18 0 30 -12.5 q12 -12.5 12 -29.5 q0 -17 -12.5 -30 q-12.5 -13 -29.5 -13 Z" /><glyph glyph-name="ugrave" unicode="ù" d="M307 562 l-67 148 l61 0 l55 -148 l-49 0 ZM459 487 l56 0 l-91 -521 l-49 0 q9 60 12 87 q-29 -48 -73.5 -72.5 q-44.5 -24.5 -97.5 -24.5 q-73 0 -118 44.5 q-45 44.5 -45 126.5 q0 22 5 55 l54 305 l56 0 l-52 -299 q-5 -30 -5 -50 q0 -62 31.5 -95 q31.5 -33 86.5 -33 q62 0 111.5 42 q49.5 42 63.5 122 l55 313 Z" /><glyph glyph-name="uni1EE7" unicode="&#x1ee7;" d="M266 711 q32 18 71 18 q39 0 64 -20.5 q25 -20.5 25 -55.5 q0 -80 -106 -108 l-22 34 q38 10 58 25.5 q20 15.5 20 42.5 q0 18 -12.5 29.5 q-12.5 11.5 -34.5 11.5 q-26 0 -59 -18 l-4 41 ZM459 487 l56 0 l-91 -521 l-49 0 q9 60 12 87 q-29 -48 -73.5 -72.5 q-44.5 -24.5 -97.5 -24.5 q-73 0 -118 44.5 q-45 44.5 -45 126.5 q0 22 5 55 l54 305 l56 0 l-52 -299 q-5 -30 -5 -50 q0 -62 31.5 -95 q31.5 -33 86.5 -33 q62 0 111.5 42 q49.5 42 63.5 122 l55 313 Z" /><glyph glyph-name="uhorn" unicode="&#x1b0;" d="M634 613 q3 -60 -8.5 -95 q-11.5 -35 -39.5 -52.5 q-28 -17.5 -79 -21.5 l-83 -478 l-49 0 q9 60 12 87 q-29 -48 -73.5 -72.5 q-44.5 -24.5 -97.5 -24.5 q-73 0 -118 44.5 q-45 44.5 -45 126.5 q0 22 5 55 l54 305 l56 0 l-52 -299 q-5 -30 -5 -50 q0 -62 31.5 -95 q31.5 -33 86.5 -33 q62 0 111.5 42 q49.5 42 63.5 122 l55 313 l17 0 q48 0 72 12.5 q24 12.5 31.5 39 q7.5 26.5 4.5 74.5 l50 0 Z" /><glyph glyph-name="uni1EE9" unicode="&#x1ee9;" d="M348 562 l-53 0 l107 148 l65 0 l-119 -148 ZM634 613 q3 -60 -8.5 -95 q-11.5 -35 -39.5 -52.5 q-28 -17.5 -79 -21.5 l-83 -478 l-49 0 q9 60 12 87 q-29 -48 -73.5 -72.5 q-44.5 -24.5 -97.5 -24.5 q-73 0 -118 44.5 q-45 44.5 -45 126.5 q0 22 5 55 l54 305 l56 0 l-52 -299 q-5 -30 -5 -50 q0 -62 31.5 -95 q31.5 -33 86.5 -33 q62 0 111.5 42 q49.5 42 63.5 122 l55 313 l17 0 q48 0 72 12.5 q24 12.5 31.5 39 q7.5 26.5 4.5 74.5 l50 0 Z" /><glyph glyph-name="uni1EF1" unicode="&#x1ef1;" d="M634 613 q3 -60 -8.5 -95 q-11.5 -35 -39.5 -52.5 q-28 -17.5 -79 -21.5 l-83 -478 l-49 0 q9 60 12 87 q-29 -48 -73.5 -72.5 q-44.5 -24.5 -97.5 -24.5 q-73 0 -118 44.5 q-45 44.5 -45 126.5 q0 22 5 55 l54 305 l56 0 l-52 -299 q-5 -30 -5 -50 q0 -62 31.5 -95 q31.5 -33 86.5 -33 q62 0 111.5 42 q49.5 42 63.5 122 l55 313 l17 0 q48 0 72 12.5 q24 12.5 31.5 39 q7.5 26.5 4.5 74.5 l50 0 ZM199 -205 q-16 0 -28.5 13 q-12.5 13 -12.5 30 q0 17 12.5 29.5 q12.5 12.5 28.5 12.5 q18 0 30 -12.5 q12 -12.5 12 -29.5 q0 -17 -12.5 -30 q-12.5 -13 -29.5 -13 Z" /><glyph glyph-name="uni1EEB" unicode="&#x1eeb;" d="M307 562 l-67 148 l61 0 l55 -148 l-49 0 ZM634 613 q3 -60 -8.5 -95 q-11.5 -35 -39.5 -52.5 q-28 -17.5 -79 -21.5 l-83 -478 l-49 0 q9 60 12 87 q-29 -48 -73.5 -72.5 q-44.5 -24.5 -97.5 -24.5 q-73 0 -118 44.5 q-45 44.5 -45 126.5 q0 22 5 55 l54 305 l56 0 l-52 -299 q-5 -30 -5 -50 q0 -62 31.5 -95 q31.5 -33 86.5 -33 q62 0 111.5 42 q49.5 42 63.5 122 l55 313 l17 0 q48 0 72 12.5 q24 12.5 31.5 39 q7.5 26.5 4.5 74.5 l50 0 Z" /><glyph glyph-name="uni1EED" unicode="&#x1eed;" d="M266 711 q32 18 71 18 q39 0 64 -20.5 q25 -20.5 25 -55.5 q0 -80 -106 -108 l-22 34 q38 10 58 25.5 q20 15.5 20 42.5 q0 18 -12.5 29.5 q-12.5 11.5 -34.5 11.5 q-26 0 -59 -18 l-4 41 ZM634 613 q3 -60 -8.5 -95 q-11.5 -35 -39.5 -52.5 q-28 -17.5 -79 -21.5 l-83 -478 l-49 0 q9 60 12 87 q-29 -48 -73.5 -72.5 q-44.5 -24.5 -97.5 -24.5 q-73 0 -118 44.5 q-45 44.5 -45 126.5 q0 22 5 55 l54 305 l56 0 l-52 -299 q-5 -30 -5 -50 q0 -62 31.5 -95 q31.5 -33 86.5 -33 q62 0 111.5 42 q49.5 42 63.5 122 l55 313 l17 0 q48 0 72 12.5 q24 12.5 31.5 39 q7.5 26.5 4.5 74.5 l50 0 Z" /><glyph glyph-name="uni1EEF" unicode="&#x1eef;" d="M179 584 q9 52 37 82.5 q28 30.5 69 30.5 q25 0 40 -11.5 q15 -11.5 29 -32.5 q11 -16 20.5 -24 q9.5 -8 22.5 -8 q19 0 33.5 16.5 q14.5 16.5 21.5 47.5 l48 0 q-10 -52 -38 -82.5 q-28 -30.5 -69 -30.5 q-25 0 -39 11 q-14 11 -30 32 q-12 17 -20.5 24.5 q-8.5 7.5 -22.5 7.5 q-19 0 -33.5 -16 q-14.5 -16 -21.5 -47 l-47 0 ZM634 613 q3 -60 -8.5 -95 q-11.5 -35 -39.5 -52.5 q-28 -17.5 -79 -21.5 l-83 -478 l-49 0 q9 60 12 87 q-29 -48 -73.5 -72.5 q-44.5 -24.5 -97.5 -24.5 q-73 0 -118 44.5 q-45 44.5 -45 126.5 q0 22 5 55 l54 305 l56 0 l-52 -299 q-5 -30 -5 -50 q0 -62 31.5 -95 q31.5 -33 86.5 -33 q62 0 111.5 42 q49.5 42 63.5 122 l55 313 l17 0 q48 0 72 12.5 q24 12.5 31.5 39 q7.5 26.5 4.5 74.5 l50 0 Z" /><glyph glyph-name="uhungarumlaut" unicode="&#x171;" d="M283 562 l-51 0 l106 148 l64 0 l-119 -148 ZM413 562 l-50 0 l106 148 l64 0 l-120 -148 ZM459 487 l56 0 l-91 -521 l-49 0 q9 60 12 87 q-29 -48 -73.5 -72.5 q-44.5 -24.5 -97.5 -24.5 q-73 0 -118 44.5 q-45 44.5 -45 126.5 q0 22 5 55 l54 305 l56 0 l-52 -299 q-5 -30 -5 -50 q0 -62 31.5 -95 q31.5 -33 86.5 -33 q62 0 111.5 42 q49.5 42 63.5 122 l55 313 Z" /><glyph glyph-name="umacron" unicode="&#x16b;" d="M482 613 l-292 0 l8 51 l293 0 l-9 -51 ZM459 487 l56 0 l-91 -521 l-49 0 q9 60 12 87 q-29 -48 -73.5 -72.5 q-44.5 -24.5 -97.5 -24.5 q-73 0 -118 44.5 q-45 44.5 -45 126.5 q0 22 5 55 l54 305 l56 0 l-52 -299 q-5 -30 -5 -50 q0 -62 31.5 -95 q31.5 -33 86.5 -33 q62 0 111.5 42 q49.5 42 63.5 122 l55 313 Z" /><glyph glyph-name="uogonek" unicode="&#x173;" d="M343 -236 q42 0 85 38 l21 -34 q-22 -22 -50 -35 q-28 -13 -59 -13 q-44 0 -74 24.5 q-30 24.5 -30 68.5 q0 7 2 23 q9 50 46 85.5 q37 35.5 94 62.5 q8 59 9 69 q-29 -48 -73.5 -72.5 q-44.5 -24.5 -97.5 -24.5 q-73 0 -118 44.5 q-45 44.5 -45 126.5 q0 22 5 55 l54 305 l56 0 l-52 -299 q-5 -30 -5 -50 q0 -62 31.5 -95 q31.5 -33 86.5 -33 q62 0 111.5 42 q49.5 42 63.5 122 l55 313 l56 0 l-91 -521 q-63 -31 -96 -61 q-33 -30 -40 -70 q-1 -6 -1 -17 q0 -27 15.5 -40.5 q15.5 -13.5 40.5 -13.5 Z" /><glyph glyph-name="uring" unicode="&#x16f;" d="M249 652 q0 41 27 67 q27 26 67 26 q39 0 65 -26 q26 -26 26 -67 q0 -40 -26 -66.5 q-26 -26.5 -65 -26.5 q-40 0 -67 26.5 q-27 26.5 -27 66.5 ZM289 652 q0 -24 15 -40 q15 -16 39 -16 q22 0 37 16 q15 16 15 40 q0 25 -14.5 40.5 q-14.5 15.5 -37.5 15.5 q-24 0 -39 -15.5 q-15 -15.5 -15 -40.5 ZM459 487 l56 0 l-91 -521 l-49 0 q9 60 12 87 q-29 -48 -73.5 -72.5 q-44.5 -24.5 -97.5 -24.5 q-73 0 -118 44.5 q-45 44.5 -45 126.5 q0 22 5 55 l54 305 l56 0 l-52 -299 q-5 -30 -5 -50 q0 -62 31.5 -95 q31.5 -33 86.5 -33 q62 0 111.5 42 q49.5 42 63.5 122 l55 313 Z" /><glyph glyph-name="utilde" unicode="&#x169;" d="M179 584 q9 52 37 82.5 q28 30.5 69 30.5 q25 0 40 -11.5 q15 -11.5 29 -32.5 q11 -16 20.5 -24 q9.5 -8 22.5 -8 q19 0 33.5 16.5 q14.5 16.5 21.5 47.5 l48 0 q-10 -52 -38 -82.5 q-28 -30.5 -69 -30.5 q-25 0 -39 11 q-14 11 -30 32 q-12 17 -20.5 24.5 q-8.5 7.5 -22.5 7.5 q-19 0 -33.5 -16 q-14.5 -16 -21.5 -47 l-47 0 ZM459 487 l56 0 l-91 -521 l-49 0 q9 60 12 87 q-29 -48 -73.5 -72.5 q-44.5 -24.5 -97.5 -24.5 q-73 0 -118 44.5 q-45 44.5 -45 126.5 q0 22 5 55 l54 305 l56 0 l-52 -299 q-5 -30 -5 -50 q0 -62 31.5 -95 q31.5 -33 86.5 -33 q62 0 111.5 42 q49.5 42 63.5 122 l55 313 Z" /><glyph glyph-name="v" unicode="v" d="M107 486 l104 -444 l240 444 l63 0 l-293 -520 l-46 0 l-128 520 l60 0 Z" /><glyph glyph-name="w" unicode="w" d="M431 486 l77 -432 l209 432 l59 0 l-262 -520 l-39 0 l-79 424 l-212 -424 l-39 0 l-98 520 l55 0 l76 -431 l209 431 l44 0 Z" /><glyph glyph-name="wacute" unicode="&#x1e83;" d="M452 562 l-53 0 l107 148 l65 0 l-119 -148 ZM431 486 l77 -432 l209 432 l59 0 l-262 -520 l-39 0 l-79 424 l-212 -424 l-39 0 l-98 520 l55 0 l76 -431 l209 431 l44 0 Z" /><glyph glyph-name="wcircumflex" unicode="&#x175;" d="M430 710 l51 0 l85 -148 l-57 0 l-59 105 l-96 -105 l-60 0 l136 148 ZM431 486 l77 -432 l209 432 l59 0 l-262 -520 l-39 0 l-79 424 l-212 -424 l-39 0 l-98 520 l55 0 l76 -431 l209 431 l44 0 Z" /><glyph glyph-name="wdieresis" unicode="&#x1e85;" d="M346 597 q-17 0 -29.5 12 q-12.5 12 -12.5 30 q0 18 12 30.5 q12 12.5 29 12.5 q18 0 30.5 -12.5 q12.5 -12.5 12.5 -30.5 q0 -18 -12.5 -30 q-12.5 -12 -29.5 -12 ZM542 597 q-17 0 -29 12 q-12 12 -12 30 q0 18 12 30.5 q12 12.5 29 12.5 q17 0 29.5 -12.5 q12.5 -12.5 12.5 -30.5 q0 -18 -12 -30 q-12 -12 -30 -12 ZM431 486 l77 -432 l209 432 l59 0 l-262 -520 l-39 0 l-79 424 l-212 -424 l-39 0 l-98 520 l55 0 l76 -431 l209 431 l44 0 Z" /><glyph glyph-name="wgrave" unicode="&#x1e81;" d="M411 562 l-67 148 l61 0 l55 -148 l-49 0 ZM431 486 l77 -432 l209 432 l59 0 l-262 -520 l-39 0 l-79 424 l-212 -424 l-39 0 l-98 520 l55 0 l76 -431 l209 431 l44 0 Z" /><glyph glyph-name="x" unicode="x" d="M233 273 l190 213 l69 0 l-234 -262 l141 -258 l-64 0 l-116 215 l-191 -215 l-71 0 l236 263 l-143 257 l67 0 l116 -213 Z" /><glyph glyph-name="y" unicode="y" d="M452 486 l64 0 l-355 -631 q-39 -69 -81.5 -102.5 q-42.5 -33.5 -97.5 -33.5 q-50 0 -85 27 l27 46 q25 -20 59 -20 q35 0 66 24.5 q31 24.5 65 81.5 l50 86 l-120 522 l62 0 l99 -453 l247 453 Z" /><glyph glyph-name="yacute" unicode="ý" d="M367 710 l66 0 l-120 -148 l-52 0 l106 148 ZM452 486 l64 0 l-355 -631 q-39 -69 -81.5 -102.5 q-42.5 -33.5 -97.5 -33.5 q-50 0 -85 27 l27 46 q25 -20 59 -20 q35 0 66 24.5 q31 24.5 65 81.5 l50 86 l-120 522 l62 0 l99 -453 l247 453 Z" /><glyph glyph-name="ycircumflex" unicode="&#x177;" d="M371 562 l-59 105 l-96 -105 l-60 0 l136 148 l51 0 l84 -148 l-56 0 ZM452 486 l64 0 l-355 -631 q-39 -69 -81.5 -102.5 q-42.5 -33.5 -97.5 -33.5 q-50 0 -85 27 l27 46 q25 -20 59 -20 q35 0 66 24.5 q31 24.5 65 81.5 l50 86 l-120 522 l62 0 l99 -453 l247 453 Z" /><glyph glyph-name="ydieresis" unicode="ÿ" d="M208 597 q-17 0 -29.5 12 q-12.5 12 -12.5 30 q0 18 12 30.5 q12 12.5 29 12.5 q18 0 30 -12.5 q12 -12.5 12 -30.5 q0 -18 -12 -30 q-12 -12 -29 -12 ZM404 597 q-17 0 -29 12 q-12 12 -12 30 q0 18 12 30.5 q12 12.5 29 12.5 q17 0 29.5 -12.5 q12.5 -12.5 12.5 -30.5 q0 -18 -12 -30 q-12 -12 -30 -12 ZM452 486 l64 0 l-355 -631 q-39 -69 -81.5 -102.5 q-42.5 -33.5 -97.5 -33.5 q-50 0 -85 27 l27 46 q25 -20 59 -20 q35 0 66 24.5 q31 24.5 65 81.5 l50 86 l-120 522 l62 0 l99 -453 l247 453 Z" /><glyph glyph-name="uni1EF5" unicode="&#x1ef5;" d="M452 486 l64 0 l-355 -631 q-39 -69 -81.5 -102.5 q-42.5 -33.5 -97.5 -33.5 q-50 0 -85 27 l27 46 q25 -20 59 -20 q35 0 66 24.5 q31 24.5 65 81.5 l50 86 l-120 522 l62 0 l99 -453 l247 453 ZM314 -120 q17 0 29.5 -12.5 q12.5 -12.5 12.5 -29.5 q0 -17 -12.5 -30 q-12.5 -13 -29.5 -13 q-17 0 -29 13 q-12 13 -12 30 q0 17 12 29.5 q12 12.5 29 12.5 Z" /><glyph glyph-name="ygrave" unicode="&#x1ef3;" d="M267 710 l55 -148 l-49 0 l-67 148 l61 0 ZM452 486 l64 0 l-355 -631 q-39 -69 -81.5 -102.5 q-42.5 -33.5 -97.5 -33.5 q-50 0 -85 27 l27 46 q25 -20 59 -20 q35 0 66 24.5 q31 24.5 65 81.5 l50 86 l-120 522 l62 0 l99 -453 l247 453 Z" /><glyph glyph-name="uni1EF7" unicode="&#x1ef7;" d="M295 688 q-26 0 -59 -18 l-5 41 q33 18 72 18 q39 0 64 -20.5 q25 -20.5 25 -55.5 q0 -80 -107 -108 l-22 34 q39 10 59 25.5 q20 15.5 20 42.5 q0 18 -13 29.5 q-13 11.5 -34 11.5 ZM452 486 l64 0 l-355 -631 q-39 -69 -81.5 -102.5 q-42.5 -33.5 -97.5 -33.5 q-50 0 -85 27 l27 46 q25 -20 59 -20 q35 0 66 24.5 q31 24.5 65 81.5 l50 86 l-120 522 l62 0 l99 -453 l247 453 Z" /><glyph glyph-name="uni1EF9" unicode="&#x1ef9;" d="M247 647 q-19 0 -33.5 -16.5 q-14.5 -16.5 -21.5 -46.5 l-48 0 q10 52 38 82.5 q28 30.5 69 30.5 q25 0 39.5 -11 q14.5 -11 29.5 -33 q12 -17 20.5 -24.5 q8.5 -7.5 22.5 -7.5 q18 0 33 16.5 q15 16.5 22 47.5 l47 0 q-9 -52 -37.5 -82.5 q-28.5 -30.5 -68.5 -30.5 q-25 0 -40 11.5 q-15 11.5 -29 31.5 q-11 16 -20.5 24 q-9.5 8 -22.5 8 ZM452 486 l64 0 l-355 -631 q-39 -69 -81.5 -102.5 q-42.5 -33.5 -97.5 -33.5 q-50 0 -85 27 l27 46 q25 -20 59 -20 q35 0 66 24.5 q31 24.5 65 81.5 l50 86 l-120 522 l62 0 l99 -453 l247 453 Z" /><glyph glyph-name="z" unicode="z" d="M88 486 l351 0 l-4 -30 l-373 -441 l306 0 l-9 -49 l-386 0 l4 32 l375 440 l-273 0 l9 48 Z" /><glyph glyph-name="zacute" unicode="&#x17a;" d="M298 562 l-53 0 l107 148 l65 0 l-119 -148 ZM88 486 l351 0 l-4 -30 l-373 -441 l306 0 l-9 -49 l-386 0 l4 32 l375 440 l-273 0 l9 48 Z" /><glyph glyph-name="zcaron" unicode="&#x17e;" d="M223 710 l60 -106 l95 106 l61 0 l-137 -148 l-51 0 l-84 148 l56 0 ZM88 486 l351 0 l-4 -30 l-373 -441 l306 0 l-9 -49 l-386 0 l4 32 l375 440 l-273 0 l9 48 Z" /><glyph glyph-name="zdotaccent" unicode="&#x17c;" d="M291 601 q-17 0 -29 12.5 q-12 12.5 -12 29.5 q0 17 12 30 q12 13 29 13 q17 0 29.5 -13 q12.5 -13 12.5 -30 q0 -17 -12.5 -29.5 q-12.5 -12.5 -29.5 -12.5 ZM88 486 l351 0 l-4 -30 l-373 -441 l306 0 l-9 -49 l-386 0 l4 32 l375 440 l-273 0 l9 48 Z" /><glyph glyph-name="ordfeminine" unicode="ª" d="M435 697 l-65 -368 l-42 0 q1 5 10 59 q-22 -34 -54.5 -50 q-32.5 -16 -67.5 -16 q-62 0 -100.5 42 q-38.5 42 -38.5 114 q0 21 5 51 q14 85 63.5 130.5 q49.5 45.5 113.5 45.5 q43 0 74 -21.5 q31 -21.5 44 -60.5 q12 52 16 74 l42 0 ZM223 362 q45 0 81 32.5 q36 32.5 50 109.5 q4 23 4 46 q0 58 -27 86 q-27 28 -69 28 q-48 0 -83 -35.5 q-35 -35.5 -47 -103.5 q-5 -28 -5 -48 q0 -55 25.5 -85 q25.5 -30 70.5 -30 Z" /><glyph glyph-name="ordmasculine" unicode="º" d="M82 527 q10 56 38.5 96.5 q28.5 40.5 69 61 q40.5 20.5 84.5 20.5 q65 0 104.5 -45 q39.5 -45 39.5 -116 q0 -24 -4 -44 q-10 -56 -39 -96 q-29 -40 -69 -60 q-40 -20 -83 -20 q-66 0 -105.5 43.5 q-39.5 43.5 -39.5 113.5 q0 25 4 46 ZM132 523 q-4 -19 -4 -41 q0 -53 26.5 -85 q26.5 -32 72.5 -32 q49 0 87 36.5 q38 36.5 50 102.5 q4 28 4 40 q0 54 -27 87 q-27 33 -72 33 q-49 0 -87 -37 q-38 -37 -50 -104 Z" /><glyph glyph-name="uni207F" unicode="&#x207f;" d="M291 705 q52 0 82.5 -33.5 q30.5 -33.5 30.5 -89.5 q0 -17 -3 -37 l-39 -215 l-46 0 l37 211 q4 26 4 37 q0 41 -20.5 63.5 q-20.5 22.5 -57.5 22.5 q-42 0 -74.5 -27.5 q-32.5 -27.5 -43.5 -81.5 l-40 -225 l-46 0 l64 367 l40 0 l-3 -25 q-4 -25 -5 -34 q21 33 52.5 50 q31.5 17 67.5 17 Z" /><glyph glyph-name="uni0410" unicode="&#x410;" d="M418 698 l161 -732 l-62 0 l-49 230 l-320 0 l-127 -230 l-65 0 l412 732 l50 0 ZM458 250 l-77 367 l-204 -367 l281 0 Z" /><glyph glyph-name="uni0411" unicode="&#x411;" d="M589 699 l-10 -54 l-365 0 l-47 -266 l169 0 q114 0 172.5 -50 q58.5 -50 58.5 -131 q0 -13 -4 -41 q-17 -94 -85.5 -142.5 q-68.5 -48.5 -188.5 -48.5 l-255 0 l130 733 l425 0 ZM157 326 l-54 -308 l179 0 q96 0 151 39 q55 39 67 108 q3 17 3 32 q0 59 -45 94 q-45 35 -141 35 l-160 0 Z" /><glyph glyph-name="uni0412" unicode="&#x412;" d="M566 491 q-19 -110 -129 -146 q61 -17 92.5 -56.5 q31.5 -39.5 31.5 -97.5 q0 -12 -4 -40 q-15 -89 -83 -137 q-68 -48 -190 -48 l-248 0 l127 732 l188 0 q105 0 161.5 -47.5 q56.5 -47.5 56.5 -123.5 q0 -18 -3 -36 ZM305 368 q87 0 137.5 33 q50.5 33 61.5 95 q2 9 2 27 q0 56 -43.5 89 q-43.5 33 -128.5 33 l-121 0 l-48 -277 l140 0 ZM496 157 q3 17 3 31 q0 61 -46.5 95.5 q-46.5 34.5 -140.5 34.5 l-156 0 l-52 -300 l174 0 q192 0 218 139 Z" /><glyph glyph-name="uni0413" unicode="&#x413;" d="M169 699 l457 0 l-10 -54 l-397 0 l-120 -679 l-60 0 l130 733 Z" /><glyph glyph-name="uni0403" unicode="&#x403;" d="M480 922 l65 0 l-119 -148 l-53 0 l107 148 ZM626 699 l-10 -54 l-398 0 l-119 -679 l-60 0 l130 733 l457 0 Z" /><glyph glyph-name="uni0490" unicode="&#x490;" d="M164 699 l363 0 l44 144 l48 0 l-48 -198 l-357 0 l-120 -679 l-60 0 l130 733 Z" /><glyph glyph-name="uni0414" unicode="&#x414;" d="M706 698 l-120 -678 l78 0 l-46 -226 l-49 0 l27 172 l-577 0 l-35 -172 l-48 0 l35 226 l32 0 q72 0 116.5 68.5 q44.5 68.5 80.5 219.5 l94 390 l412 0 ZM526 20 l110 624 l-294 0 l-84 -346 q-26 -110 -56.5 -178 q-30.5 -68 -74.5 -100 l399 0 Z" /><glyph glyph-name="uni0415" unicode="&#x415;" d="M163 698 l418 0 l-9 -53 l-359 0 l-47 -273 l323 0 l-10 -53 l-323 0 l-52 -300 l370 0 l-9 -53 l-429 0 l127 732 Z" /><glyph glyph-name="uni0400" unicode="&#x400;" d="M346 774 l-72 132 l61 0 l60 -132 l-49 0 ZM163 698 l418 0 l-9 -53 l-359 0 l-47 -273 l323 0 l-10 -53 l-323 0 l-52 -300 l370 0 l-9 -53 l-429 0 l127 732 Z" /><glyph glyph-name="uni0401" unicode="&#x401;" d="M291 808 q-17 0 -29 12.5 q-12 12.5 -12 29.5 q0 18 12 30.5 q12 12.5 29 12.5 q17 0 29.5 -12.5 q12.5 -12.5 12.5 -30.5 q0 -17 -12 -29.5 q-12 -12.5 -30 -12.5 ZM488 808 q-17 0 -29.5 12.5 q-12.5 12.5 -12.5 29.5 q0 18 12 30.5 q12 12.5 29 12.5 q18 0 30.5 -12.5 q12.5 -12.5 12.5 -30.5 q0 -17 -12.5 -29.5 q-12.5 -12.5 -29.5 -12.5 ZM163 698 l418 0 l-9 -53 l-359 0 l-47 -273 l323 0 l-10 -53 l-323 0 l-52 -300 l370 0 l-9 -53 l-429 0 l127 732 Z" /><glyph glyph-name="uni0416" unicode="&#x416;" d="M634 364 l306 334 l72 0 l-326 -360 l209 -372 l-74 0 l-189 345 l-117 0 l-60 -345 l-59 0 l60 345 l-111 0 l-312 -345 l-79 0 l341 371 l-196 361 l67 0 l183 -334 l117 0 l59 334 l59 0 l-59 -334 l109 0 Z" /><glyph glyph-name="uni0417" unicode="&#x417;" d="M532 505 q-10 -57 -46 -96.5 q-36 -39.5 -95 -55.5 q58 -18 88.5 -60.5 q30.5 -42.5 30.5 -100.5 q0 -23 -4 -42 q-16 -92 -84.5 -143 q-68.5 -51 -174.5 -51 q-99 0 -159 45.5 q-60 45.5 -70 131.5 l51 23 q10 -72 56.5 -109 q46.5 -37 123.5 -37 q79 0 131 39 q52 39 65 109 q3 15 3 30 q0 62 -46 99.5 q-46 37.5 -136 37.5 l-39 0 l10 53 l56 0 q81 0 130 44.5 q49 44.5 49 114.5 q0 52 -34.5 85 q-34.5 33 -98.5 33 q-57 0 -107 -29.5 q-50 -29.5 -82 -87.5 l-44 31 q39 72 101 106 q62 34 137 34 q93 0 142.5 -46 q49.5 -46 49.5 -118 q0 -21 -4 -40 Z" /><glyph glyph-name="uni0418" unicode="&#x418;" d="M651 699 l51 0 l-129 -732 l-56 0 l110 626 l-541 -626 l-51 0 l129 732 l56 0 l-110 -627 l541 627 Z" /><glyph glyph-name="uni0419" unicode="&#x419;" d="M455 774 q-60 0 -93.5 29.5 q-33.5 29.5 -33.5 78.5 q0 8 2 24 l52 0 q-1 -5 -1 -16 q0 -34 20 -54.5 q20 -20.5 57 -20.5 q38 0 64 23 q26 23 36 68 l52 0 q-11 -65 -52 -98.5 q-41 -33.5 -103 -33.5 ZM651 699 l51 0 l-129 -732 l-56 0 l110 626 l-541 -626 l-51 0 l129 732 l56 0 l-110 -627 l541 627 Z" /><glyph glyph-name="uni040D" unicode="&#x40d;" d="M427 774 l-68 147 l62 0 l55 -147 l-49 0 ZM651 699 l51 0 l-129 -732 l-56 0 l110 626 l-541 -626 l-51 0 l129 732 l56 0 l-110 -627 l541 627 Z" /><glyph glyph-name="uni041A" unicode="&#x41a;" d="M284 364 l328 334 l70 0 l-349 -360 l232 -372 l-69 0 l-214 345 l-127 0 l-61 -345 l-60 0 l130 732 l59 0 l-59 -334 l120 0 Z" /><glyph glyph-name="uni040C" unicode="&#x40c;" d="M463 773 l-52 0 l106 133 l65 0 l-119 -133 ZM284 364 l328 334 l70 0 l-349 -360 l232 -372 l-69 0 l-214 345 l-127 0 l-61 -345 l-60 0 l130 732 l59 0 l-59 -334 l120 0 Z" /><glyph glyph-name="uni041B" unicode="&#x41b;" d="M703 698 l-129 -732 l-60 0 l120 678 l-349 0 l-99 -461 q-18 -86 -43 -134.5 q-25 -48.5 -67 -70.5 q-42 -22 -112 -22 l7 55 q49 0 78 18 q29 18 46.5 56 q17.5 38 32.5 108 l108 505 l467 0 Z" /><glyph glyph-name="uni041C" unicode="&#x41c;" d="M773 698 l49 0 l-128 -732 l-57 0 l106 610 l-319 -399 l-36 0 l-187 412 l-109 -623 l-56 0 l127 732 l52 0 l202 -448 l356 448 Z" /><glyph glyph-name="uni041D" unicode="&#x41d;" d="M166 373 l418 0 l57 325 l59 0 l-128 -732 l-59 0 l62 354 l-419 0 l-61 -354 l-59 0 l127 732 l60 0 l-57 -325 Z" /><glyph glyph-name="uni041E" unicode="&#x41e;" d="M68 359 q19 108 71 187 q52 79 126.5 121 q74.5 42 159.5 42 q83 0 146 -41 q63 -41 96.5 -113 q33.5 -72 33.5 -164 q0 -39 -8 -89 q-19 -107 -71 -185 q-52 -78 -126 -119.5 q-74 -41.5 -158 -41.5 q-84 0 -147 40 q-63 40 -97 111.5 q-34 71.5 -34 163.5 q0 40 8 88 ZM129 354 q-7 -41 -7 -83 q0 -116 58 -188 q58 -72 161 -72 q71 0 131 35.5 q60 35.5 102 103.5 q42 68 58 160 q7 41 7 83 q0 76 -25.5 135.5 q-25.5 59.5 -74.5 93 q-49 33.5 -117 33.5 q-71 0 -131.5 -36 q-60.5 -36 -103 -104.5 q-42.5 -68.5 -58.5 -160.5 Z" /><glyph glyph-name="uni041F" unicode="&#x41f;" d="M163 698 l539 0 l-129 -732 l-59 0 l120 678 l-422 0 l-120 -678 l-58 0 l129 732 Z" /><glyph glyph-name="uni0420" unicode="&#x420;" d="M346 698 q69 0 120 -24 q51 -24 78 -67.5 q27 -43.5 27 -100.5 q0 -23 -4 -43 q-16 -95 -90 -148 q-74 -53 -183 -53 l-147 0 l-52 -296 l-59 0 l127 732 l183 0 ZM506 471 q3 17 3 33 q0 64 -45 103 q-45 39 -131 39 l-120 0 l-58 -331 l137 0 q89 0 145 40.5 q56 40.5 69 115.5 Z" /><glyph glyph-name="uni0421" unicode="&#x421;" d="M417 654 q-70 0 -129.5 -35 q-59.5 -35 -100.5 -101.5 q-41 -66.5 -57 -158.5 q-8 -46 -8 -83 q0 -77 26.5 -137 q26.5 -60 77.5 -94 q51 -34 121 -34 q119 0 183 105 l44 -32 q-37 -64 -96 -96 q-59 -32 -132 -32 q-86 0 -150.5 41 q-64.5 41 -99.5 113.5 q-35 72.5 -35 164.5 q0 40 8 88 q19 107 70 185.5 q51 78.5 124 119.5 q73 41 157 41 q61 0 109 -22.5 q48 -22.5 78.5 -60 q30.5 -37.5 40.5 -82.5 l-50 -24 q-16 58 -61.5 96 q-45.5 38 -119.5 38 Z" /><glyph glyph-name="uni0422" unicode="&#x422;" d="M86 698 l514 0 l-9 -53 l-228 0 l-119 -679 l-59 0 l119 679 l-227 0 l9 53 Z" /><glyph glyph-name="uni0423" unicode="&#x423;" d="M298 243 l291 456 l67 0 l-343 -531 q-53 -82 -92 -127.5 q-39 -45.5 -73.5 -65 q-34.5 -19.5 -75.5 -19.5 q-27 0 -49 7.5 q-22 7.5 -35 21.5 l9 54 q25 -28 74 -28 q31 0 56.5 14.5 q25.5 14.5 54.5 49.5 q29 35 76 105 l-172 519 l66 0 l146 -456 Z" /><glyph glyph-name="uni040E" unicode="&#x40e;" d="M396 774 q-60 0 -93.5 29.5 q-33.5 29.5 -33.5 78.5 q0 8 2 24 l52 0 q-1 -6 -1 -16 q0 -35 20 -55 q20 -20 57 -20 q38 0 64 23 q26 23 36 68 l52 0 q-11 -65 -52 -98.5 q-41 -33.5 -103 -33.5 ZM298 243 l291 456 l67 0 l-343 -531 q-53 -82 -92 -127.5 q-39 -45.5 -73.5 -65 q-34.5 -19.5 -75.5 -19.5 q-27 0 -49 7.5 q-22 7.5 -35 21.5 l9 54 q25 -28 74 -28 q31 0 56.5 14.5 q25.5 14.5 54.5 49.5 q29 35 76 105 l-172 519 l66 0 l146 -456 Z" /><glyph glyph-name="uni0424" unicode="&#x424;" d="M482 619 q79 -7 140 -39 q61 -32 95.5 -87 q34.5 -55 34.5 -127 q0 -25 -4 -48 q-13 -81 -65 -141.5 q-52 -60.5 -130.5 -94 q-78.5 -33.5 -171.5 -37.5 l-14 -79 l-59 0 l14 81 q-79 6 -139.5 37.5 q-60.5 31.5 -95 86 q-34.5 54.5 -34.5 126.5 q0 27 4 51 q14 82 66 142 q52 60 130.5 93 q78.5 33 169.5 37 l14 78 l59 0 l-14 -79 ZM119 343 q-4 -21 -4 -44 q0 -88 59 -139.5 q59 -51.5 157 -58.5 l83 464 q-116 -5 -197 -63 q-81 -58 -98 -159 ZM685 323 q3 23 3 43 q0 89 -59 141 q-59 52 -156 58 l-82 -464 q117 5 198 62.5 q81 57.5 96 159.5 Z" /><glyph glyph-name="uni0425" unicode="&#x425;" d="M333 384 l276 314 l73 0 l-324 -364 l202 -368 l-70 0 l-174 324 l-286 -324 l-73 0 l334 374 l-196 358 l70 0 l168 -314 Z" /><glyph glyph-name="uni0427" unicode="&#x427;" d="M562 698 l60 0 l-129 -732 l-60 0 l62 354 q-36 -47 -91.5 -72 q-55.5 -25 -121.5 -25 q-92 0 -146.5 46 q-54.5 46 -54.5 140 q0 29 6 65 l39 224 l59 0 l-39 -222 q-5 -26 -5 -59 q0 -140 147 -140 q82 0 146.5 43 q64.5 43 84.5 133 l43 245 Z" /><glyph glyph-name="uni0426" unicode="&#x426;" d="M642 698 l60 0 l-120 -678 l79 0 l-46 -226 l-49 0 l27 172 l-559 0 l129 732 l60 0 l-120 -678 l420 0 l119 678 Z" /><glyph glyph-name="uni0428" unicode="&#x428;" d="M480 20 l315 0 l120 678 l59 0 l-129 -732 l-811 0 l129 732 l60 0 l-120 -678 l318 0 l118 678 l60 0 l-119 -678 Z" /><glyph glyph-name="uni0429" unicode="&#x429;" d="M795 20 l119 678 l60 0 l-120 -678 l74 0 l-46 -226 l-49 0 l27 172 l-826 0 l129 732 l60 0 l-120 -678 l318 0 l118 678 l60 0 l-119 -678 l315 0 Z" /><glyph glyph-name="uni040F" unicode="&#x40f;" d="M103 20 l420 0 l119 678 l60 0 l-129 -732 l-240 0 l-35 -172 l-48 0 l26 172 l-242 0 l129 732 l60 0 l-120 -678 Z" /><glyph glyph-name="uni042C" unicode="&#x42c;" d="M336 379 q114 0 172.5 -51 q58.5 -51 58.5 -133 q0 -13 -4 -41 q-33 -188 -274 -188 l-255 0 l130 733 l59 0 l-56 -320 l169 0 ZM282 18 q194 0 218 144 q3 17 3 32 q0 60 -45.5 96 q-45.5 36 -140.5 36 l-160 0 l-54 -308 l179 0 Z" /><glyph glyph-name="uni042A" unicode="&#x42a;" d="M471 379 q114 0 172.5 -50 q58.5 -50 58.5 -131 q0 -13 -4 -41 q-17 -94 -85.5 -142.5 q-68.5 -48.5 -188.5 -48.5 l-254 0 l120 679 l-209 0 l10 54 l268 0 l-57 -320 l169 0 ZM417 18 q96 0 151.5 39 q55.5 39 67.5 108 q3 17 3 31 q0 60 -45 95 q-45 35 -142 35 l-159 0 l-55 -308 l179 0 Z" /><glyph glyph-name="uni042B" unicode="&#x42b;" d="M336 379 q114 0 172.5 -50 q58.5 -50 58.5 -131 q0 -13 -4 -41 q-17 -94 -85.5 -142.5 q-68.5 -48.5 -188.5 -48.5 l-255 0 l130 733 l59 0 l-56 -320 l169 0 ZM706 -34 l-59 0 l130 733 l59 0 l-130 -733 ZM282 18 q96 0 151 39 q55 39 67 108 q3 17 3 32 q0 59 -45 94 q-45 35 -141 35 l-160 0 l-54 -308 l179 0 Z" /><glyph glyph-name="uni0409" unicode="&#x409;" d="M817 379 q115 0 173.5 -50 q58.5 -50 58.5 -131 q0 -13 -4 -41 q-17 -94 -86 -142.5 q-69 -48.5 -189 -48.5 l-254 0 l120 678 l-351 0 l-99 -461 q-18 -87 -43 -135 q-25 -48 -66.5 -70 q-41.5 -22 -111.5 -22 l5 55 q49 0 78 18 q29 18 47 56.5 q18 38.5 33 107.5 l108 505 l469 1 l-57 -320 l169 0 ZM764 18 q96 0 151 39 q55 39 67 108 q3 17 3 32 q0 59 -45.5 94 q-45.5 35 -141.5 35 l-159 0 l-54 -308 l179 0 Z" /><glyph glyph-name="uni040A" unicode="&#x40a;" d="M817 373 q115 0 173.5 -45.5 q58.5 -45.5 58.5 -124.5 q0 -22 -4 -42 q-17 -95 -88.5 -145 q-71.5 -50 -197.5 -50 l-243 0 l63 354 l-423 0 l-62 -354 l-60 0 l129 732 l60 0 l-57 -325 l422 0 l57 325 l60 0 l-57 -325 l169 0 ZM752 18 q102 0 160.5 40.5 q58.5 40.5 70.5 109.5 q3 17 3 31 q0 57 -44.5 89.5 q-44.5 32.5 -139.5 32.5 l-163 0 l-54 -303 l167 0 Z" /><glyph glyph-name="uni0405" unicode="&#x405;" d="M487 134 q-15 -83 -76 -132 q-63 -46 -156 -46 q-69 0 -124 27 q-55 27 -88 73.5 q-33 46.5 -40 104.5 l51 24 q12 -78 67 -126 q55 -48 136 -48 q68 0 113.5 34 q45.5 34 56.5 92 q2 9 2 25 q0 38 -21 66 q-21 28 -52 47 q-31 19 -84 44 q-59 28 -93.5 50 q-34.5 22 -59 56.5 q-24.5 34.5 -24.5 82.5 q0 17 3 35 q19 96 93 135 q54 31 128 31 q66 0 114.5 -24.5 q48.5 -24.5 75 -63.5 q26.5 -39 28.5 -82 l-51 -24 q-2 38 -23 70 q-21 32 -58 51 q-37 19 -87 19 q-60 0 -104 -28.5 q-44 -28.5 -54 -85.5 q-2 -16 -2 -24 q0 -37 20.5 -63.5 q20.5 -26.5 50 -45 q29.5 -18.5 82.5 -43.5 q58 -27 93.5 -49.5 q35.5 -22.5 60.5 -58 q25 -35.5 25 -86.5 q0 -17 -3 -37 Z" /><glyph glyph-name="uni0404" unicode="&#x404;" d="M420 654 q-70 0 -129 -34.5 q-59 -34.5 -100 -99.5 q-41 -65 -59 -154 l329 0 l-10 -54 l-326 0 q-2 -28 -2 -41 q0 -76 26.5 -135 q26.5 -59 77 -92 q50.5 -33 120.5 -33 q120 0 184 106 l43 -33 q-37 -64 -95.5 -96 q-58.5 -32 -132.5 -32 q-86 0 -151 40.5 q-65 40.5 -100 113 q-35 72.5 -35 164.5 q0 38 8 86 q19 107 71 186 q52 79 126 121 q74 42 158 42 q91 0 150.5 -47.5 q59.5 -47.5 75.5 -117.5 l-51 -24 q-16 59 -60 96.5 q-44 37.5 -118 37.5 Z" /><glyph glyph-name="uni042D" unicode="&#x42d;" d="M314 709 q85 0 147.5 -40 q62.5 -40 96 -112 q33.5 -72 33.5 -165 q0 -50 -8 -94 q-19 -105 -67 -182.5 q-48 -77.5 -119.5 -118.5 q-71.5 -41 -157.5 -41 q-63 0 -112.5 22.5 q-49.5 22.5 -81 60 q-31.5 37.5 -41.5 82.5 l50 24 q16 -58 64 -96 q48 -38 125 -38 q107 0 179.5 76.5 q72.5 76.5 98.5 211.5 l-329 0 l9 54 l327 0 q2 28 2 42 q0 117 -57 188 q-57 71 -160 71 q-61 0 -110 -26.5 q-49 -26.5 -81 -79.5 l-44 33 q37 63 99 95.5 q62 32.5 137 32.5 Z" /><glyph glyph-name="uni0406" unicode="&#x406;" d="M95 -34 l-59 0 l127 732 l60 0 l-128 -732 Z" /><glyph glyph-name="uni0407" unicode="&#x407;" d="M122 808 q-17 0 -29 12.5 q-12 12.5 -12 29.5 q0 18 12 30.5 q12 12.5 29 12.5 q17 0 29.5 -12.5 q12.5 -12.5 12.5 -30.5 q0 -17 -12 -29.5 q-12 -12.5 -30 -12.5 ZM319 808 q-17 0 -29.5 12.5 q-12.5 12.5 -12.5 29.5 q0 18 12 30.5 q12 12.5 29 12.5 q18 0 30 -12.5 q12 -12.5 12 -30.5 q0 -17 -12 -29.5 q-12 -12.5 -29 -12.5 ZM95 -34 l-59 0 l127 732 l60 0 l-128 -732 Z" /><glyph glyph-name="uni0408" unicode="&#x408;" d="M131 -44 q-67 0 -105.5 35 q-38.5 35 -46.5 100 l50 23 q8 -51 33 -77 q25 -26 72 -26 q111 0 137 150 l94 537 l60 0 l-96 -542 q-19 -107 -71.5 -153.5 q-52.5 -46.5 -126.5 -46.5 Z" /><glyph glyph-name="uni040B" unicode="&#x40b;" d="M524 429 q92 0 146.5 -46 q54.5 -46 54.5 -140 q0 -30 -6 -65 l-37 -212 l-60 0 l37 210 q6 33 6 60 q0 70 -38 104.5 q-38 34.5 -110 34.5 q-81 0 -145.5 -43 q-64.5 -43 -84.5 -131 l-41 -235 l-60 0 l120 679 l-229 0 l9 53 l519 0 l-9 -53 l-230 0 l-55 -313 q36 47 91.5 72 q55.5 25 121.5 25 Z" /><glyph glyph-name="uni042E" unicode="&#x42e;" d="M678 709 q79 0 137.5 -37 q58.5 -37 89.5 -105 q31 -68 31 -159 q0 -52 -10 -105 q-20 -115 -71.5 -193 q-51.5 -78 -122 -116 q-70.5 -38 -150.5 -38 q-80 0 -138 36.5 q-58 36.5 -89 103.5 q-31 67 -31 159 q0 34 4 65 l-172 0 l-61 -354 l-59 0 l127 732 l60 0 l-57 -325 l170 0 q22 110 73.5 185.5 q51.5 75.5 121 113 q69.5 37.5 147.5 37.5 ZM864 311 q9 53 9 99 q0 112 -51 178.5 q-51 66.5 -146 66.5 q-67 0 -124.5 -34.5 q-57.5 -34.5 -98.5 -103 q-41 -68.5 -58 -167.5 q-9 -52 -9 -98 q0 -112 51 -176.5 q51 -64.5 147 -64.5 q102 0 178.5 77 q76.5 77 101.5 223 Z" /><glyph glyph-name="uni042F" unicode="&#x42f;" d="M585 698 l-129 -732 l-60 0 l56 314 l-126 0 q-18 0 -33 3 l-278 -317 l-75 0 l292 329 q-61 20 -96 64.5 q-35 44.5 -35 104.5 q0 18 3 37 q17 94 93 145.5 q76 51.5 188 51.5 l200 0 ZM461 333 l55 313 l-129 0 q-91 0 -149 -39.5 q-58 -39.5 -71 -111.5 q-3 -15 -3 -30 q0 -60 45.5 -96 q45.5 -36 128.5 -36 l123 0 Z" /><glyph glyph-name="uni0402" unicode="&#x402;" d="M529 429 q64 0 114 -24.5 q50 -24.5 78 -71 q28 -46.5 28 -109.5 q0 -22 -5 -54 q-19 -111 -99.5 -165.5 q-80.5 -54.5 -195.5 -48.5 l6 55 q92 -4 152.5 36 q60.5 40 76.5 130 q4 30 4 42 q0 71 -42 113.5 q-42 42.5 -120 42.5 q-56 0 -107.5 -23.5 q-51.5 -23.5 -88 -70 q-36.5 -46.5 -48.5 -111.5 l-36 -204 l-60 0 l120 679 l-229 0 l9 53 l519 0 l-9 -53 l-230 0 l-58 -326 q38 54 96 82 q58 28 125 28 Z" /><glyph glyph-name="uni0462" unicode="&#x462;" d="M421 379 q114 0 172.5 -49.5 q58.5 -49.5 58.5 -129.5 q0 -23 -4 -43 q-17 -94 -85.5 -142.5 q-68.5 -48.5 -188.5 -48.5 l-254 0 l99 561 l-166 0 l9 53 l167 0 l21 119 l59 0 l-21 -119 l219 0 l-9 -53 l-220 0 l-26 -148 l169 0 ZM368 18 q96 0 151 39 q55 39 67 108 q3 17 3 32 q0 59 -45.5 94 q-45.5 35 -141.5 35 l-159 0 l-54 -308 l179 0 Z" /><glyph glyph-name="uni0472" unicode="&#x472;" d="M425 709 q83 0 145.5 -40.5 q62.5 -40.5 96 -112.5 q33.5 -72 33.5 -164 q0 -40 -8 -90 q-19 -107 -70.5 -185 q-51.5 -78 -125.5 -119.5 q-74 -41.5 -159 -41.5 q-83 0 -146 40 q-63 40 -97 111 q-34 71 -34 163 q0 39 8 89 q19 107 71 186.5 q52 79.5 126.5 121.5 q74.5 42 159.5 42 ZM421 655 q-71 0 -130.5 -35.5 q-59.5 -35.5 -100.5 -100.5 q-41 -65 -59 -152 l507 0 q1 9 1 27 q0 76 -25.5 135 q-25.5 59 -75 92.5 q-49.5 33.5 -117.5 33.5 ZM341 11 q74 0 135 38.5 q61 38.5 101 107 q40 68.5 54 156.5 l-507 0 q-2 -15 -2 -45 q0 -75 26 -133 q26 -58 75.5 -91 q49.5 -33 117.5 -33 Z" /><glyph glyph-name="uni0474" unicode="&#x474;" d="M723 709 q26 0 45.5 -10 q19.5 -10 28.5 -25 l-27 -44 q-20 24 -46 24 q-22 0 -40.5 -15.5 q-18.5 -15.5 -41.5 -56.5 l-353 -616 l-45 0 l-159 732 l64 0 l135 -644 l302 547 q34 61 64.5 84.5 q30.5 23.5 72.5 23.5 Z" /><glyph glyph-name="uni0492" unicode="&#x492;" d="M168 698 l422 0 l-9 -53 l-363 0 l-49 -284 l141 0 l-9 -53 l-142 0 l-60 -342 l-60 0 l61 342 l-93 0 l9 53 l93 0 l59 337 Z" /><glyph glyph-name="uni049A" unicode="&#x49a;" d="M599 698 l70 0 l-343 -360 l193 -318 l54 0 l-46 -226 l-48 0 l26 172 l-21 0 l-209 345 l-121 0 l-60 -345 l-60 0 l129 732 l60 0 l-59 -334 l112 0 l323 334 Z" /><glyph glyph-name="uni049C" unicode="&#x49c;" d="M337 364 l279 334 l66 0 l-299 -360 l181 -372 l-67 0 l-165 345 l-53 0 l-25 -149 l-52 0 l26 149 l-74 0 l-60 -345 l-60 0 l129 732 l60 0 l-59 -334 l74 0 l26 149 l51 0 l-26 -149 l48 0 Z" /><glyph glyph-name="uni04A2" unicode="&#x4a2;" d="M645 698 l60 0 l-120 -678 l56 0 l-46 -226 l-48 0 l26 172 l-57 0 l63 354 l-423 0 l-62 -354 l-60 0 l129 732 l60 0 l-57 -325 l422 0 l57 325 Z" /><glyph glyph-name="uni04AE" unicode="&#x4ae;" d="M312 342 l270 356 l68 0 l-321 -418 l-54 -314 l-59 0 l56 318 l-186 414 l65 0 l161 -356 Z" /><glyph glyph-name="uni04B0" unicode="&#x4b0;" d="M312 342 l270 356 l68 0 l-287 -374 l157 0 l-10 -53 l-182 0 l-53 -305 l-59 0 l54 305 l-188 0 l10 53 l162 0 l-168 374 l65 0 l161 -356 Z" /><glyph glyph-name="uni04B2" unicode="&#x4b2;" d="M612 698 l70 0 l-325 -362 l174 -316 l53 0 l-47 -226 l-48 0 l26 172 l-21 0 l-175 326 l-291 -326 l-71 0 l336 372 l-198 360 l66 0 l169 -316 l282 316 Z" /><glyph glyph-name="uni04B8" unicode="&#x4b8;" d="M561 698 l60 0 l-129 -732 l-60 0 l64 355 q-30 -41 -74.5 -65.5 q-44.5 -24.5 -98.5 -29.5 l-26 -147 l-51 0 l25 145 q-90 2 -140 49 q-50 47 -50 136 q0 31 6 65 l39 224 l59 0 l-39 -222 q-6 -33 -6 -60 q0 -135 141 -138 l27 154 l51 0 l-26 -151 q69 11 120.5 55 q51.5 44 66.5 124 l41 238 Z" /><glyph glyph-name="uni04BA" unicode="&#x4ba;" d="M94 -34 l-60 0 l129 732 l60 0 l-62 -354 q36 47 91.5 72 q55.5 25 121.5 25 q92 0 146.5 -46 q54.5 -46 54.5 -140 q0 -29 -6 -65 l-39 -224 l-59 0 l39 222 q5 26 5 59 q0 140 -147 140 q-82 0 -146.5 -43 q-64.5 -43 -84.5 -133 l-43 -245 Z" /></font>
</defs>
</svg>
