<?xml version="1.0" standalone="no"?><!DOCTYPE svg PUBLIC "-//W3C//DTD SVG 1.1//EN" "http://www.w3.org/Graphics/SVG/1.1/DTD/svg11.dtd" ><svg xmlns="http://www.w3.org/2000/svg"><metadata></metadata><defs><font id="HarmonyOS Sans Bold Italic Version 1.0" horiz-adv-x="1580"><font-face font-family="HarmonyOS Sans" font-weight="700" font-stretch="normal" units-per-em="1000" panose-1="0 0 8 0 0 0 0 0 0 0" ascent="928" descent="-285" x-height="0" bbox="-613 -285 1582 1042" underline-thickness="50" underline-position="-75" unicode-range="U+0020-301e" /><missing-glyph horiz-adv-x="500" d="M93 850 l317 0 l0 -1000 l-317 0 l0 1000 ZM333 750 l0 33 l-165 0 l0 -33 l65 0 l0 -37 l-66 0 l0 -33 l166 0 l0 33 l-66 0 l0 37 l66 0 ZM267 584 l0 70 l-100 0 l0 -104 l166 0 l0 34 l-66 0 ZM200 620 l33 0 l0 -36 l-33 0 l0 36 ZM333 490 l0 33 l-166 0 l0 -33 l66 0 l0 -37 l-66 0 l0 -33 l100 0 l0 70 l66 0 ZM333 363 l0 100 l-33 0 l0 -66 l-133 0 l0 -34 l166 0 ZM333 228 l0 113 l-100 0 l0 -56 l34 0 l0 23 l33 0 l0 -47 l-100 0 l0 80 l-33 0 l0 -113 l166 0 ZM333 55 l0 113 l-166 0 l0 -113 l166 0 ZM200 135 l100 0 l0 -47 l-100 0 l0 47 ZM333 -1 l0 33 l-166 0 l0 -33 l70 0 l-70 -47 l0 -33 l166 0 l0 33 l-102 0 l70 47 l32 0 Z" /><glyph glyph-name="space" unicode=" " d="" /><glyph glyph-name="A" unicode="A" d="M493 698 l166 -732 l-147 0 l-35 167 l-285 0 l-91 -167 l-152 0 l417 732 l127 0 ZM452 257 l-53 258 l-140 -258 l193 0 Z" /><glyph glyph-name="Aacute" unicode="Á" d="M505 766 l-117 0 l119 150 l148 0 l-150 -150 ZM493 698 l166 -732 l-147 0 l-35 167 l-285 0 l-91 -167 l-152 0 l417 732 l127 0 ZM452 257 l-53 258 l-140 -258 l193 0 Z" /><glyph glyph-name="Abreve" unicode="&#x102;" d="M453 765 q-77 0 -120 34.5 q-43 34.5 -43 91.5 q0 9 2 25 l109 0 q-2 -33 12 -52 q14 -19 46 -19 q30 0 49 17.5 q19 17.5 28 53.5 l109 0 q-13 -77 -63.5 -114 q-50.5 -37 -128.5 -37 ZM493 698 l166 -732 l-147 0 l-35 167 l-285 0 l-91 -167 l-152 0 l417 732 l127 0 ZM452 257 l-53 258 l-140 -258 l193 0 Z" /><glyph glyph-name="uni1EAE" unicode="&#x1eae;" d="M547 860 l-127 0 l109 88 l158 0 l-140 -88 ZM450 745 q-77 0 -120 20 q-43 20 -43 54 q0 5 2 15 l117 0 q-2 -13 10 -20.5 q12 -7.5 41 -7.5 q52 0 68 28 l117 0 q-13 -45 -64 -67 q-51 -22 -128 -22 ZM493 698 l166 -732 l-147 0 l-35 167 l-285 0 l-91 -167 l-152 0 l417 732 l127 0 ZM452 257 l-53 258 l-140 -258 l193 0 Z" /><glyph glyph-name="uni1EB6" unicode="&#x1eb6;" d="M453 765 q-77 0 -120 34.5 q-43 34.5 -43 91.5 q0 9 2 25 l109 0 q-2 -33 12 -52 q14 -19 46 -19 q30 0 49 17.5 q19 17.5 28 53.5 l109 0 q-13 -77 -63.5 -114 q-50.5 -37 -128.5 -37 ZM493 698 l166 -732 l-147 0 l-35 167 l-285 0 l-91 -167 l-152 0 l417 732 l127 0 ZM452 257 l-53 258 l-140 -258 l193 0 ZM300 -262 q-34 0 -58.5 25 q-24.5 25 -24.5 60 q0 35 24.5 59.5 q24.5 24.5 58.5 24.5 q33 0 58 -25 q25 -25 25 -59 q0 -35 -24.5 -60 q-24.5 -25 -58.5 -25 Z" /><glyph glyph-name="uni1EB0" unicode="&#x1eb0;" d="M413 860 l-97 88 l141 0 l66 -88 l-110 0 ZM450 745 q-77 0 -120 20 q-43 20 -43 54 q0 5 2 15 l117 0 q-2 -13 10 -20.5 q12 -7.5 41 -7.5 q52 0 68 28 l117 0 q-13 -45 -64 -67 q-51 -22 -128 -22 ZM493 698 l166 -732 l-147 0 l-35 167 l-285 0 l-91 -167 l-152 0 l417 732 l127 0 ZM452 257 l-53 258 l-140 -258 l193 0 Z" /><glyph glyph-name="uni1EB2" unicode="&#x1eb2;" d="M357 946 q43 13 100 13 q52 0 86 -14 q34 -14 34 -38 q0 -27 -34.5 -42 q-34.5 -15 -98.5 -26 l-44 39 q46 6 63.5 9.5 q17.5 3.5 17.5 10.5 q0 10 -33 10 q-39 0 -79 -10 l-12 48 ZM450 745 q-77 0 -120 20 q-43 20 -43 54 q0 5 2 15 l117 0 q-2 -13 10 -20.5 q12 -7.5 41 -7.5 q52 0 68 28 l117 0 q-13 -45 -64 -67 q-51 -22 -128 -22 ZM493 698 l166 -732 l-147 0 l-35 167 l-285 0 l-91 -167 l-152 0 l417 732 l127 0 ZM452 257 l-53 258 l-140 -258 l193 0 Z" /><glyph glyph-name="uni1EB4" unicode="&#x1eb4;" d="M283 867 q13 40 51 61 q38 21 93 21 q31 0 49 -5 q18 -5 37 -14 q8 -5 17 -8 q9 -3 19 -3 q32 0 46 22 l95 0 q-12 -40 -50.5 -60.5 q-38.5 -20.5 -93.5 -20.5 q-31 0 -49 5 q-18 5 -37 14 q-9 5 -18 8 q-9 3 -19 3 q-30 0 -45 -23 l-95 0 ZM450 745 q-77 0 -120 20 q-43 20 -43 54 q0 5 2 15 l117 0 q-2 -13 10 -20.5 q12 -7.5 41 -7.5 q52 0 68 28 l117 0 q-13 -45 -64 -67 q-51 -22 -128 -22 ZM493 698 l166 -732 l-147 0 l-35 167 l-285 0 l-91 -167 l-152 0 l417 732 l127 0 ZM452 257 l-53 258 l-140 -258 l193 0 Z" /><glyph glyph-name="uni01CD" unicode="&#x1cd;" d="M401 916 l52 -76 l78 76 l125 0 l-159 -151 l-109 0 l-105 151 l118 0 ZM493 698 l166 -732 l-147 0 l-35 167 l-285 0 l-91 -167 l-152 0 l417 732 l127 0 ZM452 257 l-53 258 l-140 -258 l193 0 Z" /><glyph glyph-name="Acircumflex" unicode="Â" d="M412 916 l108 0 l106 -151 l-118 0 l-52 76 l-79 -76 l-124 0 l159 151 ZM493 698 l166 -732 l-147 0 l-35 167 l-285 0 l-91 -167 l-152 0 l417 732 l127 0 ZM452 257 l-53 258 l-140 -258 l193 0 Z" /><glyph glyph-name="uni1EA4" unicode="&#x1ea4;" d="M680 849 l-127 0 l109 88 l158 0 l-140 -88 ZM409 834 l108 0 l106 -89 l-125 0 l-45 39 l-67 -39 l-136 0 l159 89 ZM493 698 l166 -732 l-147 0 l-35 167 l-285 0 l-91 -167 l-152 0 l417 732 l127 0 ZM452 257 l-53 258 l-140 -258 l193 0 Z" /><glyph glyph-name="uni1EAC" unicode="&#x1eac;" d="M412 916 l108 0 l106 -151 l-118 0 l-52 76 l-79 -76 l-124 0 l159 151 ZM493 698 l166 -732 l-147 0 l-35 167 l-285 0 l-91 -167 l-152 0 l417 732 l127 0 ZM452 257 l-53 258 l-140 -258 l193 0 ZM300 -262 q-34 0 -58.5 25 q-24.5 25 -24.5 60 q0 35 24.5 59.5 q24.5 24.5 58.5 24.5 q33 0 58 -25 q25 -25 25 -59 q0 -35 -24.5 -60 q-24.5 -25 -58.5 -25 Z" /><glyph glyph-name="uni1EA6" unicode="&#x1ea6;" d="M546 849 l-97 88 l141 0 l66 -88 l-110 0 ZM409 834 l108 0 l106 -89 l-125 0 l-45 39 l-67 -39 l-136 0 l159 89 ZM493 698 l166 -732 l-147 0 l-35 167 l-285 0 l-91 -167 l-152 0 l417 732 l127 0 ZM452 257 l-53 258 l-140 -258 l193 0 Z" /><glyph glyph-name="uni1EA8" unicode="&#x1ea8;" d="M494 931 q45 14 99 14 q53 0 86.5 -14 q33.5 -14 33.5 -39 q0 -28 -34 -43 q-34 -15 -99 -25 l-44 39 q45 6 62 9.5 q17 3.5 20 9.5 q2 11 -34 11 q-38 0 -78 -10 l-12 48 ZM409 834 l108 0 l106 -89 l-125 0 l-45 39 l-67 -39 l-136 0 l159 89 ZM493 698 l166 -732 l-147 0 l-35 167 l-285 0 l-91 -167 l-152 0 l417 732 l127 0 ZM452 257 l-53 258 l-140 -258 l193 0 Z" /><glyph glyph-name="uni1EAA" unicode="&#x1eaa;" d="M282 855 q13 40 51 61 q38 21 93 21 q31 0 49 -5 q18 -5 37 -14 q9 -5 18 -8 q9 -3 19 -3 q31 0 45 22 l95 0 q-13 -39 -51 -60 q-38 -21 -93 -21 q-31 0 -49 5 q-18 5 -37 14 q-9 5 -18 8 q-9 3 -19 3 q-30 0 -45 -23 l-95 0 ZM409 834 l108 0 l106 -89 l-125 0 l-45 39 l-67 -39 l-136 0 l159 89 ZM493 698 l166 -732 l-147 0 l-35 167 l-285 0 l-91 -167 l-152 0 l417 732 l127 0 ZM452 257 l-53 258 l-140 -258 l193 0 Z" /><glyph glyph-name="Adieresis" unicode="Ä" d="M343 768 q-31 0 -52.5 22.5 q-21.5 22.5 -21.5 54.5 q0 32 21.5 54.5 q21.5 22.5 52.5 22.5 q32 0 54 -22.5 q22 -22.5 22 -54.5 q0 -32 -22 -54.5 q-22 -22.5 -54 -22.5 ZM567 768 q-31 0 -52.5 23 q-21.5 23 -21.5 54 q0 32 21.5 54.5 q21.5 22.5 52.5 22.5 q31 0 53.5 -22.5 q22.5 -22.5 22.5 -54.5 q0 -32 -22.5 -54.5 q-22.5 -22.5 -53.5 -22.5 ZM493 698 l166 -732 l-147 0 l-35 167 l-285 0 l-91 -167 l-152 0 l417 732 l127 0 ZM452 257 l-53 258 l-140 -258 l193 0 Z" /><glyph glyph-name="uni1EA0" unicode="&#x1ea0;" d="M493 698 l166 -732 l-147 0 l-35 167 l-285 0 l-91 -167 l-152 0 l417 732 l127 0 ZM452 257 l-53 258 l-140 -258 l193 0 ZM300 -262 q-34 0 -58.5 25 q-24.5 25 -24.5 60 q0 35 24.5 59.5 q24.5 24.5 58.5 24.5 q33 0 58 -25 q25 -25 25 -59 q0 -35 -24.5 -60 q-24.5 -25 -58.5 -25 Z" /><glyph glyph-name="Agrave" unicode="À" d="M381 766 l-97 150 l141 0 l67 -150 l-111 0 ZM493 698 l166 -732 l-147 0 l-35 167 l-285 0 l-91 -167 l-152 0 l417 732 l127 0 ZM452 257 l-53 258 l-140 -258 l193 0 Z" /><glyph glyph-name="uni1EA2" unicode="&#x1ea2;" d="M347 918 q21 12 48 18 q27 6 51 6 q53 0 86.5 -23.5 q33.5 -23.5 33.5 -64.5 q0 -48 -33.5 -73.5 q-33.5 -25.5 -99.5 -43.5 l-45 63 q39 10 58.5 20 q19.5 10 19.5 26 q0 9 -8.5 15 q-8.5 6 -24.5 6 q-33 0 -74 -22 l-12 73 ZM493 698 l166 -732 l-147 0 l-35 167 l-285 0 l-91 -167 l-152 0 l417 732 l127 0 ZM452 257 l-53 258 l-140 -258 l193 0 Z" /><glyph glyph-name="Amacron" unicode="&#x100;" d="M618 797 l-342 0 l16 95 l342 0 l-16 -95 ZM493 698 l166 -732 l-147 0 l-35 167 l-285 0 l-91 -167 l-152 0 l417 732 l127 0 ZM452 257 l-53 258 l-140 -258 l193 0 Z" /><glyph glyph-name="Aogonek" unicode="&#x104;" d="M685 -236 q-56 -49 -127 -49 q-59 0 -96 28.5 q-37 28.5 -37 79.5 q0 45 23 80.5 q23 35.5 64 64.5 l-35 165 l-285 0 l-91 -167 l-152 0 l417 732 l127 0 l166 -732 q-64 -29 -95.5 -56 q-31.5 -27 -37.5 -62 q-1 -4 -1 -11 q0 -18 11 -28 q11 -10 30 -10 q35 0 80 35 l39 -70 ZM399 515 l-140 -258 l193 0 l-53 258 Z" /><glyph glyph-name="Aring" unicode="Å" d="M338 870 q0 51 35 85 q35 34 86 34 q51 0 85 -33.5 q34 -33.5 34 -85.5 q0 -52 -34 -85.5 q-34 -33.5 -85 -33.5 q-52 0 -86.5 33.5 q-34.5 33.5 -34.5 85.5 ZM413 870 q0 -21 12.5 -34.5 q12.5 -13.5 33.5 -13.5 q20 0 32 13.5 q12 13.5 12 34.5 q0 22 -12 35.5 q-12 13.5 -32 13.5 q-21 0 -33.5 -13.5 q-12.5 -13.5 -12.5 -35.5 ZM493 698 l166 -732 l-147 0 l-35 167 l-285 0 l-91 -167 l-152 0 l417 732 l127 0 ZM452 257 l-53 258 l-140 -258 l193 0 Z" /><glyph glyph-name="Aringacute" unicode="&#x1fa;" d="M532 881 l-112 0 l107 78 l140 0 l-135 -78 ZM344 793 q0 28 31.5 46 q31.5 18 78.5 18 q47 0 78 -18 q31 -18 31 -46 q0 -28 -31 -46 q-31 -18 -78 -18 q-47 0 -78.5 18 q-31.5 18 -31.5 46 ZM412 793 q0 -7 11.5 -11.5 q11.5 -4.5 30.5 -4.5 q18 0 29.5 4.5 q11.5 4.5 11.5 11.5 q0 8 -11 12.5 q-11 4.5 -30 4.5 q-19 0 -30.5 -4.5 q-11.5 -4.5 -11.5 -12.5 ZM493 698 l166 -732 l-147 0 l-35 167 l-285 0 l-91 -167 l-152 0 l417 732 l127 0 ZM452 257 l-53 258 l-140 -258 l193 0 Z" /><glyph glyph-name="uni1E00" unicode="&#x1e00;" d="M493 698 l166 -732 l-147 0 l-35 167 l-285 0 l-91 -167 l-152 0 l417 732 l127 0 ZM452 257 l-53 258 l-140 -258 l193 0 ZM179 -177 q0 49 34.5 79.5 q34.5 30.5 86.5 30.5 q52 0 85 -30.5 q33 -30.5 33 -79.5 q0 -50 -33 -80.5 q-33 -30.5 -85 -30.5 q-52 0 -86.5 31 q-34.5 31 -34.5 80 ZM254 -177 q0 -19 12.5 -31 q12.5 -12 33.5 -12 q20 0 32 12 q12 12 12 31 q0 19 -12 31 q-12 12 -32 12 q-21 0 -33.5 -12 q-12.5 -12 -12.5 -31 Z" /><glyph glyph-name="Atilde" unicode="Ã" d="M251 778 q13 67 52 102.5 q39 35.5 94 35.5 q32 0 50.5 -11 q18.5 -11 34.5 -30 q12 -12 19 -17 q7 -5 17 -5 q31 0 45 50 l95 0 q-12 -67 -51 -102.5 q-39 -35.5 -95 -35.5 q-32 0 -49.5 10.5 q-17.5 10.5 -35.5 29.5 q-10 12 -18 17.5 q-8 5.5 -18 5.5 q-30 0 -45 -50 l-95 0 ZM493 698 l166 -732 l-147 0 l-35 167 l-285 0 l-91 -167 l-152 0 l417 732 l127 0 ZM452 257 l-53 258 l-140 -258 l193 0 Z" /><glyph glyph-name="AE" unicode="Æ" d="M550 698 l534 0 l-22 -126 l-332 0 l-31 -172 l299 0 l-22 -125 l-298 0 l-32 -182 l343 0 l-23 -127 l-488 0 l30 169 l-251 0 l-136 -169 l-172 0 l601 732 ZM529 259 l51 284 l-226 -284 l175 0 Z" /><glyph glyph-name="AEacute" unicode="&#x1fc;" d="M809 767 l-117 0 l120 149 l148 0 l-151 -149 ZM550 698 l534 0 l-22 -126 l-332 0 l-31 -172 l299 0 l-22 -125 l-298 0 l-32 -182 l343 0 l-23 -127 l-488 0 l30 169 l-251 0 l-136 -169 l-172 0 l601 732 ZM529 259 l51 284 l-226 -284 l175 0 Z" /><glyph glyph-name="B" unicode="B" d="M626 478 q-17 -100 -97 -139 q45 -22 67.5 -57.5 q22.5 -35.5 22.5 -83.5 q0 -18 -3 -38 q-16 -96 -89.5 -145 q-73.5 -49 -199.5 -49 l-307 0 l127 732 l240 0 q72 0 127 -22 q55 -22 85 -63.5 q30 -41.5 30 -96.5 q0 -18 -3 -38 ZM345 399 q62 0 98 26 q36 26 36 74 q0 34 -29.5 53.5 q-29.5 19.5 -89.5 19.5 l-93 0 l-30 -173 l108 0 ZM468 177 q2 14 2 20 q0 37 -30.5 59 q-30.5 22 -91.5 22 l-132 0 l-33 -186 l145 0 q125 0 140 85 Z" /><glyph glyph-name="C" unicode="C" d="M424 578 q-80 0 -140.5 -58.5 q-60.5 -58.5 -79.5 -168.5 q-6 -33 -6 -64 q0 -90 45 -145 q45 -55 122 -55 q95 0 154 96 l109 -81 q-37 -69 -109 -108.5 q-72 -39.5 -162 -39.5 q-92 0 -162.5 42 q-70.5 42 -108.5 116.5 q-38 74.5 -38 169.5 q0 43 7 84 q19 111 75.5 189 q56.5 78 135.5 117 q79 39 169 39 q75 0 131 -26.5 q56 -26.5 89 -69 q33 -42.5 42 -91.5 l-129 -62 q-15 53 -50 84.5 q-35 31.5 -94 31.5 Z" /><glyph glyph-name="Cacute" unicode="&#x106;" d="M513 766 l-117 0 l120 149 l148 0 l-151 -149 ZM424 578 q-80 0 -140.5 -58.5 q-60.5 -58.5 -79.5 -168.5 q-6 -33 -6 -64 q0 -90 45 -145 q45 -55 122 -55 q95 0 154 96 l109 -81 q-37 -69 -109 -108.5 q-72 -39.5 -162 -39.5 q-92 0 -162.5 42 q-70.5 42 -108.5 116.5 q-38 74.5 -38 169.5 q0 43 7 84 q19 111 75.5 189 q56.5 78 135.5 117 q79 39 169 39 q75 0 131 -26.5 q56 -26.5 89 -69 q33 -42.5 42 -91.5 l-129 -62 q-15 53 -50 84.5 q-35 31.5 -94 31.5 Z" /><glyph glyph-name="Ccaron" unicode="&#x10c;" d="M409 915 l52 -76 l78 76 l125 0 l-159 -150 l-109 0 l-105 150 l118 0 ZM424 578 q-80 0 -140.5 -58.5 q-60.5 -58.5 -79.5 -168.5 q-6 -33 -6 -64 q0 -90 45 -145 q45 -55 122 -55 q95 0 154 96 l109 -81 q-37 -69 -109 -108.5 q-72 -39.5 -162 -39.5 q-92 0 -162.5 42 q-70.5 42 -108.5 116.5 q-38 74.5 -38 169.5 q0 43 7 84 q19 111 75.5 189 q56.5 78 135.5 117 q79 39 169 39 q75 0 131 -26.5 q56 -26.5 89 -69 q33 -42.5 42 -91.5 l-129 -62 q-15 53 -50 84.5 q-35 31.5 -94 31.5 Z" /><glyph glyph-name="Ccedilla" unicode="Ç" d="M424 578 q-80 0 -140.5 -58.5 q-60.5 -58.5 -79.5 -168.5 q-6 -33 -6 -64 q0 -90 45 -145 q45 -55 122 -55 q95 0 154 96 l109 -81 q-36 -67 -104 -105.5 q-68 -38.5 -153 -42.5 l-6 0 l-29 -48 q42 -5 68 -28.5 q26 -23.5 26 -60.5 q0 -58 -44.5 -81.5 q-44.5 -23.5 -106.5 -23.5 q-48 0 -88 14 l5 71 q30 -11 74 -11 q63 0 63 30 q0 10 -12 16 q-12 6 -34 6 q-17 0 -54 -7 l-7 50 l49 82 q-105 25 -166 111.5 q-61 86.5 -61 208.5 q0 42 7 83 q19 111 75.5 189 q56.5 78 135.5 117 q79 39 169 39 q75 0 131 -26.5 q56 -26.5 89 -69 q33 -42.5 42 -91.5 l-129 -62 q-15 53 -50 84.5 q-35 31.5 -94 31.5 Z" /><glyph glyph-name="Ccircumflex" unicode="&#x108;" d="M420 915 l109 0 l105 -150 l-118 0 l-52 76 l-78 -76 l-125 0 l159 150 ZM424 578 q-80 0 -140.5 -58.5 q-60.5 -58.5 -79.5 -168.5 q-6 -33 -6 -64 q0 -90 45 -145 q45 -55 122 -55 q95 0 154 96 l109 -81 q-37 -69 -109 -108.5 q-72 -39.5 -162 -39.5 q-92 0 -162.5 42 q-70.5 42 -108.5 116.5 q-38 74.5 -38 169.5 q0 43 7 84 q19 111 75.5 189 q56.5 78 135.5 117 q79 39 169 39 q75 0 131 -26.5 q56 -26.5 89 -69 q33 -42.5 42 -91.5 l-129 -62 q-15 53 -50 84.5 q-35 31.5 -94 31.5 Z" /><glyph glyph-name="Cdotaccent" unicode="&#x10a;" d="M463 767 q-30 0 -52 23 q-22 23 -22 54 q0 32 21.5 54.5 q21.5 22.5 52.5 22.5 q32 0 54 -22.5 q22 -22.5 22 -54.5 q0 -31 -22 -54 q-22 -23 -54 -23 ZM424 578 q-80 0 -140.5 -58.5 q-60.5 -58.5 -79.5 -168.5 q-6 -33 -6 -64 q0 -90 45 -145 q45 -55 122 -55 q95 0 154 96 l109 -81 q-37 -69 -109 -108.5 q-72 -39.5 -162 -39.5 q-92 0 -162.5 42 q-70.5 42 -108.5 116.5 q-38 74.5 -38 169.5 q0 43 7 84 q19 111 75.5 189 q56.5 78 135.5 117 q79 39 169 39 q75 0 131 -26.5 q56 -26.5 89 -69 q33 -42.5 42 -91.5 l-129 -62 q-15 53 -50 84.5 q-35 31.5 -94 31.5 Z" /><glyph glyph-name="D" unicode="D" d="M371 698 q96 0 171.5 -39 q75.5 -39 118.5 -111 q43 -72 43 -168 q0 -40 -7 -78 q-19 -110 -78.5 -185.5 q-59.5 -75.5 -147 -113 q-87.5 -37.5 -191.5 -37.5 l-260 0 l127 732 l224 0 ZM547 317 q6 32 6 61 q0 92 -54.5 144.5 q-54.5 52.5 -157.5 52.5 l-72 0 l-84 -485 l91 0 q114 0 183 57 q69 57 88 170 Z" /><glyph glyph-name="Eth" unicode="Ð" d="M411 698 q96 0 171.5 -39 q75.5 -39 118.5 -111 q43 -72 43 -168 q0 -40 -7 -78 q-19 -110 -78 -185.5 q-59 -75.5 -146.5 -113 q-87.5 -37.5 -192.5 -37.5 l-260 0 l53 309 l-91 0 l23 128 l91 0 l51 295 l224 0 ZM588 317 q5 26 5 60 q0 93 -54 145.5 q-54 52.5 -158 52.5 l-71 0 l-30 -172 l121 0 l-23 -128 l-121 0 l-32 -185 l91 0 q113 0 182.5 57 q69.5 57 89.5 170 Z" /><glyph glyph-name="Dcaron" unicode="&#x10e;" d="M339 915 l52 -76 l78 76 l126 0 l-160 -150 l-108 0 l-106 150 l118 0 ZM371 698 q96 0 171.5 -39 q75.5 -39 118.5 -111 q43 -72 43 -168 q0 -40 -7 -78 q-19 -110 -78.5 -185.5 q-59.5 -75.5 -147 -113 q-87.5 -37.5 -191.5 -37.5 l-260 0 l127 732 l224 0 ZM547 317 q6 32 6 61 q0 92 -54.5 144.5 q-54.5 52.5 -157.5 52.5 l-72 0 l-84 -485 l91 0 q114 0 183 57 q69 57 88 170 Z" /><glyph glyph-name="Dcroat" unicode="&#x110;" d="M411 698 q96 0 171.5 -39 q75.5 -39 118.5 -111 q43 -72 43 -168 q0 -40 -7 -78 q-19 -110 -78 -185.5 q-59 -75.5 -146.5 -113 q-87.5 -37.5 -192.5 -37.5 l-260 0 l53 309 l-91 0 l23 128 l91 0 l51 295 l224 0 ZM588 317 q5 26 5 60 q0 93 -54 145.5 q-54 52.5 -158 52.5 l-71 0 l-30 -172 l121 0 l-23 -128 l-121 0 l-32 -185 l91 0 q113 0 182.5 57 q69.5 57 89.5 170 Z" /><glyph glyph-name="E" unicode="E" d="M147 698 l473 0 l-22 -126 l-329 0 l-30 -172 l295 0 l-21 -125 l-296 0 l-32 -182 l341 0 l-23 -127 l-483 0 l127 732 Z" /><glyph glyph-name="Eacute" unicode="É" d="M447 766 l-117 0 l119 149 l148 0 l-150 -149 ZM147 698 l473 0 l-22 -126 l-329 0 l-30 -172 l295 0 l-21 -125 l-296 0 l-32 -182 l341 0 l-23 -127 l-483 0 l127 732 Z" /><glyph glyph-name="Ebreve" unicode="&#x114;" d="M395 764 q-77 0 -120 34 q-43 34 -43 91 q0 17 2 26 l109 0 q-2 -33 12 -52 q14 -19 46 -19 q59 0 77 71 l109 0 q-14 -76 -64.5 -113.5 q-50.5 -37.5 -127.5 -37.5 ZM147 698 l473 0 l-22 -126 l-329 0 l-30 -172 l295 0 l-21 -125 l-296 0 l-32 -182 l341 0 l-23 -127 l-483 0 l127 732 Z" /><glyph glyph-name="Ecaron" unicode="&#x11a;" d="M342 915 l53 -76 l78 76 l125 0 l-159 -150 l-109 0 l-106 150 l118 0 ZM147 698 l473 0 l-22 -126 l-329 0 l-30 -172 l295 0 l-21 -125 l-296 0 l-32 -182 l341 0 l-23 -127 l-483 0 l127 732 Z" /><glyph glyph-name="Ecircumflex" unicode="Ê" d="M354 915 l108 0 l106 -150 l-119 0 l-51 76 l-79 -76 l-125 0 l160 150 ZM147 698 l473 0 l-22 -126 l-329 0 l-30 -172 l295 0 l-21 -125 l-296 0 l-32 -182 l341 0 l-23 -127 l-483 0 l127 732 Z" /><glyph glyph-name="uni1EBE" unicode="&#x1ebe;" d="M622 849 l-128 0 l109 88 l159 0 l-140 -88 ZM351 834 l108 0 l106 -89 l-126 0 l-44 39 l-67 -39 l-137 0 l160 89 ZM147 698 l473 0 l-22 -126 l-329 0 l-30 -172 l295 0 l-21 -125 l-296 0 l-32 -182 l341 0 l-23 -127 l-483 0 l127 732 Z" /><glyph glyph-name="uni1EC6" unicode="&#x1ec6;" d="M354 915 l108 0 l106 -150 l-119 0 l-51 76 l-79 -76 l-125 0 l160 150 ZM147 698 l473 0 l-22 -126 l-329 0 l-30 -172 l295 0 l-21 -125 l-296 0 l-32 -182 l341 0 l-23 -127 l-483 0 l127 732 ZM219 -262 q-34 0 -58 25 q-24 25 -24 60 q0 35 24 59.5 q24 24.5 58 24.5 q34 0 58.5 -25 q24.5 -25 24.5 -59 q0 -35 -24.5 -60 q-24.5 -25 -58.5 -25 Z" /><glyph glyph-name="uni1EC0" unicode="&#x1ec0;" d="M488 849 l-97 88 l140 0 l67 -88 l-110 0 ZM351 834 l108 0 l106 -89 l-126 0 l-44 39 l-67 -39 l-137 0 l160 89 ZM147 698 l473 0 l-22 -126 l-329 0 l-30 -172 l295 0 l-21 -125 l-296 0 l-32 -182 l341 0 l-23 -127 l-483 0 l127 732 Z" /><glyph glyph-name="uni1EC2" unicode="&#x1ec2;" d="M436 931 q45 14 99 14 q53 0 86.5 -14 q33.5 -14 33.5 -39 q0 -27 -34.5 -42 q-34.5 -15 -98.5 -26 l-44 39 q45 6 63 10 q18 4 18 11 q0 9 -33 9 q-38 0 -78 -10 l-12 48 ZM351 834 l108 0 l106 -89 l-126 0 l-44 39 l-67 -39 l-137 0 l160 89 ZM147 698 l473 0 l-22 -126 l-329 0 l-30 -172 l295 0 l-21 -125 l-296 0 l-32 -182 l341 0 l-23 -127 l-483 0 l127 732 Z" /><glyph glyph-name="uni1EC4" unicode="&#x1ec4;" d="M223 855 q14 40 52 61 q38 21 93 21 q31 0 49 -5 q18 -5 37 -14 q8 -5 17 -8 q9 -3 19 -3 q32 0 46 22 l95 0 q-13 -39 -51 -60 q-38 -21 -93 -21 q-31 0 -49 5 q-18 5 -37 14 q-9 5 -18 8 q-9 3 -19 3 q-30 0 -45 -23 l-96 0 ZM351 834 l108 0 l106 -89 l-126 0 l-44 39 l-67 -39 l-137 0 l160 89 ZM147 698 l473 0 l-22 -126 l-329 0 l-30 -172 l295 0 l-21 -125 l-296 0 l-32 -182 l341 0 l-23 -127 l-483 0 l127 732 Z" /><glyph glyph-name="Edieresis" unicode="Ë" d="M284 767 q-30 0 -51.5 23 q-21.5 23 -21.5 54 q0 32 21.5 54.5 q21.5 22.5 51.5 22.5 q32 0 54 -22.5 q22 -22.5 22 -54.5 q0 -31 -22 -54 q-22 -23 -54 -23 ZM509 767 q-31 0 -52.5 23 q-21.5 23 -21.5 54 q0 32 21.5 54.5 q21.5 22.5 52.5 22.5 q31 0 53 -22.5 q22 -22.5 22 -54.5 q0 -31 -22 -54 q-22 -23 -53 -23 ZM147 698 l473 0 l-22 -126 l-329 0 l-30 -172 l295 0 l-21 -125 l-296 0 l-32 -182 l341 0 l-23 -127 l-483 0 l127 732 Z" /><glyph glyph-name="Edotaccent" unicode="&#x116;" d="M397 767 q-30 0 -52 23 q-22 23 -22 54 q0 32 21.5 54.5 q21.5 22.5 52.5 22.5 q32 0 54 -22.5 q22 -22.5 22 -54.5 q0 -31 -22 -54 q-22 -23 -54 -23 ZM147 698 l473 0 l-22 -126 l-329 0 l-30 -172 l295 0 l-21 -125 l-296 0 l-32 -182 l341 0 l-23 -127 l-483 0 l127 732 Z" /><glyph glyph-name="uni1EB8" unicode="&#x1eb8;" d="M147 698 l473 0 l-22 -126 l-329 0 l-30 -172 l295 0 l-21 -125 l-296 0 l-32 -182 l341 0 l-23 -127 l-483 0 l127 732 ZM219 -262 q-34 0 -58 25 q-24 25 -24 60 q0 35 24 59.5 q24 24.5 58 24.5 q34 0 58.5 -25 q24.5 -25 24.5 -59 q0 -35 -24.5 -60 q-24.5 -25 -58.5 -25 Z" /><glyph glyph-name="Egrave" unicode="È" d="M323 766 l-97 149 l141 0 l66 -149 l-110 0 ZM147 698 l473 0 l-22 -126 l-329 0 l-30 -172 l295 0 l-21 -125 l-296 0 l-32 -182 l341 0 l-23 -127 l-483 0 l127 732 Z" /><glyph glyph-name="uni1EBA" unicode="&#x1eba;" d="M289 918 q41 23 99 23 q53 0 86.5 -23.5 q33.5 -23.5 33.5 -64.5 q0 -48 -34 -73.5 q-34 -25.5 -99 -42.5 l-46 63 q39 9 59 19 q20 10 20 27 q0 9 -8.5 15 q-8.5 6 -24.5 6 q-33 0 -74 -22 l-12 73 ZM147 698 l473 0 l-22 -126 l-329 0 l-30 -172 l295 0 l-21 -125 l-296 0 l-32 -182 l341 0 l-23 -127 l-483 0 l127 732 Z" /><glyph glyph-name="Emacron" unicode="&#x112;" d="M559 797 l-342 0 l17 95 l342 0 l-17 -95 ZM147 698 l473 0 l-22 -126 l-329 0 l-30 -172 l295 0 l-21 -125 l-296 0 l-32 -182 l341 0 l-23 -127 l-483 0 l127 732 Z" /><glyph glyph-name="Eogonek" unicode="&#x118;" d="M620 698 l-22 -126 l-329 0 l-30 -172 l295 0 l-21 -125 l-296 0 l-32 -182 l341 0 l-23 -127 q-64 -29 -95.5 -56 q-31.5 -27 -37.5 -62 q-1 -4 -1 -11 q0 -18 11 -28 q11 -10 30 -10 q35 0 80 35 l39 -70 q-56 -49 -127 -49 q-59 0 -96 28.5 q-37 28.5 -37 79.5 q0 45 22 79 q22 34 63 64 l-334 0 l127 732 l473 0 Z" /><glyph glyph-name="uni1EBC" unicode="&#x1ebc;" d="M193 778 q13 66 52 102 q39 36 94 36 q32 0 49.5 -10.5 q17.5 -10.5 35.5 -29.5 q10 -12 18 -17.5 q8 -5.5 18 -5.5 q31 0 45 50 l95 0 q-12 -67 -51.5 -103 q-39.5 -36 -94.5 -36 q-32 0 -49.5 10.5 q-17.5 10.5 -35.5 29.5 q-10 12 -18 17.5 q-8 5.5 -18 5.5 q-30 0 -45 -49 l-95 0 ZM147 698 l473 0 l-22 -126 l-329 0 l-30 -172 l295 0 l-21 -125 l-296 0 l-32 -182 l341 0 l-23 -127 l-483 0 l127 732 Z" /><glyph glyph-name="F" unicode="F" d="M147 698 l473 0 l-22 -127 l-329 0 l-33 -187 l295 0 l-22 -126 l-295 0 l-51 -292 l-143 0 l127 732 Z" /><glyph glyph-name="G" unicode="G" d="M520 249 l-137 0 l22 125 l278 0 l-54 -310 q-39 -55 -108.5 -82.5 q-69.5 -27.5 -148.5 -27.5 q-97 0 -170.5 42 q-73.5 42 -113.5 116.5 q-40 74.5 -40 170.5 q0 44 7 83 q19 110 76 188 q57 78 138.5 117.5 q81.5 39.5 174.5 39.5 q74 0 130 -24.5 q56 -24.5 89.5 -64 q33.5 -39.5 44.5 -85.5 l-128 -60 q-15 46 -52 74 q-37 28 -97 28 q-87 0 -149 -60.5 q-62 -60.5 -81 -166.5 q-6 -31 -6 -61 q0 -93 51 -149.5 q51 -56.5 139 -56.5 q70 0 113 39 l22 125 Z" /><glyph glyph-name="Gbreve" unicode="&#x11e;" d="M455 765 q-77 0 -120 34 q-43 34 -43 91 q0 17 2 26 l109 0 q-2 -33 11.5 -52 q13.5 -19 46.5 -19 q59 0 77 71 l109 0 q-14 -76 -64.5 -113.5 q-50.5 -37.5 -127.5 -37.5 ZM520 249 l-137 0 l22 125 l278 0 l-54 -310 q-39 -55 -108.5 -82.5 q-69.5 -27.5 -148.5 -27.5 q-97 0 -170.5 42 q-73.5 42 -113.5 116.5 q-40 74.5 -40 170.5 q0 44 7 83 q19 110 76 188 q57 78 138.5 117.5 q81.5 39.5 174.5 39.5 q74 0 130 -24.5 q56 -24.5 89.5 -64 q33.5 -39.5 44.5 -85.5 l-128 -60 q-15 46 -52 74 q-37 28 -97 28 q-87 0 -149 -60.5 q-62 -60.5 -81 -166.5 q-6 -31 -6 -61 q0 -93 51 -149.5 q51 -56.5 139 -56.5 q70 0 113 39 l22 125 Z" /><glyph glyph-name="Gcircumflex" unicode="&#x11c;" d="M413 916 l109 0 l106 -150 l-119 0 l-51 76 l-79 -76 l-125 0 l159 150 ZM520 249 l-137 0 l22 125 l278 0 l-54 -310 q-39 -55 -108.5 -82.5 q-69.5 -27.5 -148.5 -27.5 q-97 0 -170.5 42 q-73.5 42 -113.5 116.5 q-40 74.5 -40 170.5 q0 44 7 83 q19 110 76 188 q57 78 138.5 117.5 q81.5 39.5 174.5 39.5 q74 0 130 -24.5 q56 -24.5 89.5 -64 q33.5 -39.5 44.5 -85.5 l-128 -60 q-15 46 -52 74 q-37 28 -97 28 q-87 0 -149 -60.5 q-62 -60.5 -81 -166.5 q-6 -31 -6 -61 q0 -93 51 -149.5 q51 -56.5 139 -56.5 q70 0 113 39 l22 125 Z" /><glyph glyph-name="uni0122" unicode="&#x122;" d="M383 249 l22 125 l278 0 l-54 -310 q-39 -55 -108.5 -82.5 q-69.5 -27.5 -148.5 -27.5 q-97 0 -170.5 42 q-73.5 42 -113.5 116.5 q-40 74.5 -40 170.5 q0 44 7 83 q19 110 76 188 q57 78 138.5 117.5 q81.5 39.5 174.5 39.5 q74 0 130 -24.5 q56 -24.5 89.5 -64 q33.5 -39.5 44.5 -85.5 l-128 -60 q-15 46 -52 74 q-37 28 -97 28 q-87 0 -149 -60.5 q-62 -60.5 -81 -166.5 q-6 -31 -6 -61 q0 -93 51 -149.5 q51 -56.5 139 -56.5 q70 0 113 39 l22 125 l-137 0 ZM331 -67 q37 0 58 -20 q21 -20 21 -56 q0 -8 -2 -24 q-10 -57 -54.5 -87.5 q-44.5 -30.5 -121.5 -34.5 l8 58 q66 10 83 42 q-35 0 -53 19.5 q-18 19.5 -13 48.5 q5 26 25.5 40 q20.5 14 48.5 14 Z" /><glyph glyph-name="Gdotaccent" unicode="&#x120;" d="M457 768 q-30 0 -52 23 q-22 23 -22 54 q0 32 21.5 54.5 q21.5 22.5 52.5 22.5 q32 0 53.5 -22.5 q21.5 -22.5 21.5 -54.5 q0 -31 -21.5 -54 q-21.5 -23 -53.5 -23 ZM520 249 l-137 0 l22 125 l278 0 l-54 -310 q-39 -55 -108.5 -82.5 q-69.5 -27.5 -148.5 -27.5 q-97 0 -170.5 42 q-73.5 42 -113.5 116.5 q-40 74.5 -40 170.5 q0 44 7 83 q19 110 76 188 q57 78 138.5 117.5 q81.5 39.5 174.5 39.5 q74 0 130 -24.5 q56 -24.5 89.5 -64 q33.5 -39.5 44.5 -85.5 l-128 -60 q-15 46 -52 74 q-37 28 -97 28 q-87 0 -149 -60.5 q-62 -60.5 -81 -166.5 q-6 -31 -6 -61 q0 -93 51 -149.5 q51 -56.5 139 -56.5 q70 0 113 39 l22 125 Z" /><glyph glyph-name="H" unicode="H" d="M241 410 l326 0 l51 288 l144 0 l-128 -732 l-144 0 l55 315 l-327 0 l-55 -315 l-143 0 l127 732 l144 0 l-50 -288 Z" /><glyph glyph-name="Hbar" unicode="&#x126;" d="M792 698 l-18 -101 l69 0 l-18 -104 l-69 0 l-93 -527 l-146 0 l55 311 l-330 0 l-55 -311 l-146 0 l93 527 l-68 0 l18 104 l68 0 l18 101 l146 0 l-18 -101 l330 0 l18 101 l146 0 ZM280 493 l-16 -87 l330 0 l16 87 l-330 0 Z" /><glyph glyph-name="Hcircumflex" unicode="&#x124;" d="M437 915 l109 0 l105 -150 l-118 0 l-52 76 l-79 -76 l-124 0 l159 150 ZM241 410 l326 0 l51 288 l144 0 l-128 -732 l-144 0 l55 315 l-327 0 l-55 -315 l-143 0 l127 732 l144 0 l-50 -288 Z" /><glyph glyph-name="I" unicode="I" d="M163 -34 l-143 0 l127 732 l144 0 l-128 -732 Z" /><glyph glyph-name="IJ" unicode="&#x132;" d="M163 -34 l-143 0 l127 732 l144 0 l-128 -732 ZM470 -46 q-89 0 -141.5 44 q-52.5 44 -65.5 129 l126 58 q10 -49 28.5 -73.5 q18.5 -24.5 57.5 -24.5 q89 0 112 135 l82 476 l146 0 l-88 -501 q-24 -133 -95 -188 q-71 -55 -162 -55 Z" /><glyph glyph-name="Iacute" unicode="Í" d="M295 766 l-117 0 l120 149 l147 0 l-150 -149 ZM163 -34 l-143 0 l127 732 l144 0 l-128 -732 Z" /><glyph glyph-name="Ibreve" unicode="&#x12c;" d="M243 764 q-77 0 -120 34.5 q-43 34.5 -43 91.5 q0 9 2 25 l109 0 q-2 -33 12 -52 q14 -19 47 -19 q58 0 77 71 l108 0 q-13 -76 -64 -113.5 q-51 -37.5 -128 -37.5 ZM163 -34 l-143 0 l127 732 l144 0 l-128 -732 Z" /><glyph glyph-name="uni01CF" unicode="&#x1cf;" d="M191 915 l52 -76 l78 76 l125 0 l-159 -150 l-109 0 l-105 150 l118 0 ZM163 -34 l-143 0 l127 732 l144 0 l-128 -732 Z" /><glyph glyph-name="Icircumflex" unicode="Î" d="M202 915 l109 0 l105 -150 l-118 0 l-52 76 l-79 -76 l-124 0 l159 150 ZM163 -34 l-143 0 l127 732 l144 0 l-128 -732 Z" /><glyph glyph-name="Idieresis" unicode="Ï" d="M133 767 q-30 0 -52 23 q-22 23 -22 54 q0 32 21.5 54.5 q21.5 22.5 52.5 22.5 q32 0 54 -22.5 q22 -22.5 22 -54.5 q0 -31 -22 -54 q-22 -23 -54 -23 ZM357 767 q-31 0 -52.5 23 q-21.5 23 -21.5 54 q0 32 21.5 54.5 q21.5 22.5 52.5 22.5 q31 0 53.5 -22.5 q22.5 -22.5 22.5 -54.5 q0 -31 -22.5 -54 q-22.5 -23 -53.5 -23 ZM163 -34 l-143 0 l127 732 l144 0 l-128 -732 Z" /><glyph glyph-name="Idotaccent" unicode="&#x130;" d="M245 767 q-30 0 -52 23 q-22 23 -22 54 q0 32 21.5 54.5 q21.5 22.5 52.5 22.5 q32 0 54 -22.5 q22 -22.5 22 -54.5 q0 -31 -22 -54 q-22 -23 -54 -23 ZM163 -34 l-143 0 l127 732 l144 0 l-128 -732 Z" /><glyph glyph-name="uni1ECA" unicode="&#x1eca;" d="M163 -34 l-143 0 l127 732 l144 0 l-128 -732 ZM67 -262 q-34 0 -58.5 25 q-24.5 25 -24.5 60 q0 35 24.5 59.5 q24.5 24.5 58.5 24.5 q34 0 58.5 -25 q24.5 -25 24.5 -59 q0 -35 -24.5 -60 q-24.5 -25 -58.5 -25 Z" /><glyph glyph-name="Igrave" unicode="Ì" d="M171 766 l-96 149 l140 0 l67 -149 l-111 0 ZM163 -34 l-143 0 l127 732 l144 0 l-128 -732 Z" /><glyph glyph-name="uni1EC8" unicode="&#x1ec8;" d="M137 918 q41 23 100 23 q52 0 85.5 -23 q33.5 -23 33.5 -64 q0 -48 -34.5 -74 q-34.5 -26 -98.5 -43 l-45 63 q38 9 58 19 q20 10 20 27 q0 9 -8 15 q-8 6 -24 6 q-33 0 -75 -22 l-12 73 ZM163 -34 l-143 0 l127 732 l144 0 l-128 -732 Z" /><glyph glyph-name="Imacron" unicode="&#x12a;" d="M408 797 l-342 0 l16 95 l342 0 l-16 -95 ZM163 -34 l-143 0 l127 732 l144 0 l-128 -732 Z" /><glyph glyph-name="Iogonek" unicode="&#x12e;" d="M70 -201 q35 0 80 35 l39 -70 q-56 -49 -127 -49 q-59 0 -96 28.5 q-37 28.5 -37 79.5 q0 16 2 25 q14 73 90 123 l126 727 l144 0 l-128 -732 q-64 -29 -95.5 -56 q-31.5 -27 -37.5 -62 q-1 -4 -1 -11 q0 -18 11 -28 q11 -10 30 -10 Z" /><glyph glyph-name="Itilde" unicode="&#x128;" d="M41 778 q13 66 52 102 q39 36 94 36 q32 0 50.5 -11 q18.5 -11 34.5 -30 q12 -12 19 -17 q7 -5 17 -5 q31 0 45 50 l96 0 q-12 -67 -52 -103 q-40 -36 -95 -36 q-32 0 -50.5 11 q-18.5 11 -34.5 30 q-11 12 -18 17 q-7 5 -17 5 q-31 0 -46 -49 l-95 0 ZM163 -34 l-143 0 l127 732 l144 0 l-128 -732 Z" /><glyph glyph-name="J" unicode="J" d="M180 -46 q-88 0 -140.5 44 q-52.5 44 -66.5 129 l126 58 q11 -50 29.5 -74 q18.5 -24 56.5 -24 q89 0 113 135 l82 476 l145 0 l-88 -501 q-23 -133 -94.5 -188 q-71.5 -55 -162.5 -55 Z" /><glyph glyph-name="Jcircumflex" unicode="&#x134;" d="M435 916 l108 0 l106 -151 l-118 0 l-52 76 l-79 -76 l-125 0 l160 151 ZM180 -46 q-88 0 -140.5 44 q-52.5 44 -66.5 129 l126 58 q11 -50 29.5 -74 q18.5 -24 56.5 -24 q89 0 113 135 l82 476 l145 0 l-88 -501 q-23 -133 -94.5 -188 q-71.5 -55 -162.5 -55 Z" /><glyph glyph-name="K" unicode="K" d="M237 382 l354 316 l188 0 l-339 -294 l237 -438 l-177 0 l-177 336 l-118 -102 l-41 -234 l-146 0 l129 732 l146 0 l-56 -316 Z" /><glyph glyph-name="uni0136" unicode="&#x136;" d="M591 698 l188 0 l-339 -294 l237 -438 l-177 0 l-177 336 l-118 -102 l-41 -234 l-146 0 l129 732 l146 0 l-56 -316 l354 316 ZM311 -67 q37 0 58 -20 q21 -20 21 -56 q0 -8 -2 -24 q-10 -57 -55 -87.5 q-45 -30.5 -121 -34.5 l8 58 q66 10 83 42 l-1 0 q-31 0 -48.5 15.5 q-17.5 15.5 -17.5 40.5 q0 32 21.5 49 q21.5 17 53.5 17 Z" /><glyph glyph-name="L" unicode="L" d="M148 698 l146 0 l-107 -602 l334 0 l-24 -130 l-479 0 l130 732 Z" /><glyph glyph-name="Lacute" unicode="&#x139;" d="M296 767 l-116 0 l119 149 l148 0 l-151 -149 ZM148 698 l146 0 l-107 -602 l334 0 l-24 -130 l-479 0 l130 732 Z" /><glyph glyph-name="Lcaron" unicode="&#x13d;" d="M471 711 q34 0 56 -23 q22 -23 22 -64 q0 -18 -2 -27 q-12 -70 -61.5 -114 q-49.5 -44 -120.5 -54 l3 70 q64 11 88 55 q-29 3 -46 23 q-17 20 -17 49 q0 35 23 60 q23 25 55 25 ZM148 698 l146 0 l-107 -602 l334 0 l-24 -130 l-479 0 l130 732 Z" /><glyph glyph-name="uni013B" unicode="&#x13b;" d="M294 698 l-107 -602 l334 0 l-24 -130 l-479 0 l130 732 l146 0 ZM253 -67 q36 0 57.5 -20.5 q21.5 -20.5 21.5 -57.5 q0 -6 -2 -22 q-10 -57 -55 -87.5 q-45 -30.5 -122 -34.5 l8 58 q66 10 83 42 q-31 0 -49 16 q-18 16 -18 41 q0 32 22.5 48.5 q22.5 16.5 53.5 16.5 Z" /><glyph glyph-name="Ldot" unicode="&#x13f;" d="M148 698 l146 0 l-107 -602 l334 0 l-24 -130 l-479 0 l130 732 ZM397 286 q-34 0 -58 25 q-24 25 -24 60 q0 35 24 60 q24 25 58 25 q35 0 59.5 -25 q24.5 -25 24.5 -60 q0 -35 -24.5 -60 q-24.5 -25 -59.5 -25 Z" /><glyph glyph-name="Lslash" unicode="&#x141;" d="M404 371 l-145 -67 l-37 -208 l334 0 l-24 -130 l-478 0 l47 266 l-102 -46 l25 140 l102 46 l58 326 l145 0 l-45 -253 l145 66 l-25 -140 Z" /><glyph glyph-name="M" unicode="M" d="M753 698 l112 0 l-128 -732 l-137 0 l79 458 l-219 -263 l-76 0 l-144 293 l-85 -488 l-135 0 l127 732 l113 0 l181 -379 l312 379 Z" /><glyph glyph-name="uni1E3E" unicode="&#x1e3e;" d="M581 766 l-116 0 l119 150 l148 0 l-151 -150 ZM753 698 l112 0 l-128 -732 l-137 0 l79 458 l-219 -263 l-76 0 l-144 293 l-85 -488 l-135 0 l127 732 l113 0 l181 -379 l312 379 Z" /><glyph glyph-name="N" unicode="N" d="M262 698 l267 -499 l86 499 l133 0 l-127 -732 l-116 0 l-267 501 l-86 -501 l-132 0 l127 732 l115 0 Z" /><glyph glyph-name="Nacute" unicode="&#x143;" d="M523 766 l-117 0 l120 150 l147 0 l-150 -150 ZM262 698 l267 -499 l86 499 l133 0 l-127 -732 l-116 0 l-267 501 l-86 -501 l-132 0 l127 732 l115 0 Z" /><glyph glyph-name="Ncaron" unicode="&#x147;" d="M419 916 l52 -76 l78 76 l125 0 l-159 -151 l-109 0 l-105 151 l118 0 ZM262 698 l267 -499 l86 499 l133 0 l-127 -732 l-116 0 l-267 501 l-86 -501 l-132 0 l127 732 l115 0 Z" /><glyph glyph-name="uni0145" unicode="&#x145;" d="M529 199 l86 499 l133 0 l-127 -732 l-116 0 l-267 501 l-86 -501 l-132 0 l127 732 l115 0 l267 -499 ZM302 -67 q37 0 58 -20 q21 -20 21 -56 q0 -8 -2 -24 q-10 -57 -54.5 -87.5 q-44.5 -30.5 -121.5 -34.5 l8 58 q66 10 83 42 q-35 0 -53 19.5 q-18 19.5 -13 48.5 q5 26 25.5 40 q20.5 14 48.5 14 Z" /><glyph glyph-name="Eng" unicode="&#x14a;" d="M612 -79 q-19 -111 -75.5 -160 q-56.5 -49 -134.5 -49 q-42 0 -75.5 13.5 q-33.5 13.5 -55.5 35.5 l64 94 q22 -22 58 -22 q38 0 60 27 q22 27 32 82 l8 47 l-255 478 l-86 -501 l-132 0 l127 732 l115 0 l267 -499 l86 499 l133 0 l-136 -777 Z" /><glyph glyph-name="Ntilde" unicode="Ñ" d="M269 778 q13 67 52 102.5 q39 35.5 94 35.5 q32 0 50.5 -11 q18.5 -11 34.5 -30 q12 -12 19 -17 q7 -5 17 -5 q31 0 45 50 l96 0 q-12 -67 -51.5 -102.5 q-39.5 -35.5 -95.5 -35.5 q-32 0 -50.5 11 q-18.5 11 -34.5 30 q-11 12 -18 17 q-7 5 -17 5 q-31 0 -46 -50 l-95 0 ZM262 698 l267 -499 l86 499 l133 0 l-127 -732 l-116 0 l-267 501 l-86 -501 l-132 0 l127 732 l115 0 Z" /><glyph glyph-name="O" unicode="O" d="M55 361 q19 109 76 188 q57 79 138 120.5 q81 41.5 173 41.5 q89 0 157.5 -40 q68.5 -40 106 -112 q37.5 -72 37.5 -166 q0 -38 -8 -86 q-18 -109 -75 -189 q-57 -80 -139 -122 q-82 -42 -173 -42 q-89 0 -157.5 40 q-68.5 40 -106 113 q-37.5 73 -37.5 168 q0 38 8 86 ZM204 343 q-6 -34 -6 -67 q0 -86 41.5 -137.5 q41.5 -51.5 117.5 -51.5 q55 0 102.5 28.5 q47.5 28.5 80.5 82.5 q33 54 46 128 q6 35 6 66 q0 85 -41 135.5 q-41 50.5 -117 50.5 q-55 0 -103 -28 q-48 -28 -81.5 -81 q-33.5 -53 -45.5 -126 Z" /><glyph glyph-name="Oacute" unicode="Ó" d="M534 766 l-117 0 l119 149 l148 0 l-150 -149 ZM55 361 q19 109 76 188 q57 79 138 120.5 q81 41.5 173 41.5 q89 0 157.5 -40 q68.5 -40 106 -112 q37.5 -72 37.5 -166 q0 -38 -8 -86 q-18 -109 -75 -189 q-57 -80 -139 -122 q-82 -42 -173 -42 q-89 0 -157.5 40 q-68.5 40 -106 113 q-37.5 73 -37.5 168 q0 38 8 86 ZM204 343 q-6 -34 -6 -67 q0 -86 41.5 -137.5 q41.5 -51.5 117.5 -51.5 q55 0 102.5 28.5 q47.5 28.5 80.5 82.5 q33 54 46 128 q6 35 6 66 q0 85 -41 135.5 q-41 50.5 -117 50.5 q-55 0 -103 -28 q-48 -28 -81.5 -81 q-33.5 -53 -45.5 -126 Z" /><glyph glyph-name="Obreve" unicode="&#x14e;" d="M482 764 q-77 0 -120 34 q-43 34 -43 91 q0 17 2 26 l109 0 q-2 -33 12 -52 q14 -19 46 -19 q59 0 77 71 l109 0 q-14 -76 -64.5 -113.5 q-50.5 -37.5 -127.5 -37.5 ZM55 361 q19 109 76 188 q57 79 138 120.5 q81 41.5 173 41.5 q89 0 157.5 -40 q68.5 -40 106 -112 q37.5 -72 37.5 -166 q0 -38 -8 -86 q-18 -109 -75 -189 q-57 -80 -139 -122 q-82 -42 -173 -42 q-89 0 -157.5 40 q-68.5 40 -106 113 q-37.5 73 -37.5 168 q0 38 8 86 ZM204 343 q-6 -34 -6 -67 q0 -86 41.5 -137.5 q41.5 -51.5 117.5 -51.5 q55 0 102.5 28.5 q47.5 28.5 80.5 82.5 q33 54 46 128 q6 35 6 66 q0 85 -41 135.5 q-41 50.5 -117 50.5 q-55 0 -103 -28 q-48 -28 -81.5 -81 q-33.5 -53 -45.5 -126 Z" /><glyph glyph-name="uni01D1" unicode="&#x1d1;" d="M429 915 l53 -76 l78 76 l125 0 l-159 -150 l-109 0 l-106 150 l118 0 ZM55 361 q19 109 76 188 q57 79 138 120.5 q81 41.5 173 41.5 q89 0 157.5 -40 q68.5 -40 106 -112 q37.5 -72 37.5 -166 q0 -38 -8 -86 q-18 -109 -75 -189 q-57 -80 -139 -122 q-82 -42 -173 -42 q-89 0 -157.5 40 q-68.5 40 -106 113 q-37.5 73 -37.5 168 q0 38 8 86 ZM204 343 q-6 -34 -6 -67 q0 -86 41.5 -137.5 q41.5 -51.5 117.5 -51.5 q55 0 102.5 28.5 q47.5 28.5 80.5 82.5 q33 54 46 128 q6 35 6 66 q0 85 -41 135.5 q-41 50.5 -117 50.5 q-55 0 -103 -28 q-48 -28 -81.5 -81 q-33.5 -53 -45.5 -126 Z" /><glyph glyph-name="Ocircumflex" unicode="Ô" d="M441 915 l108 0 l106 -150 l-119 0 l-51 76 l-79 -76 l-125 0 l160 150 ZM55 361 q19 109 76 188 q57 79 138 120.5 q81 41.5 173 41.5 q89 0 157.5 -40 q68.5 -40 106 -112 q37.5 -72 37.5 -166 q0 -38 -8 -86 q-18 -109 -75 -189 q-57 -80 -139 -122 q-82 -42 -173 -42 q-89 0 -157.5 40 q-68.5 40 -106 113 q-37.5 73 -37.5 168 q0 38 8 86 ZM204 343 q-6 -34 -6 -67 q0 -86 41.5 -137.5 q41.5 -51.5 117.5 -51.5 q55 0 102.5 28.5 q47.5 28.5 80.5 82.5 q33 54 46 128 q6 35 6 66 q0 85 -41 135.5 q-41 50.5 -117 50.5 q-55 0 -103 -28 q-48 -28 -81.5 -81 q-33.5 -53 -45.5 -126 Z" /><glyph glyph-name="uni1ED0" unicode="&#x1ed0;" d="M709 849 l-128 0 l109 88 l159 0 l-140 -88 ZM438 834 l108 0 l106 -89 l-126 0 l-44 39 l-67 -39 l-137 0 l160 89 ZM55 361 q19 109 76 188 q57 79 138 120.5 q81 41.5 173 41.5 q89 0 157.5 -40 q68.5 -40 106 -112 q37.5 -72 37.5 -166 q0 -38 -8 -86 q-18 -109 -75 -189 q-57 -80 -139 -122 q-82 -42 -173 -42 q-89 0 -157.5 40 q-68.5 40 -106 113 q-37.5 73 -37.5 168 q0 38 8 86 ZM204 343 q-6 -34 -6 -67 q0 -86 41.5 -137.5 q41.5 -51.5 117.5 -51.5 q55 0 102.5 28.5 q47.5 28.5 80.5 82.5 q33 54 46 128 q6 35 6 66 q0 85 -41 135.5 q-41 50.5 -117 50.5 q-55 0 -103 -28 q-48 -28 -81.5 -81 q-33.5 -53 -45.5 -126 Z" /><glyph glyph-name="uni1ED8" unicode="&#x1ed8;" d="M441 915 l108 0 l106 -150 l-119 0 l-51 76 l-79 -76 l-125 0 l160 150 ZM55 361 q19 109 76 188 q57 79 138 120.5 q81 41.5 173 41.5 q89 0 157.5 -40 q68.5 -40 106 -112 q37.5 -72 37.5 -166 q0 -38 -8 -86 q-18 -109 -75 -189 q-57 -80 -139 -122 q-82 -42 -173 -42 q-89 0 -157.5 40 q-68.5 40 -106 113 q-37.5 73 -37.5 168 q0 38 8 86 ZM204 343 q-6 -34 -6 -67 q0 -86 41.5 -137.5 q41.5 -51.5 117.5 -51.5 q55 0 102.5 28.5 q47.5 28.5 80.5 82.5 q33 54 46 128 q6 35 6 66 q0 85 -41 135.5 q-41 50.5 -117 50.5 q-55 0 -103 -28 q-48 -28 -81.5 -81 q-33.5 -53 -45.5 -126 ZM306 -262 q-34 0 -58 25 q-24 25 -24 60 q0 35 24 59.5 q24 24.5 58 24.5 q34 0 58.5 -25 q24.5 -25 24.5 -59 q0 -35 -24.5 -60 q-24.5 -25 -58.5 -25 Z" /><glyph glyph-name="uni1ED2" unicode="&#x1ed2;" d="M575 849 l-97 88 l140 0 l67 -88 l-110 0 ZM438 834 l108 0 l106 -89 l-126 0 l-44 39 l-67 -39 l-137 0 l160 89 ZM55 361 q19 109 76 188 q57 79 138 120.5 q81 41.5 173 41.5 q89 0 157.5 -40 q68.5 -40 106 -112 q37.5 -72 37.5 -166 q0 -38 -8 -86 q-18 -109 -75 -189 q-57 -80 -139 -122 q-82 -42 -173 -42 q-89 0 -157.5 40 q-68.5 40 -106 113 q-37.5 73 -37.5 168 q0 38 8 86 ZM204 343 q-6 -34 -6 -67 q0 -86 41.5 -137.5 q41.5 -51.5 117.5 -51.5 q55 0 102.5 28.5 q47.5 28.5 80.5 82.5 q33 54 46 128 q6 35 6 66 q0 85 -41 135.5 q-41 50.5 -117 50.5 q-55 0 -103 -28 q-48 -28 -81.5 -81 q-33.5 -53 -45.5 -126 Z" /><glyph glyph-name="uni1ED4" unicode="&#x1ed4;" d="M523 931 q45 14 99 14 q53 0 86.5 -14 q33.5 -14 33.5 -39 q0 -28 -34 -43 q-34 -15 -99 -25 l-44 39 q45 6 63 10 q18 4 18 11 q0 9 -33 9 q-38 0 -78 -10 l-12 48 ZM438 834 l108 0 l106 -89 l-126 0 l-44 39 l-67 -39 l-137 0 l160 89 ZM55 361 q19 109 76 188 q57 79 138 120.5 q81 41.5 173 41.5 q89 0 157.5 -40 q68.5 -40 106 -112 q37.5 -72 37.5 -166 q0 -38 -8 -86 q-18 -109 -75 -189 q-57 -80 -139 -122 q-82 -42 -173 -42 q-89 0 -157.5 40 q-68.5 40 -106 113 q-37.5 73 -37.5 168 q0 38 8 86 ZM204 343 q-6 -34 -6 -67 q0 -86 41.5 -137.5 q41.5 -51.5 117.5 -51.5 q55 0 102.5 28.5 q47.5 28.5 80.5 82.5 q33 54 46 128 q6 35 6 66 q0 85 -41 135.5 q-41 50.5 -117 50.5 q-55 0 -103 -28 q-48 -28 -81.5 -81 q-33.5 -53 -45.5 -126 Z" /><glyph glyph-name="uni1ED6" unicode="&#x1ed6;" d="M310 855 q14 40 52 61 q38 21 93 21 q31 0 49 -5 q18 -5 37 -14 q8 -5 17 -8 q9 -3 19 -3 q32 0 46 22 l95 0 q-13 -39 -51 -60 q-38 -21 -93 -21 q-31 0 -49 5 q-18 5 -37 14 q-9 5 -18 8 q-9 3 -19 3 q-30 0 -45 -23 l-96 0 ZM438 834 l108 0 l106 -89 l-126 0 l-44 39 l-67 -39 l-137 0 l160 89 ZM55 361 q19 109 76 188 q57 79 138 120.5 q81 41.5 173 41.5 q89 0 157.5 -40 q68.5 -40 106 -112 q37.5 -72 37.5 -166 q0 -38 -8 -86 q-18 -109 -75 -189 q-57 -80 -139 -122 q-82 -42 -173 -42 q-89 0 -157.5 40 q-68.5 40 -106 113 q-37.5 73 -37.5 168 q0 38 8 86 ZM204 343 q-6 -34 -6 -67 q0 -86 41.5 -137.5 q41.5 -51.5 117.5 -51.5 q55 0 102.5 28.5 q47.5 28.5 80.5 82.5 q33 54 46 128 q6 35 6 66 q0 85 -41 135.5 q-41 50.5 -117 50.5 q-55 0 -103 -28 q-48 -28 -81.5 -81 q-33.5 -53 -45.5 -126 Z" /><glyph glyph-name="Odieresis" unicode="Ö" d="M371 767 q-30 0 -51.5 23 q-21.5 23 -21.5 54 q0 32 21.5 54.5 q21.5 22.5 51.5 22.5 q32 0 54 -22.5 q22 -22.5 22 -54.5 q0 -31 -22 -54 q-22 -23 -54 -23 ZM596 767 q-31 0 -52.5 23 q-21.5 23 -21.5 54 q0 32 21.5 54.5 q21.5 22.5 52.5 22.5 q31 0 53 -22.5 q22 -22.5 22 -54.5 q0 -31 -22 -54 q-22 -23 -53 -23 ZM55 361 q19 109 76 188 q57 79 138 120.5 q81 41.5 173 41.5 q89 0 157.5 -40 q68.5 -40 106 -112 q37.5 -72 37.5 -166 q0 -38 -8 -86 q-18 -109 -75 -189 q-57 -80 -139 -122 q-82 -42 -173 -42 q-89 0 -157.5 40 q-68.5 40 -106 113 q-37.5 73 -37.5 168 q0 38 8 86 ZM204 343 q-6 -34 -6 -67 q0 -86 41.5 -137.5 q41.5 -51.5 117.5 -51.5 q55 0 102.5 28.5 q47.5 28.5 80.5 82.5 q33 54 46 128 q6 35 6 66 q0 85 -41 135.5 q-41 50.5 -117 50.5 q-55 0 -103 -28 q-48 -28 -81.5 -81 q-33.5 -53 -45.5 -126 Z" /><glyph glyph-name="uni1ECC" unicode="&#x1ecc;" d="M55 361 q19 109 76 188 q57 79 138 120.5 q81 41.5 173 41.5 q89 0 157.5 -40 q68.5 -40 106 -112 q37.5 -72 37.5 -166 q0 -38 -8 -86 q-18 -109 -75 -189 q-57 -80 -139 -122 q-82 -42 -173 -42 q-89 0 -157.5 40 q-68.5 40 -106 113 q-37.5 73 -37.5 168 q0 38 8 86 ZM204 343 q-6 -34 -6 -67 q0 -86 41.5 -137.5 q41.5 -51.5 117.5 -51.5 q55 0 102.5 28.5 q47.5 28.5 80.5 82.5 q33 54 46 128 q6 35 6 66 q0 85 -41 135.5 q-41 50.5 -117 50.5 q-55 0 -103 -28 q-48 -28 -81.5 -81 q-33.5 -53 -45.5 -126 ZM306 -262 q-34 0 -58 25 q-24 25 -24 60 q0 35 24 59.5 q24 24.5 58 24.5 q34 0 58.5 -25 q24.5 -25 24.5 -59 q0 -35 -24.5 -60 q-24.5 -25 -58.5 -25 Z" /><glyph glyph-name="Ograve" unicode="Ò" d="M410 766 l-97 149 l141 0 l66 -149 l-110 0 ZM55 361 q19 109 76 188 q57 79 138 120.5 q81 41.5 173 41.5 q89 0 157.5 -40 q68.5 -40 106 -112 q37.5 -72 37.5 -166 q0 -38 -8 -86 q-18 -109 -75 -189 q-57 -80 -139 -122 q-82 -42 -173 -42 q-89 0 -157.5 40 q-68.5 40 -106 113 q-37.5 73 -37.5 168 q0 38 8 86 ZM204 343 q-6 -34 -6 -67 q0 -86 41.5 -137.5 q41.5 -51.5 117.5 -51.5 q55 0 102.5 28.5 q47.5 28.5 80.5 82.5 q33 54 46 128 q6 35 6 66 q0 85 -41 135.5 q-41 50.5 -117 50.5 q-55 0 -103 -28 q-48 -28 -81.5 -81 q-33.5 -53 -45.5 -126 Z" /><glyph glyph-name="uni1ECE" unicode="&#x1ece;" d="M376 918 q41 23 99 23 q53 0 86.5 -23.5 q33.5 -23.5 33.5 -64.5 q0 -48 -34 -73.5 q-34 -25.5 -99 -42.5 l-46 63 q39 9 59 19 q20 10 20 27 q0 9 -8.5 15 q-8.5 6 -24.5 6 q-33 0 -74 -22 l-12 73 ZM55 361 q19 109 76 188 q57 79 138 120.5 q81 41.5 173 41.5 q89 0 157.5 -40 q68.5 -40 106 -112 q37.5 -72 37.5 -166 q0 -38 -8 -86 q-18 -109 -75 -189 q-57 -80 -139 -122 q-82 -42 -173 -42 q-89 0 -157.5 40 q-68.5 40 -106 113 q-37.5 73 -37.5 168 q0 38 8 86 ZM204 343 q-6 -34 -6 -67 q0 -86 41.5 -137.5 q41.5 -51.5 117.5 -51.5 q55 0 102.5 28.5 q47.5 28.5 80.5 82.5 q33 54 46 128 q6 35 6 66 q0 85 -41 135.5 q-41 50.5 -117 50.5 q-55 0 -103 -28 q-48 -28 -81.5 -81 q-33.5 -53 -45.5 -126 Z" /><glyph glyph-name="Ohorn" unicode="&#x1a0;" d="M846 825 q1 -14 1 -40 q0 -65 -17.5 -103 q-17.5 -38 -57 -56 q-39.5 -18 -108.5 -20 q38 -39 58.5 -93.5 q20.5 -54.5 20.5 -120.5 q0 -37 -8 -85 q-18 -109 -75 -189 q-57 -80 -139 -122 q-82 -42 -173 -42 q-89 0 -157.5 40 q-68.5 40 -106 113 q-37.5 73 -37.5 168 q0 38 8 86 q19 109 77 188.5 q58 79.5 143 120.5 q85 41 185 41 q39 0 90 -7 q56 -6 85 -6 q56 0 78 24.5 q22 24.5 22 75.5 q0 18 -1 27 l112 0 ZM586 326 q6 35 6 66 q0 85 -41 135.5 q-41 50.5 -117 50.5 q-55 0 -103 -28 q-48 -28 -81.5 -81 q-33.5 -53 -45.5 -126 q-6 -34 -6 -67 q0 -86 41.5 -137.5 q41.5 -51.5 117.5 -51.5 q55 0 102.5 28.5 q47.5 28.5 80.5 82.5 q33 54 46 128 Z" /><glyph glyph-name="uni1EDA" unicode="&#x1eda;" d="M537 915 l147 0 l-150 -149 l-117 0 l120 149 ZM846 825 q1 -14 1 -40 q0 -65 -17.5 -103 q-17.5 -38 -57 -56 q-39.5 -18 -108.5 -20 q38 -39 58.5 -93.5 q20.5 -54.5 20.5 -120.5 q0 -37 -8 -85 q-18 -109 -75 -189 q-57 -80 -139 -122 q-82 -42 -173 -42 q-89 0 -157.5 40 q-68.5 40 -106 113 q-37.5 73 -37.5 168 q0 38 8 86 q19 109 77 188.5 q58 79.5 143 120.5 q85 41 185 41 q39 0 90 -7 q56 -6 85 -6 q56 0 78 24.5 q22 24.5 22 75.5 q0 18 -1 27 l112 0 ZM586 326 q6 35 6 66 q0 85 -41 135.5 q-41 50.5 -117 50.5 q-55 0 -103 -28 q-48 -28 -81.5 -81 q-33.5 -53 -45.5 -126 q-6 -34 -6 -67 q0 -86 41.5 -137.5 q41.5 -51.5 117.5 -51.5 q55 0 102.5 28.5 q47.5 28.5 80.5 82.5 q33 54 46 128 Z" /><glyph glyph-name="uni1EE2" unicode="&#x1ee2;" d="M846 825 q1 -14 1 -40 q0 -65 -17.5 -103 q-17.5 -38 -57 -56 q-39.5 -18 -108.5 -20 q38 -39 58.5 -93.5 q20.5 -54.5 20.5 -120.5 q0 -37 -8 -85 q-18 -109 -75 -189 q-57 -80 -139 -122 q-82 -42 -173 -42 q-89 0 -157.5 40 q-68.5 40 -106 113 q-37.5 73 -37.5 168 q0 38 8 86 q19 109 77 188.5 q58 79.5 143 120.5 q85 41 185 41 q39 0 90 -7 q56 -6 85 -6 q56 0 78 24.5 q22 24.5 22 75.5 q0 18 -1 27 l112 0 ZM586 326 q6 35 6 66 q0 85 -41 135.5 q-41 50.5 -117 50.5 q-55 0 -103 -28 q-48 -28 -81.5 -81 q-33.5 -53 -45.5 -126 q-6 -34 -6 -67 q0 -86 41.5 -137.5 q41.5 -51.5 117.5 -51.5 q55 0 102.5 28.5 q47.5 28.5 80.5 82.5 q33 54 46 128 ZM305 -93 q34 0 58.5 -25 q24.5 -25 24.5 -59 q0 -35 -24.5 -60 q-24.5 -25 -58.5 -25 q-34 0 -58.5 25 q-24.5 25 -24.5 60 q0 35 24.5 59.5 q24.5 24.5 58.5 24.5 Z" /><glyph glyph-name="uni1EDC" unicode="&#x1edc;" d="M454 915 l67 -149 l-111 0 l-96 149 l140 0 ZM846 825 q1 -14 1 -40 q0 -65 -17.5 -103 q-17.5 -38 -57 -56 q-39.5 -18 -108.5 -20 q38 -39 58.5 -93.5 q20.5 -54.5 20.5 -120.5 q0 -37 -8 -85 q-18 -109 -75 -189 q-57 -80 -139 -122 q-82 -42 -173 -42 q-89 0 -157.5 40 q-68.5 40 -106 113 q-37.5 73 -37.5 168 q0 38 8 86 q19 109 77 188.5 q58 79.5 143 120.5 q85 41 185 41 q39 0 90 -7 q56 -6 85 -6 q56 0 78 24.5 q22 24.5 22 75.5 q0 18 -1 27 l112 0 ZM586 326 q6 35 6 66 q0 85 -41 135.5 q-41 50.5 -117 50.5 q-55 0 -103 -28 q-48 -28 -81.5 -81 q-33.5 -53 -45.5 -126 q-6 -34 -6 -67 q0 -86 41.5 -137.5 q41.5 -51.5 117.5 -51.5 q55 0 102.5 28.5 q47.5 28.5 80.5 82.5 q33 54 46 128 Z" /><glyph glyph-name="uni1EDE" unicode="&#x1ede;" d="M463 867 q-33 0 -75 -22 l-12 73 q41 23 100 23 q53 0 86.5 -23.5 q33.5 -23.5 33.5 -64.5 q0 -47 -34.5 -72.5 q-34.5 -25.5 -98.5 -43.5 l-46 63 q38 9 58 19 q20 10 20 27 q0 9 -8 15 q-8 6 -24 6 ZM846 825 q1 -14 1 -40 q0 -65 -17.5 -103 q-17.5 -38 -57 -56 q-39.5 -18 -108.5 -20 q38 -39 58.5 -93.5 q20.5 -54.5 20.5 -120.5 q0 -37 -8 -85 q-18 -109 -75 -189 q-57 -80 -139 -122 q-82 -42 -173 -42 q-89 0 -157.5 40 q-68.5 40 -106 113 q-37.5 73 -37.5 168 q0 38 8 86 q19 109 77 188.5 q58 79.5 143 120.5 q85 41 185 41 q39 0 90 -7 q56 -6 85 -6 q56 0 78 24.5 q22 24.5 22 75.5 q0 18 -1 27 l112 0 ZM586 326 q6 35 6 66 q0 85 -41 135.5 q-41 50.5 -117 50.5 q-55 0 -103 -28 q-48 -28 -81.5 -81 q-33.5 -53 -45.5 -126 q-6 -34 -6 -67 q0 -86 41.5 -137.5 q41.5 -51.5 117.5 -51.5 q55 0 102.5 28.5 q47.5 28.5 80.5 82.5 q33 54 46 128 Z" /><glyph glyph-name="uni1EE0" unicode="&#x1ee0;" d="M421 827 q-31 0 -46 -49 l-95 0 q13 66 52 102 q39 36 94 36 q32 0 50.5 -11 q18.5 -11 34.5 -30 q12 -12 19 -17 q7 -5 17 -5 q31 0 45 50 l96 0 q-13 -67 -52 -103 q-39 -36 -95 -36 q-32 0 -50.5 11 q-18.5 11 -34.5 30 q-11 12 -18 17 q-7 5 -17 5 ZM846 825 q1 -14 1 -40 q0 -65 -17.5 -103 q-17.5 -38 -57 -56 q-39.5 -18 -108.5 -20 q38 -39 58.5 -93.5 q20.5 -54.5 20.5 -120.5 q0 -37 -8 -85 q-18 -109 -75 -189 q-57 -80 -139 -122 q-82 -42 -173 -42 q-89 0 -157.5 40 q-68.5 40 -106 113 q-37.5 73 -37.5 168 q0 38 8 86 q19 109 77 188.5 q58 79.5 143 120.5 q85 41 185 41 q39 0 90 -7 q56 -6 85 -6 q56 0 78 24.5 q22 24.5 22 75.5 q0 18 -1 27 l112 0 ZM586 326 q6 35 6 66 q0 85 -41 135.5 q-41 50.5 -117 50.5 q-55 0 -103 -28 q-48 -28 -81.5 -81 q-33.5 -53 -45.5 -126 q-6 -34 -6 -67 q0 -86 41.5 -137.5 q41.5 -51.5 117.5 -51.5 q55 0 102.5 28.5 q47.5 28.5 80.5 82.5 q33 54 46 128 Z" /><glyph glyph-name="Ohungarumlaut" unicode="&#x150;" d="M431 765 l-103 0 l116 150 l135 0 l-148 -150 ZM609 765 l-103 0 l116 150 l135 0 l-148 -150 ZM55 361 q19 109 76 188 q57 79 138 120.5 q81 41.5 173 41.5 q89 0 157.5 -40 q68.5 -40 106 -112 q37.5 -72 37.5 -166 q0 -38 -8 -86 q-18 -109 -75 -189 q-57 -80 -139 -122 q-82 -42 -173 -42 q-89 0 -157.5 40 q-68.5 40 -106 113 q-37.5 73 -37.5 168 q0 38 8 86 ZM204 343 q-6 -34 -6 -67 q0 -86 41.5 -137.5 q41.5 -51.5 117.5 -51.5 q55 0 102.5 28.5 q47.5 28.5 80.5 82.5 q33 54 46 128 q6 35 6 66 q0 85 -41 135.5 q-41 50.5 -117 50.5 q-55 0 -103 -28 q-48 -28 -81.5 -81 q-33.5 -53 -45.5 -126 Z" /><glyph glyph-name="Omacron" unicode="&#x14c;" d="M646 797 l-342 0 l17 95 l342 0 l-17 -95 ZM55 361 q19 109 76 188 q57 79 138 120.5 q81 41.5 173 41.5 q89 0 157.5 -40 q68.5 -40 106 -112 q37.5 -72 37.5 -166 q0 -38 -8 -86 q-18 -109 -75 -189 q-57 -80 -139 -122 q-82 -42 -173 -42 q-89 0 -157.5 40 q-68.5 40 -106 113 q-37.5 73 -37.5 168 q0 38 8 86 ZM204 343 q-6 -34 -6 -67 q0 -86 41.5 -137.5 q41.5 -51.5 117.5 -51.5 q55 0 102.5 28.5 q47.5 28.5 80.5 82.5 q33 54 46 128 q6 35 6 66 q0 85 -41 135.5 q-41 50.5 -117 50.5 q-55 0 -103 -28 q-48 -28 -81.5 -81 q-33.5 -53 -45.5 -126 Z" /><glyph glyph-name="Oslash" unicode="Ø" d="M595 734 l146 0 l-93 -136 q44 -50 68.5 -117.5 q24.5 -67.5 24.5 -147.5 q0 -113 -46.5 -199 q-46.5 -86 -126.5 -133 q-80 -47 -177 -47 q-87 0 -161 40 l-43 -63 l-146 0 l93 136 q-44 50 -68 117.5 q-24 67.5 -24 148.5 q0 112 46.5 198 q46.5 86 126 133 q79.5 47 176.5 47 q88 0 160 -40 l44 63 ZM190 333 q0 -82 31 -139 l252 363 q-34 21 -82 21 q-60 0 -105.5 -30.5 q-45.5 -30.5 -70.5 -86 q-25 -55.5 -25 -128.5 ZM591 333 q0 81 -30 138 l-253 -363 q38 -21 83 -21 q60 0 105 30.5 q45 30.5 70 86.5 q25 56 25 129 Z" /><glyph glyph-name="Oslashacute" unicode="&#x1fe;" d="M467 766 l-117 0 l119 149 l148 0 l-150 -149 ZM595 734 l146 0 l-93 -136 q44 -50 68.5 -117.5 q24.5 -67.5 24.5 -147.5 q0 -113 -46.5 -199 q-46.5 -86 -126.5 -133 q-80 -47 -177 -47 q-87 0 -161 40 l-43 -63 l-146 0 l93 136 q-44 50 -68 117.5 q-24 67.5 -24 148.5 q0 112 46.5 198 q46.5 86 126 133 q79.5 47 176.5 47 q88 0 160 -40 l44 63 ZM190 333 q0 -82 31 -139 l252 363 q-34 21 -82 21 q-60 0 -105.5 -30.5 q-45.5 -30.5 -70.5 -86 q-25 -55.5 -25 -128.5 ZM591 333 q0 81 -30 138 l-253 -363 q38 -21 83 -21 q60 0 105 30.5 q45 30.5 70 86.5 q25 56 25 129 Z" /><glyph glyph-name="Otilde" unicode="Õ" d="M280 778 q13 66 52 102 q39 36 94 36 q32 0 49.5 -10.5 q17.5 -10.5 35.5 -29.5 q10 -12 18 -17.5 q8 -5.5 18 -5.5 q31 0 45 50 l95 0 q-12 -67 -51.5 -103 q-39.5 -36 -94.5 -36 q-32 0 -49.5 10.5 q-17.5 10.5 -35.5 29.5 q-10 12 -18 17.5 q-8 5.5 -18 5.5 q-30 0 -45 -49 l-95 0 ZM55 361 q19 109 76 188 q57 79 138 120.5 q81 41.5 173 41.5 q89 0 157.5 -40 q68.5 -40 106 -112 q37.5 -72 37.5 -166 q0 -38 -8 -86 q-18 -109 -75 -189 q-57 -80 -139 -122 q-82 -42 -173 -42 q-89 0 -157.5 40 q-68.5 40 -106 113 q-37.5 73 -37.5 168 q0 38 8 86 ZM204 343 q-6 -34 -6 -67 q0 -86 41.5 -137.5 q41.5 -51.5 117.5 -51.5 q55 0 102.5 28.5 q47.5 28.5 80.5 82.5 q33 54 46 128 q6 35 6 66 q0 85 -41 135.5 q-41 50.5 -117 50.5 q-55 0 -103 -28 q-48 -28 -81.5 -81 q-33.5 -53 -45.5 -126 Z" /><glyph glyph-name="OE" unicode="&#x152;" d="M1130 698 l-22 -126 l-329 0 l-30 -172 l295 0 l-22 -125 l-295 0 l-32 -182 l341 0 l-23 -127 l-484 0 l11 64 q-84 -76 -199 -76 q-86 0 -153 40 q-67 40 -104 113 q-37 73 -37 168 q0 38 8 86 q19 109 75.5 188 q56.5 79 137 120.5 q80.5 41.5 172.5 41.5 q69 0 120 -25.5 q51 -25.5 83 -72.5 l14 85 l473 0 ZM357 87 q55 0 102.5 28.5 q47.5 28.5 80.5 82.5 q33 54 46 128 q6 35 6 66 q0 85 -41 135.5 q-41 50.5 -117 50.5 q-55 0 -103 -28 q-48 -28 -81.5 -81 q-33.5 -53 -45.5 -126 q-6 -34 -6 -67 q0 -86 41.5 -137.5 q41.5 -51.5 117.5 -51.5 Z" /><glyph glyph-name="P" unicode="P" d="M385 698 q79 0 137 -27.5 q58 -27.5 88 -76.5 q30 -49 30 -112 q0 -22 -5 -50 q-18 -105 -98 -160.5 q-80 -55.5 -208 -55.5 l-122 0 l-44 -250 l-143 0 l127 732 l238 0 ZM486 452 q2 18 2 25 q0 48 -35 73 q-35 25 -97 25 l-87 0 l-41 -236 l98 0 q60 0 104.5 26 q44.5 26 55.5 87 Z" /><glyph glyph-name="Thorn" unicode="Þ" d="M370 574 q79 0 136.5 -27.5 q57.5 -27.5 87.5 -76.5 q30 -49 30 -112 q0 -22 -5 -50 q-18 -105 -98 -160.5 q-80 -55.5 -208 -55.5 l-128 0 l-21 -126 l-146 0 l129 732 l146 0 l-22 -124 l99 0 ZM470 328 q2 9 2 25 q0 49 -34.5 73.5 q-34.5 24.5 -97.5 24.5 l-91 0 l-42 -236 l103 0 q60 0 104.5 26 q44.5 26 55.5 87 Z" /><glyph glyph-name="Q" unicode="Q" d="M735 307 q-18 -106 -73 -184.5 q-55 -78.5 -134 -122.5 l195 -201 l-189 0 l-156 156 q-10 -1 -30 -1 q-89 0 -157.5 40 q-68.5 40 -106 113 q-37.5 73 -37.5 168 q0 38 8 86 q19 109 76 188 q57 79 138 120.5 q81 41.5 173 41.5 q89 0 157.5 -40 q68.5 -40 106 -112 q37.5 -72 37.5 -166 q0 -38 -8 -86 ZM357 87 q55 0 102.5 28.5 q47.5 28.5 80.5 82.5 q33 54 46 128 q6 35 6 66 q0 85 -41 135.5 q-41 50.5 -117 50.5 q-55 0 -103 -28 q-48 -28 -81.5 -81 q-33.5 -53 -45.5 -126 q-6 -34 -6 -67 q0 -86 41.5 -137.5 q41.5 -51.5 117.5 -51.5 Z" /><glyph glyph-name="R" unicode="R" d="M636 444 q-12 -69 -54.5 -117.5 q-42.5 -48.5 -109.5 -73.5 l148 -287 l-161 1 l-130 263 l-120 0 l-46 -264 l-143 0 l127 732 l236 0 q80 0 138 -27 q58 -27 88.5 -74.5 q30.5 -47.5 30.5 -108.5 q0 -24 -4 -44 ZM486 459 q2 16 2 22 q0 48 -37 71 q-37 23 -95 23 l-87 0 l-38 -222 l99 0 q59 0 102.5 24.5 q43.5 24.5 53.5 81.5 Z" /><glyph glyph-name="Racute" unicode="&#x154;" d="M433 916 l148 0 l-151 -149 l-117 0 l120 149 ZM636 444 q-12 -69 -54.5 -117.5 q-42.5 -48.5 -109.5 -73.5 l148 -287 l-161 1 l-130 263 l-120 0 l-46 -264 l-143 0 l127 732 l236 0 q80 0 138 -27 q58 -27 88.5 -74.5 q30.5 -47.5 30.5 -108.5 q0 -24 -4 -44 ZM486 459 q2 16 2 22 q0 48 -37 71 q-37 23 -95 23 l-87 0 l-38 -222 l99 0 q59 0 102.5 24.5 q43.5 24.5 53.5 81.5 Z" /><glyph glyph-name="Rcaron" unicode="&#x158;" d="M581 916 l-159 -150 l-108 0 l-106 150 l118 0 l52 -76 l78 76 l125 0 ZM636 444 q-12 -69 -54.5 -117.5 q-42.5 -48.5 -109.5 -73.5 l148 -287 l-161 1 l-130 263 l-120 0 l-46 -264 l-143 0 l127 732 l236 0 q80 0 138 -27 q58 -27 88.5 -74.5 q30.5 -47.5 30.5 -108.5 q0 -24 -4 -44 ZM486 459 q2 16 2 22 q0 48 -37 71 q-37 23 -95 23 l-87 0 l-38 -222 l99 0 q59 0 102.5 24.5 q43.5 24.5 53.5 81.5 Z" /><glyph glyph-name="uni0156" unicode="&#x156;" d="M636 444 q-12 -69 -54.5 -117.5 q-42.5 -48.5 -109.5 -73.5 l148 -287 l-161 1 l-130 263 l-120 0 l-46 -264 l-143 0 l127 732 l236 0 q80 0 138 -27 q58 -27 88.5 -74.5 q30.5 -47.5 30.5 -108.5 q0 -24 -4 -44 ZM486 459 q2 16 2 22 q0 48 -37 71 q-37 23 -95 23 l-87 0 l-38 -222 l99 0 q59 0 102.5 24.5 q43.5 24.5 53.5 81.5 ZM293 -67 q36 0 57.5 -20.5 q21.5 -20.5 21.5 -56.5 q0 -7 -2 -23 q-10 -57 -55 -87.5 q-45 -30.5 -122 -34.5 l9 58 q66 10 82 42 q-31 0 -48.5 15.5 q-17.5 15.5 -17.5 40.5 q0 32 21.5 49 q21.5 17 53.5 17 Z" /><glyph glyph-name="S" unicode="S" d="M543 149 q-17 -90 -83 -141 q-37 -27 -84 -40.5 q-47 -13.5 -97 -13.5 q-76 0 -138.5 27.5 q-62.5 27.5 -102.5 77 q-40 49.5 -49 113.5 l126 57 q13 -65 58 -104.5 q45 -39.5 112 -39.5 q46 0 74.5 19.5 q28.5 19.5 34.5 54.5 q1 5 1 14 q0 37 -32 59 q-32 22 -99 49 q-61 25 -99 46.5 q-38 21.5 -65 58.5 q-27 37 -27 91 q0 22 4 41 q21 108 109 156 q64 37 155 37 q70 0 125.5 -25 q55.5 -25 88 -67.5 q32.5 -42.5 38.5 -93.5 l-126 -57 q-9 48 -45 80.5 q-36 32.5 -92 32.5 q-46 0 -75.5 -21 q-29.5 -21 -29.5 -61 q0 -34 30.5 -55.5 q30.5 -21.5 95.5 -48.5 q62 -26 101 -48.5 q39 -22.5 67 -60.5 q28 -38 28 -95 q0 -22 -4 -42 Z" /><glyph glyph-name="Sacute" unicode="&#x15a;" d="M437 766 l-117 0 l119 150 l148 0 l-150 -150 ZM543 149 q-17 -90 -83 -141 q-37 -27 -84 -40.5 q-47 -13.5 -97 -13.5 q-76 0 -138.5 27.5 q-62.5 27.5 -102.5 77 q-40 49.5 -49 113.5 l126 57 q13 -65 58 -104.5 q45 -39.5 112 -39.5 q46 0 74.5 19 q28.5 19 34.5 54 q1 4 1 13 q0 26 -17 45 q-17 19 -42 32.5 q-25 13.5 -71 33.5 q-60 26 -98.5 48 q-38.5 22 -65.5 59 q-27 37 -27 91 q0 21 4 40 q19 106 108 154 q64 37 155 37 q70 0 125.5 -25 q55.5 -25 88 -67.5 q32.5 -42.5 38.5 -93.5 l-126 -57 q-9 48 -45 80.5 q-36 32.5 -92 32.5 q-46 0 -75.5 -21 q-29.5 -21 -29.5 -59 q0 -33 30 -54.5 q30 -21.5 96 -49.5 q62 -27 101 -50 q39 -23 67 -61.5 q28 -38.5 28 -94.5 q0 -22 -4 -42 Z" /><glyph glyph-name="Scaron" unicode="&#x160;" d="M332 916 l53 -76 l78 76 l125 0 l-159 -151 l-109 0 l-106 151 l118 0 ZM543 149 q-17 -90 -83 -141 q-37 -27 -84 -40.5 q-47 -13.5 -97 -13.5 q-76 0 -138.5 27.5 q-62.5 27.5 -102.5 77 q-40 49.5 -49 113.5 l126 57 q13 -65 58 -104.5 q45 -39.5 112 -39.5 q46 0 74.5 19 q28.5 19 34.5 54 q1 4 1 13 q0 26 -17 45 q-17 19 -42 32.5 q-25 13.5 -71 33.5 q-60 26 -98.5 48 q-38.5 22 -65.5 59 q-27 37 -27 91 q0 21 4 40 q19 106 108 154 q64 37 155 37 q70 0 125.5 -25 q55.5 -25 88 -67.5 q32.5 -42.5 38.5 -93.5 l-126 -57 q-9 48 -45 80.5 q-36 32.5 -92 32.5 q-46 0 -75.5 -21 q-29.5 -21 -29.5 -59 q0 -33 30 -54.5 q30 -21.5 96 -49.5 q62 -27 101 -50 q39 -23 67 -61.5 q28 -38.5 28 -94.5 q0 -22 -4 -42 Z" /><glyph glyph-name="Scedilla" unicode="&#x15e;" d="M225 501 q0 -33 30 -54.5 q30 -21.5 96 -49.5 q62 -27 101 -50 q39 -23 67 -61.5 q28 -38.5 28 -94.5 q0 -22 -4 -42 q-17 -90 -83 -141 q-68 -52 -175 -54 l-4 0 l-28 -48 q42 -5 67.5 -28 q25.5 -23 25.5 -60 q0 -59 -44.5 -82.5 q-44.5 -23.5 -106.5 -23.5 q-48 0 -87 14 l4 71 q30 -11 74 -11 q64 0 64 29 q0 11 -12 17 q-12 6 -34 6 q-18 0 -55 -7 l-6 50 l49 83 q-83 20 -137.5 75 q-54.5 55 -65.5 133 l126 57 q13 -65 58 -104.5 q45 -39.5 112 -39.5 q46 0 74.5 19 q28.5 19 34.5 54 q1 4 1 13 q0 26 -17 45 q-17 19 -42 32.5 q-25 13.5 -71 33.5 q-60 26 -98.5 48 q-38.5 22 -65.5 59 q-27 37 -27 91 q0 21 4 40 q19 106 108 154 q64 37 155 37 q70 0 125.5 -25 q55.5 -25 88 -67.5 q32.5 -42.5 38.5 -93.5 l-126 -57 q-9 48 -45 80.5 q-36 32.5 -92 32.5 q-46 0 -75.5 -21 q-29.5 -21 -29.5 -59 Z" /><glyph glyph-name="Scircumflex" unicode="&#x15c;" d="M344 916 l108 0 l106 -151 l-119 0 l-51 76 l-79 -76 l-125 0 l160 151 ZM543 149 q-17 -90 -83 -141 q-37 -27 -84 -40.5 q-47 -13.5 -97 -13.5 q-76 0 -138.5 27.5 q-62.5 27.5 -102.5 77 q-40 49.5 -49 113.5 l126 57 q13 -65 58 -104.5 q45 -39.5 112 -39.5 q46 0 74.5 19 q28.5 19 34.5 54 q1 4 1 13 q0 26 -17 45 q-17 19 -42 32.5 q-25 13.5 -71 33.5 q-60 26 -98.5 48 q-38.5 22 -65.5 59 q-27 37 -27 91 q0 21 4 40 q19 106 108 154 q64 37 155 37 q70 0 125.5 -25 q55.5 -25 88 -67.5 q32.5 -42.5 38.5 -93.5 l-126 -57 q-9 48 -45 80.5 q-36 32.5 -92 32.5 q-46 0 -75.5 -21 q-29.5 -21 -29.5 -59 q0 -33 30 -54.5 q30 -21.5 96 -49.5 q62 -27 101 -50 q39 -23 67 -61.5 q28 -38.5 28 -94.5 q0 -22 -4 -42 Z" /><glyph glyph-name="uni0218" unicode="&#x218;" d="M225 499 q0 -34 30.5 -55.5 q30.5 -21.5 95.5 -48.5 q62 -26 101 -48.5 q39 -22.5 67 -60.5 q28 -38 28 -95 q0 -22 -4 -42 q-17 -90 -83 -141 q-37 -27 -84 -40.5 q-47 -13.5 -97 -13.5 q-76 0 -138.5 27.5 q-62.5 27.5 -102.5 77 q-40 49.5 -49 113.5 l126 57 q13 -65 58 -104.5 q45 -39.5 112 -39.5 q46 0 74.5 19.5 q28.5 19.5 34.5 54.5 q1 5 1 14 q0 37 -32 59 q-32 22 -99 49 q-61 25 -99 46.5 q-38 21.5 -65 58.5 q-27 37 -27 91 q0 22 4 41 q21 108 109 156 q64 37 155 37 q70 0 125.5 -25 q55.5 -25 88 -67.5 q32.5 -42.5 38.5 -93.5 l-126 -57 q-9 48 -45 80.5 q-36 32.5 -92 32.5 q-46 0 -75.5 -21 q-29.5 -21 -29.5 -61 ZM234 -67 q37 0 58 -20 q21 -20 21 -56 q0 -8 -2 -24 q-10 -57 -55 -87.5 q-45 -30.5 -121 -34.5 l8 58 q66 10 83 42 q-32 0 -49.5 16 q-17.5 16 -17.5 41 q0 32 22 48.5 q22 16.5 53 16.5 Z" /><glyph glyph-name="uni018F" unicode="&#x18f;" d="M401 711 q89 0 156.5 -38 q67.5 -38 104.5 -109.5 q37 -71.5 37 -168.5 q0 -46 -9 -97 q-31 -177 -137 -260.5 q-106 -83.5 -255 -83.5 q-125 0 -198 54 q-73 54 -73 153 q0 114 90.5 172 q90.5 58 268.5 58 q77 0 161 -10 q1 8 1 24 q0 85 -40 129.5 q-40 44.5 -118 44.5 q-119 0 -186 -104 l-98 82 q44 78 123.5 116 q79.5 38 171.5 38 ZM309 83 q164 0 216 176 q-80 10 -148 10 q-198 0 -198 -100 q0 -43 34 -64.5 q34 -21.5 96 -21.5 Z" /><glyph glyph-name="T" unicode="T" d="M79 698 l586 0 l-22 -129 l-221 0 l-105 -603 l-146 0 l106 603 l-219 0 l21 129 Z" /><glyph glyph-name="Tbar" unicode="&#x166;" d="M79 698 l586 0 l-22 -129 l-221 0 l-33 -190 l143 0 l-23 -129 l-142 0 l-50 -284 l-146 0 l50 284 l-142 0 l23 129 l141 0 l34 190 l-219 0 l21 129 Z" /><glyph glyph-name="Tcaron" unicode="&#x164;" d="M344 916 l52 -76 l78 76 l125 0 l-159 -150 l-109 0 l-105 150 l118 0 ZM79 698 l586 0 l-22 -129 l-221 0 l-105 -603 l-146 0 l106 603 l-219 0 l21 129 Z" /><glyph glyph-name="uni0162" unicode="&#x162;" d="M79 698 l586 0 l-22 -129 l-221 0 l-105 -603 l-22 0 l-37 -60 q42 -5 68 -28.5 q26 -23.5 26 -60.5 q0 -58 -44.5 -81.5 q-44.5 -23.5 -106.5 -23.5 q-48 0 -88 14 l5 71 q30 -11 74 -11 q64 0 64 29 q0 11 -12 17 q-12 6 -34 6 q-18 0 -55 -7 l-6 50 l50 85 l-28 0 l106 603 l-219 0 l21 129 Z" /><glyph glyph-name="uni021A" unicode="&#x21a;" d="M58 569 l21 129 l586 0 l-22 -129 l-221 0 l-105 -603 l-146 0 l106 603 l-219 0 ZM227 -67 q36 0 57.5 -20.5 q21.5 -20.5 21.5 -56.5 q0 -7 -2 -23 q-10 -57 -55 -87.5 q-45 -30.5 -122 -34.5 l8 58 q66 10 83 42 q-31 0 -48.5 15.5 q-17.5 15.5 -17.5 40.5 q0 32 21.5 49 q21.5 17 53.5 17 Z" /><glyph glyph-name="U" unicode="U" d="M610 698 l145 0 l-78 -451 q-26 -144 -111.5 -218.5 q-85.5 -74.5 -223.5 -74.5 q-90 0 -153 32 q-63 32 -95.5 90 q-32.5 58 -32.5 134 q0 33 6 67 l73 421 l144 0 l-68 -391 q-6 -37 -6 -68 q0 -76 37 -114 q37 -38 106 -38 q75 0 121.5 48.5 q46.5 48.5 64.5 152.5 l71 410 Z" /><glyph glyph-name="Uacute" unicode="Ú" d="M522 766 l-117 0 l120 149 l148 0 l-151 -149 ZM610 698 l145 0 l-78 -451 q-26 -144 -111.5 -218.5 q-85.5 -74.5 -223.5 -74.5 q-90 0 -153 32 q-63 32 -95.5 90 q-32.5 58 -32.5 134 q0 33 6 67 l73 421 l144 0 l-68 -391 q-6 -37 -6 -68 q0 -76 37 -114 q37 -38 106 -38 q75 0 121.5 48.5 q46.5 48.5 64.5 152.5 l71 410 Z" /><glyph glyph-name="Ubreve" unicode="&#x16c;" d="M470 764 q-76 0 -119 34 q-43 34 -43 91 q0 17 2 26 l108 0 q-2 -33 12 -52 q14 -19 47 -19 q58 0 77 71 l109 0 q-14 -76 -65 -113.5 q-51 -37.5 -128 -37.5 ZM610 698 l145 0 l-78 -451 q-26 -144 -111.5 -218.5 q-85.5 -74.5 -223.5 -74.5 q-90 0 -153 32 q-63 32 -95.5 90 q-32.5 58 -32.5 134 q0 33 6 67 l73 421 l144 0 l-68 -391 q-6 -37 -6 -68 q0 -76 37 -114 q37 -38 106 -38 q75 0 121.5 48.5 q46.5 48.5 64.5 152.5 l71 410 Z" /><glyph glyph-name="uni01D3" unicode="&#x1d3;" d="M418 915 l52 -76 l78 76 l126 0 l-160 -150 l-108 0 l-106 150 l118 0 ZM610 698 l145 0 l-78 -451 q-26 -144 -111.5 -218.5 q-85.5 -74.5 -223.5 -74.5 q-90 0 -153 32 q-63 32 -95.5 90 q-32.5 58 -32.5 134 q0 33 6 67 l73 421 l144 0 l-68 -391 q-6 -37 -6 -68 q0 -76 37 -114 q37 -38 106 -38 q75 0 121.5 48.5 q46.5 48.5 64.5 152.5 l71 410 Z" /><glyph glyph-name="Ucircumflex" unicode="Û" d="M429 915 l109 0 l105 -150 l-118 0 l-52 76 l-78 -76 l-125 0 l159 150 ZM610 698 l145 0 l-78 -451 q-26 -144 -111.5 -218.5 q-85.5 -74.5 -223.5 -74.5 q-90 0 -153 32 q-63 32 -95.5 90 q-32.5 58 -32.5 134 q0 33 6 67 l73 421 l144 0 l-68 -391 q-6 -37 -6 -68 q0 -76 37 -114 q37 -38 106 -38 q75 0 121.5 48.5 q46.5 48.5 64.5 152.5 l71 410 Z" /><glyph glyph-name="Udieresis" unicode="Ü" d="M360 767 q-30 0 -52 23 q-22 23 -22 54 q0 32 21.5 54.5 q21.5 22.5 52.5 22.5 q32 0 54 -22.5 q22 -22.5 22 -54.5 q0 -31 -22 -54 q-22 -23 -54 -23 ZM585 767 q-31 0 -53 23 q-22 23 -22 54 q0 32 22 54.5 q22 22.5 53 22.5 q31 0 53 -22.5 q22 -22.5 22 -54.5 q0 -31 -22 -54 q-22 -23 -53 -23 ZM610 698 l145 0 l-78 -451 q-26 -144 -111.5 -218.5 q-85.5 -74.5 -223.5 -74.5 q-90 0 -153 32 q-63 32 -95.5 90 q-32.5 58 -32.5 134 q0 33 6 67 l73 421 l144 0 l-68 -391 q-6 -37 -6 -68 q0 -76 37 -114 q37 -38 106 -38 q75 0 121.5 48.5 q46.5 48.5 64.5 152.5 l71 410 Z" /><glyph glyph-name="uni01D7" unicode="&#x1d7;" d="M403 876 l109 88 l144 0 l-139 -88 l-114 0 ZM352 740 q-31 0 -52 17.5 q-21 17.5 -21 41.5 q0 24 21 41.5 q21 17.5 52 17.5 q32 0 54 -17.5 q22 -17.5 22 -41.5 q0 -24 -22 -41.5 q-22 -17.5 -54 -17.5 ZM577 740 q-31 0 -52.5 17.5 q-21.5 17.5 -21.5 41.5 q0 24 21.5 41.5 q21.5 17.5 52.5 17.5 q31 0 53 -17.5 q22 -17.5 22 -41.5 q0 -24 -22 -41.5 q-22 -17.5 -53 -17.5 ZM610 698 l145 0 l-78 -451 q-25 -144 -111 -218.5 q-86 -74.5 -224 -74.5 q-90 0 -153 32 q-63 32 -95.5 90 q-32.5 58 -32.5 134 q0 33 6 67 l73 421 l144 0 l-68 -391 q-6 -37 -6 -68 q0 -76 37 -114 q37 -38 106 -38 q75 0 121.5 48.5 q46.5 48.5 64.5 152.5 l71 410 Z" /><glyph glyph-name="uni01D9" unicode="&#x1d9;" d="M667 964 l-148 -89 l-109 0 l-116 89 l130 0 l50 -37 l63 37 l130 0 ZM352 740 q-31 0 -52 17.5 q-21 17.5 -21 41.5 q0 24 21 41.5 q21 17.5 52 17.5 q32 0 54 -17.5 q22 -17.5 22 -41.5 q0 -24 -22 -41.5 q-22 -17.5 -54 -17.5 ZM577 740 q-31 0 -52.5 17.5 q-21.5 17.5 -21.5 41.5 q0 24 21.5 41.5 q21.5 17.5 52.5 17.5 q31 0 53 -17.5 q22 -17.5 22 -41.5 q0 -24 -22 -41.5 q-22 -17.5 -53 -17.5 ZM610 698 l145 0 l-78 -451 q-25 -144 -111 -218.5 q-86 -74.5 -224 -74.5 q-90 0 -153 32 q-63 32 -95.5 90 q-32.5 58 -32.5 134 q0 33 6 67 l73 421 l144 0 l-68 -391 q-6 -37 -6 -68 q0 -76 37 -114 q37 -38 106 -38 q75 0 121.5 48.5 q46.5 48.5 64.5 152.5 l71 410 Z" /><glyph glyph-name="uni01DB" unicode="&#x1db;" d="M305 964 l144 0 l78 -88 l-114 0 l-108 88 ZM352 740 q-31 0 -52 17.5 q-21 17.5 -21 41.5 q0 24 21 41.5 q21 17.5 52 17.5 q32 0 54 -17.5 q22 -17.5 22 -41.5 q0 -24 -22 -41.5 q-22 -17.5 -54 -17.5 ZM577 740 q-31 0 -52.5 17.5 q-21.5 17.5 -21.5 41.5 q0 24 21.5 41.5 q21.5 17.5 52.5 17.5 q31 0 53 -17.5 q22 -17.5 22 -41.5 q0 -24 -22 -41.5 q-22 -17.5 -53 -17.5 ZM610 698 l145 0 l-78 -451 q-25 -144 -111 -218.5 q-86 -74.5 -224 -74.5 q-90 0 -153 32 q-63 32 -95.5 90 q-32.5 58 -32.5 134 q0 33 6 67 l73 421 l144 0 l-68 -391 q-6 -37 -6 -68 q0 -76 37 -114 q37 -38 106 -38 q75 0 121.5 48.5 q46.5 48.5 64.5 152.5 l71 410 Z" /><glyph glyph-name="uni01D5" unicode="&#x1d5;" d="M309 887 l12 65 l342 0 l-12 -65 l-342 0 ZM352 740 q-31 0 -52 17.5 q-21 17.5 -21 41.5 q0 24 21 41.5 q21 17.5 52 17.5 q32 0 54 -17.5 q22 -17.5 22 -41.5 q0 -24 -22 -41.5 q-22 -17.5 -54 -17.5 ZM577 740 q-31 0 -52.5 17.5 q-21.5 17.5 -21.5 41.5 q0 24 21.5 41.5 q21.5 17.5 52.5 17.5 q31 0 53 -17.5 q22 -17.5 22 -41.5 q0 -24 -22 -41.5 q-22 -17.5 -53 -17.5 ZM610 698 l145 0 l-78 -451 q-25 -144 -111 -218.5 q-86 -74.5 -224 -74.5 q-90 0 -153 32 q-63 32 -95.5 90 q-32.5 58 -32.5 134 q0 33 6 67 l73 421 l144 0 l-68 -391 q-6 -37 -6 -68 q0 -76 37 -114 q37 -38 106 -38 q75 0 121.5 48.5 q46.5 48.5 64.5 152.5 l71 410 Z" /><glyph glyph-name="uni1EE4" unicode="&#x1ee4;" d="M610 698 l145 0 l-78 -451 q-26 -144 -111.5 -218.5 q-85.5 -74.5 -223.5 -74.5 q-90 0 -153 32 q-63 32 -95.5 90 q-32.5 58 -32.5 134 q0 33 6 67 l73 421 l144 0 l-68 -391 q-6 -37 -6 -68 q0 -76 37 -114 q37 -38 106 -38 q75 0 121.5 48.5 q46.5 48.5 64.5 152.5 l71 410 ZM293 -262 q-34 0 -58 25 q-24 25 -24 60 q0 35 24 59.5 q24 24.5 58 24.5 q34 0 58.5 -25 q24.5 -25 24.5 -59 q0 -35 -24.5 -60 q-24.5 -25 -58.5 -25 Z" /><glyph glyph-name="Ugrave" unicode="Ù" d="M399 766 l-97 149 l140 0 l67 -149 l-110 0 ZM610 698 l145 0 l-78 -451 q-26 -144 -111.5 -218.5 q-85.5 -74.5 -223.5 -74.5 q-90 0 -153 32 q-63 32 -95.5 90 q-32.5 58 -32.5 134 q0 33 6 67 l73 421 l144 0 l-68 -391 q-6 -37 -6 -68 q0 -76 37 -114 q37 -38 106 -38 q75 0 121.5 48.5 q46.5 48.5 64.5 152.5 l71 410 Z" /><glyph glyph-name="uni1EE6" unicode="&#x1ee6;" d="M364 918 q41 23 100 23 q53 0 86.5 -23.5 q33.5 -23.5 33.5 -64.5 q0 -47 -34.5 -72.5 q-34.5 -25.5 -98.5 -43.5 l-46 63 q37 9 56.5 18 q19.5 9 22.5 25 q1 10 -7.5 17 q-8.5 7 -25.5 7 q-33 0 -74 -22 l-13 73 ZM610 698 l145 0 l-78 -451 q-26 -144 -111.5 -218.5 q-85.5 -74.5 -223.5 -74.5 q-90 0 -153 32 q-63 32 -95.5 90 q-32.5 58 -32.5 134 q0 33 6 67 l73 421 l144 0 l-68 -391 q-6 -37 -6 -68 q0 -76 37 -114 q37 -38 106 -38 q75 0 121.5 48.5 q46.5 48.5 64.5 152.5 l71 410 Z" /><glyph glyph-name="Uhorn" unicode="&#x1af;" d="M908 826 q1 -13 1 -37 q0 -93 -39 -134 q-39 -41 -131 -48 l-62 -360 q-25 -144 -111 -218.5 q-86 -74.5 -224 -74.5 q-90 0 -153 32 q-63 32 -95.5 90 q-32.5 58 -32.5 134 q0 33 6 67 l73 421 l144 0 l-68 -391 q-6 -37 -6 -68 q0 -76 37 -114 q37 -38 106 -38 q75 0 121.5 48.5 q46.5 48.5 64.5 152.5 l71 410 l59 0 q58 0 85.5 11.5 q27.5 11.5 36 37.5 q8.5 26 5.5 79 l112 0 Z" /><glyph glyph-name="uni1EE8" unicode="&#x1ee8;" d="M522 766 l-117 0 l120 149 l148 0 l-151 -149 ZM908 826 q1 -13 1 -37 q0 -93 -39 -134 q-39 -41 -131 -48 l-62 -360 q-25 -144 -111 -218.5 q-86 -74.5 -224 -74.5 q-90 0 -153 32 q-63 32 -95.5 90 q-32.5 58 -32.5 134 q0 33 6 67 l73 421 l144 0 l-68 -391 q-6 -37 -6 -68 q0 -76 37 -114 q37 -38 106 -38 q75 0 121.5 48.5 q46.5 48.5 64.5 152.5 l71 410 l59 0 q58 0 85.5 11.5 q27.5 11.5 36 37.5 q8.5 26 5.5 79 l112 0 Z" /><glyph glyph-name="uni1EF0" unicode="&#x1ef0;" d="M908 826 q1 -13 1 -37 q0 -93 -39 -134 q-39 -41 -131 -48 l-62 -360 q-25 -144 -111 -218.5 q-86 -74.5 -224 -74.5 q-90 0 -153 32 q-63 32 -95.5 90 q-32.5 58 -32.5 134 q0 33 6 67 l73 421 l144 0 l-68 -391 q-6 -37 -6 -68 q0 -76 37 -114 q37 -38 106 -38 q75 0 121.5 48.5 q46.5 48.5 64.5 152.5 l71 410 l59 0 q58 0 85.5 11.5 q27.5 11.5 36 37.5 q8.5 26 5.5 79 l112 0 ZM293 -262 q-34 0 -58 25 q-24 25 -24 60 q0 35 24 59.5 q24 24.5 58 24.5 q34 0 58.5 -25 q24.5 -25 24.5 -59 q0 -35 -24.5 -60 q-24.5 -25 -58.5 -25 Z" /><glyph glyph-name="uni1EEA" unicode="&#x1eea;" d="M399 766 l-97 149 l140 0 l67 -149 l-110 0 ZM908 826 q1 -13 1 -37 q0 -93 -39 -134 q-39 -41 -131 -48 l-62 -360 q-25 -144 -111 -218.5 q-86 -74.5 -224 -74.5 q-90 0 -153 32 q-63 32 -95.5 90 q-32.5 58 -32.5 134 q0 33 6 67 l73 421 l144 0 l-68 -391 q-6 -37 -6 -68 q0 -76 37 -114 q37 -38 106 -38 q75 0 121.5 48.5 q46.5 48.5 64.5 152.5 l71 410 l59 0 q58 0 85.5 11.5 q27.5 11.5 36 37.5 q8.5 26 5.5 79 l112 0 Z" /><glyph glyph-name="uni1EEC" unicode="&#x1eec;" d="M364 918 q41 23 100 23 q53 0 86.5 -23.5 q33.5 -23.5 33.5 -64.5 q0 -47 -34.5 -72.5 q-34.5 -25.5 -98.5 -43.5 l-46 63 q37 9 56.5 18 q19.5 9 22.5 25 q1 10 -7.5 17 q-8.5 7 -25.5 7 q-33 0 -74 -22 l-13 73 ZM908 826 q1 -13 1 -37 q0 -93 -39 -134 q-39 -41 -131 -48 l-62 -360 q-25 -144 -111 -218.5 q-86 -74.5 -224 -74.5 q-90 0 -153 32 q-63 32 -95.5 90 q-32.5 58 -32.5 134 q0 33 6 67 l73 421 l144 0 l-68 -391 q-6 -37 -6 -68 q0 -76 37 -114 q37 -38 106 -38 q75 0 121.5 48.5 q46.5 48.5 64.5 152.5 l71 410 l59 0 q58 0 85.5 11.5 q27.5 11.5 36 37.5 q8.5 26 5.5 79 l112 0 Z" /><glyph glyph-name="uni1EEE" unicode="&#x1eee;" d="M268 778 q13 66 52 102 q39 36 95 36 q32 0 50.5 -11 q18.5 -11 34.5 -30 q11 -12 18 -17 q7 -5 17 -5 q15 0 27 13 q12 13 19 37 l95 0 q-12 -67 -51.5 -103 q-39.5 -36 -94.5 -36 q-32 0 -50 10.5 q-18 10.5 -35 29.5 q-10 12 -18 17.5 q-8 5.5 -18 5.5 q-30 0 -46 -49 l-95 0 ZM908 826 q1 -13 1 -37 q0 -93 -39 -134 q-39 -41 -131 -48 l-62 -360 q-25 -144 -111 -218.5 q-86 -74.5 -224 -74.5 q-90 0 -153 32 q-63 32 -95.5 90 q-32.5 58 -32.5 134 q0 33 6 67 l73 421 l144 0 l-68 -391 q-6 -37 -6 -68 q0 -76 37 -114 q37 -38 106 -38 q75 0 121.5 48.5 q46.5 48.5 64.5 152.5 l71 410 l59 0 q58 0 85.5 11.5 q27.5 11.5 36 37.5 q8.5 26 5.5 79 l112 0 Z" /><glyph glyph-name="Uhungarumlaut" unicode="&#x170;" d="M420 765 l-103 0 l116 150 l134 0 l-147 -150 ZM598 765 l-103 0 l116 150 l134 0 l-147 -150 ZM610 698 l145 0 l-78 -451 q-26 -144 -111.5 -218.5 q-85.5 -74.5 -223.5 -74.5 q-90 0 -153 32 q-63 32 -95.5 90 q-32.5 58 -32.5 134 q0 33 6 67 l73 421 l144 0 l-68 -391 q-6 -37 -6 -68 q0 -76 37 -114 q37 -38 106 -38 q75 0 121.5 48.5 q46.5 48.5 64.5 152.5 l71 410 Z" /><glyph glyph-name="Umacron" unicode="&#x16a;" d="M635 797 l-342 0 l17 95 l342 0 l-17 -95 ZM610 698 l145 0 l-78 -451 q-26 -144 -111.5 -218.5 q-85.5 -74.5 -223.5 -74.5 q-90 0 -153 32 q-63 32 -95.5 90 q-32.5 58 -32.5 134 q0 33 6 67 l73 421 l144 0 l-68 -391 q-6 -37 -6 -68 q0 -76 37 -114 q37 -38 106 -38 q75 0 121.5 48.5 q46.5 48.5 64.5 152.5 l71 410 Z" /><glyph glyph-name="Uogonek" unicode="&#x172;" d="M610 698 l145 0 l-78 -451 q-17 -94 -60 -159 q-43 -65 -109 -99 q-61 -35 -89 -68 q-28 -33 -34 -68 q-2 -12 -2 -16 q0 -40 40 -40 q37 0 78 39 l41 -74 q-56 -50 -126 -50 q-59 0 -95.5 29.5 q-36.5 29.5 -36.5 85.5 q0 14 3 31 q10 55 48 96 l-6 0 q-129 4 -198.5 73 q-69.5 69 -69.5 182 q0 32 6 68 l73 421 l144 0 l-68 -391 q-6 -37 -6 -68 q0 -76 37 -114 q37 -38 106 -38 q75 0 121.5 48.5 q46.5 48.5 64.5 152.5 l71 410 Z" /><glyph glyph-name="Uring" unicode="&#x16e;" d="M356 870 q0 51 35 85 q35 34 86 34 q51 0 84.5 -33.5 q33.5 -33.5 33.5 -85.5 q0 -52 -33.5 -85.5 q-33.5 -33.5 -84.5 -33.5 q-52 0 -86.5 33.5 q-34.5 33.5 -34.5 85.5 ZM431 870 q0 -21 12.5 -35 q12.5 -14 33.5 -14 q20 0 32 14 q12 14 12 35 q0 22 -12 35 q-12 13 -32 13 q-21 0 -33.5 -13 q-12.5 -13 -12.5 -35 ZM610 698 l145 0 l-78 -451 q-26 -144 -111.5 -218.5 q-85.5 -74.5 -223.5 -74.5 q-90 0 -153 32 q-63 32 -95.5 90 q-32.5 58 -32.5 134 q0 33 6 67 l73 421 l144 0 l-68 -391 q-6 -37 -6 -68 q0 -76 37 -114 q37 -38 106 -38 q75 0 121.5 48.5 q46.5 48.5 64.5 152.5 l71 410 Z" /><glyph glyph-name="Utilde" unicode="&#x168;" d="M268 778 q13 66 52 102 q39 36 95 36 q32 0 50.5 -11 q18.5 -11 34.5 -30 q11 -12 18 -17 q7 -5 17 -5 q15 0 27 13 q12 13 19 37 l95 0 q-12 -67 -51.5 -103 q-39.5 -36 -94.5 -36 q-32 0 -50 10.5 q-18 10.5 -35 29.5 q-10 12 -18 17.5 q-8 5.5 -18 5.5 q-30 0 -46 -49 l-95 0 ZM610 698 l145 0 l-78 -451 q-26 -144 -111.5 -218.5 q-85.5 -74.5 -223.5 -74.5 q-90 0 -153 32 q-63 32 -95.5 90 q-32.5 58 -32.5 134 q0 33 6 67 l73 421 l144 0 l-68 -391 q-6 -37 -6 -68 q0 -76 37 -114 q37 -38 106 -38 q75 0 121.5 48.5 q46.5 48.5 64.5 152.5 l71 410 Z" /><glyph glyph-name="V" unicode="V" d="M239 698 l102 -529 l282 529 l160 0 l-415 -732 l-124 0 l-165 732 l160 0 Z" /><glyph glyph-name="W" unicode="W" d="M634 698 l65 -492 l228 492 l144 0 l-358 -732 l-112 0 l-69 478 l-233 -478 l-112 0 l-108 732 l146 0 l63 -492 l230 492 l116 0 Z" /><glyph glyph-name="Wacute" unicode="&#x1e82;" d="M652 766 l-117 0 l119 150 l148 0 l-150 -150 ZM634 698 l65 -492 l228 492 l144 0 l-358 -732 l-112 0 l-69 478 l-233 -478 l-112 0 l-108 732 l146 0 l63 -492 l230 492 l116 0 Z" /><glyph glyph-name="Wcircumflex" unicode="&#x174;" d="M559 916 l108 0 l106 -151 l-119 0 l-51 76 l-79 -76 l-125 0 l160 151 ZM634 698 l65 -492 l228 492 l144 0 l-358 -732 l-112 0 l-69 478 l-233 -478 l-112 0 l-108 732 l146 0 l63 -492 l230 492 l116 0 Z" /><glyph glyph-name="Wdieresis" unicode="&#x1e84;" d="M489 768 q-30 0 -51.5 22.5 q-21.5 22.5 -21.5 54.5 q0 32 21.5 54.5 q21.5 22.5 51.5 22.5 q32 0 54 -22.5 q22 -22.5 22 -54.5 q0 -32 -22 -54.5 q-22 -22.5 -54 -22.5 ZM714 768 q-31 0 -52.5 23 q-21.5 23 -21.5 54 q0 32 21.5 54.5 q21.5 22.5 52.5 22.5 q31 0 53 -22.5 q22 -22.5 22 -54.5 q0 -32 -22 -54.5 q-22 -22.5 -53 -22.5 ZM634 698 l65 -492 l228 492 l144 0 l-358 -732 l-112 0 l-69 478 l-233 -478 l-112 0 l-108 732 l146 0 l63 -492 l230 492 l116 0 Z" /><glyph glyph-name="Wgrave" unicode="&#x1e80;" d="M528 766 l-97 150 l141 0 l66 -150 l-110 0 ZM634 698 l65 -492 l228 492 l144 0 l-358 -732 l-112 0 l-69 478 l-233 -478 l-112 0 l-108 732 l146 0 l63 -492 l230 492 l116 0 Z" /><glyph glyph-name="X" unicode="X" d="M381 455 l209 243 l175 0 l-319 -362 l198 -370 l-170 0 l-130 258 l-224 -258 l-173 0 l333 376 l-190 356 l168 0 l123 -243 Z" /><glyph glyph-name="Y" unicode="Y" d="M360 398 l216 300 l162 0 l-331 -447 l-50 -285 l-145 0 l51 292 l-184 440 l162 0 l119 -300 Z" /><glyph glyph-name="Yacute" unicode="Ý" d="M484 766 l-117 0 l120 150 l147 0 l-150 -150 ZM360 398 l216 300 l162 0 l-331 -447 l-50 -285 l-145 0 l51 292 l-184 440 l162 0 l119 -300 Z" /><glyph glyph-name="Ycircumflex" unicode="&#x176;" d="M391 916 l109 0 l105 -151 l-118 0 l-52 76 l-78 -76 l-125 0 l159 151 ZM360 398 l216 300 l162 0 l-331 -447 l-50 -285 l-145 0 l51 292 l-184 440 l162 0 l119 -300 Z" /><glyph glyph-name="Ydieresis" unicode="&#x178;" d="M322 768 q-31 0 -52.5 22.5 q-21.5 22.5 -21.5 54.5 q0 32 21.5 54.5 q21.5 22.5 52.5 22.5 q32 0 54 -22.5 q22 -22.5 22 -54.5 q0 -32 -22 -54.5 q-22 -22.5 -54 -22.5 ZM546 768 q-31 0 -52.5 23 q-21.5 23 -21.5 54 q0 32 21.5 54.5 q21.5 22.5 52.5 22.5 q31 0 53.5 -22.5 q22.5 -22.5 22.5 -54.5 q0 -32 -22.5 -54.5 q-22.5 -22.5 -53.5 -22.5 ZM360 398 l216 300 l162 0 l-331 -447 l-50 -285 l-145 0 l51 292 l-184 440 l162 0 l119 -300 Z" /><glyph glyph-name="uni1EF4" unicode="&#x1ef4;" d="M360 398 l216 300 l162 0 l-331 -447 l-50 -285 l-145 0 l51 292 l-184 440 l162 0 l119 -300 ZM260 -262 q-34 0 -58 25 q-24 25 -24 60 q0 35 24 59.5 q24 24.5 58 24.5 q34 0 58.5 -25 q24.5 -25 24.5 -59 q0 -35 -24.5 -60 q-24.5 -25 -58.5 -25 Z" /><glyph glyph-name="Ygrave" unicode="&#x1ef2;" d="M360 766 l-96 150 l140 0 l67 -150 l-111 0 ZM360 398 l216 300 l162 0 l-331 -447 l-50 -285 l-145 0 l51 292 l-184 440 l162 0 l119 -300 Z" /><glyph glyph-name="uni1EF6" unicode="&#x1ef6;" d="M326 918 q21 12 48 18 q27 6 52 6 q52 0 86 -24 q34 -24 34 -65 q0 -47 -34 -72 q-34 -25 -99 -44 l-46 63 q39 10 58.5 20 q19.5 10 19.5 26 q0 9 -8 15 q-8 6 -24 6 q-33 0 -75 -22 l-12 73 ZM360 398 l216 300 l162 0 l-331 -447 l-50 -285 l-145 0 l51 292 l-184 440 l162 0 l119 -300 Z" /><glyph glyph-name="uni1EF8" unicode="&#x1ef8;" d="M230 778 q13 67 52 102.5 q39 35.5 94 35.5 q32 0 50.5 -11 q18.5 -11 34.5 -30 q12 -12 19 -17 q7 -5 17 -5 q31 0 45 50 l96 0 q-12 -67 -51.5 -102.5 q-39.5 -35.5 -95.5 -35.5 q-32 0 -50.5 11 q-18.5 11 -34.5 30 q-11 12 -18 17 q-7 5 -17 5 q-31 0 -46 -50 l-95 0 ZM360 398 l216 300 l162 0 l-331 -447 l-50 -285 l-145 0 l51 292 l-184 440 l162 0 l119 -300 Z" /><glyph glyph-name="Z" unicode="Z" d="M96 569 l23 129 l506 0 l-12 -80 l-425 -522 l346 0 l-23 -130 l-551 0 l13 81 l427 522 l-304 0 Z" /><glyph glyph-name="Zacute" unicode="&#x179;" d="M447 767 l-117 0 l120 149 l148 0 l-151 -149 ZM96 569 l23 129 l506 0 l-12 -80 l-425 -522 l346 0 l-23 -130 l-551 0 l13 81 l427 522 l-304 0 Z" /><glyph glyph-name="Zcaron" unicode="&#x17d;" d="M343 916 l52 -76 l78 76 l126 0 l-160 -150 l-108 0 l-106 150 l118 0 ZM96 569 l23 129 l506 0 l-12 -80 l-425 -522 l346 0 l-23 -130 l-551 0 l13 81 l427 522 l-304 0 Z" /><glyph glyph-name="Zdotaccent" unicode="&#x17b;" d="M397 768 q-30 0 -51.5 23 q-21.5 23 -21.5 54 q0 32 21 54.5 q21 22.5 52 22.5 q32 0 54 -22.5 q22 -22.5 22 -54.5 q0 -31 -22 -54 q-22 -23 -54 -23 ZM96 569 l23 129 l506 0 l-12 -80 l-425 -522 l346 0 l-23 -130 l-551 0 l13 81 l427 522 l-304 0 Z" /><glyph glyph-name="a" unicode="a" d="M595 484 l-91 -518 l-120 0 q4 32 6 66 q-32 -41 -73.5 -59.5 q-41.5 -18.5 -84.5 -18.5 q-60 0 -107.5 29 q-47.5 29 -74 82 q-26.5 53 -26.5 122 q0 31 6 65 q14 81 53.5 136 q39.5 55 94 82 q54.5 27 112.5 27 q57 0 97.5 -24.5 q40.5 -24.5 60.5 -71.5 q10 29 24 83 l123 0 ZM272 73 q48 0 86.5 31.5 q38.5 31.5 50.5 104.5 q4 20 4 42 q0 59 -30.5 90.5 q-30.5 31.5 -78.5 31.5 q-49 0 -85.5 -34 q-36.5 -34 -48.5 -100 q-4 -20 -4 -43 q0 -56 28 -89.5 q28 -33.5 78 -33.5 Z" /><glyph glyph-name="aacute" unicode="á" d="M400 549 l-113 0 l119 165 l143 0 l-149 -165 ZM595 484 l-91 -518 l-120 0 q4 32 6 66 q-32 -41 -73.5 -59.5 q-41.5 -18.5 -84.5 -18.5 q-60 0 -107.5 29 q-47.5 29 -74 82 q-26.5 53 -26.5 122 q0 31 6 65 q14 81 53.5 136 q39.5 55 94 82 q54.5 27 112.5 27 q57 0 97.5 -24.5 q40.5 -24.5 60.5 -71.5 q10 29 24 83 l123 0 ZM272 73 q48 0 86.5 31.5 q38.5 31.5 50.5 104.5 q4 20 4 42 q0 59 -30.5 90.5 q-30.5 31.5 -78.5 31.5 q-49 0 -85.5 -34 q-36.5 -34 -48.5 -100 q-4 -20 -4 -43 q0 -56 28 -89.5 q28 -33.5 78 -33.5 Z" /><glyph glyph-name="abreve" unicode="&#x103;" d="M363 548 q-75 0 -119 37 q-44 37 -44 98 q0 15 3 30 l109 0 q-3 -36 11 -57 q14 -21 48 -21 q31 0 49.5 19 q18.5 19 29.5 59 l109 0 q-15 -82 -66.5 -123.5 q-51.5 -41.5 -129.5 -41.5 ZM595 484 l-91 -518 l-120 0 q4 32 6 66 q-32 -41 -73.5 -59.5 q-41.5 -18.5 -84.5 -18.5 q-60 0 -107.5 29 q-47.5 29 -74 82 q-26.5 53 -26.5 122 q0 31 6 65 q14 81 53.5 136 q39.5 55 94 82 q54.5 27 112.5 27 q57 0 97.5 -24.5 q40.5 -24.5 60.5 -71.5 q10 29 24 83 l123 0 ZM272 73 q48 0 86.5 31.5 q38.5 31.5 50.5 104.5 q4 20 4 42 q0 59 -30.5 90.5 q-30.5 31.5 -78.5 31.5 q-49 0 -85.5 -34 q-36.5 -34 -48.5 -100 q-4 -20 -4 -43 q0 -56 28 -89.5 q28 -33.5 78 -33.5 Z" /><glyph glyph-name="uni1EAF" unicode="&#x1eaf;" d="M434 744 l-113 0 l107 142 l140 0 l-134 -142 ZM363 548 q-75 0 -119 37 q-44 37 -44 98 q0 15 3 30 l109 0 q-3 -36 11 -57 q14 -21 48 -21 q31 0 49.5 19 q18.5 19 29.5 59 l109 0 q-15 -82 -66.5 -123.5 q-51.5 -41.5 -129.5 -41.5 ZM595 484 l-91 -518 l-120 0 q4 32 6 66 q-32 -41 -73.5 -59.5 q-41.5 -18.5 -84.5 -18.5 q-60 0 -107.5 29 q-47.5 29 -74 82 q-26.5 53 -26.5 122 q0 31 6 65 q14 81 53.5 136 q39.5 55 94 82 q54.5 27 112.5 27 q57 0 97.5 -24.5 q40.5 -24.5 60.5 -71.5 q10 29 24 83 l123 0 ZM272 73 q48 0 86.5 31.5 q38.5 31.5 50.5 104.5 q4 20 4 42 q0 59 -30.5 90.5 q-30.5 31.5 -78.5 31.5 q-49 0 -85.5 -34 q-36.5 -34 -48.5 -100 q-4 -20 -4 -43 q0 -56 28 -89.5 q28 -33.5 78 -33.5 Z" /><glyph glyph-name="uni1EB7" unicode="&#x1eb7;" d="M363 548 q-75 0 -119 37 q-44 37 -44 98 q0 15 3 30 l109 0 q-3 -36 11 -57 q14 -21 48 -21 q31 0 49.5 19 q18.5 19 29.5 59 l109 0 q-15 -82 -66.5 -123.5 q-51.5 -41.5 -129.5 -41.5 ZM595 484 l-91 -518 l-120 0 q4 32 6 66 q-32 -41 -73.5 -59.5 q-41.5 -18.5 -84.5 -18.5 q-60 0 -107.5 29 q-47.5 29 -74 82 q-26.5 53 -26.5 122 q0 31 6 65 q14 81 53.5 136 q39.5 55 94 82 q54.5 27 112.5 27 q57 0 97.5 -24.5 q40.5 -24.5 60.5 -71.5 q10 29 24 83 l123 0 ZM272 73 q48 0 86.5 31.5 q38.5 31.5 50.5 104.5 q4 20 4 42 q0 59 -30.5 90.5 q-30.5 31.5 -78.5 31.5 q-49 0 -85.5 -34 q-36.5 -34 -48.5 -100 q-4 -20 -4 -43 q0 -56 28 -89.5 q28 -33.5 78 -33.5 ZM252 -262 q-34 0 -58 25 q-24 25 -24 60 q0 35 24 59.5 q24 24.5 58 24.5 q34 0 58.5 -25 q24.5 -25 24.5 -59 q0 -35 -24.5 -60 q-24.5 -25 -58.5 -25 Z" /><glyph glyph-name="uni1EB1" unicode="&#x1eb1;" d="M340 744 l-83 142 l133 0 l56 -142 l-106 0 ZM363 548 q-75 0 -119 37 q-44 37 -44 98 q0 15 3 30 l109 0 q-3 -36 11 -57 q14 -21 48 -21 q31 0 49.5 19 q18.5 19 29.5 59 l109 0 q-15 -82 -66.5 -123.5 q-51.5 -41.5 -129.5 -41.5 ZM595 484 l-91 -518 l-120 0 q4 32 6 66 q-32 -41 -73.5 -59.5 q-41.5 -18.5 -84.5 -18.5 q-60 0 -107.5 29 q-47.5 29 -74 82 q-26.5 53 -26.5 122 q0 31 6 65 q14 81 53.5 136 q39.5 55 94 82 q54.5 27 112.5 27 q57 0 97.5 -24.5 q40.5 -24.5 60.5 -71.5 q10 29 24 83 l123 0 ZM272 73 q48 0 86.5 31.5 q38.5 31.5 50.5 104.5 q4 20 4 42 q0 59 -30.5 90.5 q-30.5 31.5 -78.5 31.5 q-49 0 -85.5 -34 q-36.5 -34 -48.5 -100 q-4 -20 -4 -43 q0 -56 28 -89.5 q28 -33.5 78 -33.5 Z" /><glyph glyph-name="uni1EB3" unicode="&#x1eb3;" d="M293 916 q39 25 99 25 q53 0 86.5 -25.5 q33.5 -25.5 33.5 -70.5 q0 -52 -34 -80 q-34 -28 -99 -48 l-45 66 q40 13 59 24.5 q19 11.5 19 30.5 q0 11 -8.5 18 q-8.5 7 -24.5 7 q-33 0 -74 -27 l-12 80 ZM363 548 q-75 0 -119 37 q-44 37 -44 98 q0 15 3 30 l109 0 q-3 -36 11 -57 q14 -21 48 -21 q31 0 49.5 19 q18.5 19 29.5 59 l109 0 q-15 -82 -66.5 -123.5 q-51.5 -41.5 -129.5 -41.5 ZM595 484 l-91 -518 l-120 0 q4 32 6 66 q-32 -41 -73.5 -59.5 q-41.5 -18.5 -84.5 -18.5 q-60 0 -107.5 29 q-47.5 29 -74 82 q-26.5 53 -26.5 122 q0 31 6 65 q14 81 53.5 136 q39.5 55 94 82 q54.5 27 112.5 27 q57 0 97.5 -24.5 q40.5 -24.5 60.5 -71.5 q10 29 24 83 l123 0 ZM272 73 q48 0 86.5 31.5 q38.5 31.5 50.5 104.5 q4 20 4 42 q0 59 -30.5 90.5 q-30.5 31.5 -78.5 31.5 q-49 0 -85.5 -34 q-36.5 -34 -48.5 -100 q-4 -20 -4 -43 q0 -56 28 -89.5 q28 -33.5 78 -33.5 Z" /><glyph glyph-name="uni1EB5" unicode="&#x1eb5;" d="M196 760 q13 72 52 110.5 q39 38.5 95 38.5 q32 0 50 -11.5 q18 -11.5 35 -32.5 q10 -13 17.5 -19 q7.5 -6 17.5 -6 q15 0 27 14 q12 14 19 40 l95 0 q-12 -72 -51.5 -110.5 q-39.5 -38.5 -94.5 -38.5 q-32 0 -49 11 q-17 11 -36 32 q-10 13 -18 19 q-8 6 -18 6 q-30 0 -45 -53 l-96 0 ZM363 548 q-75 0 -119 37 q-44 37 -44 98 q0 15 3 30 l109 0 q-3 -36 11 -57 q14 -21 48 -21 q31 0 49.5 19 q18.5 19 29.5 59 l109 0 q-15 -82 -66.5 -123.5 q-51.5 -41.5 -129.5 -41.5 ZM595 484 l-91 -518 l-120 0 q4 32 6 66 q-32 -41 -73.5 -59.5 q-41.5 -18.5 -84.5 -18.5 q-60 0 -107.5 29 q-47.5 29 -74 82 q-26.5 53 -26.5 122 q0 31 6 65 q14 81 53.5 136 q39.5 55 94 82 q54.5 27 112.5 27 q57 0 97.5 -24.5 q40.5 -24.5 60.5 -71.5 q10 29 24 83 l123 0 ZM272 73 q48 0 86.5 31.5 q38.5 31.5 50.5 104.5 q4 20 4 42 q0 59 -30.5 90.5 q-30.5 31.5 -78.5 31.5 q-49 0 -85.5 -34 q-36.5 -34 -48.5 -100 q-4 -20 -4 -43 q0 -56 28 -89.5 q28 -33.5 78 -33.5 Z" /><glyph glyph-name="uni01CE" unicode="&#x1ce;" d="M316 714 l47 -80 l74 80 l124 0 l-157 -165 l-104 0 l-99 165 l115 0 ZM595 484 l-91 -518 l-120 0 q4 32 6 66 q-32 -41 -73.5 -59.5 q-41.5 -18.5 -84.5 -18.5 q-60 0 -107.5 29 q-47.5 29 -74 82 q-26.5 53 -26.5 122 q0 31 6 65 q14 81 53.5 136 q39.5 55 94 82 q54.5 27 112.5 27 q57 0 97.5 -24.5 q40.5 -24.5 60.5 -71.5 q10 29 24 83 l123 0 ZM272 73 q48 0 86.5 31.5 q38.5 31.5 50.5 104.5 q4 20 4 42 q0 59 -30.5 90.5 q-30.5 31.5 -78.5 31.5 q-49 0 -85.5 -34 q-36.5 -34 -48.5 -100 q-4 -20 -4 -43 q0 -56 28 -89.5 q28 -33.5 78 -33.5 Z" /><glyph glyph-name="acircumflex" unicode="â" d="M326 714 l104 0 l99 -165 l-115 0 l-47 79 l-74 -79 l-124 0 l157 165 ZM595 484 l-91 -518 l-120 0 q4 32 6 66 q-32 -41 -73.5 -59.5 q-41.5 -18.5 -84.5 -18.5 q-60 0 -107.5 29 q-47.5 29 -74 82 q-26.5 53 -26.5 122 q0 31 6 65 q14 81 53.5 136 q39.5 55 94 82 q54.5 27 112.5 27 q57 0 97.5 -24.5 q40.5 -24.5 60.5 -71.5 q10 29 24 83 l123 0 ZM272 73 q48 0 86.5 31.5 q38.5 31.5 50.5 104.5 q4 20 4 42 q0 59 -30.5 90.5 q-30.5 31.5 -78.5 31.5 q-49 0 -85.5 -34 q-36.5 -34 -48.5 -100 q-4 -20 -4 -43 q0 -56 28 -89.5 q28 -33.5 78 -33.5 Z" /><glyph glyph-name="uni1EA5" unicode="&#x1ea5;" d="M557 738 l-112 0 l106 142 l140 0 l-134 -142 ZM323 714 l103 0 l100 -165 l-116 0 l-47 79 l-75 -79 l-122 0 l157 165 ZM595 484 l-91 -518 l-120 0 q4 32 6 66 q-32 -41 -73.5 -59.5 q-41.5 -18.5 -84.5 -18.5 q-60 0 -107.5 29 q-47.5 29 -74 82 q-26.5 53 -26.5 122 q0 31 6 65 q14 81 53.5 136 q39.5 55 94 82 q54.5 27 112.5 27 q57 0 97.5 -24.5 q40.5 -24.5 60.5 -71.5 q10 29 24 83 l123 0 ZM272 73 q48 0 86.5 31.5 q38.5 31.5 50.5 104.5 q4 20 4 42 q0 59 -30.5 90.5 q-30.5 31.5 -78.5 31.5 q-49 0 -85.5 -34 q-36.5 -34 -48.5 -100 q-4 -20 -4 -43 q0 -56 28 -89.5 q28 -33.5 78 -33.5 Z" /><glyph glyph-name="uni1EAD" unicode="&#x1ead;" d="M326 714 l104 0 l99 -165 l-115 0 l-47 79 l-74 -79 l-124 0 l157 165 ZM595 484 l-91 -518 l-120 0 q4 32 6 66 q-32 -41 -73.5 -59.5 q-41.5 -18.5 -84.5 -18.5 q-60 0 -107.5 29 q-47.5 29 -74 82 q-26.5 53 -26.5 122 q0 31 6 65 q14 81 53.5 136 q39.5 55 94 82 q54.5 27 112.5 27 q57 0 97.5 -24.5 q40.5 -24.5 60.5 -71.5 q10 29 24 83 l123 0 ZM272 73 q48 0 86.5 31.5 q38.5 31.5 50.5 104.5 q4 20 4 42 q0 59 -30.5 90.5 q-30.5 31.5 -78.5 31.5 q-49 0 -85.5 -34 q-36.5 -34 -48.5 -100 q-4 -20 -4 -43 q0 -56 28 -89.5 q28 -33.5 78 -33.5 ZM252 -262 q-34 0 -58 25 q-24 25 -24 60 q0 35 24 59.5 q24 24.5 58 24.5 q34 0 58.5 -25 q24.5 -25 24.5 -59 q0 -35 -24.5 -60 q-24.5 -25 -58.5 -25 Z" /><glyph glyph-name="uni1EA7" unicode="&#x1ea7;" d="M464 738 l-84 142 l134 0 l56 -142 l-106 0 ZM323 714 l103 0 l100 -165 l-116 0 l-47 79 l-75 -79 l-122 0 l157 165 ZM595 484 l-91 -518 l-120 0 q4 32 6 66 q-32 -41 -73.5 -59.5 q-41.5 -18.5 -84.5 -18.5 q-60 0 -107.5 29 q-47.5 29 -74 82 q-26.5 53 -26.5 122 q0 31 6 65 q14 81 53.5 136 q39.5 55 94 82 q54.5 27 112.5 27 q57 0 97.5 -24.5 q40.5 -24.5 60.5 -71.5 q10 29 24 83 l123 0 ZM272 73 q48 0 86.5 31.5 q38.5 31.5 50.5 104.5 q4 20 4 42 q0 59 -30.5 90.5 q-30.5 31.5 -78.5 31.5 q-49 0 -85.5 -34 q-36.5 -34 -48.5 -100 q-4 -20 -4 -43 q0 -56 28 -89.5 q28 -33.5 78 -33.5 Z" /><glyph glyph-name="uni1EA9" unicode="&#x1ea9;" d="M423 882 q39 25 100 25 q52 0 85.5 -25.5 q33.5 -25.5 33.5 -69.5 q0 -52 -34 -80.5 q-34 -28.5 -99 -48.5 l-45 66 q40 13 59 24 q19 11 19 31 q0 10 -8 17 q-8 7 -24 7 q-34 0 -75 -26 l-12 80 ZM323 714 l103 0 l100 -165 l-116 0 l-47 79 l-75 -79 l-122 0 l157 165 ZM595 484 l-91 -518 l-120 0 q4 32 6 66 q-32 -41 -73.5 -59.5 q-41.5 -18.5 -84.5 -18.5 q-60 0 -107.5 29 q-47.5 29 -74 82 q-26.5 53 -26.5 122 q0 31 6 65 q14 81 53.5 136 q39.5 55 94 82 q54.5 27 112.5 27 q57 0 97.5 -24.5 q40.5 -24.5 60.5 -71.5 q10 29 24 83 l123 0 ZM272 73 q48 0 86.5 31.5 q38.5 31.5 50.5 104.5 q4 20 4 42 q0 59 -30.5 90.5 q-30.5 31.5 -78.5 31.5 q-49 0 -85.5 -34 q-36.5 -34 -48.5 -100 q-4 -20 -4 -43 q0 -56 28 -89.5 q28 -33.5 78 -33.5 Z" /><glyph glyph-name="uni1EAB" unicode="&#x1eab;" d="M599 888 q-12 -72 -51.5 -110.5 q-39.5 -38.5 -95.5 -38.5 q-32 0 -49.5 11.5 q-17.5 11.5 -34.5 31.5 q-10 13 -18 19 q-8 6 -18 6 q-15 0 -26.5 -13.5 q-11.5 -13.5 -19.5 -40.5 l-95 0 q13 73 52 111 q39 38 94 38 q32 0 50 -11.5 q18 -11.5 36 -32.5 q11 -13 18 -18.5 q7 -5.5 17 -5.5 q15 0 27 14 q12 14 19 40 l95 0 ZM325 714 l103 0 l100 -165 l-116 0 l-47 79 l-75 -79 l-122 0 l157 165 ZM595 484 l-91 -518 l-120 0 q4 32 6 66 q-32 -41 -73.5 -59.5 q-41.5 -18.5 -84.5 -18.5 q-60 0 -107.5 29 q-47.5 29 -74 82 q-26.5 53 -26.5 122 q0 31 6 65 q14 81 53.5 136 q39.5 55 94 82 q54.5 27 112.5 27 q57 0 97.5 -24.5 q40.5 -24.5 60.5 -71.5 q10 29 24 83 l123 0 ZM272 73 q48 0 86.5 31.5 q38.5 31.5 50.5 104.5 q4 20 4 42 q0 59 -30.5 90.5 q-30.5 31.5 -78.5 31.5 q-49 0 -85.5 -34 q-36.5 -34 -48.5 -100 q-4 -20 -4 -43 q0 -56 28 -89.5 q28 -33.5 78 -33.5 Z" /><glyph glyph-name="adieresis" unicode="ä" d="M253 554 q-30 0 -52 23 q-22 23 -22 54 q0 32 21.5 54.5 q21.5 22.5 52.5 22.5 q32 0 53.5 -22.5 q21.5 -22.5 21.5 -54.5 q0 -31 -21.5 -54 q-21.5 -23 -53.5 -23 ZM477 554 q-31 0 -52.5 23 q-21.5 23 -21.5 54 q0 32 21.5 54.5 q21.5 22.5 52.5 22.5 q31 0 53 -22.5 q22 -22.5 22 -54.5 q0 -31 -22 -54 q-22 -23 -53 -23 ZM595 484 l-91 -518 l-120 0 q4 32 6 66 q-32 -41 -73.5 -59.5 q-41.5 -18.5 -84.5 -18.5 q-60 0 -107.5 29 q-47.5 29 -74 82 q-26.5 53 -26.5 122 q0 31 6 65 q14 81 53.5 136 q39.5 55 94 82 q54.5 27 112.5 27 q57 0 97.5 -24.5 q40.5 -24.5 60.5 -71.5 q10 29 24 83 l123 0 ZM272 73 q48 0 86.5 31.5 q38.5 31.5 50.5 104.5 q4 20 4 42 q0 59 -30.5 90.5 q-30.5 31.5 -78.5 31.5 q-49 0 -85.5 -34 q-36.5 -34 -48.5 -100 q-4 -20 -4 -43 q0 -56 28 -89.5 q28 -33.5 78 -33.5 Z" /><glyph glyph-name="uni1EA1" unicode="&#x1ea1;" d="M595 484 l-91 -518 l-120 0 q4 32 6 66 q-32 -41 -73.5 -59.5 q-41.5 -18.5 -84.5 -18.5 q-60 0 -107.5 29 q-47.5 29 -74 82 q-26.5 53 -26.5 122 q0 31 6 65 q14 81 53.5 136 q39.5 55 94 82 q54.5 27 112.5 27 q57 0 97.5 -24.5 q40.5 -24.5 60.5 -71.5 q10 29 24 83 l123 0 ZM272 73 q48 0 86.5 31.5 q38.5 31.5 50.5 104.5 q4 20 4 42 q0 59 -30.5 90.5 q-30.5 31.5 -78.5 31.5 q-49 0 -85.5 -34 q-36.5 -34 -48.5 -100 q-4 -20 -4 -43 q0 -56 28 -89.5 q28 -33.5 78 -33.5 ZM252 -262 q-34 0 -58 25 q-24 25 -24 60 q0 35 24 59.5 q24 24.5 58 24.5 q34 0 58.5 -25 q24.5 -25 24.5 -59 q0 -35 -24.5 -60 q-24.5 -25 -58.5 -25 Z" /><glyph glyph-name="agrave" unicode="à" d="M306 549 l-91 165 l136 0 l61 -165 l-106 0 ZM595 484 l-91 -518 l-120 0 q4 32 6 66 q-32 -41 -73.5 -59.5 q-41.5 -18.5 -84.5 -18.5 q-60 0 -107.5 29 q-47.5 29 -74 82 q-26.5 53 -26.5 122 q0 31 6 65 q14 81 53.5 136 q39.5 55 94 82 q54.5 27 112.5 27 q57 0 97.5 -24.5 q40.5 -24.5 60.5 -71.5 q10 29 24 83 l123 0 ZM272 73 q48 0 86.5 31.5 q38.5 31.5 50.5 104.5 q4 20 4 42 q0 59 -30.5 90.5 q-30.5 31.5 -78.5 31.5 q-49 0 -85.5 -34 q-36.5 -34 -48.5 -100 q-4 -20 -4 -43 q0 -56 28 -89.5 q28 -33.5 78 -33.5 Z" /><glyph glyph-name="uni1EA3" unicode="&#x1ea3;" d="M259 721 q38 25 99 25 q53 0 86.5 -25.5 q33.5 -25.5 33.5 -70.5 q0 -51 -34.5 -79.5 q-34.5 -28.5 -98.5 -48.5 l-46 66 q37 11 56.5 22.5 q19.5 11.5 22.5 28.5 q1 12 -7 20 q-8 8 -26 8 q-34 0 -74 -26 l-12 80 ZM595 484 l-91 -518 l-120 0 q4 32 6 66 q-32 -41 -73.5 -59.5 q-41.5 -18.5 -84.5 -18.5 q-60 0 -107.5 29 q-47.5 29 -74 82 q-26.5 53 -26.5 122 q0 31 6 65 q14 81 53.5 136 q39.5 55 94 82 q54.5 27 112.5 27 q57 0 97.5 -24.5 q40.5 -24.5 60.5 -71.5 q10 29 24 83 l123 0 ZM272 73 q48 0 86.5 31.5 q38.5 31.5 50.5 104.5 q4 20 4 42 q0 59 -30.5 90.5 q-30.5 31.5 -78.5 31.5 q-49 0 -85.5 -34 q-36.5 -34 -48.5 -100 q-4 -20 -4 -43 q0 -56 28 -89.5 q28 -33.5 78 -33.5 Z" /><glyph glyph-name="uni0251" unicode="&#x251;" d="M595 484 l-91 -518 l-120 0 q4 32 6 66 q-32 -41 -73.5 -59.5 q-41.5 -18.5 -84.5 -18.5 q-60 0 -107.5 29 q-47.5 29 -74 82 q-26.5 53 -26.5 122 q0 31 6 65 q14 81 53.5 136 q39.5 55 94 82 q54.5 27 112.5 27 q57 0 97.5 -24.5 q40.5 -24.5 60.5 -71.5 q10 29 24 83 l123 0 ZM272 73 q48 0 86.5 31.5 q38.5 31.5 50.5 104.5 q4 20 4 42 q0 59 -30.5 90.5 q-30.5 31.5 -78.5 31.5 q-49 0 -85.5 -34 q-36.5 -34 -48.5 -100 q-4 -20 -4 -43 q0 -56 28 -89.5 q28 -33.5 78 -33.5 Z" /><glyph glyph-name="amacron" unicode="&#x101;" d="M528 582 l-342 0 l17 95 l342 0 l-17 -95 ZM595 484 l-91 -518 l-120 0 q4 32 6 66 q-32 -41 -73.5 -59.5 q-41.5 -18.5 -84.5 -18.5 q-60 0 -107.5 29 q-47.5 29 -74 82 q-26.5 53 -26.5 122 q0 31 6 65 q14 81 53.5 136 q39.5 55 94 82 q54.5 27 112.5 27 q57 0 97.5 -24.5 q40.5 -24.5 60.5 -71.5 q10 29 24 83 l123 0 ZM272 73 q48 0 86.5 31.5 q38.5 31.5 50.5 104.5 q4 20 4 42 q0 59 -30.5 90.5 q-30.5 31.5 -78.5 31.5 q-49 0 -85.5 -34 q-36.5 -34 -48.5 -100 q-4 -20 -4 -43 q0 -56 28 -89.5 q28 -33.5 78 -33.5 Z" /><glyph glyph-name="aogonek" unicode="&#x105;" d="M410 -201 q37 0 80 35 l40 -70 q-56 -49 -128 -49 q-59 0 -96 28 q-37 28 -37 79 q0 54 30.5 92.5 q30.5 38.5 86.5 71.5 q2 13 4 46 q-32 -41 -73.5 -59.5 q-41.5 -18.5 -84.5 -18.5 q-60 0 -107.5 29 q-47.5 29 -74 82 q-26.5 53 -26.5 122 q0 31 6 65 q14 81 53.5 136 q39.5 55 94 82 q54.5 27 112.5 27 q57 0 97.5 -24.5 q40.5 -24.5 60.5 -71.5 q10 29 24 83 l123 0 l-91 -518 q-64 -29 -95.5 -56 q-31.5 -27 -38.5 -62 q-1 -4 -1 -11 q0 -18 11 -28 q11 -10 30 -10 ZM272 73 q48 0 86.5 31.5 q38.5 31.5 50.5 104.5 q4 20 4 42 q0 59 -30.5 90.5 q-30.5 31.5 -78.5 31.5 q-49 0 -85.5 -34 q-36.5 -34 -48.5 -100 q-4 -20 -4 -43 q0 -56 28 -89.5 q28 -33.5 78 -33.5 Z" /><glyph glyph-name="aring" unicode="å" d="M249 655 q0 52 34.5 85.5 q34.5 33.5 86.5 33.5 q51 0 84.5 -33.5 q33.5 -33.5 33.5 -85.5 q0 -52 -33.5 -85 q-33.5 -33 -84.5 -33 q-52 0 -86.5 33 q-34.5 33 -34.5 85 ZM324 655 q0 -21 12.5 -34.5 q12.5 -13.5 33.5 -13.5 q20 0 32 13.5 q12 13.5 12 34.5 q0 22 -12 35.5 q-12 13.5 -32 13.5 q-21 0 -33.5 -13.5 q-12.5 -13.5 -12.5 -35.5 ZM595 484 l-91 -518 l-120 0 q4 32 6 66 q-32 -41 -73.5 -59.5 q-41.5 -18.5 -84.5 -18.5 q-60 0 -107.5 29 q-47.5 29 -74 82 q-26.5 53 -26.5 122 q0 31 6 65 q14 81 53.5 136 q39.5 55 94 82 q54.5 27 112.5 27 q57 0 97.5 -24.5 q40.5 -24.5 60.5 -71.5 q10 29 24 83 l123 0 ZM272 73 q48 0 86.5 31.5 q38.5 31.5 50.5 104.5 q4 20 4 42 q0 59 -30.5 90.5 q-30.5 31.5 -78.5 31.5 q-49 0 -85.5 -34 q-36.5 -34 -48.5 -100 q-4 -20 -4 -43 q0 -56 28 -89.5 q28 -33.5 78 -33.5 Z" /><glyph glyph-name="aringacute" unicode="&#x1fb;" d="M445 792 l-113 0 l108 133 l140 0 l-135 -133 ZM257 643 q0 47 31.5 77.5 q31.5 30.5 78.5 30.5 q47 0 77.5 -30.5 q30.5 -30.5 30.5 -77.5 q0 -48 -30.5 -78 q-30.5 -30 -77.5 -30 q-47 0 -78.5 30.5 q-31.5 30.5 -31.5 77.5 ZM325 643 q0 -19 11.5 -31.5 q11.5 -12.5 30.5 -12.5 q18 0 29 12.5 q11 12.5 11 31.5 q0 20 -10.5 32 q-10.5 12 -29.5 12 q-19 0 -30.5 -12 q-11.5 -12 -11.5 -32 ZM595 484 l-91 -518 l-120 0 q4 32 6 66 q-32 -41 -73.5 -59.5 q-41.5 -18.5 -84.5 -18.5 q-60 0 -107.5 29 q-47.5 29 -74 82 q-26.5 53 -26.5 122 q0 31 6 65 q14 81 53.5 136 q39.5 55 94 82 q54.5 27 112.5 27 q57 0 97.5 -24.5 q40.5 -24.5 60.5 -71.5 q10 29 24 83 l123 0 ZM272 73 q48 0 86.5 31.5 q38.5 31.5 50.5 104.5 q4 20 4 42 q0 59 -30.5 90.5 q-30.5 31.5 -78.5 31.5 q-49 0 -85.5 -34 q-36.5 -34 -48.5 -100 q-4 -20 -4 -43 q0 -56 28 -89.5 q28 -33.5 78 -33.5 Z" /><glyph glyph-name="uni1E01" unicode="&#x1e01;" d="M595 484 l-91 -518 l-120 0 q4 32 6 66 q-32 -41 -73.5 -59.5 q-41.5 -18.5 -84.5 -18.5 q-60 0 -107.5 29 q-47.5 29 -74 82 q-26.5 53 -26.5 122 q0 31 6 65 q14 81 53.5 136 q39.5 55 94 82 q54.5 27 112.5 27 q57 0 97.5 -24.5 q40.5 -24.5 60.5 -71.5 q10 29 24 83 l123 0 ZM272 73 q48 0 86.5 31.5 q38.5 31.5 50.5 104.5 q4 20 4 42 q0 59 -30.5 90.5 q-30.5 31.5 -78.5 31.5 q-49 0 -85.5 -34 q-36.5 -34 -48.5 -100 q-4 -20 -4 -43 q0 -56 28 -89.5 q28 -33.5 78 -33.5 ZM132 -177 q0 49 34 79.5 q34 30.5 86 30.5 q52 0 85 -30.5 q33 -30.5 33 -79.5 q0 -50 -33 -80.5 q-33 -30.5 -85 -30.5 q-52 0 -86 30.5 q-34 30.5 -34 80.5 ZM206 -177 q0 -19 12.5 -31 q12.5 -12 33.5 -12 q20 0 32.5 12 q12.5 12 12.5 31 q0 19 -12.5 31 q-12.5 12 -32.5 12 q-21 0 -33.5 -12 q-12.5 -12 -12.5 -31 Z" /><glyph glyph-name="atilde" unicode="ã" d="M162 565 q13 72 52 110.5 q39 38.5 94 38.5 q32 0 50 -11.5 q18 -11.5 36 -33.5 q11 -13 18 -18.5 q7 -5.5 17 -5.5 q15 0 27 14 q12 14 19 40 l95 0 q-12 -72 -51.5 -110.5 q-39.5 -38.5 -95.5 -38.5 q-32 0 -49.5 11.5 q-17.5 11.5 -34.5 31.5 q-10 13 -18 19 q-8 6 -18 6 q-31 0 -46 -53 l-95 0 ZM595 484 l-91 -518 l-120 0 q4 32 6 66 q-32 -41 -73.5 -59.5 q-41.5 -18.5 -84.5 -18.5 q-60 0 -107.5 29 q-47.5 29 -74 82 q-26.5 53 -26.5 122 q0 31 6 65 q14 81 53.5 136 q39.5 55 94 82 q54.5 27 112.5 27 q57 0 97.5 -24.5 q40.5 -24.5 60.5 -71.5 q10 29 24 83 l123 0 ZM272 73 q48 0 86.5 31.5 q38.5 31.5 50.5 104.5 q4 20 4 42 q0 59 -30.5 90.5 q-30.5 31.5 -78.5 31.5 q-49 0 -85.5 -34 q-36.5 -34 -48.5 -100 q-4 -20 -4 -43 q0 -56 28 -89.5 q28 -33.5 78 -33.5 Z" /><glyph glyph-name="ae" unicode="æ" d="M603 71 q36 0 66 17.5 q30 17.5 52 51.5 l94 -70 q-32 -58 -93.5 -87 q-61.5 -29 -132.5 -29 q-64 0 -111.5 26 q-47.5 26 -73.5 76 q-33 -53 -79 -77.5 q-46 -24.5 -111 -24.5 q-60 0 -105 20 q-45 20 -69.5 55.5 q-24.5 35.5 -24.5 80.5 q0 18 2 28 q14 82 87.5 121.5 q73.5 39.5 184.5 39.5 q33 0 78 -5 q3 89 -80 89 q-72 0 -116 -68 l-91 68 q32 57 88 85.5 q56 28.5 124 28.5 q62 0 104.5 -22.5 q42.5 -22.5 63.5 -65.5 q39 44 93 66 q54 22 112 22 q86 0 135 -43.5 q49 -43.5 49 -111.5 q0 -80 -69 -121.5 q-69 -41.5 -205 -41.5 q-37 0 -81 3 q2 -53 32 -82 q30 -29 77 -29 ZM653 384 q-46 0 -84 -26.5 q-38 -26.5 -57 -76.5 q36 -3 65 -3 q136 0 136 62 q0 44 -60 44 ZM353 199 q-28 3 -53 3 q-70 0 -108.5 -24.5 q-38.5 -24.5 -38.5 -64.5 q0 -24 17.5 -38.5 q17.5 -14.5 48.5 -14.5 q44 0 82 27.5 q38 27.5 45 71.5 l7 40 Z" /><glyph glyph-name="aeacute" unicode="&#x1fd;" d="M516 714 l142 0 l-149 -165 l-113 0 l120 165 ZM603 71 q36 0 66 17.5 q30 17.5 52 51.5 l94 -70 q-32 -58 -93.5 -87 q-61.5 -29 -132.5 -29 q-64 0 -111.5 26 q-47.5 26 -73.5 76 q-33 -53 -79 -77.5 q-46 -24.5 -111 -24.5 q-60 0 -105 20 q-45 20 -69.5 55.5 q-24.5 35.5 -24.5 80.5 q0 18 2 28 q14 82 87.5 121.5 q73.5 39.5 184.5 39.5 q33 0 78 -5 q3 89 -80 89 q-72 0 -116 -68 l-91 68 q32 57 88 85.5 q56 28.5 124 28.5 q62 0 104.5 -22.5 q42.5 -22.5 63.5 -65.5 q39 44 93 66 q54 22 112 22 q86 0 135 -43.5 q49 -43.5 49 -111.5 q0 -80 -69 -121.5 q-69 -41.5 -205 -41.5 q-37 0 -81 3 q2 -53 32 -82 q30 -29 77 -29 ZM653 384 q-46 0 -84 -26.5 q-38 -26.5 -57 -76.5 q36 -3 65 -3 q136 0 136 62 q0 44 -60 44 ZM353 199 q-28 3 -53 3 q-70 0 -108.5 -24.5 q-38.5 -24.5 -38.5 -64.5 q0 -24 17.5 -38.5 q17.5 -14.5 48.5 -14.5 q44 0 82 27.5 q38 27.5 45 71.5 l7 40 Z" /><glyph glyph-name="b" unicode="b" d="M373 497 q60 0 107 -29 q47 -29 73.5 -81.5 q26.5 -52.5 26.5 -120.5 q0 -32 -6 -67 q-13 -81 -52.5 -136.5 q-39.5 -55.5 -94 -82 q-54.5 -26.5 -113.5 -26.5 q-57 0 -98 25 q-41 25 -61 72 q-10 -25 -24 -84 l-122 0 l133 760 l137 0 l-51 -292 q61 62 145 62 ZM300 78 q50 0 86 34 q36 34 48 100 q4 20 4 43 q0 56 -28 89.5 q-28 33.5 -77 33.5 q-47 0 -86.5 -32.5 q-39.5 -32.5 -51.5 -105.5 q-4 -20 -4 -42 q0 -57 30.5 -88.5 q30.5 -31.5 78.5 -31.5 Z" /><glyph glyph-name="c" unicode="c" d="M267 75 q61 0 99 57 l97 -71 q-32 -57 -86.5 -82 q-54.5 -25 -115.5 -25 q-68 0 -121.5 29 q-53.5 29 -84.5 82.5 q-31 53.5 -31 125.5 q0 29 6 62 q14 83 58 137.5 q44 54.5 103.5 80.5 q59.5 26 122.5 26 q75 0 127 -35.5 q52 -35.5 66 -94.5 l-111 -52 q-25 60 -90 60 q-49 0 -86.5 -34.5 q-37.5 -34.5 -48.5 -100.5 q-4 -20 -4 -44 q0 -55 26 -88 q26 -33 74 -33 Z" /><glyph glyph-name="cacute" unicode="&#x107;" d="M372 550 l-113 0 l119 165 l143 0 l-149 -165 ZM267 75 q61 0 99 57 l97 -71 q-32 -57 -86.5 -82 q-54.5 -25 -115.5 -25 q-68 0 -121.5 29 q-53.5 29 -84.5 82.5 q-31 53.5 -31 125.5 q0 29 6 62 q14 83 58 137.5 q44 54.5 103.5 80.5 q59.5 26 122.5 26 q75 0 127 -35.5 q52 -35.5 66 -94.5 l-111 -52 q-25 60 -90 60 q-49 0 -86.5 -34.5 q-37.5 -34.5 -48.5 -100.5 q-4 -20 -4 -44 q0 -55 26 -88 q26 -33 74 -33 Z" /><glyph glyph-name="ccaron" unicode="&#x10d;" d="M288 715 l47 -80 l74 80 l125 0 l-158 -165 l-103 0 l-100 165 l115 0 ZM267 75 q61 0 99 57 l97 -71 q-32 -57 -86.5 -82 q-54.5 -25 -115.5 -25 q-68 0 -121.5 29 q-53.5 29 -84.5 82.5 q-31 53.5 -31 125.5 q0 29 6 62 q14 83 58 137.5 q44 54.5 103.5 80.5 q59.5 26 122.5 26 q75 0 127 -35.5 q52 -35.5 66 -94.5 l-111 -52 q-25 60 -90 60 q-49 0 -86.5 -34.5 q-37.5 -34.5 -48.5 -100.5 q-4 -20 -4 -44 q0 -55 26 -88 q26 -33 74 -33 Z" /><glyph glyph-name="ccedilla" unicode="ç" d="M267 75 q61 0 99 57 l97 -71 q-30 -53 -81 -78.5 q-51 -25.5 -109 -28.5 l-29 -48 q42 -5 67.5 -28 q25.5 -23 25.5 -60 q0 -59 -44 -82.5 q-44 -23.5 -106 -23.5 q-48 0 -88 14 l5 71 q30 -11 74 -11 q63 0 63 30 q0 10 -12 16 q-12 6 -34 6 q-17 0 -54 -7 l-7 50 l50 84 q-73 21 -116.5 80.5 q-43.5 59.5 -43.5 145.5 q0 29 6 62 q14 83 58 137.5 q44 54.5 103.5 80.5 q59.5 26 122.5 26 q75 0 127 -35.5 q52 -35.5 66 -94.5 l-111 -52 q-25 60 -90 60 q-49 0 -86.5 -34.5 q-37.5 -34.5 -48.5 -100.5 q-4 -20 -4 -44 q0 -55 26 -88 q26 -33 74 -33 Z" /><glyph glyph-name="ccircumflex" unicode="&#x109;" d="M298 715 l104 0 l100 -165 l-115 0 l-47 79 l-74 -79 l-125 0 l157 165 ZM267 75 q61 0 99 57 l97 -71 q-32 -57 -86.5 -82 q-54.5 -25 -115.5 -25 q-68 0 -121.5 29 q-53.5 29 -84.5 82.5 q-31 53.5 -31 125.5 q0 29 6 62 q14 83 58 137.5 q44 54.5 103.5 80.5 q59.5 26 122.5 26 q75 0 127 -35.5 q52 -35.5 66 -94.5 l-111 -52 q-25 60 -90 60 q-49 0 -86.5 -34.5 q-37.5 -34.5 -48.5 -100.5 q-4 -20 -4 -44 q0 -55 26 -88 q26 -33 74 -33 Z" /><glyph glyph-name="cdotaccent" unicode="&#x10b;" d="M338 551 q-34 0 -58 25 q-24 25 -24 59 q0 35 24 60 q24 25 58 25 q34 0 59 -25 q25 -25 25 -60 q0 -34 -25 -59 q-25 -25 -59 -25 ZM267 75 q61 0 99 57 l97 -71 q-32 -57 -86.5 -82 q-54.5 -25 -115.5 -25 q-68 0 -121.5 29 q-53.5 29 -84.5 82.5 q-31 53.5 -31 125.5 q0 29 6 62 q14 83 58 137.5 q44 54.5 103.5 80.5 q59.5 26 122.5 26 q75 0 127 -35.5 q52 -35.5 66 -94.5 l-111 -52 q-25 60 -90 60 q-49 0 -86.5 -34.5 q-37.5 -34.5 -48.5 -100.5 q-4 -20 -4 -44 q0 -55 26 -88 q26 -33 74 -33 Z" /><glyph glyph-name="d" unicode="d" d="M500 727 l137 0 l-133 -761 l-120 0 l2 21 q2 16 4 46 q-32 -42 -73 -60.5 q-41 -18.5 -85 -18.5 q-60 0 -107.5 29 q-47.5 29 -74 82 q-26.5 53 -26.5 122 q0 31 6 65 q14 81 53.5 136 q39.5 55 94 82 q54.5 27 112.5 27 q54 0 93.5 -22.5 q39.5 -22.5 61.5 -65.5 l55 318 ZM272 73 q48 0 86.5 31.5 q38.5 31.5 50.5 104.5 q4 20 4 42 q0 59 -30.5 90.5 q-30.5 31.5 -78.5 31.5 q-49 0 -85.5 -34 q-36.5 -34 -48.5 -100 q-4 -20 -4 -43 q0 -56 28 -89.5 q28 -33.5 78 -33.5 Z" /><glyph glyph-name="eth" unicode="ð" d="M532 740 l42 -77 l-123 -62 q54 -63 81.5 -140.5 q27.5 -77.5 27.5 -160.5 q0 -42 -8 -90 q-15 -89 -59 -146 q-44 -57 -103.5 -83.5 q-59.5 -26.5 -125.5 -26.5 q-70 0 -125 29 q-55 29 -85.5 81.5 q-30.5 52.5 -30.5 121.5 q0 22 5 54 q13 75 57 130 q44 55 104.5 83 q60.5 28 124.5 28 q53 0 91 -23 q-24 49 -61 89 l-151 -77 l-38 78 l116 58 q-42 28 -93 48 l74 84 q74 -28 133 -73 l147 75 ZM409 214 q3 20 3 37 q0 51 -26 82 q-26 31 -72 31 q-52 0 -93.5 -38 q-41.5 -38 -52.5 -106 q-3 -19 -3 -37 q0 -51 26 -82.5 q26 -31.5 72 -31.5 q51 0 92 38 q41 38 54 107 Z" /><glyph glyph-name="dcaron" unicode="&#x10f;" d="M734 731 q28 0 45.5 -17.5 q17.5 -17.5 17.5 -53.5 q0 -6 -2 -24 q-11 -62 -51 -97.5 q-40 -35.5 -99 -43.5 l3 59 q52 8 72 46 q-23 2 -37 18 q-14 16 -14 41 q0 34 18 53 q18 19 47 19 ZM500 727 l137 0 l-133 -761 l-120 0 l2 21 q2 16 4 46 q-32 -42 -73 -60.5 q-41 -18.5 -85 -18.5 q-60 0 -107.5 29 q-47.5 29 -74 82 q-26.5 53 -26.5 122 q0 31 6 65 q14 81 53.5 136 q39.5 55 94 82 q54.5 27 112.5 27 q54 0 93.5 -22.5 q39.5 -22.5 61.5 -65.5 l55 318 ZM409 209 q4 20 4 42 q0 59 -30.5 90.5 q-30.5 31.5 -78.5 31.5 q-49 0 -85.5 -34 q-36.5 -34 -48.5 -100 q-4 -20 -4 -43 q0 -56 28 -89.5 q28 -33.5 78 -33.5 q48 0 86.5 31.5 q38.5 31.5 50.5 104.5 Z" /><glyph glyph-name="dcroat" unicode="&#x111;" d="M622 641 l81 0 l-17 -99 l-81 0 l-101 -576 l-120 0 l2 21 q2 16 4 46 q-32 -42 -73 -60.5 q-41 -18.5 -85 -18.5 q-60 0 -107.5 29 q-47.5 29 -74 82 q-26.5 53 -26.5 122 q0 31 6 65 q14 81 53.5 136 q39.5 55 94 82 q54.5 27 112.5 27 q54 0 93.5 -22.5 q39.5 -22.5 61.5 -65.5 l23 133 l-115 0 l18 99 l114 0 l15 86 l137 0 l-15 -86 ZM409 209 q4 20 4 42 q0 59 -30.5 90.5 q-30.5 31.5 -78.5 31.5 q-49 0 -85.5 -34 q-36.5 -34 -48.5 -100 q-4 -20 -4 -43 q0 -56 28 -89.5 q28 -33.5 78 -33.5 q48 0 86.5 31.5 q38.5 31.5 50.5 104.5 Z" /><glyph glyph-name="e" unicode="e" d="M266 71 q36 0 66 17.5 q30 17.5 52 51.5 l94 -70 q-33 -58 -94.5 -87 q-61.5 -29 -131.5 -29 q-65 0 -117 27.5 q-52 27.5 -82 79.5 q-30 52 -30 122 q0 30 6 61 q14 85 58.5 142 q44.5 57 106 84 q61.5 27 129.5 27 q90 0 139.5 -43.5 q49.5 -43.5 49.5 -111.5 q0 -157 -270 -157 q-38 0 -80 3 q0 -56 28 -86.5 q28 -30.5 76 -30.5 ZM316 384 q-44 0 -79.5 -25 q-35.5 -25 -54.5 -73 q54 -4 72 -4 q121 0 121 58 q0 22 -15 33 q-15 11 -44 11 Z" /><glyph glyph-name="eacute" unicode="é" d="M368 549 l-112 0 l119 165 l143 0 l-150 -165 ZM266 71 q36 0 66 17.5 q30 17.5 52 51.5 l94 -70 q-33 -58 -94.5 -87 q-61.5 -29 -131.5 -29 q-65 0 -117 27.5 q-52 27.5 -82 79.5 q-30 52 -30 122 q0 30 6 61 q14 85 58.5 142 q44.5 57 106 84 q61.5 27 129.5 27 q90 0 139.5 -43.5 q49.5 -43.5 49.5 -111.5 q0 -157 -270 -157 q-38 0 -80 3 q0 -56 28 -86.5 q28 -30.5 76 -30.5 ZM316 384 q-44 0 -79.5 -25 q-35.5 -25 -54.5 -73 q54 -4 72 -4 q121 0 121 58 q0 22 -15 33 q-15 11 -44 11 Z" /><glyph glyph-name="ebreve" unicode="&#x115;" d="M331 548 q-74 0 -118 37 q-44 37 -44 98 q0 15 3 30 l109 0 q-1 -5 -1 -15 q0 -29 15 -46 q15 -17 45 -17 q30 0 49 19 q19 19 30 59 l109 0 q-15 -82 -67 -123.5 q-52 -41.5 -130 -41.5 ZM266 71 q36 0 66 17.5 q30 17.5 52 51.5 l94 -70 q-33 -58 -94.5 -87 q-61.5 -29 -131.5 -29 q-65 0 -117 27.5 q-52 27.5 -82 79.5 q-30 52 -30 122 q0 30 6 61 q14 85 58.5 142 q44.5 57 106 84 q61.5 27 129.5 27 q90 0 139.5 -43.5 q49.5 -43.5 49.5 -111.5 q0 -157 -270 -157 q-38 0 -80 3 q0 -56 28 -86.5 q28 -30.5 76 -30.5 ZM316 384 q-44 0 -79.5 -25 q-35.5 -25 -54.5 -73 q54 -4 72 -4 q121 0 121 58 q0 22 -15 33 q-15 11 -44 11 Z" /><glyph glyph-name="ecaron" unicode="&#x11b;" d="M284 714 l47 -80 l75 80 l124 0 l-157 -165 l-104 0 l-99 165 l114 0 ZM266 71 q36 0 66 17.5 q30 17.5 52 51.5 l94 -70 q-33 -58 -94.5 -87 q-61.5 -29 -131.5 -29 q-65 0 -117 27.5 q-52 27.5 -82 79.5 q-30 52 -30 122 q0 30 6 61 q14 85 58.5 142 q44.5 57 106 84 q61.5 27 129.5 27 q90 0 139.5 -43.5 q49.5 -43.5 49.5 -111.5 q0 -157 -270 -157 q-38 0 -80 3 q0 -56 28 -86.5 q28 -30.5 76 -30.5 ZM316 384 q-44 0 -79.5 -25 q-35.5 -25 -54.5 -73 q54 -4 72 -4 q121 0 121 58 q0 22 -15 33 q-15 11 -44 11 Z" /><glyph glyph-name="ecircumflex" unicode="ê" d="M295 714 l103 0 l100 -165 l-115 0 l-47 79 l-74 -79 l-124 0 l157 165 ZM266 71 q36 0 66 17.5 q30 17.5 52 51.5 l94 -70 q-33 -58 -94.5 -87 q-61.5 -29 -131.5 -29 q-65 0 -117 27.5 q-52 27.5 -82 79.5 q-30 52 -30 122 q0 30 6 61 q14 85 58.5 142 q44.5 57 106 84 q61.5 27 129.5 27 q90 0 139.5 -43.5 q49.5 -43.5 49.5 -111.5 q0 -157 -270 -157 q-38 0 -80 3 q0 -56 28 -86.5 q28 -30.5 76 -30.5 ZM316 384 q-44 0 -79.5 -25 q-35.5 -25 -54.5 -73 q54 -4 72 -4 q121 0 121 58 q0 22 -15 33 q-15 11 -44 11 Z" /><glyph glyph-name="uni1EBF" unicode="&#x1ebf;" d="M526 738 l-113 0 l120 165 l143 0 l-150 -165 ZM292 714 l103 0 l100 -165 l-117 0 l-47 79 l-74 -79 l-123 0 l158 165 ZM266 71 q36 0 66 17.5 q30 17.5 52 51.5 l94 -70 q-33 -58 -94.5 -87 q-61.5 -29 -131.5 -29 q-65 0 -117 27.5 q-52 27.5 -82 79.5 q-30 52 -30 122 q0 30 6 61 q14 85 58.5 142 q44.5 57 106 84 q61.5 27 129.5 27 q90 0 139.5 -43.5 q49.5 -43.5 49.5 -111.5 q0 -157 -270 -157 q-38 0 -80 3 q0 -56 28 -86.5 q28 -30.5 76 -30.5 ZM316 384 q-44 0 -79.5 -25 q-35.5 -25 -54.5 -73 q54 -4 72 -4 q121 0 121 58 q0 22 -15 33 q-15 11 -44 11 Z" /><glyph glyph-name="uni1EC7" unicode="&#x1ec7;" d="M295 714 l103 0 l100 -165 l-115 0 l-47 79 l-74 -79 l-124 0 l157 165 ZM266 71 q36 0 66 17.5 q30 17.5 52 51.5 l94 -70 q-33 -58 -94.5 -87 q-61.5 -29 -131.5 -29 q-65 0 -117 27.5 q-52 27.5 -82 79.5 q-30 52 -30 122 q0 30 6 61 q14 85 58.5 142 q44.5 57 106 84 q61.5 27 129.5 27 q90 0 139.5 -43.5 q49.5 -43.5 49.5 -111.5 q0 -157 -270 -157 q-38 0 -80 3 q0 -56 28 -86.5 q28 -30.5 76 -30.5 ZM316 384 q-44 0 -79.5 -25 q-35.5 -25 -54.5 -73 q54 -4 72 -4 q121 0 121 58 q0 22 -15 33 q-15 11 -44 11 ZM207 -262 q-34 0 -58 25 q-24 25 -24 60 q0 35 24 59.5 q24 24.5 58 24.5 q34 0 59 -25 q25 -25 25 -59 q0 -35 -25 -60 q-25 -25 -59 -25 Z" /><glyph glyph-name="uni1EC1" unicode="&#x1ec1;" d="M433 738 l-92 165 l136 0 l62 -165 l-106 0 ZM292 714 l103 0 l100 -165 l-117 0 l-47 79 l-74 -79 l-123 0 l158 165 ZM266 71 q36 0 66 17.5 q30 17.5 52 51.5 l94 -70 q-33 -58 -94.5 -87 q-61.5 -29 -131.5 -29 q-65 0 -117 27.5 q-52 27.5 -82 79.5 q-30 52 -30 122 q0 30 6 61 q14 85 58.5 142 q44.5 57 106 84 q61.5 27 129.5 27 q90 0 139.5 -43.5 q49.5 -43.5 49.5 -111.5 q0 -157 -270 -157 q-38 0 -80 3 q0 -56 28 -86.5 q28 -30.5 76 -30.5 ZM316 384 q-44 0 -79.5 -25 q-35.5 -25 -54.5 -73 q54 -4 72 -4 q121 0 121 58 q0 22 -15 33 q-15 11 -44 11 Z" /><glyph glyph-name="uni1EC3" unicode="&#x1ec3;" d="M392 882 q39 25 99 25 q53 0 86.5 -25 q33.5 -25 33.5 -70 q0 -52 -34 -80.5 q-34 -28.5 -99 -48.5 l-45 66 q40 13 59 24 q19 11 19 31 q0 10 -8.5 17 q-8.5 7 -24.5 7 q-34 0 -74 -26 l-12 80 ZM292 714 l103 0 l100 -165 l-117 0 l-47 79 l-74 -79 l-123 0 l158 165 ZM266 71 q36 0 66 17.5 q30 17.5 52 51.5 l94 -70 q-33 -58 -94.5 -87 q-61.5 -29 -131.5 -29 q-65 0 -117 27.5 q-52 27.5 -82 79.5 q-30 52 -30 122 q0 30 6 61 q14 85 58.5 142 q44.5 57 106 84 q61.5 27 129.5 27 q90 0 139.5 -43.5 q49.5 -43.5 49.5 -111.5 q0 -157 -270 -157 q-38 0 -80 3 q0 -56 28 -86.5 q28 -30.5 76 -30.5 ZM316 384 q-44 0 -79.5 -25 q-35.5 -25 -54.5 -73 q54 -4 72 -4 q121 0 121 58 q0 22 -15 33 q-15 11 -44 11 Z" /><glyph glyph-name="uni1EC5" unicode="&#x1ec5;" d="M568 888 q-12 -72 -51.5 -110.5 q-39.5 -38.5 -95.5 -38.5 q-32 0 -50.5 12 q-18.5 12 -34.5 32 q-11 13 -18 18.5 q-7 5.5 -17 5.5 q-31 0 -46 -54 l-95 0 q13 73 52 111 q39 38 94 38 q32 0 50.5 -12 q18.5 -12 34.5 -32 q12 -13 19 -18.5 q7 -5.5 17 -5.5 q15 0 26.5 14 q11.5 14 18.5 40 l96 0 ZM294 714 l103 0 l100 -165 l-117 0 l-46 79 l-75 -79 l-123 0 l158 165 ZM266 71 q36 0 66 17.5 q30 17.5 52 51.5 l94 -70 q-33 -58 -94.5 -87 q-61.5 -29 -131.5 -29 q-65 0 -117 27.5 q-52 27.5 -82 79.5 q-30 52 -30 122 q0 30 6 61 q14 85 58.5 142 q44.5 57 106 84 q61.5 27 129.5 27 q90 0 139.5 -43.5 q49.5 -43.5 49.5 -111.5 q0 -157 -270 -157 q-38 0 -80 3 q0 -56 28 -86.5 q28 -30.5 76 -30.5 ZM316 384 q-44 0 -79.5 -25 q-35.5 -25 -54.5 -73 q54 -4 72 -4 q121 0 121 58 q0 22 -15 33 q-15 11 -44 11 Z" /><glyph glyph-name="edieresis" unicode="ë" d="M221 554 q-30 0 -51.5 23 q-21.5 23 -21.5 54 q0 32 21.5 54.5 q21.5 22.5 51.5 22.5 q32 0 54 -22.5 q22 -22.5 22 -54.5 q0 -31 -22 -54 q-22 -23 -54 -23 ZM446 554 q-31 0 -52.5 23 q-21.5 23 -21.5 54 q0 32 21.5 54.5 q21.5 22.5 52.5 22.5 q31 0 53 -22.5 q22 -22.5 22 -54.5 q0 -31 -22 -54 q-22 -23 -53 -23 ZM266 71 q36 0 66 17.5 q30 17.5 52 51.5 l94 -70 q-33 -58 -94.5 -87 q-61.5 -29 -131.5 -29 q-65 0 -117 27.5 q-52 27.5 -82 79.5 q-30 52 -30 122 q0 30 6 61 q14 85 58.5 142 q44.5 57 106 84 q61.5 27 129.5 27 q90 0 139.5 -43.5 q49.5 -43.5 49.5 -111.5 q0 -157 -270 -157 q-38 0 -80 3 q0 -56 28 -86.5 q28 -30.5 76 -30.5 ZM316 384 q-44 0 -79.5 -25 q-35.5 -25 -54.5 -73 q54 -4 72 -4 q121 0 121 58 q0 22 -15 33 q-15 11 -44 11 Z" /><glyph glyph-name="edotaccent" unicode="&#x117;" d="M335 550 q-34 0 -58.5 25 q-24.5 25 -24.5 59 q0 35 24.5 60 q24.5 25 58.5 25 q34 0 58.5 -25 q24.5 -25 24.5 -60 q0 -34 -24.5 -59 q-24.5 -25 -58.5 -25 ZM266 71 q36 0 66 17.5 q30 17.5 52 51.5 l94 -70 q-33 -58 -94.5 -87 q-61.5 -29 -131.5 -29 q-65 0 -117 27.5 q-52 27.5 -82 79.5 q-30 52 -30 122 q0 30 6 61 q14 85 58.5 142 q44.5 57 106 84 q61.5 27 129.5 27 q90 0 139.5 -43.5 q49.5 -43.5 49.5 -111.5 q0 -157 -270 -157 q-38 0 -80 3 q0 -56 28 -86.5 q28 -30.5 76 -30.5 ZM316 384 q-44 0 -79.5 -25 q-35.5 -25 -54.5 -73 q54 -4 72 -4 q121 0 121 58 q0 22 -15 33 q-15 11 -44 11 Z" /><glyph glyph-name="uni1EB9" unicode="&#x1eb9;" d="M266 71 q36 0 66 17.5 q30 17.5 52 51.5 l94 -70 q-33 -58 -94.5 -87 q-61.5 -29 -131.5 -29 q-65 0 -117 27.5 q-52 27.5 -82 79.5 q-30 52 -30 122 q0 30 6 61 q14 85 58.5 142 q44.5 57 106 84 q61.5 27 129.5 27 q90 0 139.5 -43.5 q49.5 -43.5 49.5 -111.5 q0 -157 -270 -157 q-38 0 -80 3 q0 -56 28 -86.5 q28 -30.5 76 -30.5 ZM316 384 q-44 0 -79.5 -25 q-35.5 -25 -54.5 -73 q54 -4 72 -4 q121 0 121 58 q0 22 -15 33 q-15 11 -44 11 ZM207 -262 q-34 0 -58 25 q-24 25 -24 60 q0 35 24 59.5 q24 24.5 58 24.5 q34 0 59 -25 q25 -25 25 -59 q0 -35 -25 -60 q-25 -25 -59 -25 Z" /><glyph glyph-name="egrave" unicode="è" d="M275 549 l-92 165 l137 0 l61 -165 l-106 0 ZM266 71 q36 0 66 17.5 q30 17.5 52 51.5 l94 -70 q-33 -58 -94.5 -87 q-61.5 -29 -131.5 -29 q-65 0 -117 27.5 q-52 27.5 -82 79.5 q-30 52 -30 122 q0 30 6 61 q14 85 58.5 142 q44.5 57 106 84 q61.5 27 129.5 27 q90 0 139.5 -43.5 q49.5 -43.5 49.5 -111.5 q0 -157 -270 -157 q-38 0 -80 3 q0 -56 28 -86.5 q28 -30.5 76 -30.5 ZM316 384 q-44 0 -79.5 -25 q-35.5 -25 -54.5 -73 q54 -4 72 -4 q121 0 121 58 q0 22 -15 33 q-15 11 -44 11 Z" /><glyph glyph-name="uni1EBB" unicode="&#x1ebb;" d="M227 721 q39 25 100 25 q53 0 86.5 -25.5 q33.5 -25.5 33.5 -70.5 q0 -51 -34.5 -79.5 q-34.5 -28.5 -98.5 -48.5 l-46 66 q40 13 59 24.5 q19 11.5 19 30.5 q0 11 -8 17.5 q-8 6.5 -24 6.5 q-34 0 -75 -26 l-12 80 ZM266 71 q36 0 66 17.5 q30 17.5 52 51.5 l94 -70 q-33 -58 -94.5 -87 q-61.5 -29 -131.5 -29 q-65 0 -117 27.5 q-52 27.5 -82 79.5 q-30 52 -30 122 q0 30 6 61 q14 85 58.5 142 q44.5 57 106 84 q61.5 27 129.5 27 q90 0 139.5 -43.5 q49.5 -43.5 49.5 -111.5 q0 -157 -270 -157 q-38 0 -80 3 q0 -56 28 -86.5 q28 -30.5 76 -30.5 ZM316 384 q-44 0 -79.5 -25 q-35.5 -25 -54.5 -73 q54 -4 72 -4 q121 0 121 58 q0 22 -15 33 q-15 11 -44 11 Z" /><glyph glyph-name="emacron" unicode="&#x113;" d="M497 582 l-342 0 l16 95 l342 0 l-16 -95 ZM266 71 q36 0 66 17.5 q30 17.5 52 51.5 l94 -70 q-33 -58 -94.5 -87 q-61.5 -29 -131.5 -29 q-65 0 -117 27.5 q-52 27.5 -82 79.5 q-30 52 -30 122 q0 30 6 61 q14 85 58.5 142 q44.5 57 106 84 q61.5 27 129.5 27 q90 0 139.5 -43.5 q49.5 -43.5 49.5 -111.5 q0 -157 -270 -157 q-38 0 -80 3 q0 -56 28 -86.5 q28 -30.5 76 -30.5 ZM316 384 q-44 0 -79.5 -25 q-35.5 -25 -54.5 -73 q54 -4 72 -4 q121 0 121 58 q0 22 -15 33 q-15 11 -44 11 Z" /><glyph glyph-name="eogonek" unicode="&#x119;" d="M266 71 q36 0 66 17.5 q30 17.5 52 51.5 l94 -70 q-29 -52 -84 -81 q-79 -53 -110 -82.5 q-31 -29.5 -37 -63.5 q-1 -4 -1 -11 q0 -35 40 -35 q21 0 40 8.5 q19 8.5 42 25.5 l39 -71 q-55 -48 -131 -48 q-57 0 -93 27.5 q-36 27.5 -36 78.5 q0 41 18.5 73.5 q18.5 32.5 55.5 64.5 q-90 11 -144 71 q-54 60 -54 156 q0 30 6 61 q14 85 58.5 142 q44.5 57 106 84 q61.5 27 129.5 27 q90 0 139.5 -43.5 q49.5 -43.5 49.5 -111.5 q0 -157 -270 -157 q-38 0 -80 3 q0 -56 28 -86.5 q28 -30.5 76 -30.5 ZM316 384 q-44 0 -79.5 -25 q-35.5 -25 -54.5 -73 q54 -4 72 -4 q121 0 121 58 q0 22 -15 33 q-15 11 -44 11 Z" /><glyph glyph-name="uni1EBD" unicode="&#x1ebd;" d="M131 565 q13 72 52 110.5 q39 38.5 94 38.5 q32 0 50 -11.5 q18 -11.5 35 -32.5 q12 -14 19 -19.5 q7 -5.5 17 -5.5 q15 0 26.5 14 q11.5 14 18.5 40 l95 0 q-12 -72 -51.5 -110.5 q-39.5 -38.5 -94.5 -38.5 q-32 0 -50.5 12 q-18.5 12 -34.5 32 q-11 13 -18 18.5 q-7 5.5 -17 5.5 q-31 0 -46 -53 l-95 0 ZM266 71 q36 0 66 17.5 q30 17.5 52 51.5 l94 -70 q-33 -58 -94.5 -87 q-61.5 -29 -131.5 -29 q-65 0 -117 27.5 q-52 27.5 -82 79.5 q-30 52 -30 122 q0 30 6 61 q14 85 58.5 142 q44.5 57 106 84 q61.5 27 129.5 27 q90 0 139.5 -43.5 q49.5 -43.5 49.5 -111.5 q0 -157 -270 -157 q-38 0 -80 3 q0 -56 28 -86.5 q28 -30.5 76 -30.5 ZM316 384 q-44 0 -79.5 -25 q-35.5 -25 -54.5 -73 q54 -4 72 -4 q121 0 121 58 q0 22 -15 33 q-15 11 -44 11 Z" /><glyph glyph-name="uni0259" unicode="&#x259;" d="M245 381 q-74 0 -118 -69 l-94 70 q32 58 93.5 87 q61.5 29 131.5 29 q65 0 117 -28 q52 -28 82 -80 q30 -52 30 -122 q0 -34 -5 -60 q-15 -85 -59.5 -142 q-44.5 -57 -106 -84 q-61.5 -27 -129.5 -27 q-89 0 -138.5 43.5 q-49.5 43.5 -49.5 111.5 q0 157 269 157 q38 0 80 -3 q1 56 -27 86.5 q-28 30.5 -76 30.5 ZM194 68 q44 0 80 25 q36 25 55 73 q-54 4 -73 4 q-121 0 -121 -58 q0 -22 15 -33 q15 -11 44 -11 Z" /><glyph glyph-name="uni0292" unicode="&#x292;" d="M507 484 l-17 -100 l-213 -198 q78 -18 120 -72 q42 -54 42 -130 q0 -22 -5 -52 q-20 -110 -99.5 -165 q-79.5 -55 -184.5 -55 q-100 0 -163.5 49.5 q-63.5 49.5 -75.5 138.5 l116 52 q8 -57 40 -87.5 q32 -30.5 87 -30.5 q53 0 91 29.5 q38 29.5 48 85.5 q2 16 2 24 q0 49 -36.5 78 q-36.5 29 -106.5 29 q-35 0 -62 -5 l16 107 l191 185 l-259 0 l21 117 l448 0 Z" /><glyph glyph-name="uni01EF" unicode="&#x1ef;" d="M260 714 l46 -79 l75 79 l124 0 l-157 -165 l-104 0 l-99 165 l115 0 ZM507 484 l-17 -100 l-213 -198 q78 -18 120 -72 q42 -54 42 -130 q0 -22 -5 -52 q-20 -110 -99.5 -165 q-79.5 -55 -184.5 -55 q-100 0 -163.5 49.5 q-63.5 49.5 -75.5 138.5 l116 52 q8 -57 40 -87.5 q32 -30.5 87 -30.5 q53 0 91 29.5 q38 29.5 48 85.5 q2 16 2 24 q0 49 -36.5 78 q-36.5 29 -106.5 29 q-35 0 -62 -5 l16 107 l191 185 l-259 0 l21 117 l448 0 Z" /><glyph glyph-name="f" unicode="f" d="M359 740 q50 0 84 -15.5 q34 -15.5 54 -39.5 l-67 -96 q-28 30 -66 30 q-39 0 -62 -32 q-23 -32 -34 -103 l135 0 l-21 -116 l-133 0 l-75 -422 q-40 -234 -211 -234 q-37 0 -69 12 q-32 12 -52 34 l65 98 q23 -22 51 -22 q33 0 51 30 q18 30 31 105 l69 399 l-86 0 l21 116 l86 0 l5 29 q19 118 79 172.5 q60 54.5 145 54.5 Z" /><glyph glyph-name="g" unicode="g" d="M596 484 l-86 -490 q-17 -101 -64.5 -164 q-47.5 -63 -109.5 -90.5 q-62 -27.5 -128 -27.5 q-88 0 -151.5 45 q-63.5 45 -78.5 118 l110 52 q14 -44 46 -68.5 q32 -24.5 82 -24.5 q67 0 106 45.5 q39 45.5 54 136.5 q-59 -62 -144 -62 q-60 0 -107.5 29 q-47.5 29 -74 82 q-26.5 53 -26.5 122 q0 31 6 65 q14 81 53.5 136 q39.5 55 94 82 q54.5 27 112.5 27 q57 0 97.5 -24.5 q40.5 -24.5 61.5 -71.5 q14 39 23 83 l124 0 ZM410 215 q3 20 3 38 q0 58 -30.5 89 q-30.5 31 -78.5 31 q-49 0 -85.5 -34 q-36.5 -34 -48.5 -100 q-4 -20 -4 -43 q0 -56 28 -89.5 q28 -33.5 78 -33.5 q53 0 90 34.5 q37 34.5 48 107.5 Z" /><glyph glyph-name="gbreve" unicode="&#x11f;" d="M349 549 q-75 0 -118.5 37.5 q-43.5 37.5 -43.5 98.5 q0 19 2 29 l109 0 q-3 -36 11 -57 q14 -21 48 -21 q31 0 50.5 19 q19.5 19 29.5 59 l108 0 q-15 -82 -66.5 -123.5 q-51.5 -41.5 -129.5 -41.5 ZM596 484 l-86 -490 q-17 -101 -64.5 -164 q-47.5 -63 -109.5 -90.5 q-62 -27.5 -128 -27.5 q-88 0 -151.5 45 q-63.5 45 -78.5 118 l110 52 q14 -44 46 -68.5 q32 -24.5 82 -24.5 q67 0 106 45.5 q39 45.5 54 136.5 q-59 -62 -144 -62 q-60 0 -107.5 29 q-47.5 29 -74 82 q-26.5 53 -26.5 122 q0 31 6 65 q14 81 53.5 136 q39.5 55 94 82 q54.5 27 112.5 27 q57 0 97.5 -24.5 q40.5 -24.5 61.5 -71.5 q14 39 23 83 l124 0 ZM410 215 q3 20 3 38 q0 58 -30.5 89 q-30.5 31 -78.5 31 q-49 0 -85.5 -34 q-36.5 -34 -48.5 -100 q-4 -20 -4 -43 q0 -56 28 -89.5 q28 -33.5 78 -33.5 q53 0 90 34.5 q37 34.5 48 107.5 Z" /><glyph glyph-name="gcaron" unicode="&#x1e7;" d="M547 714 l-157 -165 l-103 0 l-100 165 l115 0 l47 -79 l74 79 l124 0 ZM596 484 l-86 -490 q-17 -101 -64.5 -164 q-47.5 -63 -109.5 -90.5 q-62 -27.5 -128 -27.5 q-88 0 -151.5 45 q-63.5 45 -78.5 118 l110 52 q14 -44 46 -68.5 q32 -24.5 82 -24.5 q67 0 106 45.5 q39 45.5 54 136.5 q-59 -62 -144 -62 q-60 0 -107.5 29 q-47.5 29 -74 82 q-26.5 53 -26.5 122 q0 31 6 65 q14 81 53.5 136 q39.5 55 94 82 q54.5 27 112.5 27 q57 0 97.5 -24.5 q40.5 -24.5 61.5 -71.5 q14 39 23 83 l124 0 ZM410 215 q3 20 3 38 q0 58 -30.5 89 q-30.5 31 -78.5 31 q-49 0 -85.5 -34 q-36.5 -34 -48.5 -100 q-4 -20 -4 -43 q0 -56 28 -89.5 q28 -33.5 78 -33.5 q53 0 90 34.5 q37 34.5 48 107.5 Z" /><glyph glyph-name="gcircumflex" unicode="&#x11d;" d="M401 549 l-47 80 l-75 -80 l-124 0 l157 165 l104 0 l99 -165 l-114 0 ZM596 484 l-86 -490 q-17 -101 -64.5 -164 q-47.5 -63 -109.5 -90.5 q-62 -27.5 -128 -27.5 q-88 0 -151.5 45 q-63.5 45 -78.5 118 l110 52 q14 -44 46 -68.5 q32 -24.5 82 -24.5 q67 0 106 45.5 q39 45.5 54 136.5 q-59 -62 -144 -62 q-60 0 -107.5 29 q-47.5 29 -74 82 q-26.5 53 -26.5 122 q0 31 6 65 q14 81 53.5 136 q39.5 55 94 82 q54.5 27 112.5 27 q57 0 97.5 -24.5 q40.5 -24.5 61.5 -71.5 q14 39 23 83 l124 0 ZM410 215 q3 20 3 38 q0 58 -30.5 89 q-30.5 31 -78.5 31 q-49 0 -85.5 -34 q-36.5 -34 -48.5 -100 q-4 -20 -4 -43 q0 -56 28 -89.5 q28 -33.5 78 -33.5 q53 0 90 34.5 q37 34.5 48 107.5 Z" /><glyph glyph-name="uni0123" unicode="&#x123;" d="M347 550 q-34 0 -56 22.5 q-22 22.5 -22 64.5 q0 17 2 27 q12 70 61 114 q49 44 120 54 l-4 -70 q-64 -13 -86 -56 q29 -2 46 -22 q17 -20 17 -48 q0 -35 -23 -60.5 q-23 -25.5 -55 -25.5 ZM596 484 l-86 -490 q-17 -101 -64.5 -164 q-47.5 -63 -109.5 -90.5 q-62 -27.5 -128 -27.5 q-88 0 -151.5 45 q-63.5 45 -78.5 118 l110 52 q14 -44 46 -68.5 q32 -24.5 82 -24.5 q67 0 106 45.5 q39 45.5 54 136.5 q-59 -62 -144 -62 q-60 0 -107.5 29 q-47.5 29 -74 82 q-26.5 53 -26.5 122 q0 31 6 65 q14 81 53.5 136 q39.5 55 94 82 q54.5 27 112.5 27 q57 0 97.5 -24.5 q40.5 -24.5 61.5 -71.5 q14 39 23 83 l124 0 ZM410 215 q3 20 3 38 q0 58 -30.5 89 q-30.5 31 -78.5 31 q-49 0 -85.5 -34 q-36.5 -34 -48.5 -100 q-4 -20 -4 -43 q0 -56 28 -89.5 q28 -33.5 78 -33.5 q53 0 90 34.5 q37 34.5 48 107.5 Z" /><glyph glyph-name="gdotaccent" unicode="&#x121;" d="M352 550 q-34 0 -58 25.5 q-24 25.5 -24 59.5 q0 35 24 60 q24 25 58 25 q34 0 58.5 -25 q24.5 -25 24.5 -60 q0 -34 -24.5 -59.5 q-24.5 -25.5 -58.5 -25.5 ZM596 484 l-86 -490 q-17 -101 -64.5 -164 q-47.5 -63 -109.5 -90.5 q-62 -27.5 -128 -27.5 q-88 0 -151.5 45 q-63.5 45 -78.5 118 l110 52 q14 -44 46 -68.5 q32 -24.5 82 -24.5 q67 0 106 45.5 q39 45.5 54 136.5 q-59 -62 -144 -62 q-60 0 -107.5 29 q-47.5 29 -74 82 q-26.5 53 -26.5 122 q0 31 6 65 q14 81 53.5 136 q39.5 55 94 82 q54.5 27 112.5 27 q57 0 97.5 -24.5 q40.5 -24.5 61.5 -71.5 q14 39 23 83 l124 0 ZM410 215 q3 20 3 38 q0 58 -30.5 89 q-30.5 31 -78.5 31 q-49 0 -85.5 -34 q-36.5 -34 -48.5 -100 q-4 -20 -4 -43 q0 -56 28 -89.5 q28 -33.5 78 -33.5 q53 0 90 34.5 q37 34.5 48 107.5 Z" /><glyph glyph-name="uni0261" unicode="&#x261;" d="M596 484 l-86 -490 q-17 -101 -64.5 -164 q-47.5 -63 -109.5 -90.5 q-62 -27.5 -128 -27.5 q-88 0 -151.5 45 q-63.5 45 -78.5 118 l110 52 q14 -44 46 -68.5 q32 -24.5 82 -24.5 q67 0 106 45.5 q39 45.5 54 136.5 q-59 -62 -144 -62 q-60 0 -107.5 29 q-47.5 29 -74 82 q-26.5 53 -26.5 122 q0 31 6 65 q14 81 53.5 136 q39.5 55 94 82 q54.5 27 112.5 27 q57 0 97.5 -24.5 q40.5 -24.5 61.5 -71.5 q14 39 23 83 l124 0 ZM410 215 q3 20 3 38 q0 58 -30.5 89 q-30.5 31 -78.5 31 q-49 0 -85.5 -34 q-36.5 -34 -48.5 -100 q-4 -20 -4 -43 q0 -56 28 -89.5 q28 -33.5 78 -33.5 q53 0 90 34.5 q37 34.5 48 107.5 Z" /><glyph glyph-name="uni01E5" unicode="&#x1e5;" d="M560 279 l97 0 l-19 -107 l-97 0 l-31 -178 q-17 -101 -64.5 -164 q-47.5 -63 -109.5 -90.5 q-62 -27.5 -128 -27.5 q-88 0 -151.5 45 q-63.5 45 -78.5 118 l110 52 q14 -44 46 -68.5 q32 -24.5 82 -24.5 q67 0 106 45.5 q39 45.5 54 136.5 q-59 -62 -144 -62 q-60 0 -107.5 29 q-47.5 29 -74 82 q-26.5 53 -26.5 122 q0 31 6 65 q14 81 53.5 136 q39.5 55 94 82 q54.5 27 112.5 27 q57 0 97.5 -24.5 q40.5 -24.5 61.5 -71.5 q14 39 23 83 l124 0 l-36 -205 ZM315 279 l94 0 q-6 46 -34.5 70 q-28.5 24 -70.5 24 q-49 0 -85.5 -34 q-36.5 -34 -48.5 -100 q-4 -20 -4 -43 q0 -56 28 -89.5 q28 -33.5 78 -33.5 q44 0 77.5 23.5 q33.5 23.5 49.5 75.5 l-102 0 l18 107 Z" /><glyph glyph-name="h" unicode="h" d="M379 497 q75 0 119.5 -46 q44.5 -46 44.5 -133 q0 -30 -6 -65 l-51 -287 l-138 0 l46 262 q5 28 5 50 q0 44 -18 69.5 q-18 25.5 -57 25.5 q-45 0 -80 -31.5 q-35 -31.5 -49 -90.5 l-50 -285 l-137 0 l134 761 l137 0 l-52 -297 q30 33 70 50 q40 17 82 17 Z" /><glyph glyph-name="hbar" unicode="&#x127;" d="M391 497 q75 0 119.5 -46 q44.5 -46 44.5 -133 q0 -30 -6 -65 l-51 -287 l-138 0 l46 262 q5 28 5 50 q0 44 -18 69.5 q-18 25.5 -57 25.5 q-45 0 -80 -31.5 q-35 -31.5 -49 -90.5 l-50 -285 l-137 0 l101 576 l-69 0 l17 99 l69 0 l16 86 l137 0 l-14 -86 l146 0 l-17 -99 l-147 0 l-20 -112 q30 33 70 50 q40 17 82 17 Z" /><glyph glyph-name="uni021F" unicode="&#x21f;" d="M183 921 l48 -67 l72 67 l123 0 l-154 -142 l-103 0 l-103 142 l117 0 ZM379 497 q75 0 119.5 -46 q44.5 -46 44.5 -133 q0 -30 -6 -65 l-51 -287 l-138 0 l46 262 q5 28 5 50 q0 44 -18 69.5 q-18 25.5 -57 25.5 q-45 0 -80 -31.5 q-35 -31.5 -49 -90.5 l-50 -285 l-137 0 l134 761 l137 0 l-52 -297 q30 33 70 50 q40 17 82 17 Z" /><glyph glyph-name="hcircumflex" unicode="&#x125;" d="M191 921 l103 0 l104 -142 l-117 0 l-49 68 l-71 -68 l-124 0 l154 142 ZM379 497 q75 0 119.5 -46 q44.5 -46 44.5 -133 q0 -30 -6 -65 l-51 -287 l-138 0 l46 262 q5 28 5 50 q0 44 -18 69.5 q-18 25.5 -57 25.5 q-45 0 -80 -31.5 q-35 -31.5 -49 -90.5 l-50 -285 l-137 0 l134 761 l137 0 l-52 -297 q30 33 70 50 q40 17 82 17 Z" /><glyph glyph-name="i" unicode="i" d="M195 550 q-34 0 -57.5 25 q-23.5 25 -23.5 60 q0 35 23.5 60 q23.5 25 57.5 25 q34 0 58.5 -25 q24.5 -25 24.5 -60 q0 -35 -24.5 -60 q-24.5 -25 -58.5 -25 ZM148 -34 l-137 0 l91 518 l137 0 l-91 -518 Z" /><glyph glyph-name="dotlessi" unicode="&#x131;" d="M7 -34 l92 518 l139 0 l-92 -518 l-139 0 Z" /><glyph glyph-name="iacute" unicode="í" d="M228 549 l-113 0 l120 165 l143 0 l-150 -165 ZM7 -34 l92 518 l139 0 l-92 -518 l-139 0 Z" /><glyph glyph-name="ibreve" unicode="&#x12d;" d="M191 549 q-74 0 -118 37 q-44 37 -44 98 q0 15 3 30 l108 0 q-3 -36 11.5 -57 q14.5 -21 48.5 -21 q30 0 49.5 19 q19.5 19 29.5 59 l109 0 q-15 -82 -67 -123.5 q-52 -41.5 -130 -41.5 ZM7 -34 l92 518 l139 0 l-92 -518 l-139 0 Z" /><glyph glyph-name="uni01D0" unicode="&#x1d0;" d="M144 714 l47 -79 l75 79 l124 0 l-157 -165 l-104 0 l-99 165 l114 0 ZM7 -34 l92 518 l139 0 l-92 -518 l-139 0 Z" /><glyph glyph-name="icircumflex" unicode="î" d="M155 714 l103 0 l100 -165 l-115 0 l-47 80 l-74 -80 l-124 0 l157 165 ZM7 -34 l92 518 l139 0 l-92 -518 l-139 0 Z" /><glyph glyph-name="idieresis" unicode="ï" d="M81 555 q-31 0 -52 22.5 q-21 22.5 -21 54.5 q0 32 21 54.5 q21 22.5 52 22.5 q32 0 54 -22.5 q22 -22.5 22 -54.5 q0 -32 -22 -54.5 q-22 -22.5 -54 -22.5 ZM306 555 q-31 0 -52.5 23 q-21.5 23 -21.5 54 q0 32 21.5 54.5 q21.5 22.5 52.5 22.5 q31 0 53 -22.5 q22 -22.5 22 -54.5 q0 -32 -22 -54.5 q-22 -22.5 -53 -22.5 ZM7 -34 l92 518 l139 0 l-92 -518 l-139 0 Z" /><glyph glyph-name="uni1ECB" unicode="&#x1ecb;" d="M195 550 q-34 0 -57.5 25 q-23.5 25 -23.5 60 q0 35 23.5 60 q23.5 25 57.5 25 q34 0 58.5 -25 q24.5 -25 24.5 -60 q0 -35 -24.5 -60 q-24.5 -25 -58.5 -25 ZM148 -34 l-137 0 l91 518 l137 0 l-91 -518 ZM55 -262 q-34 0 -58.5 25 q-24.5 25 -24.5 60 q0 35 24.5 59.5 q24.5 24.5 58.5 24.5 q34 0 58.5 -25 q24.5 -25 24.5 -59 q0 -35 -24.5 -60 q-24.5 -25 -58.5 -25 Z" /><glyph glyph-name="igrave" unicode="ì" d="M135 549 l-92 165 l137 0 l61 -165 l-106 0 ZM7 -34 l92 518 l139 0 l-92 -518 l-139 0 Z" /><glyph glyph-name="uni1EC9" unicode="&#x1ec9;" d="M87 722 q21 13 48 19 q27 6 52 6 q53 0 86.5 -25.5 q33.5 -25.5 33.5 -70.5 q0 -52 -34.5 -80.5 q-34.5 -28.5 -98.5 -47.5 l-46 66 q40 13 59 24 q19 11 19 30 q0 11 -8 18 q-8 7 -24 7 q-32 0 -75 -27 l-12 81 ZM7 -34 l92 518 l139 0 l-92 -518 l-139 0 Z" /><glyph glyph-name="ij" unicode="&#x133;" d="M195 550 q-34 0 -57.5 25 q-23.5 25 -23.5 60 q0 35 23.5 60 q23.5 25 57.5 25 q34 0 58.5 -25 q24.5 -25 24.5 -60 q0 -35 -24.5 -60 q-24.5 -25 -58.5 -25 ZM448 550 q-31 0 -52 23 q-21 23 -21 56 q0 36 26.5 63.5 q26.5 27.5 59.5 27.5 q33 0 54.5 -23 q21.5 -23 21.5 -56 q0 -35 -26.5 -63 q-26.5 -28 -62.5 -28 ZM148 -34 l-137 0 l91 518 l137 0 l-91 -518 ZM180 -288 q-47 0 -82 15 q-35 15 -55 39 l64 98 q28 -31 68 -31 q37 0 59.5 28 q22.5 28 33.5 90 l93 533 l138 0 l-97 -559 q-20 -111 -80 -162 q-60 -51 -142 -51 Z" /><glyph glyph-name="imacron" unicode="&#x12b;" d="M357 582 l-342 0 l16 95 l342 0 l-16 -95 ZM7 -34 l92 518 l139 0 l-92 -518 l-139 0 Z" /><glyph glyph-name="iogonek" unicode="&#x12f;" d="M195 720 q34 0 58.5 -25 q24.5 -25 24.5 -60 q0 -34 -24.5 -59.5 q-24.5 -25.5 -58.5 -25.5 q-34 0 -58.5 25.5 q-24.5 25.5 -24.5 59.5 q0 35 24.5 60 q24.5 25 58.5 25 ZM146 -34 q-64 -29 -96 -56 q-32 -27 -38 -62 q-1 -4 -1 -11 q0 -18 11 -28 q11 -10 30 -10 q37 0 80 35 l40 -70 q-56 -49 -128 -49 q-59 0 -96 28 q-37 28 -37 79 q0 48 26 84.5 q26 36.5 71 66.5 l91 511 l139 0 l-92 -518 Z" /><glyph glyph-name="itilde" unicode="&#x129;" d="M-9 565 q13 72 52 110.5 q39 38.5 94 38.5 q32 0 50.5 -12 q18.5 -12 34.5 -32 q12 -13 19 -18.5 q7 -5.5 17 -5.5 q31 0 45 53 l95 0 q-12 -71 -51.5 -110 q-39.5 -39 -94.5 -39 q-32 0 -50 11.5 q-18 11.5 -35 32.5 q-10 13 -17.5 19 q-7.5 6 -17.5 6 q-31 0 -46 -54 l-95 0 ZM7 -34 l92 518 l139 0 l-92 -518 l-139 0 Z" /><glyph glyph-name="j" unicode="j" d="M185 550 q-31 0 -52 23 q-21 23 -21 56 q0 36 26.5 63.5 q26.5 27.5 59.5 27.5 q33 0 54.5 -23 q21.5 -23 21.5 -56 q0 -10 -1 -16 q-5 -30 -30.5 -52.5 q-25.5 -22.5 -57.5 -22.5 ZM-83 -288 q-47 0 -82 15 q-35 15 -55 39 l65 98 q27 -31 67 -31 q37 0 59.5 28 q22.5 28 33.5 90 l93 533 l138 0 l-97 -559 q-20 -111 -80 -162 q-60 -51 -142 -51 Z" /><glyph glyph-name="uni0237" unicode="&#x237;" d="M-85 -288 q-49 0 -85 16 q-36 16 -54 41 l63 95 q28 -31 68 -31 q37 0 59.5 28 q22.5 28 33.5 90 l93 533 l138 0 l-97 -559 q-20 -111 -79.5 -162 q-59.5 -51 -139.5 -51 Z" /><glyph glyph-name="uni01F0" unicode="&#x1f0;" d="M138 714 l47 -79 l74 79 l125 0 l-158 -165 l-103 0 l-100 165 l115 0 ZM-85 -288 q-49 0 -85 16 q-36 16 -54 41 l63 95 q28 -31 68 -31 q37 0 59.5 28 q22.5 28 33.5 90 l93 533 l138 0 l-97 -559 q-20 -111 -79.5 -162 q-59.5 -51 -139.5 -51 Z" /><glyph glyph-name="jcircumflex" unicode="&#x135;" d="M148 714 l104 0 l100 -165 l-115 0 l-47 80 l-74 -80 l-125 0 l157 165 ZM-85 -288 q-49 0 -85 16 q-36 16 -54 41 l63 95 q28 -31 68 -31 q37 0 59.5 28 q22.5 28 33.5 90 l93 533 l138 0 l-97 -559 q-20 -111 -79.5 -162 q-59.5 -51 -139.5 -51 Z" /><glyph glyph-name="k" unicode="k" d="M201 276 l228 208 l168 0 l-228 -204 l157 -314 l-163 0 l-104 215 l-89 -78 l-24 -137 l-139 0 l135 761 l139 0 l-80 -451 Z" /><glyph glyph-name="uni01E9" unicode="&#x1e9;" d="M183 921 l48 -67 l72 67 l123 0 l-154 -142 l-103 0 l-103 142 l117 0 ZM201 276 l228 208 l168 0 l-228 -204 l157 -314 l-163 0 l-104 215 l-89 -78 l-24 -137 l-139 0 l135 761 l139 0 l-80 -451 Z" /><glyph glyph-name="uni0137" unicode="&#x137;" d="M429 484 l168 0 l-228 -204 l157 -314 l-163 0 l-104 215 l-89 -78 l-24 -137 l-139 0 l135 761 l139 0 l-80 -451 l228 208 ZM236 -67 q37 0 58 -20 q21 -20 21 -56 q0 -8 -2 -24 q-10 -57 -55 -87.5 q-45 -30.5 -121 -34.5 l8 58 q66 10 83 42 l-1 0 q-31 0 -48.5 15.5 q-17.5 15.5 -17.5 40.5 q0 32 21.5 49 q21.5 17 53.5 17 Z" /><glyph glyph-name="kgreenlandic" unicode="&#x138;" d="M201 275 l230 209 l167 0 l-228 -204 l157 -314 l-163 0 l-104 215 l-89 -79 l-24 -136 l-139 0 l91 518 l139 0 l-37 -209 Z" /><glyph glyph-name="l" unicode="l" d="M145 -34 l-137 0 l134 761 l137 0 l-134 -761 Z" /><glyph glyph-name="lacute" unicode="&#x13a;" d="M284 782 l-117 0 l119 149 l148 0 l-150 -149 ZM145 -34 l-137 0 l134 761 l137 0 l-134 -761 Z" /><glyph glyph-name="lcaron" unicode="&#x13e;" d="M375 731 q29 0 46.5 -17.5 q17.5 -17.5 17.5 -53.5 q0 -6 -2 -24 q-12 -62 -52 -97.5 q-40 -35.5 -99 -43.5 l3 59 q53 8 72 46 q-23 2 -37 18 q-14 16 -14 41 q0 34 18.5 53 q18.5 19 46.5 19 ZM145 -34 l-137 0 l134 761 l137 0 l-134 -761 Z" /><glyph glyph-name="uni013C" unicode="&#x13c;" d="M8 -34 l134 761 l137 0 l-134 -761 l-137 0 ZM59 -67 q37 0 58 -20 q21 -20 21 -56 q0 -8 -2 -24 q-10 -57 -55 -87.5 q-45 -30.5 -121 -34.5 l8 58 q67 10 83 42 l-1 0 q-31 0 -48.5 15.5 q-17.5 15.5 -17.5 40.5 q0 32 21.5 49 q21.5 17 53.5 17 Z" /><glyph glyph-name="ldot" unicode="&#x140;" d="M145 -34 l-137 0 l134 761 l137 0 l-134 -761 ZM302 273 q-31 0 -52 21 q-21 21 -21 55 q0 35 21 55.5 q21 20.5 52 20.5 q32 0 52.5 -20.5 q20.5 -20.5 20.5 -55.5 q0 -34 -20.5 -55 q-20.5 -21 -52.5 -21 Z" /><glyph glyph-name="lslash" unicode="&#x142;" d="M300 727 l-46 -266 l80 43 l-25 -140 l-80 -43 l-63 -355 l-137 0 l48 272 l-82 -44 l25 140 l82 44 l61 349 l137 0 Z" /><glyph glyph-name="m" unicode="m" d="M775 441 q34 -45 34 -123 q0 -30 -6 -66 l-51 -286 l-134 0 l47 265 q5 30 5 52 q0 41 -16 65.5 q-16 24.5 -49 24.5 q-37 0 -67 -31.5 q-30 -31.5 -41 -89.5 l-51 -286 l-134 0 l48 265 q5 30 5 52 q0 41 -16 65.5 q-16 24.5 -49 24.5 q-38 0 -68 -31.5 q-30 -31.5 -41 -90.5 l-49 -285 l-134 0 l91 518 l117 -1 q-2 -14 -2 -22 q-2 -12 -4 -40 q56 76 143 76 q76 0 117 -56 q13 -17 22 -42 q32 51 75 74.5 q43 23.5 91 23.5 q78 0 117 -56 Z" /><glyph glyph-name="uni1E3F" unicode="&#x1e3f;" d="M531 549 l-113 0 l120 165 l143 0 l-150 -165 ZM775 441 q34 -45 34 -123 q0 -30 -6 -66 l-51 -286 l-134 0 l47 265 q5 30 5 52 q0 41 -16 65.5 q-16 24.5 -49 24.5 q-37 0 -67 -31.5 q-30 -31.5 -41 -89.5 l-51 -286 l-134 0 l48 265 q5 30 5 52 q0 41 -16 65.5 q-16 24.5 -49 24.5 q-38 0 -68 -31.5 q-30 -31.5 -41 -90.5 l-49 -285 l-134 0 l91 518 l117 -1 q-2 -14 -2 -22 q-2 -12 -4 -40 q56 76 143 76 q76 0 117 -56 q13 -17 22 -42 q32 51 75 74.5 q43 23.5 91 23.5 q78 0 117 -56 Z" /><glyph glyph-name="n" unicode="n" d="M379 497 q74 0 118.5 -45.5 q44.5 -45.5 44.5 -131.5 q0 -31 -6 -67 l-50 -287 l-138 0 l45 262 q5 30 5 51 q0 43 -17.5 68.5 q-17.5 25.5 -56.5 25.5 q-47 0 -84 -36 q-37 -36 -48 -102 l-47 -269 l-137 0 l91 518 l120 0 q-2 -16 -7 -71 q31 42 74.5 63 q43.5 21 92.5 21 Z" /><glyph glyph-name="nacute" unicode="&#x144;" d="M389 549 l-113 0 l120 165 l143 0 l-150 -165 ZM379 497 q74 0 118.5 -45.5 q44.5 -45.5 44.5 -131.5 q0 -31 -6 -67 l-50 -287 l-138 0 l45 262 q5 30 5 51 q0 43 -17.5 68.5 q-17.5 25.5 -56.5 25.5 q-47 0 -84 -36 q-37 -36 -48 -102 l-47 -269 l-137 0 l91 518 l120 0 q-2 -16 -7 -71 q31 42 74.5 63 q43.5 21 92.5 21 Z" /><glyph glyph-name="napostrophe" unicode="&#x149;" d="M209 643 q-11 -59 -56.5 -96 q-45.5 -37 -111.5 -45 l2 58 q60 11 82 49 q-28 2 -44.5 20 q-16.5 18 -16.5 43 q0 28 21 48 q21 20 51 20 q32 0 53.5 -20.5 q21.5 -20.5 21.5 -56.5 q0 -6 -2 -20 ZM379 497 q74 0 118.5 -45.5 q44.5 -45.5 44.5 -131.5 q0 -31 -6 -67 l-50 -287 l-138 0 l45 262 q5 30 5 51 q0 43 -17.5 68.5 q-17.5 25.5 -56.5 25.5 q-47 0 -84 -36 q-37 -36 -48 -102 l-47 -269 l-137 0 l91 518 l120 0 q-2 -16 -7 -71 q31 42 74.5 63 q43.5 21 92.5 21 Z" /><glyph glyph-name="ncaron" unicode="&#x148;" d="M305 714 l47 -79 l74 79 l125 0 l-157 -165 l-104 0 l-99 165 l114 0 ZM379 497 q74 0 118.5 -45.5 q44.5 -45.5 44.5 -131.5 q0 -31 -6 -67 l-50 -287 l-138 0 l45 262 q5 30 5 51 q0 43 -17.5 68.5 q-17.5 25.5 -56.5 25.5 q-47 0 -84 -36 q-37 -36 -48 -102 l-47 -269 l-137 0 l91 518 l120 0 q-2 -16 -7 -71 q31 42 74.5 63 q43.5 21 92.5 21 Z" /><glyph glyph-name="uni0146" unicode="&#x146;" d="M379 497 q74 0 118.5 -45.5 q44.5 -45.5 44.5 -131.5 q0 -31 -6 -67 l-50 -287 l-138 0 l45 262 q5 30 5 51 q0 43 -17.5 68.5 q-17.5 25.5 -56.5 25.5 q-47 0 -84 -36 q-37 -36 -48 -102 l-47 -269 l-137 0 l91 518 l120 0 q-2 -16 -7 -71 q31 42 74.5 63 q43.5 21 92.5 21 ZM229 -67 q36 0 57.5 -20.5 q21.5 -20.5 21.5 -56.5 q0 -7 -2 -23 q-10 -57 -55 -87.5 q-45 -30.5 -122 -34.5 l9 58 q66 10 82 42 q-31 0 -48.5 15.5 q-17.5 15.5 -17.5 40.5 q0 32 21.5 49 q21.5 17 53.5 17 Z" /><glyph glyph-name="uni01F9" unicode="&#x1f9;" d="M296 549 l-92 165 l137 0 l61 -165 l-106 0 ZM379 497 q74 0 118.5 -45.5 q44.5 -45.5 44.5 -131.5 q0 -31 -6 -67 l-50 -287 l-138 0 l45 262 q5 30 5 51 q0 43 -17.5 68.5 q-17.5 25.5 -56.5 25.5 q-47 0 -84 -36 q-37 -36 -48 -102 l-47 -269 l-137 0 l91 518 l120 0 q-2 -16 -7 -71 q31 42 74.5 63 q43.5 21 92.5 21 Z" /><glyph glyph-name="eng" unicode="&#x14b;" d="M379 497 q74 0 118.5 -45.5 q44.5 -45.5 44.5 -131.5 q0 -31 -6 -67 l-58 -333 q-20 -110 -77.5 -159 q-57.5 -49 -134.5 -49 q-80 0 -128 50 l64 93 q19 -22 54 -22 q36 0 56.5 26.5 q20.5 26.5 30.5 81.5 l50 287 q5 30 5 51 q0 43 -17.5 68.5 q-17.5 25.5 -56.5 25.5 q-47 0 -83.5 -36 q-36.5 -36 -48.5 -102 l-47 -269 l-137 0 l91 518 l120 0 q-2 -16 -7 -71 q31 42 74.5 63 q43.5 21 92.5 21 Z" /><glyph glyph-name="ntilde" unicode="ñ" d="M152 565 q13 72 52 110.5 q39 38.5 94 38.5 q32 0 50.5 -12 q18.5 -12 34.5 -32 q12 -13 19 -18.5 q7 -5.5 17 -5.5 q31 0 45 53 l95 0 q-12 -71 -51.5 -110 q-39.5 -39 -94.5 -39 q-32 0 -50 11.5 q-18 11.5 -35 32.5 q-10 13 -17.5 19 q-7.5 6 -17.5 6 q-31 0 -46 -54 l-95 0 ZM379 497 q74 0 118.5 -45.5 q44.5 -45.5 44.5 -131.5 q0 -31 -6 -67 l-50 -287 l-138 0 l45 262 q5 30 5 51 q0 43 -17.5 68.5 q-17.5 25.5 -56.5 25.5 q-47 0 -84 -36 q-37 -36 -48 -102 l-47 -269 l-137 0 l91 518 l120 0 q-2 -16 -7 -71 q31 42 74.5 63 q43.5 21 92.5 21 Z" /><glyph glyph-name="o" unicode="o" d="M30 250 q13 79 56 134.5 q43 55.5 103.5 84 q60.5 28.5 124.5 28.5 q68 0 121.5 -30.5 q53.5 -30.5 83.5 -85.5 q30 -55 30 -125 q0 -24 -5 -56 q-14 -79 -57 -134.5 q-43 -55.5 -102.5 -83.5 q-59.5 -28 -123.5 -28 q-68 0 -121.5 30.5 q-53.5 30.5 -84 84.5 q-30.5 54 -30.5 123 q0 33 5 58 ZM170 236 q-4 -20 -4 -42 q0 -54 27 -86.5 q27 -32.5 74 -32.5 q49 0 86.5 35.5 q37.5 35.5 49.5 103.5 q4 30 4 42 q0 54 -26.5 87 q-26.5 33 -73.5 33 q-49 0 -87.5 -36 q-38.5 -36 -49.5 -104 Z" /><glyph glyph-name="oacute" unicode="ó" d="M392 549 l-113 0 l119 165 l143 0 l-149 -165 ZM30 250 q13 79 56 134.5 q43 55.5 103.5 84 q60.5 28.5 124.5 28.5 q68 0 121.5 -30.5 q53.5 -30.5 83.5 -85.5 q30 -55 30 -125 q0 -24 -5 -56 q-14 -79 -57 -134.5 q-43 -55.5 -102.5 -83.5 q-59.5 -28 -123.5 -28 q-68 0 -121.5 30.5 q-53.5 30.5 -84 84.5 q-30.5 54 -30.5 123 q0 33 5 58 ZM170 236 q-4 -20 -4 -42 q0 -54 27 -86.5 q27 -32.5 74 -32.5 q49 0 86.5 35.5 q37.5 35.5 49.5 103.5 q4 30 4 42 q0 54 -26.5 87 q-26.5 33 -73.5 33 q-49 0 -87.5 -36 q-38.5 -36 -49.5 -104 Z" /><glyph glyph-name="obreve" unicode="&#x14f;" d="M355 548 q-75 0 -118.5 37.5 q-43.5 37.5 -43.5 98.5 q0 19 2 29 l109 0 q-3 -36 11 -57 q14 -21 48 -21 q31 0 50 19 q19 19 30 59 l108 0 q-15 -82 -66.5 -123.5 q-51.5 -41.5 -129.5 -41.5 ZM30 250 q13 79 56 134.5 q43 55.5 103.5 84 q60.5 28.5 124.5 28.5 q68 0 121.5 -30.5 q53.5 -30.5 83.5 -85.5 q30 -55 30 -125 q0 -24 -5 -56 q-14 -79 -57 -134.5 q-43 -55.5 -102.5 -83.5 q-59.5 -28 -123.5 -28 q-68 0 -121.5 30.5 q-53.5 30.5 -84 84.5 q-30.5 54 -30.5 123 q0 33 5 58 ZM170 236 q-4 -20 -4 -42 q0 -54 27 -86.5 q27 -32.5 74 -32.5 q49 0 86.5 35.5 q37.5 35.5 49.5 103.5 q4 30 4 42 q0 54 -26.5 87 q-26.5 33 -73.5 33 q-49 0 -87.5 -36 q-38.5 -36 -49.5 -104 Z" /><glyph glyph-name="uni01D2" unicode="&#x1d2;" d="M308 714 l47 -80 l74 80 l125 0 l-158 -165 l-103 0 l-100 165 l115 0 ZM30 250 q13 79 56 134.5 q43 55.5 103.5 84 q60.5 28.5 124.5 28.5 q68 0 121.5 -30.5 q53.5 -30.5 83.5 -85.5 q30 -55 30 -125 q0 -24 -5 -56 q-14 -79 -57 -134.5 q-43 -55.5 -102.5 -83.5 q-59.5 -28 -123.5 -28 q-68 0 -121.5 30.5 q-53.5 30.5 -84 84.5 q-30.5 54 -30.5 123 q0 33 5 58 ZM170 236 q-4 -20 -4 -42 q0 -54 27 -86.5 q27 -32.5 74 -32.5 q49 0 86.5 35.5 q37.5 35.5 49.5 103.5 q4 30 4 42 q0 54 -26.5 87 q-26.5 33 -73.5 33 q-49 0 -87.5 -36 q-38.5 -36 -49.5 -104 Z" /><glyph glyph-name="ocircumflex" unicode="ô" d="M318 714 l104 0 l100 -165 l-115 0 l-47 79 l-74 -79 l-125 0 l157 165 ZM30 250 q13 79 56 134.5 q43 55.5 103.5 84 q60.5 28.5 124.5 28.5 q68 0 121.5 -30.5 q53.5 -30.5 83.5 -85.5 q30 -55 30 -125 q0 -24 -5 -56 q-14 -79 -57 -134.5 q-43 -55.5 -102.5 -83.5 q-59.5 -28 -123.5 -28 q-68 0 -121.5 30.5 q-53.5 30.5 -84 84.5 q-30.5 54 -30.5 123 q0 33 5 58 ZM170 236 q-4 -20 -4 -42 q0 -54 27 -86.5 q27 -32.5 74 -32.5 q49 0 86.5 35.5 q37.5 35.5 49.5 103.5 q4 30 4 42 q0 54 -26.5 87 q-26.5 33 -73.5 33 q-49 0 -87.5 -36 q-38.5 -36 -49.5 -104 Z" /><glyph glyph-name="uni1ED1" unicode="&#x1ed1;" d="M550 738 l-113 0 l106 142 l140 0 l-133 -142 ZM315 714 l104 0 l99 -165 l-116 0 l-47 79 l-74 -79 l-123 0 l157 165 ZM30 250 q13 79 56 134.5 q43 55.5 103.5 84 q60.5 28.5 124.5 28.5 q68 0 121.5 -30.5 q53.5 -30.5 83.5 -85.5 q30 -55 30 -125 q0 -24 -5 -56 q-14 -79 -57 -134.5 q-43 -55.5 -102.5 -83.5 q-59.5 -28 -123.5 -28 q-68 0 -121.5 30.5 q-53.5 30.5 -84 84.5 q-30.5 54 -30.5 123 q0 33 5 58 ZM170 236 q-4 -20 -4 -42 q0 -54 27 -86.5 q27 -32.5 74 -32.5 q49 0 86.5 35.5 q37.5 35.5 49.5 103.5 q4 30 4 42 q0 54 -26.5 87 q-26.5 33 -73.5 33 q-49 0 -87.5 -36 q-38.5 -36 -49.5 -104 Z" /><glyph glyph-name="uni1ED9" unicode="&#x1ed9;" d="M318 714 l104 0 l100 -165 l-115 0 l-47 79 l-74 -79 l-125 0 l157 165 ZM30 250 q13 79 56 134.5 q43 55.5 103.5 84 q60.5 28.5 124.5 28.5 q68 0 121.5 -30.5 q53.5 -30.5 83.5 -85.5 q30 -55 30 -125 q0 -24 -5 -56 q-14 -79 -57 -134.5 q-43 -55.5 -102.5 -83.5 q-59.5 -28 -123.5 -28 q-68 0 -121.5 30.5 q-53.5 30.5 -84 84.5 q-30.5 54 -30.5 123 q0 33 5 58 ZM170 236 q-4 -20 -4 -42 q0 -54 27 -86.5 q27 -32.5 74 -32.5 q49 0 86.5 35.5 q37.5 35.5 49.5 103.5 q4 30 4 42 q0 54 -26.5 87 q-26.5 33 -73.5 33 q-49 0 -87.5 -36 q-38.5 -36 -49.5 -104 ZM217 -262 q-34 0 -58 25 q-24 25 -24 60 q0 35 24 59.5 q24 24.5 58 24.5 q34 0 58.5 -25 q24.5 -25 24.5 -59 q0 -35 -24.5 -60 q-24.5 -25 -58.5 -25 Z" /><glyph glyph-name="uni1ED3" unicode="&#x1ed3;" d="M456 738 l-83 142 l133 0 l56 -142 l-106 0 ZM315 714 l104 0 l99 -165 l-116 0 l-47 79 l-74 -79 l-123 0 l157 165 ZM30 250 q13 79 56 134.5 q43 55.5 103.5 84 q60.5 28.5 124.5 28.5 q68 0 121.5 -30.5 q53.5 -30.5 83.5 -85.5 q30 -55 30 -125 q0 -24 -5 -56 q-14 -79 -57 -134.5 q-43 -55.5 -102.5 -83.5 q-59.5 -28 -123.5 -28 q-68 0 -121.5 30.5 q-53.5 30.5 -84 84.5 q-30.5 54 -30.5 123 q0 33 5 58 ZM170 236 q-4 -20 -4 -42 q0 -54 27 -86.5 q27 -32.5 74 -32.5 q49 0 86.5 35.5 q37.5 35.5 49.5 103.5 q4 30 4 42 q0 54 -26.5 87 q-26.5 33 -73.5 33 q-49 0 -87.5 -36 q-38.5 -36 -49.5 -104 Z" /><glyph glyph-name="uni1ED5" unicode="&#x1ed5;" d="M415 882 q39 25 100 25 q53 0 86.5 -25.5 q33.5 -25.5 33.5 -70.5 q0 -51 -34.5 -79.5 q-34.5 -28.5 -98.5 -48.5 l-46 66 q38 12 57 22.5 q19 10.5 22 28.5 q1 12 -7 20 q-8 8 -26 8 q-34 0 -74 -26 l-13 80 ZM315 714 l104 0 l99 -165 l-116 0 l-47 79 l-74 -79 l-123 0 l157 165 ZM30 250 q13 79 56 134.5 q43 55.5 103.5 84 q60.5 28.5 124.5 28.5 q68 0 121.5 -30.5 q53.5 -30.5 83.5 -85.5 q30 -55 30 -125 q0 -24 -5 -56 q-14 -79 -57 -134.5 q-43 -55.5 -102.5 -83.5 q-59.5 -28 -123.5 -28 q-68 0 -121.5 30.5 q-53.5 30.5 -84 84.5 q-30.5 54 -30.5 123 q0 33 5 58 ZM170 236 q-4 -20 -4 -42 q0 -54 27 -86.5 q27 -32.5 74 -32.5 q49 0 86.5 35.5 q37.5 35.5 49.5 103.5 q4 30 4 42 q0 54 -26.5 87 q-26.5 33 -73.5 33 q-49 0 -87.5 -36 q-38.5 -36 -49.5 -104 Z" /><glyph glyph-name="uni1ED7" unicode="&#x1ed7;" d="M591 888 q-12 -72 -51.5 -110.5 q-39.5 -38.5 -94.5 -38.5 q-32 0 -49 11 q-17 11 -36 32 q-10 13 -18 19 q-8 6 -18 6 q-30 0 -45 -54 l-95 0 q13 73 52 111 q39 38 94 38 q32 0 50.5 -12 q18.5 -12 34.5 -32 q11 -13 18 -18.5 q7 -5.5 17 -5.5 q15 0 27 14 q12 14 19 40 l95 0 ZM317 714 l104 0 l99 -165 l-116 0 l-47 79 l-74 -79 l-123 0 l157 165 ZM30 250 q13 79 56 134.5 q43 55.5 103.5 84 q60.5 28.5 124.5 28.5 q68 0 121.5 -30.5 q53.5 -30.5 83.5 -85.5 q30 -55 30 -125 q0 -24 -5 -56 q-14 -79 -57 -134.5 q-43 -55.5 -102.5 -83.5 q-59.5 -28 -123.5 -28 q-68 0 -121.5 30.5 q-53.5 30.5 -84 84.5 q-30.5 54 -30.5 123 q0 33 5 58 ZM170 236 q-4 -20 -4 -42 q0 -54 27 -86.5 q27 -32.5 74 -32.5 q49 0 86.5 35.5 q37.5 35.5 49.5 103.5 q4 30 4 42 q0 54 -26.5 87 q-26.5 33 -73.5 33 q-49 0 -87.5 -36 q-38.5 -36 -49.5 -104 Z" /><glyph glyph-name="odieresis" unicode="ö" d="M245 554 q-30 0 -52 23 q-22 23 -22 54 q0 32 21.5 54.5 q21.5 22.5 52.5 22.5 q32 0 54 -22.5 q22 -22.5 22 -54.5 q0 -31 -22 -54 q-22 -23 -54 -23 ZM469 554 q-31 0 -52.5 23 q-21.5 23 -21.5 54 q0 32 21.5 54.5 q21.5 22.5 52.5 22.5 q31 0 53.5 -22.5 q22.5 -22.5 22.5 -54.5 q0 -31 -22.5 -54 q-22.5 -23 -53.5 -23 ZM30 250 q13 79 56 134.5 q43 55.5 103.5 84 q60.5 28.5 124.5 28.5 q68 0 121.5 -30.5 q53.5 -30.5 83.5 -85.5 q30 -55 30 -125 q0 -24 -5 -56 q-14 -79 -57 -134.5 q-43 -55.5 -102.5 -83.5 q-59.5 -28 -123.5 -28 q-68 0 -121.5 30.5 q-53.5 30.5 -84 84.5 q-30.5 54 -30.5 123 q0 33 5 58 ZM170 236 q-4 -20 -4 -42 q0 -54 27 -86.5 q27 -32.5 74 -32.5 q49 0 86.5 35.5 q37.5 35.5 49.5 103.5 q4 30 4 42 q0 54 -26.5 87 q-26.5 33 -73.5 33 q-49 0 -87.5 -36 q-38.5 -36 -49.5 -104 Z" /><glyph glyph-name="uni1ECD" unicode="&#x1ecd;" d="M30 250 q13 79 56 134.5 q43 55.5 103.5 84 q60.5 28.5 124.5 28.5 q68 0 121.5 -30.5 q53.5 -30.5 83.5 -85.5 q30 -55 30 -125 q0 -24 -5 -56 q-14 -79 -57 -134.5 q-43 -55.5 -102.5 -83.5 q-59.5 -28 -123.5 -28 q-68 0 -121.5 30.5 q-53.5 30.5 -84 84.5 q-30.5 54 -30.5 123 q0 33 5 58 ZM170 236 q-4 -20 -4 -42 q0 -54 27 -86.5 q27 -32.5 74 -32.5 q49 0 86.5 35.5 q37.5 35.5 49.5 103.5 q4 30 4 42 q0 54 -26.5 87 q-26.5 33 -73.5 33 q-49 0 -87.5 -36 q-38.5 -36 -49.5 -104 ZM217 -262 q-34 0 -58 25 q-24 25 -24 60 q0 35 24 59.5 q24 24.5 58 24.5 q34 0 58.5 -25 q24.5 -25 24.5 -59 q0 -35 -24.5 -60 q-24.5 -25 -58.5 -25 Z" /><glyph glyph-name="ograve" unicode="ò" d="M299 549 l-92 165 l136 0 l61 -165 l-105 0 ZM30 250 q13 79 56 134.5 q43 55.5 103.5 84 q60.5 28.5 124.5 28.5 q68 0 121.5 -30.5 q53.5 -30.5 83.5 -85.5 q30 -55 30 -125 q0 -24 -5 -56 q-14 -79 -57 -134.5 q-43 -55.5 -102.5 -83.5 q-59.5 -28 -123.5 -28 q-68 0 -121.5 30.5 q-53.5 30.5 -84 84.5 q-30.5 54 -30.5 123 q0 33 5 58 ZM170 236 q-4 -20 -4 -42 q0 -54 27 -86.5 q27 -32.5 74 -32.5 q49 0 86.5 35.5 q37.5 35.5 49.5 103.5 q4 30 4 42 q0 54 -26.5 87 q-26.5 33 -73.5 33 q-49 0 -87.5 -36 q-38.5 -36 -49.5 -104 Z" /><glyph glyph-name="uni1ECF" unicode="&#x1ecf;" d="M251 721 q39 25 99 25 q53 0 86.5 -25.5 q33.5 -25.5 33.5 -70.5 q0 -52 -34 -80 q-34 -28 -99 -48 l-45 66 q40 13 59 24.5 q19 11.5 19 30.5 q0 10 -8.5 17 q-8.5 7 -24.5 7 q-34 0 -74 -26 l-12 80 ZM30 250 q13 79 56 134.5 q43 55.5 103.5 84 q60.5 28.5 124.5 28.5 q68 0 121.5 -30.5 q53.5 -30.5 83.5 -85.5 q30 -55 30 -125 q0 -24 -5 -56 q-14 -79 -57 -134.5 q-43 -55.5 -102.5 -83.5 q-59.5 -28 -123.5 -28 q-68 0 -121.5 30.5 q-53.5 30.5 -84 84.5 q-30.5 54 -30.5 123 q0 33 5 58 ZM170 236 q-4 -20 -4 -42 q0 -54 27 -86.5 q27 -32.5 74 -32.5 q49 0 86.5 35.5 q37.5 35.5 49.5 103.5 q4 30 4 42 q0 54 -26.5 87 q-26.5 33 -73.5 33 q-49 0 -87.5 -36 q-38.5 -36 -49.5 -104 Z" /><glyph glyph-name="ohorn" unicode="&#x1a1;" d="M660 610 q2 -30 2 -43 q0 -86 -35 -128 q-35 -42 -123 -46 q45 -54 45 -137 q0 -23 -5 -56 q-14 -79 -57 -134.5 q-43 -55.5 -102.5 -83.5 q-59.5 -28 -123.5 -28 q-68 0 -121.5 30.5 q-53.5 30.5 -84 84.5 q-30.5 54 -30.5 123 q0 33 5 58 q13 79 57 135 q44 56 108 84 q64 28 137 28 q36 0 84 -8 q10 -1 26 -3 q16 -2 26 -2 q53 0 68.5 35 q15.5 35 11.5 91 l112 0 ZM403 214 q4 30 4 42 q0 54 -26.5 87 q-26.5 33 -73.5 33 q-49 0 -87.5 -36 q-38.5 -36 -49.5 -104 q-4 -20 -4 -42 q0 -54 27 -86.5 q27 -32.5 74 -32.5 q49 0 86.5 35.5 q37.5 35.5 49.5 103.5 Z" /><glyph glyph-name="uni1EDB" unicode="&#x1edb;" d="M400 714 l143 0 l-149 -165 l-113 0 l119 165 ZM660 610 q2 -30 2 -43 q0 -86 -35 -128 q-35 -42 -123 -46 q45 -54 45 -137 q0 -23 -5 -56 q-14 -79 -57 -134.5 q-43 -55.5 -102.5 -83.5 q-59.5 -28 -123.5 -28 q-68 0 -121.5 30.5 q-53.5 30.5 -84 84.5 q-30.5 54 -30.5 123 q0 33 5 58 q13 79 57 135 q44 56 108 84 q64 28 137 28 q36 0 84 -8 q10 -1 26 -3 q16 -2 26 -2 q53 0 68.5 35 q15.5 35 11.5 91 l112 0 ZM403 214 q4 30 4 42 q0 54 -26.5 87 q-26.5 33 -73.5 33 q-49 0 -87.5 -36 q-38.5 -36 -49.5 -104 q-4 -20 -4 -42 q0 -54 27 -86.5 q27 -32.5 74 -32.5 q49 0 86.5 35.5 q37.5 35.5 49.5 103.5 Z" /><glyph glyph-name="uni1EE3" unicode="&#x1ee3;" d="M660 610 q2 -30 2 -43 q0 -86 -35 -128 q-35 -42 -123 -46 q45 -54 45 -137 q0 -23 -5 -56 q-14 -79 -57 -134.5 q-43 -55.5 -102.5 -83.5 q-59.5 -28 -123.5 -28 q-68 0 -121.5 30.5 q-53.5 30.5 -84 84.5 q-30.5 54 -30.5 123 q0 33 5 58 q13 79 57 135 q44 56 108 84 q64 28 137 28 q36 0 84 -8 q10 -1 26 -3 q16 -2 26 -2 q53 0 68.5 35 q15.5 35 11.5 91 l112 0 ZM403 214 q4 30 4 42 q0 54 -26.5 87 q-26.5 33 -73.5 33 q-49 0 -87.5 -36 q-38.5 -36 -49.5 -104 q-4 -20 -4 -42 q0 -54 27 -86.5 q27 -32.5 74 -32.5 q49 0 86.5 35.5 q37.5 35.5 49.5 103.5 ZM217 -93 q34 0 58.5 -25 q24.5 -25 24.5 -59 q0 -35 -24.5 -60 q-24.5 -25 -58.5 -25 q-34 0 -58 25 q-24 25 -24 60 q0 35 24 59.5 q24 24.5 58 24.5 Z" /><glyph glyph-name="uni1EDD" unicode="&#x1edd;" d="M345 714 l61 -165 l-106 0 l-91 165 l136 0 ZM660 610 q2 -30 2 -43 q0 -86 -35 -128 q-35 -42 -123 -46 q45 -54 45 -137 q0 -23 -5 -56 q-14 -79 -57 -134.5 q-43 -55.5 -102.5 -83.5 q-59.5 -28 -123.5 -28 q-68 0 -121.5 30.5 q-53.5 30.5 -84 84.5 q-30.5 54 -30.5 123 q0 33 5 58 q13 79 57 135 q44 56 108 84 q64 28 137 28 q36 0 84 -8 q10 -1 26 -3 q16 -2 26 -2 q53 0 68.5 35 q15.5 35 11.5 91 l112 0 ZM403 214 q4 30 4 42 q0 54 -26.5 87 q-26.5 33 -73.5 33 q-49 0 -87.5 -36 q-38.5 -36 -49.5 -104 q-4 -20 -4 -42 q0 -54 27 -86.5 q27 -32.5 74 -32.5 q49 0 86.5 35.5 q37.5 35.5 49.5 103.5 Z" /><glyph glyph-name="uni1EDF" unicode="&#x1edf;" d="M339 667 q-34 0 -74 -26 l-12 80 q38 25 99 25 q53 0 86.5 -25.5 q33.5 -25.5 33.5 -70.5 q0 -51 -34.5 -79.5 q-34.5 -28.5 -98.5 -48.5 l-46 66 q37 12 56.5 23 q19.5 11 22.5 28 q1 12 -7 20 q-8 8 -26 8 ZM660 610 q2 -30 2 -43 q0 -86 -35 -128 q-35 -42 -123 -46 q45 -54 45 -137 q0 -23 -5 -56 q-14 -79 -57 -134.5 q-43 -55.5 -102.5 -83.5 q-59.5 -28 -123.5 -28 q-68 0 -121.5 30.5 q-53.5 30.5 -84 84.5 q-30.5 54 -30.5 123 q0 33 5 58 q13 79 57 135 q44 56 108 84 q64 28 137 28 q36 0 84 -8 q10 -1 26 -3 q16 -2 26 -2 q53 0 68.5 35 q15.5 35 11.5 91 l112 0 ZM403 214 q4 30 4 42 q0 54 -26.5 87 q-26.5 33 -73.5 33 q-49 0 -87.5 -36 q-38.5 -36 -49.5 -104 q-4 -20 -4 -42 q0 -54 27 -86.5 q27 -32.5 74 -32.5 q49 0 86.5 35.5 q37.5 35.5 49.5 103.5 Z" /><glyph glyph-name="uni1EE1" unicode="&#x1ee1;" d="M297 618 q-31 0 -46 -53 l-95 0 q13 72 52 110.5 q39 38.5 94 38.5 q32 0 50 -11.5 q18 -11.5 36 -33.5 q11 -13 18 -18.5 q7 -5.5 17 -5.5 q15 0 27 14 q12 14 19 40 l95 0 q-12 -72 -51.5 -110.5 q-39.5 -38.5 -95.5 -38.5 q-32 0 -49.5 11.5 q-17.5 11.5 -34.5 31.5 q-10 13 -18 19 q-8 6 -18 6 ZM660 610 q2 -30 2 -43 q0 -86 -35 -128 q-35 -42 -123 -46 q45 -54 45 -137 q0 -23 -5 -56 q-14 -79 -57 -134.5 q-43 -55.5 -102.5 -83.5 q-59.5 -28 -123.5 -28 q-68 0 -121.5 30.5 q-53.5 30.5 -84 84.5 q-30.5 54 -30.5 123 q0 33 5 58 q13 79 57 135 q44 56 108 84 q64 28 137 28 q36 0 84 -8 q10 -1 26 -3 q16 -2 26 -2 q53 0 68.5 35 q15.5 35 11.5 91 l112 0 ZM403 214 q4 30 4 42 q0 54 -26.5 87 q-26.5 33 -73.5 33 q-49 0 -87.5 -36 q-38.5 -36 -49.5 -104 q-4 -20 -4 -42 q0 -54 27 -86.5 q27 -32.5 74 -32.5 q49 0 86.5 35.5 q37.5 35.5 49.5 103.5 Z" /><glyph glyph-name="ohungarumlaut" unicode="&#x151;" d="M305 549 l-104 0 l120 165 l133 0 l-149 -165 ZM482 549 l-103 0 l120 165 l133 0 l-150 -165 ZM30 250 q13 79 56 134.5 q43 55.5 103.5 84 q60.5 28.5 124.5 28.5 q68 0 121.5 -30.5 q53.5 -30.5 83.5 -85.5 q30 -55 30 -125 q0 -24 -5 -56 q-14 -79 -57 -134.5 q-43 -55.5 -102.5 -83.5 q-59.5 -28 -123.5 -28 q-68 0 -121.5 30.5 q-53.5 30.5 -84 84.5 q-30.5 54 -30.5 123 q0 33 5 58 ZM170 236 q-4 -20 -4 -42 q0 -54 27 -86.5 q27 -32.5 74 -32.5 q49 0 86.5 35.5 q37.5 35.5 49.5 103.5 q4 30 4 42 q0 54 -26.5 87 q-26.5 33 -73.5 33 q-49 0 -87.5 -36 q-38.5 -36 -49.5 -104 Z" /><glyph glyph-name="omacron" unicode="&#x14d;" d="M520 582 l-342 0 l17 95 l342 0 l-17 -95 ZM30 250 q13 79 56 134.5 q43 55.5 103.5 84 q60.5 28.5 124.5 28.5 q68 0 121.5 -30.5 q53.5 -30.5 83.5 -85.5 q30 -55 30 -125 q0 -24 -5 -56 q-14 -79 -57 -134.5 q-43 -55.5 -102.5 -83.5 q-59.5 -28 -123.5 -28 q-68 0 -121.5 30.5 q-53.5 30.5 -84 84.5 q-30.5 54 -30.5 123 q0 33 5 58 ZM170 236 q-4 -20 -4 -42 q0 -54 27 -86.5 q27 -32.5 74 -32.5 q49 0 86.5 35.5 q37.5 35.5 49.5 103.5 q4 30 4 42 q0 54 -26.5 87 q-26.5 33 -73.5 33 q-49 0 -87.5 -36 q-38.5 -36 -49.5 -104 Z" /><glyph glyph-name="oslash" unicode="ø" d="M482 519 l124 0 l-101 -115 q45 -64 45 -149 q0 -23 -5 -55 q-14 -79 -57 -134.5 q-43 -55.5 -102.5 -83.5 q-59.5 -28 -123.5 -28 q-68 0 -122 31 l-47 -54 l-124 0 l101 116 q-44 59 -44 145 q0 25 5 58 q13 79 56 134.5 q43 55.5 103.5 84 q60.5 28.5 124.5 28.5 q67 0 121 -31 l46 53 ZM162 236 q-4 -17 -4 -39 q0 -24 6 -42 l186 212 q-19 9 -42 9 q-51 0 -93 -36 q-42 -36 -53 -104 ZM413 214 q3 20 3 37 q0 26 -6 45 l-184 -212 q18 -9 42 -9 q51 0 92 35.5 q41 35.5 53 103.5 Z" /><glyph glyph-name="oslashacute" unicode="&#x1ff;" d="M395 549 l-113 0 l119 165 l143 0 l-149 -165 ZM482 519 l124 0 l-101 -115 q45 -64 45 -149 q0 -23 -5 -55 q-14 -79 -57 -134.5 q-43 -55.5 -102.5 -83.5 q-59.5 -28 -123.5 -28 q-68 0 -122 31 l-47 -54 l-124 0 l101 116 q-44 59 -44 145 q0 25 5 58 q13 79 56 134.5 q43 55.5 103.5 84 q60.5 28.5 124.5 28.5 q67 0 121 -31 l46 53 ZM162 236 q-4 -17 -4 -39 q0 -24 6 -42 l186 212 q-19 9 -42 9 q-51 0 -93 -36 q-42 -36 -53 -104 ZM413 214 q3 20 3 37 q0 26 -6 45 l-184 -212 q18 -9 42 -9 q51 0 92 35.5 q41 35.5 53 103.5 Z" /><glyph glyph-name="otilde" unicode="õ" d="M155 565 q13 72 52 110.5 q39 38.5 94 38.5 q32 0 50 -11.5 q18 -11.5 35 -32.5 q10 -13 17.5 -19 q7.5 -6 17.5 -6 q15 0 27 14 q12 14 19 40 l95 0 q-12 -72 -51.5 -110.5 q-39.5 -38.5 -94.5 -38.5 q-32 0 -49 11 q-17 11 -36 32 q-10 13 -18 19 q-8 6 -18 6 q-30 0 -45 -53 l-95 0 ZM30 250 q13 79 56 134.5 q43 55.5 103.5 84 q60.5 28.5 124.5 28.5 q68 0 121.5 -30.5 q53.5 -30.5 83.5 -85.5 q30 -55 30 -125 q0 -24 -5 -56 q-14 -79 -57 -134.5 q-43 -55.5 -102.5 -83.5 q-59.5 -28 -123.5 -28 q-68 0 -121.5 30.5 q-53.5 30.5 -84 84.5 q-30.5 54 -30.5 123 q0 33 5 58 ZM170 236 q-4 -20 -4 -42 q0 -54 27 -86.5 q27 -32.5 74 -32.5 q49 0 86.5 35.5 q37.5 35.5 49.5 103.5 q4 30 4 42 q0 54 -26.5 87 q-26.5 33 -73.5 33 q-49 0 -87.5 -36 q-38.5 -36 -49.5 -104 Z" /><glyph glyph-name="oe" unicode="&#x153;" d="M655 71 q36 0 66 17.5 q30 17.5 52 51.5 l94 -70 q-32 -58 -93.5 -87 q-61.5 -29 -131.5 -29 q-64 0 -112 26.5 q-48 26.5 -74 76.5 q-36 -50 -87.5 -76.5 q-51.5 -26.5 -110.5 -26.5 q-66 0 -119.5 30 q-53.5 30 -83.5 84.5 q-30 54.5 -30 123.5 q0 33 5 58 q13 79 56 134.5 q43 55.5 102.5 84 q59.5 28.5 123.5 28.5 q64 0 111.5 -29 q47.5 -29 71.5 -81 q40 55 97.5 82.5 q57.5 27.5 122.5 27.5 q88 0 137 -43.5 q49 -43.5 49 -111.5 q0 -80 -68.5 -118.5 q-68.5 -38.5 -205.5 -38.5 q-39 0 -82 3 q1 -55 31.5 -86 q30.5 -31 78.5 -31 ZM705 384 q-45 0 -82.5 -25 q-37.5 -25 -56.5 -73 q56 -4 75 -4 q63 0 93.5 14 q30.5 14 30.5 44 q0 44 -60 44 ZM403 214 q4 30 4 42 q0 54 -26.5 87 q-26.5 33 -73.5 33 q-49 0 -87.5 -36 q-38.5 -36 -49.5 -104 q-4 -20 -4 -42 q0 -54 27 -86.5 q27 -32.5 74 -32.5 q49 0 86.5 35.5 q37.5 35.5 49.5 103.5 Z" /><glyph glyph-name="p" unicode="p" d="M370 497 q60 0 107.5 -29 q47.5 -29 74 -82 q26.5 -53 26.5 -122 q0 -30 -6 -65 q-14 -81 -53.5 -136.5 q-39.5 -55.5 -94 -82 q-54.5 -26.5 -113.5 -26.5 q-53 0 -92.5 22.5 q-39.5 22.5 -60.5 64.5 l-54 -316 l-138 0 l133 759 l120 0 q-4 -31 -6 -64 q32 41 72.5 59 q40.5 18 84.5 18 ZM298 78 q49 0 86 34 q37 34 48 100 q4 20 4 43 q0 56 -28 89.5 q-28 33.5 -77 33.5 q-48 0 -87.5 -32.5 q-39.5 -32.5 -51.5 -105.5 q-4 -28 -4 -40 q0 -59 30.5 -90.5 q30.5 -31.5 79.5 -31.5 Z" /><glyph glyph-name="thorn" unicode="þ" d="M371 497 q60 0 107 -29 q47 -29 73.5 -81.5 q26.5 -52.5 26.5 -120.5 q0 -32 -6 -67 q-13 -81 -52.5 -136.5 q-39.5 -55.5 -94 -82 q-54.5 -26.5 -113.5 -26.5 q-54 0 -93.5 22.5 q-39.5 22.5 -59.5 64.5 l-56 -317 l-137 0 l175 1003 l137 0 l-51 -292 q58 62 144 62 ZM298 78 q50 0 86 34 q36 34 48 100 q4 20 4 43 q0 56 -28 89.5 q-28 33.5 -77 33.5 q-47 0 -86.5 -32.5 q-39.5 -32.5 -51.5 -105.5 q-4 -20 -4 -42 q0 -57 30.5 -88.5 q30.5 -31.5 78.5 -31.5 Z" /><glyph glyph-name="q" unicode="q" d="M596 484 l-133 -759 l-137 0 l50 292 q-59 -63 -144 -63 q-60 0 -107.5 29 q-47.5 29 -74 82 q-26.5 53 -26.5 122 q0 31 6 65 q14 81 53.5 136 q39.5 55 94 82 q54.5 27 112.5 27 q57 0 98 -25 q41 -25 61 -73 q14 34 24 85 l123 0 ZM272 73 q48 0 86.5 31.5 q38.5 31.5 50.5 104.5 q4 20 4 42 q0 59 -30.5 90.5 q-30.5 31.5 -78.5 31.5 q-49 0 -85.5 -34 q-36.5 -34 -48.5 -100 q-4 -20 -4 -43 q0 -56 28 -89.5 q28 -33.5 78 -33.5 Z" /><glyph glyph-name="r" unicode="r" d="M357 497 q36 0 63 -15 q27 -15 40 -35 l-69 -104 q-26 29 -65 29 q-50 0 -86 -38 q-36 -38 -50 -108 l-45 -260 l-137 0 l91 518 l120 0 q-6 -52 -7 -76 q28 46 65.5 67.5 q37.5 21.5 79.5 21.5 Z" /><glyph glyph-name="racute" unicode="&#x155;" d="M322 549 l-113 0 l120 165 l143 0 l-150 -165 ZM357 497 q36 0 63 -15 q27 -15 40 -35 l-69 -104 q-26 29 -65 29 q-50 0 -86 -38 q-36 -38 -50 -108 l-45 -260 l-137 0 l91 518 l120 0 q-6 -52 -7 -76 q28 46 65.5 67.5 q37.5 21.5 79.5 21.5 Z" /><glyph glyph-name="rcaron" unicode="&#x159;" d="M238 714 l47 -80 l74 80 l125 0 l-157 -165 l-104 0 l-99 165 l114 0 ZM357 497 q36 0 63 -15 q27 -15 40 -35 l-69 -104 q-26 29 -65 29 q-50 0 -86 -38 q-36 -38 -50 -108 l-45 -260 l-137 0 l91 518 l120 0 q-6 -52 -7 -76 q28 46 65.5 67.5 q37.5 21.5 79.5 21.5 Z" /><glyph glyph-name="uni0157" unicode="&#x157;" d="M357 497 q36 0 63 -15 q27 -15 40 -35 l-69 -104 q-26 29 -65 29 q-50 0 -86 -38 q-36 -38 -50 -108 l-45 -260 l-137 0 l91 518 l120 0 q-6 -52 -7 -76 q28 46 65.5 67.5 q37.5 21.5 79.5 21.5 ZM59 -67 q37 0 58 -20 q21 -20 21 -56 q0 -8 -2 -24 q-10 -57 -55 -87.5 q-45 -30.5 -121 -34.5 l8 58 q67 10 83 42 l-1 0 q-31 0 -48.5 15.5 q-17.5 15.5 -17.5 40.5 q0 32 21.5 49 q21.5 17 53.5 17 Z" /><glyph glyph-name="s" unicode="s" d="M410 95 q-12 -69 -67 -105 q-55 -36 -138 -36 q-90 0 -148.5 43.5 q-58.5 43.5 -69.5 114.5 l106 47 q10 -44 39.5 -68 q29.5 -24 72.5 -24 q30 0 48 11 q18 11 18 34 q0 22 -21 36 q-21 14 -67 34 q-45 19 -73 34.5 q-28 15.5 -48.5 42.5 q-20.5 27 -20.5 65 q0 17 2 26 q12 71 71.5 109 q59.5 38 137.5 38 q54 0 96 -19 q42 -19 66.5 -50.5 q24.5 -31.5 27.5 -69.5 l-106 -48 q-8 33 -32.5 53 q-24.5 20 -59.5 20 q-27 0 -44.5 -11.5 q-17.5 -11.5 -17.5 -32.5 q0 -20 21 -34 q21 -14 64 -32 q46 -20 75 -36 q29 -16 50 -44 q21 -28 21 -69 q0 -14 -3 -29 Z" /><glyph glyph-name="sacute" unicode="&#x15b;" d="M326 549 l-113 0 l120 165 l143 0 l-150 -165 ZM410 95 q-12 -69 -67 -105 q-55 -36 -138 -36 q-90 0 -148.5 43.5 q-58.5 43.5 -69.5 114.5 l106 47 q10 -44 39.5 -68 q29.5 -24 72.5 -24 q30 0 48 11 q18 11 18 34 q0 22 -21 36 q-21 14 -67 34 q-45 19 -73 34.5 q-28 15.5 -48.5 42.5 q-20.5 27 -20.5 65 q0 17 2 26 q12 71 71.5 109 q59.5 38 137.5 38 q54 0 96 -19 q42 -19 66.5 -50.5 q24.5 -31.5 27.5 -69.5 l-106 -48 q-8 33 -32.5 53 q-24.5 20 -59.5 20 q-27 0 -44.5 -11.5 q-17.5 -11.5 -17.5 -32.5 q0 -20 21 -34 q21 -14 64 -32 q46 -20 75 -36 q29 -16 50 -44 q21 -28 21 -69 q0 -14 -3 -29 Z" /><glyph glyph-name="scaron" unicode="&#x161;" d="M242 714 l47 -79 l74 79 l125 0 l-158 -165 l-103 0 l-100 165 l115 0 ZM410 95 q-12 -69 -67 -105 q-55 -36 -138 -36 q-90 0 -148.5 43.5 q-58.5 43.5 -69.5 114.5 l106 47 q10 -44 39.5 -68 q29.5 -24 72.5 -24 q30 0 48 11 q18 11 18 34 q0 22 -21 36 q-21 14 -67 34 q-45 19 -73 34.5 q-28 15.5 -48.5 42.5 q-20.5 27 -20.5 65 q0 17 2 26 q12 71 71.5 109 q59.5 38 137.5 38 q54 0 96 -19 q42 -19 66.5 -50.5 q24.5 -31.5 27.5 -69.5 l-106 -48 q-8 33 -32.5 53 q-24.5 20 -59.5 20 q-27 0 -44.5 -11.5 q-17.5 -11.5 -17.5 -32.5 q0 -20 21 -34 q21 -14 64 -32 q46 -20 75 -36 q29 -16 50 -44 q21 -28 21 -69 q0 -14 -3 -29 Z" /><glyph glyph-name="scedilla" unicode="&#x15f;" d="M182 339 q0 -20 21 -34 q21 -14 64 -32 q46 -20 75 -36 q29 -16 50 -44 q21 -28 21 -69 q0 -14 -3 -29 q-12 -68 -65 -103.5 q-53 -35.5 -135 -37.5 l-29 -48 q42 -5 67.5 -28 q25.5 -23 25.5 -60 q0 -59 -44 -82.5 q-44 -23.5 -106 -23.5 q-48 0 -88 14 l4 71 q32 -11 75 -11 q63 0 63 30 q0 10 -12 16 q-12 6 -34 6 q-17 0 -54 -7 l-7 50 l50 84 q-56 17 -91 55.5 q-35 38.5 -43 91.5 l106 47 q10 -44 39.5 -68 q29.5 -24 72.5 -24 q30 0 48 11 q18 11 18 34 q0 22 -21 36 q-21 14 -67 34 q-45 19 -73 34.5 q-28 15.5 -48.5 42.5 q-20.5 27 -20.5 65 q0 17 2 26 q12 71 71.5 109 q59.5 38 137.5 38 q54 0 96 -19 q42 -19 66.5 -50.5 q24.5 -31.5 27.5 -69.5 l-106 -48 q-8 33 -32.5 53 q-24.5 20 -59.5 20 q-27 0 -44.5 -11.5 q-17.5 -11.5 -17.5 -32.5 Z" /><glyph glyph-name="scircumflex" unicode="&#x15d;" d="M253 714 l103 0 l100 -165 l-115 0 l-47 80 l-74 -80 l-125 0 l158 165 ZM410 95 q-12 -69 -67 -105 q-55 -36 -138 -36 q-90 0 -148.5 43.5 q-58.5 43.5 -69.5 114.5 l106 47 q10 -44 39.5 -68 q29.5 -24 72.5 -24 q30 0 48 11 q18 11 18 34 q0 22 -21 36 q-21 14 -67 34 q-45 19 -73 34.5 q-28 15.5 -48.5 42.5 q-20.5 27 -20.5 65 q0 17 2 26 q12 71 71.5 109 q59.5 38 137.5 38 q54 0 96 -19 q42 -19 66.5 -50.5 q24.5 -31.5 27.5 -69.5 l-106 -48 q-8 33 -32.5 53 q-24.5 20 -59.5 20 q-27 0 -44.5 -11.5 q-17.5 -11.5 -17.5 -32.5 q0 -20 21 -34 q21 -14 64 -32 q46 -20 75 -36 q29 -16 50 -44 q21 -28 21 -69 q0 -14 -3 -29 Z" /><glyph glyph-name="uni0219" unicode="&#x219;" d="M182 339 q0 -20 21 -34 q21 -14 64 -32 q46 -20 75 -36 q29 -16 50 -44 q21 -28 21 -69 q0 -14 -3 -29 q-12 -69 -67 -105 q-55 -36 -138 -36 q-90 0 -148.5 43.5 q-58.5 43.5 -69.5 114.5 l106 47 q10 -44 39.5 -68 q29.5 -24 72.5 -24 q30 0 48 11 q18 11 18 34 q0 22 -21 36 q-21 14 -67 34 q-45 19 -73 34.5 q-28 15.5 -48.5 42.5 q-20.5 27 -20.5 65 q0 17 2 26 q12 71 71.5 109 q59.5 38 137.5 38 q54 0 96 -19 q42 -19 66.5 -50.5 q24.5 -31.5 27.5 -69.5 l-106 -48 q-8 33 -32.5 53 q-24.5 20 -59.5 20 q-27 0 -44.5 -11.5 q-17.5 -11.5 -17.5 -32.5 ZM163 -67 q36 0 57.5 -20.5 q21.5 -20.5 21.5 -56.5 q0 -7 -2 -23 q-10 -57 -55 -87.5 q-45 -30.5 -122 -34.5 l9 58 q66 10 82 42 q-31 0 -48.5 15.5 q-17.5 15.5 -17.5 40.5 q0 32 21.5 49 q21.5 17 53.5 17 Z" /><glyph glyph-name="germandbls" unicode="ß" d="M591 496 q-20 -112 -122 -150 q50 -21 78.5 -61 q28.5 -40 28.5 -97 q0 -19 -3 -40 q-18 -98 -87 -146 q-69 -48 -176 -48 q-59 0 -101 16 l12 119 q28 -14 76 -14 q53 0 89.5 22.5 q36.5 22.5 45.5 74.5 q2 16 2 23 q0 47 -35 71.5 q-35 24.5 -83 24.5 l-42 0 l21 116 l20 0 q116 0 134 102 q3 15 3 28 q0 36 -20 57 q-20 21 -60 21 q-57 0 -92 -46.5 q-35 -46.5 -49 -127.5 l-85 -475 l-139 0 l89 500 q25 141 102 207 q77 66 180 66 q66 0 115.5 -27 q49.5 -27 75.5 -73 q26 -46 26 -101 q0 -23 -4 -42 Z" /><glyph glyph-name="longs" unicode="&#x17f;" d="M354 740 q49 0 82.5 -16.5 q33.5 -16.5 53.5 -40.5 l-65 -94 q-14 15 -29 22.5 q-15 7.5 -35 7.5 q-36 0 -60 -30 q-24 -30 -36 -97 l-95 -546 q-22 -122 -76 -178 q-54 -56 -133 -56 q-78 0 -119 46 l64 95 q19 -20 46 -20 q33 0 51.5 30.5 q18.5 30.5 31.5 105.5 l69 399 l-86 0 l21 116 l86 0 l5 29 q21 119 80 173 q59 54 144 54 Z" /><glyph glyph-name="t" unicode="t" d="M401 367 l-154 0 l-34 -191 q-3 -19 -3 -35 q0 -34 15 -50 q15 -16 46 -16 q33 0 65 20 l37 -105 q-28 -20 -59.5 -28 q-31.5 -8 -70.5 -8 q-76 0 -125.5 35.5 q-49.5 35.5 -49.5 118.5 q0 22 5 55 l36 204 l-91 0 l21 117 l90 0 l28 159 l139 0 l-29 -159 l155 0 l-21 -117 Z" /><glyph glyph-name="tbar" unicode="&#x167;" d="M401 367 l-154 0 l-14 -78 l155 0 l-18 -108 l-157 0 l-1 -9 q-3 -18 -3 -32 q0 -65 62 -65 q36 0 64 22 l38 -107 q-28 -20 -59.5 -28 q-31.5 -8 -70.5 -8 q-75 0 -125 35.5 q-50 35.5 -50 118.5 q0 21 5 53 l4 20 l-91 0 l19 108 l90 0 l14 78 l-91 0 l21 117 l90 0 l28 159 l139 0 l-29 -159 l155 0 l-21 -117 Z" /><glyph glyph-name="tcaron" unicode="&#x165;" d="M458 823 q34 0 56 -23 q22 -23 22 -65 q0 -8 -2 -26 q-12 -70 -62 -114 q-50 -44 -121 -54 l4 70 q63 13 87 56 q-29 3 -45.5 22.5 q-16.5 19.5 -16.5 48.5 q0 35 23 60 q23 25 55 25 ZM296 643 l-29 -159 l155 0 l-21 -117 l-154 0 l-34 -191 q-3 -19 -3 -35 q0 -34 15 -50 q15 -16 46 -16 q33 0 65 20 l37 -105 q-28 -20 -59.5 -28 q-31.5 -8 -70.5 -8 q-76 0 -125.5 35.5 q-49.5 35.5 -49.5 118.5 q0 22 5 55 l36 204 l-91 0 l21 117 l90 0 l28 159 l139 0 Z" /><glyph glyph-name="uni0163" unicode="&#x163;" d="M401 367 l-154 0 l-34 -191 q-3 -19 -3 -35 q0 -34 15 -50 q15 -16 46 -16 q33 0 65 20 l37 -105 q-28 -20 -59.5 -28 q-31.5 -8 -70.5 -8 l-12 0 l-28 -48 q42 -5 67.5 -28 q25.5 -23 25.5 -60 q0 -59 -44 -82.5 q-44 -23.5 -106 -23.5 q-48 0 -88 14 l5 71 q30 -11 74 -11 q63 0 63 30 q0 10 -12 16 q-12 6 -34 6 q-17 0 -54 -7 l-7 50 l54 90 q-79 34 -79 137 q0 22 5 55 l36 204 l-91 0 l21 117 l90 0 l28 159 l139 0 l-29 -159 l155 0 l-21 -117 Z" /><glyph glyph-name="uni021B" unicode="&#x21b;" d="M247 367 l-34 -191 q-3 -19 -3 -35 q0 -34 15 -50 q15 -16 46 -16 q33 0 65 20 l37 -105 q-28 -20 -59.5 -28 q-31.5 -8 -70.5 -8 q-76 0 -125.5 35.5 q-49.5 35.5 -49.5 118.5 q0 22 5 55 l36 204 l-91 0 l21 117 l90 0 l28 159 l139 0 l-29 -159 l155 0 l-21 -117 l-154 0 ZM185 -67 q37 0 58 -20 q21 -20 21 -56 q0 -8 -2 -24 q-10 -57 -55 -87.5 q-45 -30.5 -121 -34.5 l8 58 q66 10 83 42 l-1 0 q-31 0 -48.5 15.5 q-17.5 15.5 -17.5 40.5 q0 32 21.5 49 q21.5 17 53.5 17 Z" /><glyph glyph-name="u" unicode="u" d="M431 484 l138 0 l-91 -518 l-121 0 l2 20 q4 43 5 56 q-61 -88 -166 -88 q-77 0 -121 43.5 q-44 43.5 -44 126.5 q0 29 6 62 l52 298 l137 0 l-46 -265 q-6 -30 -6 -56 q0 -85 70 -85 q50 0 89 39 q39 39 51 105 l45 262 Z" /><glyph glyph-name="uacute" unicode="ú" d="M390 549 l-113 0 l119 165 l143 0 l-149 -165 ZM431 484 l138 0 l-91 -518 l-121 0 l2 20 q4 43 5 56 q-61 -88 -166 -88 q-77 0 -121 43.5 q-44 43.5 -44 126.5 q0 29 6 62 l52 298 l137 0 l-46 -265 q-6 -30 -6 -56 q0 -85 70 -85 q50 0 89 39 q39 39 51 105 l45 262 Z" /><glyph glyph-name="ubreve" unicode="&#x16d;" d="M353 549 q-75 0 -118.5 37.5 q-43.5 37.5 -43.5 98.5 q0 19 2 29 l109 0 q-3 -36 11 -57 q14 -21 48 -21 q31 0 49.5 18.5 q18.5 18.5 29.5 59.5 l109 0 q-15 -82 -66.5 -123.5 q-51.5 -41.5 -129.5 -41.5 ZM431 484 l138 0 l-91 -518 l-121 0 l2 20 q4 43 5 56 q-61 -88 -166 -88 q-77 0 -121 43.5 q-44 43.5 -44 126.5 q0 29 6 62 l52 298 l137 0 l-46 -265 q-6 -30 -6 -56 q0 -85 70 -85 q50 0 89 39 q39 39 51 105 l45 262 Z" /><glyph glyph-name="uni01D4" unicode="&#x1d4;" d="M306 714 l47 -79 l74 79 l124 0 l-157 -165 l-103 0 l-100 165 l115 0 ZM431 484 l138 0 l-91 -518 l-121 0 l2 20 q4 43 5 56 q-61 -88 -166 -88 q-77 0 -121 43.5 q-44 43.5 -44 126.5 q0 29 6 62 l52 298 l137 0 l-46 -265 q-6 -30 -6 -56 q0 -85 70 -85 q50 0 89 39 q39 39 51 105 l45 262 Z" /><glyph glyph-name="ucircumflex" unicode="û" d="M316 714 l104 0 l99 -165 l-115 0 l-46 80 l-75 -80 l-124 0 l157 165 ZM431 484 l138 0 l-91 -518 l-121 0 l2 20 q4 43 5 56 q-61 -88 -166 -88 q-77 0 -121 43.5 q-44 43.5 -44 126.5 q0 29 6 62 l52 298 l137 0 l-46 -265 q-6 -30 -6 -56 q0 -85 70 -85 q50 0 89 39 q39 39 51 105 l45 262 Z" /><glyph glyph-name="udieresis" unicode="ü" d="M243 555 q-31 0 -52.5 22.5 q-21.5 22.5 -21.5 54.5 q0 32 21.5 54.5 q21.5 22.5 52.5 22.5 q32 0 54 -22.5 q22 -22.5 22 -54.5 q0 -32 -22 -54.5 q-22 -22.5 -54 -22.5 ZM467 555 q-31 0 -52.5 23 q-21.5 23 -21.5 54 q0 32 21.5 54.5 q21.5 22.5 52.5 22.5 q31 0 53.5 -22.5 q22.5 -22.5 22.5 -54.5 q0 -32 -22.5 -54.5 q-22.5 -22.5 -53.5 -22.5 ZM431 484 l138 0 l-91 -518 l-121 0 l2 20 q4 43 5 56 q-61 -88 -166 -88 q-77 0 -121 43.5 q-44 43.5 -44 126.5 q0 29 6 62 l52 298 l137 0 l-46 -265 q-6 -30 -6 -56 q0 -85 70 -85 q50 0 89 39 q39 39 51 105 l45 262 Z" /><glyph glyph-name="uni01D8" unicode="&#x1d8;" d="M423 738 l-112 0 l106 142 l140 0 l-134 -142 ZM243 555 q-31 0 -52.5 22.5 q-21.5 22.5 -21.5 54.5 q0 32 21.5 54.5 q21.5 22.5 52.5 22.5 q32 0 54 -22.5 q22 -22.5 22 -54.5 q0 -32 -22 -54.5 q-22 -22.5 -54 -22.5 ZM467 555 q-31 0 -52.5 23 q-21.5 23 -21.5 54 q0 32 21.5 54.5 q21.5 22.5 52.5 22.5 q31 0 53.5 -22.5 q22.5 -22.5 22.5 -54.5 q0 -32 -22.5 -54.5 q-22.5 -22.5 -53.5 -22.5 ZM431 484 l138 0 l-91 -518 l-121 0 l2 20 q4 43 5 56 q-61 -88 -166 -88 q-77 0 -121 43.5 q-44 43.5 -44 126.5 q0 29 6 62 l52 298 l137 0 l-46 -265 q-6 -30 -6 -56 q0 -85 70 -85 q50 0 89 39 q39 39 51 105 l45 262 Z" /><glyph glyph-name="uni01DA" unicode="&#x1da;" d="M338 880 l48 -67 l72 67 l123 0 l-154 -142 l-103 0 l-103 142 l117 0 ZM243 555 q-31 0 -52.5 22.5 q-21.5 22.5 -21.5 54.5 q0 32 21.5 54.5 q21.5 22.5 52.5 22.5 q32 0 54 -22.5 q22 -22.5 22 -54.5 q0 -32 -22 -54.5 q-22 -22.5 -54 -22.5 ZM467 555 q-31 0 -52.5 23 q-21.5 23 -21.5 54 q0 32 21.5 54.5 q21.5 22.5 52.5 22.5 q31 0 53.5 -22.5 q22.5 -22.5 22.5 -54.5 q0 -32 -22.5 -54.5 q-22.5 -22.5 -53.5 -22.5 ZM431 484 l138 0 l-91 -518 l-121 0 l2 20 q4 43 5 56 q-61 -88 -166 -88 q-77 0 -121 43.5 q-44 43.5 -44 126.5 q0 29 6 62 l52 298 l137 0 l-46 -265 q-6 -30 -6 -56 q0 -85 70 -85 q50 0 89 39 q39 39 51 105 l45 262 Z" /><glyph glyph-name="uni01DC" unicode="&#x1dc;" d="M329 738 l-83 142 l134 0 l55 -142 l-106 0 ZM243 555 q-31 0 -52.5 22.5 q-21.5 22.5 -21.5 54.5 q0 32 21.5 54.5 q21.5 22.5 52.5 22.5 q32 0 54 -22.5 q22 -22.5 22 -54.5 q0 -32 -22 -54.5 q-22 -22.5 -54 -22.5 ZM467 555 q-31 0 -52.5 23 q-21.5 23 -21.5 54 q0 32 21.5 54.5 q21.5 22.5 52.5 22.5 q31 0 53.5 -22.5 q22.5 -22.5 22.5 -54.5 q0 -32 -22.5 -54.5 q-22.5 -22.5 -53.5 -22.5 ZM431 484 l138 0 l-91 -518 l-121 0 l2 20 q4 43 5 56 q-61 -88 -166 -88 q-77 0 -121 43.5 q-44 43.5 -44 126.5 q0 29 6 62 l52 298 l137 0 l-46 -265 q-6 -30 -6 -56 q0 -85 70 -85 q50 0 89 39 q39 39 51 105 l45 262 Z" /><glyph glyph-name="uni01D6" unicode="&#x1d6;" d="M549 762 l-342 0 l18 95 l342 0 l-18 -95 ZM243 555 q-31 0 -52.5 22.5 q-21.5 22.5 -21.5 54.5 q0 32 21.5 54.5 q21.5 22.5 52.5 22.5 q32 0 54 -22.5 q22 -22.5 22 -54.5 q0 -32 -22 -54.5 q-22 -22.5 -54 -22.5 ZM467 555 q-31 0 -52.5 23 q-21.5 23 -21.5 54 q0 32 21.5 54.5 q21.5 22.5 52.5 22.5 q31 0 53.5 -22.5 q22.5 -22.5 22.5 -54.5 q0 -32 -22.5 -54.5 q-22.5 -22.5 -53.5 -22.5 ZM431 484 l138 0 l-91 -518 l-121 0 l2 20 q4 43 5 56 q-61 -88 -166 -88 q-77 0 -121 43.5 q-44 43.5 -44 126.5 q0 29 6 62 l52 298 l137 0 l-46 -265 q-6 -30 -6 -56 q0 -85 70 -85 q50 0 89 39 q39 39 51 105 l45 262 Z" /><glyph glyph-name="uni1EE5" unicode="&#x1ee5;" d="M431 484 l138 0 l-91 -518 l-121 0 l2 20 q4 43 5 56 q-61 -88 -166 -88 q-77 0 -121 43.5 q-44 43.5 -44 126.5 q0 29 6 62 l52 298 l137 0 l-46 -265 q-6 -30 -6 -56 q0 -85 70 -85 q50 0 89 39 q39 39 51 105 l45 262 ZM214 -262 q-34 0 -58.5 25 q-24.5 25 -24.5 60 q0 35 24.5 59.5 q24.5 24.5 58.5 24.5 q33 0 58 -25 q25 -25 25 -59 q0 -35 -24.5 -60 q-24.5 -25 -58.5 -25 Z" /><glyph glyph-name="ugrave" unicode="ù" d="M296 549 l-91 165 l136 0 l61 -165 l-106 0 ZM431 484 l138 0 l-91 -518 l-121 0 l2 20 q4 43 5 56 q-61 -88 -166 -88 q-77 0 -121 43.5 q-44 43.5 -44 126.5 q0 29 6 62 l52 298 l137 0 l-46 -265 q-6 -30 -6 -56 q0 -85 70 -85 q50 0 89 39 q39 39 51 105 l45 262 Z" /><glyph glyph-name="uni1EE7" unicode="&#x1ee7;" d="M249 722 q20 13 47 19 q27 6 52 6 q53 0 86.5 -25.5 q33.5 -25.5 33.5 -70.5 q0 -52 -34.5 -80.5 q-34.5 -28.5 -98.5 -47.5 l-46 66 q38 12 57 22.5 q19 10.5 22 27.5 q1 12 -7 20.5 q-8 8.5 -26 8.5 q-33 0 -74 -27 l-12 81 ZM431 484 l138 0 l-91 -518 l-121 0 l2 20 q4 43 5 56 q-61 -88 -166 -88 q-77 0 -121 43.5 q-44 43.5 -44 126.5 q0 29 6 62 l52 298 l137 0 l-46 -265 q-6 -30 -6 -56 q0 -85 70 -85 q50 0 89 39 q39 39 51 105 l45 262 Z" /><glyph glyph-name="uhorn" unicode="&#x1b0;" d="M723 613 q1 -12 1 -35 q0 -95 -39.5 -136.5 q-39.5 -41.5 -131.5 -48.5 l-75 -427 l-121 0 l2 20 q4 43 5 56 q-61 -88 -166 -88 q-77 0 -121 43.5 q-44 43.5 -44 126.5 q0 29 6 62 l52 298 l137 0 l-46 -265 q-6 -30 -6 -56 q0 -85 70 -85 q50 0 89 39 q39 39 51 105 l45 262 l52 0 q52 0 79.5 9 q27.5 9 38 30 q10.5 21 10.5 60 q0 19 -1 30 l113 0 Z" /><glyph glyph-name="uni1EE9" unicode="&#x1ee9;" d="M390 549 l-113 0 l119 165 l143 0 l-149 -165 ZM723 613 q1 -12 1 -35 q0 -95 -39.5 -136.5 q-39.5 -41.5 -131.5 -48.5 l-75 -427 l-121 0 l2 20 q4 43 5 56 q-61 -88 -166 -88 q-77 0 -121 43.5 q-44 43.5 -44 126.5 q0 29 6 62 l52 298 l137 0 l-46 -265 q-6 -30 -6 -56 q0 -85 70 -85 q50 0 89 39 q39 39 51 105 l45 262 l52 0 q52 0 79.5 9 q27.5 9 38 30 q10.5 21 10.5 60 q0 19 -1 30 l113 0 Z" /><glyph glyph-name="uni1EF1" unicode="&#x1ef1;" d="M723 613 q1 -12 1 -35 q0 -95 -39.5 -136.5 q-39.5 -41.5 -131.5 -48.5 l-75 -427 l-121 0 l2 20 q4 43 5 56 q-61 -88 -166 -88 q-77 0 -121 43.5 q-44 43.5 -44 126.5 q0 29 6 62 l52 298 l137 0 l-46 -265 q-6 -30 -6 -56 q0 -85 70 -85 q50 0 89 39 q39 39 51 105 l45 262 l52 0 q52 0 79.5 9 q27.5 9 38 30 q10.5 21 10.5 60 q0 19 -1 30 l113 0 ZM214 -262 q-34 0 -58.5 25 q-24.5 25 -24.5 60 q0 35 24.5 59.5 q24.5 24.5 58.5 24.5 q33 0 58 -25 q25 -25 25 -59 q0 -35 -24.5 -60 q-24.5 -25 -58.5 -25 Z" /><glyph glyph-name="uni1EEB" unicode="&#x1eeb;" d="M296 549 l-91 165 l136 0 l61 -165 l-106 0 ZM723 613 q1 -12 1 -35 q0 -95 -39.5 -136.5 q-39.5 -41.5 -131.5 -48.5 l-75 -427 l-121 0 l2 20 q4 43 5 56 q-61 -88 -166 -88 q-77 0 -121 43.5 q-44 43.5 -44 126.5 q0 29 6 62 l52 298 l137 0 l-46 -265 q-6 -30 -6 -56 q0 -85 70 -85 q50 0 89 39 q39 39 51 105 l45 262 l52 0 q52 0 79.5 9 q27.5 9 38 30 q10.5 21 10.5 60 q0 19 -1 30 l113 0 Z" /><glyph glyph-name="uni1EED" unicode="&#x1eed;" d="M249 722 q20 13 47 19 q27 6 52 6 q53 0 86.5 -25.5 q33.5 -25.5 33.5 -70.5 q0 -52 -34.5 -80.5 q-34.5 -28.5 -98.5 -47.5 l-46 66 q38 12 57 22.5 q19 10.5 22 27.5 q1 12 -7 20.5 q-8 8.5 -26 8.5 q-33 0 -74 -27 l-12 81 ZM723 613 q1 -12 1 -35 q0 -95 -39.5 -136.5 q-39.5 -41.5 -131.5 -48.5 l-75 -427 l-121 0 l2 20 q4 43 5 56 q-61 -88 -166 -88 q-77 0 -121 43.5 q-44 43.5 -44 126.5 q0 29 6 62 l52 298 l137 0 l-46 -265 q-6 -30 -6 -56 q0 -85 70 -85 q50 0 89 39 q39 39 51 105 l45 262 l52 0 q52 0 79.5 9 q27.5 9 38 30 q10.5 21 10.5 60 q0 19 -1 30 l113 0 Z" /><glyph glyph-name="uni1EEF" unicode="&#x1eef;" d="M152 565 q13 72 52 110.5 q39 38.5 95 38.5 q32 0 50.5 -12 q18.5 -12 34.5 -32 q11 -13 18 -18.5 q7 -5.5 17 -5.5 q15 0 27 13.5 q12 13.5 19 39.5 l95 0 q-13 -71 -52 -110 q-39 -39 -94 -39 q-32 0 -50 11.5 q-18 11.5 -35 32.5 q-10 13 -18 19 q-8 6 -18 6 q-29 0 -46 -54 l-95 0 ZM723 613 q1 -12 1 -35 q0 -95 -39.5 -136.5 q-39.5 -41.5 -131.5 -48.5 l-75 -427 l-121 0 l2 20 q4 43 5 56 q-61 -88 -166 -88 q-77 0 -121 43.5 q-44 43.5 -44 126.5 q0 29 6 62 l52 298 l137 0 l-46 -265 q-6 -30 -6 -56 q0 -85 70 -85 q50 0 89 39 q39 39 51 105 l45 262 l52 0 q52 0 79.5 9 q27.5 9 38 30 q10.5 21 10.5 60 q0 19 -1 30 l113 0 Z" /><glyph glyph-name="uhungarumlaut" unicode="&#x171;" d="M302 549 l-103 0 l119 165 l134 0 l-150 -165 ZM480 549 l-103 0 l119 165 l134 0 l-150 -165 ZM431 484 l138 0 l-91 -518 l-121 0 l2 20 q4 43 5 56 q-61 -88 -166 -88 q-77 0 -121 43.5 q-44 43.5 -44 126.5 q0 29 6 62 l52 298 l137 0 l-46 -265 q-6 -30 -6 -56 q0 -85 70 -85 q50 0 89 39 q39 39 51 105 l45 262 Z" /><glyph glyph-name="umacron" unicode="&#x16b;" d="M518 582 l-342 0 l17 95 l342 0 l-17 -95 ZM431 484 l138 0 l-91 -518 l-121 0 l2 20 q4 43 5 56 q-61 -88 -166 -88 q-77 0 -121 43.5 q-44 43.5 -44 126.5 q0 29 6 62 l52 298 l137 0 l-46 -265 q-6 -30 -6 -56 q0 -85 70 -85 q50 0 89 39 q39 39 51 105 l45 262 Z" /><glyph glyph-name="uogonek" unicode="&#x173;" d="M384 -201 q37 0 80 35 l40 -70 q-56 -49 -128 -49 q-59 0 -96 28 q-37 28 -37 79 q0 53 31 92 q31 39 85 71 q3 22 5 57 q-61 -88 -166 -88 q-77 0 -121 43.5 q-44 43.5 -44 126.5 q0 29 6 62 l52 298 l137 0 l-46 -265 q-6 -30 -6 -56 q0 -85 70 -85 q50 0 89 39 q39 39 51 105 l45 262 l138 0 l-91 -518 q-64 -29 -95.5 -56 q-31.5 -27 -38.5 -62 q-1 -4 -1 -11 q0 -18 11 -28 q11 -10 30 -10 Z" /><glyph glyph-name="uring" unicode="&#x16f;" d="M239 656 q0 51 35 85 q35 34 86 34 q51 0 84.5 -33.5 q33.5 -33.5 33.5 -85.5 q0 -52 -33.5 -85.5 q-33.5 -33.5 -84.5 -33.5 q-52 0 -86.5 33.5 q-34.5 33.5 -34.5 85.5 ZM314 656 q0 -21 12.5 -35 q12.5 -14 33.5 -14 q20 0 32 14 q12 14 12 35 q0 22 -12 35 q-12 13 -32 13 q-21 0 -33.5 -13 q-12.5 -13 -12.5 -35 ZM431 484 l138 0 l-91 -518 l-121 0 l2 20 q4 43 5 56 q-61 -88 -166 -88 q-77 0 -121 43.5 q-44 43.5 -44 126.5 q0 29 6 62 l52 298 l137 0 l-46 -265 q-6 -30 -6 -56 q0 -85 70 -85 q50 0 89 39 q39 39 51 105 l45 262 Z" /><glyph glyph-name="utilde" unicode="&#x169;" d="M152 565 q13 72 52 110.5 q39 38.5 95 38.5 q32 0 50.5 -12 q18.5 -12 34.5 -32 q11 -13 18 -18.5 q7 -5.5 17 -5.5 q15 0 27 13.5 q12 13.5 19 39.5 l95 0 q-13 -71 -52 -110 q-39 -39 -94 -39 q-32 0 -50 11.5 q-18 11.5 -35 32.5 q-10 13 -18 19 q-8 6 -18 6 q-29 0 -46 -54 l-95 0 ZM431 484 l138 0 l-91 -518 l-121 0 l2 20 q4 43 5 56 q-61 -88 -166 -88 q-77 0 -121 43.5 q-44 43.5 -44 126.5 q0 29 6 62 l52 298 l137 0 l-46 -265 q-6 -30 -6 -56 q0 -85 70 -85 q50 0 89 39 q39 39 51 105 l45 262 Z" /><glyph glyph-name="v" unicode="v" d="M186 484 l76 -343 l180 343 l150 0 l-303 -517 l-112 0 l-137 517 l146 0 Z" /><glyph glyph-name="w" unicode="w" d="M498 484 l56 -324 l153 324 l140 0 l-272 -517 l-98 0 l-66 314 l-164 -314 l-99 0 l-108 517 l134 0 l54 -327 l153 327 l117 0 Z" /><glyph glyph-name="wacute" unicode="&#x1e83;" d="M510 549 l-113 0 l119 165 l143 0 l-149 -165 ZM498 484 l56 -324 l153 324 l140 0 l-272 -517 l-98 0 l-66 314 l-164 -314 l-99 0 l-108 517 l134 0 l54 -327 l153 327 l117 0 Z" /><glyph glyph-name="wcircumflex" unicode="&#x175;" d="M436 714 l104 0 l99 -165 l-114 0 l-47 80 l-75 -80 l-124 0 l157 165 ZM498 484 l56 -324 l153 324 l140 0 l-272 -517 l-98 0 l-66 314 l-164 -314 l-99 0 l-108 517 l134 0 l54 -327 l153 327 l117 0 Z" /><glyph glyph-name="wdieresis" unicode="&#x1e85;" d="M363 555 q-31 0 -52.5 22.5 q-21.5 22.5 -21.5 54.5 q0 32 21.5 54.5 q21.5 22.5 52.5 22.5 q32 0 54 -22.5 q22 -22.5 22 -54.5 q0 -32 -22 -54.5 q-22 -22.5 -54 -22.5 ZM587 555 q-31 0 -52.5 23 q-21.5 23 -21.5 54 q0 32 21.5 54.5 q21.5 22.5 52.5 22.5 q31 0 53.5 -22.5 q22.5 -22.5 22.5 -54.5 q0 -32 -22.5 -54.5 q-22.5 -22.5 -53.5 -22.5 ZM498 484 l56 -324 l153 324 l140 0 l-272 -517 l-98 0 l-66 314 l-164 -314 l-99 0 l-108 517 l134 0 l54 -327 l153 327 l117 0 Z" /><glyph glyph-name="wgrave" unicode="&#x1e81;" d="M417 549 l-92 165 l136 0 l61 -165 l-105 0 ZM498 484 l56 -324 l153 324 l140 0 l-272 -517 l-98 0 l-66 314 l-164 -314 l-99 0 l-108 517 l134 0 l54 -327 l153 327 l117 0 Z" /><glyph glyph-name="x" unicode="x" d="M270 329 l137 155 l158 0 l-237 -264 l143 -254 l-150 0 l-80 155 l-136 -155 l-159 0 l237 264 l-142 254 l150 0 l79 -155 Z" /><glyph glyph-name="y" unicode="y" d="M442 484 l152 0 l-330 -584 q-54 -96 -116.5 -142 q-62.5 -46 -138.5 -46 q-43 0 -77 13 q-34 13 -56 35 l63 102 q28 -26 71 -26 q39 0 74 29.5 q35 29.5 80 101.5 l-128 517 l148 0 l72 -354 l186 354 Z" /><glyph glyph-name="yacute" unicode="ý" d="M379 714 l143 0 l-149 -165 l-113 0 l119 165 ZM442 484 l152 0 l-330 -584 q-54 -96 -116.5 -142 q-62.5 -46 -138.5 -46 q-43 0 -77 13 q-34 13 -56 35 l63 102 q28 -26 71 -26 q39 0 74 29.5 q35 29.5 80 101.5 l-128 517 l148 0 l72 -354 l186 354 Z" /><glyph glyph-name="ycircumflex" unicode="&#x177;" d="M387 549 l-46 80 l-75 -80 l-124 0 l157 165 l104 0 l99 -165 l-115 0 ZM442 484 l152 0 l-330 -584 q-54 -96 -116.5 -142 q-62.5 -46 -138.5 -46 q-43 0 -77 13 q-34 13 -56 35 l63 102 q28 -26 71 -26 q39 0 74 29.5 q35 29.5 80 101.5 l-128 517 l148 0 l72 -354 l186 354 Z" /><glyph glyph-name="ydieresis" unicode="ÿ" d="M226 555 q-31 0 -52.5 22.5 q-21.5 22.5 -21.5 54.5 q0 32 21.5 54.5 q21.5 22.5 52.5 22.5 q32 0 54 -22.5 q22 -22.5 22 -54.5 q0 -32 -22 -54.5 q-22 -22.5 -54 -22.5 ZM450 555 q-31 0 -52.5 23 q-21.5 23 -21.5 54 q0 32 21.5 54.5 q21.5 22.5 52.5 22.5 q31 0 53.5 -22.5 q22.5 -22.5 22.5 -54.5 q0 -32 -22.5 -54.5 q-22.5 -22.5 -53.5 -22.5 ZM442 484 l152 0 l-330 -584 q-54 -96 -116.5 -142 q-62.5 -46 -138.5 -46 q-43 0 -77 13 q-34 13 -56 35 l63 102 q28 -26 71 -26 q39 0 74 29.5 q35 29.5 80 101.5 l-128 517 l148 0 l72 -354 l186 354 Z" /><glyph glyph-name="uni1EF5" unicode="&#x1ef5;" d="M442 484 l152 0 l-330 -584 q-54 -96 -116.5 -142 q-62.5 -46 -138.5 -46 q-43 0 -77 13 q-34 13 -56 35 l63 102 q28 -26 71 -26 q39 0 74 29.5 q35 29.5 80 101.5 l-128 517 l148 0 l72 -354 l186 354 ZM388 -93 q34 0 58.5 -25 q24.5 -25 24.5 -59 q0 -35 -24.5 -60 q-24.5 -25 -58.5 -25 q-34 0 -58.5 25 q-24.5 25 -24.5 60 q0 35 24.5 59.5 q24.5 24.5 58.5 24.5 Z" /><glyph glyph-name="ygrave" unicode="&#x1ef3;" d="M324 714 l61 -165 l-105 0 l-92 165 l136 0 ZM442 484 l152 0 l-330 -584 q-54 -96 -116.5 -142 q-62.5 -46 -138.5 -46 q-43 0 -77 13 q-34 13 -56 35 l63 102 q28 -26 71 -26 q39 0 74 29.5 q35 29.5 80 101.5 l-128 517 l148 0 l72 -354 l186 354 Z" /><glyph glyph-name="uni1EF7" unicode="&#x1ef7;" d="M318 668 q-33 0 -74 -27 l-12 81 q20 13 47 19 q27 6 52 6 q53 0 86.5 -25.5 q33.5 -25.5 33.5 -70.5 q0 -52 -34.5 -80.5 q-34.5 -28.5 -98.5 -47.5 l-46 66 q38 12 57 22.5 q19 10.5 22 27.5 q1 12 -7 20.5 q-8 8.5 -26 8.5 ZM442 484 l152 0 l-330 -584 q-54 -96 -116.5 -142 q-62.5 -46 -138.5 -46 q-43 0 -77 13 q-34 13 -56 35 l63 102 q28 -26 71 -26 q39 0 74 29.5 q35 29.5 80 101.5 l-128 517 l148 0 l72 -354 l186 354 Z" /><glyph glyph-name="uni1EF9" unicode="&#x1ef9;" d="M276 619 q-29 0 -46 -54 l-95 0 q13 72 52 110.5 q39 38.5 95 38.5 q32 0 50.5 -12 q18.5 -12 34.5 -32 q11 -13 18 -18.5 q7 -5.5 17 -5.5 q15 0 27 13.5 q12 13.5 19 39.5 l95 0 q-13 -71 -52 -110 q-39 -39 -94 -39 q-32 0 -50 11.5 q-18 11.5 -35 32.5 q-10 13 -18 19 q-8 6 -18 6 ZM442 484 l152 0 l-330 -584 q-54 -96 -116.5 -142 q-62.5 -46 -138.5 -46 q-43 0 -77 13 q-34 13 -56 35 l63 102 q28 -26 71 -26 q39 0 74 29.5 q35 29.5 80 101.5 l-128 517 l148 0 l72 -354 l186 354 Z" /><glyph glyph-name="z" unicode="z" d="M74 483 l388 0 l-12 -80 l-284 -326 l240 0 l-19 -111 l-427 0 l13 81 l284 326 l-201 0 l18 110 Z" /><glyph glyph-name="zacute" unicode="&#x17a;" d="M324 549 l-112 0 l119 165 l143 0 l-150 -165 ZM70 483 l389 0 l-13 -80 l-283 -326 l240 0 l-20 -111 l-426 0 l13 81 l284 326 l-202 0 l18 110 Z" /><glyph glyph-name="zcaron" unicode="&#x17e;" d="M241 714 l46 -79 l75 79 l124 0 l-157 -165 l-104 0 l-99 165 l115 0 ZM70 483 l389 0 l-13 -80 l-283 -326 l240 0 l-20 -111 l-426 0 l13 81 l284 326 l-202 0 l18 110 Z" /><glyph glyph-name="zdotaccent" unicode="&#x17c;" d="M291 550 q-34 0 -58.5 25.5 q-24.5 25.5 -24.5 59.5 q0 35 24.5 60 q24.5 25 58.5 25 q34 0 58.5 -25 q24.5 -25 24.5 -60 q0 -34 -24.5 -59.5 q-24.5 -25.5 -58.5 -25.5 ZM70 483 l389 0 l-13 -80 l-283 -326 l240 0 l-20 -111 l-426 0 l13 81 l284 326 l-202 0 l18 110 Z" /><glyph glyph-name="ordfeminine" unicode="ª" d="M503 694 l-69 -395 l-95 0 q4 32 5 47 q-48 -56 -121 -56 q-70 0 -113 47.5 q-43 47.5 -43 126.5 q0 23 5 53 q15 92 70.5 140 q55.5 48 126.5 48 q86 0 120 -70 q10 27 17 59 l97 0 ZM256 381 q35 0 64 24.5 q29 24.5 38 79.5 q3 18 3 34 q0 44 -22 67.5 q-22 23.5 -57 23.5 q-37 0 -63.5 -26.5 q-26.5 -26.5 -35.5 -76.5 q-3 -19 -3 -36 q0 -42 19.5 -66 q19.5 -24 56.5 -24 Z" /><glyph glyph-name="ordmasculine" unicode="º" d="M71 514 q11 62 45 105 q34 43 80.5 64.5 q46.5 21.5 95.5 21.5 q51 0 91.5 -23 q40.5 -23 63.5 -64 q23 -41 23 -94 q0 -23 -4 -43 q-11 -62 -45 -104 q-34 -42 -80.5 -63 q-46.5 -21 -95.5 -21 q-51 0 -91.5 22.5 q-40.5 22.5 -63.5 63 q-23 40.5 -23 92.5 q0 23 4 43 ZM182 505 q-3 -16 -3 -32 q0 -40 19 -63.5 q19 -23.5 53 -23.5 q37 0 65 26.5 q28 26.5 37 77.5 q3 18 3 33 q0 40 -19.5 64.5 q-19.5 24.5 -53.5 24.5 q-36 0 -64 -28 q-28 -28 -37 -79 Z" /><glyph glyph-name="uni207F" unicode="&#x207f;" d="M344 705 q60 0 93.5 -36 q33.5 -36 33.5 -100 q0 -20 -5 -48 l-39 -219 l-109 0 l35 198 q4 20 4 41 q0 69 -59 69 q-34 0 -58.5 -24 q-24.5 -24 -32.5 -72 l-38 -212 l-109 0 l69 392 l95 0 l-4 -51 q45 62 124 62 Z" /><glyph glyph-name="uni0410" unicode="&#x410;" d="M493 698 l166 -732 l-147 0 l-35 167 l-285 0 l-91 -167 l-152 0 l417 732 l127 0 ZM452 257 l-53 258 l-140 -258 l193 0 Z" /><glyph glyph-name="uni0411" unicode="&#x411;" d="M651 698 l-22 -126 l-358 0 l-30 -166 l136 0 q119 0 185 -52.5 q66 -52.5 66 -140.5 q0 -22 -4 -42 q-18 -103 -93.5 -154 q-75.5 -51 -199.5 -51 l-313 0 l130 732 l503 0 ZM219 280 l-33 -188 l146 0 q59 0 96.5 24.5 q37.5 24.5 45.5 67.5 q2 12 2 17 q0 37 -31.5 58 q-31.5 21 -94.5 21 l-131 0 Z" /><glyph glyph-name="uni0412" unicode="&#x412;" d="M626 478 q-17 -100 -97 -139 q45 -22 67.5 -57.5 q22.5 -35.5 22.5 -83.5 q0 -18 -3 -38 q-16 -96 -89.5 -145 q-73.5 -49 -199.5 -49 l-307 0 l127 732 l240 0 q72 0 127 -22 q55 -22 85 -63.5 q30 -41.5 30 -96.5 q0 -18 -3 -38 ZM345 399 q62 0 98 26 q36 26 36 74 q0 34 -29.5 53.5 q-29.5 19.5 -89.5 19.5 l-93 0 l-30 -173 l108 0 ZM468 177 q2 14 2 20 q0 37 -30.5 59 q-30.5 22 -91.5 22 l-132 0 l-33 -186 l145 0 q125 0 140 85 Z" /><glyph glyph-name="uni0413" unicode="&#x413;" d="M152 698 l499 0 l-23 -129 l-353 0 l-107 -603 l-145 0 l129 732 Z" /><glyph glyph-name="uni0403" unicode="&#x403;" d="M468 929 l143 0 l-149 -165 l-113 0 l119 165 ZM651 698 l-23 -129 l-354 0 l-106 -603 l-145 0 l129 732 l499 0 Z" /><glyph glyph-name="uni0490" unicode="&#x490;" d="M148 698 l346 0 l48 150 l124 0 l-67 -279 l-329 0 l-106 -603 l-146 0 l130 732 Z" /><glyph glyph-name="uni0414" unicode="&#x414;" d="M775 698 l-106 -603 l97 0 l-64 -301 l-124 0 l24 172 l-503 0 l-37 -172 l-124 0 l43 301 l40 0 q46 0 78.5 24.5 q32.5 24.5 58.5 79.5 q26 55 51 152 l89 347 l477 0 ZM523 95 l84 474 l-200 0 l-60 -238 q-21 -83 -45 -141 q-24 -58 -56 -95 l277 0 Z" /><glyph glyph-name="uni0415" unicode="&#x415;" d="M147 698 l473 0 l-22 -126 l-329 0 l-30 -172 l295 0 l-21 -125 l-296 0 l-32 -182 l341 0 l-23 -127 l-483 0 l127 732 Z" /><glyph glyph-name="uni0400" unicode="&#x400;" d="M323 766 l-97 149 l141 0 l66 -149 l-110 0 ZM147 698 l473 0 l-22 -126 l-329 0 l-30 -172 l295 0 l-21 -125 l-296 0 l-32 -182 l341 0 l-23 -127 l-483 0 l127 732 Z" /><glyph glyph-name="uni0401" unicode="&#x401;" d="M284 767 q-30 0 -51.5 23 q-21.5 23 -21.5 54 q0 32 21.5 54.5 q21.5 22.5 51.5 22.5 q32 0 54 -22.5 q22 -22.5 22 -54.5 q0 -31 -22 -54 q-22 -23 -54 -23 ZM509 767 q-31 0 -52.5 23 q-21.5 23 -21.5 54 q0 32 21.5 54.5 q21.5 22.5 52.5 22.5 q31 0 53 -22.5 q22 -22.5 22 -54.5 q0 -31 -22 -54 q-22 -23 -53 -23 ZM147 698 l473 0 l-22 -126 l-329 0 l-30 -172 l295 0 l-21 -125 l-296 0 l-32 -182 l341 0 l-23 -127 l-483 0 l127 732 Z" /><glyph glyph-name="uni0416" unicode="&#x416;" d="M734 399 l251 299 l168 0 l-302 -360 l182 -372 l-167 0 l-142 304 l-108 0 l-53 -304 l-146 0 l54 304 l-98 0 l-252 -304 l-177 0 l316 368 l-171 364 l159 0 l141 -299 l104 0 l53 299 l146 0 l-53 -299 l95 0 Z" /><glyph glyph-name="uni0417" unicode="&#x417;" d="M568 488 q-20 -110 -130 -148 q49 -23 74.5 -62 q25.5 -39 25.5 -92 q0 -13 -4 -41 q-17 -94 -93 -142.5 q-76 -48.5 -191 -48.5 q-114 0 -179 48.5 q-65 48.5 -79 140.5 l123 57 q20 -117 139 -117 q52 0 87.5 23 q35.5 23 44.5 69 q2 12 2 18 q0 42 -38 65.5 q-38 23.5 -115 23.5 l-26 0 l22 120 l44 0 q67 0 104 30 q37 30 37 79 q0 32 -22.5 51.5 q-22.5 19.5 -64.5 19.5 q-47 0 -86.5 -25.5 q-39.5 -25.5 -68.5 -73.5 l-101 74 q40 79 110.5 117 q70.5 38 161.5 38 q72 0 123 -24 q51 -24 77 -66 q26 -42 26 -96 q0 -18 -3 -38 Z" /><glyph glyph-name="uni0418" unicode="&#x418;" d="M635 698 l120 0 l-129 -732 l-135 0 l86 490 l-439 -490 l-119 0 l129 732 l133 0 l-85 -490 l439 490 Z" /><glyph glyph-name="uni0419" unicode="&#x419;" d="M475 765 q-77 0 -120 34 q-43 34 -43 91 q0 17 2 26 l109 0 q-2 -33 12 -52 q14 -19 46 -19 q60 0 77 71 l109 0 q-14 -77 -64.5 -114 q-50.5 -37 -127.5 -37 ZM635 698 l120 0 l-129 -732 l-135 0 l86 490 l-439 -490 l-119 0 l129 732 l133 0 l-85 -490 l439 490 Z" /><glyph glyph-name="uni040D" unicode="&#x40d;" d="M418 763 l-92 165 l136 0 l62 -165 l-106 0 ZM635 698 l120 0 l-129 -732 l-135 0 l86 490 l-439 -490 l-119 0 l129 732 l133 0 l-85 -490 l439 490 Z" /><glyph glyph-name="uni041A" unicode="&#x41a;" d="M337 399 l272 299 l167 0 l-322 -360 l203 -372 l-163 0 l-162 304 l-115 0 l-53 -304 l-146 0 l129 732 l146 0 l-53 -299 l97 0 Z" /><glyph glyph-name="uni040C" unicode="&#x40c;" d="M526 766 l-116 0 l119 149 l148 0 l-151 -149 ZM337 399 l272 299 l167 0 l-322 -360 l203 -372 l-163 0 l-162 304 l-115 0 l-53 -304 l-146 0 l129 732 l146 0 l-53 -299 l97 0 Z" /><glyph glyph-name="uni041B" unicode="&#x41b;" d="M766 698 l-129 -732 l-145 0 l106 603 l-251 0 l-80 -350 q-25 -108 -62 -165 q-37 -57 -93.5 -78.5 q-56.5 -21.5 -146.5 -21.5 l16 133 q45 0 72.5 15.5 q27.5 15.5 44.5 49 q17 33.5 31 94.5 l105 452 l532 0 Z" /><glyph glyph-name="uni041C" unicode="&#x41c;" d="M753 698 l112 0 l-128 -732 l-137 0 l79 458 l-219 -263 l-76 0 l-144 293 l-85 -488 l-135 0 l127 732 l113 0 l181 -379 l312 379 Z" /><glyph glyph-name="uni041D" unicode="&#x41d;" d="M241 410 l326 0 l51 288 l144 0 l-128 -732 l-144 0 l55 315 l-327 0 l-55 -315 l-143 0 l127 732 l144 0 l-50 -288 Z" /><glyph glyph-name="uni041E" unicode="&#x41e;" d="M55 361 q19 109 76 188 q57 79 138 120.5 q81 41.5 173 41.5 q89 0 157.5 -40 q68.5 -40 106 -112 q37.5 -72 37.5 -166 q0 -38 -8 -86 q-18 -109 -75 -189 q-57 -80 -139 -122 q-82 -42 -173 -42 q-89 0 -157.5 40 q-68.5 40 -106 113 q-37.5 73 -37.5 168 q0 38 8 86 ZM204 343 q-6 -34 -6 -67 q0 -86 41.5 -137.5 q41.5 -51.5 117.5 -51.5 q55 0 102.5 28.5 q47.5 28.5 80.5 82.5 q33 54 46 128 q6 35 6 66 q0 85 -41 135.5 q-41 50.5 -117 50.5 q-55 0 -103 -28 q-48 -28 -81.5 -81 q-33.5 -53 -45.5 -126 Z" /><glyph glyph-name="uni041F" unicode="&#x41f;" d="M147 698 l616 0 l-129 -732 l-145 0 l106 603 l-326 0 l-106 -603 l-145 0 l129 732 Z" /><glyph glyph-name="uni0420" unicode="&#x420;" d="M385 698 q79 0 137 -27.5 q58 -27.5 88 -76.5 q30 -49 30 -112 q0 -22 -5 -50 q-18 -105 -98 -160.5 q-80 -55.5 -208 -55.5 l-122 0 l-44 -250 l-143 0 l127 732 l238 0 ZM486 452 q2 18 2 25 q0 48 -35 73 q-35 25 -97 25 l-87 0 l-41 -236 l98 0 q60 0 104.5 26 q44.5 26 55.5 87 Z" /><glyph glyph-name="uni0421" unicode="&#x421;" d="M424 578 q-80 0 -140.5 -58.5 q-60.5 -58.5 -79.5 -168.5 q-6 -33 -6 -64 q0 -90 45 -145 q45 -55 122 -55 q95 0 154 96 l109 -81 q-37 -69 -109 -108.5 q-72 -39.5 -162 -39.5 q-92 0 -162.5 42 q-70.5 42 -108.5 116.5 q-38 74.5 -38 169.5 q0 43 7 84 q19 111 75.5 189 q56.5 78 135.5 117 q79 39 169 39 q75 0 131 -26.5 q56 -26.5 89 -69 q33 -42.5 42 -91.5 l-129 -62 q-15 53 -50 84.5 q-35 31.5 -94 31.5 Z" /><glyph glyph-name="uni0422" unicode="&#x422;" d="M79 698 l586 0 l-22 -129 l-221 0 l-105 -603 l-146 0 l106 603 l-219 0 l21 129 Z" /><glyph glyph-name="uni0423" unicode="&#x423;" d="M354 331 l234 367 l157 0 l-349 -532 q-48 -74 -87 -118.5 q-39 -44.5 -84.5 -69 q-45.5 -24.5 -101.5 -24.5 q-36 0 -67 10 q-31 10 -49 30 l22 125 q35 -32 90 -32 q40 0 69.5 20 q29.5 20 68.5 73 l-177 518 l161 0 l113 -367 Z" /><glyph glyph-name="uni040E" unicode="&#x40e;" d="M441 765 q-77 0 -120 34 q-43 34 -43 91 q0 17 2 26 l109 0 q-3 -33 11 -52 q14 -19 47 -19 q29 0 48 17.5 q19 17.5 29 53.5 l109 0 q-14 -77 -64.5 -114 q-50.5 -37 -127.5 -37 ZM354 331 l234 367 l157 0 l-349 -532 q-48 -74 -87 -118.5 q-39 -44.5 -84.5 -69 q-45.5 -24.5 -101.5 -24.5 q-36 0 -67 10 q-31 10 -49 30 l22 125 q35 -32 90 -32 q40 0 69.5 20 q29.5 20 68.5 73 l-177 518 l161 0 l113 -367 Z" /><glyph glyph-name="uni0424" unicode="&#x424;" d="M556 622 q120 -17 195 -85 q75 -68 75 -173 q0 -23 -5 -53 q-14 -77 -66.5 -134.5 q-52.5 -57.5 -131.5 -92 q-79 -34.5 -170 -43.5 l-13 -75 l-142 0 l14 77 q-121 17 -196 84.5 q-75 67.5 -75 174.5 q0 21 5 53 q14 76 66.5 134 q52.5 58 131.5 92 q79 34 171 43 l12 74 l142 0 l-13 -76 ZM672 329 q3 17 3 31 q0 56 -38 89 q-38 33 -105 42 l-54 -314 q79 12 131 51 q52 39 63 101 ZM197 337 q-3 -18 -3 -33 q0 -55 37 -88 q37 -33 104 -42 l56 315 q-80 -13 -132 -51.5 q-52 -38.5 -62 -100.5 Z" /><glyph glyph-name="uni0425" unicode="&#x425;" d="M381 455 l209 243 l175 0 l-319 -362 l198 -370 l-170 0 l-130 258 l-224 -258 l-173 0 l333 376 l-190 356 l168 0 l123 -243 Z" /><glyph glyph-name="uni0427" unicode="&#x427;" d="M561 698 l146 0 l-129 -732 l-146 0 l50 288 q-67 -50 -175 -50 q-109 0 -171.5 53.5 q-62.5 53.5 -62.5 160.5 q0 37 7 75 l35 205 l146 0 l-35 -199 q-6 -33 -6 -58 q0 -55 28 -79.5 q28 -24.5 86 -24.5 q70 0 121 33.5 q51 33.5 68 109.5 l38 218 Z" /><glyph glyph-name="uni0426" unicode="&#x426;" d="M617 698 l146 0 l-106 -603 l98 0 l-64 -301 l-124 0 l24 172 l-573 0 l129 732 l146 0 l-107 -603 l325 0 l106 603 Z" /><glyph glyph-name="uni0428" unicode="&#x428;" d="M557 95 l225 0 l106 603 l146 0 l-129 -732 l-887 0 l129 732 l146 0 l-107 -603 l226 0 l105 603 l146 0 l-106 -603 Z" /><glyph glyph-name="uni0429" unicode="&#x429;" d="M782 95 l106 603 l146 0 l-107 -603 l95 0 l-64 -301 l-124 0 l24 172 l-840 0 l129 732 l146 0 l-107 -603 l226 0 l105 603 l146 0 l-106 -603 l225 0 Z" /><glyph glyph-name="uni040F" unicode="&#x40f;" d="M186 95 l325 0 l106 603 l146 0 l-129 -732 l-239 0 l-36 -172 l-125 0 l25 172 l-241 0 l129 732 l146 0 l-107 -603 Z" /><glyph glyph-name="uni042C" unicode="&#x42c;" d="M375 419 q120 0 185.5 -55.5 q65.5 -55.5 65.5 -149.5 q0 -26 -4 -49 q-18 -103 -92 -151 q-74 -48 -198 -48 l-314 0 l130 732 l145 0 l-50 -279 l132 0 ZM330 92 q62 0 99 24.5 q37 24.5 45 69.5 q2 14 2 20 q0 40 -31.5 63.5 q-31.5 23.5 -95.5 23.5 l-128 0 l-35 -201 l144 0 Z" /><glyph glyph-name="uni042A" unicode="&#x42a;" d="M515 419 q120 0 185.5 -56 q65.5 -56 65.5 -148 q0 -26 -4 -47 q-19 -106 -91 -154 q-72 -48 -199 -48 l-314 0 l107 606 l-203 0 l22 126 l348 0 l-49 -279 l132 0 ZM469 92 q68 0 107.5 31.5 q39.5 31.5 39.5 85.5 q0 39 -31.5 61.5 q-31.5 22.5 -95.5 22.5 l-128 0 l-36 -201 l144 0 Z" /><glyph glyph-name="uni042B" unicode="&#x42b;" d="M375 419 q120 0 186 -56 q66 -56 66 -148 q0 -26 -4 -47 q-19 -106 -91.5 -154 q-72.5 -48 -199.5 -48 l-314 0 l130 732 l145 0 l-50 -279 l132 0 ZM824 -34 l-146 0 l130 732 l145 0 l-129 -732 ZM330 92 q60 0 98 26 q38 26 46 71 q2 14 2 20 q0 39 -31.5 61.5 q-31.5 22.5 -95.5 22.5 l-128 0 l-35 -201 l144 0 Z" /><glyph glyph-name="uni0409" unicode="&#x409;" d="M849 419 q120 0 186 -56 q66 -56 66 -148 q0 -26 -4 -47 q-19 -106 -91.5 -154 q-72.5 -48 -199.5 -48 l-314 0 l107 603 l-252 0 l-80 -350 q-25 -108 -62 -165 q-37 -57 -93.5 -78.5 q-56.5 -21.5 -146.5 -21.5 l16 133 q45 0 72.5 15.5 q27.5 15.5 44.5 49 q17 33.5 31 94.5 l105 452 l533 0 l-50 -279 l132 0 ZM804 92 q67 0 106.5 31.5 q39.5 31.5 39.5 85.5 q0 39 -31.5 61.5 q-31.5 22.5 -95.5 22.5 l-128 0 l-35 -201 l144 0 Z" /><glyph glyph-name="uni040A" unicode="&#x40a;" d="M856 418 q118 0 182.5 -54.5 q64.5 -54.5 64.5 -146.5 q0 -26 -4 -47 q-19 -107 -93 -155.5 q-74 -48.5 -205 -48.5 l-307 0 l55 315 l-330 0 l-55 -315 l-146 0 l129 732 l146 0 l-51 -288 l330 0 l51 288 l145 0 l-49 -280 l137 0 ZM798 92 q65 0 105 26.5 q40 26.5 48 72.5 q2 14 2 20 q0 38 -31 59 q-31 21 -93 21 l-132 0 l-35 -199 l136 0 Z" /><glyph glyph-name="uni0405" unicode="&#x405;" d="M543 149 q-17 -90 -83 -141 q-37 -27 -84 -40.5 q-47 -13.5 -97 -13.5 q-76 0 -138.5 27.5 q-62.5 27.5 -102.5 77 q-40 49.5 -49 113.5 l126 57 q13 -65 58 -104.5 q45 -39.5 112 -39.5 q46 0 74.5 19 q28.5 19 34.5 54 q1 4 1 13 q0 26 -17 45 q-17 19 -42 32.5 q-25 13.5 -71 33.5 q-60 26 -98.5 48 q-38.5 22 -65.5 59 q-27 37 -27 91 q0 21 4 40 q19 106 108 154 q64 37 155 37 q70 0 125.5 -25 q55.5 -25 88 -67.5 q32.5 -42.5 38.5 -93.5 l-126 -57 q-9 48 -45 80.5 q-36 32.5 -92 32.5 q-46 0 -75.5 -21 q-29.5 -21 -29.5 -59 q0 -33 30 -54.5 q30 -21.5 96 -49.5 q62 -27 101 -50 q39 -23 67 -61.5 q28 -38.5 28 -94.5 q0 -22 -4 -42 Z" /><glyph glyph-name="uni0404" unicode="&#x404;" d="M428 578 q-69 0 -126 -47 q-57 -47 -84 -133 l253 0 l-22 -120 l-251 0 q1 -87 45 -139 q44 -52 121 -52 q49 0 87 23.5 q38 23.5 68 72.5 l109 -81 q-37 -70 -109.5 -109 q-72.5 -39 -163.5 -39 q-92 0 -161.5 40.5 q-69.5 40.5 -108 114 q-38.5 73.5 -38.5 167.5 q0 39 8 85 q19 111 76.5 190 q57.5 79 138 119.5 q80.5 40.5 169.5 40.5 q73 0 128.5 -26.5 q55.5 -26.5 88 -69 q32.5 -42.5 41.5 -91.5 l-129 -62 q-15 53 -49 84.5 q-34 31.5 -91 31.5 Z" /><glyph glyph-name="uni042D" unicode="&#x42d;" d="M339 711 q91 0 159.5 -40.5 q68.5 -40.5 106 -114.5 q37.5 -74 37.5 -170 q0 -40 -8 -91 q-19 -108 -72 -185 q-53 -77 -129.5 -116.5 q-76.5 -39.5 -167.5 -39.5 q-75 0 -133.5 26.5 q-58.5 26.5 -93.5 69.5 q-35 43 -44 91 l128 62 q14 -52 53 -84 q39 -32 98 -32 q72 0 124.5 47 q52.5 47 76.5 133 l-255 0 l22 120 l250 0 q-1 88 -43.5 139.5 q-42.5 51.5 -117.5 51.5 q-98 0 -159 -96 l-109 81 q36 69 111 108.5 q75 39.5 166 39.5 Z" /><glyph glyph-name="uni0406" unicode="&#x406;" d="M163 -34 l-143 0 l127 732 l144 0 l-128 -732 Z" /><glyph glyph-name="uni0407" unicode="&#x407;" d="M133 767 q-30 0 -52 23 q-22 23 -22 54 q0 32 21.5 54.5 q21.5 22.5 52.5 22.5 q32 0 54 -22.5 q22 -22.5 22 -54.5 q0 -31 -22 -54 q-22 -23 -54 -23 ZM357 767 q-31 0 -52.5 23 q-21.5 23 -21.5 54 q0 32 21.5 54.5 q21.5 22.5 52.5 22.5 q31 0 53.5 -22.5 q22.5 -22.5 22.5 -54.5 q0 -31 -22.5 -54 q-22.5 -23 -53.5 -23 ZM163 -34 l-143 0 l127 732 l144 0 l-128 -732 Z" /><glyph glyph-name="uni0408" unicode="&#x408;" d="M180 -46 q-88 0 -140.5 44 q-52.5 44 -66.5 129 l126 58 q11 -50 29.5 -74 q18.5 -24 56.5 -24 q89 0 113 135 l82 476 l145 0 l-88 -501 q-23 -133 -94.5 -188 q-71.5 -55 -162.5 -55 Z" /><glyph glyph-name="uni040B" unicode="&#x40b;" d="M566 423 q110 0 172.5 -53.5 q62.5 -53.5 62.5 -161.5 q0 -38 -7 -74 l-29 -168 l-146 0 l29 162 q6 33 6 58 q0 55 -28 79.5 q-28 24.5 -87 24.5 q-70 0 -122 -34.5 q-52 -34.5 -67 -113.5 l-31 -176 l-147 0 l107 603 l-222 0 l22 129 l592 0 l-22 -129 l-223 0 l-35 -196 q69 50 175 50 Z" /><glyph glyph-name="uni042E" unicode="&#x42e;" d="M736 711 q86 0 150.5 -38 q64.5 -38 100 -109 q35.5 -71 35.5 -167 q0 -47 -9 -98 q-21 -116 -75.5 -193.5 q-54.5 -77.5 -129.5 -114.5 q-75 -37 -159 -37 q-89 0 -155 39.5 q-66 39.5 -100.5 113 q-34.5 73.5 -31.5 174.5 l-144 0 l-55 -315 l-143 0 l127 732 l144 0 l-50 -288 l140 0 q26 100 80.5 167.5 q54.5 67.5 125.5 100.5 q71 33 149 33 ZM863 319 q8 45 8 79 q0 83 -36.5 131.5 q-36.5 48.5 -104.5 48.5 q-75 0 -132.5 -59.5 q-57.5 -59.5 -78.5 -175.5 q-7 -39 -7 -78 q0 -83 37 -130.5 q37 -47.5 106 -47.5 q75 0 131 58 q56 58 77 174 Z" /><glyph glyph-name="uni042F" unicode="&#x42f;" d="M670 698 l-129 -732 l-145 0 l46 264 l-84 0 q-17 0 -26 1 l-224 -264 l-178 -1 l265 302 q-50 27 -77.5 72.5 q-27.5 45.5 -27.5 103.5 q0 24 4 44 q19 100 100.5 155 q81.5 55 204.5 55 l271 0 ZM464 353 l39 222 l-93 0 q-68 0 -111 -25.5 q-43 -25.5 -53 -79.5 q-2 -14 -2 -21 q0 -46 36.5 -71 q36.5 -25 99.5 -25 l84 0 Z" /><glyph glyph-name="uni0402" unicode="&#x402;" d="M581 423 q112 0 179.5 -57.5 q67.5 -57.5 67.5 -156.5 q0 -21 -5 -53 q-19 -104 -92 -153 q-73 -49 -189 -49 q-35 0 -54 2 l13 125 l25 -1 q65 0 102.5 22.5 q37.5 22.5 46.5 74.5 q2 16 2 25 q0 41 -27.5 66.5 q-27.5 25.5 -85.5 25.5 q-46 0 -92 -17.5 q-46 -17.5 -81 -58 q-35 -40.5 -45 -104.5 l-27 -148 l-147 0 l107 603 l-222 0 l22 129 l592 0 l-22 -129 l-223 0 l-37 -206 q79 60 192 60 Z" /><glyph glyph-name="uni0462" unicode="&#x462;" d="M458 396 q124 0 190 -51 q66 -51 66 -140 q0 -25 -4 -46 q-18 -102 -93 -147.5 q-75 -45.5 -199 -45.5 l-311 0 l93 524 l-165 0 l20 113 l165 0 l17 95 l145 0 l-17 -95 l224 0 l-20 -113 l-224 0 l-17 -94 l130 0 ZM419 87 q59 0 96.5 23.5 q37.5 23.5 45.5 67.5 q2 12 2 19 q0 38 -32.5 60 q-32.5 22 -96.5 22 l-126 0 l-35 -192 l146 0 Z" /><glyph glyph-name="uni0472" unicode="&#x472;" d="M442 711 q89 0 157.5 -40 q68.5 -40 106 -112 q37.5 -72 37.5 -166 q0 -38 -8 -86 q-18 -109 -75 -189 q-57 -80 -139 -122 q-82 -42 -173 -42 q-89 0 -157.5 40 q-68.5 40 -106 113 q-37.5 73 -37.5 168 q0 38 8 86 q19 109 76 188 q57 79 138 120.5 q81 41.5 173 41.5 ZM434 578 q-73 0 -131 -47.5 q-58 -47.5 -85 -133.5 l373 0 q-1 83 -42 132 q-41 49 -115 49 ZM357 87 q73 0 130.5 49.5 q57.5 49.5 83.5 136.5 l-372 0 q0 -84 41.5 -135 q41.5 -51 116.5 -51 Z" /><glyph glyph-name="uni0474" unicode="&#x474;" d="M752 711 q72 0 117 -45 l-59 -107 q-19 19 -47 19 q-27 0 -48 -17.5 q-21 -17.5 -45 -59.5 l-313 -535 l-111 0 l-167 732 l162 0 l102 -513 l192 355 q54 99 103.5 135 q49.5 36 113.5 36 Z" /><glyph glyph-name="uni0492" unicode="&#x492;" d="M152 698 l477 0 l-22 -127 l-333 0 l-32 -187 l127 0 l-22 -126 l-128 0 l-51 -292 l-145 0 l51 292 l-80 0 l22 126 l80 0 l56 314 Z" /><glyph glyph-name="uni049A" unicode="&#x49a;" d="M609 698 l167 0 l-322 -360 l134 -243 l114 0 l-64 -301 l-125 0 l25 172 l-44 0 l-162 304 l-115 0 l-53 -304 l-146 0 l129 732 l146 0 l-53 -299 l97 0 l272 299 Z" /><glyph glyph-name="uni049C" unicode="&#x49c;" d="M401 399 l235 299 l151 0 l-279 -361 l160 -371 l-154 0 l-126 304 l-33 0 l-24 -138 l-100 0 l25 138 l-48 0 l-54 -304 l-136 0 l129 732 l136 0 l-53 -299 l49 0 l24 138 l100 0 l-25 -138 l23 0 Z" /><glyph glyph-name="uni04A2" unicode="&#x4a2;" d="M623 698 l145 0 l-106 -603 l98 0 l-64 -301 l-124 0 l24 172 l-102 0 l55 315 l-330 0 l-55 -315 l-146 0 l129 732 l146 0 l-51 -288 l330 0 l51 288 Z" /><glyph glyph-name="uni04AE" unicode="&#x4ae;" d="M360 398 l216 300 l162 0 l-331 -447 l-50 -285 l-145 0 l51 292 l-184 440 l162 0 l119 -300 Z" /><glyph glyph-name="uni04B0" unicode="&#x4b0;" d="M360 398 l216 300 l162 0 l-259 -350 l135 0 l-23 -129 l-189 0 l-45 -253 l-145 0 l45 253 l-189 0 l23 129 l135 0 l-147 350 l162 0 l119 -300 Z" /><glyph glyph-name="uni04B2" unicode="&#x4b2;" d="M591 698 l174 0 l-321 -359 l131 -244 l111 0 l-64 -301 l-124 0 l24 172 l-46 0 l-129 258 l-228 -258 l-172 0 l334 374 l-191 358 l166 0 l123 -243 l212 243 Z" /><glyph glyph-name="uni04B8" unicode="&#x4b8;" d="M564 698 l143 0 l-129 -732 l-146 0 l51 287 q-44 -32 -106 -43 l-24 -135 l-99 0 l23 130 q-96 7 -150 60 q-54 53 -54 153 q0 37 7 75 l35 205 l143 0 l-35 -199 q-6 -31 -6 -57 q0 -47 20.5 -71.5 q20.5 -24.5 63.5 -30.5 l25 141 l99 0 l-24 -135 q49 13 82 48.5 q33 35.5 44 96.5 l37 207 Z" /><glyph glyph-name="uni04BA" unicode="&#x4ba;" d="M164 -34 l-146 0 l129 732 l146 0 l-50 -288 q67 50 175 50 q109 0 171.5 -53.5 q62.5 -53.5 62.5 -160.5 q0 -37 -7 -75 l-35 -205 l-146 0 l35 199 q6 33 6 58 q0 55 -28 79.5 q-28 24.5 -86 24.5 q-69 0 -120.5 -33.5 q-51.5 -33.5 -68.5 -109.5 l-38 -218 Z" /><glyph glyph-name="uni04D8" unicode="&#x4d8;" d="M401 711 q89 0 156.5 -38 q67.5 -38 104.5 -109.5 q37 -71.5 37 -168.5 q0 -46 -9 -97 q-31 -177 -137 -260.5 q-106 -83.5 -255 -83.5 q-125 0 -198 54 q-73 54 -73 153 q0 114 90.5 172 q90.5 58 268.5 58 q77 0 161 -10 q1 8 1 24 q0 85 -40 129.5 q-40 44.5 -118 44.5 q-119 0 -186 -104 l-98 82 q44 78 123.5 116 q79.5 38 171.5 38 ZM309 83 q164 0 216 176 q-80 10 -148 10 q-198 0 -198 -100 q0 -43 34 -64.5 q34 -21.5 96 -21.5 Z" /><glyph glyph-name="uni04E8" unicode="&#x4e8;" d="M442 711 q89 0 157.5 -40 q68.5 -40 106 -112 q37.5 -72 37.5 -166 q0 -38 -8 -86 q-18 -109 -75 -189 q-57 -80 -139 -122 q-82 -42 -173 -42 q-89 0 -157.5 40 q-68.5 40 -106 113 q-37.5 73 -37.5 168 q0 38 8 86 q19 109 76 188 q57 79 138 120.5 q81 41.5 173 41.5 ZM434 578 q-73 0 -131 -47.5 q-58 -47.5 -85 -133.5 l373 0 q-1 83 -42 132 q-41 49 -115 49 ZM357 87 q73 0 130.5 49.5 q57.5 49.5 83.5 136.5 l-372 0 q0 -84 41.5 -135 q41.5 -51 116.5 -51 Z" /><glyph glyph-name="uni0430" unicode="&#x430;" d="M595 484 l-91 -518 l-120 0 q4 32 6 66 q-32 -41 -73.5 -59.5 q-41.5 -18.5 -84.5 -18.5 q-60 0 -107.5 29 q-47.5 29 -74 82 q-26.5 53 -26.5 122 q0 31 6 65 q14 81 53.5 136 q39.5 55 94 82 q54.5 27 112.5 27 q57 0 97.5 -24.5 q40.5 -24.5 60.5 -71.5 q10 29 24 83 l123 0 ZM272 73 q48 0 86.5 31.5 q38.5 31.5 50.5 104.5 q4 20 4 42 q0 59 -30.5 90.5 q-30.5 31.5 -78.5 31.5 q-49 0 -85.5 -34 q-36.5 -34 -48.5 -100 q-4 -20 -4 -43 q0 -56 28 -89.5 q28 -33.5 78 -33.5 Z" /><glyph glyph-name="uni0431" unicode="&#x431;" d="M286 562 q-47 -30 -78 -122 q59 46 138 46 q91 0 146 -60 q55 -60 55 -161 q0 -32 -6 -68 q-21 -122 -99.5 -182.5 q-78.5 -60.5 -184.5 -60.5 q-105 0 -165.5 65 q-60.5 65 -60.5 197 q0 55 12 122 q41 229 160 327 q53 39 109.5 49 q56.5 10 134.5 10 q53 1 81.5 4 q28.5 3 51.5 15 l-16 -126 q-19 -11 -44.5 -14 q-25.5 -3 -68.5 -3 q-58 0 -96 -6.5 q-38 -6.5 -69 -31.5 ZM311 366 q-51 0 -91.5 -37 q-40.5 -37 -52.5 -104 q-4 -26 -4 -39 q0 -51 26 -82.5 q26 -31.5 73 -31.5 q50 0 88 36 q38 36 50 104 q4 30 4 42 q0 50 -23.5 81 q-23.5 31 -69.5 31 Z" /><glyph glyph-name="uni0432" unicode="&#x432;" d="M497 326 q-13 -74 -78 -100 q67 -32 67 -99 q0 -16 -2 -25 q-13 -70 -67.5 -103 q-54.5 -33 -152.5 -33 l-257 0 l92 518 l216 0 q83 0 133.5 -36.5 q50.5 -36.5 50.5 -97.5 q0 -8 -2 -24 ZM215 380 l-18 -102 l76 0 q42 0 63.5 15.5 q21.5 15.5 21.5 43.5 q0 19 -17 31 q-17 12 -54 12 l-72 0 ZM255 70 q48 0 70.5 15 q22.5 15 22.5 45 q0 48 -81 48 l-87 0 l-19 -108 l94 0 Z" /><glyph glyph-name="uni0433" unicode="&#x433;" d="M99 484 l378 0 l-21 -117 l-239 0 l-71 -401 l-139 0 l92 518 Z" /><glyph glyph-name="uni0453" unicode="&#x453;" d="M355 551 l-112 0 l119 165 l143 0 l-150 -165 ZM99 484 l377 0 l-21 -117 l-238 0 l-71 -401 l-139 0 l92 518 Z" /><glyph glyph-name="uni0491" unicode="&#x491;" d="M99 484 l270 0 l42 126 l119 0 l-60 -243 l-253 0 l-71 -401 l-139 0 l92 518 Z" /><glyph glyph-name="uni0434" unicode="&#x434;" d="M586 484 l-72 -408 l90 0 l-61 -282 l-120 0 l24 168 l-357 0 l-35 -168 l-121 0 l40 282 l36 0 q42 0 69 25.5 q27 25.5 47 78.5 q20 53 45 152 l40 152 l375 0 ZM378 76 l52 294 l-115 0 l-16 -65 q-24 -92 -41.5 -143.5 q-17.5 -51.5 -40.5 -85.5 l161 0 Z" /><glyph glyph-name="uni0435" unicode="&#x435;" d="M266 71 q36 0 66 17.5 q30 17.5 52 51.5 l94 -70 q-33 -58 -94.5 -87 q-61.5 -29 -131.5 -29 q-65 0 -117 27.5 q-52 27.5 -82 79.5 q-30 52 -30 122 q0 30 6 61 q14 85 58.5 142 q44.5 57 106 84 q61.5 27 129.5 27 q90 0 139.5 -43.5 q49.5 -43.5 49.5 -111.5 q0 -157 -270 -157 q-38 0 -80 3 q0 -56 28 -86.5 q28 -30.5 76 -30.5 ZM316 384 q-44 0 -79.5 -25 q-35.5 -25 -54.5 -73 q54 -4 72 -4 q121 0 121 58 q0 22 -15 33 q-15 11 -44 11 Z" /><glyph glyph-name="uni0450" unicode="&#x450;" d="M275 549 l-92 165 l137 0 l61 -165 l-106 0 ZM266 71 q36 0 66 17.5 q30 17.5 52 51.5 l94 -70 q-33 -58 -94.5 -87 q-61.5 -29 -131.5 -29 q-65 0 -117 27.5 q-52 27.5 -82 79.5 q-30 52 -30 122 q0 30 6 61 q14 85 58.5 142 q44.5 57 106 84 q61.5 27 129.5 27 q90 0 139.5 -43.5 q49.5 -43.5 49.5 -111.5 q0 -157 -270 -157 q-38 0 -80 3 q0 -56 28 -86.5 q28 -30.5 76 -30.5 ZM316 384 q-44 0 -79.5 -25 q-35.5 -25 -54.5 -73 q54 -4 72 -4 q121 0 121 58 q0 22 -15 33 q-15 11 -44 11 Z" /><glyph glyph-name="uni0451" unicode="&#x451;" d="M221 554 q-30 0 -51.5 23 q-21.5 23 -21.5 54 q0 32 21.5 54.5 q21.5 22.5 51.5 22.5 q32 0 54 -22.5 q22 -22.5 22 -54.5 q0 -31 -22 -54 q-22 -23 -54 -23 ZM446 554 q-31 0 -52.5 23 q-21.5 23 -21.5 54 q0 32 21.5 54.5 q21.5 22.5 52.5 22.5 q31 0 53 -22.5 q22 -22.5 22 -54.5 q0 -31 -22 -54 q-22 -23 -53 -23 ZM266 71 q36 0 66 17.5 q30 17.5 52 51.5 l94 -70 q-33 -58 -94.5 -87 q-61.5 -29 -131.5 -29 q-65 0 -117 27.5 q-52 27.5 -82 79.5 q-30 52 -30 122 q0 30 6 61 q14 85 58.5 142 q44.5 57 106 84 q61.5 27 129.5 27 q90 0 139.5 -43.5 q49.5 -43.5 49.5 -111.5 q0 -157 -270 -157 q-38 0 -80 3 q0 -56 28 -86.5 q28 -30.5 76 -30.5 ZM316 384 q-44 0 -79.5 -25 q-35.5 -25 -54.5 -73 q54 -4 72 -4 q121 0 121 58 q0 22 -15 33 q-15 11 -44 11 Z" /><glyph glyph-name="uni0436" unicode="&#x436;" d="M555 283 l177 201 l152 0 l-221 -253 l130 -265 l-150 0 l-94 200 l-64 0 l-35 -200 l-139 0 l35 200 l-51 0 l-167 -200 l-164 0 l227 264 l-127 254 l144 0 l101 -201 l58 0 l36 201 l139 0 l-36 -201 l49 0 Z" /><glyph glyph-name="uni0437" unicode="&#x437;" d="M447 337 q-15 -79 -113 -103 q44 -15 67 -45.5 q23 -30.5 23 -70.5 q0 -77 -63 -120.5 q-63 -43.5 -165 -43.5 q-95 0 -154.5 37 q-59.5 37 -77.5 102 l107 52 q14 -37 43.5 -56.5 q29.5 -19.5 79.5 -19.5 q38 0 63.5 14 q25.5 14 25.5 43 q0 22 -25 36 q-25 14 -81 14 l-46 0 l19 109 l39 0 q59 0 86.5 13 q27.5 13 27.5 40 q0 20 -18.5 32 q-18.5 12 -52.5 12 q-65 0 -102 -45 l-96 71 q36 46 91.5 67.5 q55.5 21.5 121.5 21.5 q96 0 149 -38.5 q53 -38.5 53 -98.5 q0 -7 -2 -23 Z" /><glyph glyph-name="uni0438" unicode="&#x438;" d="M236 484 l-54 -306 l290 306 l114 0 l-92 -518 l-137 0 l54 308 l-291 -308 l-113 0 l92 518 l137 0 Z" /></font>
</defs>
</svg>
